%TF.GenerationSoftware,KiCad,Pcbnew,(6.0.4)*%
%TF.CreationDate,2022-04-07T14:17:58+02:00*%
%TF.ProjectId,Little Big Scroll 6,4c697474-6c65-4204-9269-67205363726f,v1.01*%
%TF.SameCoordinates,Original*%
%TF.FileFunction,Legend,Bot*%
%TF.FilePolarity,Positive*%
%FSLAX46Y46*%
G04 Gerber Fmt 4.6, Leading zero omitted, Abs format (unit mm)*
G04 Created by KiCad (PCBNEW (6.0.4)) date 2022-04-07 14:17:58*
%MOMM*%
%LPD*%
G01*
G04 APERTURE LIST*
G04 Aperture macros list*
%AMRoundRect*
0 Rectangle with rounded corners*
0 $1 Rounding radius*
0 $2 $3 $4 $5 $6 $7 $8 $9 X,Y pos of 4 corners*
0 Add a 4 corners polygon primitive as box body*
4,1,4,$2,$3,$4,$5,$6,$7,$8,$9,$2,$3,0*
0 Add four circle primitives for the rounded corners*
1,1,$1+$1,$2,$3*
1,1,$1+$1,$4,$5*
1,1,$1+$1,$6,$7*
1,1,$1+$1,$8,$9*
0 Add four rect primitives between the rounded corners*
20,1,$1+$1,$2,$3,$4,$5,0*
20,1,$1+$1,$4,$5,$6,$7,0*
20,1,$1+$1,$6,$7,$8,$9,0*
20,1,$1+$1,$8,$9,$2,$3,0*%
G04 Aperture macros list end*
%ADD10C,0.150000*%
%ADD11C,0.100000*%
%ADD12C,0.120000*%
%ADD13C,0.200000*%
%ADD14R,1.752600X1.752600*%
%ADD15C,1.752600*%
%ADD16C,3.000000*%
%ADD17C,1.701800*%
%ADD18C,3.987800*%
%ADD19R,2.550000X2.500000*%
%ADD20R,2.000000X2.000000*%
%ADD21C,2.000000*%
%ADD22O,1.400000X2.600000*%
%ADD23RoundRect,0.082000X-0.668000X0.328000X-0.668000X-0.328000X0.668000X-0.328000X0.668000X0.328000X0*%
%ADD24RoundRect,0.082000X0.668000X-0.328000X0.668000X0.328000X-0.668000X0.328000X-0.668000X-0.328000X0*%
%ADD25C,3.700000*%
%ADD26R,1.700000X1.700000*%
%ADD27O,1.700000X1.700000*%
%ADD28RoundRect,0.250000X0.625000X-0.350000X0.625000X0.350000X-0.625000X0.350000X-0.625000X-0.350000X0*%
%ADD29O,1.750000X1.200000*%
%ADD30C,1.600000*%
%ADD31O,1.600000X1.600000*%
%ADD32C,0.850000*%
%ADD33R,0.800000X1.200000*%
%ADD34R,1.400000X0.800000*%
%ADD35R,1.500000X0.800000*%
G04 APERTURE END LIST*
D10*
X132295238Y-67361904D02*
X132295238Y-67933333D01*
X132333333Y-68047619D01*
X132409523Y-68123809D01*
X132523809Y-68161904D01*
X132600000Y-68161904D01*
X131533333Y-68161904D02*
X131914285Y-68161904D01*
X131914285Y-67361904D01*
X130809523Y-68085714D02*
X130847619Y-68123809D01*
X130961904Y-68161904D01*
X131038095Y-68161904D01*
X131152380Y-68123809D01*
X131228571Y-68047619D01*
X131266666Y-67971428D01*
X131304761Y-67819047D01*
X131304761Y-67704761D01*
X131266666Y-67552380D01*
X131228571Y-67476190D01*
X131152380Y-67400000D01*
X131038095Y-67361904D01*
X130961904Y-67361904D01*
X130847619Y-67400000D01*
X130809523Y-67438095D01*
X130238095Y-67361904D02*
X130238095Y-67933333D01*
X130276190Y-68047619D01*
X130352380Y-68123809D01*
X130466666Y-68161904D01*
X130542857Y-68161904D01*
X129476190Y-68161904D02*
X129857142Y-68161904D01*
X129857142Y-67361904D01*
X128752380Y-68085714D02*
X128790476Y-68123809D01*
X128904761Y-68161904D01*
X128980952Y-68161904D01*
X129095238Y-68123809D01*
X129171428Y-68047619D01*
X129209523Y-67971428D01*
X129247619Y-67819047D01*
X129247619Y-67704761D01*
X129209523Y-67552380D01*
X129171428Y-67476190D01*
X129095238Y-67400000D01*
X128980952Y-67361904D01*
X128904761Y-67361904D01*
X128790476Y-67400000D01*
X128752380Y-67438095D01*
X128180952Y-67361904D02*
X128180952Y-67933333D01*
X128219047Y-68047619D01*
X128295238Y-68123809D01*
X128409523Y-68161904D01*
X128485714Y-68161904D01*
X127419047Y-68161904D02*
X127800000Y-68161904D01*
X127800000Y-67361904D01*
X126695238Y-68085714D02*
X126733333Y-68123809D01*
X126847619Y-68161904D01*
X126923809Y-68161904D01*
X127038095Y-68123809D01*
X127114285Y-68047619D01*
X127152380Y-67971428D01*
X127190476Y-67819047D01*
X127190476Y-67704761D01*
X127152380Y-67552380D01*
X127114285Y-67476190D01*
X127038095Y-67400000D01*
X126923809Y-67361904D01*
X126847619Y-67361904D01*
X126733333Y-67400000D01*
X126695238Y-67438095D01*
X126123809Y-67361904D02*
X126123809Y-67933333D01*
X126161904Y-68047619D01*
X126238095Y-68123809D01*
X126352380Y-68161904D01*
X126428571Y-68161904D01*
X125361904Y-68161904D02*
X125742857Y-68161904D01*
X125742857Y-67361904D01*
X124638095Y-68085714D02*
X124676190Y-68123809D01*
X124790476Y-68161904D01*
X124866666Y-68161904D01*
X124980952Y-68123809D01*
X125057142Y-68047619D01*
X125095238Y-67971428D01*
X125133333Y-67819047D01*
X125133333Y-67704761D01*
X125095238Y-67552380D01*
X125057142Y-67476190D01*
X124980952Y-67400000D01*
X124866666Y-67361904D01*
X124790476Y-67361904D01*
X124676190Y-67400000D01*
X124638095Y-67438095D01*
X105184761Y-89677904D02*
X105184761Y-88877904D01*
X104918095Y-89449333D01*
X104651428Y-88877904D01*
X104651428Y-89677904D01*
X104156190Y-89677904D02*
X104232380Y-89639809D01*
X104270476Y-89601714D01*
X104308571Y-89525523D01*
X104308571Y-89296952D01*
X104270476Y-89220761D01*
X104232380Y-89182666D01*
X104156190Y-89144571D01*
X104041904Y-89144571D01*
X103965714Y-89182666D01*
X103927619Y-89220761D01*
X103889523Y-89296952D01*
X103889523Y-89525523D01*
X103927619Y-89601714D01*
X103965714Y-89639809D01*
X104041904Y-89677904D01*
X104156190Y-89677904D01*
X103203809Y-89144571D02*
X103203809Y-89677904D01*
X103546666Y-89144571D02*
X103546666Y-89563619D01*
X103508571Y-89639809D01*
X103432380Y-89677904D01*
X103318095Y-89677904D01*
X103241904Y-89639809D01*
X103203809Y-89601714D01*
X102822857Y-89144571D02*
X102822857Y-89677904D01*
X102822857Y-89220761D02*
X102784761Y-89182666D01*
X102708571Y-89144571D01*
X102594285Y-89144571D01*
X102518095Y-89182666D01*
X102480000Y-89258857D01*
X102480000Y-89677904D01*
X102213333Y-89144571D02*
X101908571Y-89144571D01*
X102099047Y-88877904D02*
X102099047Y-89563619D01*
X102060952Y-89639809D01*
X101984761Y-89677904D01*
X101908571Y-89677904D01*
X101032380Y-89677904D02*
X101032380Y-88877904D01*
X100727619Y-88877904D01*
X100651428Y-88916000D01*
X100613333Y-88954095D01*
X100575238Y-89030285D01*
X100575238Y-89144571D01*
X100613333Y-89220761D01*
X100651428Y-89258857D01*
X100727619Y-89296952D01*
X101032380Y-89296952D01*
X100232380Y-89677904D02*
X100232380Y-89144571D01*
X100232380Y-89296952D02*
X100194285Y-89220761D01*
X100156190Y-89182666D01*
X100080000Y-89144571D01*
X100003809Y-89144571D01*
X99622857Y-89677904D02*
X99699047Y-89639809D01*
X99737142Y-89601714D01*
X99775238Y-89525523D01*
X99775238Y-89296952D01*
X99737142Y-89220761D01*
X99699047Y-89182666D01*
X99622857Y-89144571D01*
X99508571Y-89144571D01*
X99432380Y-89182666D01*
X99394285Y-89220761D01*
X99356190Y-89296952D01*
X99356190Y-89525523D01*
X99394285Y-89601714D01*
X99432380Y-89639809D01*
X99508571Y-89677904D01*
X99622857Y-89677904D01*
X99013333Y-89677904D02*
X99013333Y-88877904D01*
X98746666Y-89449333D01*
X98480000Y-88877904D01*
X98480000Y-89677904D01*
X98099047Y-89677904D02*
X98099047Y-89144571D01*
X98099047Y-88877904D02*
X98137142Y-88916000D01*
X98099047Y-88954095D01*
X98060952Y-88916000D01*
X98099047Y-88877904D01*
X98099047Y-88954095D01*
X97375238Y-89639809D02*
X97451428Y-89677904D01*
X97603809Y-89677904D01*
X97680000Y-89639809D01*
X97718095Y-89601714D01*
X97756190Y-89525523D01*
X97756190Y-89296952D01*
X97718095Y-89220761D01*
X97680000Y-89182666D01*
X97603809Y-89144571D01*
X97451428Y-89144571D01*
X97375238Y-89182666D01*
X97032380Y-89677904D02*
X97032380Y-89144571D01*
X97032380Y-89296952D02*
X96994285Y-89220761D01*
X96956190Y-89182666D01*
X96880000Y-89144571D01*
X96803809Y-89144571D01*
X96422857Y-89677904D02*
X96499047Y-89639809D01*
X96537142Y-89601714D01*
X96575238Y-89525523D01*
X96575238Y-89296952D01*
X96537142Y-89220761D01*
X96499047Y-89182666D01*
X96422857Y-89144571D01*
X96308571Y-89144571D01*
X96232380Y-89182666D01*
X96194285Y-89220761D01*
X96156190Y-89296952D01*
X96156190Y-89525523D01*
X96194285Y-89601714D01*
X96232380Y-89639809D01*
X96308571Y-89677904D01*
X96422857Y-89677904D01*
X95089523Y-89677904D02*
X95165714Y-89639809D01*
X95203809Y-89601714D01*
X95241904Y-89525523D01*
X95241904Y-89296952D01*
X95203809Y-89220761D01*
X95165714Y-89182666D01*
X95089523Y-89144571D01*
X94975238Y-89144571D01*
X94899047Y-89182666D01*
X94860952Y-89220761D01*
X94822857Y-89296952D01*
X94822857Y-89525523D01*
X94860952Y-89601714D01*
X94899047Y-89639809D01*
X94975238Y-89677904D01*
X95089523Y-89677904D01*
X94480000Y-89144571D02*
X94480000Y-89677904D01*
X94480000Y-89220761D02*
X94441904Y-89182666D01*
X94365714Y-89144571D01*
X94251428Y-89144571D01*
X94175238Y-89182666D01*
X94137142Y-89258857D01*
X94137142Y-89677904D01*
X93146666Y-89677904D02*
X93146666Y-88877904D01*
X93146666Y-89182666D02*
X93070476Y-89144571D01*
X92918095Y-89144571D01*
X92841904Y-89182666D01*
X92803809Y-89220761D01*
X92765714Y-89296952D01*
X92765714Y-89525523D01*
X92803809Y-89601714D01*
X92841904Y-89639809D01*
X92918095Y-89677904D01*
X93070476Y-89677904D01*
X93146666Y-89639809D01*
X92308571Y-89677904D02*
X92384761Y-89639809D01*
X92422857Y-89601714D01*
X92460952Y-89525523D01*
X92460952Y-89296952D01*
X92422857Y-89220761D01*
X92384761Y-89182666D01*
X92308571Y-89144571D01*
X92194285Y-89144571D01*
X92118095Y-89182666D01*
X92080000Y-89220761D01*
X92041904Y-89296952D01*
X92041904Y-89525523D01*
X92080000Y-89601714D01*
X92118095Y-89639809D01*
X92194285Y-89677904D01*
X92308571Y-89677904D01*
X91813333Y-89144571D02*
X91508571Y-89144571D01*
X91699047Y-88877904D02*
X91699047Y-89563619D01*
X91660952Y-89639809D01*
X91584761Y-89677904D01*
X91508571Y-89677904D01*
X91356190Y-89144571D02*
X91051428Y-89144571D01*
X91241904Y-88877904D02*
X91241904Y-89563619D01*
X91203809Y-89639809D01*
X91127619Y-89677904D01*
X91051428Y-89677904D01*
X90670476Y-89677904D02*
X90746666Y-89639809D01*
X90784761Y-89601714D01*
X90822857Y-89525523D01*
X90822857Y-89296952D01*
X90784761Y-89220761D01*
X90746666Y-89182666D01*
X90670476Y-89144571D01*
X90556190Y-89144571D01*
X90480000Y-89182666D01*
X90441904Y-89220761D01*
X90403809Y-89296952D01*
X90403809Y-89525523D01*
X90441904Y-89601714D01*
X90480000Y-89639809D01*
X90556190Y-89677904D01*
X90670476Y-89677904D01*
X90060952Y-89677904D02*
X90060952Y-89144571D01*
X90060952Y-89220761D02*
X90022857Y-89182666D01*
X89946666Y-89144571D01*
X89832380Y-89144571D01*
X89756190Y-89182666D01*
X89718095Y-89258857D01*
X89718095Y-89677904D01*
X89718095Y-89258857D02*
X89680000Y-89182666D01*
X89603809Y-89144571D01*
X89489523Y-89144571D01*
X89413333Y-89182666D01*
X89375238Y-89258857D01*
X89375238Y-89677904D01*
X88270476Y-89677904D02*
X88346666Y-89639809D01*
X88384761Y-89601714D01*
X88422857Y-89525523D01*
X88422857Y-89296952D01*
X88384761Y-89220761D01*
X88346666Y-89182666D01*
X88270476Y-89144571D01*
X88156190Y-89144571D01*
X88080000Y-89182666D01*
X88041904Y-89220761D01*
X88003809Y-89296952D01*
X88003809Y-89525523D01*
X88041904Y-89601714D01*
X88080000Y-89639809D01*
X88156190Y-89677904D01*
X88270476Y-89677904D01*
X87775238Y-89144571D02*
X87470476Y-89144571D01*
X87660952Y-89677904D02*
X87660952Y-88992190D01*
X87622857Y-88916000D01*
X87546666Y-88877904D01*
X87470476Y-88877904D01*
X104537142Y-90965904D02*
X104537142Y-90165904D01*
X104232380Y-90165904D01*
X104156190Y-90204000D01*
X104118095Y-90242095D01*
X104080000Y-90318285D01*
X104080000Y-90432571D01*
X104118095Y-90508761D01*
X104156190Y-90546857D01*
X104232380Y-90584952D01*
X104537142Y-90584952D01*
X103280000Y-90889714D02*
X103318095Y-90927809D01*
X103432380Y-90965904D01*
X103508571Y-90965904D01*
X103622857Y-90927809D01*
X103699047Y-90851619D01*
X103737142Y-90775428D01*
X103775238Y-90623047D01*
X103775238Y-90508761D01*
X103737142Y-90356380D01*
X103699047Y-90280190D01*
X103622857Y-90204000D01*
X103508571Y-90165904D01*
X103432380Y-90165904D01*
X103318095Y-90204000D01*
X103280000Y-90242095D01*
X102670476Y-90546857D02*
X102556190Y-90584952D01*
X102518095Y-90623047D01*
X102480000Y-90699238D01*
X102480000Y-90813523D01*
X102518095Y-90889714D01*
X102556190Y-90927809D01*
X102632380Y-90965904D01*
X102937142Y-90965904D01*
X102937142Y-90165904D01*
X102670476Y-90165904D01*
X102594285Y-90204000D01*
X102556190Y-90242095D01*
X102518095Y-90318285D01*
X102518095Y-90394476D01*
X102556190Y-90470666D01*
X102594285Y-90508761D01*
X102670476Y-90546857D01*
X102937142Y-90546857D01*
X102099047Y-90927809D02*
X102099047Y-90965904D01*
X102137142Y-91042095D01*
X102175238Y-91080190D01*
X100803809Y-90927809D02*
X100880000Y-90965904D01*
X101032380Y-90965904D01*
X101108571Y-90927809D01*
X101146666Y-90889714D01*
X101184761Y-90813523D01*
X101184761Y-90584952D01*
X101146666Y-90508761D01*
X101108571Y-90470666D01*
X101032380Y-90432571D01*
X100880000Y-90432571D01*
X100803809Y-90470666D01*
X100346666Y-90965904D02*
X100422857Y-90927809D01*
X100460952Y-90889714D01*
X100499047Y-90813523D01*
X100499047Y-90584952D01*
X100460952Y-90508761D01*
X100422857Y-90470666D01*
X100346666Y-90432571D01*
X100232380Y-90432571D01*
X100156190Y-90470666D01*
X100118095Y-90508761D01*
X100080000Y-90584952D01*
X100080000Y-90813523D01*
X100118095Y-90889714D01*
X100156190Y-90927809D01*
X100232380Y-90965904D01*
X100346666Y-90965904D01*
X99737142Y-90965904D02*
X99737142Y-90432571D01*
X99737142Y-90508761D02*
X99699047Y-90470666D01*
X99622857Y-90432571D01*
X99508571Y-90432571D01*
X99432380Y-90470666D01*
X99394285Y-90546857D01*
X99394285Y-90965904D01*
X99394285Y-90546857D02*
X99356190Y-90470666D01*
X99280000Y-90432571D01*
X99165714Y-90432571D01*
X99089523Y-90470666D01*
X99051428Y-90546857D01*
X99051428Y-90965904D01*
X98670476Y-90432571D02*
X98670476Y-91232571D01*
X98670476Y-90470666D02*
X98594285Y-90432571D01*
X98441904Y-90432571D01*
X98365714Y-90470666D01*
X98327619Y-90508761D01*
X98289523Y-90584952D01*
X98289523Y-90813523D01*
X98327619Y-90889714D01*
X98365714Y-90927809D01*
X98441904Y-90965904D01*
X98594285Y-90965904D01*
X98670476Y-90927809D01*
X97832380Y-90965904D02*
X97908571Y-90927809D01*
X97946666Y-90889714D01*
X97984761Y-90813523D01*
X97984761Y-90584952D01*
X97946666Y-90508761D01*
X97908571Y-90470666D01*
X97832380Y-90432571D01*
X97718095Y-90432571D01*
X97641904Y-90470666D01*
X97603809Y-90508761D01*
X97565714Y-90584952D01*
X97565714Y-90813523D01*
X97603809Y-90889714D01*
X97641904Y-90927809D01*
X97718095Y-90965904D01*
X97832380Y-90965904D01*
X97222857Y-90432571D02*
X97222857Y-90965904D01*
X97222857Y-90508761D02*
X97184761Y-90470666D01*
X97108571Y-90432571D01*
X96994285Y-90432571D01*
X96918095Y-90470666D01*
X96880000Y-90546857D01*
X96880000Y-90965904D01*
X96194285Y-90927809D02*
X96270476Y-90965904D01*
X96422857Y-90965904D01*
X96499047Y-90927809D01*
X96537142Y-90851619D01*
X96537142Y-90546857D01*
X96499047Y-90470666D01*
X96422857Y-90432571D01*
X96270476Y-90432571D01*
X96194285Y-90470666D01*
X96156190Y-90546857D01*
X96156190Y-90623047D01*
X96537142Y-90699238D01*
X95813333Y-90432571D02*
X95813333Y-90965904D01*
X95813333Y-90508761D02*
X95775238Y-90470666D01*
X95699047Y-90432571D01*
X95584761Y-90432571D01*
X95508571Y-90470666D01*
X95470476Y-90546857D01*
X95470476Y-90965904D01*
X95203809Y-90432571D02*
X94899047Y-90432571D01*
X95089523Y-90165904D02*
X95089523Y-90851619D01*
X95051428Y-90927809D01*
X94975238Y-90965904D01*
X94899047Y-90965904D01*
X94670476Y-90927809D02*
X94594285Y-90965904D01*
X94441904Y-90965904D01*
X94365714Y-90927809D01*
X94327619Y-90851619D01*
X94327619Y-90813523D01*
X94365714Y-90737333D01*
X94441904Y-90699238D01*
X94556190Y-90699238D01*
X94632380Y-90661142D01*
X94670476Y-90584952D01*
X94670476Y-90546857D01*
X94632380Y-90470666D01*
X94556190Y-90432571D01*
X94441904Y-90432571D01*
X94365714Y-90470666D01*
X93489523Y-90432571D02*
X93184761Y-90432571D01*
X93375238Y-90965904D02*
X93375238Y-90280190D01*
X93337142Y-90204000D01*
X93260952Y-90165904D01*
X93184761Y-90165904D01*
X92575238Y-90965904D02*
X92575238Y-90546857D01*
X92613333Y-90470666D01*
X92689523Y-90432571D01*
X92841904Y-90432571D01*
X92918095Y-90470666D01*
X92575238Y-90927809D02*
X92651428Y-90965904D01*
X92841904Y-90965904D01*
X92918095Y-90927809D01*
X92956190Y-90851619D01*
X92956190Y-90775428D01*
X92918095Y-90699238D01*
X92841904Y-90661142D01*
X92651428Y-90661142D01*
X92575238Y-90623047D01*
X91851428Y-90927809D02*
X91927619Y-90965904D01*
X92080000Y-90965904D01*
X92156190Y-90927809D01*
X92194285Y-90889714D01*
X92232380Y-90813523D01*
X92232380Y-90584952D01*
X92194285Y-90508761D01*
X92156190Y-90470666D01*
X92080000Y-90432571D01*
X91927619Y-90432571D01*
X91851428Y-90470666D01*
X91508571Y-90965904D02*
X91508571Y-90432571D01*
X91508571Y-90165904D02*
X91546666Y-90204000D01*
X91508571Y-90242095D01*
X91470476Y-90204000D01*
X91508571Y-90165904D01*
X91508571Y-90242095D01*
X91127619Y-90432571D02*
X91127619Y-90965904D01*
X91127619Y-90508761D02*
X91089523Y-90470666D01*
X91013333Y-90432571D01*
X90899047Y-90432571D01*
X90822857Y-90470666D01*
X90784761Y-90546857D01*
X90784761Y-90965904D01*
X90060952Y-90432571D02*
X90060952Y-91080190D01*
X90099047Y-91156380D01*
X90137142Y-91194476D01*
X90213333Y-91232571D01*
X90327619Y-91232571D01*
X90403809Y-91194476D01*
X90060952Y-90927809D02*
X90137142Y-90965904D01*
X90289523Y-90965904D01*
X90365714Y-90927809D01*
X90403809Y-90889714D01*
X90441904Y-90813523D01*
X90441904Y-90584952D01*
X90403809Y-90508761D01*
X90365714Y-90470666D01*
X90289523Y-90432571D01*
X90137142Y-90432571D01*
X90060952Y-90470666D01*
X88727619Y-90432571D02*
X88727619Y-90965904D01*
X89070476Y-90432571D02*
X89070476Y-90851619D01*
X89032380Y-90927809D01*
X88956190Y-90965904D01*
X88841904Y-90965904D01*
X88765714Y-90927809D01*
X88727619Y-90889714D01*
X88346666Y-90432571D02*
X88346666Y-91232571D01*
X88346666Y-90470666D02*
X88270476Y-90432571D01*
X88118095Y-90432571D01*
X88041904Y-90470666D01*
X88003809Y-90508761D01*
X87965714Y-90584952D01*
X87965714Y-90813523D01*
X88003809Y-90889714D01*
X88041904Y-90927809D01*
X88118095Y-90965904D01*
X88270476Y-90965904D01*
X88346666Y-90927809D01*
X87622857Y-90889714D02*
X87584761Y-90927809D01*
X87622857Y-90965904D01*
X87660952Y-90927809D01*
X87622857Y-90889714D01*
X87622857Y-90965904D01*
X92566666Y-111852380D02*
X92900000Y-111376190D01*
X93138095Y-111852380D02*
X93138095Y-110852380D01*
X92757142Y-110852380D01*
X92661904Y-110900000D01*
X92614285Y-110947619D01*
X92566666Y-111042857D01*
X92566666Y-111185714D01*
X92614285Y-111280952D01*
X92661904Y-111328571D01*
X92757142Y-111376190D01*
X93138095Y-111376190D01*
X91614285Y-110900000D02*
X91709523Y-110852380D01*
X91852380Y-110852380D01*
X91995238Y-110900000D01*
X92090476Y-110995238D01*
X92138095Y-111090476D01*
X92185714Y-111280952D01*
X92185714Y-111423809D01*
X92138095Y-111614285D01*
X92090476Y-111709523D01*
X91995238Y-111804761D01*
X91852380Y-111852380D01*
X91757142Y-111852380D01*
X91614285Y-111804761D01*
X91566666Y-111757142D01*
X91566666Y-111423809D01*
X91757142Y-111423809D01*
X90804761Y-111328571D02*
X90661904Y-111376190D01*
X90614285Y-111423809D01*
X90566666Y-111519047D01*
X90566666Y-111661904D01*
X90614285Y-111757142D01*
X90661904Y-111804761D01*
X90757142Y-111852380D01*
X91138095Y-111852380D01*
X91138095Y-110852380D01*
X90804761Y-110852380D01*
X90709523Y-110900000D01*
X90661904Y-110947619D01*
X90614285Y-111042857D01*
X90614285Y-111138095D01*
X90661904Y-111233333D01*
X90709523Y-111280952D01*
X90804761Y-111328571D01*
X91138095Y-111328571D01*
X89614285Y-111852380D02*
X90185714Y-111852380D01*
X89900000Y-111852380D02*
X89900000Y-110852380D01*
X89995238Y-110995238D01*
X90090476Y-111090476D01*
X90185714Y-111138095D01*
X111616666Y-111852380D02*
X111950000Y-111376190D01*
X112188095Y-111852380D02*
X112188095Y-110852380D01*
X111807142Y-110852380D01*
X111711904Y-110900000D01*
X111664285Y-110947619D01*
X111616666Y-111042857D01*
X111616666Y-111185714D01*
X111664285Y-111280952D01*
X111711904Y-111328571D01*
X111807142Y-111376190D01*
X112188095Y-111376190D01*
X110664285Y-110900000D02*
X110759523Y-110852380D01*
X110902380Y-110852380D01*
X111045238Y-110900000D01*
X111140476Y-110995238D01*
X111188095Y-111090476D01*
X111235714Y-111280952D01*
X111235714Y-111423809D01*
X111188095Y-111614285D01*
X111140476Y-111709523D01*
X111045238Y-111804761D01*
X110902380Y-111852380D01*
X110807142Y-111852380D01*
X110664285Y-111804761D01*
X110616666Y-111757142D01*
X110616666Y-111423809D01*
X110807142Y-111423809D01*
X109854761Y-111328571D02*
X109711904Y-111376190D01*
X109664285Y-111423809D01*
X109616666Y-111519047D01*
X109616666Y-111661904D01*
X109664285Y-111757142D01*
X109711904Y-111804761D01*
X109807142Y-111852380D01*
X110188095Y-111852380D01*
X110188095Y-110852380D01*
X109854761Y-110852380D01*
X109759523Y-110900000D01*
X109711904Y-110947619D01*
X109664285Y-111042857D01*
X109664285Y-111138095D01*
X109711904Y-111233333D01*
X109759523Y-111280952D01*
X109854761Y-111328571D01*
X110188095Y-111328571D01*
X109235714Y-110947619D02*
X109188095Y-110900000D01*
X109092857Y-110852380D01*
X108854761Y-110852380D01*
X108759523Y-110900000D01*
X108711904Y-110947619D01*
X108664285Y-111042857D01*
X108664285Y-111138095D01*
X108711904Y-111280952D01*
X109283333Y-111852380D01*
X108664285Y-111852380D01*
X130666666Y-111852380D02*
X131000000Y-111376190D01*
X131238095Y-111852380D02*
X131238095Y-110852380D01*
X130857142Y-110852380D01*
X130761904Y-110900000D01*
X130714285Y-110947619D01*
X130666666Y-111042857D01*
X130666666Y-111185714D01*
X130714285Y-111280952D01*
X130761904Y-111328571D01*
X130857142Y-111376190D01*
X131238095Y-111376190D01*
X129714285Y-110900000D02*
X129809523Y-110852380D01*
X129952380Y-110852380D01*
X130095238Y-110900000D01*
X130190476Y-110995238D01*
X130238095Y-111090476D01*
X130285714Y-111280952D01*
X130285714Y-111423809D01*
X130238095Y-111614285D01*
X130190476Y-111709523D01*
X130095238Y-111804761D01*
X129952380Y-111852380D01*
X129857142Y-111852380D01*
X129714285Y-111804761D01*
X129666666Y-111757142D01*
X129666666Y-111423809D01*
X129857142Y-111423809D01*
X128904761Y-111328571D02*
X128761904Y-111376190D01*
X128714285Y-111423809D01*
X128666666Y-111519047D01*
X128666666Y-111661904D01*
X128714285Y-111757142D01*
X128761904Y-111804761D01*
X128857142Y-111852380D01*
X129238095Y-111852380D01*
X129238095Y-110852380D01*
X128904761Y-110852380D01*
X128809523Y-110900000D01*
X128761904Y-110947619D01*
X128714285Y-111042857D01*
X128714285Y-111138095D01*
X128761904Y-111233333D01*
X128809523Y-111280952D01*
X128904761Y-111328571D01*
X129238095Y-111328571D01*
X128333333Y-110852380D02*
X127714285Y-110852380D01*
X128047619Y-111233333D01*
X127904761Y-111233333D01*
X127809523Y-111280952D01*
X127761904Y-111328571D01*
X127714285Y-111423809D01*
X127714285Y-111661904D01*
X127761904Y-111757142D01*
X127809523Y-111804761D01*
X127904761Y-111852380D01*
X128190476Y-111852380D01*
X128285714Y-111804761D01*
X128333333Y-111757142D01*
X92566666Y-130902380D02*
X92900000Y-130426190D01*
X93138095Y-130902380D02*
X93138095Y-129902380D01*
X92757142Y-129902380D01*
X92661904Y-129950000D01*
X92614285Y-129997619D01*
X92566666Y-130092857D01*
X92566666Y-130235714D01*
X92614285Y-130330952D01*
X92661904Y-130378571D01*
X92757142Y-130426190D01*
X93138095Y-130426190D01*
X91614285Y-129950000D02*
X91709523Y-129902380D01*
X91852380Y-129902380D01*
X91995238Y-129950000D01*
X92090476Y-130045238D01*
X92138095Y-130140476D01*
X92185714Y-130330952D01*
X92185714Y-130473809D01*
X92138095Y-130664285D01*
X92090476Y-130759523D01*
X91995238Y-130854761D01*
X91852380Y-130902380D01*
X91757142Y-130902380D01*
X91614285Y-130854761D01*
X91566666Y-130807142D01*
X91566666Y-130473809D01*
X91757142Y-130473809D01*
X90804761Y-130378571D02*
X90661904Y-130426190D01*
X90614285Y-130473809D01*
X90566666Y-130569047D01*
X90566666Y-130711904D01*
X90614285Y-130807142D01*
X90661904Y-130854761D01*
X90757142Y-130902380D01*
X91138095Y-130902380D01*
X91138095Y-129902380D01*
X90804761Y-129902380D01*
X90709523Y-129950000D01*
X90661904Y-129997619D01*
X90614285Y-130092857D01*
X90614285Y-130188095D01*
X90661904Y-130283333D01*
X90709523Y-130330952D01*
X90804761Y-130378571D01*
X91138095Y-130378571D01*
X89709523Y-130235714D02*
X89709523Y-130902380D01*
X89947619Y-129854761D02*
X90185714Y-130569047D01*
X89566666Y-130569047D01*
X111616666Y-130902380D02*
X111950000Y-130426190D01*
X112188095Y-130902380D02*
X112188095Y-129902380D01*
X111807142Y-129902380D01*
X111711904Y-129950000D01*
X111664285Y-129997619D01*
X111616666Y-130092857D01*
X111616666Y-130235714D01*
X111664285Y-130330952D01*
X111711904Y-130378571D01*
X111807142Y-130426190D01*
X112188095Y-130426190D01*
X110664285Y-129950000D02*
X110759523Y-129902380D01*
X110902380Y-129902380D01*
X111045238Y-129950000D01*
X111140476Y-130045238D01*
X111188095Y-130140476D01*
X111235714Y-130330952D01*
X111235714Y-130473809D01*
X111188095Y-130664285D01*
X111140476Y-130759523D01*
X111045238Y-130854761D01*
X110902380Y-130902380D01*
X110807142Y-130902380D01*
X110664285Y-130854761D01*
X110616666Y-130807142D01*
X110616666Y-130473809D01*
X110807142Y-130473809D01*
X109854761Y-130378571D02*
X109711904Y-130426190D01*
X109664285Y-130473809D01*
X109616666Y-130569047D01*
X109616666Y-130711904D01*
X109664285Y-130807142D01*
X109711904Y-130854761D01*
X109807142Y-130902380D01*
X110188095Y-130902380D01*
X110188095Y-129902380D01*
X109854761Y-129902380D01*
X109759523Y-129950000D01*
X109711904Y-129997619D01*
X109664285Y-130092857D01*
X109664285Y-130188095D01*
X109711904Y-130283333D01*
X109759523Y-130330952D01*
X109854761Y-130378571D01*
X110188095Y-130378571D01*
X108711904Y-129902380D02*
X109188095Y-129902380D01*
X109235714Y-130378571D01*
X109188095Y-130330952D01*
X109092857Y-130283333D01*
X108854761Y-130283333D01*
X108759523Y-130330952D01*
X108711904Y-130378571D01*
X108664285Y-130473809D01*
X108664285Y-130711904D01*
X108711904Y-130807142D01*
X108759523Y-130854761D01*
X108854761Y-130902380D01*
X109092857Y-130902380D01*
X109188095Y-130854761D01*
X109235714Y-130807142D01*
X130666666Y-130902380D02*
X131000000Y-130426190D01*
X131238095Y-130902380D02*
X131238095Y-129902380D01*
X130857142Y-129902380D01*
X130761904Y-129950000D01*
X130714285Y-129997619D01*
X130666666Y-130092857D01*
X130666666Y-130235714D01*
X130714285Y-130330952D01*
X130761904Y-130378571D01*
X130857142Y-130426190D01*
X131238095Y-130426190D01*
X129714285Y-129950000D02*
X129809523Y-129902380D01*
X129952380Y-129902380D01*
X130095238Y-129950000D01*
X130190476Y-130045238D01*
X130238095Y-130140476D01*
X130285714Y-130330952D01*
X130285714Y-130473809D01*
X130238095Y-130664285D01*
X130190476Y-130759523D01*
X130095238Y-130854761D01*
X129952380Y-130902380D01*
X129857142Y-130902380D01*
X129714285Y-130854761D01*
X129666666Y-130807142D01*
X129666666Y-130473809D01*
X129857142Y-130473809D01*
X128904761Y-130378571D02*
X128761904Y-130426190D01*
X128714285Y-130473809D01*
X128666666Y-130569047D01*
X128666666Y-130711904D01*
X128714285Y-130807142D01*
X128761904Y-130854761D01*
X128857142Y-130902380D01*
X129238095Y-130902380D01*
X129238095Y-129902380D01*
X128904761Y-129902380D01*
X128809523Y-129950000D01*
X128761904Y-129997619D01*
X128714285Y-130092857D01*
X128714285Y-130188095D01*
X128761904Y-130283333D01*
X128809523Y-130330952D01*
X128904761Y-130378571D01*
X129238095Y-130378571D01*
X127809523Y-129902380D02*
X128000000Y-129902380D01*
X128095238Y-129950000D01*
X128142857Y-129997619D01*
X128238095Y-130140476D01*
X128285714Y-130330952D01*
X128285714Y-130711904D01*
X128238095Y-130807142D01*
X128190476Y-130854761D01*
X128095238Y-130902380D01*
X127904761Y-130902380D01*
X127809523Y-130854761D01*
X127761904Y-130807142D01*
X127714285Y-130711904D01*
X127714285Y-130473809D01*
X127761904Y-130378571D01*
X127809523Y-130330952D01*
X127904761Y-130283333D01*
X128095238Y-130283333D01*
X128190476Y-130330952D01*
X128238095Y-130378571D01*
X128285714Y-130473809D01*
X111256666Y-54412380D02*
X111590000Y-53936190D01*
X111828095Y-54412380D02*
X111828095Y-53412380D01*
X111447142Y-53412380D01*
X111351904Y-53460000D01*
X111304285Y-53507619D01*
X111256666Y-53602857D01*
X111256666Y-53745714D01*
X111304285Y-53840952D01*
X111351904Y-53888571D01*
X111447142Y-53936190D01*
X111828095Y-53936190D01*
X110304285Y-53460000D02*
X110399523Y-53412380D01*
X110542380Y-53412380D01*
X110685238Y-53460000D01*
X110780476Y-53555238D01*
X110828095Y-53650476D01*
X110875714Y-53840952D01*
X110875714Y-53983809D01*
X110828095Y-54174285D01*
X110780476Y-54269523D01*
X110685238Y-54364761D01*
X110542380Y-54412380D01*
X110447142Y-54412380D01*
X110304285Y-54364761D01*
X110256666Y-54317142D01*
X110256666Y-53983809D01*
X110447142Y-53983809D01*
X109494761Y-53888571D02*
X109351904Y-53936190D01*
X109304285Y-53983809D01*
X109256666Y-54079047D01*
X109256666Y-54221904D01*
X109304285Y-54317142D01*
X109351904Y-54364761D01*
X109447142Y-54412380D01*
X109828095Y-54412380D01*
X109828095Y-53412380D01*
X109494761Y-53412380D01*
X109399523Y-53460000D01*
X109351904Y-53507619D01*
X109304285Y-53602857D01*
X109304285Y-53698095D01*
X109351904Y-53793333D01*
X109399523Y-53840952D01*
X109494761Y-53888571D01*
X109828095Y-53888571D01*
X108685238Y-53840952D02*
X108780476Y-53793333D01*
X108828095Y-53745714D01*
X108875714Y-53650476D01*
X108875714Y-53602857D01*
X108828095Y-53507619D01*
X108780476Y-53460000D01*
X108685238Y-53412380D01*
X108494761Y-53412380D01*
X108399523Y-53460000D01*
X108351904Y-53507619D01*
X108304285Y-53602857D01*
X108304285Y-53650476D01*
X108351904Y-53745714D01*
X108399523Y-53793333D01*
X108494761Y-53840952D01*
X108685238Y-53840952D01*
X108780476Y-53888571D01*
X108828095Y-53936190D01*
X108875714Y-54031428D01*
X108875714Y-54221904D01*
X108828095Y-54317142D01*
X108780476Y-54364761D01*
X108685238Y-54412380D01*
X108494761Y-54412380D01*
X108399523Y-54364761D01*
X108351904Y-54317142D01*
X108304285Y-54221904D01*
X108304285Y-54031428D01*
X108351904Y-53936190D01*
X108399523Y-53888571D01*
X108494761Y-53840952D01*
X111666666Y-83452380D02*
X112000000Y-82976190D01*
X112238095Y-83452380D02*
X112238095Y-82452380D01*
X111857142Y-82452380D01*
X111761904Y-82500000D01*
X111714285Y-82547619D01*
X111666666Y-82642857D01*
X111666666Y-82785714D01*
X111714285Y-82880952D01*
X111761904Y-82928571D01*
X111857142Y-82976190D01*
X112238095Y-82976190D01*
X110714285Y-82500000D02*
X110809523Y-82452380D01*
X110952380Y-82452380D01*
X111095238Y-82500000D01*
X111190476Y-82595238D01*
X111238095Y-82690476D01*
X111285714Y-82880952D01*
X111285714Y-83023809D01*
X111238095Y-83214285D01*
X111190476Y-83309523D01*
X111095238Y-83404761D01*
X110952380Y-83452380D01*
X110857142Y-83452380D01*
X110714285Y-83404761D01*
X110666666Y-83357142D01*
X110666666Y-83023809D01*
X110857142Y-83023809D01*
X109904761Y-82928571D02*
X109761904Y-82976190D01*
X109714285Y-83023809D01*
X109666666Y-83119047D01*
X109666666Y-83261904D01*
X109714285Y-83357142D01*
X109761904Y-83404761D01*
X109857142Y-83452380D01*
X110238095Y-83452380D01*
X110238095Y-82452380D01*
X109904761Y-82452380D01*
X109809523Y-82500000D01*
X109761904Y-82547619D01*
X109714285Y-82642857D01*
X109714285Y-82738095D01*
X109761904Y-82833333D01*
X109809523Y-82880952D01*
X109904761Y-82928571D01*
X110238095Y-82928571D01*
X109333333Y-82452380D02*
X108666666Y-82452380D01*
X109095238Y-83452380D01*
X115457142Y-79253333D02*
X115504761Y-79205714D01*
X115552380Y-79062857D01*
X115552380Y-78967619D01*
X115504761Y-78824761D01*
X115409523Y-78729523D01*
X115314285Y-78681904D01*
X115123809Y-78634285D01*
X114980952Y-78634285D01*
X114790476Y-78681904D01*
X114695238Y-78729523D01*
X114600000Y-78824761D01*
X114552380Y-78967619D01*
X114552380Y-79062857D01*
X114600000Y-79205714D01*
X114647619Y-79253333D01*
X114647619Y-79634285D02*
X114600000Y-79681904D01*
X114552380Y-79777142D01*
X114552380Y-80015238D01*
X114600000Y-80110476D01*
X114647619Y-80158095D01*
X114742857Y-80205714D01*
X114838095Y-80205714D01*
X114980952Y-80158095D01*
X115552380Y-79586666D01*
X115552380Y-80205714D01*
X105957142Y-79333333D02*
X106004761Y-79285714D01*
X106052380Y-79142857D01*
X106052380Y-79047619D01*
X106004761Y-78904761D01*
X105909523Y-78809523D01*
X105814285Y-78761904D01*
X105623809Y-78714285D01*
X105480952Y-78714285D01*
X105290476Y-78761904D01*
X105195238Y-78809523D01*
X105100000Y-78904761D01*
X105052380Y-79047619D01*
X105052380Y-79142857D01*
X105100000Y-79285714D01*
X105147619Y-79333333D01*
X106052380Y-80285714D02*
X106052380Y-79714285D01*
X106052380Y-80000000D02*
X105052380Y-80000000D01*
X105195238Y-79904761D01*
X105290476Y-79809523D01*
X105338095Y-79714285D01*
X113051428Y-48403571D02*
X112944285Y-48439285D01*
X112765714Y-48439285D01*
X112694285Y-48403571D01*
X112658571Y-48367857D01*
X112622857Y-48296428D01*
X112622857Y-48225000D01*
X112658571Y-48153571D01*
X112694285Y-48117857D01*
X112765714Y-48082142D01*
X112908571Y-48046428D01*
X112980000Y-48010714D01*
X113015714Y-47975000D01*
X113051428Y-47903571D01*
X113051428Y-47832142D01*
X113015714Y-47760714D01*
X112980000Y-47725000D01*
X112908571Y-47689285D01*
X112730000Y-47689285D01*
X112622857Y-47725000D01*
X111908571Y-48439285D02*
X112337142Y-48439285D01*
X112122857Y-48439285D02*
X112122857Y-47689285D01*
X112194285Y-47796428D01*
X112265714Y-47867857D01*
X112337142Y-47903571D01*
X84870000Y-98715000D02*
X84870000Y-99096000D01*
X96300000Y-100620000D02*
X91220000Y-100620000D01*
X87410000Y-96175000D02*
X96300000Y-96175000D01*
X85251000Y-102525000D02*
X84870000Y-102525000D01*
X96300000Y-96175000D02*
X96300000Y-96556000D01*
X96300000Y-99604000D02*
X96300000Y-100620000D01*
X88755838Y-102525000D02*
X87029000Y-102525000D01*
X84870000Y-102144000D02*
X84870000Y-102525000D01*
X91220000Y-100619999D02*
G75*
G03*
X88755838Y-102543960I0J-2540000D01*
G01*
X87410000Y-96175000D02*
G75*
G03*
X84870000Y-98715000I1J-2540001D01*
G01*
X103920000Y-102144000D02*
X103920000Y-102525000D01*
X106460000Y-96175000D02*
X115350000Y-96175000D01*
X103920000Y-98715000D02*
X103920000Y-99096000D01*
X115350000Y-100620000D02*
X110270000Y-100620000D01*
X115350000Y-96175000D02*
X115350000Y-96556000D01*
X104301000Y-102525000D02*
X103920000Y-102525000D01*
X115350000Y-99604000D02*
X115350000Y-100620000D01*
X107805838Y-102525000D02*
X106079000Y-102525000D01*
X110270000Y-100619999D02*
G75*
G03*
X107805838Y-102543960I0J-2540000D01*
G01*
X106460000Y-96175000D02*
G75*
G03*
X103920000Y-98715000I1J-2540001D01*
G01*
X126855838Y-102525000D02*
X125129000Y-102525000D01*
X122970000Y-102144000D02*
X122970000Y-102525000D01*
X125510000Y-96175000D02*
X134400000Y-96175000D01*
X122970000Y-98715000D02*
X122970000Y-99096000D01*
X123351000Y-102525000D02*
X122970000Y-102525000D01*
X134400000Y-100620000D02*
X129320000Y-100620000D01*
X134400000Y-99604000D02*
X134400000Y-100620000D01*
X134400000Y-96175000D02*
X134400000Y-96556000D01*
X129320000Y-100619999D02*
G75*
G03*
X126855838Y-102543960I0J-2540000D01*
G01*
X125510000Y-96175000D02*
G75*
G03*
X122970000Y-98715000I1J-2540001D01*
G01*
X84870000Y-121194000D02*
X84870000Y-121575000D01*
X85251000Y-121575000D02*
X84870000Y-121575000D01*
X84870000Y-117765000D02*
X84870000Y-118146000D01*
X96300000Y-118654000D02*
X96300000Y-119670000D01*
X96300000Y-115225000D02*
X96300000Y-115606000D01*
X87410000Y-115225000D02*
X96300000Y-115225000D01*
X88755838Y-121575000D02*
X87029000Y-121575000D01*
X96300000Y-119670000D02*
X91220000Y-119670000D01*
X91220000Y-119669999D02*
G75*
G03*
X88755838Y-121593960I0J-2540000D01*
G01*
X87410000Y-115225000D02*
G75*
G03*
X84870000Y-117765000I1J-2540001D01*
G01*
X115350000Y-115225000D02*
X115350000Y-115606000D01*
X115350000Y-118654000D02*
X115350000Y-119670000D01*
X103920000Y-117765000D02*
X103920000Y-118146000D01*
X107805838Y-121575000D02*
X106079000Y-121575000D01*
X115350000Y-119670000D02*
X110270000Y-119670000D01*
X104301000Y-121575000D02*
X103920000Y-121575000D01*
X106460000Y-115225000D02*
X115350000Y-115225000D01*
X103920000Y-121194000D02*
X103920000Y-121575000D01*
X106460000Y-115225000D02*
G75*
G03*
X103920000Y-117765000I1J-2540001D01*
G01*
X110270000Y-119669999D02*
G75*
G03*
X107805838Y-121593960I0J-2540000D01*
G01*
X123351000Y-121575000D02*
X122970000Y-121575000D01*
X134400000Y-115225000D02*
X134400000Y-115606000D01*
X134400000Y-118654000D02*
X134400000Y-119670000D01*
X122970000Y-117765000D02*
X122970000Y-118146000D01*
X134400000Y-119670000D02*
X129320000Y-119670000D01*
X122970000Y-121194000D02*
X122970000Y-121575000D01*
X125510000Y-115225000D02*
X134400000Y-115225000D01*
X126855838Y-121575000D02*
X125129000Y-121575000D01*
X125510000Y-115225000D02*
G75*
G03*
X122970000Y-117765000I1J-2540001D01*
G01*
X129320000Y-119669999D02*
G75*
G03*
X126855838Y-121593960I0J-2540000D01*
G01*
G36*
X95420000Y-110139999D02*
G01*
X94520000Y-110139999D01*
X95420000Y-109239999D01*
X95420000Y-110139999D01*
G37*
D11*
X95420000Y-110139999D02*
X94520000Y-110139999D01*
X95420000Y-109239999D01*
X95420000Y-110139999D01*
G36*
X114470000Y-110139999D02*
G01*
X113570000Y-110139999D01*
X114470000Y-109239999D01*
X114470000Y-110139999D01*
G37*
X114470000Y-110139999D02*
X113570000Y-110139999D01*
X114470000Y-109239999D01*
X114470000Y-110139999D01*
G36*
X133520000Y-110139999D02*
G01*
X132620000Y-110139999D01*
X133520000Y-109239999D01*
X133520000Y-110139999D01*
G37*
X133520000Y-110139999D02*
X132620000Y-110139999D01*
X133520000Y-109239999D01*
X133520000Y-110139999D01*
G36*
X95420000Y-129189999D02*
G01*
X94520000Y-129189999D01*
X95420000Y-128289999D01*
X95420000Y-129189999D01*
G37*
X95420000Y-129189999D02*
X94520000Y-129189999D01*
X95420000Y-128289999D01*
X95420000Y-129189999D01*
G36*
X114470000Y-129189999D02*
G01*
X113570000Y-129189999D01*
X114470000Y-128289999D01*
X114470000Y-129189999D01*
G37*
X114470000Y-129189999D02*
X113570000Y-129189999D01*
X114470000Y-128289999D01*
X114470000Y-129189999D01*
G36*
X133520000Y-129189999D02*
G01*
X132620000Y-129189999D01*
X133520000Y-128289999D01*
X133520000Y-129189999D01*
G37*
X133520000Y-129189999D02*
X132620000Y-129189999D01*
X133520000Y-128289999D01*
X133520000Y-129189999D01*
G36*
X106070000Y-56120001D02*
G01*
X106070000Y-55220001D01*
X106970000Y-55220001D01*
X106070000Y-56120001D01*
G37*
X106070000Y-56120001D02*
X106070000Y-55220001D01*
X106970000Y-55220001D01*
X106070000Y-56120001D01*
G36*
X106070000Y-79115001D02*
G01*
X106070000Y-78215001D01*
X106970000Y-78215001D01*
X106070000Y-79115001D01*
G37*
X106070000Y-79115001D02*
X106070000Y-78215001D01*
X106970000Y-78215001D01*
X106070000Y-79115001D01*
D12*
X116410000Y-81440000D02*
X113570000Y-81440000D01*
X114990000Y-76710000D02*
X114990000Y-77400000D01*
X116410000Y-77400000D02*
X116410000Y-81440000D01*
X113570000Y-81440000D02*
X113570000Y-77400000D01*
X113570000Y-77400000D02*
X116410000Y-77400000D01*
X114990000Y-82130000D02*
X114990000Y-81440000D01*
X105570000Y-76690000D02*
X105570000Y-77380000D01*
X106990000Y-77380000D02*
X106990000Y-81420000D01*
X104150000Y-81420000D02*
X104150000Y-77380000D01*
X104150000Y-77380000D02*
X106990000Y-77380000D01*
X106990000Y-81420000D02*
X104150000Y-81420000D01*
X105570000Y-82110000D02*
X105570000Y-81420000D01*
D13*
X110860000Y-50810000D02*
X110860000Y-50810000D01*
X110760000Y-50810000D02*
X110760000Y-50810000D01*
D11*
X112290000Y-50100000D02*
X111290000Y-50100000D01*
X115040000Y-47400000D02*
X110040000Y-47400000D01*
X115690000Y-48500000D02*
X115690000Y-48500000D01*
X109390000Y-49000000D02*
X109390000Y-48500000D01*
X110040000Y-47400000D02*
X115040000Y-47400000D01*
D13*
X110760000Y-50810000D02*
X110760000Y-50810000D01*
D11*
X109390000Y-48500000D02*
X109390000Y-49000000D01*
X111290000Y-50100000D02*
X112290000Y-50100000D01*
X109390000Y-48500000D02*
X109390000Y-48500000D01*
X109390000Y-49000000D02*
X109390000Y-49000000D01*
X115040000Y-47400000D02*
X115040000Y-47400000D01*
X110040000Y-47400000D02*
X110040000Y-47400000D01*
X115690000Y-48500000D02*
X115690000Y-49000000D01*
X115690000Y-49000000D02*
X115690000Y-49000000D01*
X112290000Y-50100000D02*
X112290000Y-50100000D01*
X111290000Y-50100000D02*
X111290000Y-50100000D01*
X115690000Y-49000000D02*
X115690000Y-48500000D01*
D13*
X110760000Y-50810000D02*
G75*
G03*
X110860000Y-50810000I50000J0D01*
G01*
X110860000Y-50810000D02*
G75*
G03*
X110760000Y-50810000I-50000J0D01*
G01*
X110860000Y-50810000D02*
G75*
G03*
X110760000Y-50810000I-50000J0D01*
G01*
D14*
X87340000Y-57510000D03*
D15*
X87340000Y-60050000D03*
X87340000Y-62590000D03*
X87340000Y-65130000D03*
X87340000Y-67670000D03*
X87340000Y-70210000D03*
X87340000Y-72750000D03*
X87340000Y-75290000D03*
X87340000Y-77830000D03*
X87340000Y-80370000D03*
X87340000Y-82910000D03*
X87340000Y-85450000D03*
X102580000Y-85450000D03*
X102580000Y-82910000D03*
X102580000Y-80370000D03*
X102580000Y-77830000D03*
X102580000Y-75290000D03*
X102580000Y-72750000D03*
X102580000Y-70210000D03*
X102580000Y-67670000D03*
X102580000Y-65130000D03*
X102580000Y-62590000D03*
X102580000Y-60050000D03*
X102580000Y-57510000D03*
%LPC*%
D14*
X87340000Y-57510000D03*
D15*
X87340000Y-60050000D03*
X87340000Y-62590000D03*
X87340000Y-65130000D03*
X87340000Y-67670000D03*
X87340000Y-70210000D03*
X87340000Y-72750000D03*
X87340000Y-75290000D03*
X87340000Y-77830000D03*
X87340000Y-80370000D03*
X87340000Y-82910000D03*
X87340000Y-85450000D03*
X102580000Y-85450000D03*
X102580000Y-82910000D03*
X102580000Y-80370000D03*
X102580000Y-77830000D03*
X102580000Y-75290000D03*
X102580000Y-72750000D03*
X102580000Y-70210000D03*
X102580000Y-67670000D03*
X102580000Y-65130000D03*
X102580000Y-62590000D03*
X102580000Y-60050000D03*
X102580000Y-57510000D03*
D16*
X93760000Y-98080000D03*
D17*
X86140000Y-103160000D03*
D16*
X87410000Y-100620000D03*
D18*
X91220000Y-103160000D03*
D17*
X96300000Y-103160000D03*
D19*
X83660000Y-100620000D03*
X97510000Y-98080000D03*
D16*
X106460000Y-100620000D03*
D17*
X115350000Y-103160000D03*
X105190000Y-103160000D03*
D18*
X110270000Y-103160000D03*
D16*
X112810000Y-98080000D03*
D19*
X102710000Y-100620000D03*
X116560000Y-98080000D03*
D17*
X124240000Y-103160000D03*
D16*
X131860000Y-98080000D03*
D17*
X134400000Y-103160000D03*
D16*
X125510000Y-100620000D03*
D18*
X129320000Y-103160000D03*
D19*
X121760000Y-100620000D03*
X135610000Y-98080000D03*
D17*
X86140000Y-122210000D03*
D18*
X91220000Y-122210000D03*
D17*
X96300000Y-122210000D03*
D16*
X93760000Y-117130000D03*
X87410000Y-119670000D03*
D19*
X83660000Y-119670000D03*
X97510000Y-117130000D03*
D17*
X105190000Y-122210000D03*
D16*
X112810000Y-117130000D03*
D18*
X110270000Y-122210000D03*
D17*
X115350000Y-122210000D03*
D16*
X106460000Y-119670000D03*
D19*
X102710000Y-119670000D03*
X116560000Y-117130000D03*
D18*
X129320000Y-122210000D03*
D16*
X131860000Y-117130000D03*
X125510000Y-119670000D03*
D17*
X134400000Y-122210000D03*
X124240000Y-122210000D03*
D19*
X121760000Y-119670000D03*
X135610000Y-117130000D03*
D20*
X107770000Y-75660000D03*
D21*
X112770000Y-75660000D03*
X110270000Y-75660000D03*
D22*
X104970000Y-68160000D03*
X115570000Y-68160000D03*
D21*
X112770000Y-61160000D03*
X107770000Y-61160000D03*
D23*
X93870000Y-107489999D03*
X93870000Y-108989999D03*
X88570000Y-108989999D03*
X88570000Y-107489999D03*
X107620000Y-107489999D03*
X107620000Y-108989999D03*
X112920000Y-108989999D03*
X112920000Y-107489999D03*
X126670000Y-107489999D03*
X126670000Y-108989999D03*
X131970000Y-108989999D03*
X131970000Y-107489999D03*
X88570000Y-126539999D03*
X88570000Y-128039999D03*
X93870000Y-128039999D03*
X93870000Y-126539999D03*
X107620000Y-126539999D03*
X107620000Y-128039999D03*
X112920000Y-128039999D03*
X112920000Y-126539999D03*
X126670000Y-126539999D03*
X126670000Y-128039999D03*
X131970000Y-128039999D03*
X131970000Y-126539999D03*
D24*
X112920000Y-57870001D03*
X112920000Y-56370001D03*
X107620000Y-56370001D03*
X107620000Y-57870001D03*
X112920000Y-80865001D03*
X112920000Y-79365001D03*
X107620000Y-79365001D03*
X107620000Y-80865001D03*
D25*
X84600000Y-112685000D03*
X135940000Y-112685000D03*
X135940000Y-49730000D03*
X84600000Y-49730000D03*
D26*
X106250000Y-48810000D03*
D27*
X103710000Y-48810000D03*
D28*
X118870000Y-50820000D03*
D29*
X118870000Y-48820000D03*
D30*
X114990000Y-83170000D03*
D31*
X114990000Y-75670000D03*
D30*
X105570000Y-75650000D03*
D31*
X105570000Y-83150000D03*
D32*
X114040000Y-48750000D03*
X111040000Y-48750000D03*
D33*
X110240000Y-50750000D03*
X113240000Y-50750000D03*
X114740000Y-50750000D03*
D34*
X116340000Y-47650000D03*
D35*
X108690000Y-47650000D03*
D34*
X116340000Y-49850000D03*
D35*
X108690000Y-49850000D03*
M02*
