%TF.GenerationSoftware,KiCad,Pcbnew,(6.0.1)*%
%TF.CreationDate,2022-01-30T14:08:35+01:00*%
%TF.ProjectId,Little Big Scroll 6,4c697474-6c65-4204-9269-67205363726f,v1.0*%
%TF.SameCoordinates,Original*%
%TF.FileFunction,Profile,NP*%
%FSLAX46Y46*%
G04 Gerber Fmt 4.6, Leading zero omitted, Abs format (unit mm)*
G04 Created by KiCad (PCBNEW (6.0.1)) date 2022-01-30 14:08:35*
%MOMM*%
%LPD*%
G01*
G04 APERTURE LIST*
%TA.AperFunction,Profile*%
%ADD10C,0.050000*%
%TD*%
%TA.AperFunction,Profile*%
%ADD11C,0.100000*%
%TD*%
G04 APERTURE END LIST*
D10*
X81650000Y-131280000D02*
G75*
G03*
X82150000Y-131780000I500001J1D01*
G01*
X138890000Y-47280000D02*
G75*
G03*
X138390000Y-46780000I-500001J-1D01*
G01*
X101735000Y-46780000D02*
G75*
G03*
X101485000Y-47030000I-1J-249999D01*
G01*
X88485000Y-47030000D02*
G75*
G03*
X88235000Y-46780000I-249999J1D01*
G01*
X82150000Y-46780000D02*
G75*
G03*
X81650000Y-47280000I1J-500001D01*
G01*
X101485000Y-85850000D02*
X101485000Y-47030000D01*
X138890000Y-47280000D02*
X138890000Y-131280000D01*
X101735000Y-46780000D02*
X138390000Y-46780000D01*
X81650000Y-131280000D02*
X81650000Y-47280000D01*
X138390000Y-131780000D02*
G75*
G03*
X138890000Y-131280000I-1J500001D01*
G01*
X88485000Y-47030000D02*
X88485000Y-85850000D01*
X88485000Y-85850000D02*
X101485000Y-85850000D01*
X82150000Y-46780000D02*
X88235000Y-46780000D01*
X138390000Y-131780000D02*
X82150000Y-131780000D01*
D11*
X92266711Y-109808298D02*
G75*
G03*
X92014452Y-109739999I-252261J-431710D01*
G01*
X89470516Y-109159719D02*
G75*
G03*
X89520001Y-108942842I-450505J216876D01*
G01*
X90173289Y-106671700D02*
G75*
G03*
X89470516Y-107320279I-252258J-431701D01*
G01*
X92919999Y-108942841D02*
G75*
G03*
X92969484Y-109159719I499990J-2D01*
G01*
X90173289Y-106671700D02*
G75*
G03*
X90425547Y-106739999I252261J431710D01*
G01*
X92969485Y-107320279D02*
G75*
G03*
X92266711Y-106671701I-450516J216877D01*
G01*
X89470516Y-109159719D02*
G75*
G03*
X90173289Y-109808296I450515J-216877D01*
G01*
X92014453Y-106740000D02*
G75*
G03*
X92266711Y-106671701I-3J500009D01*
G01*
X90425548Y-109739999D02*
G75*
G03*
X90173290Y-109808298I3J-500009D01*
G01*
X89520001Y-107537157D02*
G75*
G03*
X89470516Y-107320279I-499990J2D01*
G01*
X92266711Y-109808298D02*
G75*
G03*
X92969484Y-109159718I252259J431700D01*
G01*
X92969484Y-107320279D02*
G75*
G03*
X92919999Y-107537156I450505J-216876D01*
G01*
X92919999Y-107537157D02*
X92919999Y-108942841D01*
X92014452Y-109739999D02*
X90425548Y-109739999D01*
X90425548Y-106740000D02*
X92014453Y-106740000D01*
X89520001Y-108942841D02*
X89520001Y-107537157D01*
X109223289Y-106671700D02*
G75*
G03*
X108520516Y-107320279I-252258J-431701D01*
G01*
X112019485Y-107320279D02*
G75*
G03*
X111316711Y-106671701I-450516J216877D01*
G01*
X108520516Y-109159719D02*
G75*
G03*
X108570001Y-108942842I-450505J216876D01*
G01*
X108520516Y-109159719D02*
G75*
G03*
X109223289Y-109808296I450515J-216877D01*
G01*
X109475548Y-109739999D02*
G75*
G03*
X109223290Y-109808298I3J-500009D01*
G01*
X111969999Y-108942841D02*
G75*
G03*
X112019484Y-109159719I499990J-2D01*
G01*
X112019484Y-107320279D02*
G75*
G03*
X111969999Y-107537156I450505J-216876D01*
G01*
X108570001Y-107537157D02*
G75*
G03*
X108520516Y-107320279I-499990J2D01*
G01*
X109223289Y-106671700D02*
G75*
G03*
X109475547Y-106739999I252261J431710D01*
G01*
X111316711Y-109808298D02*
G75*
G03*
X111064452Y-109739999I-252261J-431710D01*
G01*
X111316711Y-109808298D02*
G75*
G03*
X112019484Y-109159718I252259J431700D01*
G01*
X111064453Y-106740000D02*
G75*
G03*
X111316711Y-106671701I-3J500009D01*
G01*
X108570001Y-108942841D02*
X108570001Y-107537157D01*
X109475548Y-106740000D02*
X111064453Y-106740000D01*
X111064452Y-109739999D02*
X109475548Y-109739999D01*
X111969999Y-107537157D02*
X111969999Y-108942841D01*
X130114452Y-109739999D02*
X128525548Y-109739999D01*
X128525548Y-106740000D02*
X130114453Y-106740000D01*
X131019999Y-107537157D02*
X131019999Y-108942841D01*
X127620001Y-108942841D02*
X127620001Y-107537157D01*
X128273289Y-106671700D02*
G75*
G03*
X127570516Y-107320279I-252258J-431701D01*
G01*
X127620001Y-107537157D02*
G75*
G03*
X127570516Y-107320279I-499990J2D01*
G01*
X128525548Y-109739999D02*
G75*
G03*
X128273290Y-109808298I3J-500009D01*
G01*
X131069484Y-107320279D02*
G75*
G03*
X131019999Y-107537156I450505J-216876D01*
G01*
X131069485Y-107320279D02*
G75*
G03*
X130366711Y-106671701I-450516J216877D01*
G01*
X130366711Y-109808298D02*
G75*
G03*
X130114452Y-109739999I-252261J-431710D01*
G01*
X130114453Y-106740000D02*
G75*
G03*
X130366711Y-106671701I-3J500009D01*
G01*
X127570516Y-109159719D02*
G75*
G03*
X127620001Y-108942842I-450505J216876D01*
G01*
X130366711Y-109808298D02*
G75*
G03*
X131069484Y-109159718I252259J431700D01*
G01*
X131019999Y-108942841D02*
G75*
G03*
X131069484Y-109159719I499990J-2D01*
G01*
X128273289Y-106671700D02*
G75*
G03*
X128525547Y-106739999I252261J431710D01*
G01*
X127570516Y-109159719D02*
G75*
G03*
X128273289Y-109808296I450515J-216877D01*
G01*
X92969484Y-126370279D02*
G75*
G03*
X92919999Y-126587156I450505J-216876D01*
G01*
X89470516Y-128209719D02*
G75*
G03*
X90173289Y-128858296I450515J-216877D01*
G01*
X90173289Y-125721700D02*
G75*
G03*
X89470516Y-126370279I-252258J-431701D01*
G01*
X92266711Y-128858298D02*
G75*
G03*
X92014452Y-128789999I-252261J-431710D01*
G01*
X89470516Y-128209719D02*
G75*
G03*
X89520001Y-127992842I-450505J216876D01*
G01*
X92014453Y-125790000D02*
G75*
G03*
X92266711Y-125721701I-3J500009D01*
G01*
X92969485Y-126370279D02*
G75*
G03*
X92266711Y-125721701I-450516J216877D01*
G01*
X90173289Y-125721700D02*
G75*
G03*
X90425547Y-125789999I252261J431710D01*
G01*
X92266711Y-128858298D02*
G75*
G03*
X92969484Y-128209718I252259J431700D01*
G01*
X90425548Y-128789999D02*
G75*
G03*
X90173290Y-128858298I3J-500009D01*
G01*
X89520001Y-126587157D02*
G75*
G03*
X89470516Y-126370279I-499990J2D01*
G01*
X92919999Y-127992841D02*
G75*
G03*
X92969484Y-128209719I499990J-2D01*
G01*
X92014452Y-128789999D02*
X90425548Y-128789999D01*
X92919999Y-126587157D02*
X92919999Y-127992841D01*
X89520001Y-127992841D02*
X89520001Y-126587157D01*
X90425548Y-125790000D02*
X92014453Y-125790000D01*
X108520516Y-128209719D02*
G75*
G03*
X108570001Y-127992842I-450505J216876D01*
G01*
X109475548Y-128789999D02*
G75*
G03*
X109223290Y-128858298I3J-500009D01*
G01*
X111064453Y-125790000D02*
G75*
G03*
X111316711Y-125721701I-3J500009D01*
G01*
X108520516Y-128209719D02*
G75*
G03*
X109223289Y-128858296I450515J-216877D01*
G01*
X111969999Y-127992841D02*
G75*
G03*
X112019484Y-128209719I499990J-2D01*
G01*
X111316711Y-128858298D02*
G75*
G03*
X112019484Y-128209718I252259J431700D01*
G01*
X109223289Y-125721700D02*
G75*
G03*
X109475547Y-125789999I252261J431710D01*
G01*
X111316711Y-128858298D02*
G75*
G03*
X111064452Y-128789999I-252261J-431710D01*
G01*
X109223289Y-125721700D02*
G75*
G03*
X108520516Y-126370279I-252258J-431701D01*
G01*
X108570001Y-126587157D02*
G75*
G03*
X108520516Y-126370279I-499990J2D01*
G01*
X112019484Y-126370279D02*
G75*
G03*
X111969999Y-126587156I450505J-216876D01*
G01*
X112019485Y-126370279D02*
G75*
G03*
X111316711Y-125721701I-450516J216877D01*
G01*
X108570001Y-127992841D02*
X108570001Y-126587157D01*
X109475548Y-125790000D02*
X111064453Y-125790000D01*
X111064452Y-128789999D02*
X109475548Y-128789999D01*
X111969999Y-126587157D02*
X111969999Y-127992841D01*
X128273289Y-125721700D02*
G75*
G03*
X128525547Y-125789999I252261J431710D01*
G01*
X127570516Y-128209719D02*
G75*
G03*
X127620001Y-127992842I-450505J216876D01*
G01*
X130114453Y-125790000D02*
G75*
G03*
X130366711Y-125721701I-3J500009D01*
G01*
X127570516Y-128209719D02*
G75*
G03*
X128273289Y-128858296I450515J-216877D01*
G01*
X131019999Y-127992841D02*
G75*
G03*
X131069484Y-128209719I499990J-2D01*
G01*
X130366711Y-128858298D02*
G75*
G03*
X130114452Y-128789999I-252261J-431710D01*
G01*
X130366711Y-128858298D02*
G75*
G03*
X131069484Y-128209718I252259J431700D01*
G01*
X131069485Y-126370279D02*
G75*
G03*
X130366711Y-125721701I-450516J216877D01*
G01*
X128525548Y-128789999D02*
G75*
G03*
X128273290Y-128858298I3J-500009D01*
G01*
X128273289Y-125721700D02*
G75*
G03*
X127570516Y-126370279I-252258J-431701D01*
G01*
X131069484Y-126370279D02*
G75*
G03*
X131019999Y-126587156I450505J-216876D01*
G01*
X127620001Y-126587157D02*
G75*
G03*
X127570516Y-126370279I-499990J2D01*
G01*
X127620001Y-127992841D02*
X127620001Y-126587157D01*
X130114452Y-128789999D02*
X128525548Y-128789999D01*
X128525548Y-125790000D02*
X130114453Y-125790000D01*
X131019999Y-126587157D02*
X131019999Y-127992841D01*
X111969999Y-55472157D02*
X111969999Y-56877841D01*
X108570001Y-56877841D02*
X108570001Y-55472157D01*
X109475548Y-54675000D02*
X111064453Y-54675000D01*
X111064452Y-57674999D02*
X109475548Y-57674999D01*
X112019484Y-55255279D02*
G75*
G03*
X111969999Y-55472156I450505J-216876D01*
G01*
X109223289Y-54606700D02*
G75*
G03*
X108520516Y-55255279I-252258J-431701D01*
G01*
X108520516Y-57094719D02*
G75*
G03*
X109223289Y-57743296I450515J-216877D01*
G01*
X112019485Y-55255279D02*
G75*
G03*
X111316711Y-54606701I-450516J216877D01*
G01*
X111969999Y-56877841D02*
G75*
G03*
X112019484Y-57094719I499990J-2D01*
G01*
X111316711Y-57743298D02*
G75*
G03*
X112019484Y-57094718I252259J431700D01*
G01*
X108570001Y-55472157D02*
G75*
G03*
X108520516Y-55255279I-499990J2D01*
G01*
X109223289Y-54606700D02*
G75*
G03*
X109475547Y-54674999I252261J431710D01*
G01*
X111316711Y-57743298D02*
G75*
G03*
X111064452Y-57674999I-252261J-431710D01*
G01*
X108520516Y-57094719D02*
G75*
G03*
X108570001Y-56877842I-450505J216876D01*
G01*
X109475548Y-57674999D02*
G75*
G03*
X109223290Y-57743298I3J-500009D01*
G01*
X111064453Y-54675000D02*
G75*
G03*
X111316711Y-54606701I-3J500009D01*
G01*
X111064452Y-80249999D02*
X109475548Y-80249999D01*
X109475548Y-77250000D02*
X111064453Y-77250000D01*
X108570001Y-79452841D02*
X108570001Y-78047157D01*
X111969999Y-78047157D02*
X111969999Y-79452841D01*
X108520516Y-79669719D02*
G75*
G03*
X109223289Y-80318296I450515J-216877D01*
G01*
X109223289Y-77181700D02*
G75*
G03*
X108520516Y-77830279I-252258J-431701D01*
G01*
X109475548Y-80249999D02*
G75*
G03*
X109223290Y-80318298I3J-500009D01*
G01*
X111064453Y-77250000D02*
G75*
G03*
X111316711Y-77181701I-3J500009D01*
G01*
X111316711Y-80318298D02*
G75*
G03*
X111064452Y-80249999I-252261J-431710D01*
G01*
X112019485Y-77830279D02*
G75*
G03*
X111316711Y-77181701I-450516J216877D01*
G01*
X108570001Y-78047157D02*
G75*
G03*
X108520516Y-77830279I-499990J2D01*
G01*
X112019484Y-77830279D02*
G75*
G03*
X111969999Y-78047156I450505J-216876D01*
G01*
X111969999Y-79452841D02*
G75*
G03*
X112019484Y-79669719I499990J-2D01*
G01*
X111316711Y-80318298D02*
G75*
G03*
X112019484Y-79669718I252259J431700D01*
G01*
X108520516Y-79669719D02*
G75*
G03*
X108570001Y-79452842I-450505J216876D01*
G01*
X109223289Y-77181700D02*
G75*
G03*
X109475547Y-77249999I252261J431710D01*
G01*
M02*
