M48
; DRILL file {KiCad (6.0.1)} date Sun Jan 30 14:08:37 2022
; FORMAT={-:-/ absolute / metric / decimal}
; #@! TF.CreationDate,2022-01-30T14:08:37+01:00
; #@! TF.GenerationSoftware,Kicad,Pcbnew,(6.0.1)
; #@! TF.FileFunction,Plated,1,2,PTH
FMAT,2
METRIC
; #@! TA.AperFunction,Plated,PTH,ViaDrill
T1C0.400
; #@! TA.AperFunction,Plated,PTH,ComponentDrill
T2C0.800
; #@! TA.AperFunction,Plated,PTH,ComponentDrill
T3C1.000
; #@! TA.AperFunction,Plated,PTH,ComponentDrill
T4C1.092
; #@! TA.AperFunction,Plated,PTH,ComponentDrill
T5C1.500
%
G90
G05
T1
X82.82Y-105.77
X83.6Y-100.65
X83.62Y-119.68
X83.87Y-57.75
X88.56Y-106.665
X88.6Y-125.09
X88.63Y-129.09
X88.78Y-111.41
X94.23Y-122.06
X97.51Y-98.08
X97.628Y-117.248
X99.23Y-127.46
X100.73Y-106.04
X100.97Y-125.31
X102.67Y-100.67
X102.75Y-119.65
X104.65Y-97.55
X106.05Y-124.485
X106.17Y-77.97
X106.17Y-64.44
X106.38Y-105.37
X107.61Y-106.46
X107.69Y-125.414
X111.43Y-67.9
X114.08Y-82.04
X114.47Y-111.44
X114.62Y-55.52
X114.9Y-129.655
X116.56Y-98.08
X116.585Y-117.13
X121.77Y-119.68
X121.8Y-100.58
X123.68Y-97.85
X126.21Y-113.24
X126.542Y-106.645
X126.625Y-125.705
X131.9Y-125.38
X131.95Y-106.32
X135.61Y-98.08
X135.61Y-117.13
T2
X119.59Y-63.52
X119.59Y-71.02
X122.77Y-63.52
X122.77Y-71.02
T3
X103.71Y-49.81
X106.25Y-49.81
X107.77Y-60.16
X107.77Y-74.66
X110.27Y-74.66
X112.77Y-60.16
X112.77Y-74.66
T4
X87.34Y-56.87
X87.34Y-59.41
X87.34Y-61.95
X87.34Y-64.49
X87.34Y-67.03
X87.34Y-69.57
X87.34Y-72.11
X87.34Y-74.65
X87.34Y-77.19
X87.34Y-79.73
X87.34Y-82.27
X87.34Y-84.81
X102.58Y-56.87
X102.58Y-59.41
X102.58Y-61.95
X102.58Y-64.49
X102.58Y-67.03
X102.58Y-69.57
X102.58Y-72.11
X102.58Y-74.65
X102.58Y-77.19
X102.58Y-79.73
X102.58Y-82.27
X102.58Y-84.81
T5
X104.67Y-67.81G85X104.67Y-66.51
G05
X115.87Y-67.81G85X115.87Y-66.51
G05
T0
M30
