M48
; DRILL file {KiCad (6.0.1)} date Sun Jan 30 14:08:37 2022
; FORMAT={-:-/ absolute / metric / decimal}
; #@! TF.CreationDate,2022-01-30T14:08:37+01:00
; #@! TF.GenerationSoftware,Kicad,Pcbnew,(6.0.1)
; #@! TF.FileFunction,NonPlated,1,2,NPTH
FMAT,2
METRIC
; #@! TA.AperFunction,NonPlated,NPTH,ComponentDrill
T1C1.702
; #@! TA.AperFunction,NonPlated,NPTH,ComponentDrill
T2C3.000
; #@! TA.AperFunction,NonPlated,NPTH,ComponentDrill
T3C3.700
; #@! TA.AperFunction,NonPlated,NPTH,ComponentDrill
T4C3.988
%
G90
G05
T1
X86.14Y-103.16
X86.14Y-122.21
X96.3Y-103.16
X96.3Y-122.21
X105.19Y-103.16
X105.19Y-122.21
X115.35Y-103.16
X115.35Y-122.21
X124.24Y-103.16
X124.24Y-122.21
X134.4Y-103.16
X134.4Y-122.21
T2
X87.41Y-100.62
X87.41Y-119.67
X93.76Y-98.08
X93.76Y-117.13
X106.46Y-100.62
X106.46Y-119.67
X112.81Y-98.08
X112.81Y-117.13
X125.51Y-100.62
X125.51Y-119.67
X131.86Y-98.08
X131.86Y-117.13
T3
X85.6Y-50.73
X86.22Y-112.685
X134.32Y-112.685
X134.94Y-50.73
T4
X91.22Y-103.16
X91.22Y-122.21
X110.27Y-103.16
X110.27Y-122.21
X129.32Y-103.16
X129.32Y-122.21
T0
M30
