%TF.GenerationSoftware,KiCad,Pcbnew,(6.0.1)*%
%TF.CreationDate,2022-01-30T14:08:35+01:00*%
%TF.ProjectId,Little Big Scroll 6,4c697474-6c65-4204-9269-67205363726f,v1.0*%
%TF.SameCoordinates,Original*%
%TF.FileFunction,Paste,Bot*%
%TF.FilePolarity,Positive*%
%FSLAX46Y46*%
G04 Gerber Fmt 4.6, Leading zero omitted, Abs format (unit mm)*
G04 Created by KiCad (PCBNEW (6.0.1)) date 2022-01-30 14:08:35*
%MOMM*%
%LPD*%
G01*
G04 APERTURE LIST*
G04 Aperture macros list*
%AMRoundRect*
0 Rectangle with rounded corners*
0 $1 Rounding radius*
0 $2 $3 $4 $5 $6 $7 $8 $9 X,Y pos of 4 corners*
0 Add a 4 corners polygon primitive as box body*
4,1,4,$2,$3,$4,$5,$6,$7,$8,$9,$2,$3,0*
0 Add four circle primitives for the rounded corners*
1,1,$1+$1,$2,$3*
1,1,$1+$1,$4,$5*
1,1,$1+$1,$6,$7*
1,1,$1+$1,$8,$9*
0 Add four rect primitives between the rounded corners*
20,1,$1+$1,$2,$3,$4,$5,0*
20,1,$1+$1,$4,$5,$6,$7,0*
20,1,$1+$1,$6,$7,$8,$9,0*
20,1,$1+$1,$8,$9,$2,$3,0*%
G04 Aperture macros list end*
%ADD10R,2.550000X2.500000*%
%ADD11RoundRect,0.082000X-0.718000X0.328000X-0.718000X-0.328000X0.718000X-0.328000X0.718000X0.328000X0*%
G04 APERTURE END LIST*
D10*
X97510000Y-98080000D03*
X83660000Y-100620000D03*
X116560000Y-98080000D03*
X102710000Y-100620000D03*
X135610000Y-98080000D03*
X121760000Y-100620000D03*
X97510000Y-117130000D03*
X83660000Y-119670000D03*
X116560000Y-117130000D03*
X102710000Y-119670000D03*
X135610000Y-117130000D03*
X121760000Y-119670000D03*
D11*
X93820000Y-107489999D03*
X93820000Y-108989999D03*
X88620000Y-108989999D03*
X88620000Y-107489999D03*
X112870000Y-107489999D03*
X112870000Y-108989999D03*
X107670000Y-108989999D03*
X107670000Y-107489999D03*
X126720000Y-107489999D03*
X126720000Y-108989999D03*
X131920000Y-108989999D03*
X131920000Y-107489999D03*
X93820000Y-126539999D03*
X93820000Y-128039999D03*
X88620000Y-128039999D03*
X88620000Y-126539999D03*
X112870000Y-126539999D03*
X112870000Y-128039999D03*
X107670000Y-128039999D03*
X107670000Y-126539999D03*
X131920000Y-126539999D03*
X131920000Y-128039999D03*
X126720000Y-128039999D03*
X126720000Y-126539999D03*
X107670000Y-55424999D03*
X107670000Y-56924999D03*
X112870000Y-56924999D03*
X112870000Y-55424999D03*
X107670000Y-77999999D03*
X107670000Y-79499999D03*
X112870000Y-79499999D03*
X112870000Y-77999999D03*
M02*
