%TF.GenerationSoftware,KiCad,Pcbnew,(6.0.1)*%
%TF.CreationDate,2022-01-30T14:08:35+01:00*%
%TF.ProjectId,Little Big Scroll 6,4c697474-6c65-4204-9269-67205363726f,v1.0*%
%TF.SameCoordinates,Original*%
%TF.FileFunction,Soldermask,Bot*%
%TF.FilePolarity,Negative*%
%FSLAX46Y46*%
G04 Gerber Fmt 4.6, Leading zero omitted, Abs format (unit mm)*
G04 Created by KiCad (PCBNEW (6.0.1)) date 2022-01-30 14:08:35*
%MOMM*%
%LPD*%
G01*
G04 APERTURE LIST*
G04 Aperture macros list*
%AMRoundRect*
0 Rectangle with rounded corners*
0 $1 Rounding radius*
0 $2 $3 $4 $5 $6 $7 $8 $9 X,Y pos of 4 corners*
0 Add a 4 corners polygon primitive as box body*
4,1,4,$2,$3,$4,$5,$6,$7,$8,$9,$2,$3,0*
0 Add four circle primitives for the rounded corners*
1,1,$1+$1,$2,$3*
1,1,$1+$1,$4,$5*
1,1,$1+$1,$6,$7*
1,1,$1+$1,$8,$9*
0 Add four rect primitives between the rounded corners*
20,1,$1+$1,$2,$3,$4,$5,0*
20,1,$1+$1,$4,$5,$6,$7,0*
20,1,$1+$1,$6,$7,$8,$9,0*
20,1,$1+$1,$8,$9,$2,$3,0*%
G04 Aperture macros list end*
%ADD10R,1.752600X1.752600*%
%ADD11C,1.752600*%
%ADD12C,3.000000*%
%ADD13C,3.987800*%
%ADD14C,1.701800*%
%ADD15R,2.550000X2.500000*%
%ADD16R,2.000000X2.000000*%
%ADD17C,2.000000*%
%ADD18R,2.000000X3.200000*%
%ADD19RoundRect,0.082000X-0.718000X0.328000X-0.718000X-0.328000X0.718000X-0.328000X0.718000X0.328000X0*%
%ADD20C,3.700000*%
%ADD21C,1.600000*%
%ADD22O,1.600000X1.600000*%
%ADD23R,1.700000X1.700000*%
%ADD24O,1.700000X1.700000*%
G04 APERTURE END LIST*
D10*
X87340000Y-56870000D03*
D11*
X87340000Y-59410000D03*
X87340000Y-61950000D03*
X87340000Y-64490000D03*
X87340000Y-67030000D03*
X87340000Y-69570000D03*
X87340000Y-72110000D03*
X87340000Y-74650000D03*
X87340000Y-77190000D03*
X87340000Y-79730000D03*
X87340000Y-82270000D03*
X87340000Y-84810000D03*
X102580000Y-84810000D03*
X102580000Y-82270000D03*
X102580000Y-79730000D03*
X102580000Y-77190000D03*
X102580000Y-74650000D03*
X102580000Y-72110000D03*
X102580000Y-69570000D03*
X102580000Y-67030000D03*
X102580000Y-64490000D03*
X102580000Y-61950000D03*
X102580000Y-59410000D03*
X102580000Y-56870000D03*
D12*
X87410000Y-100620000D03*
D13*
X91220000Y-103160000D03*
D14*
X96300000Y-103160000D03*
D12*
X93760000Y-98080000D03*
D14*
X86140000Y-103160000D03*
D15*
X97510000Y-98080000D03*
X83660000Y-100620000D03*
D12*
X106460000Y-100620000D03*
D13*
X110270000Y-103160000D03*
D12*
X112810000Y-98080000D03*
D14*
X105190000Y-103160000D03*
X115350000Y-103160000D03*
D15*
X116560000Y-98080000D03*
X102710000Y-100620000D03*
D12*
X125510000Y-100620000D03*
D14*
X124240000Y-103160000D03*
X134400000Y-103160000D03*
D12*
X131860000Y-98080000D03*
D13*
X129320000Y-103160000D03*
D15*
X135610000Y-98080000D03*
X121760000Y-100620000D03*
D12*
X87410000Y-119670000D03*
D14*
X86140000Y-122210000D03*
D13*
X91220000Y-122210000D03*
D12*
X93760000Y-117130000D03*
D14*
X96300000Y-122210000D03*
D15*
X97510000Y-117130000D03*
X83660000Y-119670000D03*
D14*
X115350000Y-122210000D03*
D13*
X110270000Y-122210000D03*
D12*
X106460000Y-119670000D03*
X112810000Y-117130000D03*
D14*
X105190000Y-122210000D03*
D15*
X116560000Y-117130000D03*
X102710000Y-119670000D03*
D12*
X125510000Y-119670000D03*
D14*
X124240000Y-122210000D03*
X134400000Y-122210000D03*
D13*
X129320000Y-122210000D03*
D12*
X131860000Y-117130000D03*
D15*
X135610000Y-117130000D03*
X121760000Y-119670000D03*
D16*
X107770000Y-74660000D03*
D17*
X112770000Y-74660000D03*
X110270000Y-74660000D03*
D18*
X115870000Y-67160000D03*
X104670000Y-67160000D03*
D17*
X112770000Y-60160000D03*
X107770000Y-60160000D03*
D19*
X93820000Y-107489999D03*
X93820000Y-108989999D03*
X88620000Y-108989999D03*
X88620000Y-107489999D03*
X112870000Y-107489999D03*
X112870000Y-108989999D03*
X107670000Y-108989999D03*
X107670000Y-107489999D03*
X126720000Y-107489999D03*
X126720000Y-108989999D03*
X131920000Y-108989999D03*
X131920000Y-107489999D03*
X93820000Y-126539999D03*
X93820000Y-128039999D03*
X88620000Y-128039999D03*
X88620000Y-126539999D03*
X112870000Y-126539999D03*
X112870000Y-128039999D03*
X107670000Y-128039999D03*
X107670000Y-126539999D03*
X131920000Y-126539999D03*
X131920000Y-128039999D03*
X126720000Y-128039999D03*
X126720000Y-126539999D03*
X107670000Y-55424999D03*
X107670000Y-56924999D03*
X112870000Y-56924999D03*
X112870000Y-55424999D03*
X107670000Y-77999999D03*
X107670000Y-79499999D03*
X112870000Y-79499999D03*
X112870000Y-77999999D03*
D20*
X86220000Y-112685000D03*
X134320000Y-112685000D03*
X134940000Y-50730000D03*
X85600000Y-50730000D03*
D21*
X119590000Y-63520000D03*
D22*
X119590000Y-71020000D03*
D21*
X122770000Y-71020000D03*
D22*
X122770000Y-63520000D03*
D23*
X106250000Y-49810000D03*
D24*
X103710000Y-49810000D03*
M02*
