%TF.GenerationSoftware,KiCad,Pcbnew,(6.0.4)*%
%TF.CreationDate,2022-04-07T14:17:58+02:00*%
%TF.ProjectId,Little Big Scroll 6,4c697474-6c65-4204-9269-67205363726f,v1.01*%
%TF.SameCoordinates,Original*%
%TF.FileFunction,Legend,Top*%
%TF.FilePolarity,Positive*%
%FSLAX46Y46*%
G04 Gerber Fmt 4.6, Leading zero omitted, Abs format (unit mm)*
G04 Created by KiCad (PCBNEW (6.0.4)) date 2022-04-07 14:17:58*
%MOMM*%
%LPD*%
G01*
G04 APERTURE LIST*
G04 Aperture macros list*
%AMRoundRect*
0 Rectangle with rounded corners*
0 $1 Rounding radius*
0 $2 $3 $4 $5 $6 $7 $8 $9 X,Y pos of 4 corners*
0 Add a 4 corners polygon primitive as box body*
4,1,4,$2,$3,$4,$5,$6,$7,$8,$9,$2,$3,0*
0 Add four circle primitives for the rounded corners*
1,1,$1+$1,$2,$3*
1,1,$1+$1,$4,$5*
1,1,$1+$1,$6,$7*
1,1,$1+$1,$8,$9*
0 Add four rect primitives between the rounded corners*
20,1,$1+$1,$2,$3,$4,$5,0*
20,1,$1+$1,$4,$5,$6,$7,0*
20,1,$1+$1,$6,$7,$8,$9,0*
20,1,$1+$1,$8,$9,$2,$3,0*%
G04 Aperture macros list end*
%ADD10C,0.150000*%
%ADD11C,0.100000*%
%ADD12C,0.120000*%
%ADD13C,0.010000*%
%ADD14R,1.752600X1.752600*%
%ADD15C,1.752600*%
%ADD16C,3.000000*%
%ADD17C,1.701800*%
%ADD18C,3.987800*%
%ADD19R,2.000000X2.000000*%
%ADD20C,2.000000*%
%ADD21O,1.400000X2.600000*%
%ADD22C,3.700000*%
%ADD23R,1.700000X1.700000*%
%ADD24O,1.700000X1.700000*%
%ADD25RoundRect,0.250000X0.625000X-0.350000X0.625000X0.350000X-0.625000X0.350000X-0.625000X-0.350000X0*%
%ADD26O,1.750000X1.200000*%
%ADD27C,1.600000*%
%ADD28O,1.600000X1.600000*%
%ADD29C,0.850000*%
G04 APERTURE END LIST*
D10*
X103464761Y-89763904D02*
X103083809Y-89763904D01*
X103083809Y-88963904D01*
X103731428Y-89763904D02*
X103731428Y-89230571D01*
X103731428Y-88963904D02*
X103693333Y-89002000D01*
X103731428Y-89040095D01*
X103769523Y-89002000D01*
X103731428Y-88963904D01*
X103731428Y-89040095D01*
X103998095Y-89230571D02*
X104302857Y-89230571D01*
X104112380Y-88963904D02*
X104112380Y-89649619D01*
X104150476Y-89725809D01*
X104226666Y-89763904D01*
X104302857Y-89763904D01*
X104455238Y-89230571D02*
X104760000Y-89230571D01*
X104569523Y-88963904D02*
X104569523Y-89649619D01*
X104607619Y-89725809D01*
X104683809Y-89763904D01*
X104760000Y-89763904D01*
X105140952Y-89763904D02*
X105064761Y-89725809D01*
X105026666Y-89649619D01*
X105026666Y-88963904D01*
X105750476Y-89725809D02*
X105674285Y-89763904D01*
X105521904Y-89763904D01*
X105445714Y-89725809D01*
X105407619Y-89649619D01*
X105407619Y-89344857D01*
X105445714Y-89268666D01*
X105521904Y-89230571D01*
X105674285Y-89230571D01*
X105750476Y-89268666D01*
X105788571Y-89344857D01*
X105788571Y-89421047D01*
X105407619Y-89497238D01*
X107007619Y-89344857D02*
X107121904Y-89382952D01*
X107160000Y-89421047D01*
X107198095Y-89497238D01*
X107198095Y-89611523D01*
X107160000Y-89687714D01*
X107121904Y-89725809D01*
X107045714Y-89763904D01*
X106740952Y-89763904D01*
X106740952Y-88963904D01*
X107007619Y-88963904D01*
X107083809Y-89002000D01*
X107121904Y-89040095D01*
X107160000Y-89116285D01*
X107160000Y-89192476D01*
X107121904Y-89268666D01*
X107083809Y-89306761D01*
X107007619Y-89344857D01*
X106740952Y-89344857D01*
X107540952Y-89763904D02*
X107540952Y-89230571D01*
X107540952Y-88963904D02*
X107502857Y-89002000D01*
X107540952Y-89040095D01*
X107579047Y-89002000D01*
X107540952Y-88963904D01*
X107540952Y-89040095D01*
X108264761Y-89230571D02*
X108264761Y-89878190D01*
X108226666Y-89954380D01*
X108188571Y-89992476D01*
X108112380Y-90030571D01*
X107998095Y-90030571D01*
X107921904Y-89992476D01*
X108264761Y-89725809D02*
X108188571Y-89763904D01*
X108036190Y-89763904D01*
X107960000Y-89725809D01*
X107921904Y-89687714D01*
X107883809Y-89611523D01*
X107883809Y-89382952D01*
X107921904Y-89306761D01*
X107960000Y-89268666D01*
X108036190Y-89230571D01*
X108188571Y-89230571D01*
X108264761Y-89268666D01*
X109217142Y-89725809D02*
X109331428Y-89763904D01*
X109521904Y-89763904D01*
X109598095Y-89725809D01*
X109636190Y-89687714D01*
X109674285Y-89611523D01*
X109674285Y-89535333D01*
X109636190Y-89459142D01*
X109598095Y-89421047D01*
X109521904Y-89382952D01*
X109369523Y-89344857D01*
X109293333Y-89306761D01*
X109255238Y-89268666D01*
X109217142Y-89192476D01*
X109217142Y-89116285D01*
X109255238Y-89040095D01*
X109293333Y-89002000D01*
X109369523Y-88963904D01*
X109560000Y-88963904D01*
X109674285Y-89002000D01*
X110360000Y-89725809D02*
X110283809Y-89763904D01*
X110131428Y-89763904D01*
X110055238Y-89725809D01*
X110017142Y-89687714D01*
X109979047Y-89611523D01*
X109979047Y-89382952D01*
X110017142Y-89306761D01*
X110055238Y-89268666D01*
X110131428Y-89230571D01*
X110283809Y-89230571D01*
X110360000Y-89268666D01*
X110702857Y-89763904D02*
X110702857Y-89230571D01*
X110702857Y-89382952D02*
X110740952Y-89306761D01*
X110779047Y-89268666D01*
X110855238Y-89230571D01*
X110931428Y-89230571D01*
X111312380Y-89763904D02*
X111236190Y-89725809D01*
X111198095Y-89687714D01*
X111160000Y-89611523D01*
X111160000Y-89382952D01*
X111198095Y-89306761D01*
X111236190Y-89268666D01*
X111312380Y-89230571D01*
X111426666Y-89230571D01*
X111502857Y-89268666D01*
X111540952Y-89306761D01*
X111579047Y-89382952D01*
X111579047Y-89611523D01*
X111540952Y-89687714D01*
X111502857Y-89725809D01*
X111426666Y-89763904D01*
X111312380Y-89763904D01*
X112036190Y-89763904D02*
X111960000Y-89725809D01*
X111921904Y-89649619D01*
X111921904Y-88963904D01*
X112455238Y-89763904D02*
X112379047Y-89725809D01*
X112340952Y-89649619D01*
X112340952Y-88963904D01*
X113712380Y-88963904D02*
X113560000Y-88963904D01*
X113483809Y-89002000D01*
X113445714Y-89040095D01*
X113369523Y-89154380D01*
X113331428Y-89306761D01*
X113331428Y-89611523D01*
X113369523Y-89687714D01*
X113407619Y-89725809D01*
X113483809Y-89763904D01*
X113636190Y-89763904D01*
X113712380Y-89725809D01*
X113750476Y-89687714D01*
X113788571Y-89611523D01*
X113788571Y-89421047D01*
X113750476Y-89344857D01*
X113712380Y-89306761D01*
X113636190Y-89268666D01*
X113483809Y-89268666D01*
X113407619Y-89306761D01*
X113369523Y-89344857D01*
X113331428Y-89421047D01*
X114740952Y-89459142D02*
X115350476Y-89459142D01*
X116264761Y-89230571D02*
X116455238Y-89763904D01*
X116645714Y-89230571D01*
X117369523Y-89763904D02*
X116912380Y-89763904D01*
X117140952Y-89763904D02*
X117140952Y-88963904D01*
X117064761Y-89078190D01*
X116988571Y-89154380D01*
X116912380Y-89192476D01*
X117712380Y-89687714D02*
X117750476Y-89725809D01*
X117712380Y-89763904D01*
X117674285Y-89725809D01*
X117712380Y-89687714D01*
X117712380Y-89763904D01*
X118245714Y-88963904D02*
X118321904Y-88963904D01*
X118398095Y-89002000D01*
X118436190Y-89040095D01*
X118474285Y-89116285D01*
X118512380Y-89268666D01*
X118512380Y-89459142D01*
X118474285Y-89611523D01*
X118436190Y-89687714D01*
X118398095Y-89725809D01*
X118321904Y-89763904D01*
X118245714Y-89763904D01*
X118169523Y-89725809D01*
X118131428Y-89687714D01*
X118093333Y-89611523D01*
X118055238Y-89459142D01*
X118055238Y-89268666D01*
X118093333Y-89116285D01*
X118131428Y-89040095D01*
X118169523Y-89002000D01*
X118245714Y-88963904D01*
X119274285Y-89763904D02*
X118817142Y-89763904D01*
X119045714Y-89763904D02*
X119045714Y-88963904D01*
X118969523Y-89078190D01*
X118893333Y-89154380D01*
X118817142Y-89192476D01*
X104417142Y-91051904D02*
X104417142Y-90251904D01*
X104683809Y-90823333D01*
X104950476Y-90251904D01*
X104950476Y-91051904D01*
X105674285Y-91051904D02*
X105674285Y-90632857D01*
X105636190Y-90556666D01*
X105560000Y-90518571D01*
X105407619Y-90518571D01*
X105331428Y-90556666D01*
X105674285Y-91013809D02*
X105598095Y-91051904D01*
X105407619Y-91051904D01*
X105331428Y-91013809D01*
X105293333Y-90937619D01*
X105293333Y-90861428D01*
X105331428Y-90785238D01*
X105407619Y-90747142D01*
X105598095Y-90747142D01*
X105674285Y-90709047D01*
X106055238Y-91051904D02*
X106055238Y-90518571D01*
X106055238Y-90670952D02*
X106093333Y-90594761D01*
X106131428Y-90556666D01*
X106207619Y-90518571D01*
X106283809Y-90518571D01*
X106550476Y-91051904D02*
X106550476Y-90251904D01*
X106626666Y-90747142D02*
X106855238Y-91051904D01*
X106855238Y-90518571D02*
X106550476Y-90823333D01*
X107540952Y-90518571D02*
X107540952Y-91051904D01*
X107198095Y-90518571D02*
X107198095Y-90937619D01*
X107236190Y-91013809D01*
X107312380Y-91051904D01*
X107426666Y-91051904D01*
X107502857Y-91013809D01*
X107540952Y-90975714D01*
X107883809Y-91013809D02*
X107960000Y-91051904D01*
X108112380Y-91051904D01*
X108188571Y-91013809D01*
X108226666Y-90937619D01*
X108226666Y-90899523D01*
X108188571Y-90823333D01*
X108112380Y-90785238D01*
X107998095Y-90785238D01*
X107921904Y-90747142D01*
X107883809Y-90670952D01*
X107883809Y-90632857D01*
X107921904Y-90556666D01*
X107998095Y-90518571D01*
X108112380Y-90518571D01*
X108188571Y-90556666D01*
X109179047Y-91051904D02*
X109179047Y-90251904D01*
X109636190Y-91051904D02*
X109293333Y-90594761D01*
X109636190Y-90251904D02*
X109179047Y-90709047D01*
X109979047Y-90518571D02*
X109979047Y-91051904D01*
X109979047Y-90594761D02*
X110017142Y-90556666D01*
X110093333Y-90518571D01*
X110207619Y-90518571D01*
X110283809Y-90556666D01*
X110321904Y-90632857D01*
X110321904Y-91051904D01*
X111045714Y-90518571D02*
X111045714Y-91051904D01*
X110702857Y-90518571D02*
X110702857Y-90937619D01*
X110740952Y-91013809D01*
X110817142Y-91051904D01*
X110931428Y-91051904D01*
X111007619Y-91013809D01*
X111045714Y-90975714D01*
X111312380Y-90518571D02*
X111617142Y-90518571D01*
X111426666Y-90251904D02*
X111426666Y-90937619D01*
X111464761Y-91013809D01*
X111540952Y-91051904D01*
X111617142Y-91051904D01*
X111845714Y-91013809D02*
X111921904Y-91051904D01*
X112074285Y-91051904D01*
X112150476Y-91013809D01*
X112188571Y-90937619D01*
X112188571Y-90899523D01*
X112150476Y-90823333D01*
X112074285Y-90785238D01*
X111960000Y-90785238D01*
X111883809Y-90747142D01*
X111845714Y-90670952D01*
X111845714Y-90632857D01*
X111883809Y-90556666D01*
X111960000Y-90518571D01*
X112074285Y-90518571D01*
X112150476Y-90556666D01*
X112493333Y-91013809D02*
X112569523Y-91051904D01*
X112721904Y-91051904D01*
X112798095Y-91013809D01*
X112836190Y-90937619D01*
X112836190Y-90899523D01*
X112798095Y-90823333D01*
X112721904Y-90785238D01*
X112607619Y-90785238D01*
X112531428Y-90747142D01*
X112493333Y-90670952D01*
X112493333Y-90632857D01*
X112531428Y-90556666D01*
X112607619Y-90518571D01*
X112721904Y-90518571D01*
X112798095Y-90556666D01*
X113293333Y-91051904D02*
X113217142Y-91013809D01*
X113179047Y-90975714D01*
X113140952Y-90899523D01*
X113140952Y-90670952D01*
X113179047Y-90594761D01*
X113217142Y-90556666D01*
X113293333Y-90518571D01*
X113407619Y-90518571D01*
X113483809Y-90556666D01*
X113521904Y-90594761D01*
X113560000Y-90670952D01*
X113560000Y-90899523D01*
X113521904Y-90975714D01*
X113483809Y-91013809D01*
X113407619Y-91051904D01*
X113293333Y-91051904D01*
X113902857Y-90518571D02*
X113902857Y-91051904D01*
X113902857Y-90594761D02*
X113940952Y-90556666D01*
X114017142Y-90518571D01*
X114131428Y-90518571D01*
X114207619Y-90556666D01*
X114245714Y-90632857D01*
X114245714Y-91051904D01*
X115198095Y-90328095D02*
X115236190Y-90290000D01*
X115312380Y-90251904D01*
X115502857Y-90251904D01*
X115579047Y-90290000D01*
X115617142Y-90328095D01*
X115655238Y-90404285D01*
X115655238Y-90480476D01*
X115617142Y-90594761D01*
X115160000Y-91051904D01*
X115655238Y-91051904D01*
X116150476Y-90251904D02*
X116226666Y-90251904D01*
X116302857Y-90290000D01*
X116340952Y-90328095D01*
X116379047Y-90404285D01*
X116417142Y-90556666D01*
X116417142Y-90747142D01*
X116379047Y-90899523D01*
X116340952Y-90975714D01*
X116302857Y-91013809D01*
X116226666Y-91051904D01*
X116150476Y-91051904D01*
X116074285Y-91013809D01*
X116036190Y-90975714D01*
X115998095Y-90899523D01*
X115960000Y-90747142D01*
X115960000Y-90556666D01*
X115998095Y-90404285D01*
X116036190Y-90328095D01*
X116074285Y-90290000D01*
X116150476Y-90251904D01*
X116721904Y-90328095D02*
X116760000Y-90290000D01*
X116836190Y-90251904D01*
X117026666Y-90251904D01*
X117102857Y-90290000D01*
X117140952Y-90328095D01*
X117179047Y-90404285D01*
X117179047Y-90480476D01*
X117140952Y-90594761D01*
X116683809Y-91051904D01*
X117179047Y-91051904D01*
X117483809Y-90328095D02*
X117521904Y-90290000D01*
X117598095Y-90251904D01*
X117788571Y-90251904D01*
X117864761Y-90290000D01*
X117902857Y-90328095D01*
X117940952Y-90404285D01*
X117940952Y-90480476D01*
X117902857Y-90594761D01*
X117445714Y-91051904D01*
X117940952Y-91051904D01*
X101198095Y-92339904D02*
X101198095Y-91539904D01*
X101540952Y-92339904D02*
X101540952Y-91920857D01*
X101502857Y-91844666D01*
X101426666Y-91806571D01*
X101312380Y-91806571D01*
X101236190Y-91844666D01*
X101198095Y-91882761D01*
X101807619Y-91806571D02*
X102112380Y-91806571D01*
X101921904Y-91539904D02*
X101921904Y-92225619D01*
X101960000Y-92301809D01*
X102036190Y-92339904D01*
X102112380Y-92339904D01*
X102264761Y-91806571D02*
X102569523Y-91806571D01*
X102379047Y-91539904D02*
X102379047Y-92225619D01*
X102417142Y-92301809D01*
X102493333Y-92339904D01*
X102569523Y-92339904D01*
X102836190Y-91806571D02*
X102836190Y-92606571D01*
X102836190Y-91844666D02*
X102912380Y-91806571D01*
X103064761Y-91806571D01*
X103140952Y-91844666D01*
X103179047Y-91882761D01*
X103217142Y-91958952D01*
X103217142Y-92187523D01*
X103179047Y-92263714D01*
X103140952Y-92301809D01*
X103064761Y-92339904D01*
X102912380Y-92339904D01*
X102836190Y-92301809D01*
X103521904Y-92301809D02*
X103598095Y-92339904D01*
X103750476Y-92339904D01*
X103826666Y-92301809D01*
X103864761Y-92225619D01*
X103864761Y-92187523D01*
X103826666Y-92111333D01*
X103750476Y-92073238D01*
X103636190Y-92073238D01*
X103560000Y-92035142D01*
X103521904Y-91958952D01*
X103521904Y-91920857D01*
X103560000Y-91844666D01*
X103636190Y-91806571D01*
X103750476Y-91806571D01*
X103826666Y-91844666D01*
X104207619Y-92263714D02*
X104245714Y-92301809D01*
X104207619Y-92339904D01*
X104169523Y-92301809D01*
X104207619Y-92263714D01*
X104207619Y-92339904D01*
X104207619Y-91844666D02*
X104245714Y-91882761D01*
X104207619Y-91920857D01*
X104169523Y-91882761D01*
X104207619Y-91844666D01*
X104207619Y-91920857D01*
X105160000Y-91501809D02*
X104474285Y-92530380D01*
X105998095Y-91501809D02*
X105312380Y-92530380D01*
X106607619Y-91806571D02*
X106607619Y-92454190D01*
X106569523Y-92530380D01*
X106531428Y-92568476D01*
X106455238Y-92606571D01*
X106340952Y-92606571D01*
X106264761Y-92568476D01*
X106607619Y-92301809D02*
X106531428Y-92339904D01*
X106379047Y-92339904D01*
X106302857Y-92301809D01*
X106264761Y-92263714D01*
X106226666Y-92187523D01*
X106226666Y-91958952D01*
X106264761Y-91882761D01*
X106302857Y-91844666D01*
X106379047Y-91806571D01*
X106531428Y-91806571D01*
X106607619Y-91844666D01*
X106988571Y-92339904D02*
X106988571Y-91806571D01*
X106988571Y-91539904D02*
X106950476Y-91578000D01*
X106988571Y-91616095D01*
X107026666Y-91578000D01*
X106988571Y-91539904D01*
X106988571Y-91616095D01*
X107255238Y-91806571D02*
X107560000Y-91806571D01*
X107369523Y-91539904D02*
X107369523Y-92225619D01*
X107407619Y-92301809D01*
X107483809Y-92339904D01*
X107560000Y-92339904D01*
X107826666Y-92339904D02*
X107826666Y-91539904D01*
X108169523Y-92339904D02*
X108169523Y-91920857D01*
X108131428Y-91844666D01*
X108055238Y-91806571D01*
X107940952Y-91806571D01*
X107864761Y-91844666D01*
X107826666Y-91882761D01*
X108893333Y-91806571D02*
X108893333Y-92339904D01*
X108550476Y-91806571D02*
X108550476Y-92225619D01*
X108588571Y-92301809D01*
X108664761Y-92339904D01*
X108779047Y-92339904D01*
X108855238Y-92301809D01*
X108893333Y-92263714D01*
X109274285Y-92339904D02*
X109274285Y-91539904D01*
X109274285Y-91844666D02*
X109350476Y-91806571D01*
X109502857Y-91806571D01*
X109579047Y-91844666D01*
X109617142Y-91882761D01*
X109655238Y-91958952D01*
X109655238Y-92187523D01*
X109617142Y-92263714D01*
X109579047Y-92301809D01*
X109502857Y-92339904D01*
X109350476Y-92339904D01*
X109274285Y-92301809D01*
X109998095Y-92263714D02*
X110036190Y-92301809D01*
X109998095Y-92339904D01*
X109960000Y-92301809D01*
X109998095Y-92263714D01*
X109998095Y-92339904D01*
X110721904Y-92301809D02*
X110645714Y-92339904D01*
X110493333Y-92339904D01*
X110417142Y-92301809D01*
X110379047Y-92263714D01*
X110340952Y-92187523D01*
X110340952Y-91958952D01*
X110379047Y-91882761D01*
X110417142Y-91844666D01*
X110493333Y-91806571D01*
X110645714Y-91806571D01*
X110721904Y-91844666D01*
X111179047Y-92339904D02*
X111102857Y-92301809D01*
X111064761Y-92263714D01*
X111026666Y-92187523D01*
X111026666Y-91958952D01*
X111064761Y-91882761D01*
X111102857Y-91844666D01*
X111179047Y-91806571D01*
X111293333Y-91806571D01*
X111369523Y-91844666D01*
X111407619Y-91882761D01*
X111445714Y-91958952D01*
X111445714Y-92187523D01*
X111407619Y-92263714D01*
X111369523Y-92301809D01*
X111293333Y-92339904D01*
X111179047Y-92339904D01*
X111788571Y-92339904D02*
X111788571Y-91806571D01*
X111788571Y-91882761D02*
X111826666Y-91844666D01*
X111902857Y-91806571D01*
X112017142Y-91806571D01*
X112093333Y-91844666D01*
X112131428Y-91920857D01*
X112131428Y-92339904D01*
X112131428Y-91920857D02*
X112169523Y-91844666D01*
X112245714Y-91806571D01*
X112360000Y-91806571D01*
X112436190Y-91844666D01*
X112474285Y-91920857D01*
X112474285Y-92339904D01*
X113426666Y-91501809D02*
X112740952Y-92530380D01*
X113579047Y-91539904D02*
X114036190Y-91539904D01*
X113807619Y-92339904D02*
X113807619Y-91539904D01*
X114226666Y-91806571D02*
X114379047Y-92339904D01*
X114531428Y-91958952D01*
X114683809Y-92339904D01*
X114836190Y-91806571D01*
X115445714Y-92301809D02*
X115369523Y-92339904D01*
X115217142Y-92339904D01*
X115140952Y-92301809D01*
X115102857Y-92225619D01*
X115102857Y-91920857D01*
X115140952Y-91844666D01*
X115217142Y-91806571D01*
X115369523Y-91806571D01*
X115445714Y-91844666D01*
X115483809Y-91920857D01*
X115483809Y-91997047D01*
X115102857Y-92073238D01*
X116131428Y-92301809D02*
X116055238Y-92339904D01*
X115902857Y-92339904D01*
X115826666Y-92301809D01*
X115788571Y-92225619D01*
X115788571Y-91920857D01*
X115826666Y-91844666D01*
X115902857Y-91806571D01*
X116055238Y-91806571D01*
X116131428Y-91844666D01*
X116169523Y-91920857D01*
X116169523Y-91997047D01*
X115788571Y-92073238D01*
X116398095Y-91806571D02*
X116702857Y-91806571D01*
X116512380Y-91539904D02*
X116512380Y-92225619D01*
X116550476Y-92301809D01*
X116626666Y-92339904D01*
X116702857Y-92339904D01*
X116893333Y-91806571D02*
X117083809Y-92339904D01*
X117274285Y-91806571D02*
X117083809Y-92339904D01*
X117007619Y-92530380D01*
X116969523Y-92568476D01*
X116893333Y-92606571D01*
X117579047Y-92339904D02*
X117579047Y-91539904D01*
X117769523Y-91539904D01*
X117883809Y-91578000D01*
X117960000Y-91654190D01*
X117998095Y-91730380D01*
X118036190Y-91882761D01*
X118036190Y-91997047D01*
X117998095Y-92149428D01*
X117960000Y-92225619D01*
X117883809Y-92301809D01*
X117769523Y-92339904D01*
X117579047Y-92339904D01*
X118721904Y-92339904D02*
X118721904Y-91920857D01*
X118683809Y-91844666D01*
X118607619Y-91806571D01*
X118455238Y-91806571D01*
X118379047Y-91844666D01*
X118721904Y-92301809D02*
X118645714Y-92339904D01*
X118455238Y-92339904D01*
X118379047Y-92301809D01*
X118340952Y-92225619D01*
X118340952Y-92149428D01*
X118379047Y-92073238D01*
X118455238Y-92035142D01*
X118645714Y-92035142D01*
X118721904Y-91997047D01*
X119369523Y-91920857D02*
X119483809Y-91958952D01*
X119521904Y-91997047D01*
X119560000Y-92073238D01*
X119560000Y-92187523D01*
X119521904Y-92263714D01*
X119483809Y-92301809D01*
X119407619Y-92339904D01*
X119102857Y-92339904D01*
X119102857Y-91539904D01*
X119369523Y-91539904D01*
X119445714Y-91578000D01*
X119483809Y-91616095D01*
X119521904Y-91692285D01*
X119521904Y-91768476D01*
X119483809Y-91844666D01*
X119445714Y-91882761D01*
X119369523Y-91920857D01*
X119102857Y-91920857D01*
X119902857Y-92339904D02*
X119902857Y-91806571D01*
X119902857Y-91539904D02*
X119864761Y-91578000D01*
X119902857Y-91616095D01*
X119940952Y-91578000D01*
X119902857Y-91539904D01*
X119902857Y-91616095D01*
X120283809Y-92339904D02*
X120283809Y-91806571D01*
X120283809Y-91958952D02*
X120321904Y-91882761D01*
X120360000Y-91844666D01*
X120436190Y-91806571D01*
X120512380Y-91806571D01*
X121121904Y-92339904D02*
X121121904Y-91539904D01*
X121121904Y-92301809D02*
X121045714Y-92339904D01*
X120893333Y-92339904D01*
X120817142Y-92301809D01*
X120779047Y-92263714D01*
X120740952Y-92187523D01*
X120740952Y-91958952D01*
X120779047Y-91882761D01*
X120817142Y-91844666D01*
X120893333Y-91806571D01*
X121045714Y-91806571D01*
X121121904Y-91844666D01*
X90186666Y-95364761D02*
X90329523Y-95412380D01*
X90567619Y-95412380D01*
X90662857Y-95364761D01*
X90710476Y-95317142D01*
X90758095Y-95221904D01*
X90758095Y-95126666D01*
X90710476Y-95031428D01*
X90662857Y-94983809D01*
X90567619Y-94936190D01*
X90377142Y-94888571D01*
X90281904Y-94840952D01*
X90234285Y-94793333D01*
X90186666Y-94698095D01*
X90186666Y-94602857D01*
X90234285Y-94507619D01*
X90281904Y-94460000D01*
X90377142Y-94412380D01*
X90615238Y-94412380D01*
X90758095Y-94460000D01*
X91091428Y-94412380D02*
X91329523Y-95412380D01*
X91520000Y-94698095D01*
X91710476Y-95412380D01*
X91948571Y-94412380D01*
X92853333Y-95412380D02*
X92281904Y-95412380D01*
X92567619Y-95412380D02*
X92567619Y-94412380D01*
X92472380Y-94555238D01*
X92377142Y-94650476D01*
X92281904Y-94698095D01*
X109236666Y-95364761D02*
X109379523Y-95412380D01*
X109617619Y-95412380D01*
X109712857Y-95364761D01*
X109760476Y-95317142D01*
X109808095Y-95221904D01*
X109808095Y-95126666D01*
X109760476Y-95031428D01*
X109712857Y-94983809D01*
X109617619Y-94936190D01*
X109427142Y-94888571D01*
X109331904Y-94840952D01*
X109284285Y-94793333D01*
X109236666Y-94698095D01*
X109236666Y-94602857D01*
X109284285Y-94507619D01*
X109331904Y-94460000D01*
X109427142Y-94412380D01*
X109665238Y-94412380D01*
X109808095Y-94460000D01*
X110141428Y-94412380D02*
X110379523Y-95412380D01*
X110570000Y-94698095D01*
X110760476Y-95412380D01*
X110998571Y-94412380D01*
X111331904Y-94507619D02*
X111379523Y-94460000D01*
X111474761Y-94412380D01*
X111712857Y-94412380D01*
X111808095Y-94460000D01*
X111855714Y-94507619D01*
X111903333Y-94602857D01*
X111903333Y-94698095D01*
X111855714Y-94840952D01*
X111284285Y-95412380D01*
X111903333Y-95412380D01*
X128286666Y-95364761D02*
X128429523Y-95412380D01*
X128667619Y-95412380D01*
X128762857Y-95364761D01*
X128810476Y-95317142D01*
X128858095Y-95221904D01*
X128858095Y-95126666D01*
X128810476Y-95031428D01*
X128762857Y-94983809D01*
X128667619Y-94936190D01*
X128477142Y-94888571D01*
X128381904Y-94840952D01*
X128334285Y-94793333D01*
X128286666Y-94698095D01*
X128286666Y-94602857D01*
X128334285Y-94507619D01*
X128381904Y-94460000D01*
X128477142Y-94412380D01*
X128715238Y-94412380D01*
X128858095Y-94460000D01*
X129191428Y-94412380D02*
X129429523Y-95412380D01*
X129620000Y-94698095D01*
X129810476Y-95412380D01*
X130048571Y-94412380D01*
X130334285Y-94412380D02*
X130953333Y-94412380D01*
X130620000Y-94793333D01*
X130762857Y-94793333D01*
X130858095Y-94840952D01*
X130905714Y-94888571D01*
X130953333Y-94983809D01*
X130953333Y-95221904D01*
X130905714Y-95317142D01*
X130858095Y-95364761D01*
X130762857Y-95412380D01*
X130477142Y-95412380D01*
X130381904Y-95364761D01*
X130334285Y-95317142D01*
X90186666Y-114414761D02*
X90329523Y-114462380D01*
X90567619Y-114462380D01*
X90662857Y-114414761D01*
X90710476Y-114367142D01*
X90758095Y-114271904D01*
X90758095Y-114176666D01*
X90710476Y-114081428D01*
X90662857Y-114033809D01*
X90567619Y-113986190D01*
X90377142Y-113938571D01*
X90281904Y-113890952D01*
X90234285Y-113843333D01*
X90186666Y-113748095D01*
X90186666Y-113652857D01*
X90234285Y-113557619D01*
X90281904Y-113510000D01*
X90377142Y-113462380D01*
X90615238Y-113462380D01*
X90758095Y-113510000D01*
X91091428Y-113462380D02*
X91329523Y-114462380D01*
X91520000Y-113748095D01*
X91710476Y-114462380D01*
X91948571Y-113462380D01*
X92758095Y-113795714D02*
X92758095Y-114462380D01*
X92520000Y-113414761D02*
X92281904Y-114129047D01*
X92900952Y-114129047D01*
X109236666Y-114414761D02*
X109379523Y-114462380D01*
X109617619Y-114462380D01*
X109712857Y-114414761D01*
X109760476Y-114367142D01*
X109808095Y-114271904D01*
X109808095Y-114176666D01*
X109760476Y-114081428D01*
X109712857Y-114033809D01*
X109617619Y-113986190D01*
X109427142Y-113938571D01*
X109331904Y-113890952D01*
X109284285Y-113843333D01*
X109236666Y-113748095D01*
X109236666Y-113652857D01*
X109284285Y-113557619D01*
X109331904Y-113510000D01*
X109427142Y-113462380D01*
X109665238Y-113462380D01*
X109808095Y-113510000D01*
X110141428Y-113462380D02*
X110379523Y-114462380D01*
X110570000Y-113748095D01*
X110760476Y-114462380D01*
X110998571Y-113462380D01*
X111855714Y-113462380D02*
X111379523Y-113462380D01*
X111331904Y-113938571D01*
X111379523Y-113890952D01*
X111474761Y-113843333D01*
X111712857Y-113843333D01*
X111808095Y-113890952D01*
X111855714Y-113938571D01*
X111903333Y-114033809D01*
X111903333Y-114271904D01*
X111855714Y-114367142D01*
X111808095Y-114414761D01*
X111712857Y-114462380D01*
X111474761Y-114462380D01*
X111379523Y-114414761D01*
X111331904Y-114367142D01*
X128286666Y-114414761D02*
X128429523Y-114462380D01*
X128667619Y-114462380D01*
X128762857Y-114414761D01*
X128810476Y-114367142D01*
X128858095Y-114271904D01*
X128858095Y-114176666D01*
X128810476Y-114081428D01*
X128762857Y-114033809D01*
X128667619Y-113986190D01*
X128477142Y-113938571D01*
X128381904Y-113890952D01*
X128334285Y-113843333D01*
X128286666Y-113748095D01*
X128286666Y-113652857D01*
X128334285Y-113557619D01*
X128381904Y-113510000D01*
X128477142Y-113462380D01*
X128715238Y-113462380D01*
X128858095Y-113510000D01*
X129191428Y-113462380D02*
X129429523Y-114462380D01*
X129620000Y-113748095D01*
X129810476Y-114462380D01*
X130048571Y-113462380D01*
X130858095Y-113462380D02*
X130667619Y-113462380D01*
X130572380Y-113510000D01*
X130524761Y-113557619D01*
X130429523Y-113700476D01*
X130381904Y-113890952D01*
X130381904Y-114271904D01*
X130429523Y-114367142D01*
X130477142Y-114414761D01*
X130572380Y-114462380D01*
X130762857Y-114462380D01*
X130858095Y-114414761D01*
X130905714Y-114367142D01*
X130953333Y-114271904D01*
X130953333Y-114033809D01*
X130905714Y-113938571D01*
X130858095Y-113890952D01*
X130762857Y-113843333D01*
X130572380Y-113843333D01*
X130477142Y-113890952D01*
X130429523Y-113938571D01*
X130381904Y-114033809D01*
X108032380Y-49143333D02*
X108746666Y-49143333D01*
X108889523Y-49190952D01*
X108984761Y-49286190D01*
X109032380Y-49429047D01*
X109032380Y-49524285D01*
X109032380Y-48143333D02*
X109032380Y-48714761D01*
X109032380Y-48429047D02*
X108032380Y-48429047D01*
X108175238Y-48524285D01*
X108270476Y-48619523D01*
X108318095Y-48714761D01*
X115772380Y-50153333D02*
X116486666Y-50153333D01*
X116629523Y-50200952D01*
X116724761Y-50296190D01*
X116772380Y-50439047D01*
X116772380Y-50534285D01*
X115867619Y-49724761D02*
X115820000Y-49677142D01*
X115772380Y-49581904D01*
X115772380Y-49343809D01*
X115820000Y-49248571D01*
X115867619Y-49200952D01*
X115962857Y-49153333D01*
X116058095Y-49153333D01*
X116200952Y-49200952D01*
X116772380Y-49772380D01*
X116772380Y-49153333D01*
D11*
X124556831Y-92912915D02*
X124556831Y-92412915D01*
X124771117Y-92912915D02*
X124771117Y-92651010D01*
X124747307Y-92603391D01*
X124699688Y-92579582D01*
X124628260Y-92579582D01*
X124580641Y-92603391D01*
X124556831Y-92627201D01*
X124937783Y-92579582D02*
X125128260Y-92579582D01*
X125009212Y-92412915D02*
X125009212Y-92841486D01*
X125033022Y-92889105D01*
X125080641Y-92912915D01*
X125128260Y-92912915D01*
X125223498Y-92579582D02*
X125413974Y-92579582D01*
X125294926Y-92412915D02*
X125294926Y-92841486D01*
X125318736Y-92889105D01*
X125366355Y-92912915D01*
X125413974Y-92912915D01*
X125580641Y-92579582D02*
X125580641Y-93079582D01*
X125580641Y-92603391D02*
X125628260Y-92579582D01*
X125723498Y-92579582D01*
X125771117Y-92603391D01*
X125794926Y-92627201D01*
X125818736Y-92674820D01*
X125818736Y-92817677D01*
X125794926Y-92865296D01*
X125771117Y-92889105D01*
X125723498Y-92912915D01*
X125628260Y-92912915D01*
X125580641Y-92889105D01*
X126009212Y-92889105D02*
X126056831Y-92912915D01*
X126152069Y-92912915D01*
X126199688Y-92889105D01*
X126223498Y-92841486D01*
X126223498Y-92817677D01*
X126199688Y-92770058D01*
X126152069Y-92746248D01*
X126080641Y-92746248D01*
X126033022Y-92722439D01*
X126009212Y-92674820D01*
X126009212Y-92651010D01*
X126033022Y-92603391D01*
X126080641Y-92579582D01*
X126152069Y-92579582D01*
X126199688Y-92603391D01*
X126437783Y-92865296D02*
X126461593Y-92889105D01*
X126437783Y-92912915D01*
X126413974Y-92889105D01*
X126437783Y-92865296D01*
X126437783Y-92912915D01*
X126437783Y-92603391D02*
X126461593Y-92627201D01*
X126437783Y-92651010D01*
X126413974Y-92627201D01*
X126437783Y-92603391D01*
X126437783Y-92651010D01*
X127033022Y-92389105D02*
X126604450Y-93031963D01*
X127556831Y-92389105D02*
X127128260Y-93031963D01*
X127937783Y-92889105D02*
X127890164Y-92912915D01*
X127794926Y-92912915D01*
X127747307Y-92889105D01*
X127723498Y-92865296D01*
X127699688Y-92817677D01*
X127699688Y-92674820D01*
X127723498Y-92627201D01*
X127747307Y-92603391D01*
X127794926Y-92579582D01*
X127890164Y-92579582D01*
X127937783Y-92603391D01*
X128152069Y-92912915D02*
X128152069Y-92579582D01*
X128152069Y-92674820D02*
X128175879Y-92627201D01*
X128199688Y-92603391D01*
X128247307Y-92579582D01*
X128294926Y-92579582D01*
X128652069Y-92889105D02*
X128604450Y-92912915D01*
X128509212Y-92912915D01*
X128461593Y-92889105D01*
X128437783Y-92841486D01*
X128437783Y-92651010D01*
X128461593Y-92603391D01*
X128509212Y-92579582D01*
X128604450Y-92579582D01*
X128652069Y-92603391D01*
X128675879Y-92651010D01*
X128675879Y-92698629D01*
X128437783Y-92746248D01*
X129104450Y-92912915D02*
X129104450Y-92651010D01*
X129080641Y-92603391D01*
X129033022Y-92579582D01*
X128937783Y-92579582D01*
X128890164Y-92603391D01*
X129104450Y-92889105D02*
X129056831Y-92912915D01*
X128937783Y-92912915D01*
X128890164Y-92889105D01*
X128866355Y-92841486D01*
X128866355Y-92793867D01*
X128890164Y-92746248D01*
X128937783Y-92722439D01*
X129056831Y-92722439D01*
X129104450Y-92698629D01*
X129271117Y-92579582D02*
X129461593Y-92579582D01*
X129342545Y-92412915D02*
X129342545Y-92841486D01*
X129366355Y-92889105D01*
X129413974Y-92912915D01*
X129461593Y-92912915D01*
X129628260Y-92912915D02*
X129628260Y-92579582D01*
X129628260Y-92412915D02*
X129604450Y-92436725D01*
X129628260Y-92460534D01*
X129652069Y-92436725D01*
X129628260Y-92412915D01*
X129628260Y-92460534D01*
X129818736Y-92579582D02*
X129937783Y-92912915D01*
X130056831Y-92579582D01*
X130437783Y-92889105D02*
X130390164Y-92912915D01*
X130294926Y-92912915D01*
X130247307Y-92889105D01*
X130223498Y-92841486D01*
X130223498Y-92651010D01*
X130247307Y-92603391D01*
X130294926Y-92579582D01*
X130390164Y-92579582D01*
X130437783Y-92603391D01*
X130461593Y-92651010D01*
X130461593Y-92698629D01*
X130223498Y-92746248D01*
X130890164Y-92889105D02*
X130842545Y-92912915D01*
X130747307Y-92912915D01*
X130699688Y-92889105D01*
X130675879Y-92865296D01*
X130652069Y-92817677D01*
X130652069Y-92674820D01*
X130675879Y-92627201D01*
X130699688Y-92603391D01*
X130747307Y-92579582D01*
X130842545Y-92579582D01*
X130890164Y-92603391D01*
X131175879Y-92912915D02*
X131128260Y-92889105D01*
X131104450Y-92865296D01*
X131080641Y-92817677D01*
X131080641Y-92674820D01*
X131104450Y-92627201D01*
X131128260Y-92603391D01*
X131175879Y-92579582D01*
X131247307Y-92579582D01*
X131294926Y-92603391D01*
X131318736Y-92627201D01*
X131342545Y-92674820D01*
X131342545Y-92817677D01*
X131318736Y-92865296D01*
X131294926Y-92889105D01*
X131247307Y-92912915D01*
X131175879Y-92912915D01*
X131556831Y-92912915D02*
X131556831Y-92579582D01*
X131556831Y-92627201D02*
X131580641Y-92603391D01*
X131628260Y-92579582D01*
X131699688Y-92579582D01*
X131747307Y-92603391D01*
X131771117Y-92651010D01*
X131771117Y-92912915D01*
X131771117Y-92651010D02*
X131794926Y-92603391D01*
X131842545Y-92579582D01*
X131913974Y-92579582D01*
X131961593Y-92603391D01*
X131985403Y-92651010D01*
X131985403Y-92912915D01*
X132223498Y-92912915D02*
X132223498Y-92579582D01*
X132223498Y-92627201D02*
X132247307Y-92603391D01*
X132294926Y-92579582D01*
X132366355Y-92579582D01*
X132413974Y-92603391D01*
X132437783Y-92651010D01*
X132437783Y-92912915D01*
X132437783Y-92651010D02*
X132461593Y-92603391D01*
X132509212Y-92579582D01*
X132580641Y-92579582D01*
X132628260Y-92603391D01*
X132652069Y-92651010D01*
X132652069Y-92912915D01*
X132961593Y-92912915D02*
X132913974Y-92889105D01*
X132890164Y-92865296D01*
X132866355Y-92817677D01*
X132866355Y-92674820D01*
X132890164Y-92627201D01*
X132913974Y-92603391D01*
X132961593Y-92579582D01*
X133033022Y-92579582D01*
X133080641Y-92603391D01*
X133104450Y-92627201D01*
X133128260Y-92674820D01*
X133128260Y-92817677D01*
X133104450Y-92865296D01*
X133080641Y-92889105D01*
X133033022Y-92912915D01*
X132961593Y-92912915D01*
X133342545Y-92579582D02*
X133342545Y-92912915D01*
X133342545Y-92627201D02*
X133366355Y-92603391D01*
X133413974Y-92579582D01*
X133485403Y-92579582D01*
X133533022Y-92603391D01*
X133556831Y-92651010D01*
X133556831Y-92912915D01*
X133771117Y-92889105D02*
X133818736Y-92912915D01*
X133913974Y-92912915D01*
X133961593Y-92889105D01*
X133985403Y-92841486D01*
X133985403Y-92817677D01*
X133961593Y-92770058D01*
X133913974Y-92746248D01*
X133842545Y-92746248D01*
X133794926Y-92722439D01*
X133771117Y-92674820D01*
X133771117Y-92651010D01*
X133794926Y-92603391D01*
X133842545Y-92579582D01*
X133913974Y-92579582D01*
X133961593Y-92603391D01*
X134199688Y-92865296D02*
X134223498Y-92889105D01*
X134199688Y-92912915D01*
X134175879Y-92889105D01*
X134199688Y-92865296D01*
X134199688Y-92912915D01*
X134509212Y-92912915D02*
X134461593Y-92889105D01*
X134437783Y-92865296D01*
X134413974Y-92817677D01*
X134413974Y-92674820D01*
X134437783Y-92627201D01*
X134461593Y-92603391D01*
X134509212Y-92579582D01*
X134580641Y-92579582D01*
X134628260Y-92603391D01*
X134652069Y-92627201D01*
X134675879Y-92674820D01*
X134675879Y-92817677D01*
X134652069Y-92865296D01*
X134628260Y-92889105D01*
X134580641Y-92912915D01*
X134509212Y-92912915D01*
X134890164Y-92912915D02*
X134890164Y-92579582D01*
X134890164Y-92674820D02*
X134913974Y-92627201D01*
X134937783Y-92603391D01*
X134985403Y-92579582D01*
X135033022Y-92579582D01*
X135413974Y-92579582D02*
X135413974Y-92984344D01*
X135390164Y-93031963D01*
X135366355Y-93055772D01*
X135318736Y-93079582D01*
X135247307Y-93079582D01*
X135199688Y-93055772D01*
X135413974Y-92889105D02*
X135366355Y-92912915D01*
X135271117Y-92912915D01*
X135223498Y-92889105D01*
X135199688Y-92865296D01*
X135175879Y-92817677D01*
X135175879Y-92674820D01*
X135199688Y-92627201D01*
X135223498Y-92603391D01*
X135271117Y-92579582D01*
X135366355Y-92579582D01*
X135413974Y-92603391D01*
D10*
X97220000Y-110160000D02*
X98220000Y-110160000D01*
X84220000Y-97160000D02*
X84220000Y-96160000D01*
X98220000Y-96160000D02*
X97220000Y-96160000D01*
X84220000Y-110160000D02*
X84220000Y-109160000D01*
X84220000Y-110160000D02*
X85220000Y-110160000D01*
X85220000Y-96160000D02*
X84220000Y-96160000D01*
X98220000Y-109160000D02*
X98220000Y-110160000D01*
X98220000Y-96160000D02*
X98220000Y-97160000D01*
X103270000Y-97160000D02*
X103270000Y-96160000D01*
X117270000Y-96160000D02*
X117270000Y-97160000D01*
X103270000Y-110160000D02*
X103270000Y-109160000D01*
X117270000Y-109160000D02*
X117270000Y-110160000D01*
X117270000Y-96160000D02*
X116270000Y-96160000D01*
X104270000Y-96160000D02*
X103270000Y-96160000D01*
X103270000Y-110160000D02*
X104270000Y-110160000D01*
X116270000Y-110160000D02*
X117270000Y-110160000D01*
X122320000Y-110160000D02*
X123320000Y-110160000D01*
X136320000Y-96160000D02*
X136320000Y-97160000D01*
X122320000Y-110160000D02*
X122320000Y-109160000D01*
X123320000Y-96160000D02*
X122320000Y-96160000D01*
X136320000Y-109160000D02*
X136320000Y-110160000D01*
X136320000Y-96160000D02*
X135320000Y-96160000D01*
X135320000Y-110160000D02*
X136320000Y-110160000D01*
X122320000Y-97160000D02*
X122320000Y-96160000D01*
X98220000Y-115210000D02*
X97220000Y-115210000D01*
X85220000Y-115210000D02*
X84220000Y-115210000D01*
X84220000Y-129210000D02*
X85220000Y-129210000D01*
X98220000Y-115210000D02*
X98220000Y-116210000D01*
X97220000Y-129210000D02*
X98220000Y-129210000D01*
X84220000Y-129210000D02*
X84220000Y-128210000D01*
X84220000Y-116210000D02*
X84220000Y-115210000D01*
X98220000Y-128210000D02*
X98220000Y-129210000D01*
X117270000Y-115210000D02*
X117270000Y-116210000D01*
X103270000Y-116210000D02*
X103270000Y-115210000D01*
X117270000Y-115210000D02*
X116270000Y-115210000D01*
X103270000Y-129210000D02*
X103270000Y-128210000D01*
X117270000Y-128210000D02*
X117270000Y-129210000D01*
X103270000Y-129210000D02*
X104270000Y-129210000D01*
X104270000Y-115210000D02*
X103270000Y-115210000D01*
X116270000Y-129210000D02*
X117270000Y-129210000D01*
X136320000Y-115210000D02*
X135320000Y-115210000D01*
X123320000Y-115210000D02*
X122320000Y-115210000D01*
X122320000Y-116210000D02*
X122320000Y-115210000D01*
X136320000Y-128210000D02*
X136320000Y-129210000D01*
X136320000Y-115210000D02*
X136320000Y-116210000D01*
X122320000Y-129210000D02*
X123320000Y-129210000D01*
X122320000Y-129210000D02*
X122320000Y-128210000D01*
X135320000Y-129210000D02*
X136320000Y-129210000D01*
D12*
X110270000Y-68660000D02*
X110270000Y-67660000D01*
X109770000Y-68160000D02*
X110770000Y-68160000D01*
X113270000Y-68160000D02*
G75*
G03*
X113270000Y-68160000I-3000000J0D01*
G01*
X107580000Y-47480000D02*
X107580000Y-48810000D01*
X104980000Y-47480000D02*
X104980000Y-50140000D01*
X104980000Y-47480000D02*
X102380000Y-47480000D01*
X104980000Y-50140000D02*
X102380000Y-50140000D01*
X102380000Y-47480000D02*
X102380000Y-50140000D01*
X106250000Y-47480000D02*
X107580000Y-47480000D01*
X117410000Y-47680000D02*
X119010000Y-47680000D01*
X125230000Y-50320000D02*
X120870000Y-50320000D01*
X120870000Y-50320000D02*
X120870000Y-49320000D01*
X125230000Y-52880000D02*
X125230000Y-46760000D01*
X117410000Y-46760000D02*
X117410000Y-47680000D01*
X119010000Y-51680000D02*
X117795000Y-51680000D01*
X119010000Y-51680000D02*
X119010000Y-51960000D01*
X119010000Y-46760000D02*
X119010000Y-47680000D01*
X122970000Y-48520000D02*
X121370000Y-48520000D01*
X121370000Y-47520000D02*
X122970000Y-47520000D01*
X125230000Y-46760000D02*
X117410000Y-46760000D01*
X120870000Y-49320000D02*
X125230000Y-49320000D01*
X121370000Y-51120000D02*
X121370000Y-52120000D01*
X121370000Y-52120000D02*
X122970000Y-52120000D01*
X119010000Y-52880000D02*
X119010000Y-51960000D01*
X119010000Y-47680000D02*
X119010000Y-47960000D01*
X117410000Y-52880000D02*
X125230000Y-52880000D01*
X121370000Y-48520000D02*
X121370000Y-47520000D01*
X122970000Y-51120000D02*
X121370000Y-51120000D01*
X117410000Y-51960000D02*
X117410000Y-52880000D01*
X122970000Y-51620000D02*
X125230000Y-51620000D01*
X122970000Y-52120000D02*
X122970000Y-51120000D01*
X122970000Y-47520000D02*
X122970000Y-48520000D01*
X122970000Y-51120000D02*
X125230000Y-51120000D01*
X119010000Y-51960000D02*
X117410000Y-51960000D01*
G36*
X92013637Y-89536480D02*
G01*
X92016573Y-89687292D01*
X92017996Y-89741048D01*
X92019914Y-89786347D01*
X92022111Y-89819436D01*
X92024372Y-89836563D01*
X92025217Y-89838105D01*
X92036336Y-89832246D01*
X92057756Y-89817459D01*
X92068737Y-89809263D01*
X92095718Y-89792062D01*
X92125109Y-89782378D01*
X92165314Y-89777703D01*
X92176510Y-89777095D01*
X92238842Y-89779813D01*
X92287438Y-89796271D01*
X92326428Y-89828856D01*
X92359941Y-89879955D01*
X92362301Y-89884506D01*
X92377858Y-89917234D01*
X92387322Y-89945667D01*
X92392172Y-89977194D01*
X92393888Y-90019205D01*
X92394031Y-90043053D01*
X92389880Y-90124604D01*
X92376576Y-90189786D01*
X92353095Y-90241774D01*
X92318411Y-90283744D01*
X92315380Y-90286531D01*
X92259813Y-90324200D01*
X92199391Y-90342569D01*
X92137166Y-90340947D01*
X92108887Y-90333335D01*
X92078448Y-90319155D01*
X92046475Y-90299339D01*
X92043444Y-90297127D01*
X92009751Y-90272017D01*
X92006402Y-90301123D01*
X92001984Y-90319919D01*
X91990230Y-90328231D01*
X91964614Y-90330219D01*
X91960720Y-90330230D01*
X91918387Y-90330230D01*
X91918387Y-90050982D01*
X92018928Y-90050982D01*
X92019660Y-90094920D01*
X92021611Y-90132014D01*
X92024413Y-90156196D01*
X92025558Y-90160568D01*
X92037297Y-90176299D01*
X92060456Y-90198419D01*
X92079997Y-90214350D01*
X92127044Y-90242450D01*
X92169351Y-90250506D01*
X92208609Y-90238639D01*
X92227920Y-90225023D01*
X92256269Y-90190298D01*
X92274315Y-90141447D01*
X92282708Y-90076344D01*
X92283512Y-90043087D01*
X92278080Y-89977662D01*
X92261101Y-89928388D01*
X92231548Y-89893048D01*
X92206758Y-89877310D01*
X92180390Y-89865801D01*
X92160179Y-89864318D01*
X92134645Y-89872553D01*
X92128222Y-89875200D01*
X92093708Y-89894145D01*
X92059596Y-89919623D01*
X92053324Y-89925384D01*
X92036778Y-89942343D01*
X92026626Y-89957798D01*
X92021307Y-89977444D01*
X92019261Y-90006980D01*
X92018928Y-90050982D01*
X91918387Y-90050982D01*
X91918387Y-89536480D01*
X92013637Y-89536480D01*
G37*
D13*
X92013637Y-89536480D02*
X92016573Y-89687292D01*
X92017996Y-89741048D01*
X92019914Y-89786347D01*
X92022111Y-89819436D01*
X92024372Y-89836563D01*
X92025217Y-89838105D01*
X92036336Y-89832246D01*
X92057756Y-89817459D01*
X92068737Y-89809263D01*
X92095718Y-89792062D01*
X92125109Y-89782378D01*
X92165314Y-89777703D01*
X92176510Y-89777095D01*
X92238842Y-89779813D01*
X92287438Y-89796271D01*
X92326428Y-89828856D01*
X92359941Y-89879955D01*
X92362301Y-89884506D01*
X92377858Y-89917234D01*
X92387322Y-89945667D01*
X92392172Y-89977194D01*
X92393888Y-90019205D01*
X92394031Y-90043053D01*
X92389880Y-90124604D01*
X92376576Y-90189786D01*
X92353095Y-90241774D01*
X92318411Y-90283744D01*
X92315380Y-90286531D01*
X92259813Y-90324200D01*
X92199391Y-90342569D01*
X92137166Y-90340947D01*
X92108887Y-90333335D01*
X92078448Y-90319155D01*
X92046475Y-90299339D01*
X92043444Y-90297127D01*
X92009751Y-90272017D01*
X92006402Y-90301123D01*
X92001984Y-90319919D01*
X91990230Y-90328231D01*
X91964614Y-90330219D01*
X91960720Y-90330230D01*
X91918387Y-90330230D01*
X91918387Y-90050982D01*
X92018928Y-90050982D01*
X92019660Y-90094920D01*
X92021611Y-90132014D01*
X92024413Y-90156196D01*
X92025558Y-90160568D01*
X92037297Y-90176299D01*
X92060456Y-90198419D01*
X92079997Y-90214350D01*
X92127044Y-90242450D01*
X92169351Y-90250506D01*
X92208609Y-90238639D01*
X92227920Y-90225023D01*
X92256269Y-90190298D01*
X92274315Y-90141447D01*
X92282708Y-90076344D01*
X92283512Y-90043087D01*
X92278080Y-89977662D01*
X92261101Y-89928388D01*
X92231548Y-89893048D01*
X92206758Y-89877310D01*
X92180390Y-89865801D01*
X92160179Y-89864318D01*
X92134645Y-89872553D01*
X92128222Y-89875200D01*
X92093708Y-89894145D01*
X92059596Y-89919623D01*
X92053324Y-89925384D01*
X92036778Y-89942343D01*
X92026626Y-89957798D01*
X92021307Y-89977444D01*
X92019261Y-90006980D01*
X92018928Y-90050982D01*
X91918387Y-90050982D01*
X91918387Y-89536480D01*
X92013637Y-89536480D01*
G36*
X91751838Y-91321147D02*
G01*
X91754623Y-91677063D01*
X91730672Y-91683481D01*
X91675228Y-91687969D01*
X91645726Y-91682866D01*
X91640685Y-91680395D01*
X91636673Y-91674484D01*
X91633596Y-91663012D01*
X91631362Y-91643859D01*
X91629877Y-91614906D01*
X91629049Y-91574031D01*
X91628783Y-91519114D01*
X91628987Y-91448037D01*
X91629567Y-91358677D01*
X91629851Y-91321614D01*
X91632637Y-90965230D01*
X91749053Y-90965230D01*
X91751838Y-91321147D01*
G37*
X91751838Y-91321147D02*
X91754623Y-91677063D01*
X91730672Y-91683481D01*
X91675228Y-91687969D01*
X91645726Y-91682866D01*
X91640685Y-91680395D01*
X91636673Y-91674484D01*
X91633596Y-91663012D01*
X91631362Y-91643859D01*
X91629877Y-91614906D01*
X91629049Y-91574031D01*
X91628783Y-91519114D01*
X91628987Y-91448037D01*
X91629567Y-91358677D01*
X91629851Y-91321614D01*
X91632637Y-90965230D01*
X91749053Y-90965230D01*
X91751838Y-91321147D01*
G36*
X89510796Y-90705609D02*
G01*
X89525179Y-90710331D01*
X89536357Y-90720734D01*
X89544730Y-90738557D01*
X89550695Y-90765540D01*
X89554653Y-90803423D01*
X89557003Y-90853946D01*
X89558144Y-90918848D01*
X89558475Y-90999869D01*
X89558395Y-91098749D01*
X89558303Y-91204378D01*
X89558303Y-91672782D01*
X89526553Y-91681375D01*
X89492306Y-91685626D01*
X89460407Y-91683608D01*
X89426012Y-91677249D01*
X89425617Y-91257740D01*
X89425222Y-90838230D01*
X89257854Y-91253819D01*
X89222074Y-91342400D01*
X89188549Y-91424890D01*
X89158137Y-91499216D01*
X89131696Y-91563305D01*
X89110083Y-91615083D01*
X89094157Y-91652479D01*
X89084773Y-91673417D01*
X89082727Y-91677153D01*
X89065923Y-91682983D01*
X89037191Y-91684602D01*
X89004660Y-91682550D01*
X88976462Y-91677363D01*
X88960727Y-91669579D01*
X88960366Y-91669056D01*
X88954735Y-91656320D01*
X88942397Y-91626015D01*
X88924215Y-91580339D01*
X88901053Y-91521489D01*
X88873775Y-91451663D01*
X88843245Y-91373057D01*
X88810326Y-91287871D01*
X88799845Y-91260662D01*
X88648137Y-90866526D01*
X88645365Y-91268084D01*
X88642593Y-91669641D01*
X88615571Y-91679915D01*
X88588504Y-91687392D01*
X88559669Y-91687537D01*
X88529074Y-91682719D01*
X88505262Y-91678133D01*
X88505424Y-91210556D01*
X88505665Y-91112702D01*
X88506292Y-91021128D01*
X88507259Y-90938057D01*
X88508523Y-90865714D01*
X88510038Y-90806320D01*
X88511761Y-90762100D01*
X88513648Y-90735277D01*
X88515033Y-90728056D01*
X88532148Y-90717542D01*
X88563889Y-90710634D01*
X88603949Y-90707794D01*
X88646022Y-90709481D01*
X88682607Y-90715829D01*
X88695927Y-90719404D01*
X88707317Y-90723486D01*
X88717705Y-90729895D01*
X88728016Y-90740453D01*
X88739178Y-90756983D01*
X88752117Y-90781306D01*
X88767760Y-90815243D01*
X88787033Y-90860617D01*
X88810862Y-90919250D01*
X88840175Y-90992962D01*
X88875899Y-91083577D01*
X88897292Y-91137921D01*
X88932678Y-91227539D01*
X88961265Y-91299175D01*
X88983879Y-91354594D01*
X89001343Y-91395563D01*
X89014481Y-91423845D01*
X89024117Y-91441207D01*
X89031076Y-91449412D01*
X89036180Y-91450228D01*
X89040255Y-91445418D01*
X89040564Y-91444838D01*
X89047546Y-91429385D01*
X89061480Y-91396833D01*
X89081322Y-91349679D01*
X89106029Y-91290423D01*
X89134557Y-91221564D01*
X89165863Y-91145600D01*
X89187769Y-91092230D01*
X89223295Y-91006601D01*
X89256339Y-90929022D01*
X89285927Y-90861651D01*
X89311084Y-90806648D01*
X89330838Y-90766172D01*
X89344214Y-90742381D01*
X89347540Y-90738040D01*
X89365677Y-90723133D01*
X89388357Y-90714334D01*
X89422280Y-90709575D01*
X89444421Y-90708124D01*
X89470816Y-90706245D01*
X89492807Y-90704826D01*
X89510796Y-90705609D01*
G37*
X89510796Y-90705609D02*
X89525179Y-90710331D01*
X89536357Y-90720734D01*
X89544730Y-90738557D01*
X89550695Y-90765540D01*
X89554653Y-90803423D01*
X89557003Y-90853946D01*
X89558144Y-90918848D01*
X89558475Y-90999869D01*
X89558395Y-91098749D01*
X89558303Y-91204378D01*
X89558303Y-91672782D01*
X89526553Y-91681375D01*
X89492306Y-91685626D01*
X89460407Y-91683608D01*
X89426012Y-91677249D01*
X89425617Y-91257740D01*
X89425222Y-90838230D01*
X89257854Y-91253819D01*
X89222074Y-91342400D01*
X89188549Y-91424890D01*
X89158137Y-91499216D01*
X89131696Y-91563305D01*
X89110083Y-91615083D01*
X89094157Y-91652479D01*
X89084773Y-91673417D01*
X89082727Y-91677153D01*
X89065923Y-91682983D01*
X89037191Y-91684602D01*
X89004660Y-91682550D01*
X88976462Y-91677363D01*
X88960727Y-91669579D01*
X88960366Y-91669056D01*
X88954735Y-91656320D01*
X88942397Y-91626015D01*
X88924215Y-91580339D01*
X88901053Y-91521489D01*
X88873775Y-91451663D01*
X88843245Y-91373057D01*
X88810326Y-91287871D01*
X88799845Y-91260662D01*
X88648137Y-90866526D01*
X88645365Y-91268084D01*
X88642593Y-91669641D01*
X88615571Y-91679915D01*
X88588504Y-91687392D01*
X88559669Y-91687537D01*
X88529074Y-91682719D01*
X88505262Y-91678133D01*
X88505424Y-91210556D01*
X88505665Y-91112702D01*
X88506292Y-91021128D01*
X88507259Y-90938057D01*
X88508523Y-90865714D01*
X88510038Y-90806320D01*
X88511761Y-90762100D01*
X88513648Y-90735277D01*
X88515033Y-90728056D01*
X88532148Y-90717542D01*
X88563889Y-90710634D01*
X88603949Y-90707794D01*
X88646022Y-90709481D01*
X88682607Y-90715829D01*
X88695927Y-90719404D01*
X88707317Y-90723486D01*
X88717705Y-90729895D01*
X88728016Y-90740453D01*
X88739178Y-90756983D01*
X88752117Y-90781306D01*
X88767760Y-90815243D01*
X88787033Y-90860617D01*
X88810862Y-90919250D01*
X88840175Y-90992962D01*
X88875899Y-91083577D01*
X88897292Y-91137921D01*
X88932678Y-91227539D01*
X88961265Y-91299175D01*
X88983879Y-91354594D01*
X89001343Y-91395563D01*
X89014481Y-91423845D01*
X89024117Y-91441207D01*
X89031076Y-91449412D01*
X89036180Y-91450228D01*
X89040255Y-91445418D01*
X89040564Y-91444838D01*
X89047546Y-91429385D01*
X89061480Y-91396833D01*
X89081322Y-91349679D01*
X89106029Y-91290423D01*
X89134557Y-91221564D01*
X89165863Y-91145600D01*
X89187769Y-91092230D01*
X89223295Y-91006601D01*
X89256339Y-90929022D01*
X89285927Y-90861651D01*
X89311084Y-90806648D01*
X89330838Y-90766172D01*
X89344214Y-90742381D01*
X89347540Y-90738040D01*
X89365677Y-90723133D01*
X89388357Y-90714334D01*
X89422280Y-90709575D01*
X89444421Y-90708124D01*
X89470816Y-90706245D01*
X89492807Y-90704826D01*
X89510796Y-90705609D01*
G36*
X92925358Y-89783547D02*
G01*
X92945088Y-89793052D01*
X92950262Y-89803187D01*
X92946790Y-89816237D01*
X92937044Y-89846356D01*
X92922026Y-89890734D01*
X92902738Y-89946563D01*
X92880183Y-90011034D01*
X92855362Y-90081340D01*
X92829279Y-90154671D01*
X92802935Y-90228218D01*
X92777334Y-90299175D01*
X92753477Y-90364731D01*
X92732366Y-90422079D01*
X92715005Y-90468409D01*
X92702395Y-90500914D01*
X92695645Y-90516590D01*
X92681633Y-90530315D01*
X92655417Y-90536075D01*
X92638305Y-90536605D01*
X92608605Y-90534514D01*
X92588834Y-90529253D01*
X92585477Y-90526573D01*
X92586499Y-90512963D01*
X92594383Y-90484779D01*
X92607654Y-90446899D01*
X92616290Y-90424750D01*
X92634872Y-90375572D01*
X92644340Y-90341979D01*
X92645459Y-90320835D01*
X92643260Y-90314196D01*
X92635985Y-90297632D01*
X92623086Y-90265295D01*
X92605781Y-90220479D01*
X92585290Y-90166480D01*
X92562833Y-90106593D01*
X92539629Y-90044116D01*
X92516898Y-89982342D01*
X92495859Y-89924568D01*
X92477732Y-89874090D01*
X92463737Y-89834202D01*
X92455093Y-89808201D01*
X92452850Y-89799651D01*
X92462121Y-89788647D01*
X92485163Y-89782003D01*
X92514800Y-89781029D01*
X92535881Y-89784491D01*
X92546341Y-89788847D01*
X92556016Y-89797718D01*
X92566250Y-89813873D01*
X92578385Y-89840083D01*
X92593765Y-89879117D01*
X92613734Y-89933745D01*
X92628803Y-89976081D01*
X92650043Y-90035460D01*
X92669394Y-90088422D01*
X92685568Y-90131530D01*
X92697276Y-90161345D01*
X92703076Y-90174207D01*
X92709849Y-90170092D01*
X92722262Y-90145772D01*
X92740241Y-90101422D01*
X92763714Y-90037219D01*
X92779751Y-89991142D01*
X92804409Y-89920417D01*
X92823885Y-89867484D01*
X92839250Y-89829911D01*
X92851573Y-89805268D01*
X92861924Y-89791123D01*
X92870245Y-89785432D01*
X92897889Y-89780448D01*
X92925358Y-89783547D01*
G37*
X92925358Y-89783547D02*
X92945088Y-89793052D01*
X92950262Y-89803187D01*
X92946790Y-89816237D01*
X92937044Y-89846356D01*
X92922026Y-89890734D01*
X92902738Y-89946563D01*
X92880183Y-90011034D01*
X92855362Y-90081340D01*
X92829279Y-90154671D01*
X92802935Y-90228218D01*
X92777334Y-90299175D01*
X92753477Y-90364731D01*
X92732366Y-90422079D01*
X92715005Y-90468409D01*
X92702395Y-90500914D01*
X92695645Y-90516590D01*
X92681633Y-90530315D01*
X92655417Y-90536075D01*
X92638305Y-90536605D01*
X92608605Y-90534514D01*
X92588834Y-90529253D01*
X92585477Y-90526573D01*
X92586499Y-90512963D01*
X92594383Y-90484779D01*
X92607654Y-90446899D01*
X92616290Y-90424750D01*
X92634872Y-90375572D01*
X92644340Y-90341979D01*
X92645459Y-90320835D01*
X92643260Y-90314196D01*
X92635985Y-90297632D01*
X92623086Y-90265295D01*
X92605781Y-90220479D01*
X92585290Y-90166480D01*
X92562833Y-90106593D01*
X92539629Y-90044116D01*
X92516898Y-89982342D01*
X92495859Y-89924568D01*
X92477732Y-89874090D01*
X92463737Y-89834202D01*
X92455093Y-89808201D01*
X92452850Y-89799651D01*
X92462121Y-89788647D01*
X92485163Y-89782003D01*
X92514800Y-89781029D01*
X92535881Y-89784491D01*
X92546341Y-89788847D01*
X92556016Y-89797718D01*
X92566250Y-89813873D01*
X92578385Y-89840083D01*
X92593765Y-89879117D01*
X92613734Y-89933745D01*
X92628803Y-89976081D01*
X92650043Y-90035460D01*
X92669394Y-90088422D01*
X92685568Y-90131530D01*
X92697276Y-90161345D01*
X92703076Y-90174207D01*
X92709849Y-90170092D01*
X92722262Y-90145772D01*
X92740241Y-90101422D01*
X92763714Y-90037219D01*
X92779751Y-89991142D01*
X92804409Y-89920417D01*
X92823885Y-89867484D01*
X92839250Y-89829911D01*
X92851573Y-89805268D01*
X92861924Y-89791123D01*
X92870245Y-89785432D01*
X92897889Y-89780448D01*
X92925358Y-89783547D01*
G36*
X89495357Y-89901698D02*
G01*
X89531514Y-89845171D01*
X89580501Y-89804017D01*
X89621862Y-89785169D01*
X89653473Y-89778966D01*
X89696035Y-89775924D01*
X89732418Y-89776374D01*
X89801483Y-89788281D01*
X89856475Y-89815663D01*
X89897796Y-89858928D01*
X89925848Y-89918488D01*
X89940367Y-89988747D01*
X89943672Y-90020766D01*
X89943255Y-90044413D01*
X89936479Y-90060957D01*
X89920706Y-90071667D01*
X89893299Y-90077811D01*
X89851621Y-90080658D01*
X89793034Y-90081476D01*
X89747507Y-90081522D01*
X89574178Y-90081522D01*
X89574218Y-90115917D01*
X89583107Y-90158361D01*
X89606310Y-90200401D01*
X89638763Y-90233113D01*
X89641917Y-90235263D01*
X89674041Y-90247029D01*
X89719386Y-90251860D01*
X89771177Y-90249772D01*
X89822644Y-90240781D01*
X89843014Y-90234787D01*
X89875202Y-90225874D01*
X89900564Y-90222395D01*
X89908538Y-90223310D01*
X89919385Y-90237209D01*
X89923054Y-90261448D01*
X89919337Y-90286385D01*
X89910199Y-90300940D01*
X89880236Y-90315924D01*
X89835556Y-90328269D01*
X89782536Y-90337105D01*
X89727552Y-90341559D01*
X89676980Y-90340760D01*
X89648262Y-90336748D01*
X89583159Y-90313976D01*
X89532612Y-90276741D01*
X89496299Y-90224547D01*
X89473895Y-90156897D01*
X89465078Y-90073294D01*
X89464914Y-90055063D01*
X89471569Y-89985746D01*
X89574178Y-89985746D01*
X89575270Y-89994711D01*
X89580834Y-90000793D01*
X89594297Y-90004549D01*
X89619090Y-90006537D01*
X89658642Y-90007314D01*
X89707617Y-90007438D01*
X89841056Y-90007438D01*
X89834253Y-89978334D01*
X89816242Y-89923456D01*
X89790805Y-89886865D01*
X89755398Y-89866251D01*
X89707480Y-89859306D01*
X89703131Y-89859272D01*
X89659383Y-89868822D01*
X89620103Y-89894173D01*
X89590340Y-89930371D01*
X89575142Y-89972464D01*
X89574178Y-89985746D01*
X89471569Y-89985746D01*
X89472876Y-89972145D01*
X89495357Y-89901698D01*
G37*
X89495357Y-89901698D02*
X89531514Y-89845171D01*
X89580501Y-89804017D01*
X89621862Y-89785169D01*
X89653473Y-89778966D01*
X89696035Y-89775924D01*
X89732418Y-89776374D01*
X89801483Y-89788281D01*
X89856475Y-89815663D01*
X89897796Y-89858928D01*
X89925848Y-89918488D01*
X89940367Y-89988747D01*
X89943672Y-90020766D01*
X89943255Y-90044413D01*
X89936479Y-90060957D01*
X89920706Y-90071667D01*
X89893299Y-90077811D01*
X89851621Y-90080658D01*
X89793034Y-90081476D01*
X89747507Y-90081522D01*
X89574178Y-90081522D01*
X89574218Y-90115917D01*
X89583107Y-90158361D01*
X89606310Y-90200401D01*
X89638763Y-90233113D01*
X89641917Y-90235263D01*
X89674041Y-90247029D01*
X89719386Y-90251860D01*
X89771177Y-90249772D01*
X89822644Y-90240781D01*
X89843014Y-90234787D01*
X89875202Y-90225874D01*
X89900564Y-90222395D01*
X89908538Y-90223310D01*
X89919385Y-90237209D01*
X89923054Y-90261448D01*
X89919337Y-90286385D01*
X89910199Y-90300940D01*
X89880236Y-90315924D01*
X89835556Y-90328269D01*
X89782536Y-90337105D01*
X89727552Y-90341559D01*
X89676980Y-90340760D01*
X89648262Y-90336748D01*
X89583159Y-90313976D01*
X89532612Y-90276741D01*
X89496299Y-90224547D01*
X89473895Y-90156897D01*
X89465078Y-90073294D01*
X89464914Y-90055063D01*
X89471569Y-89985746D01*
X89574178Y-89985746D01*
X89575270Y-89994711D01*
X89580834Y-90000793D01*
X89594297Y-90004549D01*
X89619090Y-90006537D01*
X89658642Y-90007314D01*
X89707617Y-90007438D01*
X89841056Y-90007438D01*
X89834253Y-89978334D01*
X89816242Y-89923456D01*
X89790805Y-89886865D01*
X89755398Y-89866251D01*
X89707480Y-89859306D01*
X89703131Y-89859272D01*
X89659383Y-89868822D01*
X89620103Y-89894173D01*
X89590340Y-89930371D01*
X89575142Y-89972464D01*
X89574178Y-89985746D01*
X89471569Y-89985746D01*
X89472876Y-89972145D01*
X89495357Y-89901698D01*
G36*
X89032406Y-89782750D02*
G01*
X89042284Y-89787613D01*
X89051184Y-89796918D01*
X89060259Y-89813489D01*
X89070661Y-89840152D01*
X89083543Y-89879729D01*
X89100056Y-89935046D01*
X89113499Y-89981535D01*
X89131052Y-90042467D01*
X89146834Y-90096949D01*
X89159827Y-90141486D01*
X89169011Y-90172580D01*
X89173324Y-90186619D01*
X89177863Y-90182625D01*
X89186768Y-90161357D01*
X89198904Y-90125980D01*
X89213134Y-90079658D01*
X89218918Y-90059619D01*
X89242032Y-89978352D01*
X89260286Y-89915124D01*
X89274583Y-89867609D01*
X89285827Y-89833478D01*
X89294922Y-89810404D01*
X89302772Y-89796061D01*
X89310280Y-89788120D01*
X89318351Y-89784254D01*
X89326570Y-89782388D01*
X89363884Y-89780528D01*
X89387116Y-89791010D01*
X89394138Y-89810235D01*
X89391054Y-89826339D01*
X89382455Y-89859563D01*
X89369211Y-89906848D01*
X89352196Y-89965132D01*
X89332280Y-90031356D01*
X89316855Y-90081522D01*
X89239696Y-90330230D01*
X89180040Y-90333385D01*
X89144135Y-90333994D01*
X89123522Y-90330154D01*
X89112564Y-90320571D01*
X89110862Y-90317510D01*
X89104763Y-90301103D01*
X89094177Y-90268305D01*
X89080334Y-90223106D01*
X89064469Y-90169493D01*
X89055122Y-90137146D01*
X89039094Y-90083101D01*
X89024594Y-90037747D01*
X89012736Y-90004300D01*
X89004637Y-89985979D01*
X89001931Y-89983688D01*
X88996893Y-89996260D01*
X88987778Y-90025473D01*
X88975722Y-90067454D01*
X88961858Y-90118328D01*
X88956210Y-90139730D01*
X88938514Y-90207474D01*
X88924893Y-90257502D01*
X88913751Y-90292491D01*
X88903494Y-90315116D01*
X88892524Y-90328056D01*
X88879246Y-90333985D01*
X88862065Y-90335581D01*
X88839488Y-90335522D01*
X88806721Y-90334186D01*
X88783753Y-90330747D01*
X88777120Y-90327584D01*
X88771498Y-90313037D01*
X88761115Y-90281788D01*
X88747002Y-90237277D01*
X88730186Y-90182944D01*
X88711698Y-90122230D01*
X88692567Y-90058574D01*
X88673821Y-89995418D01*
X88656491Y-89936200D01*
X88641606Y-89884363D01*
X88630194Y-89843346D01*
X88623286Y-89816589D01*
X88621678Y-89808037D01*
X88630855Y-89789343D01*
X88655481Y-89779687D01*
X88691205Y-89780637D01*
X88695563Y-89781444D01*
X88705598Y-89784409D01*
X88714199Y-89790670D01*
X88722502Y-89802953D01*
X88731644Y-89823985D01*
X88742761Y-89856492D01*
X88756990Y-89903201D01*
X88775465Y-89966838D01*
X88781302Y-89987181D01*
X88799154Y-90048527D01*
X88815310Y-90102270D01*
X88828802Y-90145328D01*
X88838661Y-90174622D01*
X88843918Y-90187072D01*
X88844246Y-90187296D01*
X88848571Y-90177593D01*
X88857300Y-90150530D01*
X88869512Y-90109232D01*
X88884283Y-90056826D01*
X88900694Y-89996436D01*
X88902318Y-89990347D01*
X88920912Y-89921360D01*
X88935433Y-89870120D01*
X88946934Y-89833834D01*
X88956469Y-89809713D01*
X88965091Y-89794967D01*
X88973852Y-89786803D01*
X88980332Y-89783625D01*
X89011553Y-89779339D01*
X89032406Y-89782750D01*
G37*
X89032406Y-89782750D02*
X89042284Y-89787613D01*
X89051184Y-89796918D01*
X89060259Y-89813489D01*
X89070661Y-89840152D01*
X89083543Y-89879729D01*
X89100056Y-89935046D01*
X89113499Y-89981535D01*
X89131052Y-90042467D01*
X89146834Y-90096949D01*
X89159827Y-90141486D01*
X89169011Y-90172580D01*
X89173324Y-90186619D01*
X89177863Y-90182625D01*
X89186768Y-90161357D01*
X89198904Y-90125980D01*
X89213134Y-90079658D01*
X89218918Y-90059619D01*
X89242032Y-89978352D01*
X89260286Y-89915124D01*
X89274583Y-89867609D01*
X89285827Y-89833478D01*
X89294922Y-89810404D01*
X89302772Y-89796061D01*
X89310280Y-89788120D01*
X89318351Y-89784254D01*
X89326570Y-89782388D01*
X89363884Y-89780528D01*
X89387116Y-89791010D01*
X89394138Y-89810235D01*
X89391054Y-89826339D01*
X89382455Y-89859563D01*
X89369211Y-89906848D01*
X89352196Y-89965132D01*
X89332280Y-90031356D01*
X89316855Y-90081522D01*
X89239696Y-90330230D01*
X89180040Y-90333385D01*
X89144135Y-90333994D01*
X89123522Y-90330154D01*
X89112564Y-90320571D01*
X89110862Y-90317510D01*
X89104763Y-90301103D01*
X89094177Y-90268305D01*
X89080334Y-90223106D01*
X89064469Y-90169493D01*
X89055122Y-90137146D01*
X89039094Y-90083101D01*
X89024594Y-90037747D01*
X89012736Y-90004300D01*
X89004637Y-89985979D01*
X89001931Y-89983688D01*
X88996893Y-89996260D01*
X88987778Y-90025473D01*
X88975722Y-90067454D01*
X88961858Y-90118328D01*
X88956210Y-90139730D01*
X88938514Y-90207474D01*
X88924893Y-90257502D01*
X88913751Y-90292491D01*
X88903494Y-90315116D01*
X88892524Y-90328056D01*
X88879246Y-90333985D01*
X88862065Y-90335581D01*
X88839488Y-90335522D01*
X88806721Y-90334186D01*
X88783753Y-90330747D01*
X88777120Y-90327584D01*
X88771498Y-90313037D01*
X88761115Y-90281788D01*
X88747002Y-90237277D01*
X88730186Y-90182944D01*
X88711698Y-90122230D01*
X88692567Y-90058574D01*
X88673821Y-89995418D01*
X88656491Y-89936200D01*
X88641606Y-89884363D01*
X88630194Y-89843346D01*
X88623286Y-89816589D01*
X88621678Y-89808037D01*
X88630855Y-89789343D01*
X88655481Y-89779687D01*
X88691205Y-89780637D01*
X88695563Y-89781444D01*
X88705598Y-89784409D01*
X88714199Y-89790670D01*
X88722502Y-89802953D01*
X88731644Y-89823985D01*
X88742761Y-89856492D01*
X88756990Y-89903201D01*
X88775465Y-89966838D01*
X88781302Y-89987181D01*
X88799154Y-90048527D01*
X88815310Y-90102270D01*
X88828802Y-90145328D01*
X88838661Y-90174622D01*
X88843918Y-90187072D01*
X88844246Y-90187296D01*
X88848571Y-90177593D01*
X88857300Y-90150530D01*
X88869512Y-90109232D01*
X88884283Y-90056826D01*
X88900694Y-89996436D01*
X88902318Y-89990347D01*
X88920912Y-89921360D01*
X88935433Y-89870120D01*
X88946934Y-89833834D01*
X88956469Y-89809713D01*
X88965091Y-89794967D01*
X88973852Y-89786803D01*
X88980332Y-89783625D01*
X89011553Y-89779339D01*
X89032406Y-89782750D01*
G36*
X87455532Y-90989898D02*
G01*
X87491587Y-90902519D01*
X87541150Y-90829466D01*
X87603636Y-90771806D01*
X87678458Y-90730610D01*
X87687275Y-90727183D01*
X87761965Y-90707362D01*
X87846170Y-90698323D01*
X87930902Y-90700572D01*
X87990281Y-90710178D01*
X88075621Y-90739435D01*
X88146563Y-90783713D01*
X88203283Y-90843262D01*
X88245955Y-90918328D01*
X88274751Y-91009159D01*
X88289848Y-91116003D01*
X88291203Y-91138588D01*
X88289872Y-91255689D01*
X88274471Y-91362148D01*
X88245472Y-91455903D01*
X88203345Y-91534890D01*
X88199445Y-91540477D01*
X88178666Y-91569657D01*
X88244068Y-91612839D01*
X88284795Y-91638820D01*
X88326446Y-91663945D01*
X88357095Y-91681191D01*
X88385327Y-91697388D01*
X88399845Y-91712465D01*
X88405845Y-91734531D01*
X88407873Y-91760448D01*
X88407783Y-91796986D01*
X88399755Y-91816254D01*
X88380207Y-91820915D01*
X88345558Y-91813634D01*
X88338955Y-91811711D01*
X88275203Y-91785793D01*
X88202734Y-91743808D01*
X88132724Y-91693865D01*
X88072396Y-91647276D01*
X88006460Y-91669488D01*
X87948074Y-91683235D01*
X87878461Y-91690692D01*
X87806378Y-91691573D01*
X87740581Y-91685587D01*
X87710218Y-91679256D01*
X87628307Y-91647404D01*
X87560329Y-91599692D01*
X87506265Y-91536092D01*
X87466097Y-91456575D01*
X87439808Y-91361110D01*
X87427381Y-91249668D01*
X87426290Y-91203355D01*
X87427935Y-91177852D01*
X87574646Y-91177852D01*
X87576911Y-91252866D01*
X87584789Y-91324716D01*
X87597948Y-91386168D01*
X87604817Y-91406741D01*
X87634073Y-91460990D01*
X87675408Y-91508834D01*
X87723492Y-91545025D01*
X87762187Y-91561767D01*
X87806875Y-91568844D01*
X87860981Y-91569547D01*
X87915795Y-91564439D01*
X87962604Y-91554083D01*
X87978969Y-91547751D01*
X88038520Y-91509085D01*
X88084622Y-91455700D01*
X88117493Y-91387063D01*
X88137354Y-91302642D01*
X88144423Y-91201905D01*
X88143343Y-91147750D01*
X88133034Y-91053035D01*
X88111017Y-90975281D01*
X88076745Y-90913464D01*
X88029672Y-90866562D01*
X87977463Y-90836914D01*
X87940554Y-90827035D01*
X87891706Y-90821578D01*
X87839236Y-90820714D01*
X87791460Y-90824615D01*
X87759183Y-90832407D01*
X87696176Y-90868470D01*
X87645183Y-90921555D01*
X87606883Y-90990806D01*
X87588287Y-91047279D01*
X87578327Y-91106911D01*
X87574646Y-91177852D01*
X87427935Y-91177852D01*
X87433571Y-91090533D01*
X87455532Y-90989898D01*
G37*
X87455532Y-90989898D02*
X87491587Y-90902519D01*
X87541150Y-90829466D01*
X87603636Y-90771806D01*
X87678458Y-90730610D01*
X87687275Y-90727183D01*
X87761965Y-90707362D01*
X87846170Y-90698323D01*
X87930902Y-90700572D01*
X87990281Y-90710178D01*
X88075621Y-90739435D01*
X88146563Y-90783713D01*
X88203283Y-90843262D01*
X88245955Y-90918328D01*
X88274751Y-91009159D01*
X88289848Y-91116003D01*
X88291203Y-91138588D01*
X88289872Y-91255689D01*
X88274471Y-91362148D01*
X88245472Y-91455903D01*
X88203345Y-91534890D01*
X88199445Y-91540477D01*
X88178666Y-91569657D01*
X88244068Y-91612839D01*
X88284795Y-91638820D01*
X88326446Y-91663945D01*
X88357095Y-91681191D01*
X88385327Y-91697388D01*
X88399845Y-91712465D01*
X88405845Y-91734531D01*
X88407873Y-91760448D01*
X88407783Y-91796986D01*
X88399755Y-91816254D01*
X88380207Y-91820915D01*
X88345558Y-91813634D01*
X88338955Y-91811711D01*
X88275203Y-91785793D01*
X88202734Y-91743808D01*
X88132724Y-91693865D01*
X88072396Y-91647276D01*
X88006460Y-91669488D01*
X87948074Y-91683235D01*
X87878461Y-91690692D01*
X87806378Y-91691573D01*
X87740581Y-91685587D01*
X87710218Y-91679256D01*
X87628307Y-91647404D01*
X87560329Y-91599692D01*
X87506265Y-91536092D01*
X87466097Y-91456575D01*
X87439808Y-91361110D01*
X87427381Y-91249668D01*
X87426290Y-91203355D01*
X87427935Y-91177852D01*
X87574646Y-91177852D01*
X87576911Y-91252866D01*
X87584789Y-91324716D01*
X87597948Y-91386168D01*
X87604817Y-91406741D01*
X87634073Y-91460990D01*
X87675408Y-91508834D01*
X87723492Y-91545025D01*
X87762187Y-91561767D01*
X87806875Y-91568844D01*
X87860981Y-91569547D01*
X87915795Y-91564439D01*
X87962604Y-91554083D01*
X87978969Y-91547751D01*
X88038520Y-91509085D01*
X88084622Y-91455700D01*
X88117493Y-91387063D01*
X88137354Y-91302642D01*
X88144423Y-91201905D01*
X88143343Y-91147750D01*
X88133034Y-91053035D01*
X88111017Y-90975281D01*
X88076745Y-90913464D01*
X88029672Y-90866562D01*
X87977463Y-90836914D01*
X87940554Y-90827035D01*
X87891706Y-90821578D01*
X87839236Y-90820714D01*
X87791460Y-90824615D01*
X87759183Y-90832407D01*
X87696176Y-90868470D01*
X87645183Y-90921555D01*
X87606883Y-90990806D01*
X87588287Y-91047279D01*
X87578327Y-91106911D01*
X87574646Y-91177852D01*
X87427935Y-91177852D01*
X87433571Y-91090533D01*
X87455532Y-90989898D01*
G36*
X91735288Y-90692203D02*
G01*
X91762306Y-90713946D01*
X91773177Y-90749173D01*
X91772151Y-90772941D01*
X91764117Y-90803807D01*
X91751399Y-90826516D01*
X91747732Y-90829921D01*
X91719681Y-90840511D01*
X91682999Y-90842873D01*
X91648553Y-90837019D01*
X91633777Y-90829789D01*
X91620864Y-90812061D01*
X91615407Y-90780638D01*
X91614998Y-90764147D01*
X91619492Y-90722892D01*
X91635039Y-90698096D01*
X91664734Y-90686603D01*
X91692868Y-90684772D01*
X91735288Y-90692203D01*
G37*
X91735288Y-90692203D02*
X91762306Y-90713946D01*
X91773177Y-90749173D01*
X91772151Y-90772941D01*
X91764117Y-90803807D01*
X91751399Y-90826516D01*
X91747732Y-90829921D01*
X91719681Y-90840511D01*
X91682999Y-90842873D01*
X91648553Y-90837019D01*
X91633777Y-90829789D01*
X91620864Y-90812061D01*
X91615407Y-90780638D01*
X91614998Y-90764147D01*
X91619492Y-90722892D01*
X91635039Y-90698096D01*
X91664734Y-90686603D01*
X91692868Y-90684772D01*
X91735288Y-90692203D01*
G36*
X84544449Y-90185056D02*
G01*
X84425387Y-90182063D01*
X84422107Y-90124176D01*
X84421715Y-90089795D01*
X84427232Y-90066142D01*
X84441826Y-90051238D01*
X84468669Y-90043101D01*
X84510928Y-90039751D01*
X84558150Y-90039188D01*
X84660410Y-90039188D01*
X84672921Y-89962459D01*
X84695214Y-89882057D01*
X84733216Y-89815726D01*
X84786277Y-89764102D01*
X84853751Y-89727821D01*
X84932315Y-89707896D01*
X85012107Y-89696401D01*
X85018053Y-89462397D01*
X85145053Y-89462397D01*
X85148046Y-89581459D01*
X85151038Y-89700521D01*
X85219483Y-89700521D01*
X85287928Y-89700522D01*
X85288090Y-89592042D01*
X85288975Y-89545135D01*
X85291232Y-89505503D01*
X85294479Y-89478353D01*
X85297009Y-89469756D01*
X85312843Y-89461192D01*
X85346732Y-89458520D01*
X85368285Y-89459173D01*
X85430803Y-89462397D01*
X85433796Y-89581459D01*
X85436788Y-89700521D01*
X85505233Y-89700521D01*
X85573678Y-89700522D01*
X85573840Y-89592042D01*
X85574725Y-89545135D01*
X85576982Y-89505503D01*
X85580229Y-89478353D01*
X85582759Y-89469756D01*
X85598593Y-89461192D01*
X85632482Y-89458520D01*
X85654035Y-89459173D01*
X85716553Y-89462397D01*
X85719546Y-89581459D01*
X85722538Y-89700522D01*
X85858735Y-89700522D01*
X85861727Y-89581459D01*
X85864720Y-89462397D01*
X85927238Y-89459173D01*
X85969778Y-89459277D01*
X85993525Y-89465162D01*
X85998514Y-89469756D01*
X86002211Y-89485682D01*
X86005171Y-89517565D01*
X86007013Y-89560197D01*
X86007433Y-89592042D01*
X86007595Y-89700522D01*
X86144485Y-89700522D01*
X86147477Y-89581459D01*
X86150470Y-89462397D01*
X86212988Y-89459173D01*
X86255528Y-89459277D01*
X86279275Y-89465162D01*
X86284264Y-89469756D01*
X86287981Y-89485712D01*
X86290950Y-89517586D01*
X86292783Y-89560131D01*
X86293183Y-89590823D01*
X86293345Y-89698083D01*
X86354199Y-89705494D01*
X86436638Y-89724716D01*
X86505815Y-89760124D01*
X86560767Y-89810758D01*
X86600533Y-89875658D01*
X86624149Y-89953866D01*
X86627766Y-89978270D01*
X86634714Y-90037387D01*
X86748925Y-90040934D01*
X86796132Y-90042998D01*
X86835220Y-90045833D01*
X86861515Y-90049029D01*
X86870172Y-90051543D01*
X86878251Y-90070285D01*
X86882611Y-90100758D01*
X86882757Y-90133775D01*
X86878196Y-90160149D01*
X86876245Y-90164663D01*
X86869400Y-90174651D01*
X86858935Y-90181189D01*
X86840761Y-90185000D01*
X86810790Y-90186808D01*
X86764931Y-90187337D01*
X86748056Y-90187355D01*
X86632012Y-90187355D01*
X86632012Y-90324938D01*
X86742381Y-90324938D01*
X86800493Y-90326069D01*
X86840683Y-90330495D01*
X86866124Y-90339769D01*
X86879986Y-90355441D01*
X86885443Y-90379064D01*
X86886012Y-90395182D01*
X86884745Y-90426967D01*
X86878707Y-90448702D01*
X86864538Y-90462286D01*
X86838877Y-90469615D01*
X86798366Y-90472587D01*
X86748056Y-90473105D01*
X86632012Y-90473105D01*
X86632012Y-90610688D01*
X86748056Y-90610688D01*
X86804366Y-90611429D01*
X86842879Y-90614851D01*
X86866947Y-90622755D01*
X86879920Y-90636940D01*
X86885150Y-90659205D01*
X86886011Y-90684772D01*
X86884632Y-90715011D01*
X86878259Y-90735693D01*
X86863541Y-90748617D01*
X86837127Y-90755584D01*
X86795665Y-90758392D01*
X86748056Y-90758855D01*
X86632012Y-90758855D01*
X86632012Y-90896438D01*
X86748056Y-90896438D01*
X86804329Y-90897153D01*
X86842809Y-90900564D01*
X86866858Y-90908568D01*
X86879833Y-90923062D01*
X86885094Y-90945944D01*
X86886012Y-90974361D01*
X86883699Y-91002782D01*
X86874648Y-91022437D01*
X86855686Y-91034879D01*
X86823640Y-91041658D01*
X86775338Y-91044327D01*
X86742381Y-91044605D01*
X86632012Y-91044605D01*
X86632012Y-91182188D01*
X86748056Y-91182188D01*
X86799293Y-91182481D01*
X86833456Y-91183843D01*
X86854634Y-91186998D01*
X86866915Y-91192670D01*
X86874390Y-91201582D01*
X86876245Y-91204880D01*
X86882922Y-91230712D01*
X86882922Y-91263849D01*
X86877219Y-91295728D01*
X86866790Y-91317786D01*
X86863001Y-91321135D01*
X86846939Y-91324916D01*
X86814980Y-91327933D01*
X86772392Y-91329792D01*
X86741948Y-91330193D01*
X86634926Y-91330355D01*
X86627872Y-91390372D01*
X86608904Y-91472455D01*
X86573450Y-91541653D01*
X86522603Y-91596874D01*
X86457454Y-91637027D01*
X86379095Y-91661020D01*
X86353362Y-91664882D01*
X86293345Y-91671936D01*
X86293183Y-91778958D01*
X86292273Y-91825588D01*
X86289952Y-91864965D01*
X86286615Y-91891821D01*
X86284125Y-91900011D01*
X86266540Y-91911635D01*
X86236639Y-91918816D01*
X86202984Y-91920578D01*
X86174140Y-91915947D01*
X86167870Y-91913255D01*
X86157882Y-91906410D01*
X86151344Y-91895945D01*
X86147533Y-91877771D01*
X86145725Y-91847800D01*
X86145196Y-91801941D01*
X86145178Y-91785066D01*
X86145178Y-91669022D01*
X86007595Y-91669022D01*
X86007433Y-91777501D01*
X86006560Y-91824380D01*
X86004336Y-91863956D01*
X86001135Y-91891033D01*
X85998639Y-91899584D01*
X85980213Y-91912099D01*
X85949494Y-91919041D01*
X85914870Y-91919347D01*
X85888532Y-91913556D01*
X85859428Y-91902379D01*
X85859428Y-91669022D01*
X85721845Y-91669022D01*
X85721845Y-91902379D01*
X85692741Y-91913556D01*
X85661419Y-91919758D01*
X85626842Y-91918415D01*
X85597398Y-91910591D01*
X85582634Y-91899584D01*
X85578990Y-91883748D01*
X85576072Y-91851944D01*
X85574255Y-91809367D01*
X85573840Y-91777501D01*
X85573678Y-91669022D01*
X85436095Y-91669022D01*
X85436095Y-91785066D01*
X85435802Y-91836303D01*
X85434440Y-91870466D01*
X85431285Y-91891644D01*
X85425613Y-91903925D01*
X85416701Y-91911400D01*
X85413403Y-91913255D01*
X85387571Y-91919932D01*
X85354434Y-91919932D01*
X85322555Y-91914229D01*
X85300497Y-91903800D01*
X85297148Y-91900011D01*
X85293391Y-91883985D01*
X85290385Y-91852015D01*
X85288515Y-91809323D01*
X85288090Y-91777501D01*
X85287928Y-91669022D01*
X85150345Y-91669022D01*
X85150345Y-91785066D01*
X85149987Y-91836650D01*
X85148481Y-91871087D01*
X85145181Y-91892393D01*
X85139439Y-91904581D01*
X85130609Y-91911666D01*
X85129874Y-91912066D01*
X85095927Y-91921480D01*
X85057434Y-91920356D01*
X85031282Y-91911590D01*
X85022916Y-91903895D01*
X85017472Y-91889845D01*
X85014361Y-91865477D01*
X85012996Y-91826829D01*
X85012762Y-91787020D01*
X85012762Y-91673237D01*
X84932642Y-91661694D01*
X84851701Y-91640906D01*
X84784596Y-91604203D01*
X84731952Y-91552198D01*
X84694393Y-91485503D01*
X84672921Y-91407084D01*
X84660410Y-91330355D01*
X84558150Y-91330355D01*
X84501221Y-91329416D01*
X84462253Y-91325279D01*
X84438078Y-91315964D01*
X84425525Y-91299490D01*
X84421425Y-91273878D01*
X84422107Y-91245367D01*
X84425387Y-91187480D01*
X84544449Y-91184487D01*
X84663512Y-91181495D01*
X84663512Y-91044605D01*
X84555032Y-91044443D01*
X84508125Y-91043558D01*
X84468493Y-91041301D01*
X84441343Y-91038054D01*
X84432746Y-91035524D01*
X84424182Y-91019690D01*
X84421510Y-90985801D01*
X84422163Y-90964248D01*
X84425387Y-90901730D01*
X84544449Y-90898737D01*
X84663512Y-90895745D01*
X84663512Y-90759548D01*
X84544449Y-90756556D01*
X84425387Y-90753563D01*
X84422163Y-90691045D01*
X84422267Y-90648505D01*
X84428152Y-90624758D01*
X84432746Y-90619769D01*
X84448672Y-90616072D01*
X84480555Y-90613112D01*
X84523187Y-90611270D01*
X84555032Y-90610850D01*
X84663512Y-90610688D01*
X84663512Y-90473798D01*
X84544449Y-90470806D01*
X84425387Y-90467813D01*
X84422163Y-90405295D01*
X84422267Y-90362755D01*
X84428152Y-90339008D01*
X84432746Y-90334019D01*
X84448672Y-90330322D01*
X84480555Y-90327362D01*
X84523187Y-90325520D01*
X84555032Y-90325100D01*
X84663512Y-90324938D01*
X84663512Y-90268146D01*
X85097942Y-90268146D01*
X85098665Y-90342252D01*
X85099603Y-90415990D01*
X85100772Y-90503346D01*
X85101997Y-90572382D01*
X85103505Y-90625941D01*
X85105526Y-90666869D01*
X85108288Y-90698012D01*
X85112022Y-90722214D01*
X85116956Y-90742320D01*
X85123318Y-90761175D01*
X85128470Y-90774462D01*
X85165108Y-90841689D01*
X85217216Y-90903648D01*
X85279112Y-90954282D01*
X85317690Y-90976279D01*
X85357490Y-90991737D01*
X85409035Y-91006870D01*
X85463034Y-91019032D01*
X85475782Y-91021290D01*
X85573678Y-91037522D01*
X85573678Y-91151306D01*
X85574569Y-91207713D01*
X85577393Y-91245057D01*
X85582377Y-91265376D01*
X85586907Y-91270429D01*
X85609569Y-91274727D01*
X85643156Y-91276421D01*
X85677581Y-91275461D01*
X85702757Y-91271797D01*
X85705104Y-91271014D01*
X85712714Y-91264659D01*
X85717678Y-91250144D01*
X85720504Y-91223820D01*
X85721699Y-91182036D01*
X85721845Y-91150592D01*
X85721845Y-91036595D01*
X85800329Y-91024922D01*
X85904398Y-91000936D01*
X85993477Y-90962228D01*
X86067399Y-90908920D01*
X86125994Y-90841130D01*
X86168157Y-90761336D01*
X86175434Y-90742180D01*
X86181152Y-90723302D01*
X86185536Y-90701838D01*
X86188814Y-90674926D01*
X86191213Y-90639701D01*
X86192959Y-90593302D01*
X86194280Y-90532865D01*
X86195401Y-90455526D01*
X86195947Y-90410621D01*
X86196991Y-90321954D01*
X86197484Y-90252189D01*
X86196963Y-90199061D01*
X86194963Y-90160305D01*
X86191020Y-90133658D01*
X86184668Y-90116853D01*
X86175443Y-90107627D01*
X86162881Y-90103715D01*
X86146518Y-90102852D01*
X86132815Y-90102850D01*
X86109415Y-90102722D01*
X86091690Y-90104275D01*
X86078850Y-90110081D01*
X86070108Y-90122713D01*
X86064673Y-90144744D01*
X86061756Y-90178747D01*
X86060570Y-90227294D01*
X86060324Y-90292958D01*
X86060302Y-90339300D01*
X86059528Y-90441063D01*
X86057202Y-90524416D01*
X86053004Y-90592080D01*
X86046615Y-90646775D01*
X86037714Y-90691223D01*
X86025983Y-90728144D01*
X86011100Y-90760259D01*
X86010739Y-90760924D01*
X85969822Y-90815317D01*
X85914139Y-90859616D01*
X85848857Y-90890847D01*
X85779145Y-90906035D01*
X85756966Y-90907022D01*
X85721845Y-90907022D01*
X85721845Y-90511279D01*
X85721904Y-90407380D01*
X85721858Y-90322692D01*
X85721370Y-90255261D01*
X85720103Y-90203132D01*
X85717721Y-90164352D01*
X85713888Y-90136967D01*
X85708267Y-90119021D01*
X85700521Y-90108561D01*
X85690315Y-90103633D01*
X85677311Y-90102282D01*
X85661173Y-90102554D01*
X85651492Y-90102688D01*
X85619951Y-90105809D01*
X85594716Y-90113348D01*
X85594149Y-90113644D01*
X85588846Y-90117265D01*
X85584547Y-90123254D01*
X85581146Y-90133676D01*
X85578539Y-90150595D01*
X85576621Y-90176075D01*
X85575286Y-90212181D01*
X85574429Y-90260978D01*
X85573946Y-90324531D01*
X85573731Y-90404903D01*
X85573678Y-90504159D01*
X85573678Y-90907022D01*
X85540911Y-90907022D01*
X85471887Y-90897681D01*
X85404175Y-90871778D01*
X85344191Y-90832490D01*
X85302594Y-90788967D01*
X85286079Y-90764329D01*
X85273038Y-90738394D01*
X85263075Y-90708371D01*
X85255795Y-90671472D01*
X85250803Y-90624908D01*
X85247703Y-90565890D01*
X85246101Y-90491629D01*
X85245600Y-90399336D01*
X85245595Y-90386890D01*
X85245587Y-90302001D01*
X85245116Y-90235928D01*
X85243508Y-90186319D01*
X85240091Y-90150824D01*
X85234191Y-90127093D01*
X85225135Y-90112775D01*
X85212250Y-90105520D01*
X85194864Y-90102977D01*
X85172304Y-90102795D01*
X85164270Y-90102850D01*
X85144643Y-90102891D01*
X85129181Y-90104336D01*
X85117422Y-90109428D01*
X85108902Y-90120411D01*
X85103158Y-90139531D01*
X85099725Y-90169030D01*
X85098141Y-90211154D01*
X85097942Y-90268146D01*
X84663512Y-90268146D01*
X84663512Y-90188048D01*
X84544449Y-90185056D01*
G37*
X84544449Y-90185056D02*
X84425387Y-90182063D01*
X84422107Y-90124176D01*
X84421715Y-90089795D01*
X84427232Y-90066142D01*
X84441826Y-90051238D01*
X84468669Y-90043101D01*
X84510928Y-90039751D01*
X84558150Y-90039188D01*
X84660410Y-90039188D01*
X84672921Y-89962459D01*
X84695214Y-89882057D01*
X84733216Y-89815726D01*
X84786277Y-89764102D01*
X84853751Y-89727821D01*
X84932315Y-89707896D01*
X85012107Y-89696401D01*
X85018053Y-89462397D01*
X85145053Y-89462397D01*
X85148046Y-89581459D01*
X85151038Y-89700521D01*
X85219483Y-89700521D01*
X85287928Y-89700522D01*
X85288090Y-89592042D01*
X85288975Y-89545135D01*
X85291232Y-89505503D01*
X85294479Y-89478353D01*
X85297009Y-89469756D01*
X85312843Y-89461192D01*
X85346732Y-89458520D01*
X85368285Y-89459173D01*
X85430803Y-89462397D01*
X85433796Y-89581459D01*
X85436788Y-89700521D01*
X85505233Y-89700521D01*
X85573678Y-89700522D01*
X85573840Y-89592042D01*
X85574725Y-89545135D01*
X85576982Y-89505503D01*
X85580229Y-89478353D01*
X85582759Y-89469756D01*
X85598593Y-89461192D01*
X85632482Y-89458520D01*
X85654035Y-89459173D01*
X85716553Y-89462397D01*
X85719546Y-89581459D01*
X85722538Y-89700522D01*
X85858735Y-89700522D01*
X85861727Y-89581459D01*
X85864720Y-89462397D01*
X85927238Y-89459173D01*
X85969778Y-89459277D01*
X85993525Y-89465162D01*
X85998514Y-89469756D01*
X86002211Y-89485682D01*
X86005171Y-89517565D01*
X86007013Y-89560197D01*
X86007433Y-89592042D01*
X86007595Y-89700522D01*
X86144485Y-89700522D01*
X86147477Y-89581459D01*
X86150470Y-89462397D01*
X86212988Y-89459173D01*
X86255528Y-89459277D01*
X86279275Y-89465162D01*
X86284264Y-89469756D01*
X86287981Y-89485712D01*
X86290950Y-89517586D01*
X86292783Y-89560131D01*
X86293183Y-89590823D01*
X86293345Y-89698083D01*
X86354199Y-89705494D01*
X86436638Y-89724716D01*
X86505815Y-89760124D01*
X86560767Y-89810758D01*
X86600533Y-89875658D01*
X86624149Y-89953866D01*
X86627766Y-89978270D01*
X86634714Y-90037387D01*
X86748925Y-90040934D01*
X86796132Y-90042998D01*
X86835220Y-90045833D01*
X86861515Y-90049029D01*
X86870172Y-90051543D01*
X86878251Y-90070285D01*
X86882611Y-90100758D01*
X86882757Y-90133775D01*
X86878196Y-90160149D01*
X86876245Y-90164663D01*
X86869400Y-90174651D01*
X86858935Y-90181189D01*
X86840761Y-90185000D01*
X86810790Y-90186808D01*
X86764931Y-90187337D01*
X86748056Y-90187355D01*
X86632012Y-90187355D01*
X86632012Y-90324938D01*
X86742381Y-90324938D01*
X86800493Y-90326069D01*
X86840683Y-90330495D01*
X86866124Y-90339769D01*
X86879986Y-90355441D01*
X86885443Y-90379064D01*
X86886012Y-90395182D01*
X86884745Y-90426967D01*
X86878707Y-90448702D01*
X86864538Y-90462286D01*
X86838877Y-90469615D01*
X86798366Y-90472587D01*
X86748056Y-90473105D01*
X86632012Y-90473105D01*
X86632012Y-90610688D01*
X86748056Y-90610688D01*
X86804366Y-90611429D01*
X86842879Y-90614851D01*
X86866947Y-90622755D01*
X86879920Y-90636940D01*
X86885150Y-90659205D01*
X86886011Y-90684772D01*
X86884632Y-90715011D01*
X86878259Y-90735693D01*
X86863541Y-90748617D01*
X86837127Y-90755584D01*
X86795665Y-90758392D01*
X86748056Y-90758855D01*
X86632012Y-90758855D01*
X86632012Y-90896438D01*
X86748056Y-90896438D01*
X86804329Y-90897153D01*
X86842809Y-90900564D01*
X86866858Y-90908568D01*
X86879833Y-90923062D01*
X86885094Y-90945944D01*
X86886012Y-90974361D01*
X86883699Y-91002782D01*
X86874648Y-91022437D01*
X86855686Y-91034879D01*
X86823640Y-91041658D01*
X86775338Y-91044327D01*
X86742381Y-91044605D01*
X86632012Y-91044605D01*
X86632012Y-91182188D01*
X86748056Y-91182188D01*
X86799293Y-91182481D01*
X86833456Y-91183843D01*
X86854634Y-91186998D01*
X86866915Y-91192670D01*
X86874390Y-91201582D01*
X86876245Y-91204880D01*
X86882922Y-91230712D01*
X86882922Y-91263849D01*
X86877219Y-91295728D01*
X86866790Y-91317786D01*
X86863001Y-91321135D01*
X86846939Y-91324916D01*
X86814980Y-91327933D01*
X86772392Y-91329792D01*
X86741948Y-91330193D01*
X86634926Y-91330355D01*
X86627872Y-91390372D01*
X86608904Y-91472455D01*
X86573450Y-91541653D01*
X86522603Y-91596874D01*
X86457454Y-91637027D01*
X86379095Y-91661020D01*
X86353362Y-91664882D01*
X86293345Y-91671936D01*
X86293183Y-91778958D01*
X86292273Y-91825588D01*
X86289952Y-91864965D01*
X86286615Y-91891821D01*
X86284125Y-91900011D01*
X86266540Y-91911635D01*
X86236639Y-91918816D01*
X86202984Y-91920578D01*
X86174140Y-91915947D01*
X86167870Y-91913255D01*
X86157882Y-91906410D01*
X86151344Y-91895945D01*
X86147533Y-91877771D01*
X86145725Y-91847800D01*
X86145196Y-91801941D01*
X86145178Y-91785066D01*
X86145178Y-91669022D01*
X86007595Y-91669022D01*
X86007433Y-91777501D01*
X86006560Y-91824380D01*
X86004336Y-91863956D01*
X86001135Y-91891033D01*
X85998639Y-91899584D01*
X85980213Y-91912099D01*
X85949494Y-91919041D01*
X85914870Y-91919347D01*
X85888532Y-91913556D01*
X85859428Y-91902379D01*
X85859428Y-91669022D01*
X85721845Y-91669022D01*
X85721845Y-91902379D01*
X85692741Y-91913556D01*
X85661419Y-91919758D01*
X85626842Y-91918415D01*
X85597398Y-91910591D01*
X85582634Y-91899584D01*
X85578990Y-91883748D01*
X85576072Y-91851944D01*
X85574255Y-91809367D01*
X85573840Y-91777501D01*
X85573678Y-91669022D01*
X85436095Y-91669022D01*
X85436095Y-91785066D01*
X85435802Y-91836303D01*
X85434440Y-91870466D01*
X85431285Y-91891644D01*
X85425613Y-91903925D01*
X85416701Y-91911400D01*
X85413403Y-91913255D01*
X85387571Y-91919932D01*
X85354434Y-91919932D01*
X85322555Y-91914229D01*
X85300497Y-91903800D01*
X85297148Y-91900011D01*
X85293391Y-91883985D01*
X85290385Y-91852015D01*
X85288515Y-91809323D01*
X85288090Y-91777501D01*
X85287928Y-91669022D01*
X85150345Y-91669022D01*
X85150345Y-91785066D01*
X85149987Y-91836650D01*
X85148481Y-91871087D01*
X85145181Y-91892393D01*
X85139439Y-91904581D01*
X85130609Y-91911666D01*
X85129874Y-91912066D01*
X85095927Y-91921480D01*
X85057434Y-91920356D01*
X85031282Y-91911590D01*
X85022916Y-91903895D01*
X85017472Y-91889845D01*
X85014361Y-91865477D01*
X85012996Y-91826829D01*
X85012762Y-91787020D01*
X85012762Y-91673237D01*
X84932642Y-91661694D01*
X84851701Y-91640906D01*
X84784596Y-91604203D01*
X84731952Y-91552198D01*
X84694393Y-91485503D01*
X84672921Y-91407084D01*
X84660410Y-91330355D01*
X84558150Y-91330355D01*
X84501221Y-91329416D01*
X84462253Y-91325279D01*
X84438078Y-91315964D01*
X84425525Y-91299490D01*
X84421425Y-91273878D01*
X84422107Y-91245367D01*
X84425387Y-91187480D01*
X84544449Y-91184487D01*
X84663512Y-91181495D01*
X84663512Y-91044605D01*
X84555032Y-91044443D01*
X84508125Y-91043558D01*
X84468493Y-91041301D01*
X84441343Y-91038054D01*
X84432746Y-91035524D01*
X84424182Y-91019690D01*
X84421510Y-90985801D01*
X84422163Y-90964248D01*
X84425387Y-90901730D01*
X84544449Y-90898737D01*
X84663512Y-90895745D01*
X84663512Y-90759548D01*
X84544449Y-90756556D01*
X84425387Y-90753563D01*
X84422163Y-90691045D01*
X84422267Y-90648505D01*
X84428152Y-90624758D01*
X84432746Y-90619769D01*
X84448672Y-90616072D01*
X84480555Y-90613112D01*
X84523187Y-90611270D01*
X84555032Y-90610850D01*
X84663512Y-90610688D01*
X84663512Y-90473798D01*
X84544449Y-90470806D01*
X84425387Y-90467813D01*
X84422163Y-90405295D01*
X84422267Y-90362755D01*
X84428152Y-90339008D01*
X84432746Y-90334019D01*
X84448672Y-90330322D01*
X84480555Y-90327362D01*
X84523187Y-90325520D01*
X84555032Y-90325100D01*
X84663512Y-90324938D01*
X84663512Y-90268146D01*
X85097942Y-90268146D01*
X85098665Y-90342252D01*
X85099603Y-90415990D01*
X85100772Y-90503346D01*
X85101997Y-90572382D01*
X85103505Y-90625941D01*
X85105526Y-90666869D01*
X85108288Y-90698012D01*
X85112022Y-90722214D01*
X85116956Y-90742320D01*
X85123318Y-90761175D01*
X85128470Y-90774462D01*
X85165108Y-90841689D01*
X85217216Y-90903648D01*
X85279112Y-90954282D01*
X85317690Y-90976279D01*
X85357490Y-90991737D01*
X85409035Y-91006870D01*
X85463034Y-91019032D01*
X85475782Y-91021290D01*
X85573678Y-91037522D01*
X85573678Y-91151306D01*
X85574569Y-91207713D01*
X85577393Y-91245057D01*
X85582377Y-91265376D01*
X85586907Y-91270429D01*
X85609569Y-91274727D01*
X85643156Y-91276421D01*
X85677581Y-91275461D01*
X85702757Y-91271797D01*
X85705104Y-91271014D01*
X85712714Y-91264659D01*
X85717678Y-91250144D01*
X85720504Y-91223820D01*
X85721699Y-91182036D01*
X85721845Y-91150592D01*
X85721845Y-91036595D01*
X85800329Y-91024922D01*
X85904398Y-91000936D01*
X85993477Y-90962228D01*
X86067399Y-90908920D01*
X86125994Y-90841130D01*
X86168157Y-90761336D01*
X86175434Y-90742180D01*
X86181152Y-90723302D01*
X86185536Y-90701838D01*
X86188814Y-90674926D01*
X86191213Y-90639701D01*
X86192959Y-90593302D01*
X86194280Y-90532865D01*
X86195401Y-90455526D01*
X86195947Y-90410621D01*
X86196991Y-90321954D01*
X86197484Y-90252189D01*
X86196963Y-90199061D01*
X86194963Y-90160305D01*
X86191020Y-90133658D01*
X86184668Y-90116853D01*
X86175443Y-90107627D01*
X86162881Y-90103715D01*
X86146518Y-90102852D01*
X86132815Y-90102850D01*
X86109415Y-90102722D01*
X86091690Y-90104275D01*
X86078850Y-90110081D01*
X86070108Y-90122713D01*
X86064673Y-90144744D01*
X86061756Y-90178747D01*
X86060570Y-90227294D01*
X86060324Y-90292958D01*
X86060302Y-90339300D01*
X86059528Y-90441063D01*
X86057202Y-90524416D01*
X86053004Y-90592080D01*
X86046615Y-90646775D01*
X86037714Y-90691223D01*
X86025983Y-90728144D01*
X86011100Y-90760259D01*
X86010739Y-90760924D01*
X85969822Y-90815317D01*
X85914139Y-90859616D01*
X85848857Y-90890847D01*
X85779145Y-90906035D01*
X85756966Y-90907022D01*
X85721845Y-90907022D01*
X85721845Y-90511279D01*
X85721904Y-90407380D01*
X85721858Y-90322692D01*
X85721370Y-90255261D01*
X85720103Y-90203132D01*
X85717721Y-90164352D01*
X85713888Y-90136967D01*
X85708267Y-90119021D01*
X85700521Y-90108561D01*
X85690315Y-90103633D01*
X85677311Y-90102282D01*
X85661173Y-90102554D01*
X85651492Y-90102688D01*
X85619951Y-90105809D01*
X85594716Y-90113348D01*
X85594149Y-90113644D01*
X85588846Y-90117265D01*
X85584547Y-90123254D01*
X85581146Y-90133676D01*
X85578539Y-90150595D01*
X85576621Y-90176075D01*
X85575286Y-90212181D01*
X85574429Y-90260978D01*
X85573946Y-90324531D01*
X85573731Y-90404903D01*
X85573678Y-90504159D01*
X85573678Y-90907022D01*
X85540911Y-90907022D01*
X85471887Y-90897681D01*
X85404175Y-90871778D01*
X85344191Y-90832490D01*
X85302594Y-90788967D01*
X85286079Y-90764329D01*
X85273038Y-90738394D01*
X85263075Y-90708371D01*
X85255795Y-90671472D01*
X85250803Y-90624908D01*
X85247703Y-90565890D01*
X85246101Y-90491629D01*
X85245600Y-90399336D01*
X85245595Y-90386890D01*
X85245587Y-90302001D01*
X85245116Y-90235928D01*
X85243508Y-90186319D01*
X85240091Y-90150824D01*
X85234191Y-90127093D01*
X85225135Y-90112775D01*
X85212250Y-90105520D01*
X85194864Y-90102977D01*
X85172304Y-90102795D01*
X85164270Y-90102850D01*
X85144643Y-90102891D01*
X85129181Y-90104336D01*
X85117422Y-90109428D01*
X85108902Y-90120411D01*
X85103158Y-90139531D01*
X85099725Y-90169030D01*
X85098141Y-90211154D01*
X85097942Y-90268146D01*
X84663512Y-90268146D01*
X84663512Y-90188048D01*
X84544449Y-90185056D01*
G36*
X93347449Y-90961728D02*
G01*
X93402944Y-90983284D01*
X93447155Y-91020759D01*
X93455015Y-91030471D01*
X93471625Y-91055862D01*
X93484734Y-91085342D01*
X93494718Y-91121575D01*
X93501950Y-91167227D01*
X93506807Y-91224963D01*
X93509663Y-91297447D01*
X93510892Y-91387345D01*
X93511013Y-91428513D01*
X93511178Y-91669545D01*
X93482074Y-91680858D01*
X93442808Y-91686796D01*
X93415928Y-91683242D01*
X93378887Y-91674313D01*
X93373595Y-91420313D01*
X93371780Y-91339469D01*
X93369949Y-91276910D01*
X93367833Y-91229759D01*
X93365165Y-91195136D01*
X93361680Y-91170163D01*
X93357109Y-91151960D01*
X93351185Y-91137648D01*
X93346603Y-91129272D01*
X93314741Y-91090778D01*
X93276430Y-91072150D01*
X93232451Y-91073361D01*
X93183583Y-91094385D01*
X93130609Y-91135193D01*
X93128843Y-91136836D01*
X93077262Y-91185085D01*
X93077262Y-91669545D01*
X93048157Y-91680858D01*
X93008891Y-91686796D01*
X92982012Y-91683242D01*
X92944970Y-91674313D01*
X92939678Y-91420313D01*
X92937534Y-91331473D01*
X92934845Y-91261237D01*
X92931043Y-91207042D01*
X92925555Y-91166326D01*
X92917812Y-91136526D01*
X92907244Y-91115080D01*
X92893280Y-91099424D01*
X92875349Y-91086998D01*
X92864130Y-91080889D01*
X92826344Y-91068976D01*
X92787792Y-91073522D01*
X92745560Y-91095421D01*
X92701966Y-91130736D01*
X92643345Y-91184312D01*
X92643345Y-91669545D01*
X92616198Y-91679867D01*
X92589173Y-91687363D01*
X92560478Y-91687566D01*
X92529434Y-91682701D01*
X92505482Y-91678096D01*
X92508267Y-91321663D01*
X92511053Y-90965230D01*
X92556814Y-90961937D01*
X92597079Y-90963537D01*
X92621150Y-90976823D01*
X92631706Y-91003898D01*
X92632762Y-91021518D01*
X92632762Y-91059340D01*
X92667157Y-91026699D01*
X92717419Y-90986846D01*
X92769073Y-90964137D01*
X92829756Y-90955492D01*
X92844428Y-90955174D01*
X92914622Y-90962247D01*
X92970624Y-90984582D01*
X93013308Y-91022578D01*
X93023294Y-91036542D01*
X93048826Y-91075996D01*
X93093583Y-91034740D01*
X93140692Y-90995500D01*
X93183197Y-90971112D01*
X93227944Y-90958624D01*
X93278345Y-90955099D01*
X93347449Y-90961728D01*
G37*
X93347449Y-90961728D02*
X93402944Y-90983284D01*
X93447155Y-91020759D01*
X93455015Y-91030471D01*
X93471625Y-91055862D01*
X93484734Y-91085342D01*
X93494718Y-91121575D01*
X93501950Y-91167227D01*
X93506807Y-91224963D01*
X93509663Y-91297447D01*
X93510892Y-91387345D01*
X93511013Y-91428513D01*
X93511178Y-91669545D01*
X93482074Y-91680858D01*
X93442808Y-91686796D01*
X93415928Y-91683242D01*
X93378887Y-91674313D01*
X93373595Y-91420313D01*
X93371780Y-91339469D01*
X93369949Y-91276910D01*
X93367833Y-91229759D01*
X93365165Y-91195136D01*
X93361680Y-91170163D01*
X93357109Y-91151960D01*
X93351185Y-91137648D01*
X93346603Y-91129272D01*
X93314741Y-91090778D01*
X93276430Y-91072150D01*
X93232451Y-91073361D01*
X93183583Y-91094385D01*
X93130609Y-91135193D01*
X93128843Y-91136836D01*
X93077262Y-91185085D01*
X93077262Y-91669545D01*
X93048157Y-91680858D01*
X93008891Y-91686796D01*
X92982012Y-91683242D01*
X92944970Y-91674313D01*
X92939678Y-91420313D01*
X92937534Y-91331473D01*
X92934845Y-91261237D01*
X92931043Y-91207042D01*
X92925555Y-91166326D01*
X92917812Y-91136526D01*
X92907244Y-91115080D01*
X92893280Y-91099424D01*
X92875349Y-91086998D01*
X92864130Y-91080889D01*
X92826344Y-91068976D01*
X92787792Y-91073522D01*
X92745560Y-91095421D01*
X92701966Y-91130736D01*
X92643345Y-91184312D01*
X92643345Y-91669545D01*
X92616198Y-91679867D01*
X92589173Y-91687363D01*
X92560478Y-91687566D01*
X92529434Y-91682701D01*
X92505482Y-91678096D01*
X92508267Y-91321663D01*
X92511053Y-90965230D01*
X92556814Y-90961937D01*
X92597079Y-90963537D01*
X92621150Y-90976823D01*
X92631706Y-91003898D01*
X92632762Y-91021518D01*
X92632762Y-91059340D01*
X92667157Y-91026699D01*
X92717419Y-90986846D01*
X92769073Y-90964137D01*
X92829756Y-90955492D01*
X92844428Y-90955174D01*
X92914622Y-90962247D01*
X92970624Y-90984582D01*
X93013308Y-91022578D01*
X93023294Y-91036542D01*
X93048826Y-91075996D01*
X93093583Y-91034740D01*
X93140692Y-90995500D01*
X93183197Y-90971112D01*
X93227944Y-90958624D01*
X93278345Y-90955099D01*
X93347449Y-90961728D01*
G36*
X95880758Y-90961145D02*
G01*
X95899878Y-90968880D01*
X95909611Y-90978984D01*
X95912608Y-90997633D01*
X95911524Y-91031004D01*
X95911441Y-91032583D01*
X95909033Y-91066311D01*
X95904697Y-91083706D01*
X95895904Y-91089592D01*
X95881845Y-91089010D01*
X95825593Y-91083919D01*
X95784030Y-91086292D01*
X95751260Y-91098654D01*
X95721389Y-91123533D01*
X95688522Y-91163457D01*
X95679327Y-91175839D01*
X95649012Y-91217114D01*
X95649012Y-91669545D01*
X95621864Y-91679867D01*
X95581119Y-91688988D01*
X95541649Y-91681725D01*
X95535098Y-91679222D01*
X95511142Y-91669598D01*
X95516720Y-90965230D01*
X95562481Y-90961937D01*
X95602697Y-90963520D01*
X95626780Y-90976807D01*
X95637501Y-91003988D01*
X95638713Y-91022088D01*
X95638998Y-91060480D01*
X95667817Y-91026905D01*
X95718365Y-90981189D01*
X95773690Y-90955642D01*
X95832720Y-90950597D01*
X95880758Y-90961145D01*
G37*
X95880758Y-90961145D02*
X95899878Y-90968880D01*
X95909611Y-90978984D01*
X95912608Y-90997633D01*
X95911524Y-91031004D01*
X95911441Y-91032583D01*
X95909033Y-91066311D01*
X95904697Y-91083706D01*
X95895904Y-91089592D01*
X95881845Y-91089010D01*
X95825593Y-91083919D01*
X95784030Y-91086292D01*
X95751260Y-91098654D01*
X95721389Y-91123533D01*
X95688522Y-91163457D01*
X95679327Y-91175839D01*
X95649012Y-91217114D01*
X95649012Y-91669545D01*
X95621864Y-91679867D01*
X95581119Y-91688988D01*
X95541649Y-91681725D01*
X95535098Y-91679222D01*
X95511142Y-91669598D01*
X95516720Y-90965230D01*
X95562481Y-90961937D01*
X95602697Y-90963520D01*
X95626780Y-90976807D01*
X95637501Y-91003988D01*
X95638713Y-91022088D01*
X95638998Y-91060480D01*
X95667817Y-91026905D01*
X95718365Y-90981189D01*
X95773690Y-90955642D01*
X95832720Y-90950597D01*
X95880758Y-90961145D01*
G36*
X87499588Y-89862927D02*
G01*
X87499402Y-89781326D01*
X87500169Y-89716941D01*
X87502767Y-89667807D01*
X87508076Y-89631955D01*
X87516976Y-89607419D01*
X87530347Y-89592232D01*
X87549068Y-89584427D01*
X87574019Y-89582036D01*
X87606079Y-89583093D01*
X87646129Y-89585630D01*
X87668407Y-89586794D01*
X87747418Y-89592867D01*
X87808941Y-89603944D01*
X87856300Y-89621161D01*
X87892814Y-89645651D01*
X87916676Y-89671535D01*
X87943072Y-89722057D01*
X87956039Y-89782557D01*
X87955543Y-89846624D01*
X87941552Y-89907850D01*
X87918142Y-89954153D01*
X87883253Y-89993975D01*
X87840406Y-90021663D01*
X87785762Y-90038898D01*
X87715481Y-90047361D01*
X87703872Y-90047955D01*
X87606275Y-90052270D01*
X87600387Y-90330230D01*
X87557669Y-90333374D01*
X87528919Y-90333647D01*
X87509887Y-90330459D01*
X87507398Y-90328964D01*
X87505607Y-90316949D01*
X87503968Y-90286274D01*
X87502532Y-90239445D01*
X87501352Y-90178968D01*
X87500478Y-90107350D01*
X87499964Y-90027097D01*
X87499853Y-89967949D01*
X87605678Y-89967949D01*
X87679426Y-89962672D01*
X87724052Y-89957113D01*
X87761111Y-89948154D01*
X87779820Y-89939936D01*
X87817014Y-89904834D01*
X87838930Y-89861431D01*
X87845662Y-89814398D01*
X87837302Y-89768406D01*
X87813943Y-89728126D01*
X87775678Y-89698227D01*
X87775012Y-89697892D01*
X87732610Y-89684678D01*
X87677276Y-89679412D01*
X87671824Y-89679371D01*
X87605678Y-89679355D01*
X87605678Y-89967949D01*
X87499853Y-89967949D01*
X87499845Y-89963713D01*
X87499588Y-89862927D01*
G37*
X87499588Y-89862927D02*
X87499402Y-89781326D01*
X87500169Y-89716941D01*
X87502767Y-89667807D01*
X87508076Y-89631955D01*
X87516976Y-89607419D01*
X87530347Y-89592232D01*
X87549068Y-89584427D01*
X87574019Y-89582036D01*
X87606079Y-89583093D01*
X87646129Y-89585630D01*
X87668407Y-89586794D01*
X87747418Y-89592867D01*
X87808941Y-89603944D01*
X87856300Y-89621161D01*
X87892814Y-89645651D01*
X87916676Y-89671535D01*
X87943072Y-89722057D01*
X87956039Y-89782557D01*
X87955543Y-89846624D01*
X87941552Y-89907850D01*
X87918142Y-89954153D01*
X87883253Y-89993975D01*
X87840406Y-90021663D01*
X87785762Y-90038898D01*
X87715481Y-90047361D01*
X87703872Y-90047955D01*
X87606275Y-90052270D01*
X87600387Y-90330230D01*
X87557669Y-90333374D01*
X87528919Y-90333647D01*
X87509887Y-90330459D01*
X87507398Y-90328964D01*
X87505607Y-90316949D01*
X87503968Y-90286274D01*
X87502532Y-90239445D01*
X87501352Y-90178968D01*
X87500478Y-90107350D01*
X87499964Y-90027097D01*
X87499853Y-89967949D01*
X87605678Y-89967949D01*
X87679426Y-89962672D01*
X87724052Y-89957113D01*
X87761111Y-89948154D01*
X87779820Y-89939936D01*
X87817014Y-89904834D01*
X87838930Y-89861431D01*
X87845662Y-89814398D01*
X87837302Y-89768406D01*
X87813943Y-89728126D01*
X87775678Y-89698227D01*
X87775012Y-89697892D01*
X87732610Y-89684678D01*
X87677276Y-89679412D01*
X87671824Y-89679371D01*
X87605678Y-89679355D01*
X87605678Y-89967949D01*
X87499853Y-89967949D01*
X87499845Y-89963713D01*
X87499588Y-89862927D01*
G36*
X90461793Y-89904552D02*
G01*
X90493207Y-89856927D01*
X90519855Y-89830286D01*
X90565450Y-89798501D01*
X90616186Y-89780870D01*
X90677526Y-89775857D01*
X90708685Y-89777211D01*
X90752248Y-89781865D01*
X90782769Y-89790046D01*
X90808354Y-89804414D01*
X90820959Y-89814044D01*
X90861226Y-89853294D01*
X90886991Y-89896735D01*
X90901243Y-89950532D01*
X90905361Y-89988222D01*
X90907223Y-90030862D01*
X90905002Y-90056783D01*
X90898232Y-90070125D01*
X90895949Y-90071870D01*
X90880789Y-90075030D01*
X90848383Y-90077753D01*
X90802653Y-90079838D01*
X90747520Y-90081089D01*
X90708761Y-90081359D01*
X90536302Y-90081522D01*
X90543488Y-90121209D01*
X90560260Y-90178044D01*
X90587341Y-90217559D01*
X90612643Y-90235651D01*
X90651687Y-90247553D01*
X90702478Y-90251696D01*
X90757073Y-90248085D01*
X90807529Y-90236728D01*
X90811113Y-90235497D01*
X90849185Y-90223166D01*
X90871758Y-90220417D01*
X90882811Y-90228553D01*
X90886325Y-90248876D01*
X90886512Y-90260154D01*
X90884059Y-90284496D01*
X90874356Y-90301988D01*
X90853884Y-90314929D01*
X90819125Y-90325622D01*
X90771296Y-90335489D01*
X90712570Y-90343792D01*
X90663063Y-90343660D01*
X90612472Y-90334835D01*
X90598109Y-90331150D01*
X90535932Y-90304782D01*
X90488319Y-90263076D01*
X90455297Y-90206077D01*
X90436889Y-90133830D01*
X90433121Y-90046380D01*
X90433653Y-90034863D01*
X90437034Y-90007438D01*
X90536858Y-90007438D01*
X90801845Y-90007438D01*
X90801845Y-89980454D01*
X90793375Y-89940296D01*
X90771675Y-89900955D01*
X90746634Y-89875789D01*
X90720143Y-89864670D01*
X90686592Y-89859349D01*
X90682548Y-89859272D01*
X90628973Y-89867635D01*
X90587678Y-89892990D01*
X90558202Y-89935730D01*
X90543837Y-89978334D01*
X90536858Y-90007438D01*
X90437034Y-90007438D01*
X90442599Y-89962306D01*
X90461793Y-89904552D01*
G37*
X90461793Y-89904552D02*
X90493207Y-89856927D01*
X90519855Y-89830286D01*
X90565450Y-89798501D01*
X90616186Y-89780870D01*
X90677526Y-89775857D01*
X90708685Y-89777211D01*
X90752248Y-89781865D01*
X90782769Y-89790046D01*
X90808354Y-89804414D01*
X90820959Y-89814044D01*
X90861226Y-89853294D01*
X90886991Y-89896735D01*
X90901243Y-89950532D01*
X90905361Y-89988222D01*
X90907223Y-90030862D01*
X90905002Y-90056783D01*
X90898232Y-90070125D01*
X90895949Y-90071870D01*
X90880789Y-90075030D01*
X90848383Y-90077753D01*
X90802653Y-90079838D01*
X90747520Y-90081089D01*
X90708761Y-90081359D01*
X90536302Y-90081522D01*
X90543488Y-90121209D01*
X90560260Y-90178044D01*
X90587341Y-90217559D01*
X90612643Y-90235651D01*
X90651687Y-90247553D01*
X90702478Y-90251696D01*
X90757073Y-90248085D01*
X90807529Y-90236728D01*
X90811113Y-90235497D01*
X90849185Y-90223166D01*
X90871758Y-90220417D01*
X90882811Y-90228553D01*
X90886325Y-90248876D01*
X90886512Y-90260154D01*
X90884059Y-90284496D01*
X90874356Y-90301988D01*
X90853884Y-90314929D01*
X90819125Y-90325622D01*
X90771296Y-90335489D01*
X90712570Y-90343792D01*
X90663063Y-90343660D01*
X90612472Y-90334835D01*
X90598109Y-90331150D01*
X90535932Y-90304782D01*
X90488319Y-90263076D01*
X90455297Y-90206077D01*
X90436889Y-90133830D01*
X90433121Y-90046380D01*
X90433653Y-90034863D01*
X90437034Y-90007438D01*
X90536858Y-90007438D01*
X90801845Y-90007438D01*
X90801845Y-89980454D01*
X90793375Y-89940296D01*
X90771675Y-89900955D01*
X90746634Y-89875789D01*
X90720143Y-89864670D01*
X90686592Y-89859349D01*
X90682548Y-89859272D01*
X90628973Y-89867635D01*
X90587678Y-89892990D01*
X90558202Y-89935730D01*
X90543837Y-89978334D01*
X90536858Y-90007438D01*
X90437034Y-90007438D01*
X90442599Y-89962306D01*
X90461793Y-89904552D01*
G36*
X90406724Y-90711180D02*
G01*
X90416333Y-90720230D01*
X90417072Y-90721956D01*
X90419499Y-90732743D01*
X90417774Y-90745437D01*
X90410498Y-90762079D01*
X90396268Y-90784712D01*
X90373686Y-90815377D01*
X90341349Y-90856118D01*
X90297857Y-90908977D01*
X90247304Y-90969450D01*
X90202947Y-91022695D01*
X90163564Y-91070725D01*
X90131085Y-91111121D01*
X90107442Y-91141469D01*
X90094563Y-91159351D01*
X90092762Y-91162919D01*
X90098914Y-91173564D01*
X90116227Y-91198648D01*
X90142985Y-91235814D01*
X90177471Y-91282700D01*
X90217969Y-91336949D01*
X90255197Y-91386240D01*
X90309584Y-91458062D01*
X90352395Y-91515121D01*
X90384982Y-91559414D01*
X90408701Y-91592935D01*
X90424903Y-91617682D01*
X90434943Y-91635649D01*
X90440173Y-91648833D01*
X90441949Y-91659229D01*
X90442012Y-91661711D01*
X90432463Y-91674689D01*
X90407492Y-91683367D01*
X90372606Y-91686583D01*
X90337191Y-91683831D01*
X90324960Y-91681082D01*
X90313019Y-91675691D01*
X90299680Y-91665734D01*
X90283255Y-91649287D01*
X90262058Y-91624426D01*
X90234400Y-91589227D01*
X90198594Y-91541766D01*
X90152953Y-91480120D01*
X90123961Y-91440714D01*
X89949887Y-91203858D01*
X89947037Y-91436779D01*
X89944188Y-91669700D01*
X89917244Y-91679944D01*
X89890288Y-91687391D01*
X89861540Y-91687549D01*
X89830718Y-91682705D01*
X89806799Y-91678105D01*
X89809551Y-91194667D01*
X89812303Y-90711230D01*
X89939303Y-90711230D01*
X89942168Y-90925390D01*
X89945032Y-91139550D01*
X90116793Y-90925390D01*
X90288553Y-90711230D01*
X90349535Y-90708052D01*
X90386109Y-90707460D01*
X90406724Y-90711180D01*
G37*
X90406724Y-90711180D02*
X90416333Y-90720230D01*
X90417072Y-90721956D01*
X90419499Y-90732743D01*
X90417774Y-90745437D01*
X90410498Y-90762079D01*
X90396268Y-90784712D01*
X90373686Y-90815377D01*
X90341349Y-90856118D01*
X90297857Y-90908977D01*
X90247304Y-90969450D01*
X90202947Y-91022695D01*
X90163564Y-91070725D01*
X90131085Y-91111121D01*
X90107442Y-91141469D01*
X90094563Y-91159351D01*
X90092762Y-91162919D01*
X90098914Y-91173564D01*
X90116227Y-91198648D01*
X90142985Y-91235814D01*
X90177471Y-91282700D01*
X90217969Y-91336949D01*
X90255197Y-91386240D01*
X90309584Y-91458062D01*
X90352395Y-91515121D01*
X90384982Y-91559414D01*
X90408701Y-91592935D01*
X90424903Y-91617682D01*
X90434943Y-91635649D01*
X90440173Y-91648833D01*
X90441949Y-91659229D01*
X90442012Y-91661711D01*
X90432463Y-91674689D01*
X90407492Y-91683367D01*
X90372606Y-91686583D01*
X90337191Y-91683831D01*
X90324960Y-91681082D01*
X90313019Y-91675691D01*
X90299680Y-91665734D01*
X90283255Y-91649287D01*
X90262058Y-91624426D01*
X90234400Y-91589227D01*
X90198594Y-91541766D01*
X90152953Y-91480120D01*
X90123961Y-91440714D01*
X89949887Y-91203858D01*
X89947037Y-91436779D01*
X89944188Y-91669700D01*
X89917244Y-91679944D01*
X89890288Y-91687391D01*
X89861540Y-91687549D01*
X89830718Y-91682705D01*
X89806799Y-91678105D01*
X89809551Y-91194667D01*
X89812303Y-90711230D01*
X89939303Y-90711230D01*
X89942168Y-90925390D01*
X89945032Y-91139550D01*
X90116793Y-90925390D01*
X90288553Y-90711230D01*
X90349535Y-90708052D01*
X90386109Y-90707460D01*
X90406724Y-90711180D01*
G36*
X92295610Y-90951892D02*
G01*
X92329252Y-90957516D01*
X92355587Y-90966089D01*
X92362535Y-90970230D01*
X92371818Y-90987719D01*
X92377436Y-91016627D01*
X92379002Y-91048975D01*
X92376132Y-91076783D01*
X92368440Y-91092068D01*
X92368422Y-91092079D01*
X92352559Y-91093478D01*
X92325177Y-91089328D01*
X92314084Y-91086621D01*
X92280789Y-91080441D01*
X92252308Y-91079704D01*
X92246706Y-91080641D01*
X92217516Y-91096086D01*
X92182035Y-91128087D01*
X92143016Y-91174064D01*
X92133775Y-91186422D01*
X92103595Y-91227697D01*
X92103595Y-91452417D01*
X92103545Y-91526760D01*
X92103208Y-91582664D01*
X92102302Y-91622856D01*
X92100547Y-91650065D01*
X92097661Y-91667018D01*
X92093364Y-91676443D01*
X92087374Y-91681066D01*
X92079782Y-91683518D01*
X92024640Y-91687983D01*
X91994976Y-91682866D01*
X91989935Y-91680395D01*
X91985923Y-91674484D01*
X91982846Y-91663012D01*
X91980612Y-91643859D01*
X91979127Y-91614906D01*
X91978299Y-91574031D01*
X91978033Y-91519114D01*
X91978237Y-91448037D01*
X91978817Y-91358677D01*
X91979101Y-91321614D01*
X91981887Y-90965230D01*
X92087720Y-90965230D01*
X92093012Y-91015665D01*
X92098303Y-91066099D01*
X92127879Y-91028868D01*
X92174596Y-90984814D01*
X92229204Y-90958421D01*
X92288111Y-90951337D01*
X92295610Y-90951892D01*
G37*
X92295610Y-90951892D02*
X92329252Y-90957516D01*
X92355587Y-90966089D01*
X92362535Y-90970230D01*
X92371818Y-90987719D01*
X92377436Y-91016627D01*
X92379002Y-91048975D01*
X92376132Y-91076783D01*
X92368440Y-91092068D01*
X92368422Y-91092079D01*
X92352559Y-91093478D01*
X92325177Y-91089328D01*
X92314084Y-91086621D01*
X92280789Y-91080441D01*
X92252308Y-91079704D01*
X92246706Y-91080641D01*
X92217516Y-91096086D01*
X92182035Y-91128087D01*
X92143016Y-91174064D01*
X92133775Y-91186422D01*
X92103595Y-91227697D01*
X92103595Y-91452417D01*
X92103545Y-91526760D01*
X92103208Y-91582664D01*
X92102302Y-91622856D01*
X92100547Y-91650065D01*
X92097661Y-91667018D01*
X92093364Y-91676443D01*
X92087374Y-91681066D01*
X92079782Y-91683518D01*
X92024640Y-91687983D01*
X91994976Y-91682866D01*
X91989935Y-91680395D01*
X91985923Y-91674484D01*
X91982846Y-91663012D01*
X91980612Y-91643859D01*
X91979127Y-91614906D01*
X91978299Y-91574031D01*
X91978033Y-91519114D01*
X91978237Y-91448037D01*
X91978817Y-91358677D01*
X91979101Y-91321614D01*
X91981887Y-90965230D01*
X92087720Y-90965230D01*
X92093012Y-91015665D01*
X92098303Y-91066099D01*
X92127879Y-91028868D01*
X92174596Y-90984814D01*
X92229204Y-90958421D01*
X92288111Y-90951337D01*
X92295610Y-90951892D01*
G36*
X91032283Y-89920981D02*
G01*
X91060952Y-89860503D01*
X91103356Y-89815445D01*
X91136959Y-89794929D01*
X91187377Y-89779177D01*
X91243000Y-89775516D01*
X91296201Y-89783594D01*
X91339354Y-89803058D01*
X91341196Y-89804386D01*
X91363115Y-89819550D01*
X91377033Y-89827272D01*
X91378208Y-89827522D01*
X91380300Y-89817582D01*
X91382049Y-89790335D01*
X91383300Y-89749640D01*
X91383899Y-89699356D01*
X91383928Y-89684848D01*
X91383928Y-89542175D01*
X91410387Y-89535534D01*
X91442264Y-89532904D01*
X91463432Y-89535566D01*
X91490019Y-89542239D01*
X91487244Y-89936235D01*
X91484470Y-90330230D01*
X91442137Y-90330230D01*
X91414582Y-90328646D01*
X91401624Y-90321211D01*
X91396769Y-90303899D01*
X91396534Y-90301950D01*
X91393265Y-90273671D01*
X91343617Y-90304477D01*
X91285142Y-90330772D01*
X91222714Y-90341791D01*
X91165538Y-90336557D01*
X91111206Y-90313802D01*
X91069473Y-90275936D01*
X91039821Y-90222106D01*
X91021737Y-90151464D01*
X91015581Y-90089586D01*
X91016418Y-90041996D01*
X91119961Y-90041996D01*
X91122254Y-90103635D01*
X91136049Y-90160972D01*
X91161484Y-90208404D01*
X91172445Y-90220917D01*
X91210318Y-90245223D01*
X91253044Y-90250442D01*
X91295315Y-90236054D01*
X91299552Y-90233357D01*
X91336809Y-90207155D01*
X91361116Y-90184495D01*
X91375223Y-90159722D01*
X91381882Y-90127182D01*
X91383843Y-90081220D01*
X91383928Y-90059920D01*
X91383451Y-90011425D01*
X91381372Y-89979004D01*
X91376722Y-89957574D01*
X91368530Y-89942052D01*
X91359332Y-89931073D01*
X91315827Y-89893785D01*
X91270838Y-89872256D01*
X91227875Y-89867345D01*
X91190444Y-89879912D01*
X91180707Y-89887317D01*
X91149327Y-89928233D01*
X91129032Y-89981661D01*
X91119961Y-90041996D01*
X91016418Y-90041996D01*
X91017207Y-89997227D01*
X91032283Y-89920981D01*
G37*
X91032283Y-89920981D02*
X91060952Y-89860503D01*
X91103356Y-89815445D01*
X91136959Y-89794929D01*
X91187377Y-89779177D01*
X91243000Y-89775516D01*
X91296201Y-89783594D01*
X91339354Y-89803058D01*
X91341196Y-89804386D01*
X91363115Y-89819550D01*
X91377033Y-89827272D01*
X91378208Y-89827522D01*
X91380300Y-89817582D01*
X91382049Y-89790335D01*
X91383300Y-89749640D01*
X91383899Y-89699356D01*
X91383928Y-89684848D01*
X91383928Y-89542175D01*
X91410387Y-89535534D01*
X91442264Y-89532904D01*
X91463432Y-89535566D01*
X91490019Y-89542239D01*
X91487244Y-89936235D01*
X91484470Y-90330230D01*
X91442137Y-90330230D01*
X91414582Y-90328646D01*
X91401624Y-90321211D01*
X91396769Y-90303899D01*
X91396534Y-90301950D01*
X91393265Y-90273671D01*
X91343617Y-90304477D01*
X91285142Y-90330772D01*
X91222714Y-90341791D01*
X91165538Y-90336557D01*
X91111206Y-90313802D01*
X91069473Y-90275936D01*
X91039821Y-90222106D01*
X91021737Y-90151464D01*
X91015581Y-90089586D01*
X91016418Y-90041996D01*
X91119961Y-90041996D01*
X91122254Y-90103635D01*
X91136049Y-90160972D01*
X91161484Y-90208404D01*
X91172445Y-90220917D01*
X91210318Y-90245223D01*
X91253044Y-90250442D01*
X91295315Y-90236054D01*
X91299552Y-90233357D01*
X91336809Y-90207155D01*
X91361116Y-90184495D01*
X91375223Y-90159722D01*
X91381882Y-90127182D01*
X91383843Y-90081220D01*
X91383928Y-90059920D01*
X91383451Y-90011425D01*
X91381372Y-89979004D01*
X91376722Y-89957574D01*
X91368530Y-89942052D01*
X91359332Y-89931073D01*
X91315827Y-89893785D01*
X91270838Y-89872256D01*
X91227875Y-89867345D01*
X91190444Y-89879912D01*
X91180707Y-89887317D01*
X91149327Y-89928233D01*
X91129032Y-89981661D01*
X91119961Y-90041996D01*
X91016418Y-90041996D01*
X91017207Y-89997227D01*
X91032283Y-89920981D01*
G36*
X91287075Y-90706349D02*
G01*
X91351878Y-90707633D01*
X91398590Y-90709872D01*
X91428743Y-90713145D01*
X91443867Y-90717533D01*
X91445312Y-90718638D01*
X91454643Y-90739531D01*
X91457632Y-90770372D01*
X91454277Y-90800919D01*
X91445312Y-90820238D01*
X91431285Y-90825568D01*
X91400552Y-90829390D01*
X91351794Y-90831792D01*
X91283688Y-90832862D01*
X91254812Y-90832938D01*
X91077012Y-90832938D01*
X91077012Y-91139855D01*
X91245049Y-91139855D01*
X91313746Y-91140172D01*
X91364025Y-91141805D01*
X91398632Y-91145777D01*
X91420315Y-91153111D01*
X91431820Y-91164830D01*
X91435893Y-91181956D01*
X91435281Y-91205513D01*
X91434882Y-91210554D01*
X91431553Y-91250980D01*
X91254282Y-91253882D01*
X91077012Y-91256783D01*
X91077012Y-91676959D01*
X91043939Y-91683574D01*
X91011694Y-91688752D01*
X90988817Y-91687654D01*
X90964286Y-91679694D01*
X90963241Y-91679275D01*
X90939428Y-91669704D01*
X90939428Y-91204452D01*
X90939500Y-91091661D01*
X90939757Y-90998179D01*
X90940265Y-90922146D01*
X90941087Y-90861705D01*
X90942287Y-90814997D01*
X90943929Y-90780165D01*
X90946078Y-90755350D01*
X90948798Y-90738693D01*
X90952153Y-90728337D01*
X90956059Y-90722569D01*
X90964417Y-90716985D01*
X90978624Y-90712774D01*
X91001377Y-90709754D01*
X91035372Y-90707744D01*
X91083305Y-90706562D01*
X91147872Y-90706026D01*
X91202651Y-90705938D01*
X91287075Y-90706349D01*
G37*
X91287075Y-90706349D02*
X91351878Y-90707633D01*
X91398590Y-90709872D01*
X91428743Y-90713145D01*
X91443867Y-90717533D01*
X91445312Y-90718638D01*
X91454643Y-90739531D01*
X91457632Y-90770372D01*
X91454277Y-90800919D01*
X91445312Y-90820238D01*
X91431285Y-90825568D01*
X91400552Y-90829390D01*
X91351794Y-90831792D01*
X91283688Y-90832862D01*
X91254812Y-90832938D01*
X91077012Y-90832938D01*
X91077012Y-91139855D01*
X91245049Y-91139855D01*
X91313746Y-91140172D01*
X91364025Y-91141805D01*
X91398632Y-91145777D01*
X91420315Y-91153111D01*
X91431820Y-91164830D01*
X91435893Y-91181956D01*
X91435281Y-91205513D01*
X91434882Y-91210554D01*
X91431553Y-91250980D01*
X91254282Y-91253882D01*
X91077012Y-91256783D01*
X91077012Y-91676959D01*
X91043939Y-91683574D01*
X91011694Y-91688752D01*
X90988817Y-91687654D01*
X90964286Y-91679694D01*
X90963241Y-91679275D01*
X90939428Y-91669704D01*
X90939428Y-91204452D01*
X90939500Y-91091661D01*
X90939757Y-90998179D01*
X90940265Y-90922146D01*
X90941087Y-90861705D01*
X90942287Y-90814997D01*
X90943929Y-90780165D01*
X90946078Y-90755350D01*
X90948798Y-90738693D01*
X90952153Y-90728337D01*
X90956059Y-90722569D01*
X90964417Y-90716985D01*
X90978624Y-90712774D01*
X91001377Y-90709754D01*
X91035372Y-90707744D01*
X91083305Y-90706562D01*
X91147872Y-90706026D01*
X91202651Y-90705938D01*
X91287075Y-90706349D01*
G36*
X90350588Y-89778585D02*
G01*
X90351414Y-89778790D01*
X90368169Y-89785424D01*
X90376127Y-89798495D01*
X90378444Y-89824477D01*
X90378512Y-89834367D01*
X90378512Y-89883143D01*
X90336750Y-89876466D01*
X90293253Y-89875528D01*
X90256998Y-89889843D01*
X90223246Y-89921741D01*
X90210300Y-89938667D01*
X90177965Y-89983693D01*
X90175051Y-90156961D01*
X90172137Y-90330230D01*
X90129419Y-90333374D01*
X90100669Y-90333647D01*
X90081637Y-90330459D01*
X90079148Y-90328964D01*
X90077086Y-90316726D01*
X90075238Y-90286251D01*
X90073686Y-90240468D01*
X90072509Y-90182305D01*
X90071788Y-90114692D01*
X90071595Y-90054533D01*
X90071595Y-89787656D01*
X90099106Y-89782397D01*
X90136282Y-89779769D01*
X90158030Y-89790203D01*
X90166533Y-89815019D01*
X90166845Y-89823309D01*
X90166845Y-89858961D01*
X90201247Y-89821421D01*
X90243913Y-89789736D01*
X90295581Y-89774921D01*
X90350588Y-89778585D01*
G37*
X90350588Y-89778585D02*
X90351414Y-89778790D01*
X90368169Y-89785424D01*
X90376127Y-89798495D01*
X90378444Y-89824477D01*
X90378512Y-89834367D01*
X90378512Y-89883143D01*
X90336750Y-89876466D01*
X90293253Y-89875528D01*
X90256998Y-89889843D01*
X90223246Y-89921741D01*
X90210300Y-89938667D01*
X90177965Y-89983693D01*
X90175051Y-90156961D01*
X90172137Y-90330230D01*
X90129419Y-90333374D01*
X90100669Y-90333647D01*
X90081637Y-90330459D01*
X90079148Y-90328964D01*
X90077086Y-90316726D01*
X90075238Y-90286251D01*
X90073686Y-90240468D01*
X90072509Y-90182305D01*
X90071788Y-90114692D01*
X90071595Y-90054533D01*
X90071595Y-89787656D01*
X90099106Y-89782397D01*
X90136282Y-89779769D01*
X90158030Y-89790203D01*
X90166533Y-89815019D01*
X90166845Y-89823309D01*
X90166845Y-89858961D01*
X90201247Y-89821421D01*
X90243913Y-89789736D01*
X90295581Y-89774921D01*
X90350588Y-89778585D01*
G36*
X94753519Y-91408125D02*
G01*
X94759547Y-91394765D01*
X94788860Y-91350545D01*
X94827876Y-91316311D01*
X94879106Y-91290930D01*
X94945062Y-91273269D01*
X95028255Y-91262194D01*
X95058580Y-91259879D01*
X95162178Y-91253090D01*
X95162022Y-91204410D01*
X95154863Y-91147344D01*
X95133383Y-91105604D01*
X95096951Y-91078591D01*
X95044937Y-91065705D01*
X95014661Y-91064361D01*
X94966620Y-91067703D01*
X94922495Y-91079010D01*
X94879570Y-91096974D01*
X94835835Y-91116510D01*
X94807061Y-91126207D01*
X94789597Y-91126307D01*
X94779792Y-91117052D01*
X94775211Y-91103890D01*
X94772122Y-91062984D01*
X94786052Y-91029273D01*
X94818036Y-91001763D01*
X94869111Y-90979457D01*
X94918667Y-90965973D01*
X95012779Y-90951520D01*
X95095417Y-90953335D01*
X95165858Y-90971209D01*
X95223382Y-91004937D01*
X95267269Y-91054309D01*
X95275852Y-91068756D01*
X95281570Y-91081473D01*
X95286094Y-91098044D01*
X95289605Y-91121088D01*
X95292285Y-91153221D01*
X95294317Y-91197062D01*
X95295882Y-91255228D01*
X95297161Y-91330339D01*
X95297883Y-91385887D01*
X95301297Y-91668962D01*
X95272232Y-91680012D01*
X95239546Y-91686102D01*
X95213256Y-91684493D01*
X95192805Y-91676945D01*
X95184591Y-91661685D01*
X95183345Y-91640781D01*
X95183345Y-91603640D01*
X95149546Y-91632080D01*
X95088391Y-91670249D01*
X95017645Y-91689770D01*
X94936943Y-91690735D01*
X94923644Y-91689246D01*
X94859139Y-91674045D01*
X94808583Y-91647339D01*
X94789494Y-91630030D01*
X94759611Y-91582589D01*
X94743055Y-91525080D01*
X94741653Y-91488663D01*
X94876522Y-91488663D01*
X94890774Y-91528937D01*
X94908992Y-91551791D01*
X94934671Y-91573211D01*
X94961224Y-91582578D01*
X94991013Y-91584315D01*
X95045264Y-91576182D01*
X95077512Y-91562037D01*
X95118268Y-91535681D01*
X95143460Y-91512543D01*
X95156719Y-91486921D01*
X95161676Y-91453112D01*
X95162178Y-91429052D01*
X95162178Y-91362105D01*
X95075561Y-91362105D01*
X95021193Y-91363970D01*
X94980747Y-91370325D01*
X94947249Y-91382307D01*
X94944897Y-91383428D01*
X94904380Y-91412173D01*
X94881323Y-91448496D01*
X94876522Y-91488663D01*
X94741653Y-91488663D01*
X94740724Y-91464569D01*
X94753519Y-91408125D01*
G37*
X94753519Y-91408125D02*
X94759547Y-91394765D01*
X94788860Y-91350545D01*
X94827876Y-91316311D01*
X94879106Y-91290930D01*
X94945062Y-91273269D01*
X95028255Y-91262194D01*
X95058580Y-91259879D01*
X95162178Y-91253090D01*
X95162022Y-91204410D01*
X95154863Y-91147344D01*
X95133383Y-91105604D01*
X95096951Y-91078591D01*
X95044937Y-91065705D01*
X95014661Y-91064361D01*
X94966620Y-91067703D01*
X94922495Y-91079010D01*
X94879570Y-91096974D01*
X94835835Y-91116510D01*
X94807061Y-91126207D01*
X94789597Y-91126307D01*
X94779792Y-91117052D01*
X94775211Y-91103890D01*
X94772122Y-91062984D01*
X94786052Y-91029273D01*
X94818036Y-91001763D01*
X94869111Y-90979457D01*
X94918667Y-90965973D01*
X95012779Y-90951520D01*
X95095417Y-90953335D01*
X95165858Y-90971209D01*
X95223382Y-91004937D01*
X95267269Y-91054309D01*
X95275852Y-91068756D01*
X95281570Y-91081473D01*
X95286094Y-91098044D01*
X95289605Y-91121088D01*
X95292285Y-91153221D01*
X95294317Y-91197062D01*
X95295882Y-91255228D01*
X95297161Y-91330339D01*
X95297883Y-91385887D01*
X95301297Y-91668962D01*
X95272232Y-91680012D01*
X95239546Y-91686102D01*
X95213256Y-91684493D01*
X95192805Y-91676945D01*
X95184591Y-91661685D01*
X95183345Y-91640781D01*
X95183345Y-91603640D01*
X95149546Y-91632080D01*
X95088391Y-91670249D01*
X95017645Y-91689770D01*
X94936943Y-91690735D01*
X94923644Y-91689246D01*
X94859139Y-91674045D01*
X94808583Y-91647339D01*
X94789494Y-91630030D01*
X94759611Y-91582589D01*
X94743055Y-91525080D01*
X94741653Y-91488663D01*
X94876522Y-91488663D01*
X94890774Y-91528937D01*
X94908992Y-91551791D01*
X94934671Y-91573211D01*
X94961224Y-91582578D01*
X94991013Y-91584315D01*
X95045264Y-91576182D01*
X95077512Y-91562037D01*
X95118268Y-91535681D01*
X95143460Y-91512543D01*
X95156719Y-91486921D01*
X95161676Y-91453112D01*
X95162178Y-91429052D01*
X95162178Y-91362105D01*
X95075561Y-91362105D01*
X95021193Y-91363970D01*
X94980747Y-91370325D01*
X94947249Y-91382307D01*
X94944897Y-91383428D01*
X94904380Y-91412173D01*
X94881323Y-91448496D01*
X94876522Y-91488663D01*
X94741653Y-91488663D01*
X94740724Y-91464569D01*
X94753519Y-91408125D01*
G36*
X88038852Y-89974662D02*
G01*
X88045181Y-89945096D01*
X88055751Y-89917735D01*
X88059792Y-89909232D01*
X88098751Y-89850428D01*
X88149986Y-89808578D01*
X88213960Y-89783416D01*
X88291139Y-89774675D01*
X88294823Y-89774664D01*
X88372472Y-89782250D01*
X88435477Y-89805006D01*
X88484104Y-89843193D01*
X88518622Y-89897071D01*
X88539295Y-89966901D01*
X88545357Y-90019646D01*
X88543641Y-90110290D01*
X88526907Y-90186344D01*
X88495315Y-90247590D01*
X88449023Y-90293811D01*
X88388193Y-90324790D01*
X88312985Y-90340310D01*
X88308884Y-90340673D01*
X88255148Y-90340906D01*
X88204278Y-90333950D01*
X88195210Y-90331655D01*
X88136072Y-90304253D01*
X88086709Y-90258467D01*
X88057379Y-90213813D01*
X88046416Y-90189597D01*
X88039606Y-90163000D01*
X88036067Y-90128220D01*
X88034918Y-90079452D01*
X88034900Y-90065647D01*
X88035108Y-90052829D01*
X88142718Y-90052829D01*
X88148337Y-90125861D01*
X88165973Y-90181607D01*
X88195886Y-90220386D01*
X88238340Y-90242518D01*
X88293597Y-90248321D01*
X88303310Y-90247780D01*
X88340638Y-90242929D01*
X88365772Y-90232710D01*
X88387627Y-90213300D01*
X88390103Y-90210564D01*
X88421387Y-90160106D01*
X88437753Y-90096824D01*
X88438656Y-90026019D01*
X88425534Y-89962678D01*
X88399773Y-89913381D01*
X88362968Y-89879749D01*
X88316715Y-89863406D01*
X88278636Y-89863234D01*
X88224703Y-89878894D01*
X88184132Y-89910827D01*
X88157164Y-89958695D01*
X88144041Y-90022163D01*
X88142718Y-90052829D01*
X88035108Y-90052829D01*
X88035760Y-90012743D01*
X88038852Y-89974662D01*
G37*
X88038852Y-89974662D02*
X88045181Y-89945096D01*
X88055751Y-89917735D01*
X88059792Y-89909232D01*
X88098751Y-89850428D01*
X88149986Y-89808578D01*
X88213960Y-89783416D01*
X88291139Y-89774675D01*
X88294823Y-89774664D01*
X88372472Y-89782250D01*
X88435477Y-89805006D01*
X88484104Y-89843193D01*
X88518622Y-89897071D01*
X88539295Y-89966901D01*
X88545357Y-90019646D01*
X88543641Y-90110290D01*
X88526907Y-90186344D01*
X88495315Y-90247590D01*
X88449023Y-90293811D01*
X88388193Y-90324790D01*
X88312985Y-90340310D01*
X88308884Y-90340673D01*
X88255148Y-90340906D01*
X88204278Y-90333950D01*
X88195210Y-90331655D01*
X88136072Y-90304253D01*
X88086709Y-90258467D01*
X88057379Y-90213813D01*
X88046416Y-90189597D01*
X88039606Y-90163000D01*
X88036067Y-90128220D01*
X88034918Y-90079452D01*
X88034900Y-90065647D01*
X88035108Y-90052829D01*
X88142718Y-90052829D01*
X88148337Y-90125861D01*
X88165973Y-90181607D01*
X88195886Y-90220386D01*
X88238340Y-90242518D01*
X88293597Y-90248321D01*
X88303310Y-90247780D01*
X88340638Y-90242929D01*
X88365772Y-90232710D01*
X88387627Y-90213300D01*
X88390103Y-90210564D01*
X88421387Y-90160106D01*
X88437753Y-90096824D01*
X88438656Y-90026019D01*
X88425534Y-89962678D01*
X88399773Y-89913381D01*
X88362968Y-89879749D01*
X88316715Y-89863406D01*
X88278636Y-89863234D01*
X88224703Y-89878894D01*
X88184132Y-89910827D01*
X88157164Y-89958695D01*
X88144041Y-90022163D01*
X88142718Y-90052829D01*
X88035108Y-90052829D01*
X88035760Y-90012743D01*
X88038852Y-89974662D01*
G36*
X96007598Y-91160187D02*
G01*
X96042037Y-91085898D01*
X96089801Y-91027982D01*
X96151050Y-90986271D01*
X96225945Y-90960603D01*
X96276412Y-90952933D01*
X96355862Y-90954372D01*
X96428202Y-90972970D01*
X96490806Y-91007139D01*
X96541050Y-91055293D01*
X96576309Y-91115846D01*
X96584463Y-91139130D01*
X96593970Y-91181693D01*
X96599545Y-91228421D01*
X96601063Y-91273488D01*
X96598396Y-91311070D01*
X96591416Y-91335341D01*
X96588812Y-91338822D01*
X96576787Y-91343444D01*
X96550111Y-91346943D01*
X96507253Y-91349398D01*
X96446678Y-91350890D01*
X96366855Y-91351498D01*
X96344465Y-91351522D01*
X96112818Y-91351522D01*
X96119944Y-91396501D01*
X96137836Y-91461610D01*
X96167954Y-91515432D01*
X96206350Y-91552605D01*
X96228517Y-91565866D01*
X96250950Y-91573774D01*
X96280050Y-91577610D01*
X96322215Y-91578658D01*
X96336153Y-91578632D01*
X96400610Y-91575620D01*
X96453478Y-91566354D01*
X96489516Y-91554997D01*
X96528299Y-91542260D01*
X96552615Y-91538773D01*
X96566245Y-91543495D01*
X96577891Y-91565123D01*
X96579168Y-91596042D01*
X96569882Y-91626462D01*
X96548782Y-91646432D01*
X96510776Y-91663742D01*
X96460041Y-91677575D01*
X96400757Y-91687113D01*
X96337104Y-91691539D01*
X96273260Y-91690035D01*
X96254099Y-91688238D01*
X96174121Y-91671106D01*
X96108551Y-91638992D01*
X96056875Y-91591363D01*
X96018576Y-91527680D01*
X95993137Y-91447408D01*
X95986389Y-91410147D01*
X95979947Y-91340960D01*
X95983198Y-91274550D01*
X95985624Y-91256272D01*
X96115207Y-91256272D01*
X96476867Y-91256272D01*
X96469521Y-91216584D01*
X96450287Y-91152013D01*
X96419277Y-91104699D01*
X96375729Y-91073825D01*
X96322750Y-91059071D01*
X96266598Y-91061334D01*
X96214997Y-91082063D01*
X96171239Y-91118596D01*
X96138614Y-91168270D01*
X96121516Y-91221876D01*
X96115207Y-91256272D01*
X95985624Y-91256272D01*
X95986323Y-91251011D01*
X96007598Y-91160187D01*
G37*
X96007598Y-91160187D02*
X96042037Y-91085898D01*
X96089801Y-91027982D01*
X96151050Y-90986271D01*
X96225945Y-90960603D01*
X96276412Y-90952933D01*
X96355862Y-90954372D01*
X96428202Y-90972970D01*
X96490806Y-91007139D01*
X96541050Y-91055293D01*
X96576309Y-91115846D01*
X96584463Y-91139130D01*
X96593970Y-91181693D01*
X96599545Y-91228421D01*
X96601063Y-91273488D01*
X96598396Y-91311070D01*
X96591416Y-91335341D01*
X96588812Y-91338822D01*
X96576787Y-91343444D01*
X96550111Y-91346943D01*
X96507253Y-91349398D01*
X96446678Y-91350890D01*
X96366855Y-91351498D01*
X96344465Y-91351522D01*
X96112818Y-91351522D01*
X96119944Y-91396501D01*
X96137836Y-91461610D01*
X96167954Y-91515432D01*
X96206350Y-91552605D01*
X96228517Y-91565866D01*
X96250950Y-91573774D01*
X96280050Y-91577610D01*
X96322215Y-91578658D01*
X96336153Y-91578632D01*
X96400610Y-91575620D01*
X96453478Y-91566354D01*
X96489516Y-91554997D01*
X96528299Y-91542260D01*
X96552615Y-91538773D01*
X96566245Y-91543495D01*
X96577891Y-91565123D01*
X96579168Y-91596042D01*
X96569882Y-91626462D01*
X96548782Y-91646432D01*
X96510776Y-91663742D01*
X96460041Y-91677575D01*
X96400757Y-91687113D01*
X96337104Y-91691539D01*
X96273260Y-91690035D01*
X96254099Y-91688238D01*
X96174121Y-91671106D01*
X96108551Y-91638992D01*
X96056875Y-91591363D01*
X96018576Y-91527680D01*
X95993137Y-91447408D01*
X95986389Y-91410147D01*
X95979947Y-91340960D01*
X95983198Y-91274550D01*
X95985624Y-91256272D01*
X96115207Y-91256272D01*
X96476867Y-91256272D01*
X96469521Y-91216584D01*
X96450287Y-91152013D01*
X96419277Y-91104699D01*
X96375729Y-91073825D01*
X96322750Y-91059071D01*
X96266598Y-91061334D01*
X96214997Y-91082063D01*
X96171239Y-91118596D01*
X96138614Y-91168270D01*
X96121516Y-91221876D01*
X96115207Y-91256272D01*
X95985624Y-91256272D01*
X95986323Y-91251011D01*
X96007598Y-91160187D01*
G36*
X93750087Y-90961152D02*
G01*
X93760420Y-90967516D01*
X93770111Y-90980711D01*
X93780248Y-91002837D01*
X93791917Y-91035995D01*
X93806204Y-91082283D01*
X93824195Y-91143802D01*
X93846976Y-91222651D01*
X93856918Y-91256917D01*
X93876929Y-91324785D01*
X93895304Y-91385337D01*
X93911155Y-91435785D01*
X93923592Y-91473337D01*
X93931724Y-91495203D01*
X93934330Y-91499688D01*
X93938808Y-91489906D01*
X93947796Y-91462406D01*
X93960484Y-91419956D01*
X93976062Y-91365325D01*
X93993719Y-91301281D01*
X94007945Y-91248334D01*
X94026893Y-91177748D01*
X94044545Y-91113300D01*
X94060040Y-91058034D01*
X94072516Y-91014996D01*
X94081109Y-90987230D01*
X94084380Y-90978459D01*
X94100450Y-90967130D01*
X94128986Y-90960705D01*
X94161783Y-90959541D01*
X94190635Y-90963992D01*
X94206502Y-90973167D01*
X94212064Y-90986657D01*
X94222425Y-91017604D01*
X94236684Y-91063082D01*
X94253936Y-91120166D01*
X94273279Y-91185928D01*
X94288961Y-91240397D01*
X94309070Y-91310558D01*
X94327453Y-91374067D01*
X94343264Y-91428054D01*
X94355658Y-91469648D01*
X94363788Y-91495981D01*
X94366625Y-91504074D01*
X94370805Y-91496978D01*
X94379939Y-91472044D01*
X94393216Y-91431801D01*
X94409825Y-91378777D01*
X94428957Y-91315503D01*
X94449592Y-91245222D01*
X94470715Y-91173092D01*
X94490339Y-91107606D01*
X94507597Y-91051536D01*
X94521621Y-91007658D01*
X94531546Y-90978744D01*
X94536374Y-90967675D01*
X94551469Y-90963029D01*
X94579695Y-90961367D01*
X94597139Y-90961944D01*
X94628465Y-90965103D01*
X94644367Y-90971470D01*
X94650591Y-90984179D01*
X94651652Y-90991688D01*
X94649251Y-91007945D01*
X94641240Y-91041147D01*
X94628537Y-91088302D01*
X94612060Y-91146418D01*
X94592725Y-91212501D01*
X94571450Y-91283561D01*
X94549152Y-91356605D01*
X94526749Y-91428639D01*
X94505158Y-91496673D01*
X94485297Y-91557714D01*
X94468083Y-91608770D01*
X94454432Y-91646848D01*
X94445264Y-91668956D01*
X94442789Y-91672953D01*
X94423730Y-91680763D01*
X94391722Y-91684375D01*
X94354517Y-91684010D01*
X94319870Y-91679886D01*
X94295530Y-91672223D01*
X94290793Y-91668650D01*
X94283777Y-91654173D01*
X94272222Y-91622535D01*
X94257189Y-91576991D01*
X94239742Y-91520791D01*
X94220940Y-91457190D01*
X94214919Y-91436188D01*
X94196313Y-91371210D01*
X94179359Y-91312802D01*
X94165002Y-91264154D01*
X94154187Y-91228455D01*
X94147858Y-91208896D01*
X94146921Y-91206539D01*
X94142592Y-91212607D01*
X94133852Y-91236519D01*
X94121520Y-91275612D01*
X94106415Y-91327218D01*
X94089356Y-91388673D01*
X94078622Y-91428789D01*
X94060578Y-91496300D01*
X94043946Y-91556945D01*
X94029585Y-91607725D01*
X94018351Y-91645639D01*
X94011101Y-91667689D01*
X94009140Y-91671949D01*
X93993203Y-91678507D01*
X93963727Y-91683203D01*
X93928299Y-91685518D01*
X93894505Y-91684938D01*
X93871208Y-91681349D01*
X93863576Y-91677803D01*
X93856113Y-91670585D01*
X93848035Y-91657632D01*
X93838557Y-91636878D01*
X93826895Y-91606258D01*
X93812263Y-91563708D01*
X93793876Y-91507162D01*
X93770950Y-91434556D01*
X93742701Y-91343824D01*
X93741672Y-91340507D01*
X93716863Y-91259658D01*
X93694348Y-91184612D01*
X93674853Y-91117924D01*
X93659106Y-91062149D01*
X93647834Y-91019843D01*
X93641763Y-90993560D01*
X93640934Y-90986397D01*
X93645489Y-90974071D01*
X93658782Y-90966989D01*
X93685862Y-90963215D01*
X93704384Y-90962054D01*
X93723156Y-90960521D01*
X93738028Y-90959521D01*
X93750087Y-90961152D01*
G37*
X93750087Y-90961152D02*
X93760420Y-90967516D01*
X93770111Y-90980711D01*
X93780248Y-91002837D01*
X93791917Y-91035995D01*
X93806204Y-91082283D01*
X93824195Y-91143802D01*
X93846976Y-91222651D01*
X93856918Y-91256917D01*
X93876929Y-91324785D01*
X93895304Y-91385337D01*
X93911155Y-91435785D01*
X93923592Y-91473337D01*
X93931724Y-91495203D01*
X93934330Y-91499688D01*
X93938808Y-91489906D01*
X93947796Y-91462406D01*
X93960484Y-91419956D01*
X93976062Y-91365325D01*
X93993719Y-91301281D01*
X94007945Y-91248334D01*
X94026893Y-91177748D01*
X94044545Y-91113300D01*
X94060040Y-91058034D01*
X94072516Y-91014996D01*
X94081109Y-90987230D01*
X94084380Y-90978459D01*
X94100450Y-90967130D01*
X94128986Y-90960705D01*
X94161783Y-90959541D01*
X94190635Y-90963992D01*
X94206502Y-90973167D01*
X94212064Y-90986657D01*
X94222425Y-91017604D01*
X94236684Y-91063082D01*
X94253936Y-91120166D01*
X94273279Y-91185928D01*
X94288961Y-91240397D01*
X94309070Y-91310558D01*
X94327453Y-91374067D01*
X94343264Y-91428054D01*
X94355658Y-91469648D01*
X94363788Y-91495981D01*
X94366625Y-91504074D01*
X94370805Y-91496978D01*
X94379939Y-91472044D01*
X94393216Y-91431801D01*
X94409825Y-91378777D01*
X94428957Y-91315503D01*
X94449592Y-91245222D01*
X94470715Y-91173092D01*
X94490339Y-91107606D01*
X94507597Y-91051536D01*
X94521621Y-91007658D01*
X94531546Y-90978744D01*
X94536374Y-90967675D01*
X94551469Y-90963029D01*
X94579695Y-90961367D01*
X94597139Y-90961944D01*
X94628465Y-90965103D01*
X94644367Y-90971470D01*
X94650591Y-90984179D01*
X94651652Y-90991688D01*
X94649251Y-91007945D01*
X94641240Y-91041147D01*
X94628537Y-91088302D01*
X94612060Y-91146418D01*
X94592725Y-91212501D01*
X94571450Y-91283561D01*
X94549152Y-91356605D01*
X94526749Y-91428639D01*
X94505158Y-91496673D01*
X94485297Y-91557714D01*
X94468083Y-91608770D01*
X94454432Y-91646848D01*
X94445264Y-91668956D01*
X94442789Y-91672953D01*
X94423730Y-91680763D01*
X94391722Y-91684375D01*
X94354517Y-91684010D01*
X94319870Y-91679886D01*
X94295530Y-91672223D01*
X94290793Y-91668650D01*
X94283777Y-91654173D01*
X94272222Y-91622535D01*
X94257189Y-91576991D01*
X94239742Y-91520791D01*
X94220940Y-91457190D01*
X94214919Y-91436188D01*
X94196313Y-91371210D01*
X94179359Y-91312802D01*
X94165002Y-91264154D01*
X94154187Y-91228455D01*
X94147858Y-91208896D01*
X94146921Y-91206539D01*
X94142592Y-91212607D01*
X94133852Y-91236519D01*
X94121520Y-91275612D01*
X94106415Y-91327218D01*
X94089356Y-91388673D01*
X94078622Y-91428789D01*
X94060578Y-91496300D01*
X94043946Y-91556945D01*
X94029585Y-91607725D01*
X94018351Y-91645639D01*
X94011101Y-91667689D01*
X94009140Y-91671949D01*
X93993203Y-91678507D01*
X93963727Y-91683203D01*
X93928299Y-91685518D01*
X93894505Y-91684938D01*
X93871208Y-91681349D01*
X93863576Y-91677803D01*
X93856113Y-91670585D01*
X93848035Y-91657632D01*
X93838557Y-91636878D01*
X93826895Y-91606258D01*
X93812263Y-91563708D01*
X93793876Y-91507162D01*
X93770950Y-91434556D01*
X93742701Y-91343824D01*
X93741672Y-91340507D01*
X93716863Y-91259658D01*
X93694348Y-91184612D01*
X93674853Y-91117924D01*
X93659106Y-91062149D01*
X93647834Y-91019843D01*
X93641763Y-90993560D01*
X93640934Y-90986397D01*
X93645489Y-90974071D01*
X93658782Y-90966989D01*
X93685862Y-90963215D01*
X93704384Y-90962054D01*
X93723156Y-90960521D01*
X93738028Y-90959521D01*
X93750087Y-90961152D01*
G36*
X125718937Y-89606279D02*
G01*
X125718967Y-89567525D01*
X125719630Y-89536343D01*
X125721044Y-89510419D01*
X125723330Y-89487439D01*
X125726605Y-89465090D01*
X125730989Y-89441059D01*
X125735635Y-89417787D01*
X125769862Y-89285284D01*
X125817592Y-89157198D01*
X125878280Y-89034292D01*
X125951383Y-88917328D01*
X126036356Y-88807068D01*
X126132656Y-88704277D01*
X126239738Y-88609716D01*
X126357058Y-88524148D01*
X126386856Y-88504922D01*
X126463257Y-88461918D01*
X126549270Y-88422316D01*
X126640070Y-88388040D01*
X126730829Y-88361014D01*
X126772281Y-88351325D01*
X126793139Y-88347255D01*
X126814183Y-88344028D01*
X126837403Y-88341549D01*
X126864785Y-88339721D01*
X126898318Y-88338450D01*
X126939989Y-88337639D01*
X126991786Y-88337195D01*
X127055697Y-88337021D01*
X127070647Y-88337010D01*
X127137002Y-88337067D01*
X127190887Y-88337376D01*
X127234343Y-88338036D01*
X127269413Y-88339147D01*
X127298140Y-88340807D01*
X127322565Y-88343117D01*
X127344733Y-88346174D01*
X127366684Y-88350079D01*
X127375447Y-88351816D01*
X127497695Y-88383769D01*
X127618045Y-88429361D01*
X127735147Y-88487730D01*
X127847648Y-88558012D01*
X127954200Y-88639342D01*
X128053451Y-88730857D01*
X128144052Y-88831692D01*
X128163205Y-88855702D01*
X128238841Y-88964214D01*
X128303954Y-89081875D01*
X128357833Y-89207138D01*
X128399768Y-89338456D01*
X128415985Y-89405676D01*
X128420678Y-89436402D01*
X128424436Y-89479029D01*
X128427260Y-89530971D01*
X128429153Y-89589644D01*
X128430117Y-89652465D01*
X128430155Y-89716848D01*
X128429269Y-89780210D01*
X128427460Y-89839966D01*
X128424732Y-89893533D01*
X128421087Y-89938326D01*
X128416527Y-89971760D01*
X128415472Y-89977011D01*
X128378628Y-90113879D01*
X128329105Y-90243696D01*
X128266940Y-90366396D01*
X128192167Y-90481915D01*
X128104822Y-90590186D01*
X128049761Y-90648298D01*
X128009354Y-90687136D01*
X127969538Y-90722712D01*
X127932817Y-90752929D01*
X127901695Y-90775691D01*
X127886376Y-90785103D01*
X127873625Y-90792715D01*
X127852121Y-90806197D01*
X127825227Y-90823421D01*
X127804758Y-90836720D01*
X127716294Y-90888715D01*
X127618030Y-90936178D01*
X127514425Y-90977298D01*
X127409934Y-91010263D01*
X127331904Y-91028905D01*
X127306764Y-91033634D01*
X127282468Y-91037241D01*
X127256563Y-91039859D01*
X127226599Y-91041621D01*
X127190123Y-91042658D01*
X127144685Y-91043103D01*
X127087833Y-91043089D01*
X127070647Y-91043026D01*
X126998028Y-91042266D01*
X126936024Y-91040667D01*
X126885696Y-91038274D01*
X126848107Y-91035134D01*
X126830897Y-91032693D01*
X126711001Y-91004089D01*
X126590818Y-90962519D01*
X126473266Y-90909174D01*
X126361261Y-90845242D01*
X126344054Y-90834113D01*
X126316663Y-90816313D01*
X126293880Y-90801927D01*
X126278323Y-90792580D01*
X126272727Y-90789811D01*
X126264408Y-90785211D01*
X126247736Y-90772721D01*
X126225017Y-90754306D01*
X126198553Y-90731931D01*
X126170648Y-90707562D01*
X126143605Y-90683163D01*
X126119729Y-90660701D01*
X126109220Y-90650327D01*
X126015148Y-90545571D01*
X125933125Y-90433381D01*
X125862866Y-90313242D01*
X125804083Y-90184638D01*
X125756491Y-90047055D01*
X125739207Y-89984268D01*
X125734459Y-89964270D01*
X125730685Y-89944271D01*
X125727735Y-89922155D01*
X125725462Y-89895805D01*
X125723715Y-89863107D01*
X125722347Y-89821942D01*
X125721207Y-89770196D01*
X125720298Y-89715754D01*
X125719858Y-89685262D01*
X125979367Y-89685262D01*
X125985651Y-89807020D01*
X126005582Y-89926928D01*
X126038853Y-90043476D01*
X126085160Y-90155155D01*
X126119610Y-90220125D01*
X126174837Y-90307393D01*
X126235675Y-90386770D01*
X126304301Y-90460587D01*
X126382889Y-90531170D01*
X126473616Y-90600849D01*
X126478883Y-90604617D01*
X126516507Y-90628771D01*
X126563804Y-90655119D01*
X126616566Y-90681613D01*
X126670582Y-90706209D01*
X126721643Y-90726862D01*
X126752618Y-90737637D01*
X126834785Y-90758632D01*
X126926393Y-90773032D01*
X127023832Y-90780591D01*
X127123492Y-90781066D01*
X127221764Y-90774212D01*
X127247131Y-90771134D01*
X127337301Y-90755465D01*
X127420083Y-90732758D01*
X127501627Y-90701215D01*
X127528987Y-90688715D01*
X127640835Y-90628528D01*
X127744698Y-90557810D01*
X127839511Y-90477589D01*
X127924213Y-90388895D01*
X127997738Y-90292757D01*
X128059025Y-90190203D01*
X128073087Y-90162068D01*
X128092616Y-90117908D01*
X128111769Y-90068466D01*
X128129065Y-90018102D01*
X128143022Y-89971179D01*
X128152160Y-89932057D01*
X128153174Y-89926211D01*
X128157129Y-89902816D01*
X128160703Y-89883481D01*
X128161621Y-89879039D01*
X128164321Y-89858783D01*
X128166478Y-89827086D01*
X128168063Y-89787012D01*
X128169048Y-89741624D01*
X128169403Y-89693988D01*
X128169099Y-89647166D01*
X128168106Y-89604223D01*
X128166397Y-89568224D01*
X128164762Y-89548839D01*
X128144621Y-89430899D01*
X128110738Y-89315850D01*
X128063796Y-89204974D01*
X128004480Y-89099550D01*
X127933470Y-89000858D01*
X127851451Y-88910180D01*
X127797501Y-88860378D01*
X127706880Y-88787737D01*
X127617689Y-88727997D01*
X127527785Y-88680369D01*
X127435026Y-88644065D01*
X127337269Y-88618296D01*
X127232370Y-88602275D01*
X127118188Y-88595212D01*
X127075415Y-88594711D01*
X126966475Y-88598253D01*
X126867731Y-88609264D01*
X126776637Y-88628263D01*
X126690647Y-88655768D01*
X126614587Y-88688677D01*
X126507568Y-88748649D01*
X126407211Y-88820712D01*
X126314622Y-88903549D01*
X126230907Y-88995841D01*
X126157171Y-89096272D01*
X126094520Y-89203523D01*
X126044060Y-89316278D01*
X126015051Y-89403064D01*
X126009080Y-89424446D01*
X126004455Y-89443118D01*
X126000590Y-89462432D01*
X125996899Y-89485739D01*
X125992794Y-89516389D01*
X125987690Y-89557734D01*
X125987032Y-89563163D01*
X125979367Y-89685262D01*
X125719858Y-89685262D01*
X125719420Y-89654917D01*
X125718937Y-89606279D01*
G37*
X125718937Y-89606279D02*
X125718967Y-89567525D01*
X125719630Y-89536343D01*
X125721044Y-89510419D01*
X125723330Y-89487439D01*
X125726605Y-89465090D01*
X125730989Y-89441059D01*
X125735635Y-89417787D01*
X125769862Y-89285284D01*
X125817592Y-89157198D01*
X125878280Y-89034292D01*
X125951383Y-88917328D01*
X126036356Y-88807068D01*
X126132656Y-88704277D01*
X126239738Y-88609716D01*
X126357058Y-88524148D01*
X126386856Y-88504922D01*
X126463257Y-88461918D01*
X126549270Y-88422316D01*
X126640070Y-88388040D01*
X126730829Y-88361014D01*
X126772281Y-88351325D01*
X126793139Y-88347255D01*
X126814183Y-88344028D01*
X126837403Y-88341549D01*
X126864785Y-88339721D01*
X126898318Y-88338450D01*
X126939989Y-88337639D01*
X126991786Y-88337195D01*
X127055697Y-88337021D01*
X127070647Y-88337010D01*
X127137002Y-88337067D01*
X127190887Y-88337376D01*
X127234343Y-88338036D01*
X127269413Y-88339147D01*
X127298140Y-88340807D01*
X127322565Y-88343117D01*
X127344733Y-88346174D01*
X127366684Y-88350079D01*
X127375447Y-88351816D01*
X127497695Y-88383769D01*
X127618045Y-88429361D01*
X127735147Y-88487730D01*
X127847648Y-88558012D01*
X127954200Y-88639342D01*
X128053451Y-88730857D01*
X128144052Y-88831692D01*
X128163205Y-88855702D01*
X128238841Y-88964214D01*
X128303954Y-89081875D01*
X128357833Y-89207138D01*
X128399768Y-89338456D01*
X128415985Y-89405676D01*
X128420678Y-89436402D01*
X128424436Y-89479029D01*
X128427260Y-89530971D01*
X128429153Y-89589644D01*
X128430117Y-89652465D01*
X128430155Y-89716848D01*
X128429269Y-89780210D01*
X128427460Y-89839966D01*
X128424732Y-89893533D01*
X128421087Y-89938326D01*
X128416527Y-89971760D01*
X128415472Y-89977011D01*
X128378628Y-90113879D01*
X128329105Y-90243696D01*
X128266940Y-90366396D01*
X128192167Y-90481915D01*
X128104822Y-90590186D01*
X128049761Y-90648298D01*
X128009354Y-90687136D01*
X127969538Y-90722712D01*
X127932817Y-90752929D01*
X127901695Y-90775691D01*
X127886376Y-90785103D01*
X127873625Y-90792715D01*
X127852121Y-90806197D01*
X127825227Y-90823421D01*
X127804758Y-90836720D01*
X127716294Y-90888715D01*
X127618030Y-90936178D01*
X127514425Y-90977298D01*
X127409934Y-91010263D01*
X127331904Y-91028905D01*
X127306764Y-91033634D01*
X127282468Y-91037241D01*
X127256563Y-91039859D01*
X127226599Y-91041621D01*
X127190123Y-91042658D01*
X127144685Y-91043103D01*
X127087833Y-91043089D01*
X127070647Y-91043026D01*
X126998028Y-91042266D01*
X126936024Y-91040667D01*
X126885696Y-91038274D01*
X126848107Y-91035134D01*
X126830897Y-91032693D01*
X126711001Y-91004089D01*
X126590818Y-90962519D01*
X126473266Y-90909174D01*
X126361261Y-90845242D01*
X126344054Y-90834113D01*
X126316663Y-90816313D01*
X126293880Y-90801927D01*
X126278323Y-90792580D01*
X126272727Y-90789811D01*
X126264408Y-90785211D01*
X126247736Y-90772721D01*
X126225017Y-90754306D01*
X126198553Y-90731931D01*
X126170648Y-90707562D01*
X126143605Y-90683163D01*
X126119729Y-90660701D01*
X126109220Y-90650327D01*
X126015148Y-90545571D01*
X125933125Y-90433381D01*
X125862866Y-90313242D01*
X125804083Y-90184638D01*
X125756491Y-90047055D01*
X125739207Y-89984268D01*
X125734459Y-89964270D01*
X125730685Y-89944271D01*
X125727735Y-89922155D01*
X125725462Y-89895805D01*
X125723715Y-89863107D01*
X125722347Y-89821942D01*
X125721207Y-89770196D01*
X125720298Y-89715754D01*
X125719858Y-89685262D01*
X125979367Y-89685262D01*
X125985651Y-89807020D01*
X126005582Y-89926928D01*
X126038853Y-90043476D01*
X126085160Y-90155155D01*
X126119610Y-90220125D01*
X126174837Y-90307393D01*
X126235675Y-90386770D01*
X126304301Y-90460587D01*
X126382889Y-90531170D01*
X126473616Y-90600849D01*
X126478883Y-90604617D01*
X126516507Y-90628771D01*
X126563804Y-90655119D01*
X126616566Y-90681613D01*
X126670582Y-90706209D01*
X126721643Y-90726862D01*
X126752618Y-90737637D01*
X126834785Y-90758632D01*
X126926393Y-90773032D01*
X127023832Y-90780591D01*
X127123492Y-90781066D01*
X127221764Y-90774212D01*
X127247131Y-90771134D01*
X127337301Y-90755465D01*
X127420083Y-90732758D01*
X127501627Y-90701215D01*
X127528987Y-90688715D01*
X127640835Y-90628528D01*
X127744698Y-90557810D01*
X127839511Y-90477589D01*
X127924213Y-90388895D01*
X127997738Y-90292757D01*
X128059025Y-90190203D01*
X128073087Y-90162068D01*
X128092616Y-90117908D01*
X128111769Y-90068466D01*
X128129065Y-90018102D01*
X128143022Y-89971179D01*
X128152160Y-89932057D01*
X128153174Y-89926211D01*
X128157129Y-89902816D01*
X128160703Y-89883481D01*
X128161621Y-89879039D01*
X128164321Y-89858783D01*
X128166478Y-89827086D01*
X128168063Y-89787012D01*
X128169048Y-89741624D01*
X128169403Y-89693988D01*
X128169099Y-89647166D01*
X128168106Y-89604223D01*
X128166397Y-89568224D01*
X128164762Y-89548839D01*
X128144621Y-89430899D01*
X128110738Y-89315850D01*
X128063796Y-89204974D01*
X128004480Y-89099550D01*
X127933470Y-89000858D01*
X127851451Y-88910180D01*
X127797501Y-88860378D01*
X127706880Y-88787737D01*
X127617689Y-88727997D01*
X127527785Y-88680369D01*
X127435026Y-88644065D01*
X127337269Y-88618296D01*
X127232370Y-88602275D01*
X127118188Y-88595212D01*
X127075415Y-88594711D01*
X126966475Y-88598253D01*
X126867731Y-88609264D01*
X126776637Y-88628263D01*
X126690647Y-88655768D01*
X126614587Y-88688677D01*
X126507568Y-88748649D01*
X126407211Y-88820712D01*
X126314622Y-88903549D01*
X126230907Y-88995841D01*
X126157171Y-89096272D01*
X126094520Y-89203523D01*
X126044060Y-89316278D01*
X126015051Y-89403064D01*
X126009080Y-89424446D01*
X126004455Y-89443118D01*
X126000590Y-89462432D01*
X125996899Y-89485739D01*
X125992794Y-89516389D01*
X125987690Y-89557734D01*
X125987032Y-89563163D01*
X125979367Y-89685262D01*
X125719858Y-89685262D01*
X125719420Y-89654917D01*
X125718937Y-89606279D01*
G36*
X130018711Y-88806088D02*
G01*
X130042720Y-88808573D01*
X130062875Y-88814041D01*
X130084496Y-88823577D01*
X130091536Y-88827124D01*
X130126864Y-88849325D01*
X130152004Y-88875807D01*
X130168398Y-88909145D01*
X130177487Y-88951912D01*
X130180133Y-88985353D01*
X130180513Y-89022971D01*
X130178594Y-89057279D01*
X130174689Y-89082928D01*
X130174317Y-89084382D01*
X130159278Y-89117049D01*
X130133977Y-89148247D01*
X130102458Y-89174053D01*
X130068763Y-89190541D01*
X130063387Y-89192065D01*
X130029161Y-89197488D01*
X129987729Y-89199460D01*
X129945690Y-89198001D01*
X129909643Y-89193133D01*
X129902864Y-89191526D01*
X129878541Y-89180466D01*
X129851193Y-89160662D01*
X129840040Y-89150548D01*
X129817719Y-89125649D01*
X129802644Y-89099656D01*
X129793834Y-89069264D01*
X129790304Y-89031168D01*
X129790926Y-88985353D01*
X129796103Y-88935215D01*
X129807664Y-88896151D01*
X129827051Y-88865586D01*
X129855705Y-88840947D01*
X129879523Y-88827124D01*
X129902507Y-88816255D01*
X129922537Y-88809757D01*
X129944930Y-88806546D01*
X129975007Y-88805536D01*
X129985530Y-88805501D01*
X130018711Y-88806088D01*
G37*
X130018711Y-88806088D02*
X130042720Y-88808573D01*
X130062875Y-88814041D01*
X130084496Y-88823577D01*
X130091536Y-88827124D01*
X130126864Y-88849325D01*
X130152004Y-88875807D01*
X130168398Y-88909145D01*
X130177487Y-88951912D01*
X130180133Y-88985353D01*
X130180513Y-89022971D01*
X130178594Y-89057279D01*
X130174689Y-89082928D01*
X130174317Y-89084382D01*
X130159278Y-89117049D01*
X130133977Y-89148247D01*
X130102458Y-89174053D01*
X130068763Y-89190541D01*
X130063387Y-89192065D01*
X130029161Y-89197488D01*
X129987729Y-89199460D01*
X129945690Y-89198001D01*
X129909643Y-89193133D01*
X129902864Y-89191526D01*
X129878541Y-89180466D01*
X129851193Y-89160662D01*
X129840040Y-89150548D01*
X129817719Y-89125649D01*
X129802644Y-89099656D01*
X129793834Y-89069264D01*
X129790304Y-89031168D01*
X129790926Y-88985353D01*
X129796103Y-88935215D01*
X129807664Y-88896151D01*
X129827051Y-88865586D01*
X129855705Y-88840947D01*
X129879523Y-88827124D01*
X129902507Y-88816255D01*
X129922537Y-88809757D01*
X129944930Y-88806546D01*
X129975007Y-88805536D01*
X129985530Y-88805501D01*
X130018711Y-88806088D01*
G36*
X128629303Y-89579004D02*
G01*
X128630525Y-89529991D01*
X128632658Y-89489771D01*
X128635624Y-89461754D01*
X128645374Y-89408723D01*
X128658455Y-89350927D01*
X128673483Y-89293809D01*
X128689072Y-89242812D01*
X128697036Y-89220270D01*
X128715399Y-89175722D01*
X128738699Y-89125650D01*
X128765354Y-89072913D01*
X128793786Y-89020372D01*
X128822414Y-88970887D01*
X128849659Y-88927319D01*
X128873940Y-88892529D01*
X128886871Y-88876556D01*
X128897129Y-88864322D01*
X128913656Y-88843929D01*
X128933803Y-88818666D01*
X128947098Y-88801809D01*
X129014165Y-88725628D01*
X129093142Y-88651732D01*
X129181435Y-88581907D01*
X129276447Y-88517941D01*
X129375584Y-88461622D01*
X129476251Y-88414736D01*
X129548138Y-88387851D01*
X129589267Y-88374515D01*
X129625972Y-88363723D01*
X129660510Y-88355208D01*
X129695136Y-88348705D01*
X129732105Y-88343947D01*
X129773674Y-88340669D01*
X129822099Y-88338605D01*
X129879634Y-88337488D01*
X129948537Y-88337053D01*
X129979285Y-88337010D01*
X130053051Y-88337156D01*
X130114528Y-88337829D01*
X130165938Y-88339263D01*
X130209503Y-88341689D01*
X130247447Y-88345341D01*
X130281990Y-88350451D01*
X130315355Y-88357253D01*
X130349764Y-88365979D01*
X130387441Y-88376862D01*
X130402097Y-88381312D01*
X130488350Y-88411071D01*
X130570787Y-88446801D01*
X130652583Y-88490144D01*
X130736912Y-88542740D01*
X130801958Y-88587965D01*
X130838646Y-88616511D01*
X130880471Y-88652421D01*
X130924465Y-88692832D01*
X130967655Y-88734883D01*
X131007072Y-88775712D01*
X131039743Y-88812458D01*
X131055507Y-88832196D01*
X131075667Y-88858951D01*
X131097498Y-88887739D01*
X131106968Y-88900156D01*
X131147016Y-88958285D01*
X131186978Y-89026847D01*
X131224939Y-89101879D01*
X131258988Y-89179416D01*
X131287209Y-89255494D01*
X131302129Y-89304497D01*
X131313820Y-89348765D01*
X131323133Y-89388295D01*
X131330292Y-89425534D01*
X131335521Y-89462931D01*
X131339044Y-89502933D01*
X131341085Y-89547988D01*
X131341867Y-89600543D01*
X131341614Y-89663046D01*
X131340740Y-89726639D01*
X131339643Y-89788804D01*
X131338504Y-89838656D01*
X131337153Y-89878398D01*
X131335422Y-89910231D01*
X131333141Y-89936358D01*
X131330140Y-89958980D01*
X131326252Y-89980298D01*
X131321306Y-90002515D01*
X131318714Y-90013297D01*
X131279919Y-90145666D01*
X131229947Y-90269309D01*
X131168102Y-90385542D01*
X131093686Y-90495682D01*
X131009235Y-90597497D01*
X130930591Y-90675783D01*
X130840587Y-90750984D01*
X130742335Y-90821080D01*
X130638951Y-90884054D01*
X130533547Y-90937889D01*
X130429239Y-90980567D01*
X130405401Y-90988701D01*
X130354876Y-91004571D01*
X130309134Y-91017146D01*
X130265429Y-91026778D01*
X130221017Y-91033815D01*
X130173152Y-91038609D01*
X130119089Y-91041509D01*
X130056082Y-91042867D01*
X129981386Y-91043032D01*
X129979718Y-91043026D01*
X129898917Y-91042197D01*
X129832448Y-91040427D01*
X129780357Y-91037716D01*
X129742687Y-91034066D01*
X129731658Y-91032342D01*
X129632958Y-91009087D01*
X129530630Y-90975324D01*
X129428792Y-90932817D01*
X129331563Y-90883330D01*
X129243061Y-90828630D01*
X129222557Y-90814184D01*
X129203460Y-90800934D01*
X129189139Y-90792082D01*
X129183887Y-90789811D01*
X129175054Y-90785161D01*
X129157888Y-90772487D01*
X129134631Y-90753701D01*
X129107528Y-90730717D01*
X129078825Y-90705448D01*
X129050764Y-90679807D01*
X129025591Y-90655707D01*
X129019876Y-90650010D01*
X128923716Y-90543249D01*
X128839726Y-90429083D01*
X128768271Y-90308170D01*
X128709715Y-90181166D01*
X128664423Y-90048727D01*
X128646025Y-89977011D01*
X128641846Y-89950851D01*
X128638159Y-89912773D01*
X128635017Y-89865365D01*
X128632472Y-89811217D01*
X128630575Y-89752918D01*
X128629380Y-89693057D01*
X128629225Y-89672304D01*
X128889330Y-89672304D01*
X128891150Y-89766960D01*
X128899508Y-89857960D01*
X128914402Y-89941520D01*
X128923416Y-89976310D01*
X128964737Y-90093189D01*
X129019088Y-90204805D01*
X129085630Y-90310169D01*
X129163523Y-90408295D01*
X129251928Y-90498192D01*
X129350006Y-90578874D01*
X129456915Y-90649352D01*
X129528023Y-90687869D01*
X129603932Y-90722075D01*
X129677382Y-90746871D01*
X129754783Y-90764215D01*
X129800472Y-90771171D01*
X129869617Y-90779345D01*
X129930251Y-90784126D01*
X129987014Y-90785505D01*
X130044544Y-90783473D01*
X130107481Y-90778020D01*
X130170587Y-90770442D01*
X130261971Y-90754261D01*
X130348349Y-90729783D01*
X130432050Y-90695962D01*
X130515405Y-90651751D01*
X130600743Y-90596105D01*
X130664072Y-90548879D01*
X130762421Y-90463527D01*
X130848726Y-90370539D01*
X130922659Y-90270293D01*
X130963619Y-90201982D01*
X130993552Y-90140703D01*
X131020904Y-90071854D01*
X131044148Y-90000166D01*
X131061757Y-89930371D01*
X131072206Y-89867200D01*
X131072490Y-89864525D01*
X131075483Y-89824010D01*
X131077256Y-89774834D01*
X131077876Y-89720119D01*
X131077407Y-89662989D01*
X131075916Y-89606569D01*
X131073468Y-89553980D01*
X131070129Y-89508346D01*
X131065965Y-89472792D01*
X131064014Y-89461754D01*
X131033382Y-89347722D01*
X130989505Y-89237304D01*
X130933446Y-89131700D01*
X130866273Y-89032110D01*
X130789052Y-88939734D01*
X130702848Y-88855774D01*
X130608727Y-88781428D01*
X130507756Y-88717897D01*
X130400999Y-88666382D01*
X130336297Y-88642299D01*
X130264339Y-88622875D01*
X130182876Y-88608586D01*
X130094997Y-88599438D01*
X130003791Y-88595440D01*
X129912348Y-88596598D01*
X129823756Y-88602920D01*
X129741105Y-88614414D01*
X129667483Y-88631087D01*
X129637187Y-88640607D01*
X129531663Y-88684682D01*
X129428701Y-88741845D01*
X129330153Y-88810685D01*
X129237873Y-88889793D01*
X129153714Y-88977758D01*
X129092400Y-89055047D01*
X129053007Y-89114725D01*
X129014496Y-89182911D01*
X128979064Y-89255069D01*
X128948911Y-89326665D01*
X128926235Y-89393163D01*
X128923113Y-89404258D01*
X128905309Y-89487168D01*
X128894048Y-89577779D01*
X128889330Y-89672304D01*
X128629225Y-89672304D01*
X128628939Y-89634222D01*
X128629303Y-89579004D01*
G37*
X128629303Y-89579004D02*
X128630525Y-89529991D01*
X128632658Y-89489771D01*
X128635624Y-89461754D01*
X128645374Y-89408723D01*
X128658455Y-89350927D01*
X128673483Y-89293809D01*
X128689072Y-89242812D01*
X128697036Y-89220270D01*
X128715399Y-89175722D01*
X128738699Y-89125650D01*
X128765354Y-89072913D01*
X128793786Y-89020372D01*
X128822414Y-88970887D01*
X128849659Y-88927319D01*
X128873940Y-88892529D01*
X128886871Y-88876556D01*
X128897129Y-88864322D01*
X128913656Y-88843929D01*
X128933803Y-88818666D01*
X128947098Y-88801809D01*
X129014165Y-88725628D01*
X129093142Y-88651732D01*
X129181435Y-88581907D01*
X129276447Y-88517941D01*
X129375584Y-88461622D01*
X129476251Y-88414736D01*
X129548138Y-88387851D01*
X129589267Y-88374515D01*
X129625972Y-88363723D01*
X129660510Y-88355208D01*
X129695136Y-88348705D01*
X129732105Y-88343947D01*
X129773674Y-88340669D01*
X129822099Y-88338605D01*
X129879634Y-88337488D01*
X129948537Y-88337053D01*
X129979285Y-88337010D01*
X130053051Y-88337156D01*
X130114528Y-88337829D01*
X130165938Y-88339263D01*
X130209503Y-88341689D01*
X130247447Y-88345341D01*
X130281990Y-88350451D01*
X130315355Y-88357253D01*
X130349764Y-88365979D01*
X130387441Y-88376862D01*
X130402097Y-88381312D01*
X130488350Y-88411071D01*
X130570787Y-88446801D01*
X130652583Y-88490144D01*
X130736912Y-88542740D01*
X130801958Y-88587965D01*
X130838646Y-88616511D01*
X130880471Y-88652421D01*
X130924465Y-88692832D01*
X130967655Y-88734883D01*
X131007072Y-88775712D01*
X131039743Y-88812458D01*
X131055507Y-88832196D01*
X131075667Y-88858951D01*
X131097498Y-88887739D01*
X131106968Y-88900156D01*
X131147016Y-88958285D01*
X131186978Y-89026847D01*
X131224939Y-89101879D01*
X131258988Y-89179416D01*
X131287209Y-89255494D01*
X131302129Y-89304497D01*
X131313820Y-89348765D01*
X131323133Y-89388295D01*
X131330292Y-89425534D01*
X131335521Y-89462931D01*
X131339044Y-89502933D01*
X131341085Y-89547988D01*
X131341867Y-89600543D01*
X131341614Y-89663046D01*
X131340740Y-89726639D01*
X131339643Y-89788804D01*
X131338504Y-89838656D01*
X131337153Y-89878398D01*
X131335422Y-89910231D01*
X131333141Y-89936358D01*
X131330140Y-89958980D01*
X131326252Y-89980298D01*
X131321306Y-90002515D01*
X131318714Y-90013297D01*
X131279919Y-90145666D01*
X131229947Y-90269309D01*
X131168102Y-90385542D01*
X131093686Y-90495682D01*
X131009235Y-90597497D01*
X130930591Y-90675783D01*
X130840587Y-90750984D01*
X130742335Y-90821080D01*
X130638951Y-90884054D01*
X130533547Y-90937889D01*
X130429239Y-90980567D01*
X130405401Y-90988701D01*
X130354876Y-91004571D01*
X130309134Y-91017146D01*
X130265429Y-91026778D01*
X130221017Y-91033815D01*
X130173152Y-91038609D01*
X130119089Y-91041509D01*
X130056082Y-91042867D01*
X129981386Y-91043032D01*
X129979718Y-91043026D01*
X129898917Y-91042197D01*
X129832448Y-91040427D01*
X129780357Y-91037716D01*
X129742687Y-91034066D01*
X129731658Y-91032342D01*
X129632958Y-91009087D01*
X129530630Y-90975324D01*
X129428792Y-90932817D01*
X129331563Y-90883330D01*
X129243061Y-90828630D01*
X129222557Y-90814184D01*
X129203460Y-90800934D01*
X129189139Y-90792082D01*
X129183887Y-90789811D01*
X129175054Y-90785161D01*
X129157888Y-90772487D01*
X129134631Y-90753701D01*
X129107528Y-90730717D01*
X129078825Y-90705448D01*
X129050764Y-90679807D01*
X129025591Y-90655707D01*
X129019876Y-90650010D01*
X128923716Y-90543249D01*
X128839726Y-90429083D01*
X128768271Y-90308170D01*
X128709715Y-90181166D01*
X128664423Y-90048727D01*
X128646025Y-89977011D01*
X128641846Y-89950851D01*
X128638159Y-89912773D01*
X128635017Y-89865365D01*
X128632472Y-89811217D01*
X128630575Y-89752918D01*
X128629380Y-89693057D01*
X128629225Y-89672304D01*
X128889330Y-89672304D01*
X128891150Y-89766960D01*
X128899508Y-89857960D01*
X128914402Y-89941520D01*
X128923416Y-89976310D01*
X128964737Y-90093189D01*
X129019088Y-90204805D01*
X129085630Y-90310169D01*
X129163523Y-90408295D01*
X129251928Y-90498192D01*
X129350006Y-90578874D01*
X129456915Y-90649352D01*
X129528023Y-90687869D01*
X129603932Y-90722075D01*
X129677382Y-90746871D01*
X129754783Y-90764215D01*
X129800472Y-90771171D01*
X129869617Y-90779345D01*
X129930251Y-90784126D01*
X129987014Y-90785505D01*
X130044544Y-90783473D01*
X130107481Y-90778020D01*
X130170587Y-90770442D01*
X130261971Y-90754261D01*
X130348349Y-90729783D01*
X130432050Y-90695962D01*
X130515405Y-90651751D01*
X130600743Y-90596105D01*
X130664072Y-90548879D01*
X130762421Y-90463527D01*
X130848726Y-90370539D01*
X130922659Y-90270293D01*
X130963619Y-90201982D01*
X130993552Y-90140703D01*
X131020904Y-90071854D01*
X131044148Y-90000166D01*
X131061757Y-89930371D01*
X131072206Y-89867200D01*
X131072490Y-89864525D01*
X131075483Y-89824010D01*
X131077256Y-89774834D01*
X131077876Y-89720119D01*
X131077407Y-89662989D01*
X131075916Y-89606569D01*
X131073468Y-89553980D01*
X131070129Y-89508346D01*
X131065965Y-89472792D01*
X131064014Y-89461754D01*
X131033382Y-89347722D01*
X130989505Y-89237304D01*
X130933446Y-89131700D01*
X130866273Y-89032110D01*
X130789052Y-88939734D01*
X130702848Y-88855774D01*
X130608727Y-88781428D01*
X130507756Y-88717897D01*
X130400999Y-88666382D01*
X130336297Y-88642299D01*
X130264339Y-88622875D01*
X130182876Y-88608586D01*
X130094997Y-88599438D01*
X130003791Y-88595440D01*
X129912348Y-88596598D01*
X129823756Y-88602920D01*
X129741105Y-88614414D01*
X129667483Y-88631087D01*
X129637187Y-88640607D01*
X129531663Y-88684682D01*
X129428701Y-88741845D01*
X129330153Y-88810685D01*
X129237873Y-88889793D01*
X129153714Y-88977758D01*
X129092400Y-89055047D01*
X129053007Y-89114725D01*
X129014496Y-89182911D01*
X128979064Y-89255069D01*
X128948911Y-89326665D01*
X128926235Y-89393163D01*
X128923113Y-89404258D01*
X128905309Y-89487168D01*
X128894048Y-89577779D01*
X128889330Y-89672304D01*
X128629225Y-89672304D01*
X128628939Y-89634222D01*
X128629303Y-89579004D01*
G36*
X130064124Y-89258584D02*
G01*
X130129518Y-89258782D01*
X130183022Y-89259304D01*
X130225949Y-89260310D01*
X130259613Y-89261957D01*
X130285326Y-89264405D01*
X130304400Y-89267810D01*
X130318148Y-89272332D01*
X130327883Y-89278129D01*
X130334916Y-89285359D01*
X130340562Y-89294180D01*
X130344635Y-89301859D01*
X130347421Y-89309093D01*
X130349708Y-89319891D01*
X130351543Y-89335594D01*
X130352972Y-89357544D01*
X130354040Y-89387084D01*
X130354796Y-89425555D01*
X130355283Y-89474298D01*
X130355550Y-89534656D01*
X130355642Y-89607971D01*
X130355644Y-89621050D01*
X130355644Y-89918954D01*
X130203392Y-89918954D01*
X130201503Y-90247339D01*
X130199615Y-90575725D01*
X129988661Y-90577647D01*
X129934714Y-90577973D01*
X129885526Y-90577953D01*
X129842954Y-90577614D01*
X129808859Y-90576982D01*
X129785097Y-90576082D01*
X129773528Y-90574941D01*
X129772761Y-90574623D01*
X129771738Y-90566562D01*
X129770787Y-90545467D01*
X129769930Y-90512820D01*
X129769188Y-90470100D01*
X129768584Y-90418788D01*
X129768140Y-90360365D01*
X129767879Y-90296311D01*
X129767815Y-90244316D01*
X129767815Y-89918954D01*
X129615415Y-89918954D01*
X129615415Y-89621050D01*
X129615483Y-89545529D01*
X129615719Y-89483179D01*
X129616168Y-89432660D01*
X129616877Y-89392629D01*
X129617892Y-89361745D01*
X129619260Y-89338665D01*
X129621027Y-89322048D01*
X129623238Y-89310553D01*
X129625941Y-89302837D01*
X129626424Y-89301859D01*
X129631888Y-89291753D01*
X129637765Y-89283355D01*
X129645367Y-89276509D01*
X129656008Y-89271055D01*
X129670999Y-89266835D01*
X129691654Y-89263691D01*
X129719284Y-89261464D01*
X129755203Y-89259996D01*
X129800723Y-89259130D01*
X129857157Y-89258706D01*
X129925817Y-89258567D01*
X129985530Y-89258554D01*
X130064124Y-89258584D01*
G37*
X130064124Y-89258584D02*
X130129518Y-89258782D01*
X130183022Y-89259304D01*
X130225949Y-89260310D01*
X130259613Y-89261957D01*
X130285326Y-89264405D01*
X130304400Y-89267810D01*
X130318148Y-89272332D01*
X130327883Y-89278129D01*
X130334916Y-89285359D01*
X130340562Y-89294180D01*
X130344635Y-89301859D01*
X130347421Y-89309093D01*
X130349708Y-89319891D01*
X130351543Y-89335594D01*
X130352972Y-89357544D01*
X130354040Y-89387084D01*
X130354796Y-89425555D01*
X130355283Y-89474298D01*
X130355550Y-89534656D01*
X130355642Y-89607971D01*
X130355644Y-89621050D01*
X130355644Y-89918954D01*
X130203392Y-89918954D01*
X130201503Y-90247339D01*
X130199615Y-90575725D01*
X129988661Y-90577647D01*
X129934714Y-90577973D01*
X129885526Y-90577953D01*
X129842954Y-90577614D01*
X129808859Y-90576982D01*
X129785097Y-90576082D01*
X129773528Y-90574941D01*
X129772761Y-90574623D01*
X129771738Y-90566562D01*
X129770787Y-90545467D01*
X129769930Y-90512820D01*
X129769188Y-90470100D01*
X129768584Y-90418788D01*
X129768140Y-90360365D01*
X129767879Y-90296311D01*
X129767815Y-90244316D01*
X129767815Y-89918954D01*
X129615415Y-89918954D01*
X129615415Y-89621050D01*
X129615483Y-89545529D01*
X129615719Y-89483179D01*
X129616168Y-89432660D01*
X129616877Y-89392629D01*
X129617892Y-89361745D01*
X129619260Y-89338665D01*
X129621027Y-89322048D01*
X129623238Y-89310553D01*
X129625941Y-89302837D01*
X129626424Y-89301859D01*
X129631888Y-89291753D01*
X129637765Y-89283355D01*
X129645367Y-89276509D01*
X129656008Y-89271055D01*
X129670999Y-89266835D01*
X129691654Y-89263691D01*
X129719284Y-89261464D01*
X129755203Y-89259996D01*
X129800723Y-89259130D01*
X129857157Y-89258706D01*
X129925817Y-89258567D01*
X129985530Y-89258554D01*
X130064124Y-89258584D01*
G36*
X126783592Y-89264243D02*
G01*
X126856893Y-89280986D01*
X126922224Y-89308447D01*
X126960176Y-89332192D01*
X126985376Y-89352854D01*
X127010180Y-89377280D01*
X127032780Y-89403109D01*
X127051370Y-89427980D01*
X127064143Y-89449533D01*
X127069292Y-89465406D01*
X127067215Y-89472035D01*
X127060177Y-89476073D01*
X127042624Y-89485598D01*
X127016893Y-89499357D01*
X126985324Y-89516096D01*
X126970671Y-89523826D01*
X126933990Y-89542974D01*
X126907981Y-89555919D01*
X126890573Y-89563404D01*
X126879694Y-89566171D01*
X126873272Y-89564964D01*
X126869235Y-89560524D01*
X126869071Y-89560252D01*
X126839958Y-89517837D01*
X126809906Y-89488406D01*
X126776700Y-89470481D01*
X126738123Y-89462589D01*
X126721396Y-89461913D01*
X126676940Y-89466897D01*
X126640203Y-89482912D01*
X126609761Y-89510947D01*
X126584191Y-89551989D01*
X126580504Y-89559725D01*
X126573295Y-89577091D01*
X126568485Y-89594373D01*
X126565608Y-89615109D01*
X126564199Y-89642838D01*
X126563790Y-89681098D01*
X126563787Y-89686725D01*
X126564104Y-89726542D01*
X126565367Y-89755391D01*
X126568041Y-89776812D01*
X126572591Y-89794343D01*
X126579483Y-89811523D01*
X126580487Y-89813725D01*
X126603150Y-89852552D01*
X126631234Y-89884611D01*
X126661544Y-89906387D01*
X126666968Y-89908933D01*
X126701134Y-89917550D01*
X126741122Y-89918593D01*
X126780553Y-89912351D01*
X126806790Y-89902625D01*
X126830400Y-89885779D01*
X126855011Y-89860778D01*
X126876061Y-89832874D01*
X126888610Y-89808447D01*
X126895057Y-89806569D01*
X126911491Y-89811220D01*
X126938784Y-89822713D01*
X126971210Y-89838114D01*
X127011206Y-89857720D01*
X127039739Y-89872270D01*
X127058279Y-89883288D01*
X127068297Y-89892303D01*
X127071265Y-89900842D01*
X127068652Y-89910433D01*
X127061931Y-89922602D01*
X127058373Y-89928616D01*
X127037731Y-89956937D01*
X127008085Y-89988840D01*
X126973180Y-90020965D01*
X126936761Y-90049956D01*
X126902572Y-90072453D01*
X126891335Y-90078412D01*
X126818454Y-90105913D01*
X126741348Y-90120033D01*
X126661886Y-90120563D01*
X126598445Y-90111185D01*
X126538047Y-90091466D01*
X126478763Y-90059954D01*
X126424171Y-90019158D01*
X126377850Y-89971588D01*
X126355443Y-89940725D01*
X126342975Y-89917588D01*
X126329244Y-89886678D01*
X126316966Y-89854178D01*
X126315570Y-89850011D01*
X126307471Y-89823668D01*
X126301994Y-89800121D01*
X126298632Y-89775291D01*
X126296877Y-89745099D01*
X126296222Y-89705468D01*
X126296172Y-89693982D01*
X126298955Y-89618465D01*
X126308359Y-89553938D01*
X126325241Y-89498071D01*
X126350460Y-89448534D01*
X126384872Y-89402996D01*
X126414409Y-89372703D01*
X126473459Y-89324903D01*
X126535514Y-89290596D01*
X126602539Y-89269006D01*
X126676505Y-89259359D01*
X126703868Y-89258661D01*
X126783592Y-89264243D01*
G37*
X126783592Y-89264243D02*
X126856893Y-89280986D01*
X126922224Y-89308447D01*
X126960176Y-89332192D01*
X126985376Y-89352854D01*
X127010180Y-89377280D01*
X127032780Y-89403109D01*
X127051370Y-89427980D01*
X127064143Y-89449533D01*
X127069292Y-89465406D01*
X127067215Y-89472035D01*
X127060177Y-89476073D01*
X127042624Y-89485598D01*
X127016893Y-89499357D01*
X126985324Y-89516096D01*
X126970671Y-89523826D01*
X126933990Y-89542974D01*
X126907981Y-89555919D01*
X126890573Y-89563404D01*
X126879694Y-89566171D01*
X126873272Y-89564964D01*
X126869235Y-89560524D01*
X126869071Y-89560252D01*
X126839958Y-89517837D01*
X126809906Y-89488406D01*
X126776700Y-89470481D01*
X126738123Y-89462589D01*
X126721396Y-89461913D01*
X126676940Y-89466897D01*
X126640203Y-89482912D01*
X126609761Y-89510947D01*
X126584191Y-89551989D01*
X126580504Y-89559725D01*
X126573295Y-89577091D01*
X126568485Y-89594373D01*
X126565608Y-89615109D01*
X126564199Y-89642838D01*
X126563790Y-89681098D01*
X126563787Y-89686725D01*
X126564104Y-89726542D01*
X126565367Y-89755391D01*
X126568041Y-89776812D01*
X126572591Y-89794343D01*
X126579483Y-89811523D01*
X126580487Y-89813725D01*
X126603150Y-89852552D01*
X126631234Y-89884611D01*
X126661544Y-89906387D01*
X126666968Y-89908933D01*
X126701134Y-89917550D01*
X126741122Y-89918593D01*
X126780553Y-89912351D01*
X126806790Y-89902625D01*
X126830400Y-89885779D01*
X126855011Y-89860778D01*
X126876061Y-89832874D01*
X126888610Y-89808447D01*
X126895057Y-89806569D01*
X126911491Y-89811220D01*
X126938784Y-89822713D01*
X126971210Y-89838114D01*
X127011206Y-89857720D01*
X127039739Y-89872270D01*
X127058279Y-89883288D01*
X127068297Y-89892303D01*
X127071265Y-89900842D01*
X127068652Y-89910433D01*
X127061931Y-89922602D01*
X127058373Y-89928616D01*
X127037731Y-89956937D01*
X127008085Y-89988840D01*
X126973180Y-90020965D01*
X126936761Y-90049956D01*
X126902572Y-90072453D01*
X126891335Y-90078412D01*
X126818454Y-90105913D01*
X126741348Y-90120033D01*
X126661886Y-90120563D01*
X126598445Y-90111185D01*
X126538047Y-90091466D01*
X126478763Y-90059954D01*
X126424171Y-90019158D01*
X126377850Y-89971588D01*
X126355443Y-89940725D01*
X126342975Y-89917588D01*
X126329244Y-89886678D01*
X126316966Y-89854178D01*
X126315570Y-89850011D01*
X126307471Y-89823668D01*
X126301994Y-89800121D01*
X126298632Y-89775291D01*
X126296877Y-89745099D01*
X126296222Y-89705468D01*
X126296172Y-89693982D01*
X126298955Y-89618465D01*
X126308359Y-89553938D01*
X126325241Y-89498071D01*
X126350460Y-89448534D01*
X126384872Y-89402996D01*
X126414409Y-89372703D01*
X126473459Y-89324903D01*
X126535514Y-89290596D01*
X126602539Y-89269006D01*
X126676505Y-89259359D01*
X126703868Y-89258661D01*
X126783592Y-89264243D01*
G36*
X132952980Y-88965349D02*
G01*
X133050976Y-88977827D01*
X133104938Y-88989866D01*
X133167819Y-89010584D01*
X133232784Y-89040099D01*
X133295957Y-89076134D01*
X133353458Y-89116414D01*
X133401410Y-89158664D01*
X133412327Y-89170236D01*
X133450143Y-89217827D01*
X133487665Y-89275111D01*
X133522250Y-89337460D01*
X133551253Y-89400245D01*
X133565778Y-89438855D01*
X133583079Y-89504396D01*
X133594841Y-89579410D01*
X133600959Y-89659915D01*
X133601327Y-89741925D01*
X133595840Y-89821457D01*
X133584395Y-89894526D01*
X133578449Y-89919816D01*
X133546146Y-90016813D01*
X133502314Y-90106027D01*
X133447743Y-90186656D01*
X133383221Y-90257899D01*
X133309535Y-90318955D01*
X133227475Y-90369023D01*
X133137828Y-90407301D01*
X133082628Y-90423794D01*
X133034668Y-90433500D01*
X132979263Y-90440710D01*
X132921066Y-90445142D01*
X132864728Y-90446515D01*
X132814902Y-90444546D01*
X132789644Y-90441574D01*
X132703838Y-90421132D01*
X132621686Y-90388653D01*
X132545008Y-90345420D01*
X132475625Y-90292715D01*
X132415357Y-90231820D01*
X132366024Y-90164017D01*
X132346947Y-90129760D01*
X132332479Y-90097212D01*
X132317916Y-90057845D01*
X132304408Y-90015572D01*
X132293103Y-89974304D01*
X132285151Y-89937955D01*
X132281702Y-89910436D01*
X132281644Y-89907467D01*
X132283430Y-89904171D01*
X132289844Y-89901684D01*
X132302472Y-89899930D01*
X132322899Y-89898832D01*
X132352710Y-89898315D01*
X132393491Y-89898302D01*
X132446827Y-89898719D01*
X132461258Y-89898870D01*
X132640872Y-89900811D01*
X132642049Y-89924232D01*
X132648812Y-89962655D01*
X132663928Y-90004168D01*
X132684871Y-90042256D01*
X132691350Y-90051309D01*
X132726049Y-90085473D01*
X132770621Y-90112156D01*
X132822197Y-90130830D01*
X132877908Y-90140967D01*
X132934886Y-90142037D01*
X132990262Y-90133513D01*
X133039837Y-90115526D01*
X133089768Y-90084186D01*
X133132095Y-90042669D01*
X133167497Y-89990040D01*
X133196654Y-89925362D01*
X133212071Y-89878183D01*
X133218283Y-89854949D01*
X133222727Y-89832970D01*
X133225682Y-89809102D01*
X133227426Y-89780199D01*
X133228239Y-89743118D01*
X133228398Y-89694714D01*
X133228397Y-89693982D01*
X133227449Y-89630315D01*
X133224471Y-89578002D01*
X133218962Y-89533964D01*
X133210419Y-89495122D01*
X133198338Y-89458397D01*
X133184653Y-89425975D01*
X133152662Y-89371660D01*
X133111864Y-89328739D01*
X133062756Y-89297468D01*
X133005838Y-89278101D01*
X132941607Y-89270896D01*
X132887821Y-89273755D01*
X132844953Y-89279904D01*
X132811630Y-89287767D01*
X132782885Y-89298814D01*
X132757370Y-89312374D01*
X132717058Y-89343226D01*
X132683039Y-89383294D01*
X132658343Y-89428475D01*
X132648439Y-89459939D01*
X132643348Y-89483525D01*
X132691096Y-89483525D01*
X132717066Y-89484065D01*
X132731617Y-89486232D01*
X132737821Y-89490847D01*
X132738844Y-89496299D01*
X132733854Y-89504819D01*
X132720006Y-89521623D01*
X132698978Y-89545021D01*
X132672450Y-89573325D01*
X132642102Y-89604845D01*
X132609612Y-89637892D01*
X132576661Y-89670776D01*
X132544928Y-89701809D01*
X132516092Y-89729302D01*
X132491833Y-89751564D01*
X132473830Y-89766908D01*
X132463762Y-89773643D01*
X132462927Y-89773811D01*
X132454486Y-89768790D01*
X132437813Y-89754854D01*
X132414586Y-89733693D01*
X132386484Y-89706997D01*
X132355183Y-89676457D01*
X132322363Y-89643762D01*
X132289700Y-89610603D01*
X132258872Y-89578670D01*
X132231558Y-89549653D01*
X132209434Y-89525243D01*
X132194179Y-89507128D01*
X132187471Y-89497001D01*
X132187301Y-89496153D01*
X132189198Y-89489594D01*
X132196838Y-89485762D01*
X132213143Y-89483968D01*
X132240905Y-89483525D01*
X132294510Y-89483525D01*
X132299417Y-89450803D01*
X132308079Y-89411533D01*
X132322710Y-89365001D01*
X132341555Y-89316236D01*
X132361436Y-89273068D01*
X132406756Y-89198757D01*
X132462379Y-89133878D01*
X132527242Y-89078837D01*
X132600283Y-89034037D01*
X132680440Y-88999884D01*
X132766650Y-88976782D01*
X132857851Y-88965135D01*
X132952980Y-88965349D01*
G37*
X132952980Y-88965349D02*
X133050976Y-88977827D01*
X133104938Y-88989866D01*
X133167819Y-89010584D01*
X133232784Y-89040099D01*
X133295957Y-89076134D01*
X133353458Y-89116414D01*
X133401410Y-89158664D01*
X133412327Y-89170236D01*
X133450143Y-89217827D01*
X133487665Y-89275111D01*
X133522250Y-89337460D01*
X133551253Y-89400245D01*
X133565778Y-89438855D01*
X133583079Y-89504396D01*
X133594841Y-89579410D01*
X133600959Y-89659915D01*
X133601327Y-89741925D01*
X133595840Y-89821457D01*
X133584395Y-89894526D01*
X133578449Y-89919816D01*
X133546146Y-90016813D01*
X133502314Y-90106027D01*
X133447743Y-90186656D01*
X133383221Y-90257899D01*
X133309535Y-90318955D01*
X133227475Y-90369023D01*
X133137828Y-90407301D01*
X133082628Y-90423794D01*
X133034668Y-90433500D01*
X132979263Y-90440710D01*
X132921066Y-90445142D01*
X132864728Y-90446515D01*
X132814902Y-90444546D01*
X132789644Y-90441574D01*
X132703838Y-90421132D01*
X132621686Y-90388653D01*
X132545008Y-90345420D01*
X132475625Y-90292715D01*
X132415357Y-90231820D01*
X132366024Y-90164017D01*
X132346947Y-90129760D01*
X132332479Y-90097212D01*
X132317916Y-90057845D01*
X132304408Y-90015572D01*
X132293103Y-89974304D01*
X132285151Y-89937955D01*
X132281702Y-89910436D01*
X132281644Y-89907467D01*
X132283430Y-89904171D01*
X132289844Y-89901684D01*
X132302472Y-89899930D01*
X132322899Y-89898832D01*
X132352710Y-89898315D01*
X132393491Y-89898302D01*
X132446827Y-89898719D01*
X132461258Y-89898870D01*
X132640872Y-89900811D01*
X132642049Y-89924232D01*
X132648812Y-89962655D01*
X132663928Y-90004168D01*
X132684871Y-90042256D01*
X132691350Y-90051309D01*
X132726049Y-90085473D01*
X132770621Y-90112156D01*
X132822197Y-90130830D01*
X132877908Y-90140967D01*
X132934886Y-90142037D01*
X132990262Y-90133513D01*
X133039837Y-90115526D01*
X133089768Y-90084186D01*
X133132095Y-90042669D01*
X133167497Y-89990040D01*
X133196654Y-89925362D01*
X133212071Y-89878183D01*
X133218283Y-89854949D01*
X133222727Y-89832970D01*
X133225682Y-89809102D01*
X133227426Y-89780199D01*
X133228239Y-89743118D01*
X133228398Y-89694714D01*
X133228397Y-89693982D01*
X133227449Y-89630315D01*
X133224471Y-89578002D01*
X133218962Y-89533964D01*
X133210419Y-89495122D01*
X133198338Y-89458397D01*
X133184653Y-89425975D01*
X133152662Y-89371660D01*
X133111864Y-89328739D01*
X133062756Y-89297468D01*
X133005838Y-89278101D01*
X132941607Y-89270896D01*
X132887821Y-89273755D01*
X132844953Y-89279904D01*
X132811630Y-89287767D01*
X132782885Y-89298814D01*
X132757370Y-89312374D01*
X132717058Y-89343226D01*
X132683039Y-89383294D01*
X132658343Y-89428475D01*
X132648439Y-89459939D01*
X132643348Y-89483525D01*
X132691096Y-89483525D01*
X132717066Y-89484065D01*
X132731617Y-89486232D01*
X132737821Y-89490847D01*
X132738844Y-89496299D01*
X132733854Y-89504819D01*
X132720006Y-89521623D01*
X132698978Y-89545021D01*
X132672450Y-89573325D01*
X132642102Y-89604845D01*
X132609612Y-89637892D01*
X132576661Y-89670776D01*
X132544928Y-89701809D01*
X132516092Y-89729302D01*
X132491833Y-89751564D01*
X132473830Y-89766908D01*
X132463762Y-89773643D01*
X132462927Y-89773811D01*
X132454486Y-89768790D01*
X132437813Y-89754854D01*
X132414586Y-89733693D01*
X132386484Y-89706997D01*
X132355183Y-89676457D01*
X132322363Y-89643762D01*
X132289700Y-89610603D01*
X132258872Y-89578670D01*
X132231558Y-89549653D01*
X132209434Y-89525243D01*
X132194179Y-89507128D01*
X132187471Y-89497001D01*
X132187301Y-89496153D01*
X132189198Y-89489594D01*
X132196838Y-89485762D01*
X132213143Y-89483968D01*
X132240905Y-89483525D01*
X132294510Y-89483525D01*
X132299417Y-89450803D01*
X132308079Y-89411533D01*
X132322710Y-89365001D01*
X132341555Y-89316236D01*
X132361436Y-89273068D01*
X132406756Y-89198757D01*
X132462379Y-89133878D01*
X132527242Y-89078837D01*
X132600283Y-89034037D01*
X132680440Y-88999884D01*
X132766650Y-88976782D01*
X132857851Y-88965135D01*
X132952980Y-88965349D01*
G36*
X127510844Y-89260602D02*
G01*
X127580258Y-89267396D01*
X127639943Y-89281531D01*
X127693224Y-89304006D01*
X127730171Y-89326378D01*
X127755309Y-89345738D01*
X127781652Y-89369580D01*
X127806822Y-89395292D01*
X127828441Y-89420260D01*
X127844131Y-89441872D01*
X127851517Y-89457516D01*
X127851790Y-89460019D01*
X127846310Y-89468478D01*
X127829548Y-89481138D01*
X127800808Y-89498457D01*
X127759394Y-89520892D01*
X127757765Y-89521745D01*
X127663879Y-89570851D01*
X127633799Y-89530133D01*
X127601895Y-89495046D01*
X127566710Y-89473108D01*
X127525710Y-89462977D01*
X127505168Y-89461913D01*
X127456372Y-89468010D01*
X127415172Y-89486213D01*
X127382490Y-89515741D01*
X127359248Y-89555812D01*
X127348021Y-89595207D01*
X127345379Y-89619098D01*
X127343813Y-89652553D01*
X127343344Y-89690658D01*
X127343989Y-89728500D01*
X127345767Y-89761167D01*
X127347336Y-89775895D01*
X127358275Y-89814126D01*
X127378679Y-89851170D01*
X127405617Y-89883075D01*
X127436155Y-89905890D01*
X127447816Y-89911251D01*
X127474518Y-89917003D01*
X127508767Y-89918664D01*
X127544232Y-89916393D01*
X127574582Y-89910346D01*
X127581454Y-89907936D01*
X127596543Y-89900027D01*
X127611453Y-89887596D01*
X127628179Y-89868447D01*
X127648715Y-89840385D01*
X127666070Y-89814797D01*
X127670389Y-89809837D01*
X127676475Y-89807943D01*
X127686529Y-89809817D01*
X127702751Y-89816161D01*
X127727339Y-89827679D01*
X127762495Y-89845071D01*
X127765289Y-89846467D01*
X127798142Y-89862964D01*
X127826055Y-89877129D01*
X127846598Y-89887717D01*
X127857340Y-89893485D01*
X127858306Y-89894104D01*
X127857140Y-89902145D01*
X127847993Y-89918100D01*
X127832872Y-89939350D01*
X127813779Y-89963275D01*
X127792720Y-89987257D01*
X127771701Y-90008674D01*
X127767941Y-90012179D01*
X127708140Y-90058037D01*
X127641872Y-90092800D01*
X127587333Y-90111138D01*
X127549872Y-90117542D01*
X127504167Y-90120717D01*
X127456147Y-90120564D01*
X127411739Y-90116987D01*
X127394730Y-90114276D01*
X127326860Y-90094370D01*
X127263755Y-90062506D01*
X127207610Y-90020319D01*
X127160620Y-89969442D01*
X127126585Y-89914801D01*
X127105479Y-89866384D01*
X127091263Y-89818736D01*
X127082988Y-89767320D01*
X127079700Y-89707598D01*
X127079545Y-89690354D01*
X127082578Y-89615872D01*
X127092524Y-89552115D01*
X127110294Y-89496592D01*
X127136797Y-89446814D01*
X127172944Y-89400290D01*
X127193263Y-89379097D01*
X127248491Y-89331310D01*
X127305171Y-89296449D01*
X127365701Y-89273619D01*
X127432479Y-89261925D01*
X127507904Y-89260473D01*
X127510844Y-89260602D01*
G37*
X127510844Y-89260602D02*
X127580258Y-89267396D01*
X127639943Y-89281531D01*
X127693224Y-89304006D01*
X127730171Y-89326378D01*
X127755309Y-89345738D01*
X127781652Y-89369580D01*
X127806822Y-89395292D01*
X127828441Y-89420260D01*
X127844131Y-89441872D01*
X127851517Y-89457516D01*
X127851790Y-89460019D01*
X127846310Y-89468478D01*
X127829548Y-89481138D01*
X127800808Y-89498457D01*
X127759394Y-89520892D01*
X127757765Y-89521745D01*
X127663879Y-89570851D01*
X127633799Y-89530133D01*
X127601895Y-89495046D01*
X127566710Y-89473108D01*
X127525710Y-89462977D01*
X127505168Y-89461913D01*
X127456372Y-89468010D01*
X127415172Y-89486213D01*
X127382490Y-89515741D01*
X127359248Y-89555812D01*
X127348021Y-89595207D01*
X127345379Y-89619098D01*
X127343813Y-89652553D01*
X127343344Y-89690658D01*
X127343989Y-89728500D01*
X127345767Y-89761167D01*
X127347336Y-89775895D01*
X127358275Y-89814126D01*
X127378679Y-89851170D01*
X127405617Y-89883075D01*
X127436155Y-89905890D01*
X127447816Y-89911251D01*
X127474518Y-89917003D01*
X127508767Y-89918664D01*
X127544232Y-89916393D01*
X127574582Y-89910346D01*
X127581454Y-89907936D01*
X127596543Y-89900027D01*
X127611453Y-89887596D01*
X127628179Y-89868447D01*
X127648715Y-89840385D01*
X127666070Y-89814797D01*
X127670389Y-89809837D01*
X127676475Y-89807943D01*
X127686529Y-89809817D01*
X127702751Y-89816161D01*
X127727339Y-89827679D01*
X127762495Y-89845071D01*
X127765289Y-89846467D01*
X127798142Y-89862964D01*
X127826055Y-89877129D01*
X127846598Y-89887717D01*
X127857340Y-89893485D01*
X127858306Y-89894104D01*
X127857140Y-89902145D01*
X127847993Y-89918100D01*
X127832872Y-89939350D01*
X127813779Y-89963275D01*
X127792720Y-89987257D01*
X127771701Y-90008674D01*
X127767941Y-90012179D01*
X127708140Y-90058037D01*
X127641872Y-90092800D01*
X127587333Y-90111138D01*
X127549872Y-90117542D01*
X127504167Y-90120717D01*
X127456147Y-90120564D01*
X127411739Y-90116987D01*
X127394730Y-90114276D01*
X127326860Y-90094370D01*
X127263755Y-90062506D01*
X127207610Y-90020319D01*
X127160620Y-89969442D01*
X127126585Y-89914801D01*
X127105479Y-89866384D01*
X127091263Y-89818736D01*
X127082988Y-89767320D01*
X127079700Y-89707598D01*
X127079545Y-89690354D01*
X127082578Y-89615872D01*
X127092524Y-89552115D01*
X127110294Y-89496592D01*
X127136797Y-89446814D01*
X127172944Y-89400290D01*
X127193263Y-89379097D01*
X127248491Y-89331310D01*
X127305171Y-89296449D01*
X127365701Y-89273619D01*
X127432479Y-89261925D01*
X127507904Y-89260473D01*
X127510844Y-89260602D01*
G36*
X131551997Y-89592380D02*
G01*
X131553883Y-89533033D01*
X131556720Y-89480201D01*
X131560509Y-89436510D01*
X131565249Y-89404583D01*
X131565435Y-89403697D01*
X131598748Y-89280535D01*
X131645441Y-89158759D01*
X131704388Y-89040133D01*
X131774459Y-88926417D01*
X131854525Y-88819374D01*
X131943460Y-88720766D01*
X132040134Y-88632355D01*
X132079182Y-88601405D01*
X132158540Y-88543866D01*
X132233121Y-88496021D01*
X132306674Y-88455818D01*
X132382948Y-88421204D01*
X132464204Y-88390640D01*
X132506722Y-88376471D01*
X132545252Y-88364996D01*
X132582067Y-88355940D01*
X132619437Y-88349025D01*
X132659635Y-88343976D01*
X132704931Y-88340515D01*
X132757599Y-88338367D01*
X132819908Y-88337254D01*
X132894131Y-88336901D01*
X132905758Y-88336897D01*
X132971498Y-88336991D01*
X133024802Y-88337343D01*
X133067751Y-88338057D01*
X133102423Y-88339235D01*
X133130897Y-88340982D01*
X133155251Y-88343402D01*
X133177565Y-88346597D01*
X133199916Y-88350671D01*
X133205790Y-88351846D01*
X133307785Y-88377170D01*
X133406808Y-88411530D01*
X133504884Y-88455886D01*
X133604042Y-88511198D01*
X133706309Y-88578424D01*
X133747545Y-88608131D01*
X133791391Y-88643769D01*
X133840161Y-88689055D01*
X133891325Y-88741182D01*
X133942358Y-88797343D01*
X133990729Y-88854731D01*
X134033911Y-88910539D01*
X134069375Y-88961960D01*
X134076427Y-88973288D01*
X134100801Y-89016389D01*
X134127240Y-89068111D01*
X134153559Y-89123759D01*
X134177578Y-89178637D01*
X134197113Y-89228050D01*
X134203997Y-89247668D01*
X134217571Y-89289988D01*
X134228571Y-89328421D01*
X134237259Y-89365225D01*
X134243899Y-89402658D01*
X134248754Y-89442977D01*
X134252086Y-89488442D01*
X134254160Y-89541309D01*
X134255237Y-89603837D01*
X134255582Y-89678283D01*
X134255587Y-89690354D01*
X134255491Y-89756809D01*
X134255137Y-89810783D01*
X134254429Y-89854307D01*
X134253267Y-89889412D01*
X134251554Y-89918130D01*
X134249191Y-89942492D01*
X134246082Y-89964530D01*
X134242127Y-89986276D01*
X134241062Y-89991578D01*
X134208132Y-90118039D01*
X134161660Y-90240361D01*
X134101467Y-90358893D01*
X134027374Y-90473987D01*
X133940087Y-90584968D01*
X133892722Y-90637749D01*
X133846860Y-90683496D01*
X133798794Y-90725449D01*
X133744815Y-90766848D01*
X133682272Y-90810227D01*
X133564066Y-90882163D01*
X133442099Y-90942794D01*
X133318571Y-90991141D01*
X133196044Y-91026144D01*
X133170096Y-91030287D01*
X133132157Y-91033857D01*
X133084740Y-91036820D01*
X133030359Y-91039144D01*
X132971527Y-91040796D01*
X132910758Y-91041744D01*
X132850564Y-91041955D01*
X132793458Y-91041397D01*
X132741955Y-91040036D01*
X132698567Y-91037842D01*
X132665808Y-91034780D01*
X132655387Y-91033146D01*
X132551758Y-91008733D01*
X132447856Y-90975327D01*
X132347324Y-90934405D01*
X132253808Y-90887446D01*
X132173785Y-90837897D01*
X132148367Y-90820382D01*
X132126509Y-90805467D01*
X132111686Y-90795517D01*
X132108476Y-90793439D01*
X132072735Y-90768127D01*
X132030818Y-90733702D01*
X131985312Y-90692623D01*
X131938805Y-90647347D01*
X131893884Y-90600334D01*
X131853136Y-90554040D01*
X131841127Y-90539439D01*
X131756632Y-90423789D01*
X131685628Y-90303124D01*
X131628232Y-90177687D01*
X131584559Y-90047717D01*
X131565435Y-89969754D01*
X131560661Y-89938294D01*
X131556838Y-89894976D01*
X131553967Y-89842425D01*
X131552048Y-89783264D01*
X131551079Y-89720120D01*
X131551071Y-89686725D01*
X131806872Y-89686725D01*
X131811180Y-89803633D01*
X131824601Y-89910771D01*
X131847485Y-90009940D01*
X131880177Y-90102937D01*
X131892991Y-90132173D01*
X131913236Y-90171505D01*
X131939996Y-90216624D01*
X131971512Y-90265139D01*
X132006023Y-90314659D01*
X132041771Y-90362794D01*
X132076995Y-90407153D01*
X132109934Y-90445345D01*
X132138831Y-90474980D01*
X132156186Y-90489708D01*
X132176957Y-90505912D01*
X132202060Y-90526617D01*
X132219958Y-90542011D01*
X132297044Y-90602506D01*
X132382143Y-90656170D01*
X132472105Y-90701473D01*
X132563782Y-90736888D01*
X132654023Y-90760885D01*
X132680787Y-90765699D01*
X132778568Y-90778517D01*
X132869459Y-90784365D01*
X132959258Y-90783316D01*
X133053765Y-90775443D01*
X133090815Y-90770851D01*
X133197186Y-90750462D01*
X133298519Y-90717947D01*
X133397251Y-90672421D01*
X133458559Y-90637066D01*
X133497721Y-90611190D01*
X133543191Y-90578624D01*
X133590697Y-90542615D01*
X133635967Y-90506408D01*
X133674727Y-90473250D01*
X133677724Y-90470551D01*
X133707147Y-90440779D01*
X133741473Y-90400864D01*
X133778713Y-90353433D01*
X133816875Y-90301115D01*
X133853970Y-90246539D01*
X133886571Y-90194725D01*
X133897665Y-90173307D01*
X133911528Y-90142243D01*
X133926490Y-90105705D01*
X133940882Y-90067865D01*
X133953034Y-90032895D01*
X133958697Y-90014531D01*
X133975106Y-89943652D01*
X133987193Y-89862700D01*
X133994773Y-89775516D01*
X133997659Y-89685940D01*
X133995666Y-89597811D01*
X133988607Y-89514970D01*
X133984360Y-89484407D01*
X133959365Y-89371461D01*
X133920490Y-89261879D01*
X133868110Y-89156297D01*
X133802602Y-89055353D01*
X133724341Y-88959686D01*
X133633703Y-88869931D01*
X133609701Y-88848957D01*
X133509816Y-88771943D01*
X133406694Y-88708392D01*
X133301002Y-88658691D01*
X133246844Y-88638971D01*
X133173869Y-88619732D01*
X133090969Y-88606041D01*
X133001339Y-88597866D01*
X132908176Y-88595175D01*
X132814676Y-88597936D01*
X132724036Y-88606117D01*
X132639452Y-88619685D01*
X132564120Y-88638610D01*
X132541769Y-88646048D01*
X132493430Y-88665425D01*
X132440213Y-88690236D01*
X132386874Y-88718013D01*
X132338167Y-88746286D01*
X132300800Y-88771151D01*
X132264147Y-88799233D01*
X132224259Y-88831963D01*
X132183711Y-88867021D01*
X132145077Y-88902083D01*
X132110932Y-88934827D01*
X132083848Y-88962931D01*
X132069557Y-88979778D01*
X132004043Y-89068736D01*
X131949504Y-89151378D01*
X131905132Y-89229871D01*
X131870124Y-89306382D01*
X131843674Y-89383076D01*
X131824978Y-89462121D01*
X131813230Y-89545681D01*
X131807626Y-89635924D01*
X131806872Y-89686725D01*
X131551071Y-89686725D01*
X131551062Y-89655617D01*
X131551997Y-89592380D01*
G37*
X131551997Y-89592380D02*
X131553883Y-89533033D01*
X131556720Y-89480201D01*
X131560509Y-89436510D01*
X131565249Y-89404583D01*
X131565435Y-89403697D01*
X131598748Y-89280535D01*
X131645441Y-89158759D01*
X131704388Y-89040133D01*
X131774459Y-88926417D01*
X131854525Y-88819374D01*
X131943460Y-88720766D01*
X132040134Y-88632355D01*
X132079182Y-88601405D01*
X132158540Y-88543866D01*
X132233121Y-88496021D01*
X132306674Y-88455818D01*
X132382948Y-88421204D01*
X132464204Y-88390640D01*
X132506722Y-88376471D01*
X132545252Y-88364996D01*
X132582067Y-88355940D01*
X132619437Y-88349025D01*
X132659635Y-88343976D01*
X132704931Y-88340515D01*
X132757599Y-88338367D01*
X132819908Y-88337254D01*
X132894131Y-88336901D01*
X132905758Y-88336897D01*
X132971498Y-88336991D01*
X133024802Y-88337343D01*
X133067751Y-88338057D01*
X133102423Y-88339235D01*
X133130897Y-88340982D01*
X133155251Y-88343402D01*
X133177565Y-88346597D01*
X133199916Y-88350671D01*
X133205790Y-88351846D01*
X133307785Y-88377170D01*
X133406808Y-88411530D01*
X133504884Y-88455886D01*
X133604042Y-88511198D01*
X133706309Y-88578424D01*
X133747545Y-88608131D01*
X133791391Y-88643769D01*
X133840161Y-88689055D01*
X133891325Y-88741182D01*
X133942358Y-88797343D01*
X133990729Y-88854731D01*
X134033911Y-88910539D01*
X134069375Y-88961960D01*
X134076427Y-88973288D01*
X134100801Y-89016389D01*
X134127240Y-89068111D01*
X134153559Y-89123759D01*
X134177578Y-89178637D01*
X134197113Y-89228050D01*
X134203997Y-89247668D01*
X134217571Y-89289988D01*
X134228571Y-89328421D01*
X134237259Y-89365225D01*
X134243899Y-89402658D01*
X134248754Y-89442977D01*
X134252086Y-89488442D01*
X134254160Y-89541309D01*
X134255237Y-89603837D01*
X134255582Y-89678283D01*
X134255587Y-89690354D01*
X134255491Y-89756809D01*
X134255137Y-89810783D01*
X134254429Y-89854307D01*
X134253267Y-89889412D01*
X134251554Y-89918130D01*
X134249191Y-89942492D01*
X134246082Y-89964530D01*
X134242127Y-89986276D01*
X134241062Y-89991578D01*
X134208132Y-90118039D01*
X134161660Y-90240361D01*
X134101467Y-90358893D01*
X134027374Y-90473987D01*
X133940087Y-90584968D01*
X133892722Y-90637749D01*
X133846860Y-90683496D01*
X133798794Y-90725449D01*
X133744815Y-90766848D01*
X133682272Y-90810227D01*
X133564066Y-90882163D01*
X133442099Y-90942794D01*
X133318571Y-90991141D01*
X133196044Y-91026144D01*
X133170096Y-91030287D01*
X133132157Y-91033857D01*
X133084740Y-91036820D01*
X133030359Y-91039144D01*
X132971527Y-91040796D01*
X132910758Y-91041744D01*
X132850564Y-91041955D01*
X132793458Y-91041397D01*
X132741955Y-91040036D01*
X132698567Y-91037842D01*
X132665808Y-91034780D01*
X132655387Y-91033146D01*
X132551758Y-91008733D01*
X132447856Y-90975327D01*
X132347324Y-90934405D01*
X132253808Y-90887446D01*
X132173785Y-90837897D01*
X132148367Y-90820382D01*
X132126509Y-90805467D01*
X132111686Y-90795517D01*
X132108476Y-90793439D01*
X132072735Y-90768127D01*
X132030818Y-90733702D01*
X131985312Y-90692623D01*
X131938805Y-90647347D01*
X131893884Y-90600334D01*
X131853136Y-90554040D01*
X131841127Y-90539439D01*
X131756632Y-90423789D01*
X131685628Y-90303124D01*
X131628232Y-90177687D01*
X131584559Y-90047717D01*
X131565435Y-89969754D01*
X131560661Y-89938294D01*
X131556838Y-89894976D01*
X131553967Y-89842425D01*
X131552048Y-89783264D01*
X131551079Y-89720120D01*
X131551071Y-89686725D01*
X131806872Y-89686725D01*
X131811180Y-89803633D01*
X131824601Y-89910771D01*
X131847485Y-90009940D01*
X131880177Y-90102937D01*
X131892991Y-90132173D01*
X131913236Y-90171505D01*
X131939996Y-90216624D01*
X131971512Y-90265139D01*
X132006023Y-90314659D01*
X132041771Y-90362794D01*
X132076995Y-90407153D01*
X132109934Y-90445345D01*
X132138831Y-90474980D01*
X132156186Y-90489708D01*
X132176957Y-90505912D01*
X132202060Y-90526617D01*
X132219958Y-90542011D01*
X132297044Y-90602506D01*
X132382143Y-90656170D01*
X132472105Y-90701473D01*
X132563782Y-90736888D01*
X132654023Y-90760885D01*
X132680787Y-90765699D01*
X132778568Y-90778517D01*
X132869459Y-90784365D01*
X132959258Y-90783316D01*
X133053765Y-90775443D01*
X133090815Y-90770851D01*
X133197186Y-90750462D01*
X133298519Y-90717947D01*
X133397251Y-90672421D01*
X133458559Y-90637066D01*
X133497721Y-90611190D01*
X133543191Y-90578624D01*
X133590697Y-90542615D01*
X133635967Y-90506408D01*
X133674727Y-90473250D01*
X133677724Y-90470551D01*
X133707147Y-90440779D01*
X133741473Y-90400864D01*
X133778713Y-90353433D01*
X133816875Y-90301115D01*
X133853970Y-90246539D01*
X133886571Y-90194725D01*
X133897665Y-90173307D01*
X133911528Y-90142243D01*
X133926490Y-90105705D01*
X133940882Y-90067865D01*
X133953034Y-90032895D01*
X133958697Y-90014531D01*
X133975106Y-89943652D01*
X133987193Y-89862700D01*
X133994773Y-89775516D01*
X133997659Y-89685940D01*
X133995666Y-89597811D01*
X133988607Y-89514970D01*
X133984360Y-89484407D01*
X133959365Y-89371461D01*
X133920490Y-89261879D01*
X133868110Y-89156297D01*
X133802602Y-89055353D01*
X133724341Y-88959686D01*
X133633703Y-88869931D01*
X133609701Y-88848957D01*
X133509816Y-88771943D01*
X133406694Y-88708392D01*
X133301002Y-88658691D01*
X133246844Y-88638971D01*
X133173869Y-88619732D01*
X133090969Y-88606041D01*
X133001339Y-88597866D01*
X132908176Y-88595175D01*
X132814676Y-88597936D01*
X132724036Y-88606117D01*
X132639452Y-88619685D01*
X132564120Y-88638610D01*
X132541769Y-88646048D01*
X132493430Y-88665425D01*
X132440213Y-88690236D01*
X132386874Y-88718013D01*
X132338167Y-88746286D01*
X132300800Y-88771151D01*
X132264147Y-88799233D01*
X132224259Y-88831963D01*
X132183711Y-88867021D01*
X132145077Y-88902083D01*
X132110932Y-88934827D01*
X132083848Y-88962931D01*
X132069557Y-88979778D01*
X132004043Y-89068736D01*
X131949504Y-89151378D01*
X131905132Y-89229871D01*
X131870124Y-89306382D01*
X131843674Y-89383076D01*
X131824978Y-89462121D01*
X131813230Y-89545681D01*
X131807626Y-89635924D01*
X131806872Y-89686725D01*
X131551071Y-89686725D01*
X131551062Y-89655617D01*
X131551997Y-89592380D01*
D14*
X87340000Y-57510000D03*
D15*
X87340000Y-60050000D03*
X87340000Y-62590000D03*
X87340000Y-65130000D03*
X87340000Y-67670000D03*
X87340000Y-70210000D03*
X87340000Y-72750000D03*
X87340000Y-75290000D03*
X87340000Y-77830000D03*
X87340000Y-80370000D03*
X87340000Y-82910000D03*
X87340000Y-85450000D03*
X102580000Y-85450000D03*
X102580000Y-82910000D03*
X102580000Y-80370000D03*
X102580000Y-77830000D03*
X102580000Y-75290000D03*
X102580000Y-72750000D03*
X102580000Y-70210000D03*
X102580000Y-67670000D03*
X102580000Y-65130000D03*
X102580000Y-62590000D03*
X102580000Y-60050000D03*
X102580000Y-57510000D03*
%LPC*%
D14*
X87340000Y-57510000D03*
D15*
X87340000Y-60050000D03*
X87340000Y-62590000D03*
X87340000Y-65130000D03*
X87340000Y-67670000D03*
X87340000Y-70210000D03*
X87340000Y-72750000D03*
X87340000Y-75290000D03*
X87340000Y-77830000D03*
X87340000Y-80370000D03*
X87340000Y-82910000D03*
X87340000Y-85450000D03*
X102580000Y-85450000D03*
X102580000Y-82910000D03*
X102580000Y-80370000D03*
X102580000Y-77830000D03*
X102580000Y-75290000D03*
X102580000Y-72750000D03*
X102580000Y-70210000D03*
X102580000Y-67670000D03*
X102580000Y-65130000D03*
X102580000Y-62590000D03*
X102580000Y-60050000D03*
X102580000Y-57510000D03*
D16*
X93760000Y-98080000D03*
D17*
X86140000Y-103160000D03*
D16*
X87410000Y-100620000D03*
D18*
X91220000Y-103160000D03*
D17*
X96300000Y-103160000D03*
D16*
X106460000Y-100620000D03*
D17*
X115350000Y-103160000D03*
X105190000Y-103160000D03*
D18*
X110270000Y-103160000D03*
D16*
X112810000Y-98080000D03*
D17*
X124240000Y-103160000D03*
D16*
X131860000Y-98080000D03*
D17*
X134400000Y-103160000D03*
D16*
X125510000Y-100620000D03*
D18*
X129320000Y-103160000D03*
D17*
X86140000Y-122210000D03*
D18*
X91220000Y-122210000D03*
D17*
X96300000Y-122210000D03*
D16*
X93760000Y-117130000D03*
X87410000Y-119670000D03*
D17*
X105190000Y-122210000D03*
D16*
X112810000Y-117130000D03*
D18*
X110270000Y-122210000D03*
D17*
X115350000Y-122210000D03*
D16*
X106460000Y-119670000D03*
D18*
X129320000Y-122210000D03*
D16*
X131860000Y-117130000D03*
X125510000Y-119670000D03*
D17*
X134400000Y-122210000D03*
X124240000Y-122210000D03*
D19*
X107770000Y-75660000D03*
D20*
X112770000Y-75660000D03*
X110270000Y-75660000D03*
D21*
X104970000Y-68160000D03*
X115570000Y-68160000D03*
D20*
X112770000Y-61160000D03*
X107770000Y-61160000D03*
D22*
X84600000Y-112685000D03*
X135940000Y-112685000D03*
X135940000Y-49730000D03*
X84600000Y-49730000D03*
D23*
X106250000Y-48810000D03*
D24*
X103710000Y-48810000D03*
D25*
X118870000Y-50820000D03*
D26*
X118870000Y-48820000D03*
D27*
X114990000Y-83170000D03*
D28*
X114990000Y-75670000D03*
D27*
X105570000Y-75650000D03*
D28*
X105570000Y-83150000D03*
D29*
X114040000Y-48750000D03*
X111040000Y-48750000D03*
M02*
