M48
; DRILL file {KiCad (6.0.4)} date Thu Apr  7 14:18:01 2022
; FORMAT={-:-/ absolute / inch / decimal}
; #@! TF.CreationDate,2022-04-07T14:18:01+02:00
; #@! TF.GenerationSoftware,Kicad,Pcbnew,(6.0.4)
; #@! TF.FileFunction,NonPlated,1,2,NPTH
FMAT,2
INCH
; #@! TA.AperFunction,NonPlated,NPTH,ComponentDrill
T1C0.0335
; #@! TA.AperFunction,NonPlated,NPTH,ComponentDrill
T2C0.0670
; #@! TA.AperFunction,NonPlated,NPTH,ComponentDrill
T3C0.1181
; #@! TA.AperFunction,NonPlated,NPTH,ComponentDrill
T4C0.1457
; #@! TA.AperFunction,NonPlated,NPTH,ComponentDrill
T5C0.1570
%
G90
G05
T1
X4.3717Y-1.9193
X4.4898Y-1.9193
T2
X3.3913Y-4.0614
X3.3913Y-4.8114
X3.7913Y-4.0614
X3.7913Y-4.8114
X4.1413Y-4.0614
X4.1413Y-4.8114
X4.5413Y-4.0614
X4.5413Y-4.8114
X4.8913Y-4.0614
X4.8913Y-4.8114
X5.2913Y-4.0614
X5.2913Y-4.8114
T3
X3.4413Y-3.9614
X3.4413Y-4.7114
X3.6913Y-3.8614
X3.6913Y-4.6114
X4.1913Y-3.9614
X4.1913Y-4.7114
X4.4413Y-3.8614
X4.4413Y-4.6114
X4.9413Y-3.9614
X4.9413Y-4.7114
X5.1913Y-3.8614
X5.1913Y-4.6114
T4
X3.3307Y-1.9579
X3.3307Y-4.4364
X5.352Y-1.9579
X5.352Y-4.4364
T5
X3.5913Y-4.0614
X3.5913Y-4.8114
X4.3413Y-4.0614
X4.3413Y-4.8114
X5.0913Y-4.0614
X5.0913Y-4.8114
T0
M30
