%TF.GenerationSoftware,KiCad,Pcbnew,(6.0.4)*%
%TF.CreationDate,2022-08-26T14:02:31+02:00*%
%TF.ProjectId,Little Big Scroll 6 - Front Plate,4c697474-6c65-4204-9269-67205363726f,v1.1*%
%TF.SameCoordinates,Original*%
%TF.FileFunction,Legend,Top*%
%TF.FilePolarity,Positive*%
%FSLAX46Y46*%
G04 Gerber Fmt 4.6, Leading zero omitted, Abs format (unit mm)*
G04 Created by KiCad (PCBNEW (6.0.4)) date 2022-08-26 14:02:31*
%MOMM*%
%LPD*%
G01*
G04 APERTURE LIST*
%ADD10C,0.150000*%
%ADD11C,0.010000*%
%ADD12C,1.000000*%
%ADD13C,3.700000*%
G04 APERTURE END LIST*
D10*
X101047102Y-90763904D02*
X100666149Y-90763904D01*
X100666149Y-89963904D01*
X101313768Y-90763904D02*
X101313768Y-90230571D01*
X101313768Y-89963904D02*
X101275673Y-90002000D01*
X101313768Y-90040095D01*
X101351864Y-90002000D01*
X101313768Y-89963904D01*
X101313768Y-90040095D01*
X101580435Y-90230571D02*
X101885197Y-90230571D01*
X101694721Y-89963904D02*
X101694721Y-90649619D01*
X101732816Y-90725809D01*
X101809007Y-90763904D01*
X101885197Y-90763904D01*
X102037578Y-90230571D02*
X102342340Y-90230571D01*
X102151864Y-89963904D02*
X102151864Y-90649619D01*
X102189959Y-90725809D01*
X102266149Y-90763904D01*
X102342340Y-90763904D01*
X102723292Y-90763904D02*
X102647102Y-90725809D01*
X102609007Y-90649619D01*
X102609007Y-89963904D01*
X103332816Y-90725809D02*
X103256626Y-90763904D01*
X103104245Y-90763904D01*
X103028054Y-90725809D01*
X102989959Y-90649619D01*
X102989959Y-90344857D01*
X103028054Y-90268666D01*
X103104245Y-90230571D01*
X103256626Y-90230571D01*
X103332816Y-90268666D01*
X103370911Y-90344857D01*
X103370911Y-90421047D01*
X102989959Y-90497238D01*
X104589959Y-90344857D02*
X104704245Y-90382952D01*
X104742340Y-90421047D01*
X104780435Y-90497238D01*
X104780435Y-90611523D01*
X104742340Y-90687714D01*
X104704245Y-90725809D01*
X104628054Y-90763904D01*
X104323292Y-90763904D01*
X104323292Y-89963904D01*
X104589959Y-89963904D01*
X104666149Y-90002000D01*
X104704245Y-90040095D01*
X104742340Y-90116285D01*
X104742340Y-90192476D01*
X104704245Y-90268666D01*
X104666149Y-90306761D01*
X104589959Y-90344857D01*
X104323292Y-90344857D01*
X105123292Y-90763904D02*
X105123292Y-90230571D01*
X105123292Y-89963904D02*
X105085197Y-90002000D01*
X105123292Y-90040095D01*
X105161388Y-90002000D01*
X105123292Y-89963904D01*
X105123292Y-90040095D01*
X105847102Y-90230571D02*
X105847102Y-90878190D01*
X105809007Y-90954380D01*
X105770911Y-90992476D01*
X105694721Y-91030571D01*
X105580435Y-91030571D01*
X105504245Y-90992476D01*
X105847102Y-90725809D02*
X105770911Y-90763904D01*
X105618530Y-90763904D01*
X105542340Y-90725809D01*
X105504245Y-90687714D01*
X105466149Y-90611523D01*
X105466149Y-90382952D01*
X105504245Y-90306761D01*
X105542340Y-90268666D01*
X105618530Y-90230571D01*
X105770911Y-90230571D01*
X105847102Y-90268666D01*
X106799483Y-90725809D02*
X106913768Y-90763904D01*
X107104245Y-90763904D01*
X107180435Y-90725809D01*
X107218530Y-90687714D01*
X107256626Y-90611523D01*
X107256626Y-90535333D01*
X107218530Y-90459142D01*
X107180435Y-90421047D01*
X107104245Y-90382952D01*
X106951864Y-90344857D01*
X106875673Y-90306761D01*
X106837578Y-90268666D01*
X106799483Y-90192476D01*
X106799483Y-90116285D01*
X106837578Y-90040095D01*
X106875673Y-90002000D01*
X106951864Y-89963904D01*
X107142340Y-89963904D01*
X107256626Y-90002000D01*
X107942340Y-90725809D02*
X107866149Y-90763904D01*
X107713768Y-90763904D01*
X107637578Y-90725809D01*
X107599483Y-90687714D01*
X107561388Y-90611523D01*
X107561388Y-90382952D01*
X107599483Y-90306761D01*
X107637578Y-90268666D01*
X107713768Y-90230571D01*
X107866149Y-90230571D01*
X107942340Y-90268666D01*
X108285197Y-90763904D02*
X108285197Y-90230571D01*
X108285197Y-90382952D02*
X108323292Y-90306761D01*
X108361388Y-90268666D01*
X108437578Y-90230571D01*
X108513768Y-90230571D01*
X108894721Y-90763904D02*
X108818530Y-90725809D01*
X108780435Y-90687714D01*
X108742340Y-90611523D01*
X108742340Y-90382952D01*
X108780435Y-90306761D01*
X108818530Y-90268666D01*
X108894721Y-90230571D01*
X109009007Y-90230571D01*
X109085197Y-90268666D01*
X109123292Y-90306761D01*
X109161388Y-90382952D01*
X109161388Y-90611523D01*
X109123292Y-90687714D01*
X109085197Y-90725809D01*
X109009007Y-90763904D01*
X108894721Y-90763904D01*
X109618530Y-90763904D02*
X109542340Y-90725809D01*
X109504245Y-90649619D01*
X109504245Y-89963904D01*
X110037578Y-90763904D02*
X109961388Y-90725809D01*
X109923292Y-90649619D01*
X109923292Y-89963904D01*
X111294721Y-89963904D02*
X111142340Y-89963904D01*
X111066149Y-90002000D01*
X111028054Y-90040095D01*
X110951864Y-90154380D01*
X110913768Y-90306761D01*
X110913768Y-90611523D01*
X110951864Y-90687714D01*
X110989959Y-90725809D01*
X111066149Y-90763904D01*
X111218530Y-90763904D01*
X111294721Y-90725809D01*
X111332816Y-90687714D01*
X111370911Y-90611523D01*
X111370911Y-90421047D01*
X111332816Y-90344857D01*
X111294721Y-90306761D01*
X111218530Y-90268666D01*
X111066149Y-90268666D01*
X110989959Y-90306761D01*
X110951864Y-90344857D01*
X110913768Y-90421047D01*
X112323292Y-90459142D02*
X112932816Y-90459142D01*
X113847102Y-90230571D02*
X114037578Y-90763904D01*
X114228054Y-90230571D01*
X114951864Y-90763904D02*
X114494721Y-90763904D01*
X114723292Y-90763904D02*
X114723292Y-89963904D01*
X114647102Y-90078190D01*
X114570911Y-90154380D01*
X114494721Y-90192476D01*
X115294721Y-90687714D02*
X115332816Y-90725809D01*
X115294721Y-90763904D01*
X115256626Y-90725809D01*
X115294721Y-90687714D01*
X115294721Y-90763904D01*
X116094721Y-90763904D02*
X115637578Y-90763904D01*
X115866149Y-90763904D02*
X115866149Y-89963904D01*
X115789959Y-90078190D01*
X115713768Y-90154380D01*
X115637578Y-90192476D01*
X101618530Y-92051904D02*
X101618530Y-91251904D01*
X101885197Y-91823333D01*
X102151864Y-91251904D01*
X102151864Y-92051904D01*
X102875673Y-92051904D02*
X102875673Y-91632857D01*
X102837578Y-91556666D01*
X102761388Y-91518571D01*
X102609007Y-91518571D01*
X102532816Y-91556666D01*
X102875673Y-92013809D02*
X102799483Y-92051904D01*
X102609007Y-92051904D01*
X102532816Y-92013809D01*
X102494721Y-91937619D01*
X102494721Y-91861428D01*
X102532816Y-91785238D01*
X102609007Y-91747142D01*
X102799483Y-91747142D01*
X102875673Y-91709047D01*
X103256626Y-92051904D02*
X103256626Y-91518571D01*
X103256626Y-91670952D02*
X103294721Y-91594761D01*
X103332816Y-91556666D01*
X103409007Y-91518571D01*
X103485197Y-91518571D01*
X103751864Y-92051904D02*
X103751864Y-91251904D01*
X103828054Y-91747142D02*
X104056626Y-92051904D01*
X104056626Y-91518571D02*
X103751864Y-91823333D01*
X104742340Y-91518571D02*
X104742340Y-92051904D01*
X104399483Y-91518571D02*
X104399483Y-91937619D01*
X104437578Y-92013809D01*
X104513768Y-92051904D01*
X104628054Y-92051904D01*
X104704245Y-92013809D01*
X104742340Y-91975714D01*
X105085197Y-92013809D02*
X105161388Y-92051904D01*
X105313768Y-92051904D01*
X105389959Y-92013809D01*
X105428054Y-91937619D01*
X105428054Y-91899523D01*
X105389959Y-91823333D01*
X105313768Y-91785238D01*
X105199483Y-91785238D01*
X105123292Y-91747142D01*
X105085197Y-91670952D01*
X105085197Y-91632857D01*
X105123292Y-91556666D01*
X105199483Y-91518571D01*
X105313768Y-91518571D01*
X105389959Y-91556666D01*
X106380435Y-92051904D02*
X106380435Y-91251904D01*
X106837578Y-92051904D02*
X106494721Y-91594761D01*
X106837578Y-91251904D02*
X106380435Y-91709047D01*
X107180435Y-91518571D02*
X107180435Y-92051904D01*
X107180435Y-91594761D02*
X107218530Y-91556666D01*
X107294721Y-91518571D01*
X107409007Y-91518571D01*
X107485197Y-91556666D01*
X107523292Y-91632857D01*
X107523292Y-92051904D01*
X108247102Y-91518571D02*
X108247102Y-92051904D01*
X107904245Y-91518571D02*
X107904245Y-91937619D01*
X107942340Y-92013809D01*
X108018530Y-92051904D01*
X108132816Y-92051904D01*
X108209007Y-92013809D01*
X108247102Y-91975714D01*
X108513768Y-91518571D02*
X108818530Y-91518571D01*
X108628054Y-91251904D02*
X108628054Y-91937619D01*
X108666149Y-92013809D01*
X108742340Y-92051904D01*
X108818530Y-92051904D01*
X109047102Y-92013809D02*
X109123292Y-92051904D01*
X109275673Y-92051904D01*
X109351864Y-92013809D01*
X109389959Y-91937619D01*
X109389959Y-91899523D01*
X109351864Y-91823333D01*
X109275673Y-91785238D01*
X109161388Y-91785238D01*
X109085197Y-91747142D01*
X109047102Y-91670952D01*
X109047102Y-91632857D01*
X109085197Y-91556666D01*
X109161388Y-91518571D01*
X109275673Y-91518571D01*
X109351864Y-91556666D01*
X109694721Y-92013809D02*
X109770911Y-92051904D01*
X109923292Y-92051904D01*
X109999483Y-92013809D01*
X110037578Y-91937619D01*
X110037578Y-91899523D01*
X109999483Y-91823333D01*
X109923292Y-91785238D01*
X109809007Y-91785238D01*
X109732816Y-91747142D01*
X109694721Y-91670952D01*
X109694721Y-91632857D01*
X109732816Y-91556666D01*
X109809007Y-91518571D01*
X109923292Y-91518571D01*
X109999483Y-91556666D01*
X110494721Y-92051904D02*
X110418530Y-92013809D01*
X110380435Y-91975714D01*
X110342340Y-91899523D01*
X110342340Y-91670952D01*
X110380435Y-91594761D01*
X110418530Y-91556666D01*
X110494721Y-91518571D01*
X110609007Y-91518571D01*
X110685197Y-91556666D01*
X110723292Y-91594761D01*
X110761388Y-91670952D01*
X110761388Y-91899523D01*
X110723292Y-91975714D01*
X110685197Y-92013809D01*
X110609007Y-92051904D01*
X110494721Y-92051904D01*
X111104245Y-91518571D02*
X111104245Y-92051904D01*
X111104245Y-91594761D02*
X111142340Y-91556666D01*
X111218530Y-91518571D01*
X111332816Y-91518571D01*
X111409007Y-91556666D01*
X111447102Y-91632857D01*
X111447102Y-92051904D01*
X112399483Y-91328095D02*
X112437578Y-91290000D01*
X112513768Y-91251904D01*
X112704245Y-91251904D01*
X112780435Y-91290000D01*
X112818530Y-91328095D01*
X112856626Y-91404285D01*
X112856626Y-91480476D01*
X112818530Y-91594761D01*
X112361388Y-92051904D01*
X112856626Y-92051904D01*
X113351864Y-91251904D02*
X113428054Y-91251904D01*
X113504245Y-91290000D01*
X113542340Y-91328095D01*
X113580435Y-91404285D01*
X113618530Y-91556666D01*
X113618530Y-91747142D01*
X113580435Y-91899523D01*
X113542340Y-91975714D01*
X113504245Y-92013809D01*
X113428054Y-92051904D01*
X113351864Y-92051904D01*
X113275673Y-92013809D01*
X113237578Y-91975714D01*
X113199483Y-91899523D01*
X113161388Y-91747142D01*
X113161388Y-91556666D01*
X113199483Y-91404285D01*
X113237578Y-91328095D01*
X113275673Y-91290000D01*
X113351864Y-91251904D01*
X113923292Y-91328095D02*
X113961388Y-91290000D01*
X114037578Y-91251904D01*
X114228054Y-91251904D01*
X114304245Y-91290000D01*
X114342340Y-91328095D01*
X114380435Y-91404285D01*
X114380435Y-91480476D01*
X114342340Y-91594761D01*
X113885197Y-92051904D01*
X114380435Y-92051904D01*
X114685197Y-91328095D02*
X114723292Y-91290000D01*
X114799483Y-91251904D01*
X114989959Y-91251904D01*
X115066149Y-91290000D01*
X115104245Y-91328095D01*
X115142340Y-91404285D01*
X115142340Y-91480476D01*
X115104245Y-91594761D01*
X114647102Y-92051904D01*
X115142340Y-92051904D01*
X98399483Y-93339904D02*
X98399483Y-92539904D01*
X98742340Y-93339904D02*
X98742340Y-92920857D01*
X98704245Y-92844666D01*
X98628054Y-92806571D01*
X98513768Y-92806571D01*
X98437578Y-92844666D01*
X98399483Y-92882761D01*
X99009007Y-92806571D02*
X99313768Y-92806571D01*
X99123292Y-92539904D02*
X99123292Y-93225619D01*
X99161388Y-93301809D01*
X99237578Y-93339904D01*
X99313768Y-93339904D01*
X99466149Y-92806571D02*
X99770911Y-92806571D01*
X99580435Y-92539904D02*
X99580435Y-93225619D01*
X99618530Y-93301809D01*
X99694721Y-93339904D01*
X99770911Y-93339904D01*
X100037578Y-92806571D02*
X100037578Y-93606571D01*
X100037578Y-92844666D02*
X100113768Y-92806571D01*
X100266149Y-92806571D01*
X100342340Y-92844666D01*
X100380435Y-92882761D01*
X100418530Y-92958952D01*
X100418530Y-93187523D01*
X100380435Y-93263714D01*
X100342340Y-93301809D01*
X100266149Y-93339904D01*
X100113768Y-93339904D01*
X100037578Y-93301809D01*
X100723292Y-93301809D02*
X100799483Y-93339904D01*
X100951864Y-93339904D01*
X101028054Y-93301809D01*
X101066149Y-93225619D01*
X101066149Y-93187523D01*
X101028054Y-93111333D01*
X100951864Y-93073238D01*
X100837578Y-93073238D01*
X100761388Y-93035142D01*
X100723292Y-92958952D01*
X100723292Y-92920857D01*
X100761388Y-92844666D01*
X100837578Y-92806571D01*
X100951864Y-92806571D01*
X101028054Y-92844666D01*
X101409007Y-93263714D02*
X101447102Y-93301809D01*
X101409007Y-93339904D01*
X101370911Y-93301809D01*
X101409007Y-93263714D01*
X101409007Y-93339904D01*
X101409007Y-92844666D02*
X101447102Y-92882761D01*
X101409007Y-92920857D01*
X101370911Y-92882761D01*
X101409007Y-92844666D01*
X101409007Y-92920857D01*
X102361388Y-92501809D02*
X101675673Y-93530380D01*
X103199483Y-92501809D02*
X102513768Y-93530380D01*
X103809007Y-92806571D02*
X103809007Y-93454190D01*
X103770911Y-93530380D01*
X103732816Y-93568476D01*
X103656626Y-93606571D01*
X103542340Y-93606571D01*
X103466149Y-93568476D01*
X103809007Y-93301809D02*
X103732816Y-93339904D01*
X103580435Y-93339904D01*
X103504245Y-93301809D01*
X103466149Y-93263714D01*
X103428054Y-93187523D01*
X103428054Y-92958952D01*
X103466149Y-92882761D01*
X103504245Y-92844666D01*
X103580435Y-92806571D01*
X103732816Y-92806571D01*
X103809007Y-92844666D01*
X104189959Y-93339904D02*
X104189959Y-92806571D01*
X104189959Y-92539904D02*
X104151864Y-92578000D01*
X104189959Y-92616095D01*
X104228054Y-92578000D01*
X104189959Y-92539904D01*
X104189959Y-92616095D01*
X104456626Y-92806571D02*
X104761388Y-92806571D01*
X104570911Y-92539904D02*
X104570911Y-93225619D01*
X104609007Y-93301809D01*
X104685197Y-93339904D01*
X104761388Y-93339904D01*
X105028054Y-93339904D02*
X105028054Y-92539904D01*
X105370911Y-93339904D02*
X105370911Y-92920857D01*
X105332816Y-92844666D01*
X105256626Y-92806571D01*
X105142340Y-92806571D01*
X105066149Y-92844666D01*
X105028054Y-92882761D01*
X106094721Y-92806571D02*
X106094721Y-93339904D01*
X105751864Y-92806571D02*
X105751864Y-93225619D01*
X105789959Y-93301809D01*
X105866149Y-93339904D01*
X105980435Y-93339904D01*
X106056626Y-93301809D01*
X106094721Y-93263714D01*
X106475673Y-93339904D02*
X106475673Y-92539904D01*
X106475673Y-92844666D02*
X106551864Y-92806571D01*
X106704245Y-92806571D01*
X106780435Y-92844666D01*
X106818530Y-92882761D01*
X106856626Y-92958952D01*
X106856626Y-93187523D01*
X106818530Y-93263714D01*
X106780435Y-93301809D01*
X106704245Y-93339904D01*
X106551864Y-93339904D01*
X106475673Y-93301809D01*
X107199483Y-93263714D02*
X107237578Y-93301809D01*
X107199483Y-93339904D01*
X107161388Y-93301809D01*
X107199483Y-93263714D01*
X107199483Y-93339904D01*
X107923292Y-93301809D02*
X107847102Y-93339904D01*
X107694721Y-93339904D01*
X107618530Y-93301809D01*
X107580435Y-93263714D01*
X107542340Y-93187523D01*
X107542340Y-92958952D01*
X107580435Y-92882761D01*
X107618530Y-92844666D01*
X107694721Y-92806571D01*
X107847102Y-92806571D01*
X107923292Y-92844666D01*
X108380435Y-93339904D02*
X108304245Y-93301809D01*
X108266149Y-93263714D01*
X108228054Y-93187523D01*
X108228054Y-92958952D01*
X108266149Y-92882761D01*
X108304245Y-92844666D01*
X108380435Y-92806571D01*
X108494721Y-92806571D01*
X108570911Y-92844666D01*
X108609007Y-92882761D01*
X108647102Y-92958952D01*
X108647102Y-93187523D01*
X108609007Y-93263714D01*
X108570911Y-93301809D01*
X108494721Y-93339904D01*
X108380435Y-93339904D01*
X108989959Y-93339904D02*
X108989959Y-92806571D01*
X108989959Y-92882761D02*
X109028054Y-92844666D01*
X109104245Y-92806571D01*
X109218530Y-92806571D01*
X109294721Y-92844666D01*
X109332816Y-92920857D01*
X109332816Y-93339904D01*
X109332816Y-92920857D02*
X109370911Y-92844666D01*
X109447102Y-92806571D01*
X109561388Y-92806571D01*
X109637578Y-92844666D01*
X109675673Y-92920857D01*
X109675673Y-93339904D01*
X110628054Y-92501809D02*
X109942340Y-93530380D01*
X110780435Y-92539904D02*
X111237578Y-92539904D01*
X111009007Y-93339904D02*
X111009007Y-92539904D01*
X111428054Y-92806571D02*
X111580435Y-93339904D01*
X111732816Y-92958952D01*
X111885197Y-93339904D01*
X112037578Y-92806571D01*
X112647102Y-93301809D02*
X112570911Y-93339904D01*
X112418530Y-93339904D01*
X112342340Y-93301809D01*
X112304245Y-93225619D01*
X112304245Y-92920857D01*
X112342340Y-92844666D01*
X112418530Y-92806571D01*
X112570911Y-92806571D01*
X112647102Y-92844666D01*
X112685197Y-92920857D01*
X112685197Y-92997047D01*
X112304245Y-93073238D01*
X113332816Y-93301809D02*
X113256626Y-93339904D01*
X113104245Y-93339904D01*
X113028054Y-93301809D01*
X112989959Y-93225619D01*
X112989959Y-92920857D01*
X113028054Y-92844666D01*
X113104245Y-92806571D01*
X113256626Y-92806571D01*
X113332816Y-92844666D01*
X113370911Y-92920857D01*
X113370911Y-92997047D01*
X112989959Y-93073238D01*
X113599483Y-92806571D02*
X113904245Y-92806571D01*
X113713768Y-92539904D02*
X113713768Y-93225619D01*
X113751864Y-93301809D01*
X113828054Y-93339904D01*
X113904245Y-93339904D01*
X114094721Y-92806571D02*
X114285197Y-93339904D01*
X114475673Y-92806571D02*
X114285197Y-93339904D01*
X114209007Y-93530380D01*
X114170911Y-93568476D01*
X114094721Y-93606571D01*
X114780435Y-93339904D02*
X114780435Y-92539904D01*
X114970911Y-92539904D01*
X115085197Y-92578000D01*
X115161388Y-92654190D01*
X115199483Y-92730380D01*
X115237578Y-92882761D01*
X115237578Y-92997047D01*
X115199483Y-93149428D01*
X115161388Y-93225619D01*
X115085197Y-93301809D01*
X114970911Y-93339904D01*
X114780435Y-93339904D01*
X115923292Y-93339904D02*
X115923292Y-92920857D01*
X115885197Y-92844666D01*
X115809007Y-92806571D01*
X115656626Y-92806571D01*
X115580435Y-92844666D01*
X115923292Y-93301809D02*
X115847102Y-93339904D01*
X115656626Y-93339904D01*
X115580435Y-93301809D01*
X115542340Y-93225619D01*
X115542340Y-93149428D01*
X115580435Y-93073238D01*
X115656626Y-93035142D01*
X115847102Y-93035142D01*
X115923292Y-92997047D01*
X116570911Y-92920857D02*
X116685197Y-92958952D01*
X116723292Y-92997047D01*
X116761388Y-93073238D01*
X116761388Y-93187523D01*
X116723292Y-93263714D01*
X116685197Y-93301809D01*
X116609007Y-93339904D01*
X116304245Y-93339904D01*
X116304245Y-92539904D01*
X116570911Y-92539904D01*
X116647102Y-92578000D01*
X116685197Y-92616095D01*
X116723292Y-92692285D01*
X116723292Y-92768476D01*
X116685197Y-92844666D01*
X116647102Y-92882761D01*
X116570911Y-92920857D01*
X116304245Y-92920857D01*
X117104245Y-93339904D02*
X117104245Y-92806571D01*
X117104245Y-92539904D02*
X117066149Y-92578000D01*
X117104245Y-92616095D01*
X117142340Y-92578000D01*
X117104245Y-92539904D01*
X117104245Y-92616095D01*
X117485197Y-93339904D02*
X117485197Y-92806571D01*
X117485197Y-92958952D02*
X117523292Y-92882761D01*
X117561388Y-92844666D01*
X117637578Y-92806571D01*
X117713768Y-92806571D01*
X118323292Y-93339904D02*
X118323292Y-92539904D01*
X118323292Y-93301809D02*
X118247102Y-93339904D01*
X118094721Y-93339904D01*
X118018530Y-93301809D01*
X117980435Y-93263714D01*
X117942340Y-93187523D01*
X117942340Y-92958952D01*
X117980435Y-92882761D01*
X118018530Y-92844666D01*
X118094721Y-92806571D01*
X118247102Y-92806571D01*
X118323292Y-92844666D01*
X91134761Y-87521904D02*
X91134761Y-88093333D01*
X91096666Y-88207619D01*
X91020476Y-88283809D01*
X90906190Y-88321904D01*
X90830000Y-88321904D01*
X91896666Y-88321904D02*
X91515714Y-88321904D01*
X91515714Y-87521904D01*
X92620476Y-88245714D02*
X92582380Y-88283809D01*
X92468095Y-88321904D01*
X92391904Y-88321904D01*
X92277619Y-88283809D01*
X92201428Y-88207619D01*
X92163333Y-88131428D01*
X92125238Y-87979047D01*
X92125238Y-87864761D01*
X92163333Y-87712380D01*
X92201428Y-87636190D01*
X92277619Y-87560000D01*
X92391904Y-87521904D01*
X92468095Y-87521904D01*
X92582380Y-87560000D01*
X92620476Y-87598095D01*
X93191904Y-87521904D02*
X93191904Y-88093333D01*
X93153809Y-88207619D01*
X93077619Y-88283809D01*
X92963333Y-88321904D01*
X92887142Y-88321904D01*
X93953809Y-88321904D02*
X93572857Y-88321904D01*
X93572857Y-87521904D01*
X94677619Y-88245714D02*
X94639523Y-88283809D01*
X94525238Y-88321904D01*
X94449047Y-88321904D01*
X94334761Y-88283809D01*
X94258571Y-88207619D01*
X94220476Y-88131428D01*
X94182380Y-87979047D01*
X94182380Y-87864761D01*
X94220476Y-87712380D01*
X94258571Y-87636190D01*
X94334761Y-87560000D01*
X94449047Y-87521904D01*
X94525238Y-87521904D01*
X94639523Y-87560000D01*
X94677619Y-87598095D01*
X95249047Y-87521904D02*
X95249047Y-88093333D01*
X95210952Y-88207619D01*
X95134761Y-88283809D01*
X95020476Y-88321904D01*
X94944285Y-88321904D01*
X96010952Y-88321904D02*
X95630000Y-88321904D01*
X95630000Y-87521904D01*
X96734761Y-88245714D02*
X96696666Y-88283809D01*
X96582380Y-88321904D01*
X96506190Y-88321904D01*
X96391904Y-88283809D01*
X96315714Y-88207619D01*
X96277619Y-88131428D01*
X96239523Y-87979047D01*
X96239523Y-87864761D01*
X96277619Y-87712380D01*
X96315714Y-87636190D01*
X96391904Y-87560000D01*
X96506190Y-87521904D01*
X96582380Y-87521904D01*
X96696666Y-87560000D01*
X96734761Y-87598095D01*
X97306190Y-87521904D02*
X97306190Y-88093333D01*
X97268095Y-88207619D01*
X97191904Y-88283809D01*
X97077619Y-88321904D01*
X97001428Y-88321904D01*
X98068095Y-88321904D02*
X97687142Y-88321904D01*
X97687142Y-87521904D01*
X98791904Y-88245714D02*
X98753809Y-88283809D01*
X98639523Y-88321904D01*
X98563333Y-88321904D01*
X98449047Y-88283809D01*
X98372857Y-88207619D01*
X98334761Y-88131428D01*
X98296666Y-87979047D01*
X98296666Y-87864761D01*
X98334761Y-87712380D01*
X98372857Y-87636190D01*
X98449047Y-87560000D01*
X98563333Y-87521904D01*
X98639523Y-87521904D01*
X98753809Y-87560000D01*
X98791904Y-87598095D01*
X121299688Y-93977849D02*
X121299688Y-93177849D01*
X121642545Y-93977849D02*
X121642545Y-93558802D01*
X121604450Y-93482611D01*
X121528260Y-93444516D01*
X121413974Y-93444516D01*
X121337783Y-93482611D01*
X121299688Y-93520706D01*
X121909212Y-93444516D02*
X122213974Y-93444516D01*
X122023498Y-93177849D02*
X122023498Y-93863564D01*
X122061593Y-93939754D01*
X122137783Y-93977849D01*
X122213974Y-93977849D01*
X122366355Y-93444516D02*
X122671117Y-93444516D01*
X122480641Y-93177849D02*
X122480641Y-93863564D01*
X122518736Y-93939754D01*
X122594926Y-93977849D01*
X122671117Y-93977849D01*
X122937783Y-93444516D02*
X122937783Y-94244516D01*
X122937783Y-93482611D02*
X123013974Y-93444516D01*
X123166355Y-93444516D01*
X123242545Y-93482611D01*
X123280641Y-93520706D01*
X123318736Y-93596897D01*
X123318736Y-93825468D01*
X123280641Y-93901659D01*
X123242545Y-93939754D01*
X123166355Y-93977849D01*
X123013974Y-93977849D01*
X122937783Y-93939754D01*
X123623498Y-93939754D02*
X123699688Y-93977849D01*
X123852069Y-93977849D01*
X123928260Y-93939754D01*
X123966355Y-93863564D01*
X123966355Y-93825468D01*
X123928260Y-93749278D01*
X123852069Y-93711183D01*
X123737783Y-93711183D01*
X123661593Y-93673087D01*
X123623498Y-93596897D01*
X123623498Y-93558802D01*
X123661593Y-93482611D01*
X123737783Y-93444516D01*
X123852069Y-93444516D01*
X123928260Y-93482611D01*
X124309212Y-93901659D02*
X124347307Y-93939754D01*
X124309212Y-93977849D01*
X124271117Y-93939754D01*
X124309212Y-93901659D01*
X124309212Y-93977849D01*
X124309212Y-93482611D02*
X124347307Y-93520706D01*
X124309212Y-93558802D01*
X124271117Y-93520706D01*
X124309212Y-93482611D01*
X124309212Y-93558802D01*
X125261593Y-93139754D02*
X124575879Y-94168325D01*
X126099688Y-93139754D02*
X125413974Y-94168325D01*
X126709212Y-93939754D02*
X126633022Y-93977849D01*
X126480641Y-93977849D01*
X126404450Y-93939754D01*
X126366355Y-93901659D01*
X126328260Y-93825468D01*
X126328260Y-93596897D01*
X126366355Y-93520706D01*
X126404450Y-93482611D01*
X126480641Y-93444516D01*
X126633022Y-93444516D01*
X126709212Y-93482611D01*
X127052069Y-93977849D02*
X127052069Y-93444516D01*
X127052069Y-93596897D02*
X127090164Y-93520706D01*
X127128260Y-93482611D01*
X127204450Y-93444516D01*
X127280641Y-93444516D01*
X127852069Y-93939754D02*
X127775879Y-93977849D01*
X127623498Y-93977849D01*
X127547307Y-93939754D01*
X127509212Y-93863564D01*
X127509212Y-93558802D01*
X127547307Y-93482611D01*
X127623498Y-93444516D01*
X127775879Y-93444516D01*
X127852069Y-93482611D01*
X127890164Y-93558802D01*
X127890164Y-93634992D01*
X127509212Y-93711183D01*
X128575879Y-93977849D02*
X128575879Y-93558802D01*
X128537783Y-93482611D01*
X128461593Y-93444516D01*
X128309212Y-93444516D01*
X128233022Y-93482611D01*
X128575879Y-93939754D02*
X128499688Y-93977849D01*
X128309212Y-93977849D01*
X128233022Y-93939754D01*
X128194926Y-93863564D01*
X128194926Y-93787373D01*
X128233022Y-93711183D01*
X128309212Y-93673087D01*
X128499688Y-93673087D01*
X128575879Y-93634992D01*
X128842545Y-93444516D02*
X129147307Y-93444516D01*
X128956831Y-93177849D02*
X128956831Y-93863564D01*
X128994926Y-93939754D01*
X129071117Y-93977849D01*
X129147307Y-93977849D01*
X129413974Y-93977849D02*
X129413974Y-93444516D01*
X129413974Y-93177849D02*
X129375879Y-93215945D01*
X129413974Y-93254040D01*
X129452069Y-93215945D01*
X129413974Y-93177849D01*
X129413974Y-93254040D01*
X129718736Y-93444516D02*
X129909212Y-93977849D01*
X130099688Y-93444516D01*
X130709212Y-93939754D02*
X130633022Y-93977849D01*
X130480641Y-93977849D01*
X130404450Y-93939754D01*
X130366355Y-93863564D01*
X130366355Y-93558802D01*
X130404450Y-93482611D01*
X130480641Y-93444516D01*
X130633022Y-93444516D01*
X130709212Y-93482611D01*
X130747307Y-93558802D01*
X130747307Y-93634992D01*
X130366355Y-93711183D01*
X131433022Y-93939754D02*
X131356831Y-93977849D01*
X131204450Y-93977849D01*
X131128260Y-93939754D01*
X131090164Y-93901659D01*
X131052069Y-93825468D01*
X131052069Y-93596897D01*
X131090164Y-93520706D01*
X131128260Y-93482611D01*
X131204450Y-93444516D01*
X131356831Y-93444516D01*
X131433022Y-93482611D01*
X131890164Y-93977849D02*
X131813974Y-93939754D01*
X131775879Y-93901659D01*
X131737783Y-93825468D01*
X131737783Y-93596897D01*
X131775879Y-93520706D01*
X131813974Y-93482611D01*
X131890164Y-93444516D01*
X132004450Y-93444516D01*
X132080641Y-93482611D01*
X132118736Y-93520706D01*
X132156831Y-93596897D01*
X132156831Y-93825468D01*
X132118736Y-93901659D01*
X132080641Y-93939754D01*
X132004450Y-93977849D01*
X131890164Y-93977849D01*
X132499688Y-93977849D02*
X132499688Y-93444516D01*
X132499688Y-93520706D02*
X132537783Y-93482611D01*
X132613974Y-93444516D01*
X132728260Y-93444516D01*
X132804450Y-93482611D01*
X132842545Y-93558802D01*
X132842545Y-93977849D01*
X132842545Y-93558802D02*
X132880641Y-93482611D01*
X132956831Y-93444516D01*
X133071117Y-93444516D01*
X133147307Y-93482611D01*
X133185403Y-93558802D01*
X133185403Y-93977849D01*
X133566355Y-93977849D02*
X133566355Y-93444516D01*
X133566355Y-93520706D02*
X133604450Y-93482611D01*
X133680641Y-93444516D01*
X133794926Y-93444516D01*
X133871117Y-93482611D01*
X133909212Y-93558802D01*
X133909212Y-93977849D01*
X133909212Y-93558802D02*
X133947307Y-93482611D01*
X134023498Y-93444516D01*
X134137783Y-93444516D01*
X134213974Y-93482611D01*
X134252069Y-93558802D01*
X134252069Y-93977849D01*
X134747307Y-93977849D02*
X134671117Y-93939754D01*
X134633022Y-93901659D01*
X134594926Y-93825468D01*
X134594926Y-93596897D01*
X134633022Y-93520706D01*
X134671117Y-93482611D01*
X134747307Y-93444516D01*
X134861593Y-93444516D01*
X134937783Y-93482611D01*
X134975879Y-93520706D01*
X135013974Y-93596897D01*
X135013974Y-93825468D01*
X134975879Y-93901659D01*
X134937783Y-93939754D01*
X134861593Y-93977849D01*
X134747307Y-93977849D01*
X135356831Y-93444516D02*
X135356831Y-93977849D01*
X135356831Y-93520706D02*
X135394926Y-93482611D01*
X135471117Y-93444516D01*
X135585403Y-93444516D01*
X135661593Y-93482611D01*
X135699688Y-93558802D01*
X135699688Y-93977849D01*
X136042545Y-93939754D02*
X136118736Y-93977849D01*
X136271117Y-93977849D01*
X136347307Y-93939754D01*
X136385403Y-93863564D01*
X136385403Y-93825468D01*
X136347307Y-93749278D01*
X136271117Y-93711183D01*
X136156831Y-93711183D01*
X136080641Y-93673087D01*
X136042545Y-93596897D01*
X136042545Y-93558802D01*
X136080641Y-93482611D01*
X136156831Y-93444516D01*
X136271117Y-93444516D01*
X136347307Y-93482611D01*
X136728260Y-93901659D02*
X136766355Y-93939754D01*
X136728260Y-93977849D01*
X136690164Y-93939754D01*
X136728260Y-93901659D01*
X136728260Y-93977849D01*
X137223498Y-93977849D02*
X137147307Y-93939754D01*
X137109212Y-93901659D01*
X137071117Y-93825468D01*
X137071117Y-93596897D01*
X137109212Y-93520706D01*
X137147307Y-93482611D01*
X137223498Y-93444516D01*
X137337783Y-93444516D01*
X137413974Y-93482611D01*
X137452069Y-93520706D01*
X137490164Y-93596897D01*
X137490164Y-93825468D01*
X137452069Y-93901659D01*
X137413974Y-93939754D01*
X137337783Y-93977849D01*
X137223498Y-93977849D01*
X137833022Y-93977849D02*
X137833022Y-93444516D01*
X137833022Y-93596897D02*
X137871117Y-93520706D01*
X137909212Y-93482611D01*
X137985403Y-93444516D01*
X138061593Y-93444516D01*
X138671117Y-93444516D02*
X138671117Y-94092135D01*
X138633022Y-94168325D01*
X138594926Y-94206421D01*
X138518736Y-94244516D01*
X138404450Y-94244516D01*
X138328260Y-94206421D01*
X138671117Y-93939754D02*
X138594926Y-93977849D01*
X138442545Y-93977849D01*
X138366355Y-93939754D01*
X138328260Y-93901659D01*
X138290164Y-93825468D01*
X138290164Y-93596897D01*
X138328260Y-93520706D01*
X138366355Y-93482611D01*
X138442545Y-93444516D01*
X138594926Y-93444516D01*
X138671117Y-93482611D01*
G36*
X86791590Y-90950474D02*
G01*
X86797919Y-90920908D01*
X86808489Y-90893547D01*
X86812530Y-90885044D01*
X86851489Y-90826240D01*
X86902724Y-90784390D01*
X86966698Y-90759228D01*
X87043877Y-90750487D01*
X87047561Y-90750476D01*
X87125210Y-90758062D01*
X87188215Y-90780818D01*
X87236842Y-90819005D01*
X87271360Y-90872883D01*
X87292033Y-90942713D01*
X87298095Y-90995458D01*
X87296379Y-91086102D01*
X87279645Y-91162156D01*
X87248053Y-91223402D01*
X87201761Y-91269623D01*
X87140931Y-91300602D01*
X87065723Y-91316122D01*
X87061622Y-91316485D01*
X87007886Y-91316718D01*
X86957016Y-91309762D01*
X86947948Y-91307467D01*
X86888810Y-91280065D01*
X86839447Y-91234279D01*
X86810117Y-91189625D01*
X86799154Y-91165409D01*
X86792344Y-91138812D01*
X86788805Y-91104032D01*
X86787656Y-91055264D01*
X86787638Y-91041459D01*
X86787846Y-91028641D01*
X86895456Y-91028641D01*
X86901075Y-91101673D01*
X86918711Y-91157419D01*
X86948624Y-91196198D01*
X86991078Y-91218330D01*
X87046335Y-91224133D01*
X87056048Y-91223592D01*
X87093376Y-91218741D01*
X87118510Y-91208522D01*
X87140365Y-91189112D01*
X87142841Y-91186376D01*
X87174125Y-91135918D01*
X87190491Y-91072636D01*
X87191394Y-91001831D01*
X87178272Y-90938490D01*
X87152511Y-90889193D01*
X87115706Y-90855561D01*
X87069453Y-90839218D01*
X87031374Y-90839046D01*
X86977441Y-90854706D01*
X86936870Y-90886639D01*
X86909902Y-90934507D01*
X86896779Y-90997975D01*
X86895456Y-91028641D01*
X86787846Y-91028641D01*
X86788498Y-90988555D01*
X86791590Y-90950474D01*
G37*
D11*
X86791590Y-90950474D02*
X86797919Y-90920908D01*
X86808489Y-90893547D01*
X86812530Y-90885044D01*
X86851489Y-90826240D01*
X86902724Y-90784390D01*
X86966698Y-90759228D01*
X87043877Y-90750487D01*
X87047561Y-90750476D01*
X87125210Y-90758062D01*
X87188215Y-90780818D01*
X87236842Y-90819005D01*
X87271360Y-90872883D01*
X87292033Y-90942713D01*
X87298095Y-90995458D01*
X87296379Y-91086102D01*
X87279645Y-91162156D01*
X87248053Y-91223402D01*
X87201761Y-91269623D01*
X87140931Y-91300602D01*
X87065723Y-91316122D01*
X87061622Y-91316485D01*
X87007886Y-91316718D01*
X86957016Y-91309762D01*
X86947948Y-91307467D01*
X86888810Y-91280065D01*
X86839447Y-91234279D01*
X86810117Y-91189625D01*
X86799154Y-91165409D01*
X86792344Y-91138812D01*
X86788805Y-91104032D01*
X86787656Y-91055264D01*
X86787638Y-91041459D01*
X86787846Y-91028641D01*
X86895456Y-91028641D01*
X86901075Y-91101673D01*
X86918711Y-91157419D01*
X86948624Y-91196198D01*
X86991078Y-91218330D01*
X87046335Y-91224133D01*
X87056048Y-91223592D01*
X87093376Y-91218741D01*
X87118510Y-91208522D01*
X87140365Y-91189112D01*
X87142841Y-91186376D01*
X87174125Y-91135918D01*
X87190491Y-91072636D01*
X87191394Y-91001831D01*
X87178272Y-90938490D01*
X87152511Y-90889193D01*
X87115706Y-90855561D01*
X87069453Y-90839218D01*
X87031374Y-90839046D01*
X86977441Y-90854706D01*
X86936870Y-90886639D01*
X86909902Y-90934507D01*
X86896779Y-90997975D01*
X86895456Y-91028641D01*
X86787846Y-91028641D01*
X86788498Y-90988555D01*
X86791590Y-90950474D01*
G36*
X90039813Y-91682161D02*
G01*
X90104616Y-91683445D01*
X90151328Y-91685684D01*
X90181481Y-91688957D01*
X90196605Y-91693345D01*
X90198050Y-91694450D01*
X90207381Y-91715343D01*
X90210370Y-91746184D01*
X90207015Y-91776731D01*
X90198050Y-91796050D01*
X90184023Y-91801380D01*
X90153290Y-91805202D01*
X90104532Y-91807604D01*
X90036426Y-91808674D01*
X90007550Y-91808750D01*
X89829750Y-91808750D01*
X89829750Y-92115667D01*
X89997787Y-92115667D01*
X90066484Y-92115984D01*
X90116763Y-92117617D01*
X90151370Y-92121589D01*
X90173053Y-92128923D01*
X90184558Y-92140642D01*
X90188631Y-92157768D01*
X90188019Y-92181325D01*
X90187620Y-92186366D01*
X90184291Y-92226792D01*
X90007020Y-92229694D01*
X89829750Y-92232595D01*
X89829750Y-92652771D01*
X89796677Y-92659386D01*
X89764432Y-92664564D01*
X89741555Y-92663466D01*
X89717024Y-92655506D01*
X89715979Y-92655087D01*
X89692166Y-92645516D01*
X89692166Y-92180264D01*
X89692238Y-92067473D01*
X89692495Y-91973991D01*
X89693003Y-91897958D01*
X89693825Y-91837517D01*
X89695025Y-91790809D01*
X89696667Y-91755977D01*
X89698816Y-91731162D01*
X89701536Y-91714505D01*
X89704891Y-91704149D01*
X89708797Y-91698381D01*
X89717155Y-91692797D01*
X89731362Y-91688586D01*
X89754115Y-91685566D01*
X89788110Y-91683556D01*
X89836043Y-91682374D01*
X89900610Y-91681838D01*
X89955389Y-91681750D01*
X90039813Y-91682161D01*
G37*
X90039813Y-91682161D02*
X90104616Y-91683445D01*
X90151328Y-91685684D01*
X90181481Y-91688957D01*
X90196605Y-91693345D01*
X90198050Y-91694450D01*
X90207381Y-91715343D01*
X90210370Y-91746184D01*
X90207015Y-91776731D01*
X90198050Y-91796050D01*
X90184023Y-91801380D01*
X90153290Y-91805202D01*
X90104532Y-91807604D01*
X90036426Y-91808674D01*
X90007550Y-91808750D01*
X89829750Y-91808750D01*
X89829750Y-92115667D01*
X89997787Y-92115667D01*
X90066484Y-92115984D01*
X90116763Y-92117617D01*
X90151370Y-92121589D01*
X90173053Y-92128923D01*
X90184558Y-92140642D01*
X90188631Y-92157768D01*
X90188019Y-92181325D01*
X90187620Y-92186366D01*
X90184291Y-92226792D01*
X90007020Y-92229694D01*
X89829750Y-92232595D01*
X89829750Y-92652771D01*
X89796677Y-92659386D01*
X89764432Y-92664564D01*
X89741555Y-92663466D01*
X89717024Y-92655506D01*
X89715979Y-92655087D01*
X89692166Y-92645516D01*
X89692166Y-92180264D01*
X89692238Y-92067473D01*
X89692495Y-91973991D01*
X89693003Y-91897958D01*
X89693825Y-91837517D01*
X89695025Y-91790809D01*
X89696667Y-91755977D01*
X89698816Y-91731162D01*
X89701536Y-91714505D01*
X89704891Y-91704149D01*
X89708797Y-91698381D01*
X89717155Y-91692797D01*
X89731362Y-91688586D01*
X89754115Y-91685566D01*
X89788110Y-91683556D01*
X89836043Y-91682374D01*
X89900610Y-91681838D01*
X89955389Y-91681750D01*
X90039813Y-91682161D01*
G36*
X90766375Y-90512292D02*
G01*
X90769311Y-90663104D01*
X90770734Y-90716860D01*
X90772652Y-90762159D01*
X90774849Y-90795248D01*
X90777110Y-90812375D01*
X90777955Y-90813917D01*
X90789074Y-90808058D01*
X90810494Y-90793271D01*
X90821475Y-90785075D01*
X90848456Y-90767874D01*
X90877847Y-90758190D01*
X90918052Y-90753515D01*
X90929248Y-90752907D01*
X90991580Y-90755625D01*
X91040176Y-90772083D01*
X91079166Y-90804668D01*
X91112679Y-90855767D01*
X91115039Y-90860318D01*
X91130596Y-90893046D01*
X91140060Y-90921479D01*
X91144910Y-90953006D01*
X91146626Y-90995017D01*
X91146769Y-91018865D01*
X91142618Y-91100416D01*
X91129314Y-91165598D01*
X91105833Y-91217586D01*
X91071149Y-91259556D01*
X91068118Y-91262343D01*
X91012551Y-91300012D01*
X90952129Y-91318381D01*
X90889904Y-91316759D01*
X90861625Y-91309147D01*
X90831186Y-91294967D01*
X90799213Y-91275151D01*
X90796182Y-91272939D01*
X90762489Y-91247829D01*
X90759140Y-91276935D01*
X90754722Y-91295731D01*
X90742968Y-91304043D01*
X90717352Y-91306031D01*
X90713458Y-91306042D01*
X90671125Y-91306042D01*
X90671125Y-91026794D01*
X90771666Y-91026794D01*
X90772398Y-91070732D01*
X90774349Y-91107826D01*
X90777151Y-91132008D01*
X90778296Y-91136380D01*
X90790035Y-91152111D01*
X90813194Y-91174231D01*
X90832735Y-91190162D01*
X90879782Y-91218262D01*
X90922089Y-91226318D01*
X90961347Y-91214451D01*
X90980658Y-91200835D01*
X91009007Y-91166110D01*
X91027053Y-91117259D01*
X91035446Y-91052156D01*
X91036250Y-91018899D01*
X91030818Y-90953474D01*
X91013839Y-90904200D01*
X90984286Y-90868860D01*
X90959496Y-90853122D01*
X90933128Y-90841613D01*
X90912917Y-90840130D01*
X90887383Y-90848365D01*
X90880960Y-90851012D01*
X90846446Y-90869957D01*
X90812334Y-90895435D01*
X90806062Y-90901196D01*
X90789516Y-90918155D01*
X90779364Y-90933610D01*
X90774045Y-90953256D01*
X90771999Y-90982792D01*
X90771666Y-91026794D01*
X90671125Y-91026794D01*
X90671125Y-90512292D01*
X90766375Y-90512292D01*
G37*
X90766375Y-90512292D02*
X90769311Y-90663104D01*
X90770734Y-90716860D01*
X90772652Y-90762159D01*
X90774849Y-90795248D01*
X90777110Y-90812375D01*
X90777955Y-90813917D01*
X90789074Y-90808058D01*
X90810494Y-90793271D01*
X90821475Y-90785075D01*
X90848456Y-90767874D01*
X90877847Y-90758190D01*
X90918052Y-90753515D01*
X90929248Y-90752907D01*
X90991580Y-90755625D01*
X91040176Y-90772083D01*
X91079166Y-90804668D01*
X91112679Y-90855767D01*
X91115039Y-90860318D01*
X91130596Y-90893046D01*
X91140060Y-90921479D01*
X91144910Y-90953006D01*
X91146626Y-90995017D01*
X91146769Y-91018865D01*
X91142618Y-91100416D01*
X91129314Y-91165598D01*
X91105833Y-91217586D01*
X91071149Y-91259556D01*
X91068118Y-91262343D01*
X91012551Y-91300012D01*
X90952129Y-91318381D01*
X90889904Y-91316759D01*
X90861625Y-91309147D01*
X90831186Y-91294967D01*
X90799213Y-91275151D01*
X90796182Y-91272939D01*
X90762489Y-91247829D01*
X90759140Y-91276935D01*
X90754722Y-91295731D01*
X90742968Y-91304043D01*
X90717352Y-91306031D01*
X90713458Y-91306042D01*
X90671125Y-91306042D01*
X90671125Y-91026794D01*
X90771666Y-91026794D01*
X90772398Y-91070732D01*
X90774349Y-91107826D01*
X90777151Y-91132008D01*
X90778296Y-91136380D01*
X90790035Y-91152111D01*
X90813194Y-91174231D01*
X90832735Y-91190162D01*
X90879782Y-91218262D01*
X90922089Y-91226318D01*
X90961347Y-91214451D01*
X90980658Y-91200835D01*
X91009007Y-91166110D01*
X91027053Y-91117259D01*
X91035446Y-91052156D01*
X91036250Y-91018899D01*
X91030818Y-90953474D01*
X91013839Y-90904200D01*
X90984286Y-90868860D01*
X90959496Y-90853122D01*
X90933128Y-90841613D01*
X90912917Y-90840130D01*
X90887383Y-90848365D01*
X90880960Y-90851012D01*
X90846446Y-90869957D01*
X90812334Y-90895435D01*
X90806062Y-90901196D01*
X90789516Y-90918155D01*
X90779364Y-90933610D01*
X90774045Y-90953256D01*
X90771999Y-90982792D01*
X90771666Y-91026794D01*
X90671125Y-91026794D01*
X90671125Y-90512292D01*
X90766375Y-90512292D01*
G36*
X91678096Y-90759359D02*
G01*
X91697826Y-90768864D01*
X91703000Y-90778999D01*
X91699528Y-90792049D01*
X91689782Y-90822168D01*
X91674764Y-90866546D01*
X91655476Y-90922375D01*
X91632921Y-90986846D01*
X91608100Y-91057152D01*
X91582017Y-91130483D01*
X91555673Y-91204030D01*
X91530072Y-91274987D01*
X91506215Y-91340543D01*
X91485104Y-91397891D01*
X91467743Y-91444221D01*
X91455133Y-91476726D01*
X91448383Y-91492402D01*
X91434371Y-91506127D01*
X91408155Y-91511887D01*
X91391043Y-91512417D01*
X91361343Y-91510326D01*
X91341572Y-91505065D01*
X91338215Y-91502385D01*
X91339237Y-91488775D01*
X91347121Y-91460591D01*
X91360392Y-91422711D01*
X91369028Y-91400562D01*
X91387610Y-91351384D01*
X91397078Y-91317791D01*
X91398197Y-91296647D01*
X91395998Y-91290008D01*
X91388723Y-91273444D01*
X91375824Y-91241107D01*
X91358519Y-91196291D01*
X91338028Y-91142292D01*
X91315571Y-91082405D01*
X91292367Y-91019928D01*
X91269636Y-90958154D01*
X91248597Y-90900380D01*
X91230470Y-90849902D01*
X91216475Y-90810014D01*
X91207831Y-90784013D01*
X91205588Y-90775463D01*
X91214859Y-90764459D01*
X91237901Y-90757815D01*
X91267538Y-90756841D01*
X91288619Y-90760303D01*
X91299079Y-90764659D01*
X91308754Y-90773530D01*
X91318988Y-90789685D01*
X91331123Y-90815895D01*
X91346503Y-90854929D01*
X91366472Y-90909557D01*
X91381541Y-90951893D01*
X91402781Y-91011272D01*
X91422132Y-91064234D01*
X91438306Y-91107342D01*
X91450014Y-91137157D01*
X91455814Y-91150019D01*
X91462587Y-91145904D01*
X91475000Y-91121584D01*
X91492979Y-91077234D01*
X91516452Y-91013031D01*
X91532489Y-90966954D01*
X91557147Y-90896229D01*
X91576623Y-90843296D01*
X91591988Y-90805723D01*
X91604311Y-90781080D01*
X91614662Y-90766935D01*
X91622983Y-90761244D01*
X91650627Y-90756260D01*
X91678096Y-90759359D01*
G37*
X91678096Y-90759359D02*
X91697826Y-90768864D01*
X91703000Y-90778999D01*
X91699528Y-90792049D01*
X91689782Y-90822168D01*
X91674764Y-90866546D01*
X91655476Y-90922375D01*
X91632921Y-90986846D01*
X91608100Y-91057152D01*
X91582017Y-91130483D01*
X91555673Y-91204030D01*
X91530072Y-91274987D01*
X91506215Y-91340543D01*
X91485104Y-91397891D01*
X91467743Y-91444221D01*
X91455133Y-91476726D01*
X91448383Y-91492402D01*
X91434371Y-91506127D01*
X91408155Y-91511887D01*
X91391043Y-91512417D01*
X91361343Y-91510326D01*
X91341572Y-91505065D01*
X91338215Y-91502385D01*
X91339237Y-91488775D01*
X91347121Y-91460591D01*
X91360392Y-91422711D01*
X91369028Y-91400562D01*
X91387610Y-91351384D01*
X91397078Y-91317791D01*
X91398197Y-91296647D01*
X91395998Y-91290008D01*
X91388723Y-91273444D01*
X91375824Y-91241107D01*
X91358519Y-91196291D01*
X91338028Y-91142292D01*
X91315571Y-91082405D01*
X91292367Y-91019928D01*
X91269636Y-90958154D01*
X91248597Y-90900380D01*
X91230470Y-90849902D01*
X91216475Y-90810014D01*
X91207831Y-90784013D01*
X91205588Y-90775463D01*
X91214859Y-90764459D01*
X91237901Y-90757815D01*
X91267538Y-90756841D01*
X91288619Y-90760303D01*
X91299079Y-90764659D01*
X91308754Y-90773530D01*
X91318988Y-90789685D01*
X91331123Y-90815895D01*
X91346503Y-90854929D01*
X91366472Y-90909557D01*
X91381541Y-90951893D01*
X91402781Y-91011272D01*
X91422132Y-91064234D01*
X91438306Y-91107342D01*
X91450014Y-91137157D01*
X91455814Y-91150019D01*
X91462587Y-91145904D01*
X91475000Y-91121584D01*
X91492979Y-91077234D01*
X91516452Y-91013031D01*
X91532489Y-90966954D01*
X91557147Y-90896229D01*
X91576623Y-90843296D01*
X91591988Y-90805723D01*
X91604311Y-90781080D01*
X91614662Y-90766935D01*
X91622983Y-90761244D01*
X91650627Y-90756260D01*
X91678096Y-90759359D01*
G36*
X89785021Y-90896793D02*
G01*
X89813690Y-90836315D01*
X89856094Y-90791257D01*
X89889697Y-90770741D01*
X89940115Y-90754989D01*
X89995738Y-90751328D01*
X90048939Y-90759406D01*
X90092092Y-90778870D01*
X90093934Y-90780198D01*
X90115853Y-90795362D01*
X90129771Y-90803084D01*
X90130946Y-90803334D01*
X90133038Y-90793394D01*
X90134787Y-90766147D01*
X90136038Y-90725452D01*
X90136637Y-90675168D01*
X90136666Y-90660660D01*
X90136666Y-90517987D01*
X90163125Y-90511346D01*
X90195002Y-90508716D01*
X90216170Y-90511378D01*
X90242757Y-90518051D01*
X90239982Y-90912047D01*
X90237208Y-91306042D01*
X90194875Y-91306042D01*
X90167320Y-91304458D01*
X90154362Y-91297023D01*
X90149507Y-91279711D01*
X90149272Y-91277762D01*
X90146003Y-91249483D01*
X90096355Y-91280289D01*
X90037880Y-91306584D01*
X89975452Y-91317603D01*
X89918276Y-91312369D01*
X89863944Y-91289614D01*
X89822211Y-91251748D01*
X89792559Y-91197918D01*
X89774475Y-91127276D01*
X89768319Y-91065398D01*
X89769156Y-91017808D01*
X89872699Y-91017808D01*
X89874992Y-91079447D01*
X89888787Y-91136784D01*
X89914222Y-91184216D01*
X89925183Y-91196729D01*
X89963056Y-91221035D01*
X90005782Y-91226254D01*
X90048053Y-91211866D01*
X90052290Y-91209169D01*
X90089547Y-91182967D01*
X90113854Y-91160307D01*
X90127961Y-91135534D01*
X90134620Y-91102994D01*
X90136581Y-91057032D01*
X90136666Y-91035732D01*
X90136189Y-90987237D01*
X90134110Y-90954816D01*
X90129460Y-90933386D01*
X90121268Y-90917864D01*
X90112070Y-90906885D01*
X90068565Y-90869597D01*
X90023576Y-90848068D01*
X89980613Y-90843157D01*
X89943182Y-90855724D01*
X89933445Y-90863129D01*
X89902065Y-90904045D01*
X89881770Y-90957473D01*
X89872699Y-91017808D01*
X89769156Y-91017808D01*
X89769945Y-90973039D01*
X89785021Y-90896793D01*
G37*
X89785021Y-90896793D02*
X89813690Y-90836315D01*
X89856094Y-90791257D01*
X89889697Y-90770741D01*
X89940115Y-90754989D01*
X89995738Y-90751328D01*
X90048939Y-90759406D01*
X90092092Y-90778870D01*
X90093934Y-90780198D01*
X90115853Y-90795362D01*
X90129771Y-90803084D01*
X90130946Y-90803334D01*
X90133038Y-90793394D01*
X90134787Y-90766147D01*
X90136038Y-90725452D01*
X90136637Y-90675168D01*
X90136666Y-90660660D01*
X90136666Y-90517987D01*
X90163125Y-90511346D01*
X90195002Y-90508716D01*
X90216170Y-90511378D01*
X90242757Y-90518051D01*
X90239982Y-90912047D01*
X90237208Y-91306042D01*
X90194875Y-91306042D01*
X90167320Y-91304458D01*
X90154362Y-91297023D01*
X90149507Y-91279711D01*
X90149272Y-91277762D01*
X90146003Y-91249483D01*
X90096355Y-91280289D01*
X90037880Y-91306584D01*
X89975452Y-91317603D01*
X89918276Y-91312369D01*
X89863944Y-91289614D01*
X89822211Y-91251748D01*
X89792559Y-91197918D01*
X89774475Y-91127276D01*
X89768319Y-91065398D01*
X89769156Y-91017808D01*
X89872699Y-91017808D01*
X89874992Y-91079447D01*
X89888787Y-91136784D01*
X89914222Y-91184216D01*
X89925183Y-91196729D01*
X89963056Y-91221035D01*
X90005782Y-91226254D01*
X90048053Y-91211866D01*
X90052290Y-91209169D01*
X90089547Y-91182967D01*
X90113854Y-91160307D01*
X90127961Y-91135534D01*
X90134620Y-91102994D01*
X90136581Y-91057032D01*
X90136666Y-91035732D01*
X90136189Y-90987237D01*
X90134110Y-90954816D01*
X90129460Y-90933386D01*
X90121268Y-90917864D01*
X90112070Y-90906885D01*
X90068565Y-90869597D01*
X90023576Y-90848068D01*
X89980613Y-90843157D01*
X89943182Y-90855724D01*
X89933445Y-90863129D01*
X89902065Y-90904045D01*
X89881770Y-90957473D01*
X89872699Y-91017808D01*
X89769156Y-91017808D01*
X89769945Y-90973039D01*
X89785021Y-90896793D01*
G36*
X89103326Y-90754397D02*
G01*
X89104152Y-90754602D01*
X89120907Y-90761236D01*
X89128865Y-90774307D01*
X89131182Y-90800289D01*
X89131250Y-90810179D01*
X89131250Y-90858955D01*
X89089488Y-90852278D01*
X89045991Y-90851340D01*
X89009736Y-90865655D01*
X88975984Y-90897553D01*
X88963038Y-90914479D01*
X88930703Y-90959505D01*
X88927789Y-91132773D01*
X88924875Y-91306042D01*
X88882157Y-91309186D01*
X88853407Y-91309459D01*
X88834375Y-91306271D01*
X88831886Y-91304776D01*
X88829824Y-91292538D01*
X88827976Y-91262063D01*
X88826424Y-91216280D01*
X88825247Y-91158117D01*
X88824526Y-91090504D01*
X88824333Y-91030345D01*
X88824333Y-90763468D01*
X88851844Y-90758209D01*
X88889020Y-90755581D01*
X88910768Y-90766015D01*
X88919271Y-90790831D01*
X88919583Y-90799121D01*
X88919583Y-90834773D01*
X88953985Y-90797233D01*
X88996651Y-90765548D01*
X89048319Y-90750733D01*
X89103326Y-90754397D01*
G37*
X89103326Y-90754397D02*
X89104152Y-90754602D01*
X89120907Y-90761236D01*
X89128865Y-90774307D01*
X89131182Y-90800289D01*
X89131250Y-90810179D01*
X89131250Y-90858955D01*
X89089488Y-90852278D01*
X89045991Y-90851340D01*
X89009736Y-90865655D01*
X88975984Y-90897553D01*
X88963038Y-90914479D01*
X88930703Y-90959505D01*
X88927789Y-91132773D01*
X88924875Y-91306042D01*
X88882157Y-91309186D01*
X88853407Y-91309459D01*
X88834375Y-91306271D01*
X88831886Y-91304776D01*
X88829824Y-91292538D01*
X88827976Y-91262063D01*
X88826424Y-91216280D01*
X88825247Y-91158117D01*
X88824526Y-91090504D01*
X88824333Y-91030345D01*
X88824333Y-90763468D01*
X88851844Y-90758209D01*
X88889020Y-90755581D01*
X88910768Y-90766015D01*
X88919271Y-90790831D01*
X88919583Y-90799121D01*
X88919583Y-90834773D01*
X88953985Y-90797233D01*
X88996651Y-90765548D01*
X89048319Y-90750733D01*
X89103326Y-90754397D01*
G36*
X91048348Y-91927704D02*
G01*
X91081990Y-91933328D01*
X91108325Y-91941901D01*
X91115273Y-91946042D01*
X91124556Y-91963531D01*
X91130174Y-91992439D01*
X91131740Y-92024787D01*
X91128870Y-92052595D01*
X91121178Y-92067880D01*
X91121160Y-92067891D01*
X91105297Y-92069290D01*
X91077915Y-92065140D01*
X91066822Y-92062433D01*
X91033527Y-92056253D01*
X91005046Y-92055516D01*
X90999444Y-92056453D01*
X90970254Y-92071898D01*
X90934773Y-92103899D01*
X90895754Y-92149876D01*
X90886513Y-92162234D01*
X90856333Y-92203509D01*
X90856333Y-92428229D01*
X90856283Y-92502572D01*
X90855946Y-92558476D01*
X90855040Y-92598668D01*
X90853285Y-92625877D01*
X90850399Y-92642830D01*
X90846102Y-92652255D01*
X90840112Y-92656878D01*
X90832520Y-92659330D01*
X90777378Y-92663795D01*
X90747714Y-92658678D01*
X90742673Y-92656207D01*
X90738661Y-92650296D01*
X90735584Y-92638824D01*
X90733350Y-92619671D01*
X90731865Y-92590718D01*
X90731037Y-92549843D01*
X90730771Y-92494926D01*
X90730975Y-92423849D01*
X90731555Y-92334489D01*
X90731839Y-92297426D01*
X90734625Y-91941042D01*
X90840458Y-91941042D01*
X90845750Y-91991477D01*
X90851041Y-92041911D01*
X90880617Y-92004680D01*
X90927334Y-91960626D01*
X90981942Y-91934233D01*
X91040849Y-91927149D01*
X91048348Y-91927704D01*
G37*
X91048348Y-91927704D02*
X91081990Y-91933328D01*
X91108325Y-91941901D01*
X91115273Y-91946042D01*
X91124556Y-91963531D01*
X91130174Y-91992439D01*
X91131740Y-92024787D01*
X91128870Y-92052595D01*
X91121178Y-92067880D01*
X91121160Y-92067891D01*
X91105297Y-92069290D01*
X91077915Y-92065140D01*
X91066822Y-92062433D01*
X91033527Y-92056253D01*
X91005046Y-92055516D01*
X90999444Y-92056453D01*
X90970254Y-92071898D01*
X90934773Y-92103899D01*
X90895754Y-92149876D01*
X90886513Y-92162234D01*
X90856333Y-92203509D01*
X90856333Y-92428229D01*
X90856283Y-92502572D01*
X90855946Y-92558476D01*
X90855040Y-92598668D01*
X90853285Y-92625877D01*
X90850399Y-92642830D01*
X90846102Y-92652255D01*
X90840112Y-92656878D01*
X90832520Y-92659330D01*
X90777378Y-92663795D01*
X90747714Y-92658678D01*
X90742673Y-92656207D01*
X90738661Y-92650296D01*
X90735584Y-92638824D01*
X90733350Y-92619671D01*
X90731865Y-92590718D01*
X90731037Y-92549843D01*
X90730771Y-92494926D01*
X90730975Y-92423849D01*
X90731555Y-92334489D01*
X90731839Y-92297426D01*
X90734625Y-91941042D01*
X90840458Y-91941042D01*
X90845750Y-91991477D01*
X90851041Y-92041911D01*
X90880617Y-92004680D01*
X90927334Y-91960626D01*
X90981942Y-91934233D01*
X91040849Y-91927149D01*
X91048348Y-91927704D01*
G36*
X86252326Y-90838739D02*
G01*
X86252140Y-90757138D01*
X86252907Y-90692753D01*
X86255505Y-90643619D01*
X86260814Y-90607767D01*
X86269714Y-90583231D01*
X86283085Y-90568044D01*
X86301806Y-90560239D01*
X86326757Y-90557848D01*
X86358817Y-90558905D01*
X86398867Y-90561442D01*
X86421145Y-90562606D01*
X86500156Y-90568679D01*
X86561679Y-90579756D01*
X86609038Y-90596973D01*
X86645552Y-90621463D01*
X86669414Y-90647347D01*
X86695810Y-90697869D01*
X86708777Y-90758369D01*
X86708281Y-90822436D01*
X86694290Y-90883662D01*
X86670880Y-90929965D01*
X86635991Y-90969787D01*
X86593144Y-90997475D01*
X86538500Y-91014710D01*
X86468219Y-91023173D01*
X86456610Y-91023767D01*
X86359013Y-91028082D01*
X86353125Y-91306042D01*
X86310407Y-91309186D01*
X86281657Y-91309459D01*
X86262625Y-91306271D01*
X86260136Y-91304776D01*
X86258345Y-91292761D01*
X86256706Y-91262086D01*
X86255270Y-91215257D01*
X86254090Y-91154780D01*
X86253216Y-91083162D01*
X86252702Y-91002909D01*
X86252591Y-90943761D01*
X86358416Y-90943761D01*
X86432164Y-90938484D01*
X86476790Y-90932925D01*
X86513849Y-90923966D01*
X86532558Y-90915748D01*
X86569752Y-90880646D01*
X86591668Y-90837243D01*
X86598400Y-90790210D01*
X86590040Y-90744218D01*
X86566681Y-90703938D01*
X86528416Y-90674039D01*
X86527750Y-90673704D01*
X86485348Y-90660490D01*
X86430014Y-90655224D01*
X86424562Y-90655183D01*
X86358416Y-90655167D01*
X86358416Y-90943761D01*
X86252591Y-90943761D01*
X86252583Y-90939525D01*
X86252326Y-90838739D01*
G37*
X86252326Y-90838739D02*
X86252140Y-90757138D01*
X86252907Y-90692753D01*
X86255505Y-90643619D01*
X86260814Y-90607767D01*
X86269714Y-90583231D01*
X86283085Y-90568044D01*
X86301806Y-90560239D01*
X86326757Y-90557848D01*
X86358817Y-90558905D01*
X86398867Y-90561442D01*
X86421145Y-90562606D01*
X86500156Y-90568679D01*
X86561679Y-90579756D01*
X86609038Y-90596973D01*
X86645552Y-90621463D01*
X86669414Y-90647347D01*
X86695810Y-90697869D01*
X86708777Y-90758369D01*
X86708281Y-90822436D01*
X86694290Y-90883662D01*
X86670880Y-90929965D01*
X86635991Y-90969787D01*
X86593144Y-90997475D01*
X86538500Y-91014710D01*
X86468219Y-91023173D01*
X86456610Y-91023767D01*
X86359013Y-91028082D01*
X86353125Y-91306042D01*
X86310407Y-91309186D01*
X86281657Y-91309459D01*
X86262625Y-91306271D01*
X86260136Y-91304776D01*
X86258345Y-91292761D01*
X86256706Y-91262086D01*
X86255270Y-91215257D01*
X86254090Y-91154780D01*
X86253216Y-91083162D01*
X86252702Y-91002909D01*
X86252591Y-90943761D01*
X86358416Y-90943761D01*
X86432164Y-90938484D01*
X86476790Y-90932925D01*
X86513849Y-90923966D01*
X86532558Y-90915748D01*
X86569752Y-90880646D01*
X86591668Y-90837243D01*
X86598400Y-90790210D01*
X86590040Y-90744218D01*
X86566681Y-90703938D01*
X86528416Y-90674039D01*
X86527750Y-90673704D01*
X86485348Y-90660490D01*
X86430014Y-90655224D01*
X86424562Y-90655183D01*
X86358416Y-90655167D01*
X86358416Y-90943761D01*
X86252591Y-90943761D01*
X86252583Y-90939525D01*
X86252326Y-90838739D01*
G36*
X88248095Y-90877510D02*
G01*
X88284252Y-90820983D01*
X88333239Y-90779829D01*
X88374600Y-90760981D01*
X88406211Y-90754778D01*
X88448773Y-90751736D01*
X88485156Y-90752186D01*
X88554221Y-90764093D01*
X88609213Y-90791475D01*
X88650534Y-90834740D01*
X88678586Y-90894300D01*
X88693105Y-90964559D01*
X88696410Y-90996578D01*
X88695993Y-91020225D01*
X88689217Y-91036769D01*
X88673444Y-91047479D01*
X88646037Y-91053623D01*
X88604359Y-91056470D01*
X88545772Y-91057288D01*
X88500245Y-91057334D01*
X88326916Y-91057334D01*
X88326956Y-91091729D01*
X88335845Y-91134173D01*
X88359048Y-91176213D01*
X88391501Y-91208925D01*
X88394655Y-91211075D01*
X88426779Y-91222841D01*
X88472124Y-91227672D01*
X88523915Y-91225584D01*
X88575382Y-91216593D01*
X88595752Y-91210599D01*
X88627940Y-91201686D01*
X88653302Y-91198207D01*
X88661276Y-91199122D01*
X88672123Y-91213021D01*
X88675792Y-91237260D01*
X88672075Y-91262197D01*
X88662937Y-91276752D01*
X88632974Y-91291736D01*
X88588294Y-91304081D01*
X88535274Y-91312917D01*
X88480290Y-91317371D01*
X88429718Y-91316572D01*
X88401000Y-91312560D01*
X88335897Y-91289788D01*
X88285350Y-91252553D01*
X88249037Y-91200359D01*
X88226633Y-91132709D01*
X88217816Y-91049106D01*
X88217652Y-91030875D01*
X88224307Y-90961558D01*
X88326916Y-90961558D01*
X88328008Y-90970523D01*
X88333572Y-90976605D01*
X88347035Y-90980361D01*
X88371828Y-90982349D01*
X88411380Y-90983126D01*
X88460355Y-90983250D01*
X88593794Y-90983250D01*
X88586991Y-90954146D01*
X88568980Y-90899268D01*
X88543543Y-90862677D01*
X88508136Y-90842063D01*
X88460218Y-90835118D01*
X88455869Y-90835084D01*
X88412121Y-90844634D01*
X88372841Y-90869985D01*
X88343078Y-90906183D01*
X88327880Y-90948276D01*
X88326916Y-90961558D01*
X88224307Y-90961558D01*
X88225614Y-90947957D01*
X88248095Y-90877510D01*
G37*
X88248095Y-90877510D02*
X88284252Y-90820983D01*
X88333239Y-90779829D01*
X88374600Y-90760981D01*
X88406211Y-90754778D01*
X88448773Y-90751736D01*
X88485156Y-90752186D01*
X88554221Y-90764093D01*
X88609213Y-90791475D01*
X88650534Y-90834740D01*
X88678586Y-90894300D01*
X88693105Y-90964559D01*
X88696410Y-90996578D01*
X88695993Y-91020225D01*
X88689217Y-91036769D01*
X88673444Y-91047479D01*
X88646037Y-91053623D01*
X88604359Y-91056470D01*
X88545772Y-91057288D01*
X88500245Y-91057334D01*
X88326916Y-91057334D01*
X88326956Y-91091729D01*
X88335845Y-91134173D01*
X88359048Y-91176213D01*
X88391501Y-91208925D01*
X88394655Y-91211075D01*
X88426779Y-91222841D01*
X88472124Y-91227672D01*
X88523915Y-91225584D01*
X88575382Y-91216593D01*
X88595752Y-91210599D01*
X88627940Y-91201686D01*
X88653302Y-91198207D01*
X88661276Y-91199122D01*
X88672123Y-91213021D01*
X88675792Y-91237260D01*
X88672075Y-91262197D01*
X88662937Y-91276752D01*
X88632974Y-91291736D01*
X88588294Y-91304081D01*
X88535274Y-91312917D01*
X88480290Y-91317371D01*
X88429718Y-91316572D01*
X88401000Y-91312560D01*
X88335897Y-91289788D01*
X88285350Y-91252553D01*
X88249037Y-91200359D01*
X88226633Y-91132709D01*
X88217816Y-91049106D01*
X88217652Y-91030875D01*
X88224307Y-90961558D01*
X88326916Y-90961558D01*
X88328008Y-90970523D01*
X88333572Y-90976605D01*
X88347035Y-90980361D01*
X88371828Y-90982349D01*
X88411380Y-90983126D01*
X88460355Y-90983250D01*
X88593794Y-90983250D01*
X88586991Y-90954146D01*
X88568980Y-90899268D01*
X88543543Y-90862677D01*
X88508136Y-90842063D01*
X88460218Y-90835118D01*
X88455869Y-90835084D01*
X88412121Y-90844634D01*
X88372841Y-90869985D01*
X88343078Y-90906183D01*
X88327880Y-90948276D01*
X88326916Y-90961558D01*
X88224307Y-90961558D01*
X88225614Y-90947957D01*
X88248095Y-90877510D01*
G36*
X89159462Y-91686992D02*
G01*
X89169071Y-91696042D01*
X89169810Y-91697768D01*
X89172237Y-91708555D01*
X89170512Y-91721249D01*
X89163236Y-91737891D01*
X89149006Y-91760524D01*
X89126424Y-91791189D01*
X89094087Y-91831930D01*
X89050595Y-91884789D01*
X89000042Y-91945262D01*
X88955685Y-91998507D01*
X88916302Y-92046537D01*
X88883823Y-92086933D01*
X88860180Y-92117281D01*
X88847301Y-92135163D01*
X88845500Y-92138731D01*
X88851652Y-92149376D01*
X88868965Y-92174460D01*
X88895723Y-92211626D01*
X88930209Y-92258512D01*
X88970707Y-92312761D01*
X89007935Y-92362052D01*
X89062322Y-92433874D01*
X89105133Y-92490933D01*
X89137720Y-92535226D01*
X89161439Y-92568747D01*
X89177641Y-92593494D01*
X89187681Y-92611461D01*
X89192911Y-92624645D01*
X89194687Y-92635041D01*
X89194750Y-92637523D01*
X89185201Y-92650501D01*
X89160230Y-92659179D01*
X89125344Y-92662395D01*
X89089929Y-92659643D01*
X89077698Y-92656894D01*
X89065757Y-92651503D01*
X89052418Y-92641546D01*
X89035993Y-92625099D01*
X89014796Y-92600238D01*
X88987138Y-92565039D01*
X88951332Y-92517578D01*
X88905691Y-92455932D01*
X88876699Y-92416526D01*
X88702625Y-92179670D01*
X88699775Y-92412591D01*
X88696926Y-92645512D01*
X88669982Y-92655756D01*
X88643026Y-92663203D01*
X88614278Y-92663361D01*
X88583456Y-92658517D01*
X88559537Y-92653917D01*
X88562289Y-92170479D01*
X88565041Y-91687042D01*
X88692041Y-91687042D01*
X88694906Y-91901202D01*
X88697770Y-92115362D01*
X88869531Y-91901202D01*
X89041291Y-91687042D01*
X89102273Y-91683864D01*
X89138847Y-91683272D01*
X89159462Y-91686992D01*
G37*
X89159462Y-91686992D02*
X89169071Y-91696042D01*
X89169810Y-91697768D01*
X89172237Y-91708555D01*
X89170512Y-91721249D01*
X89163236Y-91737891D01*
X89149006Y-91760524D01*
X89126424Y-91791189D01*
X89094087Y-91831930D01*
X89050595Y-91884789D01*
X89000042Y-91945262D01*
X88955685Y-91998507D01*
X88916302Y-92046537D01*
X88883823Y-92086933D01*
X88860180Y-92117281D01*
X88847301Y-92135163D01*
X88845500Y-92138731D01*
X88851652Y-92149376D01*
X88868965Y-92174460D01*
X88895723Y-92211626D01*
X88930209Y-92258512D01*
X88970707Y-92312761D01*
X89007935Y-92362052D01*
X89062322Y-92433874D01*
X89105133Y-92490933D01*
X89137720Y-92535226D01*
X89161439Y-92568747D01*
X89177641Y-92593494D01*
X89187681Y-92611461D01*
X89192911Y-92624645D01*
X89194687Y-92635041D01*
X89194750Y-92637523D01*
X89185201Y-92650501D01*
X89160230Y-92659179D01*
X89125344Y-92662395D01*
X89089929Y-92659643D01*
X89077698Y-92656894D01*
X89065757Y-92651503D01*
X89052418Y-92641546D01*
X89035993Y-92625099D01*
X89014796Y-92600238D01*
X88987138Y-92565039D01*
X88951332Y-92517578D01*
X88905691Y-92455932D01*
X88876699Y-92416526D01*
X88702625Y-92179670D01*
X88699775Y-92412591D01*
X88696926Y-92645512D01*
X88669982Y-92655756D01*
X88643026Y-92663203D01*
X88614278Y-92663361D01*
X88583456Y-92658517D01*
X88559537Y-92653917D01*
X88562289Y-92170479D01*
X88565041Y-91687042D01*
X88692041Y-91687042D01*
X88694906Y-91901202D01*
X88697770Y-92115362D01*
X88869531Y-91901202D01*
X89041291Y-91687042D01*
X89102273Y-91683864D01*
X89138847Y-91683272D01*
X89159462Y-91686992D01*
G36*
X92502825Y-91936964D02*
G01*
X92513158Y-91943328D01*
X92522849Y-91956523D01*
X92532986Y-91978649D01*
X92544655Y-92011807D01*
X92558942Y-92058095D01*
X92576933Y-92119614D01*
X92599714Y-92198463D01*
X92609656Y-92232729D01*
X92629667Y-92300597D01*
X92648042Y-92361149D01*
X92663893Y-92411597D01*
X92676330Y-92449149D01*
X92684462Y-92471015D01*
X92687068Y-92475500D01*
X92691546Y-92465718D01*
X92700534Y-92438218D01*
X92713222Y-92395768D01*
X92728800Y-92341137D01*
X92746457Y-92277093D01*
X92760683Y-92224146D01*
X92779631Y-92153560D01*
X92797283Y-92089112D01*
X92812778Y-92033846D01*
X92825254Y-91990808D01*
X92833847Y-91963042D01*
X92837118Y-91954271D01*
X92853188Y-91942942D01*
X92881724Y-91936517D01*
X92914521Y-91935353D01*
X92943373Y-91939804D01*
X92959240Y-91948979D01*
X92964802Y-91962469D01*
X92975163Y-91993416D01*
X92989422Y-92038894D01*
X93006674Y-92095978D01*
X93026017Y-92161740D01*
X93041699Y-92216209D01*
X93061808Y-92286370D01*
X93080191Y-92349879D01*
X93096002Y-92403866D01*
X93108396Y-92445460D01*
X93116526Y-92471793D01*
X93119363Y-92479886D01*
X93123543Y-92472790D01*
X93132677Y-92447856D01*
X93145954Y-92407613D01*
X93162563Y-92354589D01*
X93181695Y-92291315D01*
X93202330Y-92221034D01*
X93223453Y-92148904D01*
X93243077Y-92083418D01*
X93260335Y-92027348D01*
X93274359Y-91983470D01*
X93284284Y-91954556D01*
X93289112Y-91943487D01*
X93304207Y-91938841D01*
X93332433Y-91937179D01*
X93349877Y-91937756D01*
X93381203Y-91940915D01*
X93397105Y-91947282D01*
X93403329Y-91959991D01*
X93404390Y-91967500D01*
X93401989Y-91983757D01*
X93393978Y-92016959D01*
X93381275Y-92064114D01*
X93364798Y-92122230D01*
X93345463Y-92188313D01*
X93324188Y-92259373D01*
X93301890Y-92332417D01*
X93279487Y-92404451D01*
X93257896Y-92472485D01*
X93238035Y-92533526D01*
X93220821Y-92584582D01*
X93207170Y-92622660D01*
X93198002Y-92644768D01*
X93195527Y-92648765D01*
X93176468Y-92656575D01*
X93144460Y-92660187D01*
X93107255Y-92659822D01*
X93072608Y-92655698D01*
X93048268Y-92648035D01*
X93043531Y-92644462D01*
X93036515Y-92629985D01*
X93024960Y-92598347D01*
X93009927Y-92552803D01*
X92992480Y-92496603D01*
X92973678Y-92433002D01*
X92967657Y-92412000D01*
X92949051Y-92347022D01*
X92932097Y-92288614D01*
X92917740Y-92239966D01*
X92906925Y-92204267D01*
X92900596Y-92184708D01*
X92899659Y-92182351D01*
X92895330Y-92188419D01*
X92886590Y-92212331D01*
X92874258Y-92251424D01*
X92859153Y-92303030D01*
X92842094Y-92364485D01*
X92831360Y-92404601D01*
X92813316Y-92472112D01*
X92796684Y-92532757D01*
X92782323Y-92583537D01*
X92771089Y-92621451D01*
X92763839Y-92643501D01*
X92761878Y-92647761D01*
X92745941Y-92654319D01*
X92716465Y-92659015D01*
X92681037Y-92661330D01*
X92647243Y-92660750D01*
X92623946Y-92657161D01*
X92616314Y-92653615D01*
X92608851Y-92646397D01*
X92600773Y-92633444D01*
X92591295Y-92612690D01*
X92579633Y-92582070D01*
X92565001Y-92539520D01*
X92546614Y-92482974D01*
X92523688Y-92410368D01*
X92495439Y-92319636D01*
X92494410Y-92316319D01*
X92469601Y-92235470D01*
X92447086Y-92160424D01*
X92427591Y-92093736D01*
X92411844Y-92037961D01*
X92400572Y-91995655D01*
X92394501Y-91969372D01*
X92393672Y-91962209D01*
X92398227Y-91949883D01*
X92411520Y-91942801D01*
X92438600Y-91939027D01*
X92457122Y-91937866D01*
X92475894Y-91936333D01*
X92490766Y-91935333D01*
X92502825Y-91936964D01*
G37*
X92502825Y-91936964D02*
X92513158Y-91943328D01*
X92522849Y-91956523D01*
X92532986Y-91978649D01*
X92544655Y-92011807D01*
X92558942Y-92058095D01*
X92576933Y-92119614D01*
X92599714Y-92198463D01*
X92609656Y-92232729D01*
X92629667Y-92300597D01*
X92648042Y-92361149D01*
X92663893Y-92411597D01*
X92676330Y-92449149D01*
X92684462Y-92471015D01*
X92687068Y-92475500D01*
X92691546Y-92465718D01*
X92700534Y-92438218D01*
X92713222Y-92395768D01*
X92728800Y-92341137D01*
X92746457Y-92277093D01*
X92760683Y-92224146D01*
X92779631Y-92153560D01*
X92797283Y-92089112D01*
X92812778Y-92033846D01*
X92825254Y-91990808D01*
X92833847Y-91963042D01*
X92837118Y-91954271D01*
X92853188Y-91942942D01*
X92881724Y-91936517D01*
X92914521Y-91935353D01*
X92943373Y-91939804D01*
X92959240Y-91948979D01*
X92964802Y-91962469D01*
X92975163Y-91993416D01*
X92989422Y-92038894D01*
X93006674Y-92095978D01*
X93026017Y-92161740D01*
X93041699Y-92216209D01*
X93061808Y-92286370D01*
X93080191Y-92349879D01*
X93096002Y-92403866D01*
X93108396Y-92445460D01*
X93116526Y-92471793D01*
X93119363Y-92479886D01*
X93123543Y-92472790D01*
X93132677Y-92447856D01*
X93145954Y-92407613D01*
X93162563Y-92354589D01*
X93181695Y-92291315D01*
X93202330Y-92221034D01*
X93223453Y-92148904D01*
X93243077Y-92083418D01*
X93260335Y-92027348D01*
X93274359Y-91983470D01*
X93284284Y-91954556D01*
X93289112Y-91943487D01*
X93304207Y-91938841D01*
X93332433Y-91937179D01*
X93349877Y-91937756D01*
X93381203Y-91940915D01*
X93397105Y-91947282D01*
X93403329Y-91959991D01*
X93404390Y-91967500D01*
X93401989Y-91983757D01*
X93393978Y-92016959D01*
X93381275Y-92064114D01*
X93364798Y-92122230D01*
X93345463Y-92188313D01*
X93324188Y-92259373D01*
X93301890Y-92332417D01*
X93279487Y-92404451D01*
X93257896Y-92472485D01*
X93238035Y-92533526D01*
X93220821Y-92584582D01*
X93207170Y-92622660D01*
X93198002Y-92644768D01*
X93195527Y-92648765D01*
X93176468Y-92656575D01*
X93144460Y-92660187D01*
X93107255Y-92659822D01*
X93072608Y-92655698D01*
X93048268Y-92648035D01*
X93043531Y-92644462D01*
X93036515Y-92629985D01*
X93024960Y-92598347D01*
X93009927Y-92552803D01*
X92992480Y-92496603D01*
X92973678Y-92433002D01*
X92967657Y-92412000D01*
X92949051Y-92347022D01*
X92932097Y-92288614D01*
X92917740Y-92239966D01*
X92906925Y-92204267D01*
X92900596Y-92184708D01*
X92899659Y-92182351D01*
X92895330Y-92188419D01*
X92886590Y-92212331D01*
X92874258Y-92251424D01*
X92859153Y-92303030D01*
X92842094Y-92364485D01*
X92831360Y-92404601D01*
X92813316Y-92472112D01*
X92796684Y-92532757D01*
X92782323Y-92583537D01*
X92771089Y-92621451D01*
X92763839Y-92643501D01*
X92761878Y-92647761D01*
X92745941Y-92654319D01*
X92716465Y-92659015D01*
X92681037Y-92661330D01*
X92647243Y-92660750D01*
X92623946Y-92657161D01*
X92616314Y-92653615D01*
X92608851Y-92646397D01*
X92600773Y-92633444D01*
X92591295Y-92612690D01*
X92579633Y-92582070D01*
X92565001Y-92539520D01*
X92546614Y-92482974D01*
X92523688Y-92410368D01*
X92495439Y-92319636D01*
X92494410Y-92316319D01*
X92469601Y-92235470D01*
X92447086Y-92160424D01*
X92427591Y-92093736D01*
X92411844Y-92037961D01*
X92400572Y-91995655D01*
X92394501Y-91969372D01*
X92393672Y-91962209D01*
X92398227Y-91949883D01*
X92411520Y-91942801D01*
X92438600Y-91939027D01*
X92457122Y-91937866D01*
X92475894Y-91936333D01*
X92490766Y-91935333D01*
X92502825Y-91936964D01*
G36*
X86208270Y-91965710D02*
G01*
X86244325Y-91878331D01*
X86293888Y-91805278D01*
X86356374Y-91747618D01*
X86431196Y-91706422D01*
X86440013Y-91702995D01*
X86514703Y-91683174D01*
X86598908Y-91674135D01*
X86683640Y-91676384D01*
X86743019Y-91685990D01*
X86828359Y-91715247D01*
X86899301Y-91759525D01*
X86956021Y-91819074D01*
X86998693Y-91894140D01*
X87027489Y-91984971D01*
X87042586Y-92091815D01*
X87043941Y-92114400D01*
X87042610Y-92231501D01*
X87027209Y-92337960D01*
X86998210Y-92431715D01*
X86956083Y-92510702D01*
X86952183Y-92516289D01*
X86931404Y-92545469D01*
X86996806Y-92588651D01*
X87037533Y-92614632D01*
X87079184Y-92639757D01*
X87109833Y-92657003D01*
X87138065Y-92673200D01*
X87152583Y-92688277D01*
X87158583Y-92710343D01*
X87160611Y-92736260D01*
X87160521Y-92772798D01*
X87152493Y-92792066D01*
X87132945Y-92796727D01*
X87098296Y-92789446D01*
X87091693Y-92787523D01*
X87027941Y-92761605D01*
X86955472Y-92719620D01*
X86885462Y-92669677D01*
X86825134Y-92623088D01*
X86759198Y-92645300D01*
X86700812Y-92659047D01*
X86631199Y-92666504D01*
X86559116Y-92667385D01*
X86493319Y-92661399D01*
X86462956Y-92655068D01*
X86381045Y-92623216D01*
X86313067Y-92575504D01*
X86259003Y-92511904D01*
X86218835Y-92432387D01*
X86192546Y-92336922D01*
X86180119Y-92225480D01*
X86179028Y-92179167D01*
X86180673Y-92153664D01*
X86327384Y-92153664D01*
X86329649Y-92228678D01*
X86337527Y-92300528D01*
X86350686Y-92361980D01*
X86357555Y-92382553D01*
X86386811Y-92436802D01*
X86428146Y-92484646D01*
X86476230Y-92520837D01*
X86514925Y-92537579D01*
X86559613Y-92544656D01*
X86613719Y-92545359D01*
X86668533Y-92540251D01*
X86715342Y-92529895D01*
X86731707Y-92523563D01*
X86791258Y-92484897D01*
X86837360Y-92431512D01*
X86870231Y-92362875D01*
X86890092Y-92278454D01*
X86897161Y-92177717D01*
X86896081Y-92123562D01*
X86885772Y-92028847D01*
X86863755Y-91951093D01*
X86829483Y-91889276D01*
X86782410Y-91842374D01*
X86730201Y-91812726D01*
X86693292Y-91802847D01*
X86644444Y-91797390D01*
X86591974Y-91796526D01*
X86544198Y-91800427D01*
X86511921Y-91808219D01*
X86448914Y-91844282D01*
X86397921Y-91897367D01*
X86359621Y-91966618D01*
X86341025Y-92023091D01*
X86331065Y-92082723D01*
X86327384Y-92153664D01*
X86180673Y-92153664D01*
X86186309Y-92066345D01*
X86208270Y-91965710D01*
G37*
X86208270Y-91965710D02*
X86244325Y-91878331D01*
X86293888Y-91805278D01*
X86356374Y-91747618D01*
X86431196Y-91706422D01*
X86440013Y-91702995D01*
X86514703Y-91683174D01*
X86598908Y-91674135D01*
X86683640Y-91676384D01*
X86743019Y-91685990D01*
X86828359Y-91715247D01*
X86899301Y-91759525D01*
X86956021Y-91819074D01*
X86998693Y-91894140D01*
X87027489Y-91984971D01*
X87042586Y-92091815D01*
X87043941Y-92114400D01*
X87042610Y-92231501D01*
X87027209Y-92337960D01*
X86998210Y-92431715D01*
X86956083Y-92510702D01*
X86952183Y-92516289D01*
X86931404Y-92545469D01*
X86996806Y-92588651D01*
X87037533Y-92614632D01*
X87079184Y-92639757D01*
X87109833Y-92657003D01*
X87138065Y-92673200D01*
X87152583Y-92688277D01*
X87158583Y-92710343D01*
X87160611Y-92736260D01*
X87160521Y-92772798D01*
X87152493Y-92792066D01*
X87132945Y-92796727D01*
X87098296Y-92789446D01*
X87091693Y-92787523D01*
X87027941Y-92761605D01*
X86955472Y-92719620D01*
X86885462Y-92669677D01*
X86825134Y-92623088D01*
X86759198Y-92645300D01*
X86700812Y-92659047D01*
X86631199Y-92666504D01*
X86559116Y-92667385D01*
X86493319Y-92661399D01*
X86462956Y-92655068D01*
X86381045Y-92623216D01*
X86313067Y-92575504D01*
X86259003Y-92511904D01*
X86218835Y-92432387D01*
X86192546Y-92336922D01*
X86180119Y-92225480D01*
X86179028Y-92179167D01*
X86180673Y-92153664D01*
X86327384Y-92153664D01*
X86329649Y-92228678D01*
X86337527Y-92300528D01*
X86350686Y-92361980D01*
X86357555Y-92382553D01*
X86386811Y-92436802D01*
X86428146Y-92484646D01*
X86476230Y-92520837D01*
X86514925Y-92537579D01*
X86559613Y-92544656D01*
X86613719Y-92545359D01*
X86668533Y-92540251D01*
X86715342Y-92529895D01*
X86731707Y-92523563D01*
X86791258Y-92484897D01*
X86837360Y-92431512D01*
X86870231Y-92362875D01*
X86890092Y-92278454D01*
X86897161Y-92177717D01*
X86896081Y-92123562D01*
X86885772Y-92028847D01*
X86863755Y-91951093D01*
X86829483Y-91889276D01*
X86782410Y-91842374D01*
X86730201Y-91812726D01*
X86693292Y-91802847D01*
X86644444Y-91797390D01*
X86591974Y-91796526D01*
X86544198Y-91800427D01*
X86511921Y-91808219D01*
X86448914Y-91844282D01*
X86397921Y-91897367D01*
X86359621Y-91966618D01*
X86341025Y-92023091D01*
X86331065Y-92082723D01*
X86327384Y-92153664D01*
X86180673Y-92153664D01*
X86186309Y-92066345D01*
X86208270Y-91965710D01*
G36*
X89214531Y-90880364D02*
G01*
X89245945Y-90832739D01*
X89272593Y-90806098D01*
X89318188Y-90774313D01*
X89368924Y-90756682D01*
X89430264Y-90751669D01*
X89461423Y-90753023D01*
X89504986Y-90757677D01*
X89535507Y-90765858D01*
X89561092Y-90780226D01*
X89573697Y-90789856D01*
X89613964Y-90829106D01*
X89639729Y-90872547D01*
X89653981Y-90926344D01*
X89658099Y-90964034D01*
X89659961Y-91006674D01*
X89657740Y-91032595D01*
X89650970Y-91045937D01*
X89648687Y-91047682D01*
X89633527Y-91050842D01*
X89601121Y-91053565D01*
X89555391Y-91055650D01*
X89500258Y-91056901D01*
X89461499Y-91057171D01*
X89289040Y-91057334D01*
X89296226Y-91097021D01*
X89312998Y-91153856D01*
X89340079Y-91193371D01*
X89365381Y-91211463D01*
X89404425Y-91223365D01*
X89455216Y-91227508D01*
X89509811Y-91223897D01*
X89560267Y-91212540D01*
X89563851Y-91211309D01*
X89601923Y-91198978D01*
X89624496Y-91196229D01*
X89635549Y-91204365D01*
X89639063Y-91224688D01*
X89639250Y-91235966D01*
X89636797Y-91260308D01*
X89627094Y-91277800D01*
X89606622Y-91290741D01*
X89571863Y-91301434D01*
X89524034Y-91311301D01*
X89465308Y-91319604D01*
X89415801Y-91319472D01*
X89365210Y-91310647D01*
X89350847Y-91306962D01*
X89288670Y-91280594D01*
X89241057Y-91238888D01*
X89208035Y-91181889D01*
X89189627Y-91109642D01*
X89185859Y-91022192D01*
X89186391Y-91010675D01*
X89189772Y-90983250D01*
X89289596Y-90983250D01*
X89554583Y-90983250D01*
X89554583Y-90956266D01*
X89546113Y-90916108D01*
X89524413Y-90876767D01*
X89499372Y-90851601D01*
X89472881Y-90840482D01*
X89439330Y-90835161D01*
X89435286Y-90835084D01*
X89381711Y-90843447D01*
X89340416Y-90868802D01*
X89310940Y-90911542D01*
X89296575Y-90954146D01*
X89289596Y-90983250D01*
X89189772Y-90983250D01*
X89195337Y-90938118D01*
X89214531Y-90880364D01*
G37*
X89214531Y-90880364D02*
X89245945Y-90832739D01*
X89272593Y-90806098D01*
X89318188Y-90774313D01*
X89368924Y-90756682D01*
X89430264Y-90751669D01*
X89461423Y-90753023D01*
X89504986Y-90757677D01*
X89535507Y-90765858D01*
X89561092Y-90780226D01*
X89573697Y-90789856D01*
X89613964Y-90829106D01*
X89639729Y-90872547D01*
X89653981Y-90926344D01*
X89658099Y-90964034D01*
X89659961Y-91006674D01*
X89657740Y-91032595D01*
X89650970Y-91045937D01*
X89648687Y-91047682D01*
X89633527Y-91050842D01*
X89601121Y-91053565D01*
X89555391Y-91055650D01*
X89500258Y-91056901D01*
X89461499Y-91057171D01*
X89289040Y-91057334D01*
X89296226Y-91097021D01*
X89312998Y-91153856D01*
X89340079Y-91193371D01*
X89365381Y-91211463D01*
X89404425Y-91223365D01*
X89455216Y-91227508D01*
X89509811Y-91223897D01*
X89560267Y-91212540D01*
X89563851Y-91211309D01*
X89601923Y-91198978D01*
X89624496Y-91196229D01*
X89635549Y-91204365D01*
X89639063Y-91224688D01*
X89639250Y-91235966D01*
X89636797Y-91260308D01*
X89627094Y-91277800D01*
X89606622Y-91290741D01*
X89571863Y-91301434D01*
X89524034Y-91311301D01*
X89465308Y-91319604D01*
X89415801Y-91319472D01*
X89365210Y-91310647D01*
X89350847Y-91306962D01*
X89288670Y-91280594D01*
X89241057Y-91238888D01*
X89208035Y-91181889D01*
X89189627Y-91109642D01*
X89185859Y-91022192D01*
X89186391Y-91010675D01*
X89189772Y-90983250D01*
X89289596Y-90983250D01*
X89554583Y-90983250D01*
X89554583Y-90956266D01*
X89546113Y-90916108D01*
X89524413Y-90876767D01*
X89499372Y-90851601D01*
X89472881Y-90840482D01*
X89439330Y-90835161D01*
X89435286Y-90835084D01*
X89381711Y-90843447D01*
X89340416Y-90868802D01*
X89310940Y-90911542D01*
X89296575Y-90954146D01*
X89289596Y-90983250D01*
X89189772Y-90983250D01*
X89195337Y-90938118D01*
X89214531Y-90880364D01*
G36*
X88263534Y-91681421D02*
G01*
X88277917Y-91686143D01*
X88289095Y-91696546D01*
X88297468Y-91714369D01*
X88303433Y-91741352D01*
X88307391Y-91779235D01*
X88309741Y-91829758D01*
X88310882Y-91894660D01*
X88311213Y-91975681D01*
X88311133Y-92074561D01*
X88311041Y-92180190D01*
X88311041Y-92648594D01*
X88279291Y-92657187D01*
X88245044Y-92661438D01*
X88213145Y-92659420D01*
X88178750Y-92653061D01*
X88178355Y-92233552D01*
X88177960Y-91814042D01*
X88010592Y-92229631D01*
X87974812Y-92318212D01*
X87941287Y-92400702D01*
X87910875Y-92475028D01*
X87884434Y-92539117D01*
X87862821Y-92590895D01*
X87846895Y-92628291D01*
X87837511Y-92649229D01*
X87835465Y-92652965D01*
X87818661Y-92658795D01*
X87789929Y-92660414D01*
X87757398Y-92658362D01*
X87729200Y-92653175D01*
X87713465Y-92645391D01*
X87713104Y-92644868D01*
X87707473Y-92632132D01*
X87695135Y-92601827D01*
X87676953Y-92556151D01*
X87653791Y-92497301D01*
X87626513Y-92427475D01*
X87595983Y-92348869D01*
X87563064Y-92263683D01*
X87552583Y-92236474D01*
X87400875Y-91842338D01*
X87398103Y-92243896D01*
X87395331Y-92645453D01*
X87368309Y-92655727D01*
X87341242Y-92663204D01*
X87312407Y-92663349D01*
X87281812Y-92658531D01*
X87258000Y-92653945D01*
X87258162Y-92186368D01*
X87258403Y-92088514D01*
X87259030Y-91996940D01*
X87259997Y-91913869D01*
X87261261Y-91841526D01*
X87262776Y-91782132D01*
X87264499Y-91737912D01*
X87266386Y-91711089D01*
X87267771Y-91703868D01*
X87284886Y-91693354D01*
X87316627Y-91686446D01*
X87356687Y-91683606D01*
X87398760Y-91685293D01*
X87435345Y-91691641D01*
X87448665Y-91695216D01*
X87460055Y-91699298D01*
X87470443Y-91705707D01*
X87480754Y-91716265D01*
X87491916Y-91732795D01*
X87504855Y-91757118D01*
X87520498Y-91791055D01*
X87539771Y-91836429D01*
X87563600Y-91895062D01*
X87592913Y-91968774D01*
X87628637Y-92059389D01*
X87650030Y-92113733D01*
X87685416Y-92203351D01*
X87714003Y-92274987D01*
X87736617Y-92330406D01*
X87754081Y-92371375D01*
X87767219Y-92399657D01*
X87776855Y-92417019D01*
X87783814Y-92425224D01*
X87788918Y-92426040D01*
X87792993Y-92421230D01*
X87793302Y-92420650D01*
X87800284Y-92405197D01*
X87814218Y-92372645D01*
X87834060Y-92325491D01*
X87858767Y-92266235D01*
X87887295Y-92197376D01*
X87918601Y-92121412D01*
X87940507Y-92068042D01*
X87976033Y-91982413D01*
X88009077Y-91904834D01*
X88038665Y-91837463D01*
X88063822Y-91782460D01*
X88083576Y-91741984D01*
X88096952Y-91718193D01*
X88100278Y-91713852D01*
X88118415Y-91698945D01*
X88141095Y-91690146D01*
X88175018Y-91685387D01*
X88197159Y-91683936D01*
X88223554Y-91682057D01*
X88245545Y-91680638D01*
X88263534Y-91681421D01*
G37*
X88263534Y-91681421D02*
X88277917Y-91686143D01*
X88289095Y-91696546D01*
X88297468Y-91714369D01*
X88303433Y-91741352D01*
X88307391Y-91779235D01*
X88309741Y-91829758D01*
X88310882Y-91894660D01*
X88311213Y-91975681D01*
X88311133Y-92074561D01*
X88311041Y-92180190D01*
X88311041Y-92648594D01*
X88279291Y-92657187D01*
X88245044Y-92661438D01*
X88213145Y-92659420D01*
X88178750Y-92653061D01*
X88178355Y-92233552D01*
X88177960Y-91814042D01*
X88010592Y-92229631D01*
X87974812Y-92318212D01*
X87941287Y-92400702D01*
X87910875Y-92475028D01*
X87884434Y-92539117D01*
X87862821Y-92590895D01*
X87846895Y-92628291D01*
X87837511Y-92649229D01*
X87835465Y-92652965D01*
X87818661Y-92658795D01*
X87789929Y-92660414D01*
X87757398Y-92658362D01*
X87729200Y-92653175D01*
X87713465Y-92645391D01*
X87713104Y-92644868D01*
X87707473Y-92632132D01*
X87695135Y-92601827D01*
X87676953Y-92556151D01*
X87653791Y-92497301D01*
X87626513Y-92427475D01*
X87595983Y-92348869D01*
X87563064Y-92263683D01*
X87552583Y-92236474D01*
X87400875Y-91842338D01*
X87398103Y-92243896D01*
X87395331Y-92645453D01*
X87368309Y-92655727D01*
X87341242Y-92663204D01*
X87312407Y-92663349D01*
X87281812Y-92658531D01*
X87258000Y-92653945D01*
X87258162Y-92186368D01*
X87258403Y-92088514D01*
X87259030Y-91996940D01*
X87259997Y-91913869D01*
X87261261Y-91841526D01*
X87262776Y-91782132D01*
X87264499Y-91737912D01*
X87266386Y-91711089D01*
X87267771Y-91703868D01*
X87284886Y-91693354D01*
X87316627Y-91686446D01*
X87356687Y-91683606D01*
X87398760Y-91685293D01*
X87435345Y-91691641D01*
X87448665Y-91695216D01*
X87460055Y-91699298D01*
X87470443Y-91705707D01*
X87480754Y-91716265D01*
X87491916Y-91732795D01*
X87504855Y-91757118D01*
X87520498Y-91791055D01*
X87539771Y-91836429D01*
X87563600Y-91895062D01*
X87592913Y-91968774D01*
X87628637Y-92059389D01*
X87650030Y-92113733D01*
X87685416Y-92203351D01*
X87714003Y-92274987D01*
X87736617Y-92330406D01*
X87754081Y-92371375D01*
X87767219Y-92399657D01*
X87776855Y-92417019D01*
X87783814Y-92425224D01*
X87788918Y-92426040D01*
X87792993Y-92421230D01*
X87793302Y-92420650D01*
X87800284Y-92405197D01*
X87814218Y-92372645D01*
X87834060Y-92325491D01*
X87858767Y-92266235D01*
X87887295Y-92197376D01*
X87918601Y-92121412D01*
X87940507Y-92068042D01*
X87976033Y-91982413D01*
X88009077Y-91904834D01*
X88038665Y-91837463D01*
X88063822Y-91782460D01*
X88083576Y-91741984D01*
X88096952Y-91718193D01*
X88100278Y-91713852D01*
X88118415Y-91698945D01*
X88141095Y-91690146D01*
X88175018Y-91685387D01*
X88197159Y-91683936D01*
X88223554Y-91682057D01*
X88245545Y-91680638D01*
X88263534Y-91681421D01*
G36*
X90488026Y-91668015D02*
G01*
X90515044Y-91689758D01*
X90525915Y-91724985D01*
X90524889Y-91748753D01*
X90516855Y-91779619D01*
X90504137Y-91802328D01*
X90500470Y-91805733D01*
X90472419Y-91816323D01*
X90435737Y-91818685D01*
X90401291Y-91812831D01*
X90386515Y-91805601D01*
X90373602Y-91787873D01*
X90368145Y-91756450D01*
X90367736Y-91739959D01*
X90372230Y-91698704D01*
X90387777Y-91673908D01*
X90417472Y-91662415D01*
X90445606Y-91660584D01*
X90488026Y-91668015D01*
G37*
X90488026Y-91668015D02*
X90515044Y-91689758D01*
X90525915Y-91724985D01*
X90524889Y-91748753D01*
X90516855Y-91779619D01*
X90504137Y-91802328D01*
X90500470Y-91805733D01*
X90472419Y-91816323D01*
X90435737Y-91818685D01*
X90401291Y-91812831D01*
X90386515Y-91805601D01*
X90373602Y-91787873D01*
X90368145Y-91756450D01*
X90367736Y-91739959D01*
X90372230Y-91698704D01*
X90387777Y-91673908D01*
X90417472Y-91662415D01*
X90445606Y-91660584D01*
X90488026Y-91668015D01*
G36*
X90504576Y-92296959D02*
G01*
X90507361Y-92652875D01*
X90483410Y-92659293D01*
X90427966Y-92663781D01*
X90398464Y-92658678D01*
X90393423Y-92656207D01*
X90389411Y-92650296D01*
X90386334Y-92638824D01*
X90384100Y-92619671D01*
X90382615Y-92590718D01*
X90381787Y-92549843D01*
X90381521Y-92494926D01*
X90381725Y-92423849D01*
X90382305Y-92334489D01*
X90382589Y-92297426D01*
X90385375Y-91941042D01*
X90501791Y-91941042D01*
X90504576Y-92296959D01*
G37*
X90504576Y-92296959D02*
X90507361Y-92652875D01*
X90483410Y-92659293D01*
X90427966Y-92663781D01*
X90398464Y-92658678D01*
X90393423Y-92656207D01*
X90389411Y-92650296D01*
X90386334Y-92638824D01*
X90384100Y-92619671D01*
X90382615Y-92590718D01*
X90381787Y-92549843D01*
X90381521Y-92494926D01*
X90381725Y-92423849D01*
X90382305Y-92334489D01*
X90382589Y-92297426D01*
X90385375Y-91941042D01*
X90501791Y-91941042D01*
X90504576Y-92296959D01*
G36*
X83297187Y-91160868D02*
G01*
X83178125Y-91157875D01*
X83174845Y-91099988D01*
X83174453Y-91065607D01*
X83179970Y-91041954D01*
X83194564Y-91027050D01*
X83221407Y-91018913D01*
X83263666Y-91015563D01*
X83310888Y-91015000D01*
X83413148Y-91015000D01*
X83425659Y-90938271D01*
X83447952Y-90857869D01*
X83485954Y-90791538D01*
X83539015Y-90739914D01*
X83606489Y-90703633D01*
X83685053Y-90683708D01*
X83764845Y-90672213D01*
X83770791Y-90438209D01*
X83897791Y-90438209D01*
X83900784Y-90557271D01*
X83903776Y-90676333D01*
X83972221Y-90676333D01*
X84040666Y-90676334D01*
X84040828Y-90567854D01*
X84041713Y-90520947D01*
X84043970Y-90481315D01*
X84047217Y-90454165D01*
X84049747Y-90445568D01*
X84065581Y-90437004D01*
X84099470Y-90434332D01*
X84121023Y-90434985D01*
X84183541Y-90438209D01*
X84186534Y-90557271D01*
X84189526Y-90676333D01*
X84257971Y-90676333D01*
X84326416Y-90676334D01*
X84326578Y-90567854D01*
X84327463Y-90520947D01*
X84329720Y-90481315D01*
X84332967Y-90454165D01*
X84335497Y-90445568D01*
X84351331Y-90437004D01*
X84385220Y-90434332D01*
X84406773Y-90434985D01*
X84469291Y-90438209D01*
X84472284Y-90557271D01*
X84475276Y-90676334D01*
X84611473Y-90676334D01*
X84614465Y-90557271D01*
X84617458Y-90438209D01*
X84679976Y-90434985D01*
X84722516Y-90435089D01*
X84746263Y-90440974D01*
X84751252Y-90445568D01*
X84754949Y-90461494D01*
X84757909Y-90493377D01*
X84759751Y-90536009D01*
X84760171Y-90567854D01*
X84760333Y-90676334D01*
X84897223Y-90676334D01*
X84900215Y-90557271D01*
X84903208Y-90438209D01*
X84965726Y-90434985D01*
X85008266Y-90435089D01*
X85032013Y-90440974D01*
X85037002Y-90445568D01*
X85040719Y-90461524D01*
X85043688Y-90493398D01*
X85045521Y-90535943D01*
X85045921Y-90566635D01*
X85046083Y-90673895D01*
X85106937Y-90681306D01*
X85189376Y-90700528D01*
X85258553Y-90735936D01*
X85313505Y-90786570D01*
X85353271Y-90851470D01*
X85376887Y-90929678D01*
X85380504Y-90954082D01*
X85387452Y-91013199D01*
X85501663Y-91016746D01*
X85548870Y-91018810D01*
X85587958Y-91021645D01*
X85614253Y-91024841D01*
X85622910Y-91027355D01*
X85630989Y-91046097D01*
X85635349Y-91076570D01*
X85635495Y-91109587D01*
X85630934Y-91135961D01*
X85628983Y-91140475D01*
X85622138Y-91150463D01*
X85611673Y-91157001D01*
X85593499Y-91160812D01*
X85563528Y-91162620D01*
X85517669Y-91163149D01*
X85500794Y-91163167D01*
X85384750Y-91163167D01*
X85384750Y-91300750D01*
X85495119Y-91300750D01*
X85553231Y-91301881D01*
X85593421Y-91306307D01*
X85618862Y-91315581D01*
X85632724Y-91331253D01*
X85638181Y-91354876D01*
X85638750Y-91370994D01*
X85637483Y-91402779D01*
X85631445Y-91424514D01*
X85617276Y-91438098D01*
X85591615Y-91445427D01*
X85551104Y-91448399D01*
X85500794Y-91448917D01*
X85384750Y-91448917D01*
X85384750Y-91586500D01*
X85500794Y-91586500D01*
X85557104Y-91587241D01*
X85595617Y-91590663D01*
X85619685Y-91598567D01*
X85632658Y-91612752D01*
X85637888Y-91635017D01*
X85638749Y-91660584D01*
X85637370Y-91690823D01*
X85630997Y-91711505D01*
X85616279Y-91724429D01*
X85589865Y-91731396D01*
X85548403Y-91734204D01*
X85500794Y-91734667D01*
X85384750Y-91734667D01*
X85384750Y-91872250D01*
X85500794Y-91872250D01*
X85557067Y-91872965D01*
X85595547Y-91876376D01*
X85619596Y-91884380D01*
X85632571Y-91898874D01*
X85637832Y-91921756D01*
X85638750Y-91950173D01*
X85636437Y-91978594D01*
X85627386Y-91998249D01*
X85608424Y-92010691D01*
X85576378Y-92017470D01*
X85528076Y-92020139D01*
X85495119Y-92020417D01*
X85384750Y-92020417D01*
X85384750Y-92158000D01*
X85500794Y-92158000D01*
X85552031Y-92158293D01*
X85586194Y-92159655D01*
X85607372Y-92162810D01*
X85619653Y-92168482D01*
X85627128Y-92177394D01*
X85628983Y-92180692D01*
X85635660Y-92206524D01*
X85635660Y-92239661D01*
X85629957Y-92271540D01*
X85619528Y-92293598D01*
X85615739Y-92296947D01*
X85599677Y-92300728D01*
X85567718Y-92303745D01*
X85525130Y-92305604D01*
X85494686Y-92306005D01*
X85387664Y-92306167D01*
X85380610Y-92366184D01*
X85361642Y-92448267D01*
X85326188Y-92517465D01*
X85275341Y-92572686D01*
X85210192Y-92612839D01*
X85131833Y-92636832D01*
X85106100Y-92640694D01*
X85046083Y-92647748D01*
X85045921Y-92754770D01*
X85045011Y-92801400D01*
X85042690Y-92840777D01*
X85039353Y-92867633D01*
X85036863Y-92875823D01*
X85019278Y-92887447D01*
X84989377Y-92894628D01*
X84955722Y-92896390D01*
X84926878Y-92891759D01*
X84920608Y-92889067D01*
X84910620Y-92882222D01*
X84904082Y-92871757D01*
X84900271Y-92853583D01*
X84898463Y-92823612D01*
X84897934Y-92777753D01*
X84897916Y-92760878D01*
X84897916Y-92644834D01*
X84760333Y-92644834D01*
X84760171Y-92753313D01*
X84759298Y-92800192D01*
X84757074Y-92839768D01*
X84753873Y-92866845D01*
X84751377Y-92875396D01*
X84732951Y-92887911D01*
X84702232Y-92894853D01*
X84667608Y-92895159D01*
X84641270Y-92889368D01*
X84612166Y-92878191D01*
X84612166Y-92644834D01*
X84474583Y-92644834D01*
X84474583Y-92878191D01*
X84445479Y-92889368D01*
X84414157Y-92895570D01*
X84379580Y-92894227D01*
X84350136Y-92886403D01*
X84335372Y-92875396D01*
X84331728Y-92859560D01*
X84328810Y-92827756D01*
X84326993Y-92785179D01*
X84326578Y-92753313D01*
X84326416Y-92644834D01*
X84188833Y-92644834D01*
X84188833Y-92760878D01*
X84188540Y-92812115D01*
X84187178Y-92846278D01*
X84184023Y-92867456D01*
X84178351Y-92879737D01*
X84169439Y-92887212D01*
X84166141Y-92889067D01*
X84140309Y-92895744D01*
X84107172Y-92895744D01*
X84075293Y-92890041D01*
X84053235Y-92879612D01*
X84049886Y-92875823D01*
X84046129Y-92859797D01*
X84043123Y-92827827D01*
X84041253Y-92785135D01*
X84040828Y-92753313D01*
X84040666Y-92644834D01*
X83903083Y-92644834D01*
X83903083Y-92760878D01*
X83902725Y-92812462D01*
X83901219Y-92846899D01*
X83897919Y-92868205D01*
X83892177Y-92880393D01*
X83883347Y-92887478D01*
X83882612Y-92887878D01*
X83848665Y-92897292D01*
X83810172Y-92896168D01*
X83784020Y-92887402D01*
X83775654Y-92879707D01*
X83770210Y-92865657D01*
X83767099Y-92841289D01*
X83765734Y-92802641D01*
X83765500Y-92762832D01*
X83765500Y-92649049D01*
X83685380Y-92637506D01*
X83604439Y-92616718D01*
X83537334Y-92580015D01*
X83484690Y-92528010D01*
X83447131Y-92461315D01*
X83425659Y-92382896D01*
X83413148Y-92306167D01*
X83310888Y-92306167D01*
X83253959Y-92305228D01*
X83214991Y-92301091D01*
X83190816Y-92291776D01*
X83178263Y-92275302D01*
X83174163Y-92249690D01*
X83174845Y-92221179D01*
X83178125Y-92163292D01*
X83297187Y-92160299D01*
X83416250Y-92157307D01*
X83416250Y-92020417D01*
X83307770Y-92020255D01*
X83260863Y-92019370D01*
X83221231Y-92017113D01*
X83194081Y-92013866D01*
X83185484Y-92011336D01*
X83176920Y-91995502D01*
X83174248Y-91961613D01*
X83174901Y-91940060D01*
X83178125Y-91877542D01*
X83297187Y-91874549D01*
X83416250Y-91871557D01*
X83416250Y-91735360D01*
X83297187Y-91732368D01*
X83178125Y-91729375D01*
X83174901Y-91666857D01*
X83175005Y-91624317D01*
X83180890Y-91600570D01*
X83185484Y-91595581D01*
X83201410Y-91591884D01*
X83233293Y-91588924D01*
X83275925Y-91587082D01*
X83307770Y-91586662D01*
X83416250Y-91586500D01*
X83416250Y-91449610D01*
X83297187Y-91446618D01*
X83178125Y-91443625D01*
X83174901Y-91381107D01*
X83175005Y-91338567D01*
X83180890Y-91314820D01*
X83185484Y-91309831D01*
X83201410Y-91306134D01*
X83233293Y-91303174D01*
X83275925Y-91301332D01*
X83307770Y-91300912D01*
X83416250Y-91300750D01*
X83416250Y-91243958D01*
X83850680Y-91243958D01*
X83851403Y-91318064D01*
X83852341Y-91391802D01*
X83853510Y-91479158D01*
X83854735Y-91548194D01*
X83856243Y-91601753D01*
X83858264Y-91642681D01*
X83861026Y-91673824D01*
X83864760Y-91698026D01*
X83869694Y-91718132D01*
X83876056Y-91736987D01*
X83881208Y-91750274D01*
X83917846Y-91817501D01*
X83969954Y-91879460D01*
X84031850Y-91930094D01*
X84070428Y-91952091D01*
X84110228Y-91967549D01*
X84161773Y-91982682D01*
X84215772Y-91994844D01*
X84228520Y-91997102D01*
X84326416Y-92013334D01*
X84326416Y-92127118D01*
X84327307Y-92183525D01*
X84330131Y-92220869D01*
X84335115Y-92241188D01*
X84339645Y-92246241D01*
X84362307Y-92250539D01*
X84395894Y-92252233D01*
X84430319Y-92251273D01*
X84455495Y-92247609D01*
X84457842Y-92246826D01*
X84465452Y-92240471D01*
X84470416Y-92225956D01*
X84473242Y-92199632D01*
X84474437Y-92157848D01*
X84474583Y-92126404D01*
X84474583Y-92012407D01*
X84553067Y-92000734D01*
X84657136Y-91976748D01*
X84746215Y-91938040D01*
X84820137Y-91884732D01*
X84878732Y-91816942D01*
X84920895Y-91737148D01*
X84928172Y-91717992D01*
X84933890Y-91699114D01*
X84938274Y-91677650D01*
X84941552Y-91650738D01*
X84943951Y-91615513D01*
X84945697Y-91569114D01*
X84947018Y-91508677D01*
X84948139Y-91431338D01*
X84948685Y-91386433D01*
X84949729Y-91297766D01*
X84950222Y-91228001D01*
X84949701Y-91174873D01*
X84947701Y-91136117D01*
X84943758Y-91109470D01*
X84937406Y-91092665D01*
X84928181Y-91083439D01*
X84915619Y-91079527D01*
X84899256Y-91078664D01*
X84885553Y-91078662D01*
X84862153Y-91078534D01*
X84844428Y-91080087D01*
X84831588Y-91085893D01*
X84822846Y-91098525D01*
X84817411Y-91120556D01*
X84814494Y-91154559D01*
X84813308Y-91203106D01*
X84813062Y-91268770D01*
X84813040Y-91315112D01*
X84812266Y-91416875D01*
X84809940Y-91500228D01*
X84805742Y-91567892D01*
X84799353Y-91622587D01*
X84790452Y-91667035D01*
X84778721Y-91703956D01*
X84763838Y-91736071D01*
X84763477Y-91736736D01*
X84722560Y-91791129D01*
X84666877Y-91835428D01*
X84601595Y-91866659D01*
X84531883Y-91881847D01*
X84509704Y-91882834D01*
X84474583Y-91882834D01*
X84474583Y-91487091D01*
X84474642Y-91383192D01*
X84474596Y-91298504D01*
X84474108Y-91231073D01*
X84472841Y-91178944D01*
X84470459Y-91140164D01*
X84466626Y-91112779D01*
X84461005Y-91094833D01*
X84453259Y-91084373D01*
X84443053Y-91079445D01*
X84430049Y-91078094D01*
X84413911Y-91078366D01*
X84404230Y-91078500D01*
X84372689Y-91081621D01*
X84347454Y-91089160D01*
X84346887Y-91089456D01*
X84341584Y-91093077D01*
X84337285Y-91099066D01*
X84333884Y-91109488D01*
X84331277Y-91126407D01*
X84329359Y-91151887D01*
X84328024Y-91187993D01*
X84327167Y-91236790D01*
X84326684Y-91300343D01*
X84326469Y-91380715D01*
X84326416Y-91479971D01*
X84326416Y-91882834D01*
X84293649Y-91882834D01*
X84224625Y-91873493D01*
X84156913Y-91847590D01*
X84096929Y-91808302D01*
X84055332Y-91764779D01*
X84038817Y-91740141D01*
X84025776Y-91714206D01*
X84015813Y-91684183D01*
X84008533Y-91647284D01*
X84003541Y-91600720D01*
X84000441Y-91541702D01*
X83998839Y-91467441D01*
X83998338Y-91375148D01*
X83998333Y-91362702D01*
X83998325Y-91277813D01*
X83997854Y-91211740D01*
X83996246Y-91162131D01*
X83992829Y-91126636D01*
X83986929Y-91102905D01*
X83977873Y-91088587D01*
X83964988Y-91081332D01*
X83947602Y-91078789D01*
X83925042Y-91078607D01*
X83917008Y-91078662D01*
X83897381Y-91078703D01*
X83881919Y-91080148D01*
X83870160Y-91085240D01*
X83861640Y-91096223D01*
X83855896Y-91115343D01*
X83852463Y-91144842D01*
X83850879Y-91186966D01*
X83850680Y-91243958D01*
X83416250Y-91243958D01*
X83416250Y-91163860D01*
X83297187Y-91160868D01*
G37*
X83297187Y-91160868D02*
X83178125Y-91157875D01*
X83174845Y-91099988D01*
X83174453Y-91065607D01*
X83179970Y-91041954D01*
X83194564Y-91027050D01*
X83221407Y-91018913D01*
X83263666Y-91015563D01*
X83310888Y-91015000D01*
X83413148Y-91015000D01*
X83425659Y-90938271D01*
X83447952Y-90857869D01*
X83485954Y-90791538D01*
X83539015Y-90739914D01*
X83606489Y-90703633D01*
X83685053Y-90683708D01*
X83764845Y-90672213D01*
X83770791Y-90438209D01*
X83897791Y-90438209D01*
X83900784Y-90557271D01*
X83903776Y-90676333D01*
X83972221Y-90676333D01*
X84040666Y-90676334D01*
X84040828Y-90567854D01*
X84041713Y-90520947D01*
X84043970Y-90481315D01*
X84047217Y-90454165D01*
X84049747Y-90445568D01*
X84065581Y-90437004D01*
X84099470Y-90434332D01*
X84121023Y-90434985D01*
X84183541Y-90438209D01*
X84186534Y-90557271D01*
X84189526Y-90676333D01*
X84257971Y-90676333D01*
X84326416Y-90676334D01*
X84326578Y-90567854D01*
X84327463Y-90520947D01*
X84329720Y-90481315D01*
X84332967Y-90454165D01*
X84335497Y-90445568D01*
X84351331Y-90437004D01*
X84385220Y-90434332D01*
X84406773Y-90434985D01*
X84469291Y-90438209D01*
X84472284Y-90557271D01*
X84475276Y-90676334D01*
X84611473Y-90676334D01*
X84614465Y-90557271D01*
X84617458Y-90438209D01*
X84679976Y-90434985D01*
X84722516Y-90435089D01*
X84746263Y-90440974D01*
X84751252Y-90445568D01*
X84754949Y-90461494D01*
X84757909Y-90493377D01*
X84759751Y-90536009D01*
X84760171Y-90567854D01*
X84760333Y-90676334D01*
X84897223Y-90676334D01*
X84900215Y-90557271D01*
X84903208Y-90438209D01*
X84965726Y-90434985D01*
X85008266Y-90435089D01*
X85032013Y-90440974D01*
X85037002Y-90445568D01*
X85040719Y-90461524D01*
X85043688Y-90493398D01*
X85045521Y-90535943D01*
X85045921Y-90566635D01*
X85046083Y-90673895D01*
X85106937Y-90681306D01*
X85189376Y-90700528D01*
X85258553Y-90735936D01*
X85313505Y-90786570D01*
X85353271Y-90851470D01*
X85376887Y-90929678D01*
X85380504Y-90954082D01*
X85387452Y-91013199D01*
X85501663Y-91016746D01*
X85548870Y-91018810D01*
X85587958Y-91021645D01*
X85614253Y-91024841D01*
X85622910Y-91027355D01*
X85630989Y-91046097D01*
X85635349Y-91076570D01*
X85635495Y-91109587D01*
X85630934Y-91135961D01*
X85628983Y-91140475D01*
X85622138Y-91150463D01*
X85611673Y-91157001D01*
X85593499Y-91160812D01*
X85563528Y-91162620D01*
X85517669Y-91163149D01*
X85500794Y-91163167D01*
X85384750Y-91163167D01*
X85384750Y-91300750D01*
X85495119Y-91300750D01*
X85553231Y-91301881D01*
X85593421Y-91306307D01*
X85618862Y-91315581D01*
X85632724Y-91331253D01*
X85638181Y-91354876D01*
X85638750Y-91370994D01*
X85637483Y-91402779D01*
X85631445Y-91424514D01*
X85617276Y-91438098D01*
X85591615Y-91445427D01*
X85551104Y-91448399D01*
X85500794Y-91448917D01*
X85384750Y-91448917D01*
X85384750Y-91586500D01*
X85500794Y-91586500D01*
X85557104Y-91587241D01*
X85595617Y-91590663D01*
X85619685Y-91598567D01*
X85632658Y-91612752D01*
X85637888Y-91635017D01*
X85638749Y-91660584D01*
X85637370Y-91690823D01*
X85630997Y-91711505D01*
X85616279Y-91724429D01*
X85589865Y-91731396D01*
X85548403Y-91734204D01*
X85500794Y-91734667D01*
X85384750Y-91734667D01*
X85384750Y-91872250D01*
X85500794Y-91872250D01*
X85557067Y-91872965D01*
X85595547Y-91876376D01*
X85619596Y-91884380D01*
X85632571Y-91898874D01*
X85637832Y-91921756D01*
X85638750Y-91950173D01*
X85636437Y-91978594D01*
X85627386Y-91998249D01*
X85608424Y-92010691D01*
X85576378Y-92017470D01*
X85528076Y-92020139D01*
X85495119Y-92020417D01*
X85384750Y-92020417D01*
X85384750Y-92158000D01*
X85500794Y-92158000D01*
X85552031Y-92158293D01*
X85586194Y-92159655D01*
X85607372Y-92162810D01*
X85619653Y-92168482D01*
X85627128Y-92177394D01*
X85628983Y-92180692D01*
X85635660Y-92206524D01*
X85635660Y-92239661D01*
X85629957Y-92271540D01*
X85619528Y-92293598D01*
X85615739Y-92296947D01*
X85599677Y-92300728D01*
X85567718Y-92303745D01*
X85525130Y-92305604D01*
X85494686Y-92306005D01*
X85387664Y-92306167D01*
X85380610Y-92366184D01*
X85361642Y-92448267D01*
X85326188Y-92517465D01*
X85275341Y-92572686D01*
X85210192Y-92612839D01*
X85131833Y-92636832D01*
X85106100Y-92640694D01*
X85046083Y-92647748D01*
X85045921Y-92754770D01*
X85045011Y-92801400D01*
X85042690Y-92840777D01*
X85039353Y-92867633D01*
X85036863Y-92875823D01*
X85019278Y-92887447D01*
X84989377Y-92894628D01*
X84955722Y-92896390D01*
X84926878Y-92891759D01*
X84920608Y-92889067D01*
X84910620Y-92882222D01*
X84904082Y-92871757D01*
X84900271Y-92853583D01*
X84898463Y-92823612D01*
X84897934Y-92777753D01*
X84897916Y-92760878D01*
X84897916Y-92644834D01*
X84760333Y-92644834D01*
X84760171Y-92753313D01*
X84759298Y-92800192D01*
X84757074Y-92839768D01*
X84753873Y-92866845D01*
X84751377Y-92875396D01*
X84732951Y-92887911D01*
X84702232Y-92894853D01*
X84667608Y-92895159D01*
X84641270Y-92889368D01*
X84612166Y-92878191D01*
X84612166Y-92644834D01*
X84474583Y-92644834D01*
X84474583Y-92878191D01*
X84445479Y-92889368D01*
X84414157Y-92895570D01*
X84379580Y-92894227D01*
X84350136Y-92886403D01*
X84335372Y-92875396D01*
X84331728Y-92859560D01*
X84328810Y-92827756D01*
X84326993Y-92785179D01*
X84326578Y-92753313D01*
X84326416Y-92644834D01*
X84188833Y-92644834D01*
X84188833Y-92760878D01*
X84188540Y-92812115D01*
X84187178Y-92846278D01*
X84184023Y-92867456D01*
X84178351Y-92879737D01*
X84169439Y-92887212D01*
X84166141Y-92889067D01*
X84140309Y-92895744D01*
X84107172Y-92895744D01*
X84075293Y-92890041D01*
X84053235Y-92879612D01*
X84049886Y-92875823D01*
X84046129Y-92859797D01*
X84043123Y-92827827D01*
X84041253Y-92785135D01*
X84040828Y-92753313D01*
X84040666Y-92644834D01*
X83903083Y-92644834D01*
X83903083Y-92760878D01*
X83902725Y-92812462D01*
X83901219Y-92846899D01*
X83897919Y-92868205D01*
X83892177Y-92880393D01*
X83883347Y-92887478D01*
X83882612Y-92887878D01*
X83848665Y-92897292D01*
X83810172Y-92896168D01*
X83784020Y-92887402D01*
X83775654Y-92879707D01*
X83770210Y-92865657D01*
X83767099Y-92841289D01*
X83765734Y-92802641D01*
X83765500Y-92762832D01*
X83765500Y-92649049D01*
X83685380Y-92637506D01*
X83604439Y-92616718D01*
X83537334Y-92580015D01*
X83484690Y-92528010D01*
X83447131Y-92461315D01*
X83425659Y-92382896D01*
X83413148Y-92306167D01*
X83310888Y-92306167D01*
X83253959Y-92305228D01*
X83214991Y-92301091D01*
X83190816Y-92291776D01*
X83178263Y-92275302D01*
X83174163Y-92249690D01*
X83174845Y-92221179D01*
X83178125Y-92163292D01*
X83297187Y-92160299D01*
X83416250Y-92157307D01*
X83416250Y-92020417D01*
X83307770Y-92020255D01*
X83260863Y-92019370D01*
X83221231Y-92017113D01*
X83194081Y-92013866D01*
X83185484Y-92011336D01*
X83176920Y-91995502D01*
X83174248Y-91961613D01*
X83174901Y-91940060D01*
X83178125Y-91877542D01*
X83297187Y-91874549D01*
X83416250Y-91871557D01*
X83416250Y-91735360D01*
X83297187Y-91732368D01*
X83178125Y-91729375D01*
X83174901Y-91666857D01*
X83175005Y-91624317D01*
X83180890Y-91600570D01*
X83185484Y-91595581D01*
X83201410Y-91591884D01*
X83233293Y-91588924D01*
X83275925Y-91587082D01*
X83307770Y-91586662D01*
X83416250Y-91586500D01*
X83416250Y-91449610D01*
X83297187Y-91446618D01*
X83178125Y-91443625D01*
X83174901Y-91381107D01*
X83175005Y-91338567D01*
X83180890Y-91314820D01*
X83185484Y-91309831D01*
X83201410Y-91306134D01*
X83233293Y-91303174D01*
X83275925Y-91301332D01*
X83307770Y-91300912D01*
X83416250Y-91300750D01*
X83416250Y-91243958D01*
X83850680Y-91243958D01*
X83851403Y-91318064D01*
X83852341Y-91391802D01*
X83853510Y-91479158D01*
X83854735Y-91548194D01*
X83856243Y-91601753D01*
X83858264Y-91642681D01*
X83861026Y-91673824D01*
X83864760Y-91698026D01*
X83869694Y-91718132D01*
X83876056Y-91736987D01*
X83881208Y-91750274D01*
X83917846Y-91817501D01*
X83969954Y-91879460D01*
X84031850Y-91930094D01*
X84070428Y-91952091D01*
X84110228Y-91967549D01*
X84161773Y-91982682D01*
X84215772Y-91994844D01*
X84228520Y-91997102D01*
X84326416Y-92013334D01*
X84326416Y-92127118D01*
X84327307Y-92183525D01*
X84330131Y-92220869D01*
X84335115Y-92241188D01*
X84339645Y-92246241D01*
X84362307Y-92250539D01*
X84395894Y-92252233D01*
X84430319Y-92251273D01*
X84455495Y-92247609D01*
X84457842Y-92246826D01*
X84465452Y-92240471D01*
X84470416Y-92225956D01*
X84473242Y-92199632D01*
X84474437Y-92157848D01*
X84474583Y-92126404D01*
X84474583Y-92012407D01*
X84553067Y-92000734D01*
X84657136Y-91976748D01*
X84746215Y-91938040D01*
X84820137Y-91884732D01*
X84878732Y-91816942D01*
X84920895Y-91737148D01*
X84928172Y-91717992D01*
X84933890Y-91699114D01*
X84938274Y-91677650D01*
X84941552Y-91650738D01*
X84943951Y-91615513D01*
X84945697Y-91569114D01*
X84947018Y-91508677D01*
X84948139Y-91431338D01*
X84948685Y-91386433D01*
X84949729Y-91297766D01*
X84950222Y-91228001D01*
X84949701Y-91174873D01*
X84947701Y-91136117D01*
X84943758Y-91109470D01*
X84937406Y-91092665D01*
X84928181Y-91083439D01*
X84915619Y-91079527D01*
X84899256Y-91078664D01*
X84885553Y-91078662D01*
X84862153Y-91078534D01*
X84844428Y-91080087D01*
X84831588Y-91085893D01*
X84822846Y-91098525D01*
X84817411Y-91120556D01*
X84814494Y-91154559D01*
X84813308Y-91203106D01*
X84813062Y-91268770D01*
X84813040Y-91315112D01*
X84812266Y-91416875D01*
X84809940Y-91500228D01*
X84805742Y-91567892D01*
X84799353Y-91622587D01*
X84790452Y-91667035D01*
X84778721Y-91703956D01*
X84763838Y-91736071D01*
X84763477Y-91736736D01*
X84722560Y-91791129D01*
X84666877Y-91835428D01*
X84601595Y-91866659D01*
X84531883Y-91881847D01*
X84509704Y-91882834D01*
X84474583Y-91882834D01*
X84474583Y-91487091D01*
X84474642Y-91383192D01*
X84474596Y-91298504D01*
X84474108Y-91231073D01*
X84472841Y-91178944D01*
X84470459Y-91140164D01*
X84466626Y-91112779D01*
X84461005Y-91094833D01*
X84453259Y-91084373D01*
X84443053Y-91079445D01*
X84430049Y-91078094D01*
X84413911Y-91078366D01*
X84404230Y-91078500D01*
X84372689Y-91081621D01*
X84347454Y-91089160D01*
X84346887Y-91089456D01*
X84341584Y-91093077D01*
X84337285Y-91099066D01*
X84333884Y-91109488D01*
X84331277Y-91126407D01*
X84329359Y-91151887D01*
X84328024Y-91187993D01*
X84327167Y-91236790D01*
X84326684Y-91300343D01*
X84326469Y-91380715D01*
X84326416Y-91479971D01*
X84326416Y-91882834D01*
X84293649Y-91882834D01*
X84224625Y-91873493D01*
X84156913Y-91847590D01*
X84096929Y-91808302D01*
X84055332Y-91764779D01*
X84038817Y-91740141D01*
X84025776Y-91714206D01*
X84015813Y-91684183D01*
X84008533Y-91647284D01*
X84003541Y-91600720D01*
X84000441Y-91541702D01*
X83998839Y-91467441D01*
X83998338Y-91375148D01*
X83998333Y-91362702D01*
X83998325Y-91277813D01*
X83997854Y-91211740D01*
X83996246Y-91162131D01*
X83992829Y-91126636D01*
X83986929Y-91102905D01*
X83977873Y-91088587D01*
X83964988Y-91081332D01*
X83947602Y-91078789D01*
X83925042Y-91078607D01*
X83917008Y-91078662D01*
X83897381Y-91078703D01*
X83881919Y-91080148D01*
X83870160Y-91085240D01*
X83861640Y-91096223D01*
X83855896Y-91115343D01*
X83852463Y-91144842D01*
X83850879Y-91186966D01*
X83850680Y-91243958D01*
X83416250Y-91243958D01*
X83416250Y-91163860D01*
X83297187Y-91160868D01*
G36*
X87785144Y-90758562D02*
G01*
X87795022Y-90763425D01*
X87803922Y-90772730D01*
X87812997Y-90789301D01*
X87823399Y-90815964D01*
X87836281Y-90855541D01*
X87852794Y-90910858D01*
X87866237Y-90957347D01*
X87883790Y-91018279D01*
X87899572Y-91072761D01*
X87912565Y-91117298D01*
X87921749Y-91148392D01*
X87926062Y-91162431D01*
X87930601Y-91158437D01*
X87939506Y-91137169D01*
X87951642Y-91101792D01*
X87965872Y-91055470D01*
X87971656Y-91035431D01*
X87994770Y-90954164D01*
X88013024Y-90890936D01*
X88027321Y-90843421D01*
X88038565Y-90809290D01*
X88047660Y-90786216D01*
X88055510Y-90771873D01*
X88063018Y-90763932D01*
X88071089Y-90760066D01*
X88079308Y-90758200D01*
X88116622Y-90756340D01*
X88139854Y-90766822D01*
X88146876Y-90786047D01*
X88143792Y-90802151D01*
X88135193Y-90835375D01*
X88121949Y-90882660D01*
X88104934Y-90940944D01*
X88085018Y-91007168D01*
X88069593Y-91057334D01*
X87992434Y-91306042D01*
X87932778Y-91309197D01*
X87896873Y-91309806D01*
X87876260Y-91305966D01*
X87865302Y-91296383D01*
X87863600Y-91293322D01*
X87857501Y-91276915D01*
X87846915Y-91244117D01*
X87833072Y-91198918D01*
X87817207Y-91145305D01*
X87807860Y-91112958D01*
X87791832Y-91058913D01*
X87777332Y-91013559D01*
X87765474Y-90980112D01*
X87757375Y-90961791D01*
X87754669Y-90959500D01*
X87749631Y-90972072D01*
X87740516Y-91001285D01*
X87728460Y-91043266D01*
X87714596Y-91094140D01*
X87708948Y-91115542D01*
X87691252Y-91183286D01*
X87677631Y-91233314D01*
X87666489Y-91268303D01*
X87656232Y-91290928D01*
X87645262Y-91303868D01*
X87631984Y-91309797D01*
X87614803Y-91311393D01*
X87592226Y-91311334D01*
X87559459Y-91309998D01*
X87536491Y-91306559D01*
X87529858Y-91303396D01*
X87524236Y-91288849D01*
X87513853Y-91257600D01*
X87499740Y-91213089D01*
X87482924Y-91158756D01*
X87464436Y-91098042D01*
X87445305Y-91034386D01*
X87426559Y-90971230D01*
X87409229Y-90912012D01*
X87394344Y-90860175D01*
X87382932Y-90819158D01*
X87376024Y-90792401D01*
X87374416Y-90783849D01*
X87383593Y-90765155D01*
X87408219Y-90755499D01*
X87443943Y-90756449D01*
X87448301Y-90757256D01*
X87458336Y-90760221D01*
X87466937Y-90766482D01*
X87475240Y-90778765D01*
X87484382Y-90799797D01*
X87495499Y-90832304D01*
X87509728Y-90879013D01*
X87528203Y-90942650D01*
X87534040Y-90962993D01*
X87551892Y-91024339D01*
X87568048Y-91078082D01*
X87581540Y-91121140D01*
X87591399Y-91150434D01*
X87596656Y-91162884D01*
X87596984Y-91163108D01*
X87601309Y-91153405D01*
X87610038Y-91126342D01*
X87622250Y-91085044D01*
X87637021Y-91032638D01*
X87653432Y-90972248D01*
X87655056Y-90966159D01*
X87673650Y-90897172D01*
X87688171Y-90845932D01*
X87699672Y-90809646D01*
X87709207Y-90785525D01*
X87717829Y-90770779D01*
X87726590Y-90762615D01*
X87733070Y-90759437D01*
X87764291Y-90755151D01*
X87785144Y-90758562D01*
G37*
X87785144Y-90758562D02*
X87795022Y-90763425D01*
X87803922Y-90772730D01*
X87812997Y-90789301D01*
X87823399Y-90815964D01*
X87836281Y-90855541D01*
X87852794Y-90910858D01*
X87866237Y-90957347D01*
X87883790Y-91018279D01*
X87899572Y-91072761D01*
X87912565Y-91117298D01*
X87921749Y-91148392D01*
X87926062Y-91162431D01*
X87930601Y-91158437D01*
X87939506Y-91137169D01*
X87951642Y-91101792D01*
X87965872Y-91055470D01*
X87971656Y-91035431D01*
X87994770Y-90954164D01*
X88013024Y-90890936D01*
X88027321Y-90843421D01*
X88038565Y-90809290D01*
X88047660Y-90786216D01*
X88055510Y-90771873D01*
X88063018Y-90763932D01*
X88071089Y-90760066D01*
X88079308Y-90758200D01*
X88116622Y-90756340D01*
X88139854Y-90766822D01*
X88146876Y-90786047D01*
X88143792Y-90802151D01*
X88135193Y-90835375D01*
X88121949Y-90882660D01*
X88104934Y-90940944D01*
X88085018Y-91007168D01*
X88069593Y-91057334D01*
X87992434Y-91306042D01*
X87932778Y-91309197D01*
X87896873Y-91309806D01*
X87876260Y-91305966D01*
X87865302Y-91296383D01*
X87863600Y-91293322D01*
X87857501Y-91276915D01*
X87846915Y-91244117D01*
X87833072Y-91198918D01*
X87817207Y-91145305D01*
X87807860Y-91112958D01*
X87791832Y-91058913D01*
X87777332Y-91013559D01*
X87765474Y-90980112D01*
X87757375Y-90961791D01*
X87754669Y-90959500D01*
X87749631Y-90972072D01*
X87740516Y-91001285D01*
X87728460Y-91043266D01*
X87714596Y-91094140D01*
X87708948Y-91115542D01*
X87691252Y-91183286D01*
X87677631Y-91233314D01*
X87666489Y-91268303D01*
X87656232Y-91290928D01*
X87645262Y-91303868D01*
X87631984Y-91309797D01*
X87614803Y-91311393D01*
X87592226Y-91311334D01*
X87559459Y-91309998D01*
X87536491Y-91306559D01*
X87529858Y-91303396D01*
X87524236Y-91288849D01*
X87513853Y-91257600D01*
X87499740Y-91213089D01*
X87482924Y-91158756D01*
X87464436Y-91098042D01*
X87445305Y-91034386D01*
X87426559Y-90971230D01*
X87409229Y-90912012D01*
X87394344Y-90860175D01*
X87382932Y-90819158D01*
X87376024Y-90792401D01*
X87374416Y-90783849D01*
X87383593Y-90765155D01*
X87408219Y-90755499D01*
X87443943Y-90756449D01*
X87448301Y-90757256D01*
X87458336Y-90760221D01*
X87466937Y-90766482D01*
X87475240Y-90778765D01*
X87484382Y-90799797D01*
X87495499Y-90832304D01*
X87509728Y-90879013D01*
X87528203Y-90942650D01*
X87534040Y-90962993D01*
X87551892Y-91024339D01*
X87568048Y-91078082D01*
X87581540Y-91121140D01*
X87591399Y-91150434D01*
X87596656Y-91162884D01*
X87596984Y-91163108D01*
X87601309Y-91153405D01*
X87610038Y-91126342D01*
X87622250Y-91085044D01*
X87637021Y-91032638D01*
X87653432Y-90972248D01*
X87655056Y-90966159D01*
X87673650Y-90897172D01*
X87688171Y-90845932D01*
X87699672Y-90809646D01*
X87709207Y-90785525D01*
X87717829Y-90770779D01*
X87726590Y-90762615D01*
X87733070Y-90759437D01*
X87764291Y-90755151D01*
X87785144Y-90758562D01*
G36*
X94633496Y-91936957D02*
G01*
X94652616Y-91944692D01*
X94662349Y-91954796D01*
X94665346Y-91973445D01*
X94664262Y-92006816D01*
X94664179Y-92008395D01*
X94661771Y-92042123D01*
X94657435Y-92059518D01*
X94648642Y-92065404D01*
X94634583Y-92064822D01*
X94578331Y-92059731D01*
X94536768Y-92062104D01*
X94503998Y-92074466D01*
X94474127Y-92099345D01*
X94441260Y-92139269D01*
X94432065Y-92151651D01*
X94401750Y-92192926D01*
X94401750Y-92645357D01*
X94374602Y-92655679D01*
X94333857Y-92664800D01*
X94294387Y-92657537D01*
X94287836Y-92655034D01*
X94263880Y-92645410D01*
X94269458Y-91941042D01*
X94315219Y-91937749D01*
X94355435Y-91939332D01*
X94379518Y-91952619D01*
X94390239Y-91979800D01*
X94391451Y-91997900D01*
X94391736Y-92036292D01*
X94420555Y-92002717D01*
X94471103Y-91957001D01*
X94526428Y-91931454D01*
X94585458Y-91926409D01*
X94633496Y-91936957D01*
G37*
X94633496Y-91936957D02*
X94652616Y-91944692D01*
X94662349Y-91954796D01*
X94665346Y-91973445D01*
X94664262Y-92006816D01*
X94664179Y-92008395D01*
X94661771Y-92042123D01*
X94657435Y-92059518D01*
X94648642Y-92065404D01*
X94634583Y-92064822D01*
X94578331Y-92059731D01*
X94536768Y-92062104D01*
X94503998Y-92074466D01*
X94474127Y-92099345D01*
X94441260Y-92139269D01*
X94432065Y-92151651D01*
X94401750Y-92192926D01*
X94401750Y-92645357D01*
X94374602Y-92655679D01*
X94333857Y-92664800D01*
X94294387Y-92657537D01*
X94287836Y-92655034D01*
X94263880Y-92645410D01*
X94269458Y-91941042D01*
X94315219Y-91937749D01*
X94355435Y-91939332D01*
X94379518Y-91952619D01*
X94390239Y-91979800D01*
X94391451Y-91997900D01*
X94391736Y-92036292D01*
X94420555Y-92002717D01*
X94471103Y-91957001D01*
X94526428Y-91931454D01*
X94585458Y-91926409D01*
X94633496Y-91936957D01*
G36*
X93506257Y-92383937D02*
G01*
X93512285Y-92370577D01*
X93541598Y-92326357D01*
X93580614Y-92292123D01*
X93631844Y-92266742D01*
X93697800Y-92249081D01*
X93780993Y-92238006D01*
X93811318Y-92235691D01*
X93914916Y-92228902D01*
X93914760Y-92180222D01*
X93907601Y-92123156D01*
X93886121Y-92081416D01*
X93849689Y-92054403D01*
X93797675Y-92041517D01*
X93767399Y-92040173D01*
X93719358Y-92043515D01*
X93675233Y-92054822D01*
X93632308Y-92072786D01*
X93588573Y-92092322D01*
X93559799Y-92102019D01*
X93542335Y-92102119D01*
X93532530Y-92092864D01*
X93527949Y-92079702D01*
X93524860Y-92038796D01*
X93538790Y-92005085D01*
X93570774Y-91977575D01*
X93621849Y-91955269D01*
X93671405Y-91941785D01*
X93765517Y-91927332D01*
X93848155Y-91929147D01*
X93918596Y-91947021D01*
X93976120Y-91980749D01*
X94020007Y-92030121D01*
X94028590Y-92044568D01*
X94034308Y-92057285D01*
X94038832Y-92073856D01*
X94042343Y-92096900D01*
X94045023Y-92129033D01*
X94047055Y-92172874D01*
X94048620Y-92231040D01*
X94049899Y-92306151D01*
X94050621Y-92361699D01*
X94054035Y-92644774D01*
X94024970Y-92655824D01*
X93992284Y-92661914D01*
X93965994Y-92660305D01*
X93945543Y-92652757D01*
X93937329Y-92637497D01*
X93936083Y-92616593D01*
X93936083Y-92579452D01*
X93902284Y-92607892D01*
X93841129Y-92646061D01*
X93770383Y-92665582D01*
X93689681Y-92666547D01*
X93676382Y-92665058D01*
X93611877Y-92649857D01*
X93561321Y-92623151D01*
X93542232Y-92605842D01*
X93512349Y-92558401D01*
X93495793Y-92500892D01*
X93494391Y-92464475D01*
X93629260Y-92464475D01*
X93643512Y-92504749D01*
X93661730Y-92527603D01*
X93687409Y-92549023D01*
X93713962Y-92558390D01*
X93743751Y-92560127D01*
X93798002Y-92551994D01*
X93830250Y-92537849D01*
X93871006Y-92511493D01*
X93896198Y-92488355D01*
X93909457Y-92462733D01*
X93914414Y-92428924D01*
X93914916Y-92404864D01*
X93914916Y-92337917D01*
X93828299Y-92337917D01*
X93773931Y-92339782D01*
X93733485Y-92346137D01*
X93699987Y-92358119D01*
X93697635Y-92359240D01*
X93657118Y-92387985D01*
X93634061Y-92424308D01*
X93629260Y-92464475D01*
X93494391Y-92464475D01*
X93493462Y-92440381D01*
X93506257Y-92383937D01*
G37*
X93506257Y-92383937D02*
X93512285Y-92370577D01*
X93541598Y-92326357D01*
X93580614Y-92292123D01*
X93631844Y-92266742D01*
X93697800Y-92249081D01*
X93780993Y-92238006D01*
X93811318Y-92235691D01*
X93914916Y-92228902D01*
X93914760Y-92180222D01*
X93907601Y-92123156D01*
X93886121Y-92081416D01*
X93849689Y-92054403D01*
X93797675Y-92041517D01*
X93767399Y-92040173D01*
X93719358Y-92043515D01*
X93675233Y-92054822D01*
X93632308Y-92072786D01*
X93588573Y-92092322D01*
X93559799Y-92102019D01*
X93542335Y-92102119D01*
X93532530Y-92092864D01*
X93527949Y-92079702D01*
X93524860Y-92038796D01*
X93538790Y-92005085D01*
X93570774Y-91977575D01*
X93621849Y-91955269D01*
X93671405Y-91941785D01*
X93765517Y-91927332D01*
X93848155Y-91929147D01*
X93918596Y-91947021D01*
X93976120Y-91980749D01*
X94020007Y-92030121D01*
X94028590Y-92044568D01*
X94034308Y-92057285D01*
X94038832Y-92073856D01*
X94042343Y-92096900D01*
X94045023Y-92129033D01*
X94047055Y-92172874D01*
X94048620Y-92231040D01*
X94049899Y-92306151D01*
X94050621Y-92361699D01*
X94054035Y-92644774D01*
X94024970Y-92655824D01*
X93992284Y-92661914D01*
X93965994Y-92660305D01*
X93945543Y-92652757D01*
X93937329Y-92637497D01*
X93936083Y-92616593D01*
X93936083Y-92579452D01*
X93902284Y-92607892D01*
X93841129Y-92646061D01*
X93770383Y-92665582D01*
X93689681Y-92666547D01*
X93676382Y-92665058D01*
X93611877Y-92649857D01*
X93561321Y-92623151D01*
X93542232Y-92605842D01*
X93512349Y-92558401D01*
X93495793Y-92500892D01*
X93494391Y-92464475D01*
X93629260Y-92464475D01*
X93643512Y-92504749D01*
X93661730Y-92527603D01*
X93687409Y-92549023D01*
X93713962Y-92558390D01*
X93743751Y-92560127D01*
X93798002Y-92551994D01*
X93830250Y-92537849D01*
X93871006Y-92511493D01*
X93896198Y-92488355D01*
X93909457Y-92462733D01*
X93914414Y-92428924D01*
X93914916Y-92404864D01*
X93914916Y-92337917D01*
X93828299Y-92337917D01*
X93773931Y-92339782D01*
X93733485Y-92346137D01*
X93699987Y-92358119D01*
X93697635Y-92359240D01*
X93657118Y-92387985D01*
X93634061Y-92424308D01*
X93629260Y-92464475D01*
X93494391Y-92464475D01*
X93493462Y-92440381D01*
X93506257Y-92383937D01*
G36*
X94760336Y-92135999D02*
G01*
X94794775Y-92061710D01*
X94842539Y-92003794D01*
X94903788Y-91962083D01*
X94978683Y-91936415D01*
X95029150Y-91928745D01*
X95108600Y-91930184D01*
X95180940Y-91948782D01*
X95243544Y-91982951D01*
X95293788Y-92031105D01*
X95329047Y-92091658D01*
X95337201Y-92114942D01*
X95346708Y-92157505D01*
X95352283Y-92204233D01*
X95353801Y-92249300D01*
X95351134Y-92286882D01*
X95344154Y-92311153D01*
X95341550Y-92314634D01*
X95329525Y-92319256D01*
X95302849Y-92322755D01*
X95259991Y-92325210D01*
X95199416Y-92326702D01*
X95119593Y-92327310D01*
X95097203Y-92327334D01*
X94865556Y-92327334D01*
X94872682Y-92372313D01*
X94890574Y-92437422D01*
X94920692Y-92491244D01*
X94959088Y-92528417D01*
X94981255Y-92541678D01*
X95003688Y-92549586D01*
X95032788Y-92553422D01*
X95074953Y-92554470D01*
X95088891Y-92554444D01*
X95153348Y-92551432D01*
X95206216Y-92542166D01*
X95242254Y-92530809D01*
X95281037Y-92518072D01*
X95305353Y-92514585D01*
X95318983Y-92519307D01*
X95330629Y-92540935D01*
X95331906Y-92571854D01*
X95322620Y-92602274D01*
X95301520Y-92622244D01*
X95263514Y-92639554D01*
X95212779Y-92653387D01*
X95153495Y-92662925D01*
X95089842Y-92667351D01*
X95025998Y-92665847D01*
X95006837Y-92664050D01*
X94926859Y-92646918D01*
X94861289Y-92614804D01*
X94809613Y-92567175D01*
X94771314Y-92503492D01*
X94745875Y-92423220D01*
X94739127Y-92385959D01*
X94732685Y-92316772D01*
X94735936Y-92250362D01*
X94738362Y-92232084D01*
X94867945Y-92232084D01*
X95229605Y-92232084D01*
X95222259Y-92192396D01*
X95203025Y-92127825D01*
X95172015Y-92080511D01*
X95128467Y-92049637D01*
X95075488Y-92034883D01*
X95019336Y-92037146D01*
X94967735Y-92057875D01*
X94923977Y-92094408D01*
X94891352Y-92144082D01*
X94874254Y-92197688D01*
X94867945Y-92232084D01*
X94738362Y-92232084D01*
X94739061Y-92226823D01*
X94760336Y-92135999D01*
G37*
X94760336Y-92135999D02*
X94794775Y-92061710D01*
X94842539Y-92003794D01*
X94903788Y-91962083D01*
X94978683Y-91936415D01*
X95029150Y-91928745D01*
X95108600Y-91930184D01*
X95180940Y-91948782D01*
X95243544Y-91982951D01*
X95293788Y-92031105D01*
X95329047Y-92091658D01*
X95337201Y-92114942D01*
X95346708Y-92157505D01*
X95352283Y-92204233D01*
X95353801Y-92249300D01*
X95351134Y-92286882D01*
X95344154Y-92311153D01*
X95341550Y-92314634D01*
X95329525Y-92319256D01*
X95302849Y-92322755D01*
X95259991Y-92325210D01*
X95199416Y-92326702D01*
X95119593Y-92327310D01*
X95097203Y-92327334D01*
X94865556Y-92327334D01*
X94872682Y-92372313D01*
X94890574Y-92437422D01*
X94920692Y-92491244D01*
X94959088Y-92528417D01*
X94981255Y-92541678D01*
X95003688Y-92549586D01*
X95032788Y-92553422D01*
X95074953Y-92554470D01*
X95088891Y-92554444D01*
X95153348Y-92551432D01*
X95206216Y-92542166D01*
X95242254Y-92530809D01*
X95281037Y-92518072D01*
X95305353Y-92514585D01*
X95318983Y-92519307D01*
X95330629Y-92540935D01*
X95331906Y-92571854D01*
X95322620Y-92602274D01*
X95301520Y-92622244D01*
X95263514Y-92639554D01*
X95212779Y-92653387D01*
X95153495Y-92662925D01*
X95089842Y-92667351D01*
X95025998Y-92665847D01*
X95006837Y-92664050D01*
X94926859Y-92646918D01*
X94861289Y-92614804D01*
X94809613Y-92567175D01*
X94771314Y-92503492D01*
X94745875Y-92423220D01*
X94739127Y-92385959D01*
X94732685Y-92316772D01*
X94735936Y-92250362D01*
X94738362Y-92232084D01*
X94867945Y-92232084D01*
X95229605Y-92232084D01*
X95222259Y-92192396D01*
X95203025Y-92127825D01*
X95172015Y-92080511D01*
X95128467Y-92049637D01*
X95075488Y-92034883D01*
X95019336Y-92037146D01*
X94967735Y-92057875D01*
X94923977Y-92094408D01*
X94891352Y-92144082D01*
X94874254Y-92197688D01*
X94867945Y-92232084D01*
X94738362Y-92232084D01*
X94739061Y-92226823D01*
X94760336Y-92135999D01*
G36*
X92100187Y-91937540D02*
G01*
X92155682Y-91959096D01*
X92199893Y-91996571D01*
X92207753Y-92006283D01*
X92224363Y-92031674D01*
X92237472Y-92061154D01*
X92247456Y-92097387D01*
X92254688Y-92143039D01*
X92259545Y-92200775D01*
X92262401Y-92273259D01*
X92263630Y-92363157D01*
X92263751Y-92404325D01*
X92263916Y-92645357D01*
X92234812Y-92656670D01*
X92195546Y-92662608D01*
X92168666Y-92659054D01*
X92131625Y-92650125D01*
X92126333Y-92396125D01*
X92124518Y-92315281D01*
X92122687Y-92252722D01*
X92120571Y-92205571D01*
X92117903Y-92170948D01*
X92114418Y-92145975D01*
X92109847Y-92127772D01*
X92103923Y-92113460D01*
X92099341Y-92105084D01*
X92067479Y-92066590D01*
X92029168Y-92047962D01*
X91985189Y-92049173D01*
X91936321Y-92070197D01*
X91883347Y-92111005D01*
X91881581Y-92112648D01*
X91830000Y-92160897D01*
X91830000Y-92645357D01*
X91800895Y-92656670D01*
X91761629Y-92662608D01*
X91734750Y-92659054D01*
X91697708Y-92650125D01*
X91692416Y-92396125D01*
X91690272Y-92307285D01*
X91687583Y-92237049D01*
X91683781Y-92182854D01*
X91678293Y-92142138D01*
X91670550Y-92112338D01*
X91659982Y-92090892D01*
X91646018Y-92075236D01*
X91628087Y-92062810D01*
X91616868Y-92056701D01*
X91579082Y-92044788D01*
X91540530Y-92049334D01*
X91498298Y-92071233D01*
X91454704Y-92106548D01*
X91396083Y-92160124D01*
X91396083Y-92645357D01*
X91368936Y-92655679D01*
X91341911Y-92663175D01*
X91313216Y-92663378D01*
X91282172Y-92658513D01*
X91258220Y-92653908D01*
X91261005Y-92297475D01*
X91263791Y-91941042D01*
X91309552Y-91937749D01*
X91349817Y-91939349D01*
X91373888Y-91952635D01*
X91384444Y-91979710D01*
X91385500Y-91997330D01*
X91385500Y-92035152D01*
X91419895Y-92002511D01*
X91470157Y-91962658D01*
X91521811Y-91939949D01*
X91582494Y-91931304D01*
X91597166Y-91930986D01*
X91667360Y-91938059D01*
X91723362Y-91960394D01*
X91766046Y-91998390D01*
X91776032Y-92012354D01*
X91801564Y-92051808D01*
X91846321Y-92010552D01*
X91893430Y-91971312D01*
X91935935Y-91946924D01*
X91980682Y-91934436D01*
X92031083Y-91930911D01*
X92100187Y-91937540D01*
G37*
X92100187Y-91937540D02*
X92155682Y-91959096D01*
X92199893Y-91996571D01*
X92207753Y-92006283D01*
X92224363Y-92031674D01*
X92237472Y-92061154D01*
X92247456Y-92097387D01*
X92254688Y-92143039D01*
X92259545Y-92200775D01*
X92262401Y-92273259D01*
X92263630Y-92363157D01*
X92263751Y-92404325D01*
X92263916Y-92645357D01*
X92234812Y-92656670D01*
X92195546Y-92662608D01*
X92168666Y-92659054D01*
X92131625Y-92650125D01*
X92126333Y-92396125D01*
X92124518Y-92315281D01*
X92122687Y-92252722D01*
X92120571Y-92205571D01*
X92117903Y-92170948D01*
X92114418Y-92145975D01*
X92109847Y-92127772D01*
X92103923Y-92113460D01*
X92099341Y-92105084D01*
X92067479Y-92066590D01*
X92029168Y-92047962D01*
X91985189Y-92049173D01*
X91936321Y-92070197D01*
X91883347Y-92111005D01*
X91881581Y-92112648D01*
X91830000Y-92160897D01*
X91830000Y-92645357D01*
X91800895Y-92656670D01*
X91761629Y-92662608D01*
X91734750Y-92659054D01*
X91697708Y-92650125D01*
X91692416Y-92396125D01*
X91690272Y-92307285D01*
X91687583Y-92237049D01*
X91683781Y-92182854D01*
X91678293Y-92142138D01*
X91670550Y-92112338D01*
X91659982Y-92090892D01*
X91646018Y-92075236D01*
X91628087Y-92062810D01*
X91616868Y-92056701D01*
X91579082Y-92044788D01*
X91540530Y-92049334D01*
X91498298Y-92071233D01*
X91454704Y-92106548D01*
X91396083Y-92160124D01*
X91396083Y-92645357D01*
X91368936Y-92655679D01*
X91341911Y-92663175D01*
X91313216Y-92663378D01*
X91282172Y-92658513D01*
X91258220Y-92653908D01*
X91261005Y-92297475D01*
X91263791Y-91941042D01*
X91309552Y-91937749D01*
X91349817Y-91939349D01*
X91373888Y-91952635D01*
X91384444Y-91979710D01*
X91385500Y-91997330D01*
X91385500Y-92035152D01*
X91419895Y-92002511D01*
X91470157Y-91962658D01*
X91521811Y-91939949D01*
X91582494Y-91931304D01*
X91597166Y-91930986D01*
X91667360Y-91938059D01*
X91723362Y-91960394D01*
X91766046Y-91998390D01*
X91776032Y-92012354D01*
X91801564Y-92051808D01*
X91846321Y-92010552D01*
X91893430Y-91971312D01*
X91935935Y-91946924D01*
X91980682Y-91934436D01*
X92031083Y-91930911D01*
X92100187Y-91937540D01*
G36*
X126783592Y-89993463D02*
G01*
X126856893Y-90010206D01*
X126922224Y-90037667D01*
X126960176Y-90061412D01*
X126985376Y-90082074D01*
X127010180Y-90106500D01*
X127032780Y-90132329D01*
X127051370Y-90157200D01*
X127064143Y-90178753D01*
X127069292Y-90194626D01*
X127067215Y-90201255D01*
X127060177Y-90205293D01*
X127042624Y-90214818D01*
X127016893Y-90228577D01*
X126985324Y-90245316D01*
X126970671Y-90253046D01*
X126933990Y-90272194D01*
X126907981Y-90285139D01*
X126890573Y-90292624D01*
X126879694Y-90295391D01*
X126873272Y-90294184D01*
X126869235Y-90289744D01*
X126869071Y-90289472D01*
X126839958Y-90247057D01*
X126809906Y-90217626D01*
X126776700Y-90199701D01*
X126738123Y-90191809D01*
X126721396Y-90191133D01*
X126676940Y-90196117D01*
X126640203Y-90212132D01*
X126609761Y-90240167D01*
X126584191Y-90281209D01*
X126580504Y-90288945D01*
X126573295Y-90306311D01*
X126568485Y-90323593D01*
X126565608Y-90344329D01*
X126564199Y-90372058D01*
X126563790Y-90410318D01*
X126563787Y-90415945D01*
X126564104Y-90455762D01*
X126565367Y-90484611D01*
X126568041Y-90506032D01*
X126572591Y-90523563D01*
X126579483Y-90540743D01*
X126580487Y-90542945D01*
X126603150Y-90581772D01*
X126631234Y-90613831D01*
X126661544Y-90635607D01*
X126666968Y-90638153D01*
X126701134Y-90646770D01*
X126741122Y-90647813D01*
X126780553Y-90641571D01*
X126806790Y-90631845D01*
X126830400Y-90614999D01*
X126855011Y-90589998D01*
X126876061Y-90562094D01*
X126888610Y-90537667D01*
X126895057Y-90535789D01*
X126911491Y-90540440D01*
X126938784Y-90551933D01*
X126971210Y-90567334D01*
X127011206Y-90586940D01*
X127039739Y-90601490D01*
X127058279Y-90612508D01*
X127068297Y-90621523D01*
X127071265Y-90630062D01*
X127068652Y-90639653D01*
X127061931Y-90651822D01*
X127058373Y-90657836D01*
X127037731Y-90686157D01*
X127008085Y-90718060D01*
X126973180Y-90750185D01*
X126936761Y-90779176D01*
X126902572Y-90801673D01*
X126891335Y-90807632D01*
X126818454Y-90835133D01*
X126741348Y-90849253D01*
X126661886Y-90849783D01*
X126598445Y-90840405D01*
X126538047Y-90820686D01*
X126478763Y-90789174D01*
X126424171Y-90748378D01*
X126377850Y-90700808D01*
X126355443Y-90669945D01*
X126342975Y-90646808D01*
X126329244Y-90615898D01*
X126316966Y-90583398D01*
X126315570Y-90579231D01*
X126307471Y-90552888D01*
X126301994Y-90529341D01*
X126298632Y-90504511D01*
X126296877Y-90474319D01*
X126296222Y-90434688D01*
X126296172Y-90423202D01*
X126298955Y-90347685D01*
X126308359Y-90283158D01*
X126325241Y-90227291D01*
X126350460Y-90177754D01*
X126384872Y-90132216D01*
X126414409Y-90101923D01*
X126473459Y-90054123D01*
X126535514Y-90019816D01*
X126602539Y-89998226D01*
X126676505Y-89988579D01*
X126703868Y-89987881D01*
X126783592Y-89993463D01*
G37*
X126783592Y-89993463D02*
X126856893Y-90010206D01*
X126922224Y-90037667D01*
X126960176Y-90061412D01*
X126985376Y-90082074D01*
X127010180Y-90106500D01*
X127032780Y-90132329D01*
X127051370Y-90157200D01*
X127064143Y-90178753D01*
X127069292Y-90194626D01*
X127067215Y-90201255D01*
X127060177Y-90205293D01*
X127042624Y-90214818D01*
X127016893Y-90228577D01*
X126985324Y-90245316D01*
X126970671Y-90253046D01*
X126933990Y-90272194D01*
X126907981Y-90285139D01*
X126890573Y-90292624D01*
X126879694Y-90295391D01*
X126873272Y-90294184D01*
X126869235Y-90289744D01*
X126869071Y-90289472D01*
X126839958Y-90247057D01*
X126809906Y-90217626D01*
X126776700Y-90199701D01*
X126738123Y-90191809D01*
X126721396Y-90191133D01*
X126676940Y-90196117D01*
X126640203Y-90212132D01*
X126609761Y-90240167D01*
X126584191Y-90281209D01*
X126580504Y-90288945D01*
X126573295Y-90306311D01*
X126568485Y-90323593D01*
X126565608Y-90344329D01*
X126564199Y-90372058D01*
X126563790Y-90410318D01*
X126563787Y-90415945D01*
X126564104Y-90455762D01*
X126565367Y-90484611D01*
X126568041Y-90506032D01*
X126572591Y-90523563D01*
X126579483Y-90540743D01*
X126580487Y-90542945D01*
X126603150Y-90581772D01*
X126631234Y-90613831D01*
X126661544Y-90635607D01*
X126666968Y-90638153D01*
X126701134Y-90646770D01*
X126741122Y-90647813D01*
X126780553Y-90641571D01*
X126806790Y-90631845D01*
X126830400Y-90614999D01*
X126855011Y-90589998D01*
X126876061Y-90562094D01*
X126888610Y-90537667D01*
X126895057Y-90535789D01*
X126911491Y-90540440D01*
X126938784Y-90551933D01*
X126971210Y-90567334D01*
X127011206Y-90586940D01*
X127039739Y-90601490D01*
X127058279Y-90612508D01*
X127068297Y-90621523D01*
X127071265Y-90630062D01*
X127068652Y-90639653D01*
X127061931Y-90651822D01*
X127058373Y-90657836D01*
X127037731Y-90686157D01*
X127008085Y-90718060D01*
X126973180Y-90750185D01*
X126936761Y-90779176D01*
X126902572Y-90801673D01*
X126891335Y-90807632D01*
X126818454Y-90835133D01*
X126741348Y-90849253D01*
X126661886Y-90849783D01*
X126598445Y-90840405D01*
X126538047Y-90820686D01*
X126478763Y-90789174D01*
X126424171Y-90748378D01*
X126377850Y-90700808D01*
X126355443Y-90669945D01*
X126342975Y-90646808D01*
X126329244Y-90615898D01*
X126316966Y-90583398D01*
X126315570Y-90579231D01*
X126307471Y-90552888D01*
X126301994Y-90529341D01*
X126298632Y-90504511D01*
X126296877Y-90474319D01*
X126296222Y-90434688D01*
X126296172Y-90423202D01*
X126298955Y-90347685D01*
X126308359Y-90283158D01*
X126325241Y-90227291D01*
X126350460Y-90177754D01*
X126384872Y-90132216D01*
X126414409Y-90101923D01*
X126473459Y-90054123D01*
X126535514Y-90019816D01*
X126602539Y-89998226D01*
X126676505Y-89988579D01*
X126703868Y-89987881D01*
X126783592Y-89993463D01*
G36*
X131551997Y-90321600D02*
G01*
X131553883Y-90262253D01*
X131556720Y-90209421D01*
X131560509Y-90165730D01*
X131565249Y-90133803D01*
X131565435Y-90132917D01*
X131598748Y-90009755D01*
X131645441Y-89887979D01*
X131704388Y-89769353D01*
X131774459Y-89655637D01*
X131854525Y-89548594D01*
X131943460Y-89449986D01*
X132040134Y-89361575D01*
X132079182Y-89330625D01*
X132158540Y-89273086D01*
X132233121Y-89225241D01*
X132306674Y-89185038D01*
X132382948Y-89150424D01*
X132464204Y-89119860D01*
X132506722Y-89105691D01*
X132545252Y-89094216D01*
X132582067Y-89085160D01*
X132619437Y-89078245D01*
X132659635Y-89073196D01*
X132704931Y-89069735D01*
X132757599Y-89067587D01*
X132819908Y-89066474D01*
X132894131Y-89066121D01*
X132905758Y-89066117D01*
X132971498Y-89066211D01*
X133024802Y-89066563D01*
X133067751Y-89067277D01*
X133102423Y-89068455D01*
X133130897Y-89070202D01*
X133155251Y-89072622D01*
X133177565Y-89075817D01*
X133199916Y-89079891D01*
X133205790Y-89081066D01*
X133307785Y-89106390D01*
X133406808Y-89140750D01*
X133504884Y-89185106D01*
X133604042Y-89240418D01*
X133706309Y-89307644D01*
X133747545Y-89337351D01*
X133791391Y-89372989D01*
X133840161Y-89418275D01*
X133891325Y-89470402D01*
X133942358Y-89526563D01*
X133990729Y-89583951D01*
X134033911Y-89639759D01*
X134069375Y-89691180D01*
X134076427Y-89702508D01*
X134100801Y-89745609D01*
X134127240Y-89797331D01*
X134153559Y-89852979D01*
X134177578Y-89907857D01*
X134197113Y-89957270D01*
X134203997Y-89976888D01*
X134217571Y-90019208D01*
X134228571Y-90057641D01*
X134237259Y-90094445D01*
X134243899Y-90131878D01*
X134248754Y-90172197D01*
X134252086Y-90217662D01*
X134254160Y-90270529D01*
X134255237Y-90333057D01*
X134255582Y-90407503D01*
X134255587Y-90419574D01*
X134255491Y-90486029D01*
X134255137Y-90540003D01*
X134254429Y-90583527D01*
X134253267Y-90618632D01*
X134251554Y-90647350D01*
X134249191Y-90671712D01*
X134246082Y-90693750D01*
X134242127Y-90715496D01*
X134241062Y-90720798D01*
X134208132Y-90847259D01*
X134161660Y-90969581D01*
X134101467Y-91088113D01*
X134027374Y-91203207D01*
X133940087Y-91314188D01*
X133892722Y-91366969D01*
X133846860Y-91412716D01*
X133798794Y-91454669D01*
X133744815Y-91496068D01*
X133682272Y-91539447D01*
X133564066Y-91611383D01*
X133442099Y-91672014D01*
X133318571Y-91720361D01*
X133196044Y-91755364D01*
X133170096Y-91759507D01*
X133132157Y-91763077D01*
X133084740Y-91766040D01*
X133030359Y-91768364D01*
X132971527Y-91770016D01*
X132910758Y-91770964D01*
X132850564Y-91771175D01*
X132793458Y-91770617D01*
X132741955Y-91769256D01*
X132698567Y-91767062D01*
X132665808Y-91764000D01*
X132655387Y-91762366D01*
X132551758Y-91737953D01*
X132447856Y-91704547D01*
X132347324Y-91663625D01*
X132253808Y-91616666D01*
X132173785Y-91567117D01*
X132148367Y-91549602D01*
X132126509Y-91534687D01*
X132111686Y-91524737D01*
X132108476Y-91522659D01*
X132072735Y-91497347D01*
X132030818Y-91462922D01*
X131985312Y-91421843D01*
X131938805Y-91376567D01*
X131893884Y-91329554D01*
X131853136Y-91283260D01*
X131841127Y-91268659D01*
X131756632Y-91153009D01*
X131685628Y-91032344D01*
X131628232Y-90906907D01*
X131584559Y-90776937D01*
X131565435Y-90698974D01*
X131560661Y-90667514D01*
X131556838Y-90624196D01*
X131553967Y-90571645D01*
X131552048Y-90512484D01*
X131551079Y-90449340D01*
X131551071Y-90415945D01*
X131806872Y-90415945D01*
X131811180Y-90532853D01*
X131824601Y-90639991D01*
X131847485Y-90739160D01*
X131880177Y-90832157D01*
X131892991Y-90861393D01*
X131913236Y-90900725D01*
X131939996Y-90945844D01*
X131971512Y-90994359D01*
X132006023Y-91043879D01*
X132041771Y-91092014D01*
X132076995Y-91136373D01*
X132109934Y-91174565D01*
X132138831Y-91204200D01*
X132156186Y-91218928D01*
X132176957Y-91235132D01*
X132202060Y-91255837D01*
X132219958Y-91271231D01*
X132297044Y-91331726D01*
X132382143Y-91385390D01*
X132472105Y-91430693D01*
X132563782Y-91466108D01*
X132654023Y-91490105D01*
X132680787Y-91494919D01*
X132778568Y-91507737D01*
X132869459Y-91513585D01*
X132959258Y-91512536D01*
X133053765Y-91504663D01*
X133090815Y-91500071D01*
X133197186Y-91479682D01*
X133298519Y-91447167D01*
X133397251Y-91401641D01*
X133458559Y-91366286D01*
X133497721Y-91340410D01*
X133543191Y-91307844D01*
X133590697Y-91271835D01*
X133635967Y-91235628D01*
X133674727Y-91202470D01*
X133677724Y-91199771D01*
X133707147Y-91169999D01*
X133741473Y-91130084D01*
X133778713Y-91082653D01*
X133816875Y-91030335D01*
X133853970Y-90975759D01*
X133886571Y-90923945D01*
X133897665Y-90902527D01*
X133911528Y-90871463D01*
X133926490Y-90834925D01*
X133940882Y-90797085D01*
X133953034Y-90762115D01*
X133958697Y-90743751D01*
X133975106Y-90672872D01*
X133987193Y-90591920D01*
X133994773Y-90504736D01*
X133997659Y-90415160D01*
X133995666Y-90327031D01*
X133988607Y-90244190D01*
X133984360Y-90213627D01*
X133959365Y-90100681D01*
X133920490Y-89991099D01*
X133868110Y-89885517D01*
X133802602Y-89784573D01*
X133724341Y-89688906D01*
X133633703Y-89599151D01*
X133609701Y-89578177D01*
X133509816Y-89501163D01*
X133406694Y-89437612D01*
X133301002Y-89387911D01*
X133246844Y-89368191D01*
X133173869Y-89348952D01*
X133090969Y-89335261D01*
X133001339Y-89327086D01*
X132908176Y-89324395D01*
X132814676Y-89327156D01*
X132724036Y-89335337D01*
X132639452Y-89348905D01*
X132564120Y-89367830D01*
X132541769Y-89375268D01*
X132493430Y-89394645D01*
X132440213Y-89419456D01*
X132386874Y-89447233D01*
X132338167Y-89475506D01*
X132300800Y-89500371D01*
X132264147Y-89528453D01*
X132224259Y-89561183D01*
X132183711Y-89596241D01*
X132145077Y-89631303D01*
X132110932Y-89664047D01*
X132083848Y-89692151D01*
X132069557Y-89708998D01*
X132004043Y-89797956D01*
X131949504Y-89880598D01*
X131905132Y-89959091D01*
X131870124Y-90035602D01*
X131843674Y-90112296D01*
X131824978Y-90191341D01*
X131813230Y-90274901D01*
X131807626Y-90365144D01*
X131806872Y-90415945D01*
X131551071Y-90415945D01*
X131551062Y-90384837D01*
X131551997Y-90321600D01*
G37*
X131551997Y-90321600D02*
X131553883Y-90262253D01*
X131556720Y-90209421D01*
X131560509Y-90165730D01*
X131565249Y-90133803D01*
X131565435Y-90132917D01*
X131598748Y-90009755D01*
X131645441Y-89887979D01*
X131704388Y-89769353D01*
X131774459Y-89655637D01*
X131854525Y-89548594D01*
X131943460Y-89449986D01*
X132040134Y-89361575D01*
X132079182Y-89330625D01*
X132158540Y-89273086D01*
X132233121Y-89225241D01*
X132306674Y-89185038D01*
X132382948Y-89150424D01*
X132464204Y-89119860D01*
X132506722Y-89105691D01*
X132545252Y-89094216D01*
X132582067Y-89085160D01*
X132619437Y-89078245D01*
X132659635Y-89073196D01*
X132704931Y-89069735D01*
X132757599Y-89067587D01*
X132819908Y-89066474D01*
X132894131Y-89066121D01*
X132905758Y-89066117D01*
X132971498Y-89066211D01*
X133024802Y-89066563D01*
X133067751Y-89067277D01*
X133102423Y-89068455D01*
X133130897Y-89070202D01*
X133155251Y-89072622D01*
X133177565Y-89075817D01*
X133199916Y-89079891D01*
X133205790Y-89081066D01*
X133307785Y-89106390D01*
X133406808Y-89140750D01*
X133504884Y-89185106D01*
X133604042Y-89240418D01*
X133706309Y-89307644D01*
X133747545Y-89337351D01*
X133791391Y-89372989D01*
X133840161Y-89418275D01*
X133891325Y-89470402D01*
X133942358Y-89526563D01*
X133990729Y-89583951D01*
X134033911Y-89639759D01*
X134069375Y-89691180D01*
X134076427Y-89702508D01*
X134100801Y-89745609D01*
X134127240Y-89797331D01*
X134153559Y-89852979D01*
X134177578Y-89907857D01*
X134197113Y-89957270D01*
X134203997Y-89976888D01*
X134217571Y-90019208D01*
X134228571Y-90057641D01*
X134237259Y-90094445D01*
X134243899Y-90131878D01*
X134248754Y-90172197D01*
X134252086Y-90217662D01*
X134254160Y-90270529D01*
X134255237Y-90333057D01*
X134255582Y-90407503D01*
X134255587Y-90419574D01*
X134255491Y-90486029D01*
X134255137Y-90540003D01*
X134254429Y-90583527D01*
X134253267Y-90618632D01*
X134251554Y-90647350D01*
X134249191Y-90671712D01*
X134246082Y-90693750D01*
X134242127Y-90715496D01*
X134241062Y-90720798D01*
X134208132Y-90847259D01*
X134161660Y-90969581D01*
X134101467Y-91088113D01*
X134027374Y-91203207D01*
X133940087Y-91314188D01*
X133892722Y-91366969D01*
X133846860Y-91412716D01*
X133798794Y-91454669D01*
X133744815Y-91496068D01*
X133682272Y-91539447D01*
X133564066Y-91611383D01*
X133442099Y-91672014D01*
X133318571Y-91720361D01*
X133196044Y-91755364D01*
X133170096Y-91759507D01*
X133132157Y-91763077D01*
X133084740Y-91766040D01*
X133030359Y-91768364D01*
X132971527Y-91770016D01*
X132910758Y-91770964D01*
X132850564Y-91771175D01*
X132793458Y-91770617D01*
X132741955Y-91769256D01*
X132698567Y-91767062D01*
X132665808Y-91764000D01*
X132655387Y-91762366D01*
X132551758Y-91737953D01*
X132447856Y-91704547D01*
X132347324Y-91663625D01*
X132253808Y-91616666D01*
X132173785Y-91567117D01*
X132148367Y-91549602D01*
X132126509Y-91534687D01*
X132111686Y-91524737D01*
X132108476Y-91522659D01*
X132072735Y-91497347D01*
X132030818Y-91462922D01*
X131985312Y-91421843D01*
X131938805Y-91376567D01*
X131893884Y-91329554D01*
X131853136Y-91283260D01*
X131841127Y-91268659D01*
X131756632Y-91153009D01*
X131685628Y-91032344D01*
X131628232Y-90906907D01*
X131584559Y-90776937D01*
X131565435Y-90698974D01*
X131560661Y-90667514D01*
X131556838Y-90624196D01*
X131553967Y-90571645D01*
X131552048Y-90512484D01*
X131551079Y-90449340D01*
X131551071Y-90415945D01*
X131806872Y-90415945D01*
X131811180Y-90532853D01*
X131824601Y-90639991D01*
X131847485Y-90739160D01*
X131880177Y-90832157D01*
X131892991Y-90861393D01*
X131913236Y-90900725D01*
X131939996Y-90945844D01*
X131971512Y-90994359D01*
X132006023Y-91043879D01*
X132041771Y-91092014D01*
X132076995Y-91136373D01*
X132109934Y-91174565D01*
X132138831Y-91204200D01*
X132156186Y-91218928D01*
X132176957Y-91235132D01*
X132202060Y-91255837D01*
X132219958Y-91271231D01*
X132297044Y-91331726D01*
X132382143Y-91385390D01*
X132472105Y-91430693D01*
X132563782Y-91466108D01*
X132654023Y-91490105D01*
X132680787Y-91494919D01*
X132778568Y-91507737D01*
X132869459Y-91513585D01*
X132959258Y-91512536D01*
X133053765Y-91504663D01*
X133090815Y-91500071D01*
X133197186Y-91479682D01*
X133298519Y-91447167D01*
X133397251Y-91401641D01*
X133458559Y-91366286D01*
X133497721Y-91340410D01*
X133543191Y-91307844D01*
X133590697Y-91271835D01*
X133635967Y-91235628D01*
X133674727Y-91202470D01*
X133677724Y-91199771D01*
X133707147Y-91169999D01*
X133741473Y-91130084D01*
X133778713Y-91082653D01*
X133816875Y-91030335D01*
X133853970Y-90975759D01*
X133886571Y-90923945D01*
X133897665Y-90902527D01*
X133911528Y-90871463D01*
X133926490Y-90834925D01*
X133940882Y-90797085D01*
X133953034Y-90762115D01*
X133958697Y-90743751D01*
X133975106Y-90672872D01*
X133987193Y-90591920D01*
X133994773Y-90504736D01*
X133997659Y-90415160D01*
X133995666Y-90327031D01*
X133988607Y-90244190D01*
X133984360Y-90213627D01*
X133959365Y-90100681D01*
X133920490Y-89991099D01*
X133868110Y-89885517D01*
X133802602Y-89784573D01*
X133724341Y-89688906D01*
X133633703Y-89599151D01*
X133609701Y-89578177D01*
X133509816Y-89501163D01*
X133406694Y-89437612D01*
X133301002Y-89387911D01*
X133246844Y-89368191D01*
X133173869Y-89348952D01*
X133090969Y-89335261D01*
X133001339Y-89327086D01*
X132908176Y-89324395D01*
X132814676Y-89327156D01*
X132724036Y-89335337D01*
X132639452Y-89348905D01*
X132564120Y-89367830D01*
X132541769Y-89375268D01*
X132493430Y-89394645D01*
X132440213Y-89419456D01*
X132386874Y-89447233D01*
X132338167Y-89475506D01*
X132300800Y-89500371D01*
X132264147Y-89528453D01*
X132224259Y-89561183D01*
X132183711Y-89596241D01*
X132145077Y-89631303D01*
X132110932Y-89664047D01*
X132083848Y-89692151D01*
X132069557Y-89708998D01*
X132004043Y-89797956D01*
X131949504Y-89880598D01*
X131905132Y-89959091D01*
X131870124Y-90035602D01*
X131843674Y-90112296D01*
X131824978Y-90191341D01*
X131813230Y-90274901D01*
X131807626Y-90365144D01*
X131806872Y-90415945D01*
X131551071Y-90415945D01*
X131551062Y-90384837D01*
X131551997Y-90321600D01*
G36*
X125718937Y-90335499D02*
G01*
X125718967Y-90296745D01*
X125719630Y-90265563D01*
X125721044Y-90239639D01*
X125723330Y-90216659D01*
X125726605Y-90194310D01*
X125730989Y-90170279D01*
X125735635Y-90147007D01*
X125769862Y-90014504D01*
X125817592Y-89886418D01*
X125878280Y-89763512D01*
X125951383Y-89646548D01*
X126036356Y-89536288D01*
X126132656Y-89433497D01*
X126239738Y-89338936D01*
X126357058Y-89253368D01*
X126386856Y-89234142D01*
X126463257Y-89191138D01*
X126549270Y-89151536D01*
X126640070Y-89117260D01*
X126730829Y-89090234D01*
X126772281Y-89080545D01*
X126793139Y-89076475D01*
X126814183Y-89073248D01*
X126837403Y-89070769D01*
X126864785Y-89068941D01*
X126898318Y-89067670D01*
X126939989Y-89066859D01*
X126991786Y-89066415D01*
X127055697Y-89066241D01*
X127070647Y-89066230D01*
X127137002Y-89066287D01*
X127190887Y-89066596D01*
X127234343Y-89067256D01*
X127269413Y-89068367D01*
X127298140Y-89070027D01*
X127322565Y-89072337D01*
X127344733Y-89075394D01*
X127366684Y-89079299D01*
X127375447Y-89081036D01*
X127497695Y-89112989D01*
X127618045Y-89158581D01*
X127735147Y-89216950D01*
X127847648Y-89287232D01*
X127954200Y-89368562D01*
X128053451Y-89460077D01*
X128144052Y-89560912D01*
X128163205Y-89584922D01*
X128238841Y-89693434D01*
X128303954Y-89811095D01*
X128357833Y-89936358D01*
X128399768Y-90067676D01*
X128415985Y-90134896D01*
X128420678Y-90165622D01*
X128424436Y-90208249D01*
X128427260Y-90260191D01*
X128429153Y-90318864D01*
X128430117Y-90381685D01*
X128430155Y-90446068D01*
X128429269Y-90509430D01*
X128427460Y-90569186D01*
X128424732Y-90622753D01*
X128421087Y-90667546D01*
X128416527Y-90700980D01*
X128415472Y-90706231D01*
X128378628Y-90843099D01*
X128329105Y-90972916D01*
X128266940Y-91095616D01*
X128192167Y-91211135D01*
X128104822Y-91319406D01*
X128049761Y-91377518D01*
X128009354Y-91416356D01*
X127969538Y-91451932D01*
X127932817Y-91482149D01*
X127901695Y-91504911D01*
X127886376Y-91514323D01*
X127873625Y-91521935D01*
X127852121Y-91535417D01*
X127825227Y-91552641D01*
X127804758Y-91565940D01*
X127716294Y-91617935D01*
X127618030Y-91665398D01*
X127514425Y-91706518D01*
X127409934Y-91739483D01*
X127331904Y-91758125D01*
X127306764Y-91762854D01*
X127282468Y-91766461D01*
X127256563Y-91769079D01*
X127226599Y-91770841D01*
X127190123Y-91771878D01*
X127144685Y-91772323D01*
X127087833Y-91772309D01*
X127070647Y-91772246D01*
X126998028Y-91771486D01*
X126936024Y-91769887D01*
X126885696Y-91767494D01*
X126848107Y-91764354D01*
X126830897Y-91761913D01*
X126711001Y-91733309D01*
X126590818Y-91691739D01*
X126473266Y-91638394D01*
X126361261Y-91574462D01*
X126344054Y-91563333D01*
X126316663Y-91545533D01*
X126293880Y-91531147D01*
X126278323Y-91521800D01*
X126272727Y-91519031D01*
X126264408Y-91514431D01*
X126247736Y-91501941D01*
X126225017Y-91483526D01*
X126198553Y-91461151D01*
X126170648Y-91436782D01*
X126143605Y-91412383D01*
X126119729Y-91389921D01*
X126109220Y-91379547D01*
X126015148Y-91274791D01*
X125933125Y-91162601D01*
X125862866Y-91042462D01*
X125804083Y-90913858D01*
X125756491Y-90776275D01*
X125739207Y-90713488D01*
X125734459Y-90693490D01*
X125730685Y-90673491D01*
X125727735Y-90651375D01*
X125725462Y-90625025D01*
X125723715Y-90592327D01*
X125722347Y-90551162D01*
X125721207Y-90499416D01*
X125720298Y-90444974D01*
X125719858Y-90414482D01*
X125979367Y-90414482D01*
X125985651Y-90536240D01*
X126005582Y-90656148D01*
X126038853Y-90772696D01*
X126085160Y-90884375D01*
X126119610Y-90949345D01*
X126174837Y-91036613D01*
X126235675Y-91115990D01*
X126304301Y-91189807D01*
X126382889Y-91260390D01*
X126473616Y-91330069D01*
X126478883Y-91333837D01*
X126516507Y-91357991D01*
X126563804Y-91384339D01*
X126616566Y-91410833D01*
X126670582Y-91435429D01*
X126721643Y-91456082D01*
X126752618Y-91466857D01*
X126834785Y-91487852D01*
X126926393Y-91502252D01*
X127023832Y-91509811D01*
X127123492Y-91510286D01*
X127221764Y-91503432D01*
X127247131Y-91500354D01*
X127337301Y-91484685D01*
X127420083Y-91461978D01*
X127501627Y-91430435D01*
X127528987Y-91417935D01*
X127640835Y-91357748D01*
X127744698Y-91287030D01*
X127839511Y-91206809D01*
X127924213Y-91118115D01*
X127997738Y-91021977D01*
X128059025Y-90919423D01*
X128073087Y-90891288D01*
X128092616Y-90847128D01*
X128111769Y-90797686D01*
X128129065Y-90747322D01*
X128143022Y-90700399D01*
X128152160Y-90661277D01*
X128153174Y-90655431D01*
X128157129Y-90632036D01*
X128160703Y-90612701D01*
X128161621Y-90608259D01*
X128164321Y-90588003D01*
X128166478Y-90556306D01*
X128168063Y-90516232D01*
X128169048Y-90470844D01*
X128169403Y-90423208D01*
X128169099Y-90376386D01*
X128168106Y-90333443D01*
X128166397Y-90297444D01*
X128164762Y-90278059D01*
X128144621Y-90160119D01*
X128110738Y-90045070D01*
X128063796Y-89934194D01*
X128004480Y-89828770D01*
X127933470Y-89730078D01*
X127851451Y-89639400D01*
X127797501Y-89589598D01*
X127706880Y-89516957D01*
X127617689Y-89457217D01*
X127527785Y-89409589D01*
X127435026Y-89373285D01*
X127337269Y-89347516D01*
X127232370Y-89331495D01*
X127118188Y-89324432D01*
X127075415Y-89323931D01*
X126966475Y-89327473D01*
X126867731Y-89338484D01*
X126776637Y-89357483D01*
X126690647Y-89384988D01*
X126614587Y-89417897D01*
X126507568Y-89477869D01*
X126407211Y-89549932D01*
X126314622Y-89632769D01*
X126230907Y-89725061D01*
X126157171Y-89825492D01*
X126094520Y-89932743D01*
X126044060Y-90045498D01*
X126015051Y-90132284D01*
X126009080Y-90153666D01*
X126004455Y-90172338D01*
X126000590Y-90191652D01*
X125996899Y-90214959D01*
X125992794Y-90245609D01*
X125987690Y-90286954D01*
X125987032Y-90292383D01*
X125979367Y-90414482D01*
X125719858Y-90414482D01*
X125719420Y-90384137D01*
X125718937Y-90335499D01*
G37*
X125718937Y-90335499D02*
X125718967Y-90296745D01*
X125719630Y-90265563D01*
X125721044Y-90239639D01*
X125723330Y-90216659D01*
X125726605Y-90194310D01*
X125730989Y-90170279D01*
X125735635Y-90147007D01*
X125769862Y-90014504D01*
X125817592Y-89886418D01*
X125878280Y-89763512D01*
X125951383Y-89646548D01*
X126036356Y-89536288D01*
X126132656Y-89433497D01*
X126239738Y-89338936D01*
X126357058Y-89253368D01*
X126386856Y-89234142D01*
X126463257Y-89191138D01*
X126549270Y-89151536D01*
X126640070Y-89117260D01*
X126730829Y-89090234D01*
X126772281Y-89080545D01*
X126793139Y-89076475D01*
X126814183Y-89073248D01*
X126837403Y-89070769D01*
X126864785Y-89068941D01*
X126898318Y-89067670D01*
X126939989Y-89066859D01*
X126991786Y-89066415D01*
X127055697Y-89066241D01*
X127070647Y-89066230D01*
X127137002Y-89066287D01*
X127190887Y-89066596D01*
X127234343Y-89067256D01*
X127269413Y-89068367D01*
X127298140Y-89070027D01*
X127322565Y-89072337D01*
X127344733Y-89075394D01*
X127366684Y-89079299D01*
X127375447Y-89081036D01*
X127497695Y-89112989D01*
X127618045Y-89158581D01*
X127735147Y-89216950D01*
X127847648Y-89287232D01*
X127954200Y-89368562D01*
X128053451Y-89460077D01*
X128144052Y-89560912D01*
X128163205Y-89584922D01*
X128238841Y-89693434D01*
X128303954Y-89811095D01*
X128357833Y-89936358D01*
X128399768Y-90067676D01*
X128415985Y-90134896D01*
X128420678Y-90165622D01*
X128424436Y-90208249D01*
X128427260Y-90260191D01*
X128429153Y-90318864D01*
X128430117Y-90381685D01*
X128430155Y-90446068D01*
X128429269Y-90509430D01*
X128427460Y-90569186D01*
X128424732Y-90622753D01*
X128421087Y-90667546D01*
X128416527Y-90700980D01*
X128415472Y-90706231D01*
X128378628Y-90843099D01*
X128329105Y-90972916D01*
X128266940Y-91095616D01*
X128192167Y-91211135D01*
X128104822Y-91319406D01*
X128049761Y-91377518D01*
X128009354Y-91416356D01*
X127969538Y-91451932D01*
X127932817Y-91482149D01*
X127901695Y-91504911D01*
X127886376Y-91514323D01*
X127873625Y-91521935D01*
X127852121Y-91535417D01*
X127825227Y-91552641D01*
X127804758Y-91565940D01*
X127716294Y-91617935D01*
X127618030Y-91665398D01*
X127514425Y-91706518D01*
X127409934Y-91739483D01*
X127331904Y-91758125D01*
X127306764Y-91762854D01*
X127282468Y-91766461D01*
X127256563Y-91769079D01*
X127226599Y-91770841D01*
X127190123Y-91771878D01*
X127144685Y-91772323D01*
X127087833Y-91772309D01*
X127070647Y-91772246D01*
X126998028Y-91771486D01*
X126936024Y-91769887D01*
X126885696Y-91767494D01*
X126848107Y-91764354D01*
X126830897Y-91761913D01*
X126711001Y-91733309D01*
X126590818Y-91691739D01*
X126473266Y-91638394D01*
X126361261Y-91574462D01*
X126344054Y-91563333D01*
X126316663Y-91545533D01*
X126293880Y-91531147D01*
X126278323Y-91521800D01*
X126272727Y-91519031D01*
X126264408Y-91514431D01*
X126247736Y-91501941D01*
X126225017Y-91483526D01*
X126198553Y-91461151D01*
X126170648Y-91436782D01*
X126143605Y-91412383D01*
X126119729Y-91389921D01*
X126109220Y-91379547D01*
X126015148Y-91274791D01*
X125933125Y-91162601D01*
X125862866Y-91042462D01*
X125804083Y-90913858D01*
X125756491Y-90776275D01*
X125739207Y-90713488D01*
X125734459Y-90693490D01*
X125730685Y-90673491D01*
X125727735Y-90651375D01*
X125725462Y-90625025D01*
X125723715Y-90592327D01*
X125722347Y-90551162D01*
X125721207Y-90499416D01*
X125720298Y-90444974D01*
X125719858Y-90414482D01*
X125979367Y-90414482D01*
X125985651Y-90536240D01*
X126005582Y-90656148D01*
X126038853Y-90772696D01*
X126085160Y-90884375D01*
X126119610Y-90949345D01*
X126174837Y-91036613D01*
X126235675Y-91115990D01*
X126304301Y-91189807D01*
X126382889Y-91260390D01*
X126473616Y-91330069D01*
X126478883Y-91333837D01*
X126516507Y-91357991D01*
X126563804Y-91384339D01*
X126616566Y-91410833D01*
X126670582Y-91435429D01*
X126721643Y-91456082D01*
X126752618Y-91466857D01*
X126834785Y-91487852D01*
X126926393Y-91502252D01*
X127023832Y-91509811D01*
X127123492Y-91510286D01*
X127221764Y-91503432D01*
X127247131Y-91500354D01*
X127337301Y-91484685D01*
X127420083Y-91461978D01*
X127501627Y-91430435D01*
X127528987Y-91417935D01*
X127640835Y-91357748D01*
X127744698Y-91287030D01*
X127839511Y-91206809D01*
X127924213Y-91118115D01*
X127997738Y-91021977D01*
X128059025Y-90919423D01*
X128073087Y-90891288D01*
X128092616Y-90847128D01*
X128111769Y-90797686D01*
X128129065Y-90747322D01*
X128143022Y-90700399D01*
X128152160Y-90661277D01*
X128153174Y-90655431D01*
X128157129Y-90632036D01*
X128160703Y-90612701D01*
X128161621Y-90608259D01*
X128164321Y-90588003D01*
X128166478Y-90556306D01*
X128168063Y-90516232D01*
X128169048Y-90470844D01*
X128169403Y-90423208D01*
X128169099Y-90376386D01*
X128168106Y-90333443D01*
X128166397Y-90297444D01*
X128164762Y-90278059D01*
X128144621Y-90160119D01*
X128110738Y-90045070D01*
X128063796Y-89934194D01*
X128004480Y-89828770D01*
X127933470Y-89730078D01*
X127851451Y-89639400D01*
X127797501Y-89589598D01*
X127706880Y-89516957D01*
X127617689Y-89457217D01*
X127527785Y-89409589D01*
X127435026Y-89373285D01*
X127337269Y-89347516D01*
X127232370Y-89331495D01*
X127118188Y-89324432D01*
X127075415Y-89323931D01*
X126966475Y-89327473D01*
X126867731Y-89338484D01*
X126776637Y-89357483D01*
X126690647Y-89384988D01*
X126614587Y-89417897D01*
X126507568Y-89477869D01*
X126407211Y-89549932D01*
X126314622Y-89632769D01*
X126230907Y-89725061D01*
X126157171Y-89825492D01*
X126094520Y-89932743D01*
X126044060Y-90045498D01*
X126015051Y-90132284D01*
X126009080Y-90153666D01*
X126004455Y-90172338D01*
X126000590Y-90191652D01*
X125996899Y-90214959D01*
X125992794Y-90245609D01*
X125987690Y-90286954D01*
X125987032Y-90292383D01*
X125979367Y-90414482D01*
X125719858Y-90414482D01*
X125719420Y-90384137D01*
X125718937Y-90335499D01*
G36*
X132952980Y-89694569D02*
G01*
X133050976Y-89707047D01*
X133104938Y-89719086D01*
X133167819Y-89739804D01*
X133232784Y-89769319D01*
X133295957Y-89805354D01*
X133353458Y-89845634D01*
X133401410Y-89887884D01*
X133412327Y-89899456D01*
X133450143Y-89947047D01*
X133487665Y-90004331D01*
X133522250Y-90066680D01*
X133551253Y-90129465D01*
X133565778Y-90168075D01*
X133583079Y-90233616D01*
X133594841Y-90308630D01*
X133600959Y-90389135D01*
X133601327Y-90471145D01*
X133595840Y-90550677D01*
X133584395Y-90623746D01*
X133578449Y-90649036D01*
X133546146Y-90746033D01*
X133502314Y-90835247D01*
X133447743Y-90915876D01*
X133383221Y-90987119D01*
X133309535Y-91048175D01*
X133227475Y-91098243D01*
X133137828Y-91136521D01*
X133082628Y-91153014D01*
X133034668Y-91162720D01*
X132979263Y-91169930D01*
X132921066Y-91174362D01*
X132864728Y-91175735D01*
X132814902Y-91173766D01*
X132789644Y-91170794D01*
X132703838Y-91150352D01*
X132621686Y-91117873D01*
X132545008Y-91074640D01*
X132475625Y-91021935D01*
X132415357Y-90961040D01*
X132366024Y-90893237D01*
X132346947Y-90858980D01*
X132332479Y-90826432D01*
X132317916Y-90787065D01*
X132304408Y-90744792D01*
X132293103Y-90703524D01*
X132285151Y-90667175D01*
X132281702Y-90639656D01*
X132281644Y-90636687D01*
X132283430Y-90633391D01*
X132289844Y-90630904D01*
X132302472Y-90629150D01*
X132322899Y-90628052D01*
X132352710Y-90627535D01*
X132393491Y-90627522D01*
X132446827Y-90627939D01*
X132461258Y-90628090D01*
X132640872Y-90630031D01*
X132642049Y-90653452D01*
X132648812Y-90691875D01*
X132663928Y-90733388D01*
X132684871Y-90771476D01*
X132691350Y-90780529D01*
X132726049Y-90814693D01*
X132770621Y-90841376D01*
X132822197Y-90860050D01*
X132877908Y-90870187D01*
X132934886Y-90871257D01*
X132990262Y-90862733D01*
X133039837Y-90844746D01*
X133089768Y-90813406D01*
X133132095Y-90771889D01*
X133167497Y-90719260D01*
X133196654Y-90654582D01*
X133212071Y-90607403D01*
X133218283Y-90584169D01*
X133222727Y-90562190D01*
X133225682Y-90538322D01*
X133227426Y-90509419D01*
X133228239Y-90472338D01*
X133228398Y-90423934D01*
X133228397Y-90423202D01*
X133227449Y-90359535D01*
X133224471Y-90307222D01*
X133218962Y-90263184D01*
X133210419Y-90224342D01*
X133198338Y-90187617D01*
X133184653Y-90155195D01*
X133152662Y-90100880D01*
X133111864Y-90057959D01*
X133062756Y-90026688D01*
X133005838Y-90007321D01*
X132941607Y-90000116D01*
X132887821Y-90002975D01*
X132844953Y-90009124D01*
X132811630Y-90016987D01*
X132782885Y-90028034D01*
X132757370Y-90041594D01*
X132717058Y-90072446D01*
X132683039Y-90112514D01*
X132658343Y-90157695D01*
X132648439Y-90189159D01*
X132643348Y-90212745D01*
X132691096Y-90212745D01*
X132717066Y-90213285D01*
X132731617Y-90215452D01*
X132737821Y-90220067D01*
X132738844Y-90225519D01*
X132733854Y-90234039D01*
X132720006Y-90250843D01*
X132698978Y-90274241D01*
X132672450Y-90302545D01*
X132642102Y-90334065D01*
X132609612Y-90367112D01*
X132576661Y-90399996D01*
X132544928Y-90431029D01*
X132516092Y-90458522D01*
X132491833Y-90480784D01*
X132473830Y-90496128D01*
X132463762Y-90502863D01*
X132462927Y-90503031D01*
X132454486Y-90498010D01*
X132437813Y-90484074D01*
X132414586Y-90462913D01*
X132386484Y-90436217D01*
X132355183Y-90405677D01*
X132322363Y-90372982D01*
X132289700Y-90339823D01*
X132258872Y-90307890D01*
X132231558Y-90278873D01*
X132209434Y-90254463D01*
X132194179Y-90236348D01*
X132187471Y-90226221D01*
X132187301Y-90225373D01*
X132189198Y-90218814D01*
X132196838Y-90214982D01*
X132213143Y-90213188D01*
X132240905Y-90212745D01*
X132294510Y-90212745D01*
X132299417Y-90180023D01*
X132308079Y-90140753D01*
X132322710Y-90094221D01*
X132341555Y-90045456D01*
X132361436Y-90002288D01*
X132406756Y-89927977D01*
X132462379Y-89863098D01*
X132527242Y-89808057D01*
X132600283Y-89763257D01*
X132680440Y-89729104D01*
X132766650Y-89706002D01*
X132857851Y-89694355D01*
X132952980Y-89694569D01*
G37*
X132952980Y-89694569D02*
X133050976Y-89707047D01*
X133104938Y-89719086D01*
X133167819Y-89739804D01*
X133232784Y-89769319D01*
X133295957Y-89805354D01*
X133353458Y-89845634D01*
X133401410Y-89887884D01*
X133412327Y-89899456D01*
X133450143Y-89947047D01*
X133487665Y-90004331D01*
X133522250Y-90066680D01*
X133551253Y-90129465D01*
X133565778Y-90168075D01*
X133583079Y-90233616D01*
X133594841Y-90308630D01*
X133600959Y-90389135D01*
X133601327Y-90471145D01*
X133595840Y-90550677D01*
X133584395Y-90623746D01*
X133578449Y-90649036D01*
X133546146Y-90746033D01*
X133502314Y-90835247D01*
X133447743Y-90915876D01*
X133383221Y-90987119D01*
X133309535Y-91048175D01*
X133227475Y-91098243D01*
X133137828Y-91136521D01*
X133082628Y-91153014D01*
X133034668Y-91162720D01*
X132979263Y-91169930D01*
X132921066Y-91174362D01*
X132864728Y-91175735D01*
X132814902Y-91173766D01*
X132789644Y-91170794D01*
X132703838Y-91150352D01*
X132621686Y-91117873D01*
X132545008Y-91074640D01*
X132475625Y-91021935D01*
X132415357Y-90961040D01*
X132366024Y-90893237D01*
X132346947Y-90858980D01*
X132332479Y-90826432D01*
X132317916Y-90787065D01*
X132304408Y-90744792D01*
X132293103Y-90703524D01*
X132285151Y-90667175D01*
X132281702Y-90639656D01*
X132281644Y-90636687D01*
X132283430Y-90633391D01*
X132289844Y-90630904D01*
X132302472Y-90629150D01*
X132322899Y-90628052D01*
X132352710Y-90627535D01*
X132393491Y-90627522D01*
X132446827Y-90627939D01*
X132461258Y-90628090D01*
X132640872Y-90630031D01*
X132642049Y-90653452D01*
X132648812Y-90691875D01*
X132663928Y-90733388D01*
X132684871Y-90771476D01*
X132691350Y-90780529D01*
X132726049Y-90814693D01*
X132770621Y-90841376D01*
X132822197Y-90860050D01*
X132877908Y-90870187D01*
X132934886Y-90871257D01*
X132990262Y-90862733D01*
X133039837Y-90844746D01*
X133089768Y-90813406D01*
X133132095Y-90771889D01*
X133167497Y-90719260D01*
X133196654Y-90654582D01*
X133212071Y-90607403D01*
X133218283Y-90584169D01*
X133222727Y-90562190D01*
X133225682Y-90538322D01*
X133227426Y-90509419D01*
X133228239Y-90472338D01*
X133228398Y-90423934D01*
X133228397Y-90423202D01*
X133227449Y-90359535D01*
X133224471Y-90307222D01*
X133218962Y-90263184D01*
X133210419Y-90224342D01*
X133198338Y-90187617D01*
X133184653Y-90155195D01*
X133152662Y-90100880D01*
X133111864Y-90057959D01*
X133062756Y-90026688D01*
X133005838Y-90007321D01*
X132941607Y-90000116D01*
X132887821Y-90002975D01*
X132844953Y-90009124D01*
X132811630Y-90016987D01*
X132782885Y-90028034D01*
X132757370Y-90041594D01*
X132717058Y-90072446D01*
X132683039Y-90112514D01*
X132658343Y-90157695D01*
X132648439Y-90189159D01*
X132643348Y-90212745D01*
X132691096Y-90212745D01*
X132717066Y-90213285D01*
X132731617Y-90215452D01*
X132737821Y-90220067D01*
X132738844Y-90225519D01*
X132733854Y-90234039D01*
X132720006Y-90250843D01*
X132698978Y-90274241D01*
X132672450Y-90302545D01*
X132642102Y-90334065D01*
X132609612Y-90367112D01*
X132576661Y-90399996D01*
X132544928Y-90431029D01*
X132516092Y-90458522D01*
X132491833Y-90480784D01*
X132473830Y-90496128D01*
X132463762Y-90502863D01*
X132462927Y-90503031D01*
X132454486Y-90498010D01*
X132437813Y-90484074D01*
X132414586Y-90462913D01*
X132386484Y-90436217D01*
X132355183Y-90405677D01*
X132322363Y-90372982D01*
X132289700Y-90339823D01*
X132258872Y-90307890D01*
X132231558Y-90278873D01*
X132209434Y-90254463D01*
X132194179Y-90236348D01*
X132187471Y-90226221D01*
X132187301Y-90225373D01*
X132189198Y-90218814D01*
X132196838Y-90214982D01*
X132213143Y-90213188D01*
X132240905Y-90212745D01*
X132294510Y-90212745D01*
X132299417Y-90180023D01*
X132308079Y-90140753D01*
X132322710Y-90094221D01*
X132341555Y-90045456D01*
X132361436Y-90002288D01*
X132406756Y-89927977D01*
X132462379Y-89863098D01*
X132527242Y-89808057D01*
X132600283Y-89763257D01*
X132680440Y-89729104D01*
X132766650Y-89706002D01*
X132857851Y-89694355D01*
X132952980Y-89694569D01*
G36*
X128629303Y-90308224D02*
G01*
X128630525Y-90259211D01*
X128632658Y-90218991D01*
X128635624Y-90190974D01*
X128645374Y-90137943D01*
X128658455Y-90080147D01*
X128673483Y-90023029D01*
X128689072Y-89972032D01*
X128697036Y-89949490D01*
X128715399Y-89904942D01*
X128738699Y-89854870D01*
X128765354Y-89802133D01*
X128793786Y-89749592D01*
X128822414Y-89700107D01*
X128849659Y-89656539D01*
X128873940Y-89621749D01*
X128886871Y-89605776D01*
X128897129Y-89593542D01*
X128913656Y-89573149D01*
X128933803Y-89547886D01*
X128947098Y-89531029D01*
X129014165Y-89454848D01*
X129093142Y-89380952D01*
X129181435Y-89311127D01*
X129276447Y-89247161D01*
X129375584Y-89190842D01*
X129476251Y-89143956D01*
X129548138Y-89117071D01*
X129589267Y-89103735D01*
X129625972Y-89092943D01*
X129660510Y-89084428D01*
X129695136Y-89077925D01*
X129732105Y-89073167D01*
X129773674Y-89069889D01*
X129822099Y-89067825D01*
X129879634Y-89066708D01*
X129948537Y-89066273D01*
X129979285Y-89066230D01*
X130053051Y-89066376D01*
X130114528Y-89067049D01*
X130165938Y-89068483D01*
X130209503Y-89070909D01*
X130247447Y-89074561D01*
X130281990Y-89079671D01*
X130315355Y-89086473D01*
X130349764Y-89095199D01*
X130387441Y-89106082D01*
X130402097Y-89110532D01*
X130488350Y-89140291D01*
X130570787Y-89176021D01*
X130652583Y-89219364D01*
X130736912Y-89271960D01*
X130801958Y-89317185D01*
X130838646Y-89345731D01*
X130880471Y-89381641D01*
X130924465Y-89422052D01*
X130967655Y-89464103D01*
X131007072Y-89504932D01*
X131039743Y-89541678D01*
X131055507Y-89561416D01*
X131075667Y-89588171D01*
X131097498Y-89616959D01*
X131106968Y-89629376D01*
X131147016Y-89687505D01*
X131186978Y-89756067D01*
X131224939Y-89831099D01*
X131258988Y-89908636D01*
X131287209Y-89984714D01*
X131302129Y-90033717D01*
X131313820Y-90077985D01*
X131323133Y-90117515D01*
X131330292Y-90154754D01*
X131335521Y-90192151D01*
X131339044Y-90232153D01*
X131341085Y-90277208D01*
X131341867Y-90329763D01*
X131341614Y-90392266D01*
X131340740Y-90455859D01*
X131339643Y-90518024D01*
X131338504Y-90567876D01*
X131337153Y-90607618D01*
X131335422Y-90639451D01*
X131333141Y-90665578D01*
X131330140Y-90688200D01*
X131326252Y-90709518D01*
X131321306Y-90731735D01*
X131318714Y-90742517D01*
X131279919Y-90874886D01*
X131229947Y-90998529D01*
X131168102Y-91114762D01*
X131093686Y-91224902D01*
X131009235Y-91326717D01*
X130930591Y-91405003D01*
X130840587Y-91480204D01*
X130742335Y-91550300D01*
X130638951Y-91613274D01*
X130533547Y-91667109D01*
X130429239Y-91709787D01*
X130405401Y-91717921D01*
X130354876Y-91733791D01*
X130309134Y-91746366D01*
X130265429Y-91755998D01*
X130221017Y-91763035D01*
X130173152Y-91767829D01*
X130119089Y-91770729D01*
X130056082Y-91772087D01*
X129981386Y-91772252D01*
X129979718Y-91772246D01*
X129898917Y-91771417D01*
X129832448Y-91769647D01*
X129780357Y-91766936D01*
X129742687Y-91763286D01*
X129731658Y-91761562D01*
X129632958Y-91738307D01*
X129530630Y-91704544D01*
X129428792Y-91662037D01*
X129331563Y-91612550D01*
X129243061Y-91557850D01*
X129222557Y-91543404D01*
X129203460Y-91530154D01*
X129189139Y-91521302D01*
X129183887Y-91519031D01*
X129175054Y-91514381D01*
X129157888Y-91501707D01*
X129134631Y-91482921D01*
X129107528Y-91459937D01*
X129078825Y-91434668D01*
X129050764Y-91409027D01*
X129025591Y-91384927D01*
X129019876Y-91379230D01*
X128923716Y-91272469D01*
X128839726Y-91158303D01*
X128768271Y-91037390D01*
X128709715Y-90910386D01*
X128664423Y-90777947D01*
X128646025Y-90706231D01*
X128641846Y-90680071D01*
X128638159Y-90641993D01*
X128635017Y-90594585D01*
X128632472Y-90540437D01*
X128630575Y-90482138D01*
X128629380Y-90422277D01*
X128629225Y-90401524D01*
X128889330Y-90401524D01*
X128891150Y-90496180D01*
X128899508Y-90587180D01*
X128914402Y-90670740D01*
X128923416Y-90705530D01*
X128964737Y-90822409D01*
X129019088Y-90934025D01*
X129085630Y-91039389D01*
X129163523Y-91137515D01*
X129251928Y-91227412D01*
X129350006Y-91308094D01*
X129456915Y-91378572D01*
X129528023Y-91417089D01*
X129603932Y-91451295D01*
X129677382Y-91476091D01*
X129754783Y-91493435D01*
X129800472Y-91500391D01*
X129869617Y-91508565D01*
X129930251Y-91513346D01*
X129987014Y-91514725D01*
X130044544Y-91512693D01*
X130107481Y-91507240D01*
X130170587Y-91499662D01*
X130261971Y-91483481D01*
X130348349Y-91459003D01*
X130432050Y-91425182D01*
X130515405Y-91380971D01*
X130600743Y-91325325D01*
X130664072Y-91278099D01*
X130762421Y-91192747D01*
X130848726Y-91099759D01*
X130922659Y-90999513D01*
X130963619Y-90931202D01*
X130993552Y-90869923D01*
X131020904Y-90801074D01*
X131044148Y-90729386D01*
X131061757Y-90659591D01*
X131072206Y-90596420D01*
X131072490Y-90593745D01*
X131075483Y-90553230D01*
X131077256Y-90504054D01*
X131077876Y-90449339D01*
X131077407Y-90392209D01*
X131075916Y-90335789D01*
X131073468Y-90283200D01*
X131070129Y-90237566D01*
X131065965Y-90202012D01*
X131064014Y-90190974D01*
X131033382Y-90076942D01*
X130989505Y-89966524D01*
X130933446Y-89860920D01*
X130866273Y-89761330D01*
X130789052Y-89668954D01*
X130702848Y-89584994D01*
X130608727Y-89510648D01*
X130507756Y-89447117D01*
X130400999Y-89395602D01*
X130336297Y-89371519D01*
X130264339Y-89352095D01*
X130182876Y-89337806D01*
X130094997Y-89328658D01*
X130003791Y-89324660D01*
X129912348Y-89325818D01*
X129823756Y-89332140D01*
X129741105Y-89343634D01*
X129667483Y-89360307D01*
X129637187Y-89369827D01*
X129531663Y-89413902D01*
X129428701Y-89471065D01*
X129330153Y-89539905D01*
X129237873Y-89619013D01*
X129153714Y-89706978D01*
X129092400Y-89784267D01*
X129053007Y-89843945D01*
X129014496Y-89912131D01*
X128979064Y-89984289D01*
X128948911Y-90055885D01*
X128926235Y-90122383D01*
X128923113Y-90133478D01*
X128905309Y-90216388D01*
X128894048Y-90306999D01*
X128889330Y-90401524D01*
X128629225Y-90401524D01*
X128628939Y-90363442D01*
X128629303Y-90308224D01*
G37*
X128629303Y-90308224D02*
X128630525Y-90259211D01*
X128632658Y-90218991D01*
X128635624Y-90190974D01*
X128645374Y-90137943D01*
X128658455Y-90080147D01*
X128673483Y-90023029D01*
X128689072Y-89972032D01*
X128697036Y-89949490D01*
X128715399Y-89904942D01*
X128738699Y-89854870D01*
X128765354Y-89802133D01*
X128793786Y-89749592D01*
X128822414Y-89700107D01*
X128849659Y-89656539D01*
X128873940Y-89621749D01*
X128886871Y-89605776D01*
X128897129Y-89593542D01*
X128913656Y-89573149D01*
X128933803Y-89547886D01*
X128947098Y-89531029D01*
X129014165Y-89454848D01*
X129093142Y-89380952D01*
X129181435Y-89311127D01*
X129276447Y-89247161D01*
X129375584Y-89190842D01*
X129476251Y-89143956D01*
X129548138Y-89117071D01*
X129589267Y-89103735D01*
X129625972Y-89092943D01*
X129660510Y-89084428D01*
X129695136Y-89077925D01*
X129732105Y-89073167D01*
X129773674Y-89069889D01*
X129822099Y-89067825D01*
X129879634Y-89066708D01*
X129948537Y-89066273D01*
X129979285Y-89066230D01*
X130053051Y-89066376D01*
X130114528Y-89067049D01*
X130165938Y-89068483D01*
X130209503Y-89070909D01*
X130247447Y-89074561D01*
X130281990Y-89079671D01*
X130315355Y-89086473D01*
X130349764Y-89095199D01*
X130387441Y-89106082D01*
X130402097Y-89110532D01*
X130488350Y-89140291D01*
X130570787Y-89176021D01*
X130652583Y-89219364D01*
X130736912Y-89271960D01*
X130801958Y-89317185D01*
X130838646Y-89345731D01*
X130880471Y-89381641D01*
X130924465Y-89422052D01*
X130967655Y-89464103D01*
X131007072Y-89504932D01*
X131039743Y-89541678D01*
X131055507Y-89561416D01*
X131075667Y-89588171D01*
X131097498Y-89616959D01*
X131106968Y-89629376D01*
X131147016Y-89687505D01*
X131186978Y-89756067D01*
X131224939Y-89831099D01*
X131258988Y-89908636D01*
X131287209Y-89984714D01*
X131302129Y-90033717D01*
X131313820Y-90077985D01*
X131323133Y-90117515D01*
X131330292Y-90154754D01*
X131335521Y-90192151D01*
X131339044Y-90232153D01*
X131341085Y-90277208D01*
X131341867Y-90329763D01*
X131341614Y-90392266D01*
X131340740Y-90455859D01*
X131339643Y-90518024D01*
X131338504Y-90567876D01*
X131337153Y-90607618D01*
X131335422Y-90639451D01*
X131333141Y-90665578D01*
X131330140Y-90688200D01*
X131326252Y-90709518D01*
X131321306Y-90731735D01*
X131318714Y-90742517D01*
X131279919Y-90874886D01*
X131229947Y-90998529D01*
X131168102Y-91114762D01*
X131093686Y-91224902D01*
X131009235Y-91326717D01*
X130930591Y-91405003D01*
X130840587Y-91480204D01*
X130742335Y-91550300D01*
X130638951Y-91613274D01*
X130533547Y-91667109D01*
X130429239Y-91709787D01*
X130405401Y-91717921D01*
X130354876Y-91733791D01*
X130309134Y-91746366D01*
X130265429Y-91755998D01*
X130221017Y-91763035D01*
X130173152Y-91767829D01*
X130119089Y-91770729D01*
X130056082Y-91772087D01*
X129981386Y-91772252D01*
X129979718Y-91772246D01*
X129898917Y-91771417D01*
X129832448Y-91769647D01*
X129780357Y-91766936D01*
X129742687Y-91763286D01*
X129731658Y-91761562D01*
X129632958Y-91738307D01*
X129530630Y-91704544D01*
X129428792Y-91662037D01*
X129331563Y-91612550D01*
X129243061Y-91557850D01*
X129222557Y-91543404D01*
X129203460Y-91530154D01*
X129189139Y-91521302D01*
X129183887Y-91519031D01*
X129175054Y-91514381D01*
X129157888Y-91501707D01*
X129134631Y-91482921D01*
X129107528Y-91459937D01*
X129078825Y-91434668D01*
X129050764Y-91409027D01*
X129025591Y-91384927D01*
X129019876Y-91379230D01*
X128923716Y-91272469D01*
X128839726Y-91158303D01*
X128768271Y-91037390D01*
X128709715Y-90910386D01*
X128664423Y-90777947D01*
X128646025Y-90706231D01*
X128641846Y-90680071D01*
X128638159Y-90641993D01*
X128635017Y-90594585D01*
X128632472Y-90540437D01*
X128630575Y-90482138D01*
X128629380Y-90422277D01*
X128629225Y-90401524D01*
X128889330Y-90401524D01*
X128891150Y-90496180D01*
X128899508Y-90587180D01*
X128914402Y-90670740D01*
X128923416Y-90705530D01*
X128964737Y-90822409D01*
X129019088Y-90934025D01*
X129085630Y-91039389D01*
X129163523Y-91137515D01*
X129251928Y-91227412D01*
X129350006Y-91308094D01*
X129456915Y-91378572D01*
X129528023Y-91417089D01*
X129603932Y-91451295D01*
X129677382Y-91476091D01*
X129754783Y-91493435D01*
X129800472Y-91500391D01*
X129869617Y-91508565D01*
X129930251Y-91513346D01*
X129987014Y-91514725D01*
X130044544Y-91512693D01*
X130107481Y-91507240D01*
X130170587Y-91499662D01*
X130261971Y-91483481D01*
X130348349Y-91459003D01*
X130432050Y-91425182D01*
X130515405Y-91380971D01*
X130600743Y-91325325D01*
X130664072Y-91278099D01*
X130762421Y-91192747D01*
X130848726Y-91099759D01*
X130922659Y-90999513D01*
X130963619Y-90931202D01*
X130993552Y-90869923D01*
X131020904Y-90801074D01*
X131044148Y-90729386D01*
X131061757Y-90659591D01*
X131072206Y-90596420D01*
X131072490Y-90593745D01*
X131075483Y-90553230D01*
X131077256Y-90504054D01*
X131077876Y-90449339D01*
X131077407Y-90392209D01*
X131075916Y-90335789D01*
X131073468Y-90283200D01*
X131070129Y-90237566D01*
X131065965Y-90202012D01*
X131064014Y-90190974D01*
X131033382Y-90076942D01*
X130989505Y-89966524D01*
X130933446Y-89860920D01*
X130866273Y-89761330D01*
X130789052Y-89668954D01*
X130702848Y-89584994D01*
X130608727Y-89510648D01*
X130507756Y-89447117D01*
X130400999Y-89395602D01*
X130336297Y-89371519D01*
X130264339Y-89352095D01*
X130182876Y-89337806D01*
X130094997Y-89328658D01*
X130003791Y-89324660D01*
X129912348Y-89325818D01*
X129823756Y-89332140D01*
X129741105Y-89343634D01*
X129667483Y-89360307D01*
X129637187Y-89369827D01*
X129531663Y-89413902D01*
X129428701Y-89471065D01*
X129330153Y-89539905D01*
X129237873Y-89619013D01*
X129153714Y-89706978D01*
X129092400Y-89784267D01*
X129053007Y-89843945D01*
X129014496Y-89912131D01*
X128979064Y-89984289D01*
X128948911Y-90055885D01*
X128926235Y-90122383D01*
X128923113Y-90133478D01*
X128905309Y-90216388D01*
X128894048Y-90306999D01*
X128889330Y-90401524D01*
X128629225Y-90401524D01*
X128628939Y-90363442D01*
X128629303Y-90308224D01*
G36*
X127510844Y-89989822D02*
G01*
X127580258Y-89996616D01*
X127639943Y-90010751D01*
X127693224Y-90033226D01*
X127730171Y-90055598D01*
X127755309Y-90074958D01*
X127781652Y-90098800D01*
X127806822Y-90124512D01*
X127828441Y-90149480D01*
X127844131Y-90171092D01*
X127851517Y-90186736D01*
X127851790Y-90189239D01*
X127846310Y-90197698D01*
X127829548Y-90210358D01*
X127800808Y-90227677D01*
X127759394Y-90250112D01*
X127757765Y-90250965D01*
X127663879Y-90300071D01*
X127633799Y-90259353D01*
X127601895Y-90224266D01*
X127566710Y-90202328D01*
X127525710Y-90192197D01*
X127505168Y-90191133D01*
X127456372Y-90197230D01*
X127415172Y-90215433D01*
X127382490Y-90244961D01*
X127359248Y-90285032D01*
X127348021Y-90324427D01*
X127345379Y-90348318D01*
X127343813Y-90381773D01*
X127343344Y-90419878D01*
X127343989Y-90457720D01*
X127345767Y-90490387D01*
X127347336Y-90505115D01*
X127358275Y-90543346D01*
X127378679Y-90580390D01*
X127405617Y-90612295D01*
X127436155Y-90635110D01*
X127447816Y-90640471D01*
X127474518Y-90646223D01*
X127508767Y-90647884D01*
X127544232Y-90645613D01*
X127574582Y-90639566D01*
X127581454Y-90637156D01*
X127596543Y-90629247D01*
X127611453Y-90616816D01*
X127628179Y-90597667D01*
X127648715Y-90569605D01*
X127666070Y-90544017D01*
X127670389Y-90539057D01*
X127676475Y-90537163D01*
X127686529Y-90539037D01*
X127702751Y-90545381D01*
X127727339Y-90556899D01*
X127762495Y-90574291D01*
X127765289Y-90575687D01*
X127798142Y-90592184D01*
X127826055Y-90606349D01*
X127846598Y-90616937D01*
X127857340Y-90622705D01*
X127858306Y-90623324D01*
X127857140Y-90631365D01*
X127847993Y-90647320D01*
X127832872Y-90668570D01*
X127813779Y-90692495D01*
X127792720Y-90716477D01*
X127771701Y-90737894D01*
X127767941Y-90741399D01*
X127708140Y-90787257D01*
X127641872Y-90822020D01*
X127587333Y-90840358D01*
X127549872Y-90846762D01*
X127504167Y-90849937D01*
X127456147Y-90849784D01*
X127411739Y-90846207D01*
X127394730Y-90843496D01*
X127326860Y-90823590D01*
X127263755Y-90791726D01*
X127207610Y-90749539D01*
X127160620Y-90698662D01*
X127126585Y-90644021D01*
X127105479Y-90595604D01*
X127091263Y-90547956D01*
X127082988Y-90496540D01*
X127079700Y-90436818D01*
X127079545Y-90419574D01*
X127082578Y-90345092D01*
X127092524Y-90281335D01*
X127110294Y-90225812D01*
X127136797Y-90176034D01*
X127172944Y-90129510D01*
X127193263Y-90108317D01*
X127248491Y-90060530D01*
X127305171Y-90025669D01*
X127365701Y-90002839D01*
X127432479Y-89991145D01*
X127507904Y-89989693D01*
X127510844Y-89989822D01*
G37*
X127510844Y-89989822D02*
X127580258Y-89996616D01*
X127639943Y-90010751D01*
X127693224Y-90033226D01*
X127730171Y-90055598D01*
X127755309Y-90074958D01*
X127781652Y-90098800D01*
X127806822Y-90124512D01*
X127828441Y-90149480D01*
X127844131Y-90171092D01*
X127851517Y-90186736D01*
X127851790Y-90189239D01*
X127846310Y-90197698D01*
X127829548Y-90210358D01*
X127800808Y-90227677D01*
X127759394Y-90250112D01*
X127757765Y-90250965D01*
X127663879Y-90300071D01*
X127633799Y-90259353D01*
X127601895Y-90224266D01*
X127566710Y-90202328D01*
X127525710Y-90192197D01*
X127505168Y-90191133D01*
X127456372Y-90197230D01*
X127415172Y-90215433D01*
X127382490Y-90244961D01*
X127359248Y-90285032D01*
X127348021Y-90324427D01*
X127345379Y-90348318D01*
X127343813Y-90381773D01*
X127343344Y-90419878D01*
X127343989Y-90457720D01*
X127345767Y-90490387D01*
X127347336Y-90505115D01*
X127358275Y-90543346D01*
X127378679Y-90580390D01*
X127405617Y-90612295D01*
X127436155Y-90635110D01*
X127447816Y-90640471D01*
X127474518Y-90646223D01*
X127508767Y-90647884D01*
X127544232Y-90645613D01*
X127574582Y-90639566D01*
X127581454Y-90637156D01*
X127596543Y-90629247D01*
X127611453Y-90616816D01*
X127628179Y-90597667D01*
X127648715Y-90569605D01*
X127666070Y-90544017D01*
X127670389Y-90539057D01*
X127676475Y-90537163D01*
X127686529Y-90539037D01*
X127702751Y-90545381D01*
X127727339Y-90556899D01*
X127762495Y-90574291D01*
X127765289Y-90575687D01*
X127798142Y-90592184D01*
X127826055Y-90606349D01*
X127846598Y-90616937D01*
X127857340Y-90622705D01*
X127858306Y-90623324D01*
X127857140Y-90631365D01*
X127847993Y-90647320D01*
X127832872Y-90668570D01*
X127813779Y-90692495D01*
X127792720Y-90716477D01*
X127771701Y-90737894D01*
X127767941Y-90741399D01*
X127708140Y-90787257D01*
X127641872Y-90822020D01*
X127587333Y-90840358D01*
X127549872Y-90846762D01*
X127504167Y-90849937D01*
X127456147Y-90849784D01*
X127411739Y-90846207D01*
X127394730Y-90843496D01*
X127326860Y-90823590D01*
X127263755Y-90791726D01*
X127207610Y-90749539D01*
X127160620Y-90698662D01*
X127126585Y-90644021D01*
X127105479Y-90595604D01*
X127091263Y-90547956D01*
X127082988Y-90496540D01*
X127079700Y-90436818D01*
X127079545Y-90419574D01*
X127082578Y-90345092D01*
X127092524Y-90281335D01*
X127110294Y-90225812D01*
X127136797Y-90176034D01*
X127172944Y-90129510D01*
X127193263Y-90108317D01*
X127248491Y-90060530D01*
X127305171Y-90025669D01*
X127365701Y-90002839D01*
X127432479Y-89991145D01*
X127507904Y-89989693D01*
X127510844Y-89989822D01*
G36*
X130018711Y-89535308D02*
G01*
X130042720Y-89537793D01*
X130062875Y-89543261D01*
X130084496Y-89552797D01*
X130091536Y-89556344D01*
X130126864Y-89578545D01*
X130152004Y-89605027D01*
X130168398Y-89638365D01*
X130177487Y-89681132D01*
X130180133Y-89714573D01*
X130180513Y-89752191D01*
X130178594Y-89786499D01*
X130174689Y-89812148D01*
X130174317Y-89813602D01*
X130159278Y-89846269D01*
X130133977Y-89877467D01*
X130102458Y-89903273D01*
X130068763Y-89919761D01*
X130063387Y-89921285D01*
X130029161Y-89926708D01*
X129987729Y-89928680D01*
X129945690Y-89927221D01*
X129909643Y-89922353D01*
X129902864Y-89920746D01*
X129878541Y-89909686D01*
X129851193Y-89889882D01*
X129840040Y-89879768D01*
X129817719Y-89854869D01*
X129802644Y-89828876D01*
X129793834Y-89798484D01*
X129790304Y-89760388D01*
X129790926Y-89714573D01*
X129796103Y-89664435D01*
X129807664Y-89625371D01*
X129827051Y-89594806D01*
X129855705Y-89570167D01*
X129879523Y-89556344D01*
X129902507Y-89545475D01*
X129922537Y-89538977D01*
X129944930Y-89535766D01*
X129975007Y-89534756D01*
X129985530Y-89534721D01*
X130018711Y-89535308D01*
G37*
X130018711Y-89535308D02*
X130042720Y-89537793D01*
X130062875Y-89543261D01*
X130084496Y-89552797D01*
X130091536Y-89556344D01*
X130126864Y-89578545D01*
X130152004Y-89605027D01*
X130168398Y-89638365D01*
X130177487Y-89681132D01*
X130180133Y-89714573D01*
X130180513Y-89752191D01*
X130178594Y-89786499D01*
X130174689Y-89812148D01*
X130174317Y-89813602D01*
X130159278Y-89846269D01*
X130133977Y-89877467D01*
X130102458Y-89903273D01*
X130068763Y-89919761D01*
X130063387Y-89921285D01*
X130029161Y-89926708D01*
X129987729Y-89928680D01*
X129945690Y-89927221D01*
X129909643Y-89922353D01*
X129902864Y-89920746D01*
X129878541Y-89909686D01*
X129851193Y-89889882D01*
X129840040Y-89879768D01*
X129817719Y-89854869D01*
X129802644Y-89828876D01*
X129793834Y-89798484D01*
X129790304Y-89760388D01*
X129790926Y-89714573D01*
X129796103Y-89664435D01*
X129807664Y-89625371D01*
X129827051Y-89594806D01*
X129855705Y-89570167D01*
X129879523Y-89556344D01*
X129902507Y-89545475D01*
X129922537Y-89538977D01*
X129944930Y-89535766D01*
X129975007Y-89534756D01*
X129985530Y-89534721D01*
X130018711Y-89535308D01*
G36*
X130064124Y-89987804D02*
G01*
X130129518Y-89988002D01*
X130183022Y-89988524D01*
X130225949Y-89989530D01*
X130259613Y-89991177D01*
X130285326Y-89993625D01*
X130304400Y-89997030D01*
X130318148Y-90001552D01*
X130327883Y-90007349D01*
X130334916Y-90014579D01*
X130340562Y-90023400D01*
X130344635Y-90031079D01*
X130347421Y-90038313D01*
X130349708Y-90049111D01*
X130351543Y-90064814D01*
X130352972Y-90086764D01*
X130354040Y-90116304D01*
X130354796Y-90154775D01*
X130355283Y-90203518D01*
X130355550Y-90263876D01*
X130355642Y-90337191D01*
X130355644Y-90350270D01*
X130355644Y-90648174D01*
X130203392Y-90648174D01*
X130201503Y-90976559D01*
X130199615Y-91304945D01*
X129988661Y-91306867D01*
X129934714Y-91307193D01*
X129885526Y-91307173D01*
X129842954Y-91306834D01*
X129808859Y-91306202D01*
X129785097Y-91305302D01*
X129773528Y-91304161D01*
X129772761Y-91303843D01*
X129771738Y-91295782D01*
X129770787Y-91274687D01*
X129769930Y-91242040D01*
X129769188Y-91199320D01*
X129768584Y-91148008D01*
X129768140Y-91089585D01*
X129767879Y-91025531D01*
X129767815Y-90973536D01*
X129767815Y-90648174D01*
X129615415Y-90648174D01*
X129615415Y-90350270D01*
X129615483Y-90274749D01*
X129615719Y-90212399D01*
X129616168Y-90161880D01*
X129616877Y-90121849D01*
X129617892Y-90090965D01*
X129619260Y-90067885D01*
X129621027Y-90051268D01*
X129623238Y-90039773D01*
X129625941Y-90032057D01*
X129626424Y-90031079D01*
X129631888Y-90020973D01*
X129637765Y-90012575D01*
X129645367Y-90005729D01*
X129656008Y-90000275D01*
X129670999Y-89996055D01*
X129691654Y-89992911D01*
X129719284Y-89990684D01*
X129755203Y-89989216D01*
X129800723Y-89988350D01*
X129857157Y-89987926D01*
X129925817Y-89987787D01*
X129985530Y-89987774D01*
X130064124Y-89987804D01*
G37*
X130064124Y-89987804D02*
X130129518Y-89988002D01*
X130183022Y-89988524D01*
X130225949Y-89989530D01*
X130259613Y-89991177D01*
X130285326Y-89993625D01*
X130304400Y-89997030D01*
X130318148Y-90001552D01*
X130327883Y-90007349D01*
X130334916Y-90014579D01*
X130340562Y-90023400D01*
X130344635Y-90031079D01*
X130347421Y-90038313D01*
X130349708Y-90049111D01*
X130351543Y-90064814D01*
X130352972Y-90086764D01*
X130354040Y-90116304D01*
X130354796Y-90154775D01*
X130355283Y-90203518D01*
X130355550Y-90263876D01*
X130355642Y-90337191D01*
X130355644Y-90350270D01*
X130355644Y-90648174D01*
X130203392Y-90648174D01*
X130201503Y-90976559D01*
X130199615Y-91304945D01*
X129988661Y-91306867D01*
X129934714Y-91307193D01*
X129885526Y-91307173D01*
X129842954Y-91306834D01*
X129808859Y-91306202D01*
X129785097Y-91305302D01*
X129773528Y-91304161D01*
X129772761Y-91303843D01*
X129771738Y-91295782D01*
X129770787Y-91274687D01*
X129769930Y-91242040D01*
X129769188Y-91199320D01*
X129768584Y-91148008D01*
X129768140Y-91089585D01*
X129767879Y-91025531D01*
X129767815Y-90973536D01*
X129767815Y-90648174D01*
X129615415Y-90648174D01*
X129615415Y-90350270D01*
X129615483Y-90274749D01*
X129615719Y-90212399D01*
X129616168Y-90161880D01*
X129616877Y-90121849D01*
X129617892Y-90090965D01*
X129619260Y-90067885D01*
X129621027Y-90051268D01*
X129623238Y-90039773D01*
X129625941Y-90032057D01*
X129626424Y-90031079D01*
X129631888Y-90020973D01*
X129637765Y-90012575D01*
X129645367Y-90005729D01*
X129656008Y-90000275D01*
X129670999Y-89996055D01*
X129691654Y-89992911D01*
X129719284Y-89990684D01*
X129755203Y-89989216D01*
X129800723Y-89988350D01*
X129857157Y-89987926D01*
X129925817Y-89987787D01*
X129985530Y-89987774D01*
X130064124Y-89987804D01*
%LPC*%
D12*
X84641400Y-109738600D03*
X97798600Y-96581400D03*
X84641400Y-96581400D03*
X97798600Y-109738600D03*
X116848600Y-96581400D03*
X103691400Y-109738600D03*
X103691400Y-96581400D03*
X116848600Y-109738600D03*
X122741400Y-96581400D03*
X135898600Y-109738600D03*
X122741400Y-109738600D03*
X135898600Y-96581400D03*
X84641400Y-115631400D03*
X84641400Y-128788600D03*
X97798600Y-128788600D03*
X97798600Y-115631400D03*
X116848600Y-115631400D03*
X103691400Y-128788600D03*
X103691400Y-115631400D03*
X116848600Y-128788600D03*
X135898600Y-128788600D03*
X135898600Y-115631400D03*
X122741400Y-128788600D03*
X122741400Y-115631400D03*
X104320000Y-74110000D03*
X104320000Y-62210000D03*
X116220000Y-74110000D03*
X116220000Y-62210000D03*
D13*
X84600000Y-112685000D03*
X135940000Y-112685000D03*
X135940000Y-49730000D03*
X84600000Y-49730000D03*
M02*
