M48
; DRILL file {KiCad (6.0.4)} date Fri Aug 26 14:06:08 2022
; FORMAT={-:-/ absolute / metric / decimal}
; #@! TF.CreationDate,2022-08-26T14:06:08+02:00
; #@! TF.GenerationSoftware,Kicad,Pcbnew,(6.0.4)
; #@! TF.FileFunction,Plated,1,2,PTH
FMAT,2
METRIC
; #@! TA.AperFunction,Plated,PTH,ViaDrill
T1C0.400
; #@! TA.AperFunction,Plated,PTH,ComponentDrill
T2C0.750
; #@! TA.AperFunction,Plated,PTH,ComponentDrill
T3C0.800
; #@! TA.AperFunction,Plated,PTH,ComponentDrill
T4C1.000
; #@! TA.AperFunction,Plated,PTH,ComponentDrill
T5C1.092
%
G90
G05
T1
X83.3Y-108.4
X83.5Y-57.8
X83.66Y-100.62
X83.66Y-119.67
X84.9Y-69.3
X87.2Y-126.5
X87.4Y-107.5
X87.83Y-111.124
X88.6Y-129.7
X91.4Y-115.0
X95.2Y-107.5
X97.5Y-98.1
X97.5Y-117.1
X97.8Y-108.6
X98.0Y-127.4
X100.4Y-106.2
X100.4Y-125.1
X102.71Y-100.62
X102.71Y-119.67
X107.573Y-110.975
X107.6Y-125.1
X107.6Y-130.3
X107.7Y-106.2
X113.1Y-52.1
X114.2Y-126.5
X114.4Y-107.6
X114.8Y-52.1
X115.35Y-58.39
X116.6Y-98.1
X116.7Y-117.2
X118.275Y-108.643
X121.76Y-100.62
X121.76Y-119.67
X124.7Y-107.5
X124.8Y-126.6
X126.7Y-111.7
X126.8Y-130.5
X129.4Y-71.5
X133.3Y-126.6
X133.4Y-107.5
X135.7Y-98.1
X135.7Y-117.1
T2
X118.87Y-48.82
X118.87Y-50.82
T3
X107.79Y-64.06
X107.79Y-71.56
X112.77Y-64.09
X112.77Y-71.59
T4
X103.71Y-48.81
X106.25Y-48.81
X107.77Y-61.16
X107.77Y-75.66
X110.27Y-75.66
X112.77Y-61.16
X112.77Y-75.66
T5
X87.34Y-57.51
X87.34Y-60.05
X87.34Y-62.59
X87.34Y-65.13
X87.34Y-67.67
X87.34Y-70.21
X87.34Y-72.75
X87.34Y-75.29
X87.34Y-77.83
X87.34Y-80.37
X87.34Y-82.91
X87.34Y-85.45
X102.58Y-57.51
X102.58Y-60.05
X102.58Y-62.59
X102.58Y-65.13
X102.58Y-67.67
X102.58Y-70.21
X102.58Y-72.75
X102.58Y-75.29
X102.58Y-77.83
X102.58Y-80.37
X102.58Y-82.91
X102.58Y-85.45
T4
X104.97Y-68.76G85X104.97Y-67.56
G05
X115.57Y-68.76G85X115.57Y-67.56
G05
T0
M30
