M48
; DRILL file {KiCad (6.0.4)} date Fri Aug 26 14:06:08 2022
; FORMAT={-:-/ absolute / metric / decimal}
; #@! TF.CreationDate,2022-08-26T14:06:08+02:00
; #@! TF.GenerationSoftware,Kicad,Pcbnew,(6.0.4)
; #@! TF.FileFunction,NonPlated,1,2,NPTH
FMAT,2
METRIC
; #@! TA.AperFunction,NonPlated,NPTH,ComponentDrill
T1C0.850
; #@! TA.AperFunction,NonPlated,NPTH,ComponentDrill
T2C1.702
; #@! TA.AperFunction,NonPlated,NPTH,ComponentDrill
T3C3.000
; #@! TA.AperFunction,NonPlated,NPTH,ComponentDrill
T4C3.700
; #@! TA.AperFunction,NonPlated,NPTH,ComponentDrill
T5C3.988
%
G90
G05
T1
X111.04Y-48.75
X114.04Y-48.75
T2
X86.14Y-103.16
X86.14Y-122.21
X96.3Y-103.16
X96.3Y-122.21
X105.19Y-103.16
X105.19Y-122.21
X115.35Y-103.16
X115.35Y-122.21
X124.24Y-103.16
X124.24Y-122.21
X134.4Y-103.16
X134.4Y-122.21
T3
X87.41Y-100.62
X87.41Y-119.67
X93.76Y-98.08
X93.76Y-117.13
X106.46Y-100.62
X106.46Y-119.67
X112.81Y-98.08
X112.81Y-117.13
X125.51Y-100.62
X125.51Y-119.67
X131.86Y-98.08
X131.86Y-117.13
T4
X84.6Y-49.73
X84.6Y-112.685
X135.94Y-49.73
X135.94Y-112.685
T5
X91.22Y-103.16
X91.22Y-122.21
X110.27Y-103.16
X110.27Y-122.21
X129.32Y-103.16
X129.32Y-122.21
T0
M30
