M48
; DRILL file {KiCad (6.0.4)} date Thu Apr  7 14:18:01 2022
; FORMAT={-:-/ absolute / inch / decimal}
; #@! TF.CreationDate,2022-04-07T14:18:01+02:00
; #@! TF.GenerationSoftware,Kicad,Pcbnew,(6.0.4)
; #@! TF.FileFunction,Plated,1,2,PTH
FMAT,2
INCH
; #@! TA.AperFunction,Plated,PTH,ViaDrill
T1C0.0157
; #@! TA.AperFunction,Plated,PTH,ComponentDrill
T2C0.0295
; #@! TA.AperFunction,Plated,PTH,ComponentDrill
T3C0.0315
; #@! TA.AperFunction,Plated,PTH,ComponentDrill
T4C0.0394
; #@! TA.AperFunction,Plated,PTH,ComponentDrill
T5C0.0430
%
G90
G05
T1
X3.2795Y-4.2677
X3.2874Y-2.2756
X3.2937Y-3.9614
X3.2937Y-4.7114
X3.3425Y-2.7283
X3.4331Y-4.9803
X3.4409Y-4.2323
X3.4579Y-4.375
X3.4882Y-5.1063
X3.5984Y-4.5276
X3.748Y-4.2323
X3.8386Y-3.8622
X3.8386Y-4.6102
X3.8504Y-4.2756
X3.8583Y-5.0157
X3.9528Y-4.1811
X3.9528Y-4.9252
X4.0437Y-3.9614
X4.0437Y-4.7114
X4.2352Y-4.3691
X4.2362Y-4.9252
X4.2362Y-5.1299
X4.2402Y-4.1811
X4.4528Y-2.0512
X4.4961Y-4.9803
X4.5039Y-4.2362
X4.5197Y-2.0512
X4.5906Y-3.8622
X4.5945Y-4.6142
X4.6565Y-4.2773
X4.7205Y-2.563
X4.7937Y-3.9614
X4.7937Y-4.7114
X4.9094Y-4.2323
X4.9134Y-4.9843
X4.9882Y-4.3976
X4.9921Y-5.1378
X5.0945Y-2.815
X5.248Y-4.9843
X5.252Y-4.2323
X5.3425Y-3.8622
X5.3425Y-4.6102
T2
X4.6799Y-1.922
X4.6799Y-2.0008
T3
X4.1563Y-2.9783
X4.1563Y-3.2736
X4.5272Y-2.9791
X4.5272Y-3.2744
T4
X4.0831Y-1.9217
X4.1831Y-1.9217
X4.2429Y-2.4079
X4.2429Y-2.9787
X4.3413Y-2.9787
X4.4398Y-2.4079
X4.4398Y-2.9787
T5
X3.4386Y-2.2642
X3.4386Y-2.3642
X3.4386Y-2.4642
X3.4386Y-2.5642
X3.4386Y-2.6642
X3.4386Y-2.7642
X3.4386Y-2.8642
X3.4386Y-2.9642
X3.4386Y-3.0642
X3.4386Y-3.1642
X3.4386Y-3.2642
X3.4386Y-3.3642
X4.0386Y-2.2642
X4.0386Y-2.3642
X4.0386Y-2.4642
X4.0386Y-2.5642
X4.0386Y-2.6642
X4.0386Y-2.7642
X4.0386Y-2.8642
X4.0386Y-2.9642
X4.0386Y-3.0642
X4.0386Y-3.1642
X4.0386Y-3.2642
X4.0386Y-3.3642
T4
G00X4.1327Y-2.7071
M15
G01X4.1327Y-2.6598
M16
G05
G00X4.55Y-2.7071
M15
G01X4.55Y-2.6598
M16
G05
T0
M30
