%TF.GenerationSoftware,KiCad,Pcbnew,(6.0.4)*%
%TF.CreationDate,2022-04-07T14:17:58+02:00*%
%TF.ProjectId,Little Big Scroll 6,4c697474-6c65-4204-9269-67205363726f,v1.01*%
%TF.SameCoordinates,Original*%
%TF.FileFunction,Profile,NP*%
%FSLAX46Y46*%
G04 Gerber Fmt 4.6, Leading zero omitted, Abs format (unit mm)*
G04 Created by KiCad (PCBNEW (6.0.4)) date 2022-04-07 14:17:58*
%MOMM*%
%LPD*%
G01*
G04 APERTURE LIST*
%TA.AperFunction,Profile*%
%ADD10C,0.050000*%
%TD*%
%TA.AperFunction,Profile*%
%ADD11C,0.100000*%
%TD*%
G04 APERTURE END LIST*
D10*
X139890000Y-46780000D02*
G75*
G03*
X138890000Y-45780000I-1000000J0D01*
G01*
X138890000Y-132790000D02*
G75*
G03*
X139890000Y-131790000I0J1000000D01*
G01*
X101485000Y-85850000D02*
X101485000Y-46280000D01*
X139890000Y-46780000D02*
X139890000Y-131790000D01*
X101985000Y-45780000D02*
X138890000Y-45780000D01*
X81650000Y-45780000D02*
G75*
G03*
X80650000Y-46780000I0J-1000000D01*
G01*
X80647107Y-131790000D02*
X80650000Y-46780000D01*
X88485000Y-46280000D02*
G75*
G03*
X87985000Y-45780000I-500000J0D01*
G01*
X80647100Y-131790000D02*
G75*
G03*
X81647107Y-132790000I1000000J0D01*
G01*
X101985000Y-45780000D02*
G75*
G03*
X101485000Y-46280000I0J-500000D01*
G01*
X88485000Y-46280000D02*
X88485000Y-85850000D01*
X88485000Y-85850000D02*
X101485000Y-85850000D01*
X81650000Y-45780000D02*
X87985000Y-45780000D01*
X138890000Y-132790000D02*
X81647107Y-132790000D01*
D11*
X92014453Y-106740000D02*
G75*
G03*
X92266711Y-106671701I-3J500010D01*
G01*
X89470516Y-109159719D02*
G75*
G03*
X89520001Y-108942842I-450505J216876D01*
G01*
X92969486Y-107320280D02*
G75*
G03*
X92919999Y-107537156I450414J-216860D01*
G01*
X89520001Y-107537157D02*
G75*
G03*
X89470516Y-107320279I-499990J2D01*
G01*
X92266711Y-109808298D02*
G75*
G03*
X92014452Y-109739999I-252261J-431712D01*
G01*
X90425548Y-109739999D02*
G75*
G03*
X90173290Y-109808298I3J-500009D01*
G01*
X89470516Y-109159719D02*
G75*
G03*
X90173289Y-109808296I450515J-216877D01*
G01*
X90173289Y-106671700D02*
G75*
G03*
X90425547Y-106739999I252261J431710D01*
G01*
X92919985Y-108942841D02*
G75*
G03*
X92969484Y-109159719I499615J-59D01*
G01*
X90173289Y-106671700D02*
G75*
G03*
X89470516Y-107320279I-252258J-431701D01*
G01*
X92266711Y-109808298D02*
G75*
G03*
X92969484Y-109159718I252259J431700D01*
G01*
X92969484Y-107320279D02*
G75*
G03*
X92266711Y-106671701I-450514J216879D01*
G01*
X90425548Y-106740000D02*
X92014453Y-106740000D01*
X92014452Y-109739999D02*
X90425548Y-109739999D01*
X89520001Y-108942841D02*
X89520001Y-107537157D01*
X92919999Y-107537157D02*
X92919999Y-108942841D01*
X111969999Y-107537157D02*
X111969999Y-108942841D01*
X108570001Y-108942841D02*
X108570001Y-107537157D01*
X111064452Y-109739999D02*
X109475548Y-109739999D01*
X109475548Y-106740000D02*
X111064453Y-106740000D01*
X111316711Y-109808298D02*
G75*
G03*
X112019484Y-109159718I252259J431700D01*
G01*
X111969985Y-108942841D02*
G75*
G03*
X112019484Y-109159719I499615J-59D01*
G01*
X112019486Y-107320280D02*
G75*
G03*
X111969999Y-107537156I450414J-216860D01*
G01*
X108520516Y-109159719D02*
G75*
G03*
X109223289Y-109808296I450515J-216877D01*
G01*
X109223289Y-106671700D02*
G75*
G03*
X108520516Y-107320279I-252258J-431701D01*
G01*
X111064453Y-106740000D02*
G75*
G03*
X111316711Y-106671701I-3J500010D01*
G01*
X109223289Y-106671700D02*
G75*
G03*
X109475547Y-106739999I252261J431710D01*
G01*
X112019484Y-107320279D02*
G75*
G03*
X111316711Y-106671701I-450514J216879D01*
G01*
X108520516Y-109159719D02*
G75*
G03*
X108570001Y-108942842I-450505J216876D01*
G01*
X111316711Y-109808298D02*
G75*
G03*
X111064452Y-109739999I-252261J-431712D01*
G01*
X108570001Y-107537157D02*
G75*
G03*
X108520516Y-107320279I-499990J2D01*
G01*
X109475548Y-109739999D02*
G75*
G03*
X109223290Y-109808298I3J-500009D01*
G01*
X127620001Y-108942841D02*
X127620001Y-107537157D01*
X128525548Y-106740000D02*
X130114453Y-106740000D01*
X131019999Y-107537157D02*
X131019999Y-108942841D01*
X130114452Y-109739999D02*
X128525548Y-109739999D01*
X127570516Y-109159719D02*
G75*
G03*
X127620001Y-108942842I-450505J216876D01*
G01*
X130366711Y-109808298D02*
G75*
G03*
X131069484Y-109159718I252259J431700D01*
G01*
X130114453Y-106740000D02*
G75*
G03*
X130366711Y-106671701I-3J500010D01*
G01*
X127570516Y-109159719D02*
G75*
G03*
X128273289Y-109808296I450515J-216877D01*
G01*
X131069486Y-107320280D02*
G75*
G03*
X131019999Y-107537156I450414J-216860D01*
G01*
X128525548Y-109739999D02*
G75*
G03*
X128273290Y-109808298I3J-500009D01*
G01*
X128273289Y-106671700D02*
G75*
G03*
X127570516Y-107320279I-252258J-431701D01*
G01*
X130366711Y-109808298D02*
G75*
G03*
X130114452Y-109739999I-252261J-431712D01*
G01*
X131069484Y-107320279D02*
G75*
G03*
X130366711Y-106671701I-450514J216879D01*
G01*
X128273289Y-106671700D02*
G75*
G03*
X128525547Y-106739999I252261J431710D01*
G01*
X131019985Y-108942841D02*
G75*
G03*
X131069484Y-109159719I499615J-59D01*
G01*
X127620001Y-107537157D02*
G75*
G03*
X127570516Y-107320279I-499990J2D01*
G01*
X92919999Y-126587157D02*
X92919999Y-127992841D01*
X92014452Y-128789999D02*
X90425548Y-128789999D01*
X89520001Y-127992841D02*
X89520001Y-126587157D01*
X90425548Y-125790000D02*
X92014453Y-125790000D01*
X89470516Y-128209719D02*
G75*
G03*
X90173289Y-128858296I450515J-216877D01*
G01*
X92919985Y-127992841D02*
G75*
G03*
X92969484Y-128209719I499615J-59D01*
G01*
X90173289Y-125721700D02*
G75*
G03*
X89470516Y-126370279I-252258J-431701D01*
G01*
X92014453Y-125790000D02*
G75*
G03*
X92266711Y-125721701I-3J500010D01*
G01*
X92266711Y-128858298D02*
G75*
G03*
X92014452Y-128789999I-252261J-431712D01*
G01*
X92969484Y-126370279D02*
G75*
G03*
X92266711Y-125721701I-450514J216879D01*
G01*
X90173289Y-125721700D02*
G75*
G03*
X90425547Y-125789999I252261J431710D01*
G01*
X92969486Y-126370280D02*
G75*
G03*
X92919999Y-126587156I450414J-216860D01*
G01*
X89470516Y-128209719D02*
G75*
G03*
X89520001Y-127992842I-450505J216876D01*
G01*
X92266711Y-128858298D02*
G75*
G03*
X92969484Y-128209718I252259J431700D01*
G01*
X90425548Y-128789999D02*
G75*
G03*
X90173290Y-128858298I3J-500009D01*
G01*
X89520001Y-126587157D02*
G75*
G03*
X89470516Y-126370279I-499990J2D01*
G01*
X111064452Y-128789999D02*
X109475548Y-128789999D01*
X108570001Y-127992841D02*
X108570001Y-126587157D01*
X111969999Y-126587157D02*
X111969999Y-127992841D01*
X109475548Y-125790000D02*
X111064453Y-125790000D01*
X111316711Y-128858298D02*
G75*
G03*
X111064452Y-128789999I-252261J-431712D01*
G01*
X109223289Y-125721700D02*
G75*
G03*
X109475547Y-125789999I252261J431710D01*
G01*
X112019486Y-126370280D02*
G75*
G03*
X111969999Y-126587156I450414J-216860D01*
G01*
X109223289Y-125721700D02*
G75*
G03*
X108520516Y-126370279I-252258J-431701D01*
G01*
X111064453Y-125790000D02*
G75*
G03*
X111316711Y-125721701I-3J500010D01*
G01*
X108520516Y-128209719D02*
G75*
G03*
X108570001Y-127992842I-450505J216876D01*
G01*
X108570001Y-126587157D02*
G75*
G03*
X108520516Y-126370279I-499990J2D01*
G01*
X109475548Y-128789999D02*
G75*
G03*
X109223290Y-128858298I3J-500009D01*
G01*
X108520516Y-128209719D02*
G75*
G03*
X109223289Y-128858296I450515J-216877D01*
G01*
X111316711Y-128858298D02*
G75*
G03*
X112019484Y-128209718I252259J431700D01*
G01*
X111969985Y-127992841D02*
G75*
G03*
X112019484Y-128209719I499615J-59D01*
G01*
X112019484Y-126370279D02*
G75*
G03*
X111316711Y-125721701I-450514J216879D01*
G01*
X127620001Y-127992841D02*
X127620001Y-126587157D01*
X131019999Y-126587157D02*
X131019999Y-127992841D01*
X128525548Y-125790000D02*
X130114453Y-125790000D01*
X130114452Y-128789999D02*
X128525548Y-128789999D01*
X127620001Y-126587157D02*
G75*
G03*
X127570516Y-126370279I-499990J2D01*
G01*
X130114453Y-125790000D02*
G75*
G03*
X130366711Y-125721701I-3J500010D01*
G01*
X128273289Y-125721700D02*
G75*
G03*
X128525547Y-125789999I252261J431710D01*
G01*
X128525548Y-128789999D02*
G75*
G03*
X128273290Y-128858298I3J-500009D01*
G01*
X131069484Y-126370279D02*
G75*
G03*
X130366711Y-125721701I-450514J216879D01*
G01*
X127570516Y-128209719D02*
G75*
G03*
X127620001Y-127992842I-450505J216876D01*
G01*
X128273289Y-125721700D02*
G75*
G03*
X127570516Y-126370279I-252258J-431701D01*
G01*
X131019985Y-127992841D02*
G75*
G03*
X131069484Y-128209719I499615J-59D01*
G01*
X131069486Y-126370280D02*
G75*
G03*
X131019999Y-126587156I450414J-216860D01*
G01*
X130366711Y-128858298D02*
G75*
G03*
X130114452Y-128789999I-252261J-431712D01*
G01*
X130366711Y-128858298D02*
G75*
G03*
X131069484Y-128209718I252259J431700D01*
G01*
X127570516Y-128209719D02*
G75*
G03*
X128273289Y-128858296I450515J-216877D01*
G01*
X108570001Y-57822843D02*
X108570001Y-56417159D01*
X111064452Y-58620000D02*
X109475547Y-58620000D01*
X109475548Y-55620001D02*
X111064452Y-55620001D01*
X111969999Y-56417159D02*
X111969999Y-57822843D01*
X109223289Y-55551702D02*
G75*
G03*
X109475548Y-55620001I252261J431712D01*
G01*
X108570015Y-56417159D02*
G75*
G03*
X108520516Y-56200281I-499615J59D01*
G01*
X108520514Y-58039720D02*
G75*
G03*
X108570001Y-57822844I-450414J216860D01*
G01*
X109223289Y-55551702D02*
G75*
G03*
X108520516Y-56200282I-252259J-431700D01*
G01*
X111316711Y-58688300D02*
G75*
G03*
X111064453Y-58620001I-252261J-431710D01*
G01*
X112019484Y-56200281D02*
G75*
G03*
X111969999Y-56417158I450505J-216876D01*
G01*
X108520516Y-58039721D02*
G75*
G03*
X109223289Y-58688299I450514J-216879D01*
G01*
X111316711Y-58688300D02*
G75*
G03*
X112019484Y-58039721I252258J431701D01*
G01*
X109475547Y-58620000D02*
G75*
G03*
X109223289Y-58688299I3J-500010D01*
G01*
X111064452Y-55620001D02*
G75*
G03*
X111316710Y-55551702I-3J500009D01*
G01*
X112019484Y-56200281D02*
G75*
G03*
X111316711Y-55551704I-450515J216877D01*
G01*
X111969999Y-57822843D02*
G75*
G03*
X112019484Y-58039721I499990J-2D01*
G01*
X111969999Y-79412159D02*
X111969999Y-80817843D01*
X109475548Y-78615001D02*
X111064452Y-78615001D01*
X111064452Y-81615000D02*
X109475547Y-81615000D01*
X108570001Y-80817843D02*
X108570001Y-79412159D01*
X112019484Y-79195281D02*
G75*
G03*
X111969999Y-79412158I450505J-216876D01*
G01*
X112019484Y-79195281D02*
G75*
G03*
X111316711Y-78546704I-450515J216877D01*
G01*
X108520516Y-81034721D02*
G75*
G03*
X109223289Y-81683299I450514J-216879D01*
G01*
X108520514Y-81034720D02*
G75*
G03*
X108570001Y-80817844I-450414J216860D01*
G01*
X111316711Y-81683300D02*
G75*
G03*
X112019484Y-81034721I252258J431701D01*
G01*
X109223289Y-78546702D02*
G75*
G03*
X108520516Y-79195282I-252259J-431700D01*
G01*
X108570015Y-79412159D02*
G75*
G03*
X108520516Y-79195281I-499615J59D01*
G01*
X109475547Y-81615000D02*
G75*
G03*
X109223289Y-81683299I3J-500010D01*
G01*
X111969999Y-80817843D02*
G75*
G03*
X112019484Y-81034721I499990J-2D01*
G01*
X109223289Y-78546702D02*
G75*
G03*
X109475548Y-78615001I252261J431712D01*
G01*
X111316711Y-81683300D02*
G75*
G03*
X111064453Y-81615001I-252261J-431710D01*
G01*
X111064452Y-78615001D02*
G75*
G03*
X111316710Y-78546702I-3J500009D01*
G01*
M02*
