%TF.GenerationSoftware,KiCad,Pcbnew,(6.0.4)*%
%TF.CreationDate,2022-04-07T13:37:56+02:00*%
%TF.ProjectId,LSB1 Bottom Plate,4c534231-2042-46f7-9474-6f6d20506c61,v1.0*%
%TF.SameCoordinates,Original*%
%TF.FileFunction,Copper,L1,Top*%
%TF.FilePolarity,Positive*%
%FSLAX46Y46*%
G04 Gerber Fmt 4.6, Leading zero omitted, Abs format (unit mm)*
G04 Created by KiCad (PCBNEW (6.0.4)) date 2022-04-07 13:37:56*
%MOMM*%
%LPD*%
G01*
G04 APERTURE LIST*
G04 APERTURE END LIST*
%TA.AperFunction,NonConductor*%
G36*
X55582705Y-38729337D02*
G01*
X56497554Y-38767681D01*
X56502812Y-38768012D01*
X56737685Y-38787734D01*
X57415289Y-38844634D01*
X57420538Y-38845186D01*
X57797652Y-38892827D01*
X58328973Y-38959949D01*
X58334160Y-38960713D01*
X59237058Y-39113427D01*
X59242220Y-39114412D01*
X59607682Y-39192093D01*
X60137909Y-39304797D01*
X60143047Y-39306003D01*
X61029922Y-39533714D01*
X61035005Y-39535133D01*
X61911602Y-39799793D01*
X61916621Y-39801424D01*
X62455521Y-39989088D01*
X62781348Y-40102553D01*
X62786272Y-40104384D01*
X63192834Y-40265353D01*
X63637665Y-40441474D01*
X63642530Y-40443519D01*
X64479037Y-40815956D01*
X64483812Y-40818203D01*
X65303984Y-41225340D01*
X65308661Y-41227785D01*
X66111078Y-41668918D01*
X66115648Y-41671557D01*
X66357059Y-41817760D01*
X66898883Y-42145900D01*
X66903317Y-42148714D01*
X67652736Y-42646627D01*
X67666002Y-42655441D01*
X67670336Y-42658453D01*
X68411129Y-43196671D01*
X68415333Y-43199862D01*
X69132942Y-43768631D01*
X69137008Y-43771995D01*
X69830155Y-44370304D01*
X69834077Y-44373835D01*
X70501566Y-45000649D01*
X70505336Y-45004341D01*
X71146024Y-45658589D01*
X71149637Y-45662437D01*
X71762312Y-46342883D01*
X71765761Y-46346878D01*
X72349430Y-47052412D01*
X72352708Y-47056548D01*
X72906332Y-47785921D01*
X72909434Y-47790190D01*
X73069437Y-48020404D01*
X73427901Y-48536165D01*
X73432023Y-48542096D01*
X73434943Y-48546492D01*
X73925572Y-49319601D01*
X73928306Y-49324115D01*
X74386139Y-50117104D01*
X74388682Y-50121729D01*
X74812916Y-50933215D01*
X74815262Y-50937942D01*
X75205125Y-51766442D01*
X75207272Y-51771263D01*
X75546696Y-52578720D01*
X75562111Y-52615392D01*
X75564047Y-52620282D01*
X75883237Y-53478555D01*
X75884972Y-53483539D01*
X76167926Y-54354384D01*
X76169451Y-54359436D01*
X76415688Y-55241357D01*
X76417001Y-55246469D01*
X76626098Y-56137960D01*
X76627195Y-56143122D01*
X76751656Y-56795566D01*
X76798774Y-57042568D01*
X76799651Y-57047750D01*
X76897246Y-57708660D01*
X76933416Y-57953603D01*
X76934078Y-57958839D01*
X77029794Y-58869519D01*
X77030235Y-58874778D01*
X77087729Y-59788625D01*
X77087950Y-59793898D01*
X77107127Y-60709365D01*
X77107127Y-60714643D01*
X77087950Y-61630110D01*
X77087729Y-61635383D01*
X77030235Y-62549230D01*
X77029795Y-62554474D01*
X76979053Y-63037260D01*
X76934078Y-63465169D01*
X76933419Y-63470382D01*
X76832657Y-64152740D01*
X76799654Y-64376237D01*
X76798774Y-64381440D01*
X76627195Y-65280886D01*
X76626098Y-65286048D01*
X76417001Y-66177539D01*
X76415688Y-66182651D01*
X76169451Y-67064572D01*
X76167926Y-67069624D01*
X75884972Y-67940469D01*
X75883241Y-67945443D01*
X75632581Y-68619447D01*
X75564054Y-68803709D01*
X75562111Y-68808616D01*
X75207272Y-69652745D01*
X75205125Y-69657566D01*
X74815262Y-70486066D01*
X74812916Y-70490793D01*
X74388682Y-71302279D01*
X74386139Y-71306904D01*
X73928306Y-72099893D01*
X73925572Y-72104407D01*
X73922500Y-72109248D01*
X73436010Y-72875835D01*
X73434943Y-72877516D01*
X73432033Y-72881897D01*
X73256917Y-73133856D01*
X72909434Y-73633818D01*
X72906332Y-73638087D01*
X72352708Y-74367460D01*
X72349430Y-74371596D01*
X71765761Y-75077130D01*
X71762312Y-75081125D01*
X71149637Y-75761571D01*
X71146024Y-75765419D01*
X70505336Y-76419667D01*
X70501566Y-76423359D01*
X69834077Y-77050173D01*
X69830155Y-77053704D01*
X69137008Y-77652013D01*
X69132945Y-77655375D01*
X68434977Y-78208576D01*
X68415333Y-78224146D01*
X68411129Y-78227337D01*
X67670336Y-78765555D01*
X67666002Y-78768567D01*
X66903317Y-79275294D01*
X66898883Y-79278108D01*
X66779072Y-79350668D01*
X66115648Y-79752451D01*
X66111078Y-79755090D01*
X65308661Y-80196223D01*
X65303984Y-80198668D01*
X64483812Y-80605805D01*
X64479037Y-80608052D01*
X63642530Y-80980489D01*
X63637665Y-80982534D01*
X62786272Y-81319624D01*
X62781348Y-81321455D01*
X62455521Y-81434920D01*
X61916621Y-81622584D01*
X61911602Y-81624215D01*
X61035005Y-81888875D01*
X61029922Y-81890294D01*
X60143047Y-82118005D01*
X60137909Y-82119211D01*
X59607682Y-82231915D01*
X59242220Y-82309596D01*
X59237058Y-82310581D01*
X58334160Y-82463295D01*
X58328973Y-82464059D01*
X57797652Y-82531181D01*
X57420538Y-82578822D01*
X57415289Y-82579374D01*
X56737685Y-82636274D01*
X56502812Y-82655996D01*
X56497554Y-82656327D01*
X55695758Y-82689933D01*
X55582704Y-82694671D01*
X55577428Y-82694782D01*
X54661736Y-82694782D01*
X54656460Y-82694671D01*
X54543406Y-82689933D01*
X53741610Y-82656327D01*
X53736352Y-82655996D01*
X53501479Y-82636274D01*
X52823875Y-82579374D01*
X52818626Y-82578822D01*
X52441512Y-82531181D01*
X51910191Y-82464059D01*
X51905004Y-82463295D01*
X51002106Y-82310581D01*
X50996944Y-82309596D01*
X50631482Y-82231915D01*
X50101255Y-82119211D01*
X50096117Y-82118005D01*
X49209242Y-81890294D01*
X49204159Y-81888875D01*
X48327562Y-81624215D01*
X48322543Y-81622584D01*
X47783643Y-81434920D01*
X47457816Y-81321455D01*
X47452892Y-81319624D01*
X46601499Y-80982534D01*
X46596634Y-80980489D01*
X45760127Y-80608052D01*
X45755352Y-80605805D01*
X44935180Y-80198668D01*
X44930503Y-80196223D01*
X44128086Y-79755090D01*
X44123516Y-79752451D01*
X43460092Y-79350668D01*
X43340281Y-79278108D01*
X43335847Y-79275294D01*
X42573162Y-78768567D01*
X42568828Y-78765555D01*
X41828035Y-78227337D01*
X41823831Y-78224146D01*
X41804187Y-78208576D01*
X41106219Y-77655375D01*
X41102156Y-77652013D01*
X40409009Y-77053704D01*
X40405087Y-77050173D01*
X39737598Y-76423359D01*
X39733828Y-76419667D01*
X39093140Y-75765419D01*
X39089527Y-75761571D01*
X38476852Y-75081125D01*
X38473403Y-75077130D01*
X37889734Y-74371596D01*
X37886456Y-74367460D01*
X37332832Y-73638087D01*
X37329730Y-73633818D01*
X36982247Y-73133856D01*
X36807131Y-72881897D01*
X36804221Y-72877516D01*
X36803155Y-72875835D01*
X36776904Y-72834470D01*
X41337043Y-72834470D01*
X41372289Y-73093453D01*
X41373597Y-73097939D01*
X41373597Y-73097941D01*
X41393283Y-73165479D01*
X41445428Y-73344382D01*
X41447388Y-73348635D01*
X41447389Y-73348636D01*
X41463214Y-73382963D01*
X41554853Y-73581743D01*
X41557416Y-73585652D01*
X41695595Y-73796411D01*
X41695599Y-73796416D01*
X41698161Y-73800324D01*
X41872203Y-73995321D01*
X42073155Y-74162452D01*
X42077158Y-74164881D01*
X42292607Y-74295619D01*
X42292611Y-74295621D01*
X42296604Y-74298044D01*
X42537640Y-74399118D01*
X42790968Y-74463456D01*
X42795619Y-74463924D01*
X42795623Y-74463925D01*
X42988493Y-74483346D01*
X43008052Y-74485315D01*
X43163539Y-74485315D01*
X43165864Y-74485142D01*
X43165870Y-74485142D01*
X43353185Y-74471222D01*
X43353189Y-74471221D01*
X43357837Y-74470876D01*
X43362385Y-74469847D01*
X43362391Y-74469846D01*
X43548786Y-74427668D01*
X43612762Y-74413192D01*
X43648954Y-74399118D01*
X43852009Y-74320155D01*
X43852012Y-74320154D01*
X43856362Y-74318462D01*
X44083283Y-74188766D01*
X44288542Y-74026953D01*
X44467628Y-73836578D01*
X44606781Y-73635991D01*
X44613944Y-73625666D01*
X44613946Y-73625663D01*
X44616609Y-73621824D01*
X44638469Y-73577497D01*
X44730145Y-73391596D01*
X44730146Y-73391593D01*
X44732210Y-73387408D01*
X44811892Y-73138480D01*
X44853906Y-72880508D01*
X44854509Y-72834470D01*
X65378673Y-72834470D01*
X65413919Y-73093453D01*
X65415227Y-73097939D01*
X65415227Y-73097941D01*
X65434913Y-73165479D01*
X65487058Y-73344382D01*
X65489018Y-73348635D01*
X65489019Y-73348636D01*
X65504844Y-73382963D01*
X65596483Y-73581743D01*
X65599046Y-73585652D01*
X65737225Y-73796411D01*
X65737229Y-73796416D01*
X65739791Y-73800324D01*
X65913833Y-73995321D01*
X66114785Y-74162452D01*
X66118788Y-74164881D01*
X66334237Y-74295619D01*
X66334241Y-74295621D01*
X66338234Y-74298044D01*
X66579270Y-74399118D01*
X66832598Y-74463456D01*
X66837249Y-74463924D01*
X66837253Y-74463925D01*
X67030123Y-74483346D01*
X67049682Y-74485315D01*
X67205169Y-74485315D01*
X67207494Y-74485142D01*
X67207500Y-74485142D01*
X67394815Y-74471222D01*
X67394819Y-74471221D01*
X67399467Y-74470876D01*
X67404015Y-74469847D01*
X67404021Y-74469846D01*
X67590416Y-74427668D01*
X67654392Y-74413192D01*
X67690584Y-74399118D01*
X67893639Y-74320155D01*
X67893642Y-74320154D01*
X67897992Y-74318462D01*
X68124913Y-74188766D01*
X68330172Y-74026953D01*
X68509258Y-73836578D01*
X68648411Y-73635991D01*
X68655574Y-73625666D01*
X68655576Y-73625663D01*
X68658239Y-73621824D01*
X68680099Y-73577497D01*
X68771775Y-73391596D01*
X68771776Y-73391593D01*
X68773840Y-73387408D01*
X68853522Y-73138480D01*
X68895536Y-72880508D01*
X68898957Y-72619160D01*
X68863711Y-72360177D01*
X68849288Y-72310692D01*
X68791883Y-72113747D01*
X68790572Y-72109248D01*
X68681147Y-71871887D01*
X68631998Y-71796922D01*
X68540405Y-71657219D01*
X68540401Y-71657214D01*
X68537839Y-71653306D01*
X68363797Y-71458309D01*
X68162845Y-71291178D01*
X68115659Y-71262545D01*
X67943393Y-71158011D01*
X67943389Y-71158009D01*
X67939396Y-71155586D01*
X67698360Y-71054512D01*
X67445032Y-70990174D01*
X67440381Y-70989706D01*
X67440377Y-70989705D01*
X67231086Y-70968631D01*
X67227948Y-70968315D01*
X67072461Y-70968315D01*
X67070136Y-70968488D01*
X67070130Y-70968488D01*
X66882815Y-70982408D01*
X66882811Y-70982409D01*
X66878163Y-70982754D01*
X66873615Y-70983783D01*
X66873609Y-70983784D01*
X66687214Y-71025962D01*
X66623238Y-71040438D01*
X66618886Y-71042130D01*
X66618884Y-71042131D01*
X66383991Y-71133475D01*
X66383988Y-71133476D01*
X66379638Y-71135168D01*
X66375584Y-71137485D01*
X66375582Y-71137486D01*
X66295619Y-71183189D01*
X66152717Y-71264864D01*
X65947458Y-71426677D01*
X65768372Y-71617052D01*
X65619391Y-71831806D01*
X65503790Y-72066222D01*
X65424108Y-72315150D01*
X65382094Y-72573122D01*
X65378673Y-72834470D01*
X44854509Y-72834470D01*
X44857327Y-72619160D01*
X44822081Y-72360177D01*
X44807658Y-72310692D01*
X44750253Y-72113747D01*
X44748942Y-72109248D01*
X44639517Y-71871887D01*
X44590368Y-71796922D01*
X44498775Y-71657219D01*
X44498771Y-71657214D01*
X44496209Y-71653306D01*
X44322167Y-71458309D01*
X44121215Y-71291178D01*
X44074029Y-71262545D01*
X43901763Y-71158011D01*
X43901759Y-71158009D01*
X43897766Y-71155586D01*
X43656730Y-71054512D01*
X43403402Y-70990174D01*
X43398751Y-70989706D01*
X43398747Y-70989705D01*
X43189456Y-70968631D01*
X43186318Y-70968315D01*
X43030831Y-70968315D01*
X43028506Y-70968488D01*
X43028500Y-70968488D01*
X42841185Y-70982408D01*
X42841181Y-70982409D01*
X42836533Y-70982754D01*
X42831985Y-70983783D01*
X42831979Y-70983784D01*
X42645584Y-71025962D01*
X42581608Y-71040438D01*
X42577256Y-71042130D01*
X42577254Y-71042131D01*
X42342361Y-71133475D01*
X42342358Y-71133476D01*
X42338008Y-71135168D01*
X42333954Y-71137485D01*
X42333952Y-71137486D01*
X42253989Y-71183189D01*
X42111087Y-71264864D01*
X41905828Y-71426677D01*
X41726742Y-71617052D01*
X41577761Y-71831806D01*
X41462160Y-72066222D01*
X41382478Y-72315150D01*
X41340464Y-72573122D01*
X41337043Y-72834470D01*
X36776904Y-72834470D01*
X36316664Y-72109248D01*
X36313592Y-72104407D01*
X36310858Y-72099893D01*
X35853025Y-71306904D01*
X35850482Y-71302279D01*
X35426248Y-70490793D01*
X35423902Y-70486066D01*
X35034039Y-69657566D01*
X35031892Y-69652745D01*
X34677053Y-68808616D01*
X34675110Y-68803709D01*
X34606584Y-68619447D01*
X34355923Y-67945443D01*
X34354192Y-67940469D01*
X34071238Y-67069624D01*
X34069713Y-67064572D01*
X33823476Y-66182651D01*
X33822163Y-66177539D01*
X33613066Y-65286048D01*
X33611969Y-65280886D01*
X33440390Y-64381440D01*
X33439510Y-64376237D01*
X33406507Y-64152740D01*
X33305745Y-63470382D01*
X33305086Y-63465169D01*
X33260112Y-63037260D01*
X33209369Y-62554474D01*
X33208929Y-62549230D01*
X33151435Y-61635383D01*
X33151214Y-61630110D01*
X33132037Y-60714643D01*
X33132037Y-60709365D01*
X33151214Y-59793898D01*
X33151435Y-59788625D01*
X33208929Y-58874778D01*
X33209370Y-58869519D01*
X33305086Y-57958839D01*
X33305748Y-57953603D01*
X33341919Y-57708660D01*
X33439513Y-57047750D01*
X33440390Y-57042568D01*
X33487509Y-56795566D01*
X33611969Y-56143122D01*
X33613066Y-56137960D01*
X33822163Y-55246469D01*
X33823476Y-55241357D01*
X34069713Y-54359436D01*
X34071238Y-54354384D01*
X34354192Y-53483539D01*
X34355927Y-53478555D01*
X34675117Y-52620282D01*
X34677053Y-52615392D01*
X34692469Y-52578720D01*
X35031892Y-51771263D01*
X35034039Y-51766442D01*
X35423902Y-50937942D01*
X35426248Y-50933215D01*
X35850482Y-50121729D01*
X35853025Y-50117104D01*
X36310858Y-49324115D01*
X36313592Y-49319601D01*
X36647884Y-48792840D01*
X41337043Y-48792840D01*
X41372289Y-49051823D01*
X41373597Y-49056309D01*
X41373597Y-49056311D01*
X41393283Y-49123849D01*
X41445428Y-49302752D01*
X41447388Y-49307005D01*
X41447389Y-49307006D01*
X41454224Y-49321833D01*
X41554853Y-49540113D01*
X41557416Y-49544022D01*
X41695595Y-49754781D01*
X41695599Y-49754786D01*
X41698161Y-49758694D01*
X41872203Y-49953691D01*
X42073155Y-50120822D01*
X42077158Y-50123251D01*
X42292607Y-50253989D01*
X42292611Y-50253991D01*
X42296604Y-50256414D01*
X42537640Y-50357488D01*
X42790968Y-50421826D01*
X42795619Y-50422294D01*
X42795623Y-50422295D01*
X42988493Y-50441716D01*
X43008052Y-50443685D01*
X43163539Y-50443685D01*
X43165864Y-50443512D01*
X43165870Y-50443512D01*
X43353185Y-50429592D01*
X43353189Y-50429591D01*
X43357837Y-50429246D01*
X43362385Y-50428217D01*
X43362391Y-50428216D01*
X43548786Y-50386038D01*
X43612762Y-50371562D01*
X43648954Y-50357488D01*
X43852009Y-50278525D01*
X43852012Y-50278524D01*
X43856362Y-50276832D01*
X44083283Y-50147136D01*
X44288542Y-49985323D01*
X44467628Y-49794948D01*
X44616609Y-49580194D01*
X44732210Y-49345778D01*
X44811892Y-49096850D01*
X44853906Y-48838878D01*
X44854509Y-48792840D01*
X65378673Y-48792840D01*
X65413919Y-49051823D01*
X65415227Y-49056309D01*
X65415227Y-49056311D01*
X65434913Y-49123849D01*
X65487058Y-49302752D01*
X65489018Y-49307005D01*
X65489019Y-49307006D01*
X65495854Y-49321833D01*
X65596483Y-49540113D01*
X65599046Y-49544022D01*
X65737225Y-49754781D01*
X65737229Y-49754786D01*
X65739791Y-49758694D01*
X65913833Y-49953691D01*
X66114785Y-50120822D01*
X66118788Y-50123251D01*
X66334237Y-50253989D01*
X66334241Y-50253991D01*
X66338234Y-50256414D01*
X66579270Y-50357488D01*
X66832598Y-50421826D01*
X66837249Y-50422294D01*
X66837253Y-50422295D01*
X67030123Y-50441716D01*
X67049682Y-50443685D01*
X67205169Y-50443685D01*
X67207494Y-50443512D01*
X67207500Y-50443512D01*
X67394815Y-50429592D01*
X67394819Y-50429591D01*
X67399467Y-50429246D01*
X67404015Y-50428217D01*
X67404021Y-50428216D01*
X67590416Y-50386038D01*
X67654392Y-50371562D01*
X67690584Y-50357488D01*
X67893639Y-50278525D01*
X67893642Y-50278524D01*
X67897992Y-50276832D01*
X68124913Y-50147136D01*
X68330172Y-49985323D01*
X68509258Y-49794948D01*
X68658239Y-49580194D01*
X68773840Y-49345778D01*
X68853522Y-49096850D01*
X68895536Y-48838878D01*
X68898957Y-48577530D01*
X68863711Y-48318547D01*
X68849288Y-48269062D01*
X68791883Y-48072117D01*
X68790572Y-48067618D01*
X68681147Y-47830257D01*
X68582157Y-47679272D01*
X68540405Y-47615589D01*
X68540401Y-47615584D01*
X68537839Y-47611676D01*
X68363797Y-47416679D01*
X68162845Y-47249548D01*
X68115659Y-47220915D01*
X67943393Y-47116381D01*
X67943389Y-47116379D01*
X67939396Y-47113956D01*
X67698360Y-47012882D01*
X67445032Y-46948544D01*
X67440381Y-46948076D01*
X67440377Y-46948075D01*
X67231086Y-46927001D01*
X67227948Y-46926685D01*
X67072461Y-46926685D01*
X67070136Y-46926858D01*
X67070130Y-46926858D01*
X66882815Y-46940778D01*
X66882811Y-46940779D01*
X66878163Y-46941124D01*
X66873615Y-46942153D01*
X66873609Y-46942154D01*
X66687214Y-46984332D01*
X66623238Y-46998808D01*
X66618886Y-47000500D01*
X66618884Y-47000501D01*
X66383991Y-47091845D01*
X66383988Y-47091846D01*
X66379638Y-47093538D01*
X66152717Y-47223234D01*
X65947458Y-47385047D01*
X65768372Y-47575422D01*
X65619391Y-47790176D01*
X65503790Y-48024592D01*
X65424108Y-48273520D01*
X65382094Y-48531492D01*
X65378673Y-48792840D01*
X44854509Y-48792840D01*
X44857327Y-48577530D01*
X44822081Y-48318547D01*
X44807658Y-48269062D01*
X44750253Y-48072117D01*
X44748942Y-48067618D01*
X44639517Y-47830257D01*
X44540527Y-47679272D01*
X44498775Y-47615589D01*
X44498771Y-47615584D01*
X44496209Y-47611676D01*
X44322167Y-47416679D01*
X44121215Y-47249548D01*
X44074029Y-47220915D01*
X43901763Y-47116381D01*
X43901759Y-47116379D01*
X43897766Y-47113956D01*
X43656730Y-47012882D01*
X43403402Y-46948544D01*
X43398751Y-46948076D01*
X43398747Y-46948075D01*
X43189456Y-46927001D01*
X43186318Y-46926685D01*
X43030831Y-46926685D01*
X43028506Y-46926858D01*
X43028500Y-46926858D01*
X42841185Y-46940778D01*
X42841181Y-46940779D01*
X42836533Y-46941124D01*
X42831985Y-46942153D01*
X42831979Y-46942154D01*
X42645584Y-46984332D01*
X42581608Y-46998808D01*
X42577256Y-47000500D01*
X42577254Y-47000501D01*
X42342361Y-47091845D01*
X42342358Y-47091846D01*
X42338008Y-47093538D01*
X42111087Y-47223234D01*
X41905828Y-47385047D01*
X41726742Y-47575422D01*
X41577761Y-47790176D01*
X41462160Y-48024592D01*
X41382478Y-48273520D01*
X41340464Y-48531492D01*
X41337043Y-48792840D01*
X36647884Y-48792840D01*
X36804221Y-48546492D01*
X36807141Y-48542096D01*
X36811264Y-48536165D01*
X37169727Y-48020404D01*
X37329730Y-47790190D01*
X37332832Y-47785921D01*
X37886456Y-47056548D01*
X37889734Y-47052412D01*
X38473403Y-46346878D01*
X38476852Y-46342883D01*
X39089527Y-45662437D01*
X39093140Y-45658589D01*
X39733828Y-45004341D01*
X39737598Y-45000649D01*
X40405087Y-44373835D01*
X40409009Y-44370304D01*
X41102156Y-43771995D01*
X41106222Y-43768631D01*
X41823831Y-43199862D01*
X41828035Y-43196671D01*
X42568828Y-42658453D01*
X42573162Y-42655441D01*
X42586428Y-42646627D01*
X43335847Y-42148714D01*
X43340281Y-42145900D01*
X43882105Y-41817760D01*
X44123516Y-41671557D01*
X44128086Y-41668918D01*
X44930503Y-41227785D01*
X44935180Y-41225340D01*
X45755352Y-40818203D01*
X45760127Y-40815956D01*
X46596634Y-40443519D01*
X46601499Y-40441474D01*
X47046330Y-40265353D01*
X47452892Y-40104384D01*
X47457816Y-40102553D01*
X47783643Y-39989088D01*
X48322543Y-39801424D01*
X48327562Y-39799793D01*
X49204159Y-39535133D01*
X49209242Y-39533714D01*
X50096117Y-39306003D01*
X50101255Y-39304797D01*
X50631482Y-39192093D01*
X50996944Y-39114412D01*
X51002106Y-39113427D01*
X51905004Y-38960713D01*
X51910191Y-38959949D01*
X52441512Y-38892827D01*
X52818626Y-38845186D01*
X52823875Y-38844634D01*
X53501479Y-38787734D01*
X53736352Y-38768012D01*
X53741610Y-38767681D01*
X54656459Y-38729337D01*
X54661736Y-38729226D01*
X55577428Y-38729226D01*
X55582705Y-38729337D01*
G37*
%TD.AperFunction*%
M02*
