%TF.GenerationSoftware,KiCad,Pcbnew,(6.0.4)*%
%TF.CreationDate,2022-04-07T13:26:34+02:00*%
%TF.ProjectId,Little Big Scroll 1,4c697474-6c65-4204-9269-67205363726f,v1.0*%
%TF.SameCoordinates,Original*%
%TF.FileFunction,Legend,Top*%
%TF.FilePolarity,Positive*%
%FSLAX46Y46*%
G04 Gerber Fmt 4.6, Leading zero omitted, Abs format (unit mm)*
G04 Created by KiCad (PCBNEW (6.0.4)) date 2022-04-07 13:26:34*
%MOMM*%
%LPD*%
G01*
G04 APERTURE LIST*
G04 Aperture macros list*
%AMRotRect*
0 Rectangle, with rotation*
0 The origin of the aperture is its center*
0 $1 length*
0 $2 width*
0 $3 Rotation angle, in degrees counterclockwise*
0 Add horizontal line*
21,1,$1,$2,0,0,$3*%
G04 Aperture macros list end*
%ADD10C,0.100000*%
%ADD11C,0.150000*%
%ADD12C,0.120000*%
%ADD13C,1.752600*%
%ADD14R,1.752600X1.752600*%
%ADD15RotRect,1.000000X1.500000X327.000000*%
%ADD16C,3.700000*%
%ADD17C,2.000000*%
%ADD18O,1.400000X2.600000*%
%ADD19R,2.000000X2.000000*%
%ADD20O,1.400000X1.400000*%
%ADD21C,1.400000*%
G04 APERTURE END LIST*
D10*
X67961904Y-61833333D02*
X67580952Y-62100000D01*
X67961904Y-62290476D02*
X67161904Y-62290476D01*
X67161904Y-61985714D01*
X67200000Y-61909523D01*
X67238095Y-61871428D01*
X67314285Y-61833333D01*
X67428571Y-61833333D01*
X67504761Y-61871428D01*
X67542857Y-61909523D01*
X67580952Y-61985714D01*
X67580952Y-62290476D01*
X67200000Y-61071428D02*
X67161904Y-61147619D01*
X67161904Y-61261904D01*
X67200000Y-61376190D01*
X67276190Y-61452380D01*
X67352380Y-61490476D01*
X67504761Y-61528571D01*
X67619047Y-61528571D01*
X67771428Y-61490476D01*
X67847619Y-61452380D01*
X67923809Y-61376190D01*
X67961904Y-61261904D01*
X67961904Y-61185714D01*
X67923809Y-61071428D01*
X67885714Y-61033333D01*
X67619047Y-61033333D01*
X67619047Y-61185714D01*
X67542857Y-60423809D02*
X67580952Y-60309523D01*
X67619047Y-60271428D01*
X67695238Y-60233333D01*
X67809523Y-60233333D01*
X67885714Y-60271428D01*
X67923809Y-60309523D01*
X67961904Y-60385714D01*
X67961904Y-60690476D01*
X67161904Y-60690476D01*
X67161904Y-60423809D01*
X67200000Y-60347619D01*
X67238095Y-60309523D01*
X67314285Y-60271428D01*
X67390476Y-60271428D01*
X67466666Y-60309523D01*
X67504761Y-60347619D01*
X67542857Y-60423809D01*
X67542857Y-60690476D01*
X67161904Y-59966666D02*
X67161904Y-59471428D01*
X67466666Y-59738095D01*
X67466666Y-59623809D01*
X67504761Y-59547619D01*
X67542857Y-59509523D01*
X67619047Y-59471428D01*
X67809523Y-59471428D01*
X67885714Y-59509523D01*
X67923809Y-59547619D01*
X67961904Y-59623809D01*
X67961904Y-59852380D01*
X67923809Y-59928571D01*
X67885714Y-59966666D01*
X54166666Y-73661904D02*
X53900000Y-73280952D01*
X53709523Y-73661904D02*
X53709523Y-72861904D01*
X54014285Y-72861904D01*
X54090476Y-72900000D01*
X54128571Y-72938095D01*
X54166666Y-73014285D01*
X54166666Y-73128571D01*
X54128571Y-73204761D01*
X54090476Y-73242857D01*
X54014285Y-73280952D01*
X53709523Y-73280952D01*
X54928571Y-72900000D02*
X54852380Y-72861904D01*
X54738095Y-72861904D01*
X54623809Y-72900000D01*
X54547619Y-72976190D01*
X54509523Y-73052380D01*
X54471428Y-73204761D01*
X54471428Y-73319047D01*
X54509523Y-73471428D01*
X54547619Y-73547619D01*
X54623809Y-73623809D01*
X54738095Y-73661904D01*
X54814285Y-73661904D01*
X54928571Y-73623809D01*
X54966666Y-73585714D01*
X54966666Y-73319047D01*
X54814285Y-73319047D01*
X55576190Y-73242857D02*
X55690476Y-73280952D01*
X55728571Y-73319047D01*
X55766666Y-73395238D01*
X55766666Y-73509523D01*
X55728571Y-73585714D01*
X55690476Y-73623809D01*
X55614285Y-73661904D01*
X55309523Y-73661904D01*
X55309523Y-72861904D01*
X55576190Y-72861904D01*
X55652380Y-72900000D01*
X55690476Y-72938095D01*
X55728571Y-73014285D01*
X55728571Y-73090476D01*
X55690476Y-73166666D01*
X55652380Y-73204761D01*
X55576190Y-73242857D01*
X55309523Y-73242857D01*
X56071428Y-72938095D02*
X56109523Y-72900000D01*
X56185714Y-72861904D01*
X56376190Y-72861904D01*
X56452380Y-72900000D01*
X56490476Y-72938095D01*
X56528571Y-73014285D01*
X56528571Y-73090476D01*
X56490476Y-73204761D01*
X56033333Y-73661904D01*
X56528571Y-73661904D01*
X43161904Y-61633333D02*
X42780952Y-61900000D01*
X43161904Y-62090476D02*
X42361904Y-62090476D01*
X42361904Y-61785714D01*
X42400000Y-61709523D01*
X42438095Y-61671428D01*
X42514285Y-61633333D01*
X42628571Y-61633333D01*
X42704761Y-61671428D01*
X42742857Y-61709523D01*
X42780952Y-61785714D01*
X42780952Y-62090476D01*
X42400000Y-60871428D02*
X42361904Y-60947619D01*
X42361904Y-61061904D01*
X42400000Y-61176190D01*
X42476190Y-61252380D01*
X42552380Y-61290476D01*
X42704761Y-61328571D01*
X42819047Y-61328571D01*
X42971428Y-61290476D01*
X43047619Y-61252380D01*
X43123809Y-61176190D01*
X43161904Y-61061904D01*
X43161904Y-60985714D01*
X43123809Y-60871428D01*
X43085714Y-60833333D01*
X42819047Y-60833333D01*
X42819047Y-60985714D01*
X42742857Y-60223809D02*
X42780952Y-60109523D01*
X42819047Y-60071428D01*
X42895238Y-60033333D01*
X43009523Y-60033333D01*
X43085714Y-60071428D01*
X43123809Y-60109523D01*
X43161904Y-60185714D01*
X43161904Y-60490476D01*
X42361904Y-60490476D01*
X42361904Y-60223809D01*
X42400000Y-60147619D01*
X42438095Y-60109523D01*
X42514285Y-60071428D01*
X42590476Y-60071428D01*
X42666666Y-60109523D01*
X42704761Y-60147619D01*
X42742857Y-60223809D01*
X42742857Y-60490476D01*
X43161904Y-59271428D02*
X43161904Y-59728571D01*
X43161904Y-59500000D02*
X42361904Y-59500000D01*
X42476190Y-59576190D01*
X42552380Y-59652380D01*
X42590476Y-59728571D01*
D11*
X58413333Y-71757142D02*
X58365714Y-71804761D01*
X58222857Y-71852380D01*
X58127619Y-71852380D01*
X57984761Y-71804761D01*
X57889523Y-71709523D01*
X57841904Y-71614285D01*
X57794285Y-71423809D01*
X57794285Y-71280952D01*
X57841904Y-71090476D01*
X57889523Y-70995238D01*
X57984761Y-70900000D01*
X58127619Y-70852380D01*
X58222857Y-70852380D01*
X58365714Y-70900000D01*
X58413333Y-70947619D01*
X58794285Y-70947619D02*
X58841904Y-70900000D01*
X58937142Y-70852380D01*
X59175238Y-70852380D01*
X59270476Y-70900000D01*
X59318095Y-70947619D01*
X59365714Y-71042857D01*
X59365714Y-71138095D01*
X59318095Y-71280952D01*
X58746666Y-71852380D01*
X59365714Y-71852380D01*
X51383333Y-71787142D02*
X51335714Y-71834761D01*
X51192857Y-71882380D01*
X51097619Y-71882380D01*
X50954761Y-71834761D01*
X50859523Y-71739523D01*
X50811904Y-71644285D01*
X50764285Y-71453809D01*
X50764285Y-71310952D01*
X50811904Y-71120476D01*
X50859523Y-71025238D01*
X50954761Y-70930000D01*
X51097619Y-70882380D01*
X51192857Y-70882380D01*
X51335714Y-70930000D01*
X51383333Y-70977619D01*
X52335714Y-71882380D02*
X51764285Y-71882380D01*
X52050000Y-71882380D02*
X52050000Y-70882380D01*
X51954761Y-71025238D01*
X51859523Y-71120476D01*
X51764285Y-71168095D01*
D12*
X66629500Y-44701165D02*
X64281222Y-43176176D01*
X64281222Y-43176176D02*
X65370500Y-41498835D01*
X65370500Y-41498835D02*
X67718778Y-43023824D01*
X67718778Y-43023824D02*
X66629500Y-44701165D01*
X58118000Y-60706000D02*
G75*
G03*
X58118000Y-60706000I-3000000J0D01*
G01*
X54618000Y-60706000D02*
X55618000Y-60706000D01*
X55118000Y-61206000D02*
X55118000Y-60206000D01*
X56670000Y-70490000D02*
X60510000Y-70490000D01*
X56670000Y-72330000D02*
X60510000Y-72330000D01*
X49690000Y-70490000D02*
X53530000Y-70490000D01*
X49690000Y-72330000D02*
X53530000Y-72330000D01*
D13*
X62738000Y-44736000D03*
X62738000Y-47276000D03*
X62738000Y-49816000D03*
X62738000Y-52356000D03*
X62738000Y-54896000D03*
X62738000Y-57436000D03*
X62738000Y-59976000D03*
X62738000Y-62516000D03*
X62738000Y-65056000D03*
X62738000Y-67596000D03*
X62738000Y-70136000D03*
X62738000Y-72676000D03*
X47498000Y-72676000D03*
X47498000Y-70136000D03*
X47498000Y-67596000D03*
X47498000Y-65056000D03*
X47498000Y-62516000D03*
X47498000Y-59976000D03*
X47498000Y-57436000D03*
X47498000Y-54896000D03*
X47498000Y-52356000D03*
X47498000Y-49816000D03*
X47498000Y-47276000D03*
D14*
X47498000Y-44736000D03*
%LPC*%
D15*
X65454864Y-42745985D03*
X66545136Y-43454015D03*
D13*
X62738000Y-44736000D03*
X62738000Y-47276000D03*
X62738000Y-49816000D03*
X62738000Y-52356000D03*
X62738000Y-54896000D03*
X62738000Y-57436000D03*
X62738000Y-59976000D03*
X62738000Y-62516000D03*
X62738000Y-65056000D03*
X62738000Y-67596000D03*
X62738000Y-70136000D03*
X62738000Y-72676000D03*
X47498000Y-72676000D03*
X47498000Y-70136000D03*
X47498000Y-67596000D03*
X47498000Y-65056000D03*
X47498000Y-62516000D03*
X47498000Y-59976000D03*
X47498000Y-57436000D03*
X47498000Y-54896000D03*
X47498000Y-52356000D03*
X47498000Y-49816000D03*
X47498000Y-47276000D03*
D14*
X47498000Y-44736000D03*
D16*
X67138815Y-48685185D03*
X43097185Y-72726815D03*
X67138815Y-72726815D03*
X43097185Y-48685185D03*
D17*
X52618000Y-53706000D03*
X57618000Y-53706000D03*
D18*
X60418000Y-60706000D03*
X49818000Y-60706000D03*
D17*
X55118000Y-68206000D03*
X57618000Y-68206000D03*
D19*
X52618000Y-68206000D03*
D20*
X61130000Y-71410000D03*
D21*
X56050000Y-71410000D03*
D20*
X54150000Y-71410000D03*
D21*
X49070000Y-71410000D03*
M02*
