%TF.GenerationSoftware,KiCad,Pcbnew,(6.0.4)*%
%TF.CreationDate,2022-04-07T13:26:34+02:00*%
%TF.ProjectId,Little Big Scroll 1,4c697474-6c65-4204-9269-67205363726f,v1.0*%
%TF.SameCoordinates,Original*%
%TF.FileFunction,Copper,L2,Bot*%
%TF.FilePolarity,Positive*%
%FSLAX46Y46*%
G04 Gerber Fmt 4.6, Leading zero omitted, Abs format (unit mm)*
G04 Created by KiCad (PCBNEW (6.0.4)) date 2022-04-07 13:26:34*
%MOMM*%
%LPD*%
G01*
G04 APERTURE LIST*
G04 Aperture macros list*
%AMRoundRect*
0 Rectangle with rounded corners*
0 $1 Rounding radius*
0 $2 $3 $4 $5 $6 $7 $8 $9 X,Y pos of 4 corners*
0 Add a 4 corners polygon primitive as box body*
4,1,4,$2,$3,$4,$5,$6,$7,$8,$9,$2,$3,0*
0 Add four circle primitives for the rounded corners*
1,1,$1+$1,$2,$3*
1,1,$1+$1,$4,$5*
1,1,$1+$1,$6,$7*
1,1,$1+$1,$8,$9*
0 Add four rect primitives between the rounded corners*
20,1,$1+$1,$2,$3,$4,$5,0*
20,1,$1+$1,$4,$5,$6,$7,0*
20,1,$1+$1,$6,$7,$8,$9,0*
20,1,$1+$1,$8,$9,$2,$3,0*%
G04 Aperture macros list end*
%TA.AperFunction,ComponentPad*%
%ADD10C,1.752600*%
%TD*%
%TA.AperFunction,ComponentPad*%
%ADD11R,1.752600X1.752600*%
%TD*%
%TA.AperFunction,SMDPad,CuDef*%
%ADD12RoundRect,0.082000X-0.328000X-0.668000X0.328000X-0.668000X0.328000X0.668000X-0.328000X0.668000X0*%
%TD*%
%TA.AperFunction,SMDPad,CuDef*%
%ADD13RoundRect,0.082000X-0.668000X0.328000X-0.668000X-0.328000X0.668000X-0.328000X0.668000X0.328000X0*%
%TD*%
%TA.AperFunction,SMDPad,CuDef*%
%ADD14RoundRect,0.082000X0.328000X0.668000X-0.328000X0.668000X-0.328000X-0.668000X0.328000X-0.668000X0*%
%TD*%
%TA.AperFunction,ComponentPad*%
%ADD15C,2.000000*%
%TD*%
%TA.AperFunction,ComponentPad*%
%ADD16O,1.400000X2.600000*%
%TD*%
%TA.AperFunction,ComponentPad*%
%ADD17R,2.000000X2.000000*%
%TD*%
%TA.AperFunction,ComponentPad*%
%ADD18O,1.400000X1.400000*%
%TD*%
%TA.AperFunction,ComponentPad*%
%ADD19C,1.400000*%
%TD*%
%TA.AperFunction,ViaPad*%
%ADD20C,0.800000*%
%TD*%
%TA.AperFunction,Conductor*%
%ADD21C,0.450000*%
%TD*%
%TA.AperFunction,Conductor*%
%ADD22C,0.250000*%
%TD*%
G04 APERTURE END LIST*
D10*
X62738000Y-44736000D03*
X62738000Y-47276000D03*
X62738000Y-49816000D03*
X62738000Y-52356000D03*
X62738000Y-54896000D03*
X62738000Y-57436000D03*
X62738000Y-59976000D03*
X62738000Y-62516000D03*
X62738000Y-65056000D03*
X62738000Y-67596000D03*
X62738000Y-70136000D03*
X62738000Y-72676000D03*
X47498000Y-72676000D03*
X47498000Y-70136000D03*
X47498000Y-67596000D03*
X47498000Y-65056000D03*
X47498000Y-62516000D03*
X47498000Y-59976000D03*
X47498000Y-57436000D03*
X47498000Y-54896000D03*
X47498000Y-52356000D03*
X47498000Y-49816000D03*
X47498000Y-47276000D03*
D11*
X47498000Y-44736000D03*
D12*
X69447999Y-58056000D03*
X70947999Y-58056000D03*
X70947999Y-63356000D03*
X69447999Y-63356000D03*
D13*
X52468000Y-75035999D03*
X52468000Y-76535999D03*
X57768000Y-76535999D03*
X57768000Y-75035999D03*
D14*
X40788001Y-63356000D03*
X39288001Y-63356000D03*
X39288001Y-58056000D03*
X40788001Y-58056000D03*
D15*
X52618000Y-53706000D03*
X57618000Y-53706000D03*
D16*
X60418000Y-60706000D03*
X49818000Y-60706000D03*
D15*
X55118000Y-68206000D03*
X57618000Y-68206000D03*
D17*
X52618000Y-68206000D03*
D18*
X61130000Y-71410000D03*
D19*
X56050000Y-71410000D03*
D18*
X54150000Y-71410000D03*
D19*
X49070000Y-71410000D03*
D20*
X39870000Y-53880000D03*
X59370000Y-50160000D03*
X68850000Y-54760000D03*
X69430000Y-64980000D03*
D21*
X62738000Y-47276000D02*
X59854000Y-50160000D01*
X59854000Y-50160000D02*
X59370000Y-50160000D01*
X36570000Y-57300000D02*
X36570000Y-70257125D01*
X52030000Y-79350000D02*
X65177125Y-79350000D01*
X69447999Y-64962001D02*
X69430000Y-64980000D01*
X41813722Y-75500847D02*
X50019153Y-75500847D01*
X69912846Y-65462846D02*
X69430000Y-64980000D01*
X40788001Y-58106000D02*
X40788001Y-57118001D01*
X37530000Y-56340000D02*
X36570000Y-57300000D01*
X36570000Y-70257125D02*
X41813722Y-75500847D01*
X50500000Y-77820000D02*
X52030000Y-79350000D01*
X52518000Y-75035999D02*
X50515999Y-75035999D01*
X40010000Y-56340000D02*
X37530000Y-56340000D01*
X50515999Y-75035999D02*
X50500000Y-75020000D01*
X69447999Y-63306000D02*
X69447999Y-64962001D01*
X40788001Y-57118001D02*
X40010000Y-56340000D01*
X69912846Y-74614279D02*
X69912846Y-65462846D01*
X65177125Y-79350000D02*
X69912846Y-74614279D01*
X50500000Y-75020000D02*
X50500000Y-77820000D01*
X50019153Y-75500847D02*
X50500000Y-75020000D01*
D22*
X48718664Y-74951336D02*
X50540000Y-73130000D01*
X38374000Y-58106000D02*
X37799511Y-58680489D01*
X37799511Y-58680489D02*
X37799511Y-70709511D01*
X50540000Y-73130000D02*
X56630000Y-73130000D01*
X42041336Y-74951336D02*
X48718664Y-74951336D01*
X39288001Y-58106000D02*
X38374000Y-58106000D01*
X56630000Y-73130000D02*
X57718000Y-74218000D01*
X57718000Y-74218000D02*
X57718000Y-75035999D01*
X37799511Y-70709511D02*
X42041336Y-74951336D01*
X44580000Y-61450000D02*
X44580000Y-50690000D01*
X44580000Y-50690000D02*
X47498000Y-47772000D01*
X42724000Y-63306000D02*
X44580000Y-61450000D01*
X40788001Y-63306000D02*
X42724000Y-63306000D01*
X47498000Y-47772000D02*
X47498000Y-47276000D01*
X69363336Y-74316664D02*
X69363336Y-70763336D01*
X68060243Y-59493756D02*
X69447999Y-58106000D01*
X68060243Y-69460243D02*
X68060243Y-59493756D01*
X69363336Y-70763336D02*
X68060243Y-69460243D01*
X65580000Y-78100000D02*
X69363336Y-74316664D01*
X54082001Y-78100000D02*
X65580000Y-78100000D01*
X52518000Y-76535999D02*
X54082001Y-78100000D01*
%TA.AperFunction,Conductor*%
G36*
X48117482Y-39951992D02*
G01*
X48149436Y-40015391D01*
X48151500Y-40038105D01*
X48151500Y-43225200D01*
X48131498Y-43293321D01*
X48077842Y-43339814D01*
X48025500Y-43351200D01*
X46573566Y-43351200D01*
X46511384Y-43357955D01*
X46374995Y-43409085D01*
X46258439Y-43496439D01*
X46171085Y-43612995D01*
X46119955Y-43749384D01*
X46113200Y-43811566D01*
X46113200Y-45660434D01*
X46119955Y-45722616D01*
X46171085Y-45859005D01*
X46258439Y-45975561D01*
X46374995Y-46062915D01*
X46383403Y-46066067D01*
X46466226Y-46097116D01*
X46522990Y-46139758D01*
X46547690Y-46206319D01*
X46532483Y-46275668D01*
X46513090Y-46302149D01*
X46489515Y-46326819D01*
X46418120Y-46401530D01*
X46289797Y-46589645D01*
X46193921Y-46796192D01*
X46192539Y-46801174D01*
X46192539Y-46801175D01*
X46185045Y-46828197D01*
X46133067Y-47015625D01*
X46108869Y-47242050D01*
X46109166Y-47247202D01*
X46109166Y-47247206D01*
X46111379Y-47285580D01*
X46121977Y-47469387D01*
X46123112Y-47474424D01*
X46123113Y-47474430D01*
X46162234Y-47648022D01*
X46172039Y-47691531D01*
X46173983Y-47696317D01*
X46173984Y-47696322D01*
X46255675Y-47897502D01*
X46257711Y-47902515D01*
X46260411Y-47906921D01*
X46260413Y-47906925D01*
X46287073Y-47950431D01*
X46305611Y-48018964D01*
X46284154Y-48086641D01*
X46268735Y-48105360D01*
X45671418Y-48702677D01*
X45609106Y-48736703D01*
X45538291Y-48731638D01*
X45481455Y-48689091D01*
X45456593Y-48621823D01*
X45440795Y-48380793D01*
X45440794Y-48380789D01*
X45440525Y-48376678D01*
X45438521Y-48366600D01*
X45425135Y-48299308D01*
X45380210Y-48073450D01*
X45370930Y-48046110D01*
X45282160Y-47784604D01*
X45280831Y-47780689D01*
X45279007Y-47776991D01*
X45279005Y-47776985D01*
X45145915Y-47507108D01*
X45144089Y-47503405D01*
X45141795Y-47499972D01*
X45141794Y-47499970D01*
X44974617Y-47249771D01*
X44974613Y-47249766D01*
X44972324Y-47246340D01*
X44969610Y-47243246D01*
X44969606Y-47243240D01*
X44771184Y-47016984D01*
X44768475Y-47013895D01*
X44745497Y-46993744D01*
X44539130Y-46812764D01*
X44539124Y-46812760D01*
X44536030Y-46810046D01*
X44532604Y-46807757D01*
X44532599Y-46807753D01*
X44282400Y-46640576D01*
X44282398Y-46640575D01*
X44278965Y-46638281D01*
X44189848Y-46594333D01*
X44005385Y-46503365D01*
X44005377Y-46503362D01*
X44001681Y-46501539D01*
X43994128Y-46498975D01*
X43712827Y-46403486D01*
X43712824Y-46403485D01*
X43708920Y-46402160D01*
X43482224Y-46357068D01*
X43409735Y-46342649D01*
X43409732Y-46342649D01*
X43405692Y-46341845D01*
X43401581Y-46341576D01*
X43401577Y-46341575D01*
X43176448Y-46326819D01*
X43176439Y-46326819D01*
X43174399Y-46326685D01*
X43019971Y-46326685D01*
X43017931Y-46326819D01*
X43017922Y-46326819D01*
X42792793Y-46341575D01*
X42792789Y-46341576D01*
X42788678Y-46341845D01*
X42784638Y-46342649D01*
X42784635Y-46342649D01*
X42712146Y-46357068D01*
X42485450Y-46402160D01*
X42481546Y-46403485D01*
X42481543Y-46403486D01*
X42200242Y-46498975D01*
X42192689Y-46501539D01*
X42188993Y-46503362D01*
X42188985Y-46503365D01*
X42004522Y-46594333D01*
X41915405Y-46638281D01*
X41911972Y-46640575D01*
X41911970Y-46640576D01*
X41661771Y-46807753D01*
X41661766Y-46807757D01*
X41658340Y-46810046D01*
X41655246Y-46812760D01*
X41655240Y-46812764D01*
X41448873Y-46993744D01*
X41425895Y-47013895D01*
X41423186Y-47016984D01*
X41224764Y-47243240D01*
X41224760Y-47243246D01*
X41222046Y-47246340D01*
X41219757Y-47249766D01*
X41219753Y-47249771D01*
X41090306Y-47443503D01*
X41050281Y-47503404D01*
X40913539Y-47780689D01*
X40912214Y-47784594D01*
X40912213Y-47784595D01*
X40823441Y-48046110D01*
X40814160Y-48073450D01*
X40769235Y-48299308D01*
X40755850Y-48366600D01*
X40753845Y-48376678D01*
X40753576Y-48380789D01*
X40753575Y-48380793D01*
X40741190Y-48569745D01*
X40733624Y-48685185D01*
X40753845Y-48993692D01*
X40814160Y-49296920D01*
X40815485Y-49300824D01*
X40815486Y-49300827D01*
X40903722Y-49560762D01*
X40913539Y-49589681D01*
X40915362Y-49593377D01*
X40915365Y-49593385D01*
X41023494Y-49812646D01*
X41050281Y-49866965D01*
X41052575Y-49870398D01*
X41052576Y-49870400D01*
X41212435Y-50109646D01*
X41222046Y-50124030D01*
X41224760Y-50127124D01*
X41224764Y-50127130D01*
X41396165Y-50322575D01*
X41425895Y-50356475D01*
X41428984Y-50359184D01*
X41655240Y-50557606D01*
X41655246Y-50557610D01*
X41658340Y-50560324D01*
X41661766Y-50562613D01*
X41661771Y-50562617D01*
X41911970Y-50729794D01*
X41915405Y-50732089D01*
X41919108Y-50733915D01*
X42188985Y-50867005D01*
X42188993Y-50867008D01*
X42192689Y-50868831D01*
X42196604Y-50870160D01*
X42481543Y-50966884D01*
X42481546Y-50966885D01*
X42485450Y-50968210D01*
X42712146Y-51013302D01*
X42784635Y-51027721D01*
X42784638Y-51027721D01*
X42788678Y-51028525D01*
X42792789Y-51028794D01*
X42792793Y-51028795D01*
X43017922Y-51043551D01*
X43017931Y-51043551D01*
X43019971Y-51043685D01*
X43174399Y-51043685D01*
X43176439Y-51043551D01*
X43176448Y-51043551D01*
X43401577Y-51028795D01*
X43401581Y-51028794D01*
X43405692Y-51028525D01*
X43409732Y-51027721D01*
X43409735Y-51027721D01*
X43704870Y-50969016D01*
X43704876Y-50969014D01*
X43708920Y-50968210D01*
X43712826Y-50966884D01*
X43712830Y-50966883D01*
X43779998Y-50944082D01*
X43850933Y-50941126D01*
X43912206Y-50976989D01*
X43944363Y-51040285D01*
X43946500Y-51063395D01*
X43946500Y-61135405D01*
X43926498Y-61203526D01*
X43909595Y-61224500D01*
X42498500Y-62635595D01*
X42436188Y-62669621D01*
X42409405Y-62672500D01*
X42171823Y-62672500D01*
X42103702Y-62652498D01*
X42057209Y-62598842D01*
X42047105Y-62528568D01*
X42059615Y-62489182D01*
X42114485Y-62381766D01*
X42167160Y-62205402D01*
X42185001Y-62041175D01*
X42186420Y-62028116D01*
X42186420Y-62028113D01*
X42187039Y-62022416D01*
X42177785Y-61897270D01*
X42173888Y-61844571D01*
X42173887Y-61844567D01*
X42173465Y-61838854D01*
X42126887Y-61660782D01*
X42124453Y-61655582D01*
X42068919Y-61536966D01*
X42068082Y-61535179D01*
X42064370Y-61526398D01*
X42056041Y-61504415D01*
X42057035Y-61504038D01*
X42046500Y-61456865D01*
X42046500Y-59960894D01*
X42047998Y-59941523D01*
X42050337Y-59926490D01*
X42060724Y-59892441D01*
X42126849Y-59751203D01*
X42173425Y-59573138D01*
X42177099Y-59523461D01*
X42182258Y-59453691D01*
X42186998Y-59389584D01*
X42179226Y-59318037D01*
X42167740Y-59212314D01*
X42167740Y-59212313D01*
X42167120Y-59206606D01*
X42165477Y-59201103D01*
X42121193Y-59052835D01*
X42114447Y-59030248D01*
X42059402Y-58922491D01*
X42033327Y-58871445D01*
X42033326Y-58871443D01*
X42030719Y-58866340D01*
X41918704Y-58720295D01*
X41782102Y-58596941D01*
X41766379Y-58587248D01*
X41718889Y-58534473D01*
X41706501Y-58479992D01*
X41706500Y-57353423D01*
X41706500Y-57349300D01*
X41699464Y-57295845D01*
X41692380Y-57242036D01*
X41692379Y-57242034D01*
X41691302Y-57233849D01*
X41631801Y-57090202D01*
X41537150Y-56966851D01*
X41530600Y-56961825D01*
X41524758Y-56955983D01*
X41526403Y-56954338D01*
X41491805Y-56907112D01*
X41489664Y-56901214D01*
X41482614Y-56881791D01*
X41481211Y-56877706D01*
X41459466Y-56810581D01*
X41455666Y-56804318D01*
X41453323Y-56799202D01*
X41450825Y-56794213D01*
X41448328Y-56787334D01*
X41418602Y-56741993D01*
X41409662Y-56728358D01*
X41407316Y-56724640D01*
X41373648Y-56669158D01*
X41370734Y-56664356D01*
X41363572Y-56656246D01*
X41363589Y-56656231D01*
X41360656Y-56652922D01*
X41358559Y-56650414D01*
X41354547Y-56644295D01*
X41300261Y-56592869D01*
X41297819Y-56590493D01*
X40574745Y-55867420D01*
X40562358Y-55853006D01*
X40554441Y-55842248D01*
X40550100Y-55836349D01*
X40511280Y-55803369D01*
X40503764Y-55796439D01*
X40498380Y-55791055D01*
X40495519Y-55788792D01*
X40495514Y-55788787D01*
X40476909Y-55774068D01*
X40473507Y-55771279D01*
X40425328Y-55730347D01*
X40425324Y-55730344D01*
X40419749Y-55725608D01*
X40413228Y-55722279D01*
X40408549Y-55719158D01*
X40403795Y-55716222D01*
X40398057Y-55711682D01*
X40334147Y-55681811D01*
X40330239Y-55679901D01*
X40267418Y-55647824D01*
X40260306Y-55646084D01*
X40255020Y-55644118D01*
X40249735Y-55642360D01*
X40243105Y-55639261D01*
X40174032Y-55624894D01*
X40169748Y-55623924D01*
X40101279Y-55607170D01*
X40095677Y-55606822D01*
X40095674Y-55606822D01*
X40090480Y-55606500D01*
X40090481Y-55606476D01*
X40086066Y-55606212D01*
X40082816Y-55605922D01*
X40075648Y-55604431D01*
X40014516Y-55606085D01*
X40000877Y-55606454D01*
X39997469Y-55606500D01*
X37595166Y-55606500D01*
X37576216Y-55605067D01*
X37563007Y-55603057D01*
X37563003Y-55603057D01*
X37555773Y-55601957D01*
X37548481Y-55602550D01*
X37548478Y-55602550D01*
X37505021Y-55606085D01*
X37494806Y-55606500D01*
X37487174Y-55606500D01*
X37483555Y-55606922D01*
X37483536Y-55606923D01*
X37459931Y-55609675D01*
X37455565Y-55610107D01*
X37436364Y-55611669D01*
X37392596Y-55615229D01*
X37392594Y-55615229D01*
X37385296Y-55615823D01*
X37378327Y-55618081D01*
X37372807Y-55619184D01*
X37367382Y-55620466D01*
X37360110Y-55621314D01*
X37293790Y-55645387D01*
X37289644Y-55646810D01*
X37229542Y-55666280D01*
X37229538Y-55666282D01*
X37222580Y-55668536D01*
X37216328Y-55672330D01*
X37211212Y-55674672D01*
X37206211Y-55677176D01*
X37199333Y-55679673D01*
X37193216Y-55683683D01*
X37193211Y-55683686D01*
X37140346Y-55718347D01*
X37136624Y-55720695D01*
X37076355Y-55757267D01*
X37068245Y-55764429D01*
X37068230Y-55764412D01*
X37064921Y-55767345D01*
X37062413Y-55769442D01*
X37056294Y-55773454D01*
X37051261Y-55778767D01*
X37004869Y-55827739D01*
X37002493Y-55830181D01*
X36097420Y-56735255D01*
X36083007Y-56747641D01*
X36066349Y-56759900D01*
X36061606Y-56765483D01*
X36033369Y-56798720D01*
X36026439Y-56806236D01*
X36021055Y-56811620D01*
X36018792Y-56814481D01*
X36018787Y-56814486D01*
X36004068Y-56833091D01*
X36001279Y-56836493D01*
X35960347Y-56884672D01*
X35960344Y-56884676D01*
X35955608Y-56890251D01*
X35952279Y-56896772D01*
X35949158Y-56901451D01*
X35946222Y-56906205D01*
X35941682Y-56911943D01*
X35938585Y-56918570D01*
X35938584Y-56918571D01*
X35911811Y-56975854D01*
X35909901Y-56979761D01*
X35877824Y-57042582D01*
X35876084Y-57049694D01*
X35874118Y-57054980D01*
X35872360Y-57060265D01*
X35869261Y-57066895D01*
X35862826Y-57097832D01*
X35854895Y-57135963D01*
X35853925Y-57140247D01*
X35837170Y-57208721D01*
X35836822Y-57214323D01*
X35836822Y-57214326D01*
X35836500Y-57219519D01*
X35836500Y-57219520D01*
X35836476Y-57219519D01*
X35836212Y-57223934D01*
X35835922Y-57227184D01*
X35834431Y-57234352D01*
X35834629Y-57241669D01*
X35836454Y-57309123D01*
X35836500Y-57312531D01*
X35836500Y-70191959D01*
X35835067Y-70210909D01*
X35834395Y-70215329D01*
X35831957Y-70231352D01*
X35832550Y-70238644D01*
X35832550Y-70238647D01*
X35836085Y-70282104D01*
X35836500Y-70292319D01*
X35836500Y-70299951D01*
X35836922Y-70303570D01*
X35836923Y-70303589D01*
X35839675Y-70327194D01*
X35840107Y-70331560D01*
X35845823Y-70401829D01*
X35848081Y-70408798D01*
X35849184Y-70414318D01*
X35850466Y-70419743D01*
X35851314Y-70427015D01*
X35872355Y-70484981D01*
X35875382Y-70493321D01*
X35876810Y-70497481D01*
X35896280Y-70557583D01*
X35896282Y-70557587D01*
X35898536Y-70564545D01*
X35902330Y-70570797D01*
X35904672Y-70575913D01*
X35907176Y-70580914D01*
X35909673Y-70587792D01*
X35913683Y-70593909D01*
X35913686Y-70593914D01*
X35948347Y-70646779D01*
X35950695Y-70650501D01*
X35953241Y-70654696D01*
X35987267Y-70710770D01*
X35990979Y-70714973D01*
X35994429Y-70718880D01*
X35994412Y-70718895D01*
X35997346Y-70722205D01*
X35999442Y-70724712D01*
X36003454Y-70730831D01*
X36008766Y-70735863D01*
X36057776Y-70782291D01*
X36060218Y-70784669D01*
X41248977Y-75973428D01*
X41261363Y-75987840D01*
X41273622Y-76004498D01*
X41279205Y-76009241D01*
X41312435Y-76037472D01*
X41319951Y-76044402D01*
X41325342Y-76049793D01*
X41346846Y-76066806D01*
X41350232Y-76069583D01*
X41398389Y-76110496D01*
X41398394Y-76110500D01*
X41403973Y-76115239D01*
X41410495Y-76118569D01*
X41415173Y-76121689D01*
X41419927Y-76124625D01*
X41425665Y-76129165D01*
X41432292Y-76132262D01*
X41432293Y-76132263D01*
X41489576Y-76159036D01*
X41493483Y-76160946D01*
X41556304Y-76193023D01*
X41563416Y-76194763D01*
X41568702Y-76196729D01*
X41573987Y-76198487D01*
X41580617Y-76201586D01*
X41649685Y-76215952D01*
X41653969Y-76216922D01*
X41722443Y-76233677D01*
X41728045Y-76234025D01*
X41728048Y-76234025D01*
X41733242Y-76234347D01*
X41733241Y-76234371D01*
X41737657Y-76234635D01*
X41740906Y-76234925D01*
X41748074Y-76236416D01*
X41822862Y-76234393D01*
X41826268Y-76234347D01*
X49640500Y-76234347D01*
X49708621Y-76254349D01*
X49755114Y-76308005D01*
X49766500Y-76360347D01*
X49766500Y-77754834D01*
X49765067Y-77773783D01*
X49761957Y-77794227D01*
X49762550Y-77801519D01*
X49762550Y-77801522D01*
X49766085Y-77844979D01*
X49766500Y-77855194D01*
X49766500Y-77862826D01*
X49766922Y-77866445D01*
X49766923Y-77866464D01*
X49769675Y-77890069D01*
X49770107Y-77894435D01*
X49775823Y-77964704D01*
X49778081Y-77971673D01*
X49779184Y-77977193D01*
X49780466Y-77982618D01*
X49781314Y-77989890D01*
X49783811Y-77996769D01*
X49805382Y-78056196D01*
X49806810Y-78060356D01*
X49826280Y-78120458D01*
X49826282Y-78120462D01*
X49828536Y-78127420D01*
X49832330Y-78133672D01*
X49834672Y-78138788D01*
X49837176Y-78143789D01*
X49839673Y-78150667D01*
X49843683Y-78156784D01*
X49843686Y-78156789D01*
X49878347Y-78209654D01*
X49880695Y-78213376D01*
X49917267Y-78273645D01*
X49920979Y-78277848D01*
X49924429Y-78281755D01*
X49924412Y-78281770D01*
X49927346Y-78285080D01*
X49929442Y-78287587D01*
X49933454Y-78293706D01*
X49938766Y-78298738D01*
X49987776Y-78345166D01*
X49990218Y-78347544D01*
X51465255Y-79822581D01*
X51477641Y-79836993D01*
X51489900Y-79853651D01*
X51495483Y-79858394D01*
X51528713Y-79886625D01*
X51536229Y-79893555D01*
X51541620Y-79898946D01*
X51563124Y-79915959D01*
X51566510Y-79918736D01*
X51614667Y-79959649D01*
X51614672Y-79959653D01*
X51620251Y-79964392D01*
X51626773Y-79967722D01*
X51631451Y-79970842D01*
X51636205Y-79973778D01*
X51641943Y-79978318D01*
X51648570Y-79981415D01*
X51648571Y-79981416D01*
X51705854Y-80008189D01*
X51709761Y-80010099D01*
X51772582Y-80042176D01*
X51779694Y-80043916D01*
X51784980Y-80045882D01*
X51790265Y-80047640D01*
X51796895Y-80050739D01*
X51865963Y-80065105D01*
X51870247Y-80066075D01*
X51938721Y-80082830D01*
X51944323Y-80083178D01*
X51944326Y-80083178D01*
X51949520Y-80083500D01*
X51949519Y-80083524D01*
X51953935Y-80083788D01*
X51957184Y-80084078D01*
X51964352Y-80085569D01*
X52039140Y-80083546D01*
X52042546Y-80083500D01*
X65004836Y-80083500D01*
X65072957Y-80103502D01*
X65119450Y-80157158D01*
X65129554Y-80227432D01*
X65100060Y-80292012D01*
X65063826Y-80320838D01*
X65002165Y-80353508D01*
X64997396Y-80355907D01*
X64161345Y-80754476D01*
X64156479Y-80756670D01*
X63304338Y-81119451D01*
X63299384Y-81121438D01*
X62432596Y-81447817D01*
X62427561Y-81449591D01*
X61547725Y-81738965D01*
X61542627Y-81740523D01*
X61223063Y-81830819D01*
X60651376Y-81992356D01*
X60646210Y-81993699D01*
X60280050Y-82080598D01*
X59745015Y-82207574D01*
X59739835Y-82208688D01*
X58830396Y-82384199D01*
X58825176Y-82385091D01*
X58149234Y-82486058D01*
X57909155Y-82521919D01*
X57903860Y-82522596D01*
X57293078Y-82587525D01*
X56982864Y-82620502D01*
X56977554Y-82620954D01*
X56053209Y-82679765D01*
X56047916Y-82679989D01*
X55584911Y-82689792D01*
X55121927Y-82699594D01*
X55116589Y-82699594D01*
X54578018Y-82688175D01*
X54190604Y-82679961D01*
X54185301Y-82679737D01*
X53765017Y-82652984D01*
X53260970Y-82620899D01*
X53255651Y-82620447D01*
X52766241Y-82568406D01*
X52334646Y-82522513D01*
X52329381Y-82521840D01*
X51413337Y-82384980D01*
X51408095Y-82384083D01*
X50987086Y-82302820D01*
X50498709Y-82208554D01*
X50493491Y-82207432D01*
X50042912Y-82100485D01*
X49592322Y-81993535D01*
X49587177Y-81992198D01*
X48695895Y-81740328D01*
X48690805Y-81738772D01*
X48199843Y-81577281D01*
X47810984Y-81449374D01*
X47805950Y-81447599D01*
X47465569Y-81319421D01*
X46939196Y-81121203D01*
X46934265Y-81119227D01*
X46082074Y-80756395D01*
X46077208Y-80754200D01*
X45241800Y-80355907D01*
X45241170Y-80355606D01*
X45236411Y-80353212D01*
X45120911Y-80292012D01*
X44418036Y-79919582D01*
X44413379Y-79916987D01*
X44412626Y-79916546D01*
X43614054Y-79449053D01*
X43609549Y-79446286D01*
X42830749Y-78944907D01*
X42826365Y-78941951D01*
X42069520Y-78408049D01*
X42065229Y-78404884D01*
X41990847Y-78347544D01*
X41403076Y-77894444D01*
X41331704Y-77839425D01*
X41327546Y-77836077D01*
X40618624Y-77240052D01*
X40614612Y-77236531D01*
X40245527Y-76898529D01*
X39931566Y-76611009D01*
X39927709Y-76607322D01*
X39271801Y-75953459D01*
X39268101Y-75949612D01*
X38640428Y-75268501D01*
X38636895Y-75264499D01*
X38038679Y-74557468D01*
X38035318Y-74553321D01*
X37614859Y-74011403D01*
X37467556Y-73821548D01*
X37464379Y-73817268D01*
X37462235Y-73814249D01*
X36928135Y-73062122D01*
X36925147Y-73057719D01*
X36421358Y-72280519D01*
X36418550Y-72275980D01*
X35948139Y-71478151D01*
X35945526Y-71473496D01*
X35568303Y-70766919D01*
X35509340Y-70656476D01*
X35506926Y-70651715D01*
X35407634Y-70445116D01*
X35105724Y-69816926D01*
X35103518Y-69812077D01*
X35099891Y-69803630D01*
X34804817Y-69116548D01*
X34738036Y-68961047D01*
X34736034Y-68956098D01*
X34538997Y-68437777D01*
X34406928Y-68090358D01*
X34405142Y-68085344D01*
X34368207Y-67974223D01*
X34113001Y-67206439D01*
X34111425Y-67201339D01*
X33856777Y-66310866D01*
X33855418Y-66305704D01*
X33638707Y-65405207D01*
X33637569Y-65399992D01*
X33459203Y-64491169D01*
X33458286Y-64485910D01*
X33318569Y-63570320D01*
X33317876Y-63565027D01*
X33217069Y-62644370D01*
X33216600Y-62639053D01*
X33199757Y-62386873D01*
X33154876Y-61714916D01*
X33154633Y-61709589D01*
X33154036Y-61685060D01*
X33132107Y-60783639D01*
X33132091Y-60778324D01*
X33133580Y-60695869D01*
X33143081Y-60169387D01*
X33148804Y-59852322D01*
X33149013Y-59846988D01*
X33204935Y-58922491D01*
X33205370Y-58917171D01*
X33300398Y-57995878D01*
X33301058Y-57990581D01*
X33435024Y-57074135D01*
X33435908Y-57068871D01*
X33514204Y-56656246D01*
X33608573Y-56158913D01*
X33609669Y-56153738D01*
X33734769Y-55619184D01*
X33820724Y-55251897D01*
X33822050Y-55246727D01*
X34071106Y-54354663D01*
X34072650Y-54349553D01*
X34359267Y-53468838D01*
X34361026Y-53463798D01*
X34378358Y-53417330D01*
X34525121Y-53023837D01*
X34684690Y-52596012D01*
X34686661Y-52591051D01*
X35046787Y-51737761D01*
X35048966Y-51732888D01*
X35444921Y-50895596D01*
X35447305Y-50890820D01*
X35878359Y-50071070D01*
X35880943Y-50066399D01*
X36028420Y-49812647D01*
X36346345Y-49265619D01*
X36349121Y-49261068D01*
X36410961Y-49164343D01*
X36848001Y-48480754D01*
X36850971Y-48476318D01*
X37335668Y-47784604D01*
X37382466Y-47717819D01*
X37385620Y-47713514D01*
X37948775Y-46978195D01*
X37952110Y-46974027D01*
X38545888Y-46263239D01*
X38549396Y-46259216D01*
X39172750Y-45574215D01*
X39176425Y-45570344D01*
X39828251Y-44912341D01*
X39832088Y-44908629D01*
X40511179Y-44278846D01*
X40515169Y-44275300D01*
X41220322Y-43674847D01*
X41224458Y-43671473D01*
X41954428Y-43101415D01*
X41958704Y-43098219D01*
X42712153Y-42559599D01*
X42716560Y-42556587D01*
X43119445Y-42293624D01*
X43492183Y-42050338D01*
X43496680Y-42047538D01*
X44293037Y-41574604D01*
X44297679Y-41571979D01*
X45113352Y-41133201D01*
X45118039Y-41130806D01*
X45951624Y-40726941D01*
X45956434Y-40724736D01*
X46806318Y-40356568D01*
X46811259Y-40354551D01*
X47675969Y-40022712D01*
X47680931Y-40020927D01*
X47985381Y-39918663D01*
X48056324Y-39915933D01*
X48117482Y-39951992D01*
G37*
%TD.AperFunction*%
%TA.AperFunction,Conductor*%
G36*
X62254442Y-39918889D02*
G01*
X62558820Y-40021139D01*
X62563839Y-40022945D01*
X62798496Y-40113004D01*
X63428524Y-40354804D01*
X63433466Y-40356822D01*
X63776289Y-40505344D01*
X64283326Y-40725009D01*
X64288146Y-40727220D01*
X64778443Y-40964782D01*
X65121659Y-41131080D01*
X65126412Y-41133509D01*
X65942059Y-41572304D01*
X65946692Y-41574924D01*
X66743040Y-42047883D01*
X66747549Y-42050693D01*
X67523140Y-42556954D01*
X67527547Y-42559965D01*
X67808485Y-42760812D01*
X68280438Y-43098219D01*
X68280979Y-43098606D01*
X68285249Y-43101798D01*
X69015222Y-43671895D01*
X69019330Y-43675246D01*
X69723975Y-44275300D01*
X69724481Y-44275731D01*
X69728471Y-44279277D01*
X70407555Y-44909092D01*
X70411391Y-44912804D01*
X71063174Y-45570802D01*
X71066849Y-45574672D01*
X71431638Y-45975561D01*
X71690204Y-46259716D01*
X71693711Y-46263739D01*
X72287038Y-46974027D01*
X72287472Y-46974547D01*
X72290796Y-46978703D01*
X72853526Y-47713514D01*
X72853927Y-47714037D01*
X72857077Y-47718336D01*
X73067720Y-48018964D01*
X73388554Y-48476857D01*
X73391524Y-48481293D01*
X73890380Y-49261622D01*
X73893160Y-49266179D01*
X74252135Y-49883879D01*
X74358535Y-50066966D01*
X74361116Y-50071631D01*
X74422314Y-50188022D01*
X74792158Y-50891419D01*
X74794541Y-50896195D01*
X75190462Y-51733479D01*
X75192641Y-51738352D01*
X75266432Y-51913208D01*
X75537035Y-52554430D01*
X75552743Y-52591653D01*
X75554714Y-52596615D01*
X75878352Y-53464412D01*
X75880109Y-53469446D01*
X75966886Y-53736118D01*
X76166702Y-54350173D01*
X76168246Y-54355283D01*
X76208991Y-54501239D01*
X76404176Y-55200428D01*
X76417277Y-55247360D01*
X76418601Y-55252525D01*
X76629476Y-56153714D01*
X76629623Y-56154344D01*
X76630726Y-56159552D01*
X76704835Y-56550174D01*
X76803364Y-57069514D01*
X76804248Y-57074779D01*
X76873864Y-57551110D01*
X76938093Y-57990581D01*
X76938190Y-57991248D01*
X76938849Y-57996542D01*
X76954108Y-58144525D01*
X77033848Y-58917818D01*
X77034283Y-58923138D01*
X77085989Y-59778368D01*
X77090175Y-59847612D01*
X77090385Y-59852934D01*
X77100935Y-60438452D01*
X77107071Y-60778997D01*
X77107054Y-60784332D01*
X77100510Y-61052990D01*
X77084501Y-61710238D01*
X77084258Y-61715571D01*
X77022507Y-62639699D01*
X77022038Y-62645016D01*
X76921204Y-63565670D01*
X76920512Y-63570958D01*
X76869627Y-63904351D01*
X76780767Y-64486549D01*
X76779850Y-64491808D01*
X76755872Y-64613962D01*
X76601582Y-65399992D01*
X76601453Y-65400648D01*
X76600317Y-65405849D01*
X76503612Y-65807633D01*
X76383581Y-66306331D01*
X76382222Y-66311493D01*
X76127547Y-67201960D01*
X76125971Y-67207060D01*
X75995559Y-67599365D01*
X75870947Y-67974223D01*
X75833804Y-68085955D01*
X75832017Y-68090971D01*
X75749877Y-68307030D01*
X75502884Y-68956708D01*
X75500882Y-68961656D01*
X75135377Y-69812668D01*
X75133167Y-69817527D01*
X74731945Y-70652294D01*
X74729531Y-70657055D01*
X74293311Y-71474079D01*
X74290697Y-71478734D01*
X73820273Y-72276532D01*
X73817465Y-72281072D01*
X73705233Y-72454202D01*
X73331188Y-73031207D01*
X73313653Y-73058256D01*
X73310664Y-73062659D01*
X72999671Y-73500577D01*
X72774399Y-73817788D01*
X72771217Y-73822074D01*
X72762385Y-73833457D01*
X72398786Y-74302062D01*
X72203438Y-74553825D01*
X72200080Y-74557968D01*
X72088070Y-74690345D01*
X71601818Y-75265011D01*
X71598284Y-75269012D01*
X70970637Y-75950054D01*
X70966938Y-75953902D01*
X70310974Y-76607781D01*
X70307114Y-76611469D01*
X69624065Y-77236958D01*
X69620053Y-77240479D01*
X69395668Y-77429119D01*
X68911085Y-77836507D01*
X68906953Y-77839834D01*
X68173401Y-78405278D01*
X68169129Y-78408429D01*
X67412260Y-78942315D01*
X67407878Y-78945269D01*
X66629067Y-79446622D01*
X66624551Y-79449396D01*
X66466517Y-79541905D01*
X66241285Y-79673749D01*
X66172391Y-79690900D01*
X66105161Y-79668082D01*
X66060940Y-79612539D01*
X66053768Y-79541905D01*
X66088537Y-79475914D01*
X70385423Y-75179027D01*
X70399836Y-75166640D01*
X70410598Y-75158720D01*
X70416497Y-75154379D01*
X70449477Y-75115559D01*
X70456407Y-75108043D01*
X70461791Y-75102659D01*
X70464054Y-75099798D01*
X70464059Y-75099793D01*
X70478778Y-75081188D01*
X70481567Y-75077786D01*
X70522499Y-75029607D01*
X70522502Y-75029603D01*
X70527238Y-75024028D01*
X70530567Y-75017507D01*
X70533688Y-75012828D01*
X70536624Y-75008074D01*
X70541164Y-75002336D01*
X70571035Y-74938425D01*
X70572945Y-74934518D01*
X70605022Y-74871697D01*
X70606762Y-74864585D01*
X70608728Y-74859299D01*
X70610486Y-74854014D01*
X70613585Y-74847384D01*
X70627952Y-74778311D01*
X70628922Y-74774027D01*
X70631972Y-74761562D01*
X70645676Y-74705558D01*
X70646346Y-74694759D01*
X70646370Y-74694760D01*
X70646634Y-74690345D01*
X70646924Y-74687095D01*
X70648415Y-74679927D01*
X70646392Y-74605156D01*
X70646346Y-74601748D01*
X70646346Y-65528012D01*
X70647779Y-65509062D01*
X70649789Y-65495853D01*
X70649789Y-65495849D01*
X70650889Y-65488619D01*
X70649089Y-65466482D01*
X70646761Y-65437865D01*
X70646346Y-65427651D01*
X70646346Y-65420020D01*
X70643171Y-65392788D01*
X70642740Y-65388429D01*
X70637023Y-65318141D01*
X70634767Y-65311177D01*
X70633669Y-65305681D01*
X70632380Y-65300228D01*
X70631532Y-65292956D01*
X70607462Y-65226644D01*
X70606039Y-65222499D01*
X70586565Y-65162384D01*
X70586563Y-65162380D01*
X70584310Y-65155425D01*
X70580518Y-65149175D01*
X70578175Y-65144058D01*
X70575668Y-65139051D01*
X70573173Y-65132179D01*
X70569165Y-65126066D01*
X70569163Y-65126062D01*
X70534493Y-65073183D01*
X70532146Y-65069462D01*
X70521942Y-65052647D01*
X70495579Y-65009201D01*
X70488417Y-65001091D01*
X70488434Y-65001076D01*
X70485501Y-64997767D01*
X70483404Y-64995259D01*
X70479392Y-64989140D01*
X70425087Y-64937696D01*
X70422645Y-64935319D01*
X70360513Y-64873187D01*
X70326487Y-64810875D01*
X70324298Y-64797264D01*
X70324232Y-64796637D01*
X70323542Y-64790072D01*
X70313389Y-64758824D01*
X70311362Y-64687856D01*
X70348024Y-64627058D01*
X70411737Y-64595733D01*
X70462815Y-64598045D01*
X70465848Y-64599301D01*
X70555654Y-64611124D01*
X70577204Y-64613961D01*
X70581298Y-64614500D01*
X70947954Y-64614500D01*
X71314699Y-64614499D01*
X71318783Y-64613961D01*
X71318789Y-64613961D01*
X71421963Y-64600379D01*
X71421965Y-64600378D01*
X71430150Y-64599301D01*
X71573797Y-64539800D01*
X71643195Y-64486549D01*
X71690595Y-64450178D01*
X71690598Y-64450175D01*
X71697148Y-64445149D01*
X71702256Y-64438493D01*
X71786772Y-64328348D01*
X71791799Y-64321797D01*
X71851300Y-64178151D01*
X71866499Y-64062701D01*
X71866498Y-62932055D01*
X71886500Y-62863934D01*
X71926376Y-62824799D01*
X71937240Y-62818102D01*
X71937243Y-62818099D01*
X71942125Y-62815090D01*
X72078732Y-62691731D01*
X72082220Y-62687183D01*
X72082224Y-62687179D01*
X72164025Y-62580527D01*
X72190752Y-62545681D01*
X72274483Y-62381765D01*
X72299242Y-62298867D01*
X72325515Y-62210902D01*
X72325516Y-62210899D01*
X72327158Y-62205400D01*
X72347037Y-62022414D01*
X72339341Y-61918341D01*
X72333886Y-61844567D01*
X72333885Y-61844563D01*
X72333463Y-61838852D01*
X72316772Y-61775041D01*
X72288336Y-61666330D01*
X72288335Y-61666327D01*
X72286884Y-61660780D01*
X72284453Y-61655587D01*
X72284451Y-61655582D01*
X72230328Y-61539978D01*
X72228071Y-61535158D01*
X72224367Y-61526398D01*
X72216037Y-61504415D01*
X72216036Y-61504414D01*
X72217033Y-61504036D01*
X72206499Y-61456870D01*
X72206499Y-59960888D01*
X72207997Y-59941517D01*
X72210333Y-59926503D01*
X72220722Y-59892449D01*
X72228876Y-59875034D01*
X72286849Y-59751205D01*
X72288299Y-59745661D01*
X72288301Y-59745656D01*
X72331975Y-59578686D01*
X72333426Y-59573140D01*
X72335093Y-59550604D01*
X72344072Y-59429168D01*
X72346999Y-59389585D01*
X72327121Y-59206605D01*
X72322770Y-59192035D01*
X72281616Y-59054249D01*
X72274447Y-59030247D01*
X72190719Y-58866338D01*
X72078703Y-58720293D01*
X71942100Y-58596939D01*
X71925877Y-58586938D01*
X71878387Y-58534165D01*
X71865999Y-58479682D01*
X71865999Y-58328115D01*
X71861524Y-58312876D01*
X71860134Y-58311671D01*
X71852451Y-58310000D01*
X70819999Y-58310000D01*
X70751878Y-58289998D01*
X70705385Y-58236342D01*
X70693999Y-58184000D01*
X70693999Y-57783885D01*
X71201999Y-57783885D01*
X71206474Y-57799124D01*
X71207864Y-57800329D01*
X71215547Y-57802000D01*
X71847884Y-57802000D01*
X71863123Y-57797525D01*
X71864328Y-57796135D01*
X71865999Y-57788452D01*
X71865999Y-57353452D01*
X71865461Y-57345243D01*
X71851891Y-57242167D01*
X71847653Y-57226350D01*
X71794523Y-57098084D01*
X71786334Y-57083901D01*
X71701820Y-56973760D01*
X71690241Y-56962180D01*
X71580095Y-56877663D01*
X71565914Y-56869476D01*
X71437649Y-56816346D01*
X71421832Y-56812108D01*
X71318756Y-56798538D01*
X71310547Y-56798000D01*
X71220114Y-56798000D01*
X71204875Y-56802475D01*
X71203670Y-56803865D01*
X71201999Y-56811548D01*
X71201999Y-57783885D01*
X70693999Y-57783885D01*
X70693999Y-56816115D01*
X70689524Y-56800876D01*
X70688134Y-56799671D01*
X70680451Y-56798000D01*
X70585451Y-56798000D01*
X70577242Y-56798538D01*
X70474166Y-56812108D01*
X70458349Y-56816346D01*
X70330083Y-56869476D01*
X70315905Y-56877662D01*
X70275113Y-56908962D01*
X70208892Y-56934562D01*
X70139343Y-56920297D01*
X70121705Y-56908961D01*
X70080352Y-56877230D01*
X70080349Y-56877228D01*
X70073796Y-56872200D01*
X70066170Y-56869041D01*
X70066168Y-56869040D01*
X69941842Y-56817542D01*
X69930150Y-56812699D01*
X69921966Y-56811622D01*
X69921964Y-56811621D01*
X69818787Y-56798038D01*
X69818786Y-56798038D01*
X69814700Y-56797500D01*
X69448044Y-56797500D01*
X69081299Y-56797501D01*
X69077215Y-56798039D01*
X69077209Y-56798039D01*
X68974035Y-56811621D01*
X68974033Y-56811622D01*
X68965848Y-56812699D01*
X68822201Y-56872200D01*
X68774292Y-56908962D01*
X68705403Y-56961822D01*
X68705400Y-56961825D01*
X68698850Y-56966851D01*
X68693824Y-56973401D01*
X68693823Y-56973402D01*
X68651525Y-57028527D01*
X68604199Y-57090203D01*
X68601040Y-57097829D01*
X68601039Y-57097831D01*
X68566688Y-57180762D01*
X68544698Y-57233849D01*
X68543621Y-57242033D01*
X68543620Y-57242035D01*
X68530037Y-57345210D01*
X68529499Y-57349299D01*
X68529500Y-57734590D01*
X68529500Y-58076404D01*
X68509498Y-58144525D01*
X68492595Y-58165499D01*
X67667990Y-58990104D01*
X67659704Y-58997644D01*
X67653225Y-59001756D01*
X67647800Y-59007533D01*
X67606600Y-59051407D01*
X67603845Y-59054249D01*
X67584108Y-59073986D01*
X67581628Y-59077183D01*
X67573925Y-59086203D01*
X67543657Y-59118435D01*
X67539838Y-59125381D01*
X67539836Y-59125384D01*
X67533895Y-59136190D01*
X67523044Y-59152709D01*
X67510629Y-59168715D01*
X67507484Y-59175984D01*
X67507481Y-59175988D01*
X67493069Y-59209293D01*
X67487852Y-59219943D01*
X67466548Y-59258696D01*
X67464577Y-59266371D01*
X67464577Y-59266372D01*
X67461510Y-59278318D01*
X67455106Y-59297022D01*
X67450381Y-59307942D01*
X67447062Y-59315611D01*
X67445823Y-59323434D01*
X67445820Y-59323444D01*
X67440144Y-59359280D01*
X67437738Y-59370900D01*
X67432941Y-59389584D01*
X67426743Y-59413726D01*
X67426743Y-59433980D01*
X67425192Y-59453690D01*
X67422023Y-59473699D01*
X67422769Y-59481591D01*
X67426184Y-59517717D01*
X67426743Y-59529575D01*
X67426743Y-69381476D01*
X67426216Y-69392659D01*
X67424541Y-69400152D01*
X67424790Y-69408078D01*
X67424790Y-69408079D01*
X67426681Y-69468229D01*
X67426743Y-69472188D01*
X67426743Y-69500099D01*
X67427240Y-69504033D01*
X67427240Y-69504034D01*
X67427248Y-69504099D01*
X67428181Y-69515936D01*
X67429570Y-69560132D01*
X67435221Y-69579582D01*
X67439230Y-69598943D01*
X67441769Y-69619040D01*
X67444688Y-69626411D01*
X67444688Y-69626413D01*
X67458047Y-69660155D01*
X67461892Y-69671385D01*
X67472014Y-69706226D01*
X67474225Y-69713836D01*
X67478258Y-69720655D01*
X67478260Y-69720660D01*
X67484536Y-69731271D01*
X67493231Y-69749019D01*
X67500691Y-69767860D01*
X67505353Y-69774276D01*
X67505353Y-69774277D01*
X67526679Y-69803630D01*
X67533195Y-69813550D01*
X67555701Y-69851605D01*
X67570022Y-69865926D01*
X67582862Y-69880959D01*
X67594771Y-69897350D01*
X67600875Y-69902400D01*
X67600880Y-69902405D01*
X67628841Y-69925536D01*
X67637621Y-69933526D01*
X67969967Y-70265872D01*
X68003993Y-70328184D01*
X67998928Y-70398999D01*
X67956381Y-70455835D01*
X67889861Y-70480646D01*
X67840371Y-70474280D01*
X67754457Y-70445116D01*
X67754454Y-70445115D01*
X67750550Y-70443790D01*
X67502895Y-70394529D01*
X67451365Y-70384279D01*
X67451362Y-70384279D01*
X67447322Y-70383475D01*
X67443211Y-70383206D01*
X67443207Y-70383205D01*
X67218078Y-70368449D01*
X67218069Y-70368449D01*
X67216029Y-70368315D01*
X67061601Y-70368315D01*
X67059561Y-70368449D01*
X67059552Y-70368449D01*
X66834423Y-70383205D01*
X66834419Y-70383206D01*
X66830308Y-70383475D01*
X66826268Y-70384279D01*
X66826265Y-70384279D01*
X66774735Y-70394529D01*
X66527080Y-70443790D01*
X66523176Y-70445115D01*
X66523173Y-70445116D01*
X66406875Y-70484594D01*
X66234319Y-70543169D01*
X66230623Y-70544992D01*
X66230615Y-70544995D01*
X66027436Y-70645193D01*
X65957035Y-70679911D01*
X65953602Y-70682205D01*
X65953600Y-70682206D01*
X65703401Y-70849383D01*
X65703396Y-70849387D01*
X65699970Y-70851676D01*
X65696876Y-70854390D01*
X65696870Y-70854394D01*
X65541926Y-70990277D01*
X65467525Y-71055525D01*
X65464816Y-71058614D01*
X65266394Y-71284870D01*
X65266390Y-71284876D01*
X65263676Y-71287970D01*
X65261387Y-71291396D01*
X65261383Y-71291401D01*
X65180157Y-71412965D01*
X65091911Y-71545034D01*
X65090087Y-71548733D01*
X65090084Y-71548738D01*
X65044764Y-71640638D01*
X64955169Y-71822319D01*
X64953844Y-71826224D01*
X64953843Y-71826225D01*
X64876770Y-72053276D01*
X64855790Y-72115080D01*
X64840154Y-72193688D01*
X64796633Y-72412487D01*
X64795475Y-72418308D01*
X64795206Y-72422419D01*
X64795205Y-72422423D01*
X64783130Y-72606654D01*
X64775254Y-72726815D01*
X64795475Y-73035322D01*
X64796279Y-73039362D01*
X64796279Y-73039365D01*
X64807608Y-73096322D01*
X64855790Y-73338550D01*
X64955169Y-73631311D01*
X64956992Y-73635007D01*
X64956995Y-73635015D01*
X65032097Y-73787305D01*
X65091911Y-73908595D01*
X65094205Y-73912028D01*
X65094206Y-73912030D01*
X65241652Y-74132698D01*
X65263676Y-74165660D01*
X65266390Y-74168754D01*
X65266394Y-74168760D01*
X65386728Y-74305974D01*
X65467525Y-74398105D01*
X65470614Y-74400814D01*
X65696870Y-74599236D01*
X65696876Y-74599240D01*
X65699970Y-74601954D01*
X65703396Y-74604243D01*
X65703401Y-74604247D01*
X65953600Y-74771424D01*
X65957035Y-74773719D01*
X66006463Y-74798094D01*
X66230615Y-74908635D01*
X66230623Y-74908638D01*
X66234319Y-74910461D01*
X66238234Y-74911790D01*
X66523173Y-75008514D01*
X66523176Y-75008515D01*
X66527080Y-75009840D01*
X66720037Y-75048221D01*
X66826265Y-75069351D01*
X66826268Y-75069351D01*
X66830308Y-75070155D01*
X66834419Y-75070424D01*
X66834423Y-75070425D01*
X67059552Y-75085181D01*
X67059561Y-75085181D01*
X67061601Y-75085315D01*
X67216029Y-75085315D01*
X67218069Y-75085181D01*
X67218078Y-75085181D01*
X67290820Y-75080413D01*
X67398587Y-75073349D01*
X67467868Y-75088852D01*
X67517771Y-75139352D01*
X67532449Y-75208815D01*
X67507243Y-75275186D01*
X67495921Y-75288174D01*
X65354500Y-77429595D01*
X65292188Y-77463621D01*
X65265405Y-77466500D01*
X58972867Y-77466500D01*
X58904746Y-77446498D01*
X58858253Y-77392842D01*
X58848149Y-77322568D01*
X58872904Y-77263797D01*
X58946335Y-77168099D01*
X58954524Y-77153914D01*
X59007654Y-77025649D01*
X59011892Y-77009832D01*
X59025462Y-76906756D01*
X59026000Y-76898547D01*
X59026000Y-76808114D01*
X59021525Y-76792875D01*
X59020135Y-76791670D01*
X59012452Y-76789999D01*
X57640000Y-76789999D01*
X57571879Y-76769997D01*
X57525386Y-76716341D01*
X57514000Y-76663999D01*
X57514000Y-76407999D01*
X57534002Y-76339878D01*
X57587658Y-76293385D01*
X57640000Y-76281999D01*
X59007885Y-76281999D01*
X59023124Y-76277524D01*
X59024329Y-76276134D01*
X59026000Y-76268451D01*
X59026000Y-76173451D01*
X59025462Y-76165242D01*
X59011892Y-76062166D01*
X59007654Y-76046349D01*
X58954524Y-75918083D01*
X58946338Y-75903905D01*
X58915038Y-75863113D01*
X58889438Y-75796892D01*
X58903703Y-75727343D01*
X58915039Y-75709705D01*
X58946770Y-75668352D01*
X58946772Y-75668349D01*
X58951800Y-75661796D01*
X59011301Y-75518150D01*
X59026500Y-75402700D01*
X59026499Y-74669299D01*
X59018056Y-74605156D01*
X59012379Y-74562035D01*
X59012378Y-74562033D01*
X59011301Y-74553848D01*
X58951800Y-74410201D01*
X58880926Y-74317836D01*
X58862178Y-74293403D01*
X58862175Y-74293400D01*
X58857149Y-74286850D01*
X58849436Y-74280931D01*
X58740348Y-74197226D01*
X58733797Y-74192199D01*
X58726171Y-74189040D01*
X58726169Y-74189039D01*
X58639634Y-74153195D01*
X58590151Y-74132698D01*
X58581967Y-74131621D01*
X58581965Y-74131620D01*
X58478788Y-74118037D01*
X58478787Y-74118037D01*
X58474701Y-74117499D01*
X58445185Y-74117499D01*
X58377064Y-74097497D01*
X58328033Y-74037882D01*
X58320200Y-74018098D01*
X58316355Y-74006870D01*
X58306789Y-73973946D01*
X58304018Y-73964407D01*
X58299984Y-73957585D01*
X58299981Y-73957579D01*
X58293706Y-73946968D01*
X58285010Y-73929218D01*
X58280472Y-73917756D01*
X58280469Y-73917751D01*
X58277552Y-73910383D01*
X58251573Y-73874625D01*
X58245057Y-73864707D01*
X58226575Y-73833457D01*
X58222542Y-73826637D01*
X58208218Y-73812313D01*
X58195376Y-73797278D01*
X58192472Y-73793281D01*
X58183472Y-73780893D01*
X58149406Y-73752711D01*
X58140627Y-73744722D01*
X57133652Y-72737747D01*
X57126112Y-72729461D01*
X57122000Y-72722982D01*
X57072348Y-72676356D01*
X57069507Y-72673602D01*
X57049770Y-72653865D01*
X57046573Y-72651385D01*
X57037551Y-72643680D01*
X57021546Y-72628650D01*
X57005321Y-72613414D01*
X56998375Y-72609595D01*
X56998372Y-72609593D01*
X56987566Y-72603652D01*
X56971047Y-72592801D01*
X56970583Y-72592441D01*
X56955041Y-72580386D01*
X56947772Y-72577241D01*
X56947768Y-72577238D01*
X56914463Y-72562826D01*
X56903813Y-72557609D01*
X56865060Y-72536305D01*
X56845437Y-72531267D01*
X56826734Y-72524863D01*
X56815420Y-72519967D01*
X56815419Y-72519967D01*
X56808145Y-72516819D01*
X56800319Y-72515579D01*
X56792701Y-72513366D01*
X56793411Y-72510921D01*
X56740543Y-72485850D01*
X56712887Y-72450448D01*
X56692554Y-72411764D01*
X56062812Y-71782022D01*
X56048868Y-71774408D01*
X56047035Y-71774539D01*
X56040420Y-71778790D01*
X55406723Y-72412487D01*
X55396676Y-72430886D01*
X55346473Y-72481088D01*
X55286089Y-72496500D01*
X55076060Y-72496500D01*
X55007939Y-72476498D01*
X54961446Y-72422842D01*
X54951342Y-72352568D01*
X54980836Y-72287988D01*
X54986965Y-72281404D01*
X55058908Y-72209462D01*
X55066518Y-72195524D01*
X55066387Y-72193688D01*
X55058965Y-72182140D01*
X55038962Y-72114020D01*
X55058963Y-72045899D01*
X55075867Y-72024923D01*
X55677978Y-71422812D01*
X55684356Y-71411132D01*
X56414408Y-71411132D01*
X56414539Y-71412965D01*
X56418790Y-71419580D01*
X57052486Y-72053276D01*
X57064261Y-72059706D01*
X57076276Y-72050410D01*
X57097001Y-72020811D01*
X57102479Y-72011323D01*
X57187159Y-71829723D01*
X57190907Y-71819429D01*
X57242769Y-71625878D01*
X57244671Y-71615091D01*
X57262135Y-71415475D01*
X57262135Y-71410000D01*
X59916884Y-71410000D01*
X59935314Y-71620655D01*
X59936738Y-71625968D01*
X59936738Y-71625970D01*
X59950284Y-71676522D01*
X59990044Y-71824910D01*
X60079411Y-72016558D01*
X60200699Y-72189776D01*
X60350224Y-72339301D01*
X60523442Y-72460589D01*
X60528420Y-72462910D01*
X60528423Y-72462912D01*
X60710108Y-72547633D01*
X60715090Y-72549956D01*
X60720398Y-72551378D01*
X60720400Y-72551379D01*
X60914030Y-72603262D01*
X60914032Y-72603262D01*
X60919345Y-72604686D01*
X61130000Y-72623116D01*
X61135475Y-72622637D01*
X61217383Y-72615471D01*
X61286988Y-72629460D01*
X61337981Y-72678860D01*
X61354156Y-72733738D01*
X61361977Y-72869387D01*
X61363112Y-72874424D01*
X61363113Y-72874430D01*
X61405535Y-73062672D01*
X61412039Y-73091531D01*
X61413983Y-73096317D01*
X61413984Y-73096322D01*
X61495767Y-73297728D01*
X61497711Y-73302515D01*
X61616692Y-73496674D01*
X61765786Y-73668793D01*
X61940989Y-73814249D01*
X61945441Y-73816851D01*
X61945446Y-73816854D01*
X62108320Y-73912030D01*
X62137597Y-73929138D01*
X62350329Y-74010372D01*
X62355395Y-74011403D01*
X62355396Y-74011403D01*
X62388303Y-74018098D01*
X62573472Y-74055771D01*
X62701288Y-74060458D01*
X62795870Y-74063927D01*
X62795875Y-74063927D01*
X62801034Y-74064116D01*
X62806154Y-74063460D01*
X62806156Y-74063460D01*
X62878344Y-74054212D01*
X63026903Y-74035181D01*
X63031852Y-74033696D01*
X63031858Y-74033695D01*
X63158204Y-73995789D01*
X63245013Y-73969745D01*
X63291507Y-73946968D01*
X63362823Y-73912030D01*
X63449507Y-73869564D01*
X63453711Y-73866566D01*
X63453715Y-73866563D01*
X63546465Y-73800405D01*
X63634893Y-73737330D01*
X63796193Y-73576592D01*
X63929073Y-73391669D01*
X63957326Y-73334505D01*
X64027673Y-73192168D01*
X64027674Y-73192166D01*
X64029967Y-73187526D01*
X64096164Y-72969646D01*
X64108700Y-72874430D01*
X64125450Y-72747201D01*
X64125451Y-72747194D01*
X64125887Y-72743879D01*
X64126203Y-72730934D01*
X64127464Y-72679365D01*
X64127464Y-72679360D01*
X64127546Y-72676000D01*
X64116510Y-72541771D01*
X64109311Y-72454202D01*
X64109310Y-72454196D01*
X64108887Y-72449051D01*
X64066133Y-72278837D01*
X64054672Y-72233208D01*
X64054671Y-72233204D01*
X64053413Y-72228197D01*
X64045267Y-72209462D01*
X63964672Y-72024106D01*
X63964670Y-72024103D01*
X63962612Y-72019369D01*
X63838923Y-71828175D01*
X63685668Y-71659750D01*
X63506963Y-71518618D01*
X63500335Y-71514959D01*
X63499651Y-71514269D01*
X63498131Y-71513259D01*
X63498339Y-71512945D01*
X63450363Y-71464533D01*
X63435585Y-71395091D01*
X63460696Y-71328684D01*
X63488054Y-71302069D01*
X63630689Y-71200329D01*
X63630691Y-71200327D01*
X63634893Y-71197330D01*
X63796193Y-71036592D01*
X63822200Y-71000400D01*
X63926055Y-70855869D01*
X63929073Y-70851669D01*
X63950854Y-70807600D01*
X64027673Y-70652168D01*
X64027674Y-70652166D01*
X64029967Y-70647526D01*
X64096164Y-70429646D01*
X64098182Y-70414318D01*
X64125450Y-70207201D01*
X64125451Y-70207194D01*
X64125887Y-70203879D01*
X64127546Y-70136000D01*
X64120179Y-70046393D01*
X64109311Y-69914202D01*
X64109310Y-69914196D01*
X64108887Y-69909051D01*
X64066376Y-69739806D01*
X64054672Y-69693208D01*
X64054671Y-69693204D01*
X64053413Y-69688197D01*
X64051354Y-69683461D01*
X63964672Y-69484106D01*
X63964670Y-69484103D01*
X63962612Y-69479369D01*
X63838923Y-69288175D01*
X63685668Y-69119750D01*
X63506963Y-68978618D01*
X63500335Y-68974959D01*
X63499651Y-68974269D01*
X63498131Y-68973259D01*
X63498339Y-68972945D01*
X63450363Y-68924533D01*
X63435585Y-68855091D01*
X63460696Y-68788684D01*
X63488054Y-68762069D01*
X63630689Y-68660329D01*
X63630691Y-68660327D01*
X63634893Y-68657330D01*
X63796193Y-68496592D01*
X63929073Y-68311669D01*
X63937265Y-68295095D01*
X64027673Y-68112168D01*
X64027674Y-68112166D01*
X64029967Y-68107526D01*
X64096164Y-67889646D01*
X64108700Y-67794430D01*
X64125450Y-67667201D01*
X64125451Y-67667194D01*
X64125887Y-67663879D01*
X64127546Y-67596000D01*
X64120179Y-67506393D01*
X64109311Y-67374202D01*
X64109310Y-67374196D01*
X64108887Y-67369051D01*
X64055842Y-67157866D01*
X64054672Y-67153208D01*
X64054671Y-67153204D01*
X64053413Y-67148197D01*
X64046728Y-67132823D01*
X63964672Y-66944106D01*
X63964670Y-66944103D01*
X63962612Y-66939369D01*
X63882459Y-66815472D01*
X63841731Y-66752515D01*
X63841729Y-66752512D01*
X63838923Y-66748175D01*
X63685668Y-66579750D01*
X63506963Y-66438618D01*
X63500335Y-66434959D01*
X63499651Y-66434269D01*
X63498131Y-66433259D01*
X63498339Y-66432945D01*
X63450363Y-66384533D01*
X63435585Y-66315091D01*
X63460696Y-66248684D01*
X63488054Y-66222069D01*
X63630689Y-66120329D01*
X63630691Y-66120327D01*
X63634893Y-66117330D01*
X63796193Y-65956592D01*
X63804736Y-65944704D01*
X63926055Y-65775869D01*
X63929073Y-65771669D01*
X63957873Y-65713398D01*
X64027673Y-65572168D01*
X64027674Y-65572166D01*
X64029967Y-65567526D01*
X64096164Y-65349646D01*
X64101952Y-65305681D01*
X64125450Y-65127201D01*
X64125451Y-65127194D01*
X64125887Y-65123879D01*
X64127546Y-65056000D01*
X64120179Y-64966393D01*
X64109311Y-64834202D01*
X64109310Y-64834196D01*
X64108887Y-64829051D01*
X64073422Y-64687856D01*
X64054672Y-64613208D01*
X64054671Y-64613204D01*
X64053413Y-64608197D01*
X64051354Y-64603461D01*
X63964672Y-64404106D01*
X63964670Y-64404103D01*
X63962612Y-64399369D01*
X63838923Y-64208175D01*
X63685668Y-64039750D01*
X63506963Y-63898618D01*
X63500335Y-63894959D01*
X63499651Y-63894269D01*
X63498131Y-63893259D01*
X63498339Y-63892945D01*
X63450363Y-63844533D01*
X63435585Y-63775091D01*
X63460696Y-63708684D01*
X63488054Y-63682069D01*
X63630689Y-63580329D01*
X63630691Y-63580327D01*
X63634893Y-63577330D01*
X63796193Y-63416592D01*
X63929073Y-63231669D01*
X63956756Y-63175658D01*
X64027673Y-63032168D01*
X64027674Y-63032166D01*
X64029967Y-63027526D01*
X64096164Y-62809646D01*
X64108700Y-62714430D01*
X64125450Y-62587201D01*
X64125451Y-62587194D01*
X64125887Y-62583879D01*
X64127546Y-62516000D01*
X64115952Y-62374981D01*
X64109311Y-62294202D01*
X64109310Y-62294196D01*
X64108887Y-62289051D01*
X64053413Y-62068197D01*
X64045546Y-62050103D01*
X63964672Y-61864106D01*
X63964670Y-61864103D01*
X63962612Y-61859369D01*
X63881403Y-61733839D01*
X63841731Y-61672515D01*
X63841729Y-61672512D01*
X63838923Y-61668175D01*
X63685668Y-61499750D01*
X63506963Y-61358618D01*
X63500335Y-61354959D01*
X63499651Y-61354269D01*
X63498131Y-61353259D01*
X63498339Y-61352945D01*
X63450363Y-61304533D01*
X63435585Y-61235091D01*
X63460696Y-61168684D01*
X63488054Y-61142069D01*
X63630689Y-61040329D01*
X63630691Y-61040327D01*
X63634893Y-61037330D01*
X63796193Y-60876592D01*
X63929073Y-60691669D01*
X64029967Y-60487526D01*
X64096164Y-60269646D01*
X64108700Y-60174430D01*
X64125450Y-60047201D01*
X64125451Y-60047194D01*
X64125887Y-60043879D01*
X64127546Y-59976000D01*
X64117211Y-59850296D01*
X64109311Y-59754202D01*
X64109310Y-59754196D01*
X64108887Y-59749051D01*
X64063265Y-59567421D01*
X64054672Y-59533208D01*
X64054671Y-59533204D01*
X64053413Y-59528197D01*
X64050321Y-59521085D01*
X63964672Y-59324106D01*
X63964670Y-59324103D01*
X63962612Y-59319369D01*
X63864245Y-59167317D01*
X63841731Y-59132515D01*
X63841729Y-59132512D01*
X63838923Y-59128175D01*
X63685668Y-58959750D01*
X63506963Y-58818618D01*
X63500335Y-58814959D01*
X63499651Y-58814269D01*
X63498131Y-58813259D01*
X63498339Y-58812945D01*
X63450363Y-58764533D01*
X63435585Y-58695091D01*
X63460696Y-58628684D01*
X63488054Y-58602069D01*
X63630689Y-58500329D01*
X63630691Y-58500327D01*
X63634893Y-58497330D01*
X63796193Y-58336592D01*
X63814101Y-58311671D01*
X63926055Y-58155869D01*
X63929073Y-58151669D01*
X63940478Y-58128594D01*
X64027673Y-57952168D01*
X64027674Y-57952166D01*
X64029967Y-57947526D01*
X64096164Y-57729646D01*
X64105858Y-57656017D01*
X64125450Y-57507201D01*
X64125451Y-57507194D01*
X64125887Y-57503879D01*
X64126658Y-57472328D01*
X64127464Y-57439365D01*
X64127464Y-57439360D01*
X64127546Y-57436000D01*
X64117115Y-57309123D01*
X64109311Y-57214202D01*
X64109310Y-57214196D01*
X64108887Y-57209051D01*
X64070188Y-57054980D01*
X64054672Y-56993208D01*
X64054671Y-56993204D01*
X64053413Y-56988197D01*
X64046980Y-56973401D01*
X63964672Y-56784106D01*
X63964670Y-56784103D01*
X63962612Y-56779369D01*
X63838923Y-56588175D01*
X63685668Y-56419750D01*
X63506963Y-56278618D01*
X63500335Y-56274959D01*
X63499651Y-56274269D01*
X63498131Y-56273259D01*
X63498339Y-56272945D01*
X63450363Y-56224533D01*
X63435585Y-56155091D01*
X63460696Y-56088684D01*
X63488054Y-56062069D01*
X63630689Y-55960329D01*
X63630691Y-55960327D01*
X63634893Y-55957330D01*
X63796193Y-55796592D01*
X63801802Y-55788787D01*
X63926055Y-55615869D01*
X63929073Y-55611669D01*
X63931651Y-55606454D01*
X64027673Y-55412168D01*
X64027674Y-55412166D01*
X64029967Y-55407526D01*
X64078821Y-55246727D01*
X64094662Y-55194590D01*
X64094662Y-55194589D01*
X64096164Y-55189646D01*
X64102028Y-55145105D01*
X64125450Y-54967201D01*
X64125451Y-54967194D01*
X64125887Y-54963879D01*
X64127546Y-54896000D01*
X64117941Y-54779177D01*
X64109311Y-54674202D01*
X64109310Y-54674196D01*
X64108887Y-54669051D01*
X64053413Y-54448197D01*
X64051354Y-54443461D01*
X63964672Y-54244106D01*
X63964670Y-54244103D01*
X63962612Y-54239369D01*
X63838923Y-54048175D01*
X63685668Y-53879750D01*
X63506963Y-53738618D01*
X63500335Y-53734959D01*
X63499651Y-53734269D01*
X63498131Y-53733259D01*
X63498339Y-53732945D01*
X63450363Y-53684533D01*
X63435585Y-53615091D01*
X63460696Y-53548684D01*
X63488054Y-53522069D01*
X63630689Y-53420329D01*
X63630691Y-53420327D01*
X63634893Y-53417330D01*
X63796193Y-53256592D01*
X63929073Y-53071669D01*
X63931494Y-53066772D01*
X64027673Y-52872168D01*
X64027674Y-52872166D01*
X64029967Y-52867526D01*
X64096164Y-52649646D01*
X64097462Y-52639787D01*
X64125450Y-52427201D01*
X64125451Y-52427194D01*
X64125887Y-52423879D01*
X64127546Y-52356000D01*
X64120125Y-52265740D01*
X64109311Y-52134202D01*
X64109310Y-52134196D01*
X64108887Y-52129051D01*
X64074327Y-51991461D01*
X64054672Y-51913208D01*
X64054671Y-51913204D01*
X64053413Y-51908197D01*
X64041743Y-51881358D01*
X63964672Y-51704106D01*
X63964670Y-51704103D01*
X63962612Y-51699369D01*
X63838923Y-51508175D01*
X63685668Y-51339750D01*
X63506963Y-51198618D01*
X63500335Y-51194959D01*
X63499651Y-51194269D01*
X63498131Y-51193259D01*
X63498339Y-51192945D01*
X63450363Y-51144533D01*
X63435585Y-51075091D01*
X63460696Y-51008684D01*
X63488054Y-50982069D01*
X63630689Y-50880329D01*
X63630691Y-50880327D01*
X63634893Y-50877330D01*
X63796193Y-50716592D01*
X63929073Y-50531669D01*
X63931494Y-50526772D01*
X64027673Y-50332168D01*
X64027674Y-50332166D01*
X64029967Y-50327526D01*
X64096164Y-50109646D01*
X64100575Y-50076143D01*
X64125450Y-49887201D01*
X64125451Y-49887194D01*
X64125887Y-49883879D01*
X64125970Y-49880502D01*
X64127464Y-49819365D01*
X64127464Y-49819360D01*
X64127546Y-49816000D01*
X64120179Y-49726393D01*
X64109311Y-49594202D01*
X64109310Y-49594196D01*
X64108887Y-49589051D01*
X64053413Y-49368197D01*
X64051354Y-49363461D01*
X63964672Y-49164106D01*
X63964670Y-49164103D01*
X63962612Y-49159369D01*
X63838923Y-48968175D01*
X63685668Y-48799750D01*
X63540603Y-48685185D01*
X64775254Y-48685185D01*
X64795475Y-48993692D01*
X64855790Y-49296920D01*
X64857115Y-49300824D01*
X64857116Y-49300827D01*
X64945352Y-49560762D01*
X64955169Y-49589681D01*
X64956992Y-49593377D01*
X64956995Y-49593385D01*
X65065124Y-49812646D01*
X65091911Y-49866965D01*
X65094205Y-49870398D01*
X65094206Y-49870400D01*
X65254065Y-50109646D01*
X65263676Y-50124030D01*
X65266390Y-50127124D01*
X65266394Y-50127130D01*
X65437795Y-50322575D01*
X65467525Y-50356475D01*
X65470614Y-50359184D01*
X65696870Y-50557606D01*
X65696876Y-50557610D01*
X65699970Y-50560324D01*
X65703396Y-50562613D01*
X65703401Y-50562617D01*
X65953600Y-50729794D01*
X65957035Y-50732089D01*
X65960738Y-50733915D01*
X66230615Y-50867005D01*
X66230623Y-50867008D01*
X66234319Y-50868831D01*
X66238234Y-50870160D01*
X66523173Y-50966884D01*
X66523176Y-50966885D01*
X66527080Y-50968210D01*
X66753776Y-51013302D01*
X66826265Y-51027721D01*
X66826268Y-51027721D01*
X66830308Y-51028525D01*
X66834419Y-51028794D01*
X66834423Y-51028795D01*
X67059552Y-51043551D01*
X67059561Y-51043551D01*
X67061601Y-51043685D01*
X67216029Y-51043685D01*
X67218069Y-51043551D01*
X67218078Y-51043551D01*
X67443207Y-51028795D01*
X67443211Y-51028794D01*
X67447322Y-51028525D01*
X67451362Y-51027721D01*
X67451365Y-51027721D01*
X67523854Y-51013302D01*
X67750550Y-50968210D01*
X67754454Y-50966885D01*
X67754457Y-50966884D01*
X68039396Y-50870160D01*
X68043311Y-50868831D01*
X68047007Y-50867008D01*
X68047015Y-50867005D01*
X68316892Y-50733915D01*
X68320595Y-50732089D01*
X68324030Y-50729794D01*
X68574229Y-50562617D01*
X68574234Y-50562613D01*
X68577660Y-50560324D01*
X68580754Y-50557610D01*
X68580760Y-50557606D01*
X68807016Y-50359184D01*
X68810105Y-50356475D01*
X68839835Y-50322575D01*
X69011236Y-50127130D01*
X69011240Y-50127124D01*
X69013954Y-50124030D01*
X69023566Y-50109646D01*
X69176658Y-49880527D01*
X69185719Y-49866966D01*
X69206129Y-49825580D01*
X69320637Y-49593379D01*
X69322461Y-49589681D01*
X69332278Y-49560762D01*
X69420514Y-49300827D01*
X69420515Y-49300824D01*
X69421840Y-49296920D01*
X69482155Y-48993692D01*
X69502376Y-48685185D01*
X69494810Y-48569745D01*
X69482425Y-48380793D01*
X69482424Y-48380789D01*
X69482155Y-48376678D01*
X69480151Y-48366600D01*
X69466765Y-48299308D01*
X69421840Y-48073450D01*
X69412560Y-48046110D01*
X69323790Y-47784604D01*
X69322461Y-47780689D01*
X69320637Y-47776991D01*
X69320635Y-47776985D01*
X69187545Y-47507108D01*
X69185719Y-47503405D01*
X69183425Y-47499972D01*
X69183424Y-47499970D01*
X69016247Y-47249771D01*
X69016243Y-47249766D01*
X69013954Y-47246340D01*
X69011240Y-47243246D01*
X69011236Y-47243240D01*
X68812814Y-47016984D01*
X68810105Y-47013895D01*
X68787127Y-46993744D01*
X68580760Y-46812764D01*
X68580754Y-46812760D01*
X68577660Y-46810046D01*
X68574234Y-46807757D01*
X68574229Y-46807753D01*
X68324030Y-46640576D01*
X68324028Y-46640575D01*
X68320595Y-46638281D01*
X68231478Y-46594333D01*
X68047015Y-46503365D01*
X68047007Y-46503362D01*
X68043311Y-46501539D01*
X68035758Y-46498975D01*
X67754457Y-46403486D01*
X67754454Y-46403485D01*
X67750550Y-46402160D01*
X67523854Y-46357068D01*
X67451365Y-46342649D01*
X67451362Y-46342649D01*
X67447322Y-46341845D01*
X67443211Y-46341576D01*
X67443207Y-46341575D01*
X67218078Y-46326819D01*
X67218069Y-46326819D01*
X67216029Y-46326685D01*
X67061601Y-46326685D01*
X67059561Y-46326819D01*
X67059552Y-46326819D01*
X66834423Y-46341575D01*
X66834419Y-46341576D01*
X66830308Y-46341845D01*
X66826268Y-46342649D01*
X66826265Y-46342649D01*
X66753776Y-46357068D01*
X66527080Y-46402160D01*
X66523176Y-46403485D01*
X66523173Y-46403486D01*
X66241872Y-46498975D01*
X66234319Y-46501539D01*
X66230623Y-46503362D01*
X66230615Y-46503365D01*
X66046152Y-46594333D01*
X65957035Y-46638281D01*
X65953602Y-46640575D01*
X65953600Y-46640576D01*
X65703401Y-46807753D01*
X65703396Y-46807757D01*
X65699970Y-46810046D01*
X65696876Y-46812760D01*
X65696870Y-46812764D01*
X65490503Y-46993744D01*
X65467525Y-47013895D01*
X65464816Y-47016984D01*
X65266394Y-47243240D01*
X65266390Y-47243246D01*
X65263676Y-47246340D01*
X65261387Y-47249766D01*
X65261383Y-47249771D01*
X65131936Y-47443503D01*
X65091911Y-47503404D01*
X64955169Y-47780689D01*
X64953844Y-47784594D01*
X64953843Y-47784595D01*
X64865071Y-48046110D01*
X64855790Y-48073450D01*
X64810865Y-48299308D01*
X64797480Y-48366600D01*
X64795475Y-48376678D01*
X64795206Y-48380789D01*
X64795205Y-48380793D01*
X64782820Y-48569745D01*
X64775254Y-48685185D01*
X63540603Y-48685185D01*
X63506963Y-48658618D01*
X63499849Y-48654691D01*
X63499006Y-48653840D01*
X63498131Y-48653259D01*
X63498251Y-48653078D01*
X63449876Y-48604261D01*
X63435100Y-48534819D01*
X63460214Y-48468413D01*
X63487568Y-48441802D01*
X63506103Y-48428581D01*
X63514504Y-48417881D01*
X63507515Y-48404725D01*
X62750812Y-47648022D01*
X62736868Y-47640408D01*
X62735035Y-47640539D01*
X62728420Y-47644790D01*
X61965510Y-48407700D01*
X61958750Y-48420080D01*
X61964031Y-48427134D01*
X61978698Y-48435705D01*
X62027422Y-48487343D01*
X62040493Y-48557126D01*
X62013762Y-48622898D01*
X61990781Y-48645253D01*
X61819579Y-48773795D01*
X61815444Y-48776900D01*
X61811872Y-48780638D01*
X61669757Y-48929353D01*
X61658120Y-48941530D01*
X61655206Y-48945802D01*
X61655205Y-48945803D01*
X61625345Y-48989577D01*
X61529797Y-49129645D01*
X61433921Y-49336192D01*
X61432539Y-49341174D01*
X61432539Y-49341175D01*
X61425045Y-49368197D01*
X61373067Y-49555625D01*
X61348869Y-49782050D01*
X61349166Y-49787202D01*
X61349166Y-49787206D01*
X61351379Y-49825580D01*
X61361977Y-50009387D01*
X61363112Y-50014424D01*
X61363113Y-50014430D01*
X61410901Y-50226482D01*
X61412039Y-50231531D01*
X61413983Y-50236317D01*
X61413984Y-50236322D01*
X61495673Y-50437496D01*
X61497711Y-50442515D01*
X61616692Y-50636674D01*
X61765786Y-50808793D01*
X61940989Y-50954249D01*
X61945440Y-50956850D01*
X61945450Y-50956857D01*
X61978266Y-50976033D01*
X62026989Y-51027672D01*
X62040059Y-51097455D01*
X62013326Y-51163227D01*
X61990353Y-51185575D01*
X61815444Y-51316900D01*
X61658120Y-51481530D01*
X61655206Y-51485802D01*
X61655205Y-51485803D01*
X61591648Y-51578975D01*
X61529797Y-51669645D01*
X61433921Y-51876192D01*
X61432539Y-51881174D01*
X61432539Y-51881175D01*
X61425045Y-51908197D01*
X61373067Y-52095625D01*
X61348869Y-52322050D01*
X61349166Y-52327202D01*
X61349166Y-52327206D01*
X61351077Y-52360346D01*
X61361977Y-52549387D01*
X61363112Y-52554424D01*
X61363113Y-52554430D01*
X61402234Y-52728022D01*
X61412039Y-52771531D01*
X61413983Y-52776317D01*
X61413984Y-52776322D01*
X61495675Y-52977502D01*
X61497711Y-52982515D01*
X61616692Y-53176674D01*
X61765786Y-53348793D01*
X61851952Y-53420329D01*
X61916868Y-53474223D01*
X61940989Y-53494249D01*
X61945440Y-53496850D01*
X61945450Y-53496857D01*
X61978266Y-53516033D01*
X62026989Y-53567672D01*
X62040059Y-53637455D01*
X62013326Y-53703227D01*
X61990353Y-53725575D01*
X61815444Y-53856900D01*
X61658120Y-54021530D01*
X61655206Y-54025802D01*
X61655205Y-54025803D01*
X61624778Y-54070408D01*
X61529797Y-54209645D01*
X61433921Y-54416192D01*
X61373067Y-54635625D01*
X61348869Y-54862050D01*
X61349166Y-54867202D01*
X61349166Y-54867206D01*
X61353287Y-54938670D01*
X61361977Y-55089387D01*
X61363112Y-55094424D01*
X61363113Y-55094430D01*
X61398014Y-55249297D01*
X61412039Y-55311531D01*
X61413983Y-55316317D01*
X61413984Y-55316322D01*
X61457892Y-55424454D01*
X61497711Y-55522515D01*
X61616692Y-55716674D01*
X61765786Y-55888793D01*
X61940989Y-56034249D01*
X61945440Y-56036850D01*
X61945450Y-56036857D01*
X61978266Y-56056033D01*
X62026989Y-56107672D01*
X62040059Y-56177455D01*
X62013326Y-56243227D01*
X61990353Y-56265575D01*
X61815444Y-56396900D01*
X61658120Y-56561530D01*
X61655206Y-56565802D01*
X61655205Y-56565803D01*
X61636742Y-56592869D01*
X61529797Y-56749645D01*
X61433921Y-56956192D01*
X61432539Y-56961174D01*
X61432539Y-56961175D01*
X61426359Y-56983461D01*
X61373067Y-57175625D01*
X61348869Y-57402050D01*
X61349166Y-57407202D01*
X61349166Y-57407206D01*
X61352921Y-57472328D01*
X61361977Y-57629387D01*
X61363112Y-57634424D01*
X61363113Y-57634430D01*
X61400500Y-57800329D01*
X61412039Y-57851531D01*
X61413983Y-57856317D01*
X61413984Y-57856322D01*
X61470652Y-57995878D01*
X61497711Y-58062515D01*
X61500410Y-58066919D01*
X61604233Y-58236342D01*
X61616692Y-58256674D01*
X61765786Y-58428793D01*
X61940989Y-58574249D01*
X61945440Y-58576850D01*
X61945450Y-58576857D01*
X61978266Y-58596033D01*
X62026989Y-58647672D01*
X62040059Y-58717455D01*
X62013326Y-58783227D01*
X61990353Y-58805575D01*
X61815444Y-58936900D01*
X61811872Y-58940638D01*
X61673590Y-59085342D01*
X61658120Y-59101530D01*
X61655206Y-59105802D01*
X61655205Y-59105803D01*
X61628553Y-59144873D01*
X61529797Y-59289645D01*
X61528775Y-59288948D01*
X61481964Y-59334209D01*
X61412346Y-59348131D01*
X61346252Y-59322204D01*
X61335763Y-59313105D01*
X61185320Y-59167317D01*
X61176638Y-59160286D01*
X61006972Y-59046275D01*
X60997163Y-59040883D01*
X60810001Y-58958725D01*
X60799406Y-58955159D01*
X60689615Y-58928800D01*
X60675530Y-58929505D01*
X60672000Y-58938384D01*
X60672000Y-62473702D01*
X60675973Y-62487233D01*
X60683421Y-62488304D01*
X60870915Y-62430622D01*
X60881260Y-62426401D01*
X61062912Y-62332643D01*
X61072350Y-62326653D01*
X61158430Y-62260602D01*
X61224650Y-62235001D01*
X61294199Y-62249266D01*
X61344995Y-62298867D01*
X61360421Y-62373953D01*
X61355878Y-62416462D01*
X61348869Y-62482050D01*
X61349166Y-62487202D01*
X61349166Y-62487206D01*
X61351551Y-62528568D01*
X61361977Y-62709387D01*
X61363112Y-62714424D01*
X61363113Y-62714430D01*
X61410267Y-62923669D01*
X61412039Y-62931531D01*
X61413983Y-62936317D01*
X61413984Y-62936322D01*
X61495767Y-63137728D01*
X61497711Y-63142515D01*
X61616692Y-63336674D01*
X61765786Y-63508793D01*
X61940989Y-63654249D01*
X61945440Y-63656850D01*
X61945450Y-63656857D01*
X61978266Y-63676033D01*
X62026989Y-63727672D01*
X62040059Y-63797455D01*
X62013326Y-63863227D01*
X61990353Y-63885575D01*
X61815444Y-64016900D01*
X61658120Y-64181530D01*
X61655206Y-64185802D01*
X61655205Y-64185803D01*
X61583928Y-64290292D01*
X61529797Y-64369645D01*
X61433921Y-64576192D01*
X61432539Y-64581174D01*
X61432539Y-64581175D01*
X61423297Y-64614500D01*
X61373067Y-64795625D01*
X61348869Y-65022050D01*
X61349166Y-65027202D01*
X61349166Y-65027206D01*
X61351603Y-65069462D01*
X61361977Y-65249387D01*
X61363112Y-65254424D01*
X61363113Y-65254430D01*
X61404452Y-65437865D01*
X61412039Y-65471531D01*
X61413983Y-65476317D01*
X61413984Y-65476322D01*
X61488108Y-65658866D01*
X61497711Y-65682515D01*
X61616692Y-65876674D01*
X61765786Y-66048793D01*
X61940989Y-66194249D01*
X61945440Y-66196850D01*
X61945450Y-66196857D01*
X61978266Y-66216033D01*
X62026989Y-66267672D01*
X62040059Y-66337455D01*
X62013326Y-66403227D01*
X61990353Y-66425575D01*
X61815444Y-66556900D01*
X61811872Y-66560638D01*
X61666162Y-66713115D01*
X61658120Y-66721530D01*
X61655206Y-66725802D01*
X61655205Y-66725803D01*
X61635026Y-66755385D01*
X61529797Y-66909645D01*
X61433921Y-67116192D01*
X61432539Y-67121174D01*
X61432539Y-67121175D01*
X61426359Y-67143461D01*
X61373067Y-67335625D01*
X61348869Y-67562050D01*
X61349166Y-67567202D01*
X61349166Y-67567206D01*
X61353983Y-67650740D01*
X61361977Y-67789387D01*
X61412039Y-68011531D01*
X61413983Y-68016317D01*
X61413984Y-68016322D01*
X61492209Y-68208965D01*
X61497711Y-68222515D01*
X61616692Y-68416674D01*
X61765786Y-68588793D01*
X61940989Y-68734249D01*
X61945440Y-68736850D01*
X61945450Y-68736857D01*
X61978266Y-68756033D01*
X62026989Y-68807672D01*
X62040059Y-68877455D01*
X62013326Y-68943227D01*
X61990353Y-68965575D01*
X61815444Y-69096900D01*
X61811872Y-69100638D01*
X61661942Y-69257531D01*
X61658120Y-69261530D01*
X61655206Y-69265802D01*
X61655205Y-69265803D01*
X61626107Y-69308460D01*
X61529797Y-69449645D01*
X61433921Y-69656192D01*
X61373067Y-69875625D01*
X61372519Y-69880757D01*
X61372518Y-69880760D01*
X61349935Y-70092073D01*
X61322807Y-70157682D01*
X61264514Y-70198210D01*
X61213667Y-70204204D01*
X61130000Y-70196884D01*
X60919345Y-70215314D01*
X60914032Y-70216738D01*
X60914030Y-70216738D01*
X60720400Y-70268621D01*
X60720398Y-70268622D01*
X60715090Y-70270044D01*
X60710109Y-70272366D01*
X60710108Y-70272367D01*
X60528423Y-70357088D01*
X60528420Y-70357090D01*
X60523442Y-70359411D01*
X60350224Y-70480699D01*
X60200699Y-70630224D01*
X60079411Y-70803442D01*
X60077090Y-70808420D01*
X60077088Y-70808423D01*
X60054964Y-70855869D01*
X59990044Y-70995090D01*
X59988622Y-71000398D01*
X59988621Y-71000400D01*
X59946928Y-71156000D01*
X59935314Y-71199345D01*
X59916884Y-71410000D01*
X57262135Y-71410000D01*
X57262135Y-71404525D01*
X57244671Y-71204909D01*
X57242769Y-71194122D01*
X57190907Y-71000571D01*
X57187159Y-70990277D01*
X57102479Y-70808677D01*
X57097001Y-70799189D01*
X57075689Y-70768752D01*
X57065212Y-70760377D01*
X57051764Y-70767446D01*
X56422022Y-71397188D01*
X56414408Y-71411132D01*
X55684356Y-71411132D01*
X55685592Y-71408868D01*
X55685461Y-71407035D01*
X55681210Y-71400420D01*
X55075464Y-70794674D01*
X55041438Y-70732362D01*
X55046503Y-70661547D01*
X55053972Y-70645193D01*
X55066518Y-70622216D01*
X55066387Y-70620381D01*
X55062136Y-70613767D01*
X54933350Y-70484981D01*
X54924942Y-70477925D01*
X54806211Y-70394788D01*
X55400377Y-70394788D01*
X55407446Y-70408236D01*
X56037188Y-71037978D01*
X56051132Y-71045592D01*
X56052965Y-71045461D01*
X56059580Y-71041210D01*
X56693276Y-70407514D01*
X56699706Y-70395739D01*
X56690410Y-70383724D01*
X56660811Y-70362999D01*
X56651323Y-70357521D01*
X56469723Y-70272841D01*
X56459429Y-70269093D01*
X56265878Y-70217231D01*
X56255091Y-70215329D01*
X56055475Y-70197865D01*
X56044525Y-70197865D01*
X55844909Y-70215329D01*
X55834122Y-70217231D01*
X55640571Y-70269093D01*
X55630277Y-70272841D01*
X55448677Y-70357521D01*
X55439189Y-70362999D01*
X55408752Y-70384311D01*
X55400377Y-70394788D01*
X54806211Y-70394788D01*
X54760811Y-70362998D01*
X54751323Y-70357521D01*
X54569727Y-70272842D01*
X54559423Y-70269092D01*
X54421497Y-70232134D01*
X54407401Y-70232470D01*
X54404000Y-70240412D01*
X54404000Y-71538000D01*
X54383998Y-71606121D01*
X54330342Y-71652614D01*
X54278000Y-71664000D01*
X52985561Y-71664000D01*
X52972030Y-71667973D01*
X52970801Y-71676522D01*
X53009092Y-71819423D01*
X53012842Y-71829727D01*
X53097521Y-72011323D01*
X53102998Y-72020811D01*
X53217925Y-72184942D01*
X53224981Y-72193350D01*
X53313036Y-72281405D01*
X53347062Y-72343717D01*
X53341997Y-72414532D01*
X53299450Y-72471368D01*
X53232930Y-72496179D01*
X53223941Y-72496500D01*
X50618767Y-72496500D01*
X50607584Y-72495973D01*
X50600091Y-72494298D01*
X50592165Y-72494547D01*
X50592164Y-72494547D01*
X50532014Y-72496438D01*
X50528055Y-72496500D01*
X50500144Y-72496500D01*
X50496210Y-72496997D01*
X50496209Y-72496997D01*
X50496144Y-72497005D01*
X50484307Y-72497938D01*
X50452049Y-72498952D01*
X50448030Y-72499078D01*
X50440111Y-72499327D01*
X50420657Y-72504979D01*
X50401300Y-72508987D01*
X50389070Y-72510532D01*
X50389069Y-72510532D01*
X50381203Y-72511526D01*
X50373832Y-72514445D01*
X50373830Y-72514445D01*
X50340088Y-72527804D01*
X50328858Y-72531649D01*
X50294017Y-72541771D01*
X50294016Y-72541771D01*
X50286407Y-72543982D01*
X50279588Y-72548015D01*
X50279583Y-72548017D01*
X50268972Y-72554293D01*
X50251224Y-72562988D01*
X50232383Y-72570448D01*
X50225967Y-72575110D01*
X50225966Y-72575110D01*
X50196613Y-72596436D01*
X50186693Y-72602952D01*
X50155465Y-72621420D01*
X50155462Y-72621422D01*
X50148638Y-72625458D01*
X50134317Y-72639779D01*
X50119284Y-72652619D01*
X50102893Y-72664528D01*
X50095213Y-72673812D01*
X50074702Y-72698605D01*
X50066712Y-72707384D01*
X48493164Y-74280931D01*
X48430852Y-74314957D01*
X48404069Y-74317836D01*
X45106373Y-74317836D01*
X45038252Y-74297834D01*
X44991759Y-74244178D01*
X44981655Y-74173904D01*
X45001608Y-74121834D01*
X45118450Y-73946968D01*
X45144089Y-73908596D01*
X45146372Y-73903968D01*
X45230345Y-73733686D01*
X45280831Y-73631311D01*
X45380210Y-73338550D01*
X45428392Y-73096322D01*
X45439721Y-73039365D01*
X45439721Y-73039362D01*
X45440525Y-73035322D01*
X45460746Y-72726815D01*
X45455190Y-72642050D01*
X46108869Y-72642050D01*
X46109166Y-72647202D01*
X46109166Y-72647206D01*
X46112130Y-72698605D01*
X46121977Y-72869387D01*
X46123112Y-72874424D01*
X46123113Y-72874430D01*
X46165535Y-73062672D01*
X46172039Y-73091531D01*
X46173983Y-73096317D01*
X46173984Y-73096322D01*
X46255767Y-73297728D01*
X46257711Y-73302515D01*
X46376692Y-73496674D01*
X46525786Y-73668793D01*
X46700989Y-73814249D01*
X46705441Y-73816851D01*
X46705446Y-73816854D01*
X46868320Y-73912030D01*
X46897597Y-73929138D01*
X47110329Y-74010372D01*
X47115395Y-74011403D01*
X47115396Y-74011403D01*
X47148303Y-74018098D01*
X47333472Y-74055771D01*
X47461288Y-74060458D01*
X47555870Y-74063927D01*
X47555875Y-74063927D01*
X47561034Y-74064116D01*
X47566154Y-74063460D01*
X47566156Y-74063460D01*
X47638344Y-74054212D01*
X47786903Y-74035181D01*
X47791852Y-74033696D01*
X47791858Y-74033695D01*
X47918204Y-73995789D01*
X48005013Y-73969745D01*
X48051507Y-73946968D01*
X48122823Y-73912030D01*
X48209507Y-73869564D01*
X48213711Y-73866566D01*
X48213715Y-73866563D01*
X48306465Y-73800405D01*
X48394893Y-73737330D01*
X48556193Y-73576592D01*
X48689073Y-73391669D01*
X48717326Y-73334505D01*
X48787673Y-73192168D01*
X48787674Y-73192166D01*
X48789967Y-73187526D01*
X48856164Y-72969646D01*
X48868700Y-72874430D01*
X48885450Y-72747201D01*
X48885451Y-72747194D01*
X48885887Y-72743879D01*
X48885969Y-72740527D01*
X48886229Y-72737184D01*
X48887279Y-72737266D01*
X48907615Y-72673812D01*
X48962395Y-72628650D01*
X49022890Y-72618994D01*
X49070000Y-72623116D01*
X49075475Y-72622637D01*
X49075478Y-72622637D01*
X49157382Y-72615471D01*
X49280655Y-72604686D01*
X49285968Y-72603262D01*
X49285970Y-72603262D01*
X49479600Y-72551379D01*
X49479602Y-72551378D01*
X49484910Y-72549956D01*
X49489892Y-72547633D01*
X49671577Y-72462912D01*
X49671580Y-72462910D01*
X49676558Y-72460589D01*
X49849776Y-72339301D01*
X49999301Y-72189776D01*
X50120589Y-72016558D01*
X50209956Y-71824910D01*
X50249717Y-71676522D01*
X50263262Y-71625970D01*
X50263262Y-71625968D01*
X50264686Y-71620655D01*
X50283116Y-71410000D01*
X50264686Y-71199345D01*
X50253072Y-71156000D01*
X50248384Y-71138503D01*
X52972134Y-71138503D01*
X52972470Y-71152599D01*
X52980412Y-71156000D01*
X53877885Y-71156000D01*
X53893124Y-71151525D01*
X53894329Y-71150135D01*
X53896000Y-71142452D01*
X53896000Y-70245561D01*
X53892027Y-70232030D01*
X53883478Y-70230801D01*
X53740577Y-70269092D01*
X53730273Y-70272842D01*
X53548677Y-70357521D01*
X53539189Y-70362998D01*
X53375058Y-70477925D01*
X53366650Y-70484981D01*
X53224981Y-70626650D01*
X53217925Y-70635058D01*
X53102998Y-70799189D01*
X53097521Y-70808677D01*
X53012842Y-70990273D01*
X53009092Y-71000577D01*
X52972134Y-71138503D01*
X50248384Y-71138503D01*
X50211379Y-71000400D01*
X50211378Y-71000398D01*
X50209956Y-70995090D01*
X50145036Y-70855869D01*
X50122912Y-70808423D01*
X50122910Y-70808420D01*
X50120589Y-70803442D01*
X49999301Y-70630224D01*
X49849776Y-70480699D01*
X49676558Y-70359411D01*
X49671580Y-70357090D01*
X49671577Y-70357088D01*
X49489892Y-70272367D01*
X49489891Y-70272366D01*
X49484910Y-70270044D01*
X49479602Y-70268622D01*
X49479600Y-70268621D01*
X49285970Y-70216738D01*
X49285968Y-70216738D01*
X49280655Y-70215314D01*
X49070000Y-70196884D01*
X49064525Y-70197363D01*
X49064515Y-70197363D01*
X49019999Y-70201258D01*
X48950394Y-70187270D01*
X48899401Y-70137871D01*
X48883440Y-70086062D01*
X48869311Y-69914202D01*
X48869310Y-69914196D01*
X48868887Y-69909051D01*
X48826376Y-69739806D01*
X48814672Y-69693208D01*
X48814671Y-69693204D01*
X48813413Y-69688197D01*
X48811354Y-69683461D01*
X48724672Y-69484106D01*
X48724670Y-69484103D01*
X48722612Y-69479369D01*
X48598923Y-69288175D01*
X48567948Y-69254134D01*
X51109500Y-69254134D01*
X51116255Y-69316316D01*
X51167385Y-69452705D01*
X51254739Y-69569261D01*
X51371295Y-69656615D01*
X51507684Y-69707745D01*
X51569866Y-69714500D01*
X53666134Y-69714500D01*
X53728316Y-69707745D01*
X53864705Y-69656615D01*
X53981261Y-69569261D01*
X53988103Y-69560132D01*
X54062026Y-69461497D01*
X54118885Y-69418982D01*
X54189704Y-69413956D01*
X54228017Y-69431176D01*
X54228879Y-69429770D01*
X54427042Y-69551205D01*
X54435837Y-69555687D01*
X54645988Y-69642734D01*
X54655373Y-69645783D01*
X54876554Y-69698885D01*
X54886301Y-69700428D01*
X55113070Y-69718275D01*
X55122930Y-69718275D01*
X55349699Y-69700428D01*
X55359446Y-69698885D01*
X55580627Y-69645783D01*
X55590012Y-69642734D01*
X55800163Y-69555687D01*
X55808958Y-69551205D01*
X55976445Y-69448568D01*
X55985907Y-69438110D01*
X55982124Y-69429334D01*
X54847885Y-68295095D01*
X54813859Y-68232783D01*
X54815694Y-68207132D01*
X55482408Y-68207132D01*
X55482539Y-68208965D01*
X55486790Y-68215580D01*
X56338290Y-69067080D01*
X56376648Y-69088026D01*
X56412072Y-69116782D01*
X56548031Y-69275969D01*
X56728584Y-69430176D01*
X56732792Y-69432755D01*
X56732798Y-69432759D01*
X56926084Y-69551205D01*
X56931037Y-69554240D01*
X56935607Y-69556133D01*
X56935611Y-69556135D01*
X57145833Y-69643211D01*
X57150406Y-69645105D01*
X57230609Y-69664360D01*
X57376476Y-69699380D01*
X57376482Y-69699381D01*
X57381289Y-69700535D01*
X57618000Y-69719165D01*
X57854711Y-69700535D01*
X57859518Y-69699381D01*
X57859524Y-69699380D01*
X58005391Y-69664360D01*
X58085594Y-69645105D01*
X58090167Y-69643211D01*
X58300389Y-69556135D01*
X58300393Y-69556133D01*
X58304963Y-69554240D01*
X58309916Y-69551205D01*
X58503202Y-69432759D01*
X58503208Y-69432755D01*
X58507416Y-69430176D01*
X58687969Y-69275969D01*
X58842176Y-69095416D01*
X58844755Y-69091208D01*
X58844759Y-69091202D01*
X58963654Y-68897183D01*
X58966240Y-68892963D01*
X58977710Y-68865273D01*
X59055211Y-68678167D01*
X59055212Y-68678165D01*
X59057105Y-68673594D01*
X59098724Y-68500240D01*
X59111380Y-68447524D01*
X59111381Y-68447518D01*
X59112535Y-68442711D01*
X59131165Y-68206000D01*
X59112535Y-67969289D01*
X59094602Y-67894590D01*
X59058260Y-67743218D01*
X59057105Y-67738406D01*
X58986192Y-67567206D01*
X58968135Y-67523611D01*
X58968133Y-67523607D01*
X58966240Y-67519037D01*
X58874328Y-67369051D01*
X58844759Y-67320798D01*
X58844755Y-67320792D01*
X58842176Y-67316584D01*
X58687969Y-67136031D01*
X58507416Y-66981824D01*
X58503208Y-66979245D01*
X58503202Y-66979241D01*
X58309183Y-66860346D01*
X58304963Y-66857760D01*
X58300393Y-66855867D01*
X58300389Y-66855865D01*
X58090167Y-66768789D01*
X58090165Y-66768788D01*
X58085594Y-66766895D01*
X57991708Y-66744355D01*
X57859524Y-66712620D01*
X57859518Y-66712619D01*
X57854711Y-66711465D01*
X57618000Y-66692835D01*
X57381289Y-66711465D01*
X57376482Y-66712619D01*
X57376476Y-66712620D01*
X57244292Y-66744355D01*
X57150406Y-66766895D01*
X57145835Y-66768788D01*
X57145833Y-66768789D01*
X56935611Y-66855865D01*
X56935607Y-66855867D01*
X56931037Y-66857760D01*
X56926817Y-66860346D01*
X56732798Y-66979241D01*
X56732792Y-66979245D01*
X56728584Y-66981824D01*
X56548031Y-67136031D01*
X56544823Y-67139787D01*
X56409247Y-67298526D01*
X56363314Y-67332402D01*
X56341332Y-67341878D01*
X55490022Y-68193188D01*
X55482408Y-68207132D01*
X54815694Y-68207132D01*
X54818924Y-68161968D01*
X54847885Y-68116905D01*
X55979080Y-66985710D01*
X55985840Y-66973330D01*
X55980113Y-66965680D01*
X55808958Y-66860795D01*
X55800163Y-66856313D01*
X55590012Y-66769266D01*
X55580627Y-66766217D01*
X55359446Y-66713115D01*
X55349699Y-66711572D01*
X55122930Y-66693725D01*
X55113070Y-66693725D01*
X54886301Y-66711572D01*
X54876554Y-66713115D01*
X54655373Y-66766217D01*
X54645988Y-66769266D01*
X54435837Y-66856313D01*
X54427042Y-66860795D01*
X54228879Y-66982230D01*
X54227604Y-66980149D01*
X54170261Y-67000720D01*
X54101082Y-66984758D01*
X54062026Y-66950503D01*
X53986643Y-66849920D01*
X53986642Y-66849919D01*
X53981261Y-66842739D01*
X53864705Y-66755385D01*
X53728316Y-66704255D01*
X53666134Y-66697500D01*
X51569866Y-66697500D01*
X51507684Y-66704255D01*
X51371295Y-66755385D01*
X51254739Y-66842739D01*
X51167385Y-66959295D01*
X51116255Y-67095684D01*
X51109500Y-67157866D01*
X51109500Y-69254134D01*
X48567948Y-69254134D01*
X48445668Y-69119750D01*
X48266963Y-68978618D01*
X48260335Y-68974959D01*
X48259651Y-68974269D01*
X48258131Y-68973259D01*
X48258339Y-68972945D01*
X48210363Y-68924533D01*
X48195585Y-68855091D01*
X48220696Y-68788684D01*
X48248054Y-68762069D01*
X48390689Y-68660329D01*
X48390691Y-68660327D01*
X48394893Y-68657330D01*
X48556193Y-68496592D01*
X48689073Y-68311669D01*
X48697265Y-68295095D01*
X48787673Y-68112168D01*
X48787674Y-68112166D01*
X48789967Y-68107526D01*
X48856164Y-67889646D01*
X48868700Y-67794430D01*
X48885450Y-67667201D01*
X48885451Y-67667194D01*
X48885887Y-67663879D01*
X48887546Y-67596000D01*
X48880179Y-67506393D01*
X48869311Y-67374202D01*
X48869310Y-67374196D01*
X48868887Y-67369051D01*
X48815842Y-67157866D01*
X48814672Y-67153208D01*
X48814671Y-67153204D01*
X48813413Y-67148197D01*
X48806728Y-67132823D01*
X48724672Y-66944106D01*
X48724670Y-66944103D01*
X48722612Y-66939369D01*
X48642459Y-66815472D01*
X48601731Y-66752515D01*
X48601729Y-66752512D01*
X48598923Y-66748175D01*
X48445668Y-66579750D01*
X48266963Y-66438618D01*
X48260335Y-66434959D01*
X48259651Y-66434269D01*
X48258131Y-66433259D01*
X48258339Y-66432945D01*
X48210363Y-66384533D01*
X48195585Y-66315091D01*
X48220696Y-66248684D01*
X48248054Y-66222069D01*
X48390689Y-66120329D01*
X48390691Y-66120327D01*
X48394893Y-66117330D01*
X48556193Y-65956592D01*
X48564736Y-65944704D01*
X48686055Y-65775869D01*
X48689073Y-65771669D01*
X48717873Y-65713398D01*
X48787673Y-65572168D01*
X48787674Y-65572166D01*
X48789967Y-65567526D01*
X48856164Y-65349646D01*
X48861952Y-65305681D01*
X48885450Y-65127201D01*
X48885451Y-65127194D01*
X48885887Y-65123879D01*
X48887546Y-65056000D01*
X48880179Y-64966393D01*
X48869311Y-64834202D01*
X48869310Y-64834196D01*
X48868887Y-64829051D01*
X48833422Y-64687856D01*
X48814672Y-64613208D01*
X48814671Y-64613204D01*
X48813413Y-64608197D01*
X48811354Y-64603461D01*
X48724672Y-64404106D01*
X48724670Y-64404103D01*
X48722612Y-64399369D01*
X48598923Y-64208175D01*
X48445668Y-64039750D01*
X48266963Y-63898618D01*
X48260335Y-63894959D01*
X48259651Y-63894269D01*
X48258131Y-63893259D01*
X48258339Y-63892945D01*
X48210363Y-63844533D01*
X48195585Y-63775091D01*
X48220696Y-63708684D01*
X48248054Y-63682069D01*
X48390689Y-63580329D01*
X48390691Y-63580327D01*
X48394893Y-63577330D01*
X48556193Y-63416592D01*
X48689073Y-63231669D01*
X48716756Y-63175658D01*
X48787673Y-63032168D01*
X48787674Y-63032166D01*
X48789967Y-63027526D01*
X48856164Y-62809646D01*
X48868700Y-62714430D01*
X48885450Y-62587201D01*
X48885451Y-62587194D01*
X48885887Y-62583879D01*
X48887546Y-62516000D01*
X48875952Y-62374981D01*
X48890305Y-62305451D01*
X48939970Y-62254718D01*
X49009180Y-62238890D01*
X49071804Y-62260075D01*
X49229028Y-62365725D01*
X49238837Y-62371117D01*
X49425999Y-62453275D01*
X49436594Y-62456841D01*
X49546385Y-62483200D01*
X49560470Y-62482495D01*
X49563966Y-62473702D01*
X50072000Y-62473702D01*
X50075973Y-62487233D01*
X50083421Y-62488304D01*
X50270915Y-62430622D01*
X50281260Y-62426401D01*
X50462912Y-62332643D01*
X50472343Y-62326658D01*
X50634520Y-62202215D01*
X50642749Y-62194648D01*
X50780319Y-62043461D01*
X50787082Y-62034550D01*
X50895701Y-61861396D01*
X50900782Y-61851426D01*
X50977024Y-61661768D01*
X50980255Y-61651068D01*
X51021908Y-61449929D01*
X51023111Y-61440793D01*
X51025895Y-61392510D01*
X51026000Y-61388863D01*
X51026000Y-61357911D01*
X59210000Y-61357911D01*
X59210249Y-61363506D01*
X59223787Y-61515188D01*
X59225768Y-61526202D01*
X59279707Y-61723366D01*
X59283601Y-61733839D01*
X59371604Y-61918341D01*
X59377299Y-61927970D01*
X59496577Y-62093963D01*
X59503884Y-62102428D01*
X59650680Y-62244684D01*
X59659362Y-62251714D01*
X59829028Y-62365725D01*
X59838837Y-62371117D01*
X60025999Y-62453275D01*
X60036594Y-62456841D01*
X60146385Y-62483200D01*
X60160470Y-62482495D01*
X60164000Y-62473616D01*
X60164000Y-60978115D01*
X60159525Y-60962876D01*
X60158135Y-60961671D01*
X60150452Y-60960000D01*
X59228115Y-60960000D01*
X59212876Y-60964475D01*
X59211671Y-60965865D01*
X59210000Y-60973548D01*
X59210000Y-61357911D01*
X51026000Y-61357911D01*
X51026000Y-60978115D01*
X51021525Y-60962876D01*
X51020135Y-60961671D01*
X51012452Y-60960000D01*
X50090115Y-60960000D01*
X50074876Y-60964475D01*
X50073671Y-60965865D01*
X50072000Y-60973548D01*
X50072000Y-62473702D01*
X49563966Y-62473702D01*
X49564000Y-62473616D01*
X49564000Y-60433885D01*
X50072000Y-60433885D01*
X50076475Y-60449124D01*
X50077865Y-60450329D01*
X50085548Y-60452000D01*
X51007885Y-60452000D01*
X51023124Y-60447525D01*
X51024329Y-60446135D01*
X51026000Y-60438452D01*
X51026000Y-60433885D01*
X59210000Y-60433885D01*
X59214475Y-60449124D01*
X59215865Y-60450329D01*
X59223548Y-60452000D01*
X60145885Y-60452000D01*
X60161124Y-60447525D01*
X60162329Y-60446135D01*
X60164000Y-60438452D01*
X60164000Y-58938298D01*
X60160027Y-58924767D01*
X60152579Y-58923696D01*
X59965085Y-58981378D01*
X59954740Y-58985599D01*
X59773088Y-59079357D01*
X59763657Y-59085342D01*
X59601480Y-59209785D01*
X59593251Y-59217352D01*
X59455681Y-59368539D01*
X59448918Y-59377450D01*
X59340299Y-59550604D01*
X59335218Y-59560574D01*
X59258976Y-59750232D01*
X59255745Y-59760932D01*
X59214092Y-59962071D01*
X59212889Y-59971207D01*
X59210105Y-60019490D01*
X59210000Y-60023137D01*
X59210000Y-60433885D01*
X51026000Y-60433885D01*
X51026000Y-60054089D01*
X51025751Y-60048494D01*
X51012213Y-59896812D01*
X51010232Y-59885798D01*
X50956293Y-59688634D01*
X50952399Y-59678161D01*
X50864396Y-59493659D01*
X50858701Y-59484030D01*
X50739423Y-59318037D01*
X50732116Y-59309572D01*
X50585320Y-59167316D01*
X50576638Y-59160286D01*
X50406972Y-59046275D01*
X50397163Y-59040883D01*
X50210001Y-58958725D01*
X50199406Y-58955159D01*
X50089615Y-58928800D01*
X50075530Y-58929505D01*
X50072000Y-58938384D01*
X50072000Y-60433885D01*
X49564000Y-60433885D01*
X49564000Y-58938298D01*
X49560027Y-58924767D01*
X49552579Y-58923696D01*
X49365085Y-58981378D01*
X49354740Y-58985599D01*
X49173088Y-59079357D01*
X49163657Y-59085342D01*
X49001480Y-59209785D01*
X48993251Y-59217352D01*
X48906612Y-59312566D01*
X48845972Y-59349488D01*
X48774996Y-59347765D01*
X48716219Y-59307942D01*
X48707627Y-59296206D01*
X48678871Y-59251755D01*
X48624245Y-59167317D01*
X48601731Y-59132515D01*
X48601729Y-59132512D01*
X48598923Y-59128175D01*
X48445668Y-58959750D01*
X48266963Y-58818618D01*
X48260335Y-58814959D01*
X48259651Y-58814269D01*
X48258131Y-58813259D01*
X48258339Y-58812945D01*
X48210363Y-58764533D01*
X48195585Y-58695091D01*
X48220696Y-58628684D01*
X48248054Y-58602069D01*
X48390689Y-58500329D01*
X48390691Y-58500327D01*
X48394893Y-58497330D01*
X48556193Y-58336592D01*
X48574101Y-58311671D01*
X48686055Y-58155869D01*
X48689073Y-58151669D01*
X48700478Y-58128594D01*
X48787673Y-57952168D01*
X48787674Y-57952166D01*
X48789967Y-57947526D01*
X48856164Y-57729646D01*
X48865858Y-57656017D01*
X48885450Y-57507201D01*
X48885451Y-57507194D01*
X48885887Y-57503879D01*
X48886658Y-57472328D01*
X48887464Y-57439365D01*
X48887464Y-57439360D01*
X48887546Y-57436000D01*
X48877115Y-57309123D01*
X48869311Y-57214202D01*
X48869310Y-57214196D01*
X48868887Y-57209051D01*
X48830188Y-57054980D01*
X48814672Y-56993208D01*
X48814671Y-56993204D01*
X48813413Y-56988197D01*
X48806980Y-56973401D01*
X48724672Y-56784106D01*
X48724670Y-56784103D01*
X48722612Y-56779369D01*
X48598923Y-56588175D01*
X48445668Y-56419750D01*
X48266963Y-56278618D01*
X48260335Y-56274959D01*
X48259651Y-56274269D01*
X48258131Y-56273259D01*
X48258339Y-56272945D01*
X48210363Y-56224533D01*
X48195585Y-56155091D01*
X48220696Y-56088684D01*
X48248054Y-56062069D01*
X48390689Y-55960329D01*
X48390691Y-55960327D01*
X48394893Y-55957330D01*
X48556193Y-55796592D01*
X48561802Y-55788787D01*
X48686055Y-55615869D01*
X48689073Y-55611669D01*
X48691651Y-55606454D01*
X48787673Y-55412168D01*
X48787674Y-55412166D01*
X48789967Y-55407526D01*
X48838821Y-55246727D01*
X48854662Y-55194590D01*
X48854662Y-55194589D01*
X48856164Y-55189646D01*
X48862028Y-55145105D01*
X48885450Y-54967201D01*
X48885451Y-54967194D01*
X48885887Y-54963879D01*
X48886503Y-54938670D01*
X51750160Y-54938670D01*
X51755887Y-54946320D01*
X51927042Y-55051205D01*
X51935837Y-55055687D01*
X52145988Y-55142734D01*
X52155373Y-55145783D01*
X52376554Y-55198885D01*
X52386301Y-55200428D01*
X52613070Y-55218275D01*
X52622930Y-55218275D01*
X52849699Y-55200428D01*
X52859446Y-55198885D01*
X53080627Y-55145783D01*
X53090012Y-55142734D01*
X53300163Y-55055687D01*
X53308958Y-55051205D01*
X53476445Y-54948568D01*
X53485907Y-54938110D01*
X53482124Y-54929334D01*
X52630812Y-54078022D01*
X52616868Y-54070408D01*
X52615035Y-54070539D01*
X52608420Y-54074790D01*
X51756920Y-54926290D01*
X51750160Y-54938670D01*
X48886503Y-54938670D01*
X48887546Y-54896000D01*
X48877941Y-54779177D01*
X48869311Y-54674202D01*
X48869310Y-54674196D01*
X48868887Y-54669051D01*
X48813413Y-54448197D01*
X48811354Y-54443461D01*
X48724672Y-54244106D01*
X48724670Y-54244103D01*
X48722612Y-54239369D01*
X48598923Y-54048175D01*
X48445668Y-53879750D01*
X48266963Y-53738618D01*
X48259849Y-53734691D01*
X48259006Y-53733840D01*
X48258131Y-53733259D01*
X48258251Y-53733078D01*
X48236304Y-53710930D01*
X51105725Y-53710930D01*
X51123572Y-53937699D01*
X51125115Y-53947446D01*
X51178217Y-54168627D01*
X51181266Y-54178012D01*
X51268313Y-54388163D01*
X51272795Y-54396958D01*
X51375432Y-54564445D01*
X51385890Y-54573907D01*
X51394666Y-54570124D01*
X52245978Y-53718812D01*
X52252356Y-53707132D01*
X52982408Y-53707132D01*
X52982539Y-53708965D01*
X52986790Y-53715580D01*
X53838290Y-54567080D01*
X53850670Y-54573840D01*
X53858320Y-54568113D01*
X53963205Y-54396958D01*
X53967687Y-54388163D01*
X54054734Y-54178012D01*
X54057783Y-54168627D01*
X54110885Y-53947446D01*
X54112428Y-53937699D01*
X54130275Y-53710930D01*
X54130275Y-53706000D01*
X56104835Y-53706000D01*
X56123465Y-53942711D01*
X56124619Y-53947518D01*
X56124620Y-53947524D01*
X56154122Y-54070408D01*
X56178895Y-54173594D01*
X56180788Y-54178165D01*
X56180789Y-54178167D01*
X56267772Y-54388163D01*
X56269760Y-54392963D01*
X56272346Y-54397183D01*
X56391241Y-54591202D01*
X56391245Y-54591208D01*
X56393824Y-54595416D01*
X56548031Y-54775969D01*
X56728584Y-54930176D01*
X56732792Y-54932755D01*
X56732798Y-54932759D01*
X56926084Y-55051205D01*
X56931037Y-55054240D01*
X56935607Y-55056133D01*
X56935611Y-55056135D01*
X57145833Y-55143211D01*
X57150406Y-55145105D01*
X57230609Y-55164360D01*
X57376476Y-55199380D01*
X57376482Y-55199381D01*
X57381289Y-55200535D01*
X57618000Y-55219165D01*
X57854711Y-55200535D01*
X57859518Y-55199381D01*
X57859524Y-55199380D01*
X58005391Y-55164360D01*
X58085594Y-55145105D01*
X58090167Y-55143211D01*
X58300389Y-55056135D01*
X58300393Y-55056133D01*
X58304963Y-55054240D01*
X58309916Y-55051205D01*
X58503202Y-54932759D01*
X58503208Y-54932755D01*
X58507416Y-54930176D01*
X58687969Y-54775969D01*
X58842176Y-54595416D01*
X58844755Y-54591208D01*
X58844759Y-54591202D01*
X58963654Y-54397183D01*
X58966240Y-54392963D01*
X58968229Y-54388163D01*
X59055211Y-54178167D01*
X59055212Y-54178165D01*
X59057105Y-54173594D01*
X59081878Y-54070408D01*
X59111380Y-53947524D01*
X59111381Y-53947518D01*
X59112535Y-53942711D01*
X59131165Y-53706000D01*
X59112535Y-53469289D01*
X59111365Y-53464412D01*
X59058260Y-53243218D01*
X59057105Y-53238406D01*
X59029712Y-53172273D01*
X58968135Y-53023611D01*
X58968133Y-53023607D01*
X58966240Y-53019037D01*
X58946558Y-52986919D01*
X58844759Y-52820798D01*
X58844755Y-52820792D01*
X58842176Y-52816584D01*
X58687969Y-52636031D01*
X58507416Y-52481824D01*
X58503208Y-52479245D01*
X58503202Y-52479241D01*
X58309183Y-52360346D01*
X58304963Y-52357760D01*
X58300393Y-52355867D01*
X58300389Y-52355865D01*
X58090167Y-52268789D01*
X58090165Y-52268788D01*
X58085594Y-52266895D01*
X58005391Y-52247640D01*
X57859524Y-52212620D01*
X57859518Y-52212619D01*
X57854711Y-52211465D01*
X57618000Y-52192835D01*
X57381289Y-52211465D01*
X57376482Y-52212619D01*
X57376476Y-52212620D01*
X57230609Y-52247640D01*
X57150406Y-52266895D01*
X57145835Y-52268788D01*
X57145833Y-52268789D01*
X56935611Y-52355865D01*
X56935607Y-52355867D01*
X56931037Y-52357760D01*
X56926817Y-52360346D01*
X56732798Y-52479241D01*
X56732792Y-52479245D01*
X56728584Y-52481824D01*
X56548031Y-52636031D01*
X56393824Y-52816584D01*
X56391245Y-52820792D01*
X56391241Y-52820798D01*
X56289442Y-52986919D01*
X56269760Y-53019037D01*
X56267867Y-53023607D01*
X56267865Y-53023611D01*
X56206288Y-53172273D01*
X56178895Y-53238406D01*
X56177740Y-53243218D01*
X56124636Y-53464412D01*
X56123465Y-53469289D01*
X56104835Y-53706000D01*
X54130275Y-53706000D01*
X54130275Y-53701070D01*
X54112428Y-53474301D01*
X54110885Y-53464554D01*
X54057783Y-53243373D01*
X54054734Y-53233988D01*
X53967687Y-53023837D01*
X53963205Y-53015042D01*
X53860568Y-52847555D01*
X53850110Y-52838093D01*
X53841334Y-52841876D01*
X52990022Y-53693188D01*
X52982408Y-53707132D01*
X52252356Y-53707132D01*
X52253592Y-53704868D01*
X52253461Y-53703035D01*
X52249210Y-53696420D01*
X51397710Y-52844920D01*
X51385330Y-52838160D01*
X51377680Y-52843887D01*
X51272795Y-53015042D01*
X51268313Y-53023837D01*
X51181266Y-53233988D01*
X51178217Y-53243373D01*
X51125115Y-53464554D01*
X51123572Y-53474301D01*
X51105725Y-53701070D01*
X51105725Y-53710930D01*
X48236304Y-53710930D01*
X48209876Y-53684261D01*
X48195100Y-53614819D01*
X48220214Y-53548413D01*
X48247568Y-53521802D01*
X48266103Y-53508581D01*
X48274504Y-53497881D01*
X48267515Y-53484725D01*
X47510812Y-52728022D01*
X47496868Y-52720408D01*
X47495035Y-52720539D01*
X47488420Y-52724790D01*
X46725510Y-53487700D01*
X46718750Y-53500080D01*
X46724031Y-53507134D01*
X46738698Y-53515705D01*
X46787422Y-53567343D01*
X46800493Y-53637126D01*
X46773762Y-53702898D01*
X46750781Y-53725253D01*
X46579579Y-53853795D01*
X46575444Y-53856900D01*
X46418120Y-54021530D01*
X46415206Y-54025802D01*
X46415205Y-54025803D01*
X46384778Y-54070408D01*
X46289797Y-54209645D01*
X46193921Y-54416192D01*
X46133067Y-54635625D01*
X46108869Y-54862050D01*
X46109166Y-54867202D01*
X46109166Y-54867206D01*
X46113287Y-54938670D01*
X46121977Y-55089387D01*
X46123112Y-55094424D01*
X46123113Y-55094430D01*
X46158014Y-55249297D01*
X46172039Y-55311531D01*
X46173983Y-55316317D01*
X46173984Y-55316322D01*
X46217892Y-55424454D01*
X46257711Y-55522515D01*
X46376692Y-55716674D01*
X46525786Y-55888793D01*
X46700989Y-56034249D01*
X46705440Y-56036850D01*
X46705450Y-56036857D01*
X46738266Y-56056033D01*
X46786989Y-56107672D01*
X46800059Y-56177455D01*
X46773326Y-56243227D01*
X46750353Y-56265575D01*
X46575444Y-56396900D01*
X46418120Y-56561530D01*
X46415206Y-56565802D01*
X46415205Y-56565803D01*
X46396742Y-56592869D01*
X46289797Y-56749645D01*
X46193921Y-56956192D01*
X46192539Y-56961174D01*
X46192539Y-56961175D01*
X46186359Y-56983461D01*
X46133067Y-57175625D01*
X46108869Y-57402050D01*
X46109166Y-57407202D01*
X46109166Y-57407206D01*
X46112921Y-57472328D01*
X46121977Y-57629387D01*
X46123112Y-57634424D01*
X46123113Y-57634430D01*
X46160500Y-57800329D01*
X46172039Y-57851531D01*
X46173983Y-57856317D01*
X46173984Y-57856322D01*
X46230652Y-57995878D01*
X46257711Y-58062515D01*
X46260410Y-58066919D01*
X46364233Y-58236342D01*
X46376692Y-58256674D01*
X46525786Y-58428793D01*
X46700989Y-58574249D01*
X46705440Y-58576850D01*
X46705450Y-58576857D01*
X46738266Y-58596033D01*
X46786989Y-58647672D01*
X46800059Y-58717455D01*
X46773326Y-58783227D01*
X46750353Y-58805575D01*
X46575444Y-58936900D01*
X46571872Y-58940638D01*
X46433590Y-59085342D01*
X46418120Y-59101530D01*
X46415206Y-59105802D01*
X46415205Y-59105803D01*
X46388553Y-59144873D01*
X46289797Y-59289645D01*
X46193921Y-59496192D01*
X46192539Y-59501174D01*
X46192539Y-59501175D01*
X46174167Y-59567423D01*
X46133067Y-59715625D01*
X46108869Y-59942050D01*
X46109166Y-59947202D01*
X46109166Y-59947206D01*
X46113334Y-60019490D01*
X46121977Y-60169387D01*
X46172039Y-60391531D01*
X46173983Y-60396317D01*
X46173984Y-60396322D01*
X46255767Y-60597728D01*
X46257711Y-60602515D01*
X46260410Y-60606919D01*
X46365860Y-60778997D01*
X46376692Y-60796674D01*
X46525786Y-60968793D01*
X46700989Y-61114249D01*
X46705440Y-61116850D01*
X46705450Y-61116857D01*
X46738266Y-61136033D01*
X46786989Y-61187672D01*
X46800059Y-61257455D01*
X46773326Y-61323227D01*
X46750353Y-61345575D01*
X46575444Y-61476900D01*
X46559325Y-61493768D01*
X46425665Y-61633635D01*
X46418120Y-61641530D01*
X46415206Y-61645802D01*
X46415205Y-61645803D01*
X46367613Y-61715571D01*
X46289797Y-61829645D01*
X46193921Y-62036192D01*
X46133067Y-62255625D01*
X46108869Y-62482050D01*
X46109166Y-62487202D01*
X46109166Y-62487206D01*
X46111551Y-62528568D01*
X46121977Y-62709387D01*
X46123112Y-62714424D01*
X46123113Y-62714430D01*
X46170267Y-62923669D01*
X46172039Y-62931531D01*
X46173983Y-62936317D01*
X46173984Y-62936322D01*
X46255767Y-63137728D01*
X46257711Y-63142515D01*
X46376692Y-63336674D01*
X46525786Y-63508793D01*
X46700989Y-63654249D01*
X46705440Y-63656850D01*
X46705450Y-63656857D01*
X46738266Y-63676033D01*
X46786989Y-63727672D01*
X46800059Y-63797455D01*
X46773326Y-63863227D01*
X46750353Y-63885575D01*
X46575444Y-64016900D01*
X46418120Y-64181530D01*
X46415206Y-64185802D01*
X46415205Y-64185803D01*
X46343928Y-64290292D01*
X46289797Y-64369645D01*
X46193921Y-64576192D01*
X46192539Y-64581174D01*
X46192539Y-64581175D01*
X46183297Y-64614500D01*
X46133067Y-64795625D01*
X46108869Y-65022050D01*
X46109166Y-65027202D01*
X46109166Y-65027206D01*
X46111603Y-65069462D01*
X46121977Y-65249387D01*
X46123112Y-65254424D01*
X46123113Y-65254430D01*
X46164452Y-65437865D01*
X46172039Y-65471531D01*
X46173983Y-65476317D01*
X46173984Y-65476322D01*
X46248108Y-65658866D01*
X46257711Y-65682515D01*
X46376692Y-65876674D01*
X46525786Y-66048793D01*
X46700989Y-66194249D01*
X46705440Y-66196850D01*
X46705450Y-66196857D01*
X46738266Y-66216033D01*
X46786989Y-66267672D01*
X46800059Y-66337455D01*
X46773326Y-66403227D01*
X46750353Y-66425575D01*
X46575444Y-66556900D01*
X46571872Y-66560638D01*
X46426162Y-66713115D01*
X46418120Y-66721530D01*
X46415206Y-66725802D01*
X46415205Y-66725803D01*
X46395026Y-66755385D01*
X46289797Y-66909645D01*
X46193921Y-67116192D01*
X46192539Y-67121174D01*
X46192539Y-67121175D01*
X46186359Y-67143461D01*
X46133067Y-67335625D01*
X46108869Y-67562050D01*
X46109166Y-67567202D01*
X46109166Y-67567206D01*
X46113983Y-67650740D01*
X46121977Y-67789387D01*
X46172039Y-68011531D01*
X46173983Y-68016317D01*
X46173984Y-68016322D01*
X46252209Y-68208965D01*
X46257711Y-68222515D01*
X46376692Y-68416674D01*
X46525786Y-68588793D01*
X46700989Y-68734249D01*
X46705440Y-68736850D01*
X46705450Y-68736857D01*
X46738266Y-68756033D01*
X46786989Y-68807672D01*
X46800059Y-68877455D01*
X46773326Y-68943227D01*
X46750353Y-68965575D01*
X46575444Y-69096900D01*
X46571872Y-69100638D01*
X46421942Y-69257531D01*
X46418120Y-69261530D01*
X46415206Y-69265802D01*
X46415205Y-69265803D01*
X46386107Y-69308460D01*
X46289797Y-69449645D01*
X46193921Y-69656192D01*
X46133067Y-69875625D01*
X46108869Y-70102050D01*
X46109166Y-70107202D01*
X46109166Y-70107206D01*
X46112077Y-70157682D01*
X46121977Y-70329387D01*
X46123112Y-70334424D01*
X46123113Y-70334430D01*
X46170566Y-70544995D01*
X46172039Y-70551531D01*
X46173983Y-70556317D01*
X46173984Y-70556322D01*
X46255767Y-70757728D01*
X46257711Y-70762515D01*
X46376692Y-70956674D01*
X46525786Y-71128793D01*
X46700989Y-71274249D01*
X46705440Y-71276850D01*
X46705450Y-71276857D01*
X46738266Y-71296033D01*
X46786989Y-71347672D01*
X46800059Y-71417455D01*
X46773326Y-71483227D01*
X46750353Y-71505575D01*
X46575444Y-71636900D01*
X46418120Y-71801530D01*
X46415206Y-71805802D01*
X46415205Y-71805803D01*
X46343928Y-71910292D01*
X46289797Y-71989645D01*
X46193921Y-72196192D01*
X46133067Y-72415625D01*
X46108869Y-72642050D01*
X45455190Y-72642050D01*
X45452870Y-72606654D01*
X45440795Y-72422423D01*
X45440794Y-72422419D01*
X45440525Y-72418308D01*
X45439368Y-72412487D01*
X45395846Y-72193688D01*
X45380210Y-72115080D01*
X45359231Y-72053276D01*
X45282160Y-71826234D01*
X45280831Y-71822319D01*
X45279007Y-71818621D01*
X45279005Y-71818615D01*
X45145915Y-71548738D01*
X45144089Y-71545035D01*
X45141795Y-71541602D01*
X45141794Y-71541600D01*
X44974617Y-71291401D01*
X44974613Y-71291396D01*
X44972324Y-71287970D01*
X44969610Y-71284876D01*
X44969606Y-71284870D01*
X44771184Y-71058614D01*
X44768475Y-71055525D01*
X44694074Y-70990277D01*
X44539130Y-70854394D01*
X44539124Y-70854390D01*
X44536030Y-70851676D01*
X44532604Y-70849387D01*
X44532599Y-70849383D01*
X44282400Y-70682206D01*
X44282398Y-70682205D01*
X44278965Y-70679911D01*
X44208564Y-70645193D01*
X44005385Y-70544995D01*
X44005377Y-70544992D01*
X44001681Y-70543169D01*
X43829125Y-70484594D01*
X43712827Y-70445116D01*
X43712824Y-70445115D01*
X43708920Y-70443790D01*
X43461265Y-70394529D01*
X43409735Y-70384279D01*
X43409732Y-70384279D01*
X43405692Y-70383475D01*
X43401581Y-70383206D01*
X43401577Y-70383205D01*
X43176448Y-70368449D01*
X43176439Y-70368449D01*
X43174399Y-70368315D01*
X43019971Y-70368315D01*
X43017931Y-70368449D01*
X43017922Y-70368449D01*
X42792793Y-70383205D01*
X42792789Y-70383206D01*
X42788678Y-70383475D01*
X42784638Y-70384279D01*
X42784635Y-70384279D01*
X42733105Y-70394529D01*
X42485450Y-70443790D01*
X42481546Y-70445115D01*
X42481543Y-70445116D01*
X42365245Y-70484594D01*
X42192689Y-70543169D01*
X42188993Y-70544992D01*
X42188985Y-70544995D01*
X41985806Y-70645193D01*
X41915405Y-70679911D01*
X41911972Y-70682205D01*
X41911970Y-70682206D01*
X41661771Y-70849383D01*
X41661766Y-70849387D01*
X41658340Y-70851676D01*
X41655246Y-70854390D01*
X41655240Y-70854394D01*
X41500296Y-70990277D01*
X41425895Y-71055525D01*
X41423186Y-71058614D01*
X41224764Y-71284870D01*
X41224760Y-71284876D01*
X41222046Y-71287970D01*
X41219757Y-71291396D01*
X41219753Y-71291401D01*
X41138527Y-71412965D01*
X41050281Y-71545034D01*
X41048457Y-71548733D01*
X41048454Y-71548738D01*
X41003134Y-71640638D01*
X40913539Y-71822319D01*
X40912214Y-71826224D01*
X40912213Y-71826225D01*
X40835140Y-72053276D01*
X40814160Y-72115080D01*
X40798524Y-72193688D01*
X40755003Y-72412487D01*
X40753845Y-72418308D01*
X40753576Y-72422419D01*
X40753575Y-72422423D01*
X40750526Y-72468942D01*
X40726111Y-72535609D01*
X40669530Y-72578493D01*
X40598745Y-72583979D01*
X40535701Y-72549796D01*
X38469916Y-70484011D01*
X38435890Y-70421699D01*
X38433011Y-70394916D01*
X38433011Y-64618808D01*
X38453013Y-64550687D01*
X38506669Y-64504194D01*
X38576943Y-64494090D01*
X38635715Y-64518845D01*
X38655905Y-64534337D01*
X38670086Y-64542524D01*
X38798351Y-64595654D01*
X38814168Y-64599892D01*
X38917244Y-64613462D01*
X38925453Y-64614000D01*
X39015886Y-64614000D01*
X39031125Y-64609525D01*
X39032330Y-64608135D01*
X39034001Y-64600452D01*
X39034001Y-63228000D01*
X39054003Y-63159879D01*
X39107659Y-63113386D01*
X39160001Y-63102000D01*
X39416001Y-63102000D01*
X39484122Y-63122002D01*
X39530615Y-63175658D01*
X39542001Y-63228000D01*
X39542001Y-64595885D01*
X39546476Y-64611124D01*
X39547866Y-64612329D01*
X39555549Y-64614000D01*
X39650549Y-64614000D01*
X39658758Y-64613462D01*
X39761834Y-64599892D01*
X39777651Y-64595654D01*
X39905917Y-64542524D01*
X39920095Y-64534338D01*
X39960887Y-64503038D01*
X40027108Y-64477438D01*
X40096657Y-64491703D01*
X40114295Y-64503039D01*
X40155648Y-64534770D01*
X40155650Y-64534771D01*
X40162204Y-64539800D01*
X40169830Y-64542959D01*
X40169832Y-64542960D01*
X40188487Y-64550687D01*
X40305850Y-64599301D01*
X40314034Y-64600378D01*
X40314036Y-64600379D01*
X40417213Y-64613962D01*
X40421300Y-64614500D01*
X40787956Y-64614500D01*
X41154701Y-64614499D01*
X41158785Y-64613961D01*
X41158791Y-64613961D01*
X41261965Y-64600379D01*
X41261967Y-64600378D01*
X41270152Y-64599301D01*
X41413799Y-64539800D01*
X41483197Y-64486549D01*
X41530597Y-64450178D01*
X41530600Y-64450175D01*
X41537150Y-64445149D01*
X41542258Y-64438493D01*
X41626774Y-64328348D01*
X41631801Y-64321797D01*
X41691302Y-64178151D01*
X41706501Y-64062701D01*
X41706501Y-64058579D01*
X41706588Y-64057254D01*
X41731005Y-63990589D01*
X41787588Y-63947707D01*
X41832318Y-63939500D01*
X42645233Y-63939500D01*
X42656416Y-63940027D01*
X42663909Y-63941702D01*
X42671835Y-63941453D01*
X42671836Y-63941453D01*
X42731986Y-63939562D01*
X42735945Y-63939500D01*
X42763856Y-63939500D01*
X42767791Y-63939003D01*
X42767856Y-63938995D01*
X42779693Y-63938062D01*
X42811951Y-63937048D01*
X42815970Y-63936922D01*
X42823889Y-63936673D01*
X42843343Y-63931021D01*
X42862700Y-63927013D01*
X42874930Y-63925468D01*
X42874931Y-63925468D01*
X42882797Y-63924474D01*
X42890168Y-63921555D01*
X42890170Y-63921555D01*
X42923912Y-63908196D01*
X42935142Y-63904351D01*
X42969983Y-63894229D01*
X42969984Y-63894229D01*
X42977593Y-63892018D01*
X42984412Y-63887985D01*
X42984417Y-63887983D01*
X42995028Y-63881707D01*
X43012776Y-63873012D01*
X43031617Y-63865552D01*
X43067387Y-63839564D01*
X43077307Y-63833048D01*
X43108535Y-63814580D01*
X43108538Y-63814578D01*
X43115362Y-63810542D01*
X43129683Y-63796221D01*
X43144717Y-63783380D01*
X43154694Y-63776131D01*
X43161107Y-63771472D01*
X43189298Y-63737395D01*
X43197288Y-63728616D01*
X44972247Y-61953657D01*
X44980537Y-61946113D01*
X44987018Y-61942000D01*
X45033659Y-61892332D01*
X45036413Y-61889491D01*
X45056134Y-61869770D01*
X45058612Y-61866575D01*
X45066318Y-61857553D01*
X45078513Y-61844567D01*
X45096586Y-61825321D01*
X45106346Y-61807568D01*
X45117199Y-61791045D01*
X45124753Y-61781306D01*
X45129613Y-61775041D01*
X45147176Y-61734457D01*
X45152383Y-61723827D01*
X45173695Y-61685060D01*
X45175666Y-61677383D01*
X45175668Y-61677378D01*
X45178732Y-61665442D01*
X45185138Y-61646730D01*
X45187389Y-61641530D01*
X45193181Y-61628145D01*
X45200097Y-61584481D01*
X45202504Y-61572860D01*
X45211528Y-61537711D01*
X45211528Y-61537710D01*
X45213500Y-61530030D01*
X45213500Y-61509769D01*
X45215051Y-61490058D01*
X45215385Y-61487953D01*
X45218219Y-61470057D01*
X45214059Y-61426046D01*
X45213500Y-61414189D01*
X45213500Y-52327219D01*
X46109668Y-52327219D01*
X46122176Y-52544150D01*
X46123612Y-52554370D01*
X46171382Y-52766339D01*
X46174461Y-52776167D01*
X46256215Y-52977502D01*
X46260858Y-52986693D01*
X46345334Y-53124546D01*
X46355790Y-53134006D01*
X46364568Y-53130222D01*
X47125978Y-52368812D01*
X47132356Y-52357132D01*
X47862408Y-52357132D01*
X47862539Y-52358965D01*
X47866790Y-52365580D01*
X48627320Y-53126110D01*
X48639330Y-53132669D01*
X48651069Y-53123701D01*
X48685625Y-53075611D01*
X48690936Y-53066772D01*
X48787206Y-52871983D01*
X48791005Y-52862387D01*
X48854170Y-52654491D01*
X48856349Y-52644410D01*
X48878799Y-52473890D01*
X51750093Y-52473890D01*
X51753876Y-52482666D01*
X52605188Y-53333978D01*
X52619132Y-53341592D01*
X52620965Y-53341461D01*
X52627580Y-53337210D01*
X53479080Y-52485710D01*
X53485840Y-52473330D01*
X53480113Y-52465680D01*
X53308958Y-52360795D01*
X53300163Y-52356313D01*
X53090012Y-52269266D01*
X53080627Y-52266217D01*
X52859446Y-52213115D01*
X52849699Y-52211572D01*
X52622930Y-52193725D01*
X52613070Y-52193725D01*
X52386301Y-52211572D01*
X52376554Y-52213115D01*
X52155373Y-52266217D01*
X52145988Y-52269266D01*
X51935837Y-52356313D01*
X51927042Y-52360795D01*
X51759555Y-52463432D01*
X51750093Y-52473890D01*
X48878799Y-52473890D01*
X48884949Y-52427175D01*
X48885468Y-52420502D01*
X48886962Y-52359365D01*
X48886768Y-52352646D01*
X48868816Y-52134294D01*
X48867131Y-52124114D01*
X48814196Y-51913371D01*
X48810876Y-51903620D01*
X48724229Y-51704343D01*
X48719362Y-51695268D01*
X48650083Y-51588178D01*
X48639398Y-51578975D01*
X48629831Y-51583379D01*
X47870022Y-52343188D01*
X47862408Y-52357132D01*
X47132356Y-52357132D01*
X47133592Y-52354868D01*
X47133461Y-52353035D01*
X47129210Y-52346420D01*
X46368922Y-51586132D01*
X46357386Y-51579832D01*
X46345104Y-51589455D01*
X46293143Y-51665627D01*
X46288058Y-51674578D01*
X46196571Y-51871671D01*
X46193008Y-51881358D01*
X46134942Y-52090736D01*
X46133011Y-52100856D01*
X46109920Y-52316930D01*
X46109668Y-52327219D01*
X45213500Y-52327219D01*
X45213500Y-51004594D01*
X45226570Y-50960080D01*
X46718750Y-50960080D01*
X46724031Y-50967134D01*
X46739168Y-50975980D01*
X46787891Y-51027619D01*
X46800961Y-51097402D01*
X46774229Y-51163174D01*
X46751248Y-51185528D01*
X46728889Y-51202315D01*
X46720436Y-51213640D01*
X46727180Y-51225970D01*
X47485188Y-51983978D01*
X47499132Y-51991592D01*
X47500965Y-51991461D01*
X47507580Y-51987210D01*
X48270115Y-51224675D01*
X48277136Y-51211819D01*
X48269607Y-51201486D01*
X48262165Y-51196542D01*
X48259397Y-51195014D01*
X48258494Y-51194103D01*
X48257853Y-51193677D01*
X48257941Y-51193545D01*
X48209424Y-51144584D01*
X48194648Y-51075142D01*
X48219761Y-51008735D01*
X48247117Y-50982123D01*
X48266104Y-50968580D01*
X48274504Y-50957881D01*
X48267515Y-50944725D01*
X47510812Y-50188022D01*
X47496868Y-50180408D01*
X47495035Y-50180539D01*
X47488420Y-50184790D01*
X46725510Y-50947700D01*
X46718750Y-50960080D01*
X45226570Y-50960080D01*
X45233502Y-50936473D01*
X45250405Y-50915499D01*
X45969433Y-50196471D01*
X46031745Y-50162445D01*
X46102560Y-50167510D01*
X46159396Y-50210057D01*
X46175270Y-50238161D01*
X46256212Y-50437496D01*
X46260858Y-50446693D01*
X46345334Y-50584546D01*
X46355790Y-50594006D01*
X46364568Y-50590222D01*
X47137658Y-49817132D01*
X47862408Y-49817132D01*
X47862539Y-49818965D01*
X47866790Y-49825580D01*
X48627320Y-50586110D01*
X48639330Y-50592669D01*
X48651069Y-50583701D01*
X48685625Y-50535611D01*
X48690936Y-50526772D01*
X48787206Y-50331983D01*
X48791005Y-50322387D01*
X48854170Y-50114491D01*
X48856349Y-50104410D01*
X48884949Y-49887175D01*
X48885468Y-49880502D01*
X48886962Y-49819365D01*
X48886768Y-49812646D01*
X48868816Y-49594294D01*
X48867131Y-49584114D01*
X48814196Y-49373371D01*
X48810876Y-49363620D01*
X48724229Y-49164343D01*
X48719362Y-49155268D01*
X48650083Y-49048178D01*
X48639398Y-49038975D01*
X48629831Y-49043379D01*
X47870022Y-49803188D01*
X47862408Y-49817132D01*
X47137658Y-49817132D01*
X48270115Y-48684675D01*
X48277136Y-48671819D01*
X48269607Y-48661486D01*
X48262161Y-48656539D01*
X48259880Y-48655280D01*
X48259137Y-48654530D01*
X48257853Y-48653677D01*
X48258029Y-48653412D01*
X48209908Y-48604849D01*
X48195134Y-48535406D01*
X48220249Y-48469000D01*
X48247602Y-48442391D01*
X48248428Y-48441802D01*
X48394893Y-48337330D01*
X48556193Y-48176592D01*
X48689073Y-47991669D01*
X48691494Y-47986772D01*
X48787673Y-47792168D01*
X48787674Y-47792166D01*
X48789967Y-47787526D01*
X48856164Y-47569646D01*
X48856853Y-47564410D01*
X48885450Y-47347201D01*
X48885451Y-47347194D01*
X48885887Y-47343879D01*
X48887546Y-47276000D01*
X48870056Y-47063273D01*
X48884409Y-46993744D01*
X48934074Y-46943011D01*
X49003284Y-46927183D01*
X49070064Y-46951285D01*
X49084727Y-46963855D01*
X50420180Y-48299308D01*
X50427800Y-48308845D01*
X50428169Y-48308531D01*
X50433984Y-48315364D01*
X50438776Y-48322958D01*
X50479116Y-48358585D01*
X50484803Y-48363931D01*
X50496254Y-48375382D01*
X50504638Y-48381666D01*
X50512463Y-48388037D01*
X50547951Y-48419378D01*
X50556075Y-48423192D01*
X50558553Y-48424820D01*
X50573534Y-48433822D01*
X50576115Y-48435235D01*
X50583295Y-48440616D01*
X50627650Y-48457244D01*
X50636948Y-48461162D01*
X50679800Y-48481281D01*
X50688666Y-48482662D01*
X50691467Y-48483518D01*
X50708404Y-48487962D01*
X50711284Y-48488595D01*
X50719684Y-48491744D01*
X50728629Y-48492409D01*
X50728630Y-48492409D01*
X50766889Y-48495252D01*
X50776937Y-48496406D01*
X50780856Y-48497016D01*
X50790386Y-48498500D01*
X50805923Y-48498500D01*
X50815261Y-48498847D01*
X50855990Y-48501874D01*
X50855991Y-48501874D01*
X50864941Y-48502539D01*
X50873716Y-48500666D01*
X50881973Y-48500103D01*
X50897162Y-48498500D01*
X59338928Y-48498500D01*
X59351058Y-48499855D01*
X59351097Y-48499373D01*
X59360044Y-48500093D01*
X59368800Y-48502074D01*
X59422508Y-48498742D01*
X59430310Y-48498500D01*
X59446513Y-48498500D01*
X59455429Y-48497223D01*
X59456878Y-48497016D01*
X59466928Y-48495987D01*
X59505216Y-48493611D01*
X59514177Y-48493055D01*
X59522623Y-48490006D01*
X59525514Y-48489407D01*
X59542480Y-48485178D01*
X59545305Y-48484352D01*
X59554187Y-48483080D01*
X59597298Y-48463478D01*
X59606649Y-48459672D01*
X59608475Y-48459013D01*
X59651181Y-48443596D01*
X59658429Y-48438301D01*
X59661027Y-48436920D01*
X59676145Y-48428085D01*
X59678614Y-48426506D01*
X59686782Y-48422792D01*
X59722653Y-48391884D01*
X59730569Y-48385599D01*
X59737615Y-48380452D01*
X59737620Y-48380447D01*
X59741552Y-48377575D01*
X59752527Y-48366600D01*
X59759375Y-48360242D01*
X59790323Y-48333576D01*
X59790324Y-48333575D01*
X59797127Y-48327713D01*
X59802011Y-48320178D01*
X59807458Y-48313934D01*
X59817058Y-48302069D01*
X61153589Y-46965538D01*
X61215900Y-46931513D01*
X61286715Y-46936578D01*
X61343551Y-46979125D01*
X61368362Y-47045645D01*
X61367970Y-47068023D01*
X61349920Y-47236930D01*
X61349668Y-47247219D01*
X61362176Y-47464150D01*
X61363612Y-47474370D01*
X61411382Y-47686339D01*
X61414461Y-47696167D01*
X61496215Y-47897502D01*
X61500858Y-47906693D01*
X61585334Y-48044546D01*
X61595790Y-48054006D01*
X61604568Y-48050222D01*
X62377658Y-47277132D01*
X63102408Y-47277132D01*
X63102539Y-47278965D01*
X63106790Y-47285580D01*
X63867320Y-48046110D01*
X63879330Y-48052669D01*
X63891069Y-48043701D01*
X63925625Y-47995611D01*
X63930936Y-47986772D01*
X64027206Y-47791983D01*
X64031005Y-47782387D01*
X64094170Y-47574491D01*
X64096349Y-47564410D01*
X64124949Y-47347175D01*
X64125468Y-47340502D01*
X64126962Y-47279365D01*
X64126768Y-47272646D01*
X64108816Y-47054294D01*
X64107131Y-47044114D01*
X64054196Y-46833371D01*
X64050876Y-46823620D01*
X63964229Y-46624343D01*
X63959362Y-46615268D01*
X63890083Y-46508178D01*
X63879398Y-46498975D01*
X63869831Y-46503379D01*
X63110022Y-47263188D01*
X63102408Y-47277132D01*
X62377658Y-47277132D01*
X63510115Y-46144675D01*
X63517136Y-46131819D01*
X63509607Y-46121486D01*
X63502161Y-46116539D01*
X63499880Y-46115280D01*
X63499137Y-46114530D01*
X63497853Y-46113677D01*
X63498029Y-46113412D01*
X63449908Y-46064849D01*
X63435134Y-45995406D01*
X63460249Y-45929000D01*
X63487602Y-45902391D01*
X63560215Y-45850597D01*
X63634893Y-45797330D01*
X63796193Y-45636592D01*
X63815748Y-45609379D01*
X63926055Y-45455869D01*
X63929073Y-45451669D01*
X63963753Y-45381501D01*
X64027673Y-45252168D01*
X64027674Y-45252166D01*
X64029967Y-45247526D01*
X64096164Y-45029646D01*
X64111797Y-44910906D01*
X64125450Y-44807201D01*
X64125451Y-44807194D01*
X64125887Y-44803879D01*
X64127546Y-44736000D01*
X64120179Y-44646393D01*
X64109311Y-44514202D01*
X64109310Y-44514196D01*
X64108887Y-44509051D01*
X64053413Y-44288197D01*
X64051354Y-44283461D01*
X63964672Y-44084106D01*
X63964670Y-44084103D01*
X63962612Y-44079369D01*
X63838923Y-43888175D01*
X63685668Y-43719750D01*
X63506963Y-43578618D01*
X63307607Y-43468567D01*
X63191598Y-43427486D01*
X63097829Y-43394280D01*
X63097825Y-43394279D01*
X63092954Y-43392554D01*
X63087861Y-43391647D01*
X63087858Y-43391646D01*
X62873857Y-43353527D01*
X62873851Y-43353526D01*
X62868768Y-43352621D01*
X62781698Y-43351557D01*
X62646239Y-43349902D01*
X62646237Y-43349902D01*
X62641070Y-43349839D01*
X62415976Y-43384283D01*
X62253566Y-43437367D01*
X62182602Y-43439518D01*
X62121741Y-43402962D01*
X62090304Y-43339305D01*
X62088421Y-43317606D01*
X62088366Y-41571979D01*
X62088318Y-40038332D01*
X62108318Y-39970213D01*
X62161972Y-39923718D01*
X62232246Y-39913612D01*
X62254442Y-39918889D01*
G37*
%TD.AperFunction*%
M02*
