%TF.GenerationSoftware,KiCad,Pcbnew,(6.0.4)*%
%TF.CreationDate,2022-04-07T13:26:34+02:00*%
%TF.ProjectId,Little Big Scroll 1,4c697474-6c65-4204-9269-67205363726f,v1.0*%
%TF.SameCoordinates,Original*%
%TF.FileFunction,Legend,Bot*%
%TF.FilePolarity,Positive*%
%FSLAX46Y46*%
G04 Gerber Fmt 4.6, Leading zero omitted, Abs format (unit mm)*
G04 Created by KiCad (PCBNEW (6.0.4)) date 2022-04-07 13:26:34*
%MOMM*%
%LPD*%
G01*
G04 APERTURE LIST*
G04 Aperture macros list*
%AMRoundRect*
0 Rectangle with rounded corners*
0 $1 Rounding radius*
0 $2 $3 $4 $5 $6 $7 $8 $9 X,Y pos of 4 corners*
0 Add a 4 corners polygon primitive as box body*
4,1,4,$2,$3,$4,$5,$6,$7,$8,$9,$2,$3,0*
0 Add four circle primitives for the rounded corners*
1,1,$1+$1,$2,$3*
1,1,$1+$1,$4,$5*
1,1,$1+$1,$6,$7*
1,1,$1+$1,$8,$9*
0 Add four rect primitives between the rounded corners*
20,1,$1+$1,$2,$3,$4,$5,0*
20,1,$1+$1,$4,$5,$6,$7,0*
20,1,$1+$1,$6,$7,$8,$9,0*
20,1,$1+$1,$8,$9,$2,$3,0*%
G04 Aperture macros list end*
%ADD10C,0.150000*%
%ADD11C,0.100000*%
%ADD12C,0.010000*%
%ADD13C,1.752600*%
%ADD14R,1.752600X1.752600*%
%ADD15RoundRect,0.082000X-0.328000X-0.668000X0.328000X-0.668000X0.328000X0.668000X-0.328000X0.668000X0*%
%ADD16RoundRect,0.082000X-0.668000X0.328000X-0.668000X-0.328000X0.668000X-0.328000X0.668000X0.328000X0*%
%ADD17RoundRect,0.082000X0.328000X0.668000X-0.328000X0.668000X-0.328000X-0.668000X0.328000X-0.668000X0*%
%ADD18C,3.700000*%
%ADD19C,2.000000*%
%ADD20O,1.400000X2.600000*%
%ADD21R,2.000000X2.000000*%
%ADD22O,1.400000X1.400000*%
%ADD23C,1.400000*%
G04 APERTURE END LIST*
D10*
X58895238Y-80161904D02*
X58895238Y-80733333D01*
X58933333Y-80847619D01*
X59009523Y-80923809D01*
X59123809Y-80961904D01*
X59200000Y-80961904D01*
X58133333Y-80961904D02*
X58514285Y-80961904D01*
X58514285Y-80161904D01*
X57409523Y-80885714D02*
X57447619Y-80923809D01*
X57561904Y-80961904D01*
X57638095Y-80961904D01*
X57752380Y-80923809D01*
X57828571Y-80847619D01*
X57866666Y-80771428D01*
X57904761Y-80619047D01*
X57904761Y-80504761D01*
X57866666Y-80352380D01*
X57828571Y-80276190D01*
X57752380Y-80200000D01*
X57638095Y-80161904D01*
X57561904Y-80161904D01*
X57447619Y-80200000D01*
X57409523Y-80238095D01*
X56838095Y-80161904D02*
X56838095Y-80733333D01*
X56876190Y-80847619D01*
X56952380Y-80923809D01*
X57066666Y-80961904D01*
X57142857Y-80961904D01*
X56076190Y-80961904D02*
X56457142Y-80961904D01*
X56457142Y-80161904D01*
X55352380Y-80885714D02*
X55390476Y-80923809D01*
X55504761Y-80961904D01*
X55580952Y-80961904D01*
X55695238Y-80923809D01*
X55771428Y-80847619D01*
X55809523Y-80771428D01*
X55847619Y-80619047D01*
X55847619Y-80504761D01*
X55809523Y-80352380D01*
X55771428Y-80276190D01*
X55695238Y-80200000D01*
X55580952Y-80161904D01*
X55504761Y-80161904D01*
X55390476Y-80200000D01*
X55352380Y-80238095D01*
X54780952Y-80161904D02*
X54780952Y-80733333D01*
X54819047Y-80847619D01*
X54895238Y-80923809D01*
X55009523Y-80961904D01*
X55085714Y-80961904D01*
X54019047Y-80961904D02*
X54400000Y-80961904D01*
X54400000Y-80161904D01*
X53295238Y-80885714D02*
X53333333Y-80923809D01*
X53447619Y-80961904D01*
X53523809Y-80961904D01*
X53638095Y-80923809D01*
X53714285Y-80847619D01*
X53752380Y-80771428D01*
X53790476Y-80619047D01*
X53790476Y-80504761D01*
X53752380Y-80352380D01*
X53714285Y-80276190D01*
X53638095Y-80200000D01*
X53523809Y-80161904D01*
X53447619Y-80161904D01*
X53333333Y-80200000D01*
X53295238Y-80238095D01*
X52723809Y-80161904D02*
X52723809Y-80733333D01*
X52761904Y-80847619D01*
X52838095Y-80923809D01*
X52952380Y-80961904D01*
X53028571Y-80961904D01*
X51961904Y-80961904D02*
X52342857Y-80961904D01*
X52342857Y-80161904D01*
X51238095Y-80885714D02*
X51276190Y-80923809D01*
X51390476Y-80961904D01*
X51466666Y-80961904D01*
X51580952Y-80923809D01*
X51657142Y-80847619D01*
X51695238Y-80771428D01*
X51733333Y-80619047D01*
X51733333Y-80504761D01*
X51695238Y-80352380D01*
X51657142Y-80276190D01*
X51580952Y-80200000D01*
X51466666Y-80161904D01*
X51390476Y-80161904D01*
X51276190Y-80200000D01*
X51238095Y-80238095D01*
D11*
X74582095Y-67742857D02*
X75382095Y-67742857D01*
X74810666Y-67476190D01*
X75382095Y-67209523D01*
X74582095Y-67209523D01*
X74582095Y-66485714D02*
X75001142Y-66485714D01*
X75077333Y-66523809D01*
X75115428Y-66600000D01*
X75115428Y-66752380D01*
X75077333Y-66828571D01*
X74620190Y-66485714D02*
X74582095Y-66561904D01*
X74582095Y-66752380D01*
X74620190Y-66828571D01*
X74696380Y-66866666D01*
X74772571Y-66866666D01*
X74848761Y-66828571D01*
X74886857Y-66752380D01*
X74886857Y-66561904D01*
X74924952Y-66485714D01*
X74582095Y-66104761D02*
X75115428Y-66104761D01*
X74963047Y-66104761D02*
X75039238Y-66066666D01*
X75077333Y-66028571D01*
X75115428Y-65952380D01*
X75115428Y-65876190D01*
X74582095Y-65609523D02*
X75382095Y-65609523D01*
X74886857Y-65533333D02*
X74582095Y-65304761D01*
X75115428Y-65304761D02*
X74810666Y-65609523D01*
X75115428Y-64619047D02*
X74582095Y-64619047D01*
X75115428Y-64961904D02*
X74696380Y-64961904D01*
X74620190Y-64923809D01*
X74582095Y-64847619D01*
X74582095Y-64733333D01*
X74620190Y-64657142D01*
X74658285Y-64619047D01*
X74620190Y-64276190D02*
X74582095Y-64200000D01*
X74582095Y-64047619D01*
X74620190Y-63971428D01*
X74696380Y-63933333D01*
X74734476Y-63933333D01*
X74810666Y-63971428D01*
X74848761Y-64047619D01*
X74848761Y-64161904D01*
X74886857Y-64238095D01*
X74963047Y-64276190D01*
X75001142Y-64276190D01*
X75077333Y-64238095D01*
X75115428Y-64161904D01*
X75115428Y-64047619D01*
X75077333Y-63971428D01*
X74582095Y-62980952D02*
X75382095Y-62980952D01*
X74582095Y-62523809D02*
X75039238Y-62866666D01*
X75382095Y-62523809D02*
X74924952Y-62980952D01*
X75115428Y-62180952D02*
X74582095Y-62180952D01*
X75039238Y-62180952D02*
X75077333Y-62142857D01*
X75115428Y-62066666D01*
X75115428Y-61952380D01*
X75077333Y-61876190D01*
X75001142Y-61838095D01*
X74582095Y-61838095D01*
X75115428Y-61114285D02*
X74582095Y-61114285D01*
X75115428Y-61457142D02*
X74696380Y-61457142D01*
X74620190Y-61419047D01*
X74582095Y-61342857D01*
X74582095Y-61228571D01*
X74620190Y-61152380D01*
X74658285Y-61114285D01*
X75115428Y-60847619D02*
X75115428Y-60542857D01*
X75382095Y-60733333D02*
X74696380Y-60733333D01*
X74620190Y-60695238D01*
X74582095Y-60619047D01*
X74582095Y-60542857D01*
X74620190Y-60314285D02*
X74582095Y-60238095D01*
X74582095Y-60085714D01*
X74620190Y-60009523D01*
X74696380Y-59971428D01*
X74734476Y-59971428D01*
X74810666Y-60009523D01*
X74848761Y-60085714D01*
X74848761Y-60200000D01*
X74886857Y-60276190D01*
X74963047Y-60314285D01*
X75001142Y-60314285D01*
X75077333Y-60276190D01*
X75115428Y-60200000D01*
X75115428Y-60085714D01*
X75077333Y-60009523D01*
X74620190Y-59666666D02*
X74582095Y-59590476D01*
X74582095Y-59438095D01*
X74620190Y-59361904D01*
X74696380Y-59323809D01*
X74734476Y-59323809D01*
X74810666Y-59361904D01*
X74848761Y-59438095D01*
X74848761Y-59552380D01*
X74886857Y-59628571D01*
X74963047Y-59666666D01*
X75001142Y-59666666D01*
X75077333Y-59628571D01*
X75115428Y-59552380D01*
X75115428Y-59438095D01*
X75077333Y-59361904D01*
X74582095Y-58866666D02*
X74620190Y-58942857D01*
X74658285Y-58980952D01*
X74734476Y-59019047D01*
X74963047Y-59019047D01*
X75039238Y-58980952D01*
X75077333Y-58942857D01*
X75115428Y-58866666D01*
X75115428Y-58752380D01*
X75077333Y-58676190D01*
X75039238Y-58638095D01*
X74963047Y-58600000D01*
X74734476Y-58600000D01*
X74658285Y-58638095D01*
X74620190Y-58676190D01*
X74582095Y-58752380D01*
X74582095Y-58866666D01*
X75115428Y-58257142D02*
X74582095Y-58257142D01*
X75039238Y-58257142D02*
X75077333Y-58219047D01*
X75115428Y-58142857D01*
X75115428Y-58028571D01*
X75077333Y-57952380D01*
X75001142Y-57914285D01*
X74582095Y-57914285D01*
X75305904Y-56961904D02*
X75344000Y-56923809D01*
X75382095Y-56847619D01*
X75382095Y-56657142D01*
X75344000Y-56580952D01*
X75305904Y-56542857D01*
X75229714Y-56504761D01*
X75153523Y-56504761D01*
X75039238Y-56542857D01*
X74582095Y-57000000D01*
X74582095Y-56504761D01*
X75382095Y-56009523D02*
X75382095Y-55933333D01*
X75344000Y-55857142D01*
X75305904Y-55819047D01*
X75229714Y-55780952D01*
X75077333Y-55742857D01*
X74886857Y-55742857D01*
X74734476Y-55780952D01*
X74658285Y-55819047D01*
X74620190Y-55857142D01*
X74582095Y-55933333D01*
X74582095Y-56009523D01*
X74620190Y-56085714D01*
X74658285Y-56123809D01*
X74734476Y-56161904D01*
X74886857Y-56200000D01*
X75077333Y-56200000D01*
X75229714Y-56161904D01*
X75305904Y-56123809D01*
X75344000Y-56085714D01*
X75382095Y-56009523D01*
X75305904Y-55438095D02*
X75344000Y-55400000D01*
X75382095Y-55323809D01*
X75382095Y-55133333D01*
X75344000Y-55057142D01*
X75305904Y-55019047D01*
X75229714Y-54980952D01*
X75153523Y-54980952D01*
X75039238Y-55019047D01*
X74582095Y-55476190D01*
X74582095Y-54980952D01*
X75305904Y-54676190D02*
X75344000Y-54638095D01*
X75382095Y-54561904D01*
X75382095Y-54371428D01*
X75344000Y-54295238D01*
X75305904Y-54257142D01*
X75229714Y-54219047D01*
X75153523Y-54219047D01*
X75039238Y-54257142D01*
X74582095Y-54714285D01*
X74582095Y-54219047D01*
X73294095Y-70961904D02*
X74094095Y-70961904D01*
X73294095Y-70619047D02*
X73713142Y-70619047D01*
X73789333Y-70657142D01*
X73827428Y-70733333D01*
X73827428Y-70847619D01*
X73789333Y-70923809D01*
X73751238Y-70961904D01*
X73827428Y-70352380D02*
X73827428Y-70047619D01*
X74094095Y-70238095D02*
X73408380Y-70238095D01*
X73332190Y-70200000D01*
X73294095Y-70123809D01*
X73294095Y-70047619D01*
X73827428Y-69895238D02*
X73827428Y-69590476D01*
X74094095Y-69780952D02*
X73408380Y-69780952D01*
X73332190Y-69742857D01*
X73294095Y-69666666D01*
X73294095Y-69590476D01*
X73827428Y-69323809D02*
X73027428Y-69323809D01*
X73789333Y-69323809D02*
X73827428Y-69247619D01*
X73827428Y-69095238D01*
X73789333Y-69019047D01*
X73751238Y-68980952D01*
X73675047Y-68942857D01*
X73446476Y-68942857D01*
X73370285Y-68980952D01*
X73332190Y-69019047D01*
X73294095Y-69095238D01*
X73294095Y-69247619D01*
X73332190Y-69323809D01*
X73332190Y-68638095D02*
X73294095Y-68561904D01*
X73294095Y-68409523D01*
X73332190Y-68333333D01*
X73408380Y-68295238D01*
X73446476Y-68295238D01*
X73522666Y-68333333D01*
X73560761Y-68409523D01*
X73560761Y-68523809D01*
X73598857Y-68600000D01*
X73675047Y-68638095D01*
X73713142Y-68638095D01*
X73789333Y-68600000D01*
X73827428Y-68523809D01*
X73827428Y-68409523D01*
X73789333Y-68333333D01*
X73370285Y-67952380D02*
X73332190Y-67914285D01*
X73294095Y-67952380D01*
X73332190Y-67990476D01*
X73370285Y-67952380D01*
X73294095Y-67952380D01*
X73789333Y-67952380D02*
X73751238Y-67914285D01*
X73713142Y-67952380D01*
X73751238Y-67990476D01*
X73789333Y-67952380D01*
X73713142Y-67952380D01*
X74132190Y-67000000D02*
X73103619Y-67685714D01*
X74132190Y-66161904D02*
X73103619Y-66847619D01*
X73827428Y-65552380D02*
X73179809Y-65552380D01*
X73103619Y-65590476D01*
X73065523Y-65628571D01*
X73027428Y-65704761D01*
X73027428Y-65819047D01*
X73065523Y-65895238D01*
X73332190Y-65552380D02*
X73294095Y-65628571D01*
X73294095Y-65780952D01*
X73332190Y-65857142D01*
X73370285Y-65895238D01*
X73446476Y-65933333D01*
X73675047Y-65933333D01*
X73751238Y-65895238D01*
X73789333Y-65857142D01*
X73827428Y-65780952D01*
X73827428Y-65628571D01*
X73789333Y-65552380D01*
X73294095Y-65171428D02*
X73827428Y-65171428D01*
X74094095Y-65171428D02*
X74056000Y-65209523D01*
X74017904Y-65171428D01*
X74056000Y-65133333D01*
X74094095Y-65171428D01*
X74017904Y-65171428D01*
X73827428Y-64904761D02*
X73827428Y-64600000D01*
X74094095Y-64790476D02*
X73408380Y-64790476D01*
X73332190Y-64752380D01*
X73294095Y-64676190D01*
X73294095Y-64600000D01*
X73294095Y-64333333D02*
X74094095Y-64333333D01*
X73294095Y-63990476D02*
X73713142Y-63990476D01*
X73789333Y-64028571D01*
X73827428Y-64104761D01*
X73827428Y-64219047D01*
X73789333Y-64295238D01*
X73751238Y-64333333D01*
X73827428Y-63266666D02*
X73294095Y-63266666D01*
X73827428Y-63609523D02*
X73408380Y-63609523D01*
X73332190Y-63571428D01*
X73294095Y-63495238D01*
X73294095Y-63380952D01*
X73332190Y-63304761D01*
X73370285Y-63266666D01*
X73294095Y-62885714D02*
X74094095Y-62885714D01*
X73789333Y-62885714D02*
X73827428Y-62809523D01*
X73827428Y-62657142D01*
X73789333Y-62580952D01*
X73751238Y-62542857D01*
X73675047Y-62504761D01*
X73446476Y-62504761D01*
X73370285Y-62542857D01*
X73332190Y-62580952D01*
X73294095Y-62657142D01*
X73294095Y-62809523D01*
X73332190Y-62885714D01*
X73370285Y-62161904D02*
X73332190Y-62123809D01*
X73294095Y-62161904D01*
X73332190Y-62200000D01*
X73370285Y-62161904D01*
X73294095Y-62161904D01*
X73332190Y-61438095D02*
X73294095Y-61514285D01*
X73294095Y-61666666D01*
X73332190Y-61742857D01*
X73370285Y-61780952D01*
X73446476Y-61819047D01*
X73675047Y-61819047D01*
X73751238Y-61780952D01*
X73789333Y-61742857D01*
X73827428Y-61666666D01*
X73827428Y-61514285D01*
X73789333Y-61438095D01*
X73294095Y-60980952D02*
X73332190Y-61057142D01*
X73370285Y-61095238D01*
X73446476Y-61133333D01*
X73675047Y-61133333D01*
X73751238Y-61095238D01*
X73789333Y-61057142D01*
X73827428Y-60980952D01*
X73827428Y-60866666D01*
X73789333Y-60790476D01*
X73751238Y-60752380D01*
X73675047Y-60714285D01*
X73446476Y-60714285D01*
X73370285Y-60752380D01*
X73332190Y-60790476D01*
X73294095Y-60866666D01*
X73294095Y-60980952D01*
X73294095Y-60371428D02*
X73827428Y-60371428D01*
X73751238Y-60371428D02*
X73789333Y-60333333D01*
X73827428Y-60257142D01*
X73827428Y-60142857D01*
X73789333Y-60066666D01*
X73713142Y-60028571D01*
X73294095Y-60028571D01*
X73713142Y-60028571D02*
X73789333Y-59990476D01*
X73827428Y-59914285D01*
X73827428Y-59800000D01*
X73789333Y-59723809D01*
X73713142Y-59685714D01*
X73294095Y-59685714D01*
X74132190Y-58733333D02*
X73103619Y-59419047D01*
X74094095Y-58580952D02*
X74094095Y-58123809D01*
X73294095Y-58352380D02*
X74094095Y-58352380D01*
X73827428Y-57933333D02*
X73294095Y-57780952D01*
X73675047Y-57628571D01*
X73294095Y-57476190D01*
X73827428Y-57323809D01*
X73332190Y-56714285D02*
X73294095Y-56790476D01*
X73294095Y-56942857D01*
X73332190Y-57019047D01*
X73408380Y-57057142D01*
X73713142Y-57057142D01*
X73789333Y-57019047D01*
X73827428Y-56942857D01*
X73827428Y-56790476D01*
X73789333Y-56714285D01*
X73713142Y-56676190D01*
X73636952Y-56676190D01*
X73560761Y-57057142D01*
X73332190Y-56028571D02*
X73294095Y-56104761D01*
X73294095Y-56257142D01*
X73332190Y-56333333D01*
X73408380Y-56371428D01*
X73713142Y-56371428D01*
X73789333Y-56333333D01*
X73827428Y-56257142D01*
X73827428Y-56104761D01*
X73789333Y-56028571D01*
X73713142Y-55990476D01*
X73636952Y-55990476D01*
X73560761Y-56371428D01*
X73827428Y-55761904D02*
X73827428Y-55457142D01*
X74094095Y-55647619D02*
X73408380Y-55647619D01*
X73332190Y-55609523D01*
X73294095Y-55533333D01*
X73294095Y-55457142D01*
X73827428Y-55266666D02*
X73294095Y-55076190D01*
X73827428Y-54885714D02*
X73294095Y-55076190D01*
X73103619Y-55152380D01*
X73065523Y-55190476D01*
X73027428Y-55266666D01*
X73294095Y-54580952D02*
X74094095Y-54580952D01*
X74094095Y-54390476D01*
X74056000Y-54276190D01*
X73979809Y-54200000D01*
X73903619Y-54161904D01*
X73751238Y-54123809D01*
X73636952Y-54123809D01*
X73484571Y-54161904D01*
X73408380Y-54200000D01*
X73332190Y-54276190D01*
X73294095Y-54390476D01*
X73294095Y-54580952D01*
X73294095Y-53438095D02*
X73713142Y-53438095D01*
X73789333Y-53476190D01*
X73827428Y-53552380D01*
X73827428Y-53704761D01*
X73789333Y-53780952D01*
X73332190Y-53438095D02*
X73294095Y-53514285D01*
X73294095Y-53704761D01*
X73332190Y-53780952D01*
X73408380Y-53819047D01*
X73484571Y-53819047D01*
X73560761Y-53780952D01*
X73598857Y-53704761D01*
X73598857Y-53514285D01*
X73636952Y-53438095D01*
X73713142Y-52790476D02*
X73675047Y-52676190D01*
X73636952Y-52638095D01*
X73560761Y-52600000D01*
X73446476Y-52600000D01*
X73370285Y-52638095D01*
X73332190Y-52676190D01*
X73294095Y-52752380D01*
X73294095Y-53057142D01*
X74094095Y-53057142D01*
X74094095Y-52790476D01*
X74056000Y-52714285D01*
X74017904Y-52676190D01*
X73941714Y-52638095D01*
X73865523Y-52638095D01*
X73789333Y-52676190D01*
X73751238Y-52714285D01*
X73713142Y-52790476D01*
X73713142Y-53057142D01*
X73294095Y-52257142D02*
X73827428Y-52257142D01*
X74094095Y-52257142D02*
X74056000Y-52295238D01*
X74017904Y-52257142D01*
X74056000Y-52219047D01*
X74094095Y-52257142D01*
X74017904Y-52257142D01*
X73294095Y-51876190D02*
X73827428Y-51876190D01*
X73675047Y-51876190D02*
X73751238Y-51838095D01*
X73789333Y-51800000D01*
X73827428Y-51723809D01*
X73827428Y-51647619D01*
X73294095Y-51038095D02*
X74094095Y-51038095D01*
X73332190Y-51038095D02*
X73294095Y-51114285D01*
X73294095Y-51266666D01*
X73332190Y-51342857D01*
X73370285Y-51380952D01*
X73446476Y-51419047D01*
X73675047Y-51419047D01*
X73751238Y-51380952D01*
X73789333Y-51342857D01*
X73827428Y-51266666D01*
X73827428Y-51114285D01*
X73789333Y-51038095D01*
X61914285Y-79061904D02*
X62295238Y-79061904D01*
X62295238Y-78261904D01*
X61647619Y-79061904D02*
X61647619Y-78528571D01*
X61647619Y-78261904D02*
X61685714Y-78300000D01*
X61647619Y-78338095D01*
X61609523Y-78300000D01*
X61647619Y-78261904D01*
X61647619Y-78338095D01*
X61380952Y-78528571D02*
X61076190Y-78528571D01*
X61266666Y-78261904D02*
X61266666Y-78947619D01*
X61228571Y-79023809D01*
X61152380Y-79061904D01*
X61076190Y-79061904D01*
X60923809Y-78528571D02*
X60619047Y-78528571D01*
X60809523Y-78261904D02*
X60809523Y-78947619D01*
X60771428Y-79023809D01*
X60695238Y-79061904D01*
X60619047Y-79061904D01*
X60238095Y-79061904D02*
X60314285Y-79023809D01*
X60352380Y-78947619D01*
X60352380Y-78261904D01*
X59628571Y-79023809D02*
X59704761Y-79061904D01*
X59857142Y-79061904D01*
X59933333Y-79023809D01*
X59971428Y-78947619D01*
X59971428Y-78642857D01*
X59933333Y-78566666D01*
X59857142Y-78528571D01*
X59704761Y-78528571D01*
X59628571Y-78566666D01*
X59590476Y-78642857D01*
X59590476Y-78719047D01*
X59971428Y-78795238D01*
X58371428Y-78642857D02*
X58257142Y-78680952D01*
X58219047Y-78719047D01*
X58180952Y-78795238D01*
X58180952Y-78909523D01*
X58219047Y-78985714D01*
X58257142Y-79023809D01*
X58333333Y-79061904D01*
X58638095Y-79061904D01*
X58638095Y-78261904D01*
X58371428Y-78261904D01*
X58295238Y-78300000D01*
X58257142Y-78338095D01*
X58219047Y-78414285D01*
X58219047Y-78490476D01*
X58257142Y-78566666D01*
X58295238Y-78604761D01*
X58371428Y-78642857D01*
X58638095Y-78642857D01*
X57838095Y-79061904D02*
X57838095Y-78528571D01*
X57838095Y-78261904D02*
X57876190Y-78300000D01*
X57838095Y-78338095D01*
X57800000Y-78300000D01*
X57838095Y-78261904D01*
X57838095Y-78338095D01*
X57114285Y-78528571D02*
X57114285Y-79176190D01*
X57152380Y-79252380D01*
X57190476Y-79290476D01*
X57266666Y-79328571D01*
X57380952Y-79328571D01*
X57457142Y-79290476D01*
X57114285Y-79023809D02*
X57190476Y-79061904D01*
X57342857Y-79061904D01*
X57419047Y-79023809D01*
X57457142Y-78985714D01*
X57495238Y-78909523D01*
X57495238Y-78680952D01*
X57457142Y-78604761D01*
X57419047Y-78566666D01*
X57342857Y-78528571D01*
X57190476Y-78528571D01*
X57114285Y-78566666D01*
X56161904Y-79023809D02*
X56047619Y-79061904D01*
X55857142Y-79061904D01*
X55780952Y-79023809D01*
X55742857Y-78985714D01*
X55704761Y-78909523D01*
X55704761Y-78833333D01*
X55742857Y-78757142D01*
X55780952Y-78719047D01*
X55857142Y-78680952D01*
X56009523Y-78642857D01*
X56085714Y-78604761D01*
X56123809Y-78566666D01*
X56161904Y-78490476D01*
X56161904Y-78414285D01*
X56123809Y-78338095D01*
X56085714Y-78300000D01*
X56009523Y-78261904D01*
X55819047Y-78261904D01*
X55704761Y-78300000D01*
X55019047Y-79023809D02*
X55095238Y-79061904D01*
X55247619Y-79061904D01*
X55323809Y-79023809D01*
X55361904Y-78985714D01*
X55400000Y-78909523D01*
X55400000Y-78680952D01*
X55361904Y-78604761D01*
X55323809Y-78566666D01*
X55247619Y-78528571D01*
X55095238Y-78528571D01*
X55019047Y-78566666D01*
X54676190Y-79061904D02*
X54676190Y-78528571D01*
X54676190Y-78680952D02*
X54638095Y-78604761D01*
X54600000Y-78566666D01*
X54523809Y-78528571D01*
X54447619Y-78528571D01*
X54066666Y-79061904D02*
X54142857Y-79023809D01*
X54180952Y-78985714D01*
X54219047Y-78909523D01*
X54219047Y-78680952D01*
X54180952Y-78604761D01*
X54142857Y-78566666D01*
X54066666Y-78528571D01*
X53952380Y-78528571D01*
X53876190Y-78566666D01*
X53838095Y-78604761D01*
X53800000Y-78680952D01*
X53800000Y-78909523D01*
X53838095Y-78985714D01*
X53876190Y-79023809D01*
X53952380Y-79061904D01*
X54066666Y-79061904D01*
X53342857Y-79061904D02*
X53419047Y-79023809D01*
X53457142Y-78947619D01*
X53457142Y-78261904D01*
X52923809Y-79061904D02*
X53000000Y-79023809D01*
X53038095Y-78947619D01*
X53038095Y-78261904D01*
X51590476Y-79061904D02*
X52047619Y-79061904D01*
X51819047Y-79061904D02*
X51819047Y-78261904D01*
X51895238Y-78376190D01*
X51971428Y-78452380D01*
X52047619Y-78490476D01*
X50638095Y-78757142D02*
X50028571Y-78757142D01*
X49114285Y-78528571D02*
X48923809Y-79061904D01*
X48733333Y-78528571D01*
X48009523Y-79061904D02*
X48466666Y-79061904D01*
X48238095Y-79061904D02*
X48238095Y-78261904D01*
X48314285Y-78376190D01*
X48390476Y-78452380D01*
X48466666Y-78490476D01*
X47666666Y-78985714D02*
X47628571Y-79023809D01*
X47666666Y-79061904D01*
X47704761Y-79023809D01*
X47666666Y-78985714D01*
X47666666Y-79061904D01*
X47133333Y-78261904D02*
X47057142Y-78261904D01*
X46980952Y-78300000D01*
X46942857Y-78338095D01*
X46904761Y-78414285D01*
X46866666Y-78566666D01*
X46866666Y-78757142D01*
X46904761Y-78909523D01*
X46942857Y-78985714D01*
X46980952Y-79023809D01*
X47057142Y-79061904D01*
X47133333Y-79061904D01*
X47209523Y-79023809D01*
X47247619Y-78985714D01*
X47285714Y-78909523D01*
X47323809Y-78757142D01*
X47323809Y-78566666D01*
X47285714Y-78414285D01*
X47247619Y-78338095D01*
X47209523Y-78300000D01*
X47133333Y-78261904D01*
X45570126Y-56796190D02*
X45570126Y-56296190D01*
X45355840Y-56796190D02*
X45355840Y-56534285D01*
X45379650Y-56486666D01*
X45427269Y-56462857D01*
X45498697Y-56462857D01*
X45546316Y-56486666D01*
X45570126Y-56510476D01*
X45189174Y-56462857D02*
X44998697Y-56462857D01*
X45117745Y-56296190D02*
X45117745Y-56724761D01*
X45093935Y-56772380D01*
X45046316Y-56796190D01*
X44998697Y-56796190D01*
X44903459Y-56462857D02*
X44712983Y-56462857D01*
X44832031Y-56296190D02*
X44832031Y-56724761D01*
X44808221Y-56772380D01*
X44760602Y-56796190D01*
X44712983Y-56796190D01*
X44546316Y-56462857D02*
X44546316Y-56962857D01*
X44546316Y-56486666D02*
X44498697Y-56462857D01*
X44403459Y-56462857D01*
X44355840Y-56486666D01*
X44332031Y-56510476D01*
X44308221Y-56558095D01*
X44308221Y-56700952D01*
X44332031Y-56748571D01*
X44355840Y-56772380D01*
X44403459Y-56796190D01*
X44498697Y-56796190D01*
X44546316Y-56772380D01*
X44117745Y-56772380D02*
X44070126Y-56796190D01*
X43974888Y-56796190D01*
X43927269Y-56772380D01*
X43903459Y-56724761D01*
X43903459Y-56700952D01*
X43927269Y-56653333D01*
X43974888Y-56629523D01*
X44046316Y-56629523D01*
X44093935Y-56605714D01*
X44117745Y-56558095D01*
X44117745Y-56534285D01*
X44093935Y-56486666D01*
X44046316Y-56462857D01*
X43974888Y-56462857D01*
X43927269Y-56486666D01*
X43689174Y-56748571D02*
X43665364Y-56772380D01*
X43689174Y-56796190D01*
X43712983Y-56772380D01*
X43689174Y-56748571D01*
X43689174Y-56796190D01*
X43689174Y-56486666D02*
X43665364Y-56510476D01*
X43689174Y-56534285D01*
X43712983Y-56510476D01*
X43689174Y-56486666D01*
X43689174Y-56534285D01*
X43093935Y-56272380D02*
X43522507Y-56915238D01*
X42570126Y-56272380D02*
X42998697Y-56915238D01*
X42189174Y-56772380D02*
X42236793Y-56796190D01*
X42332031Y-56796190D01*
X42379650Y-56772380D01*
X42403459Y-56748571D01*
X42427269Y-56700952D01*
X42427269Y-56558095D01*
X42403459Y-56510476D01*
X42379650Y-56486666D01*
X42332031Y-56462857D01*
X42236793Y-56462857D01*
X42189174Y-56486666D01*
X41974888Y-56796190D02*
X41974888Y-56462857D01*
X41974888Y-56558095D02*
X41951078Y-56510476D01*
X41927269Y-56486666D01*
X41879650Y-56462857D01*
X41832031Y-56462857D01*
X41474888Y-56772380D02*
X41522507Y-56796190D01*
X41617745Y-56796190D01*
X41665364Y-56772380D01*
X41689174Y-56724761D01*
X41689174Y-56534285D01*
X41665364Y-56486666D01*
X41617745Y-56462857D01*
X41522507Y-56462857D01*
X41474888Y-56486666D01*
X41451078Y-56534285D01*
X41451078Y-56581904D01*
X41689174Y-56629523D01*
X41022507Y-56796190D02*
X41022507Y-56534285D01*
X41046316Y-56486666D01*
X41093935Y-56462857D01*
X41189174Y-56462857D01*
X41236793Y-56486666D01*
X41022507Y-56772380D02*
X41070126Y-56796190D01*
X41189174Y-56796190D01*
X41236793Y-56772380D01*
X41260602Y-56724761D01*
X41260602Y-56677142D01*
X41236793Y-56629523D01*
X41189174Y-56605714D01*
X41070126Y-56605714D01*
X41022507Y-56581904D01*
X40855840Y-56462857D02*
X40665364Y-56462857D01*
X40784412Y-56296190D02*
X40784412Y-56724761D01*
X40760602Y-56772380D01*
X40712983Y-56796190D01*
X40665364Y-56796190D01*
X40498697Y-56796190D02*
X40498697Y-56462857D01*
X40498697Y-56296190D02*
X40522507Y-56320000D01*
X40498697Y-56343809D01*
X40474888Y-56320000D01*
X40498697Y-56296190D01*
X40498697Y-56343809D01*
X40308221Y-56462857D02*
X40189174Y-56796190D01*
X40070126Y-56462857D01*
X39689174Y-56772380D02*
X39736793Y-56796190D01*
X39832031Y-56796190D01*
X39879650Y-56772380D01*
X39903459Y-56724761D01*
X39903459Y-56534285D01*
X39879650Y-56486666D01*
X39832031Y-56462857D01*
X39736793Y-56462857D01*
X39689174Y-56486666D01*
X39665364Y-56534285D01*
X39665364Y-56581904D01*
X39903459Y-56629523D01*
X39236793Y-56772380D02*
X39284412Y-56796190D01*
X39379650Y-56796190D01*
X39427269Y-56772380D01*
X39451078Y-56748571D01*
X39474888Y-56700952D01*
X39474888Y-56558095D01*
X39451078Y-56510476D01*
X39427269Y-56486666D01*
X39379650Y-56462857D01*
X39284412Y-56462857D01*
X39236793Y-56486666D01*
X38951078Y-56796190D02*
X38998697Y-56772380D01*
X39022507Y-56748571D01*
X39046316Y-56700952D01*
X39046316Y-56558095D01*
X39022507Y-56510476D01*
X38998697Y-56486666D01*
X38951078Y-56462857D01*
X38879650Y-56462857D01*
X38832031Y-56486666D01*
X38808221Y-56510476D01*
X38784412Y-56558095D01*
X38784412Y-56700952D01*
X38808221Y-56748571D01*
X38832031Y-56772380D01*
X38879650Y-56796190D01*
X38951078Y-56796190D01*
X38570126Y-56796190D02*
X38570126Y-56462857D01*
X38570126Y-56510476D02*
X38546316Y-56486666D01*
X38498697Y-56462857D01*
X38427269Y-56462857D01*
X38379650Y-56486666D01*
X38355840Y-56534285D01*
X38355840Y-56796190D01*
X38355840Y-56534285D02*
X38332031Y-56486666D01*
X38284412Y-56462857D01*
X38212983Y-56462857D01*
X38165364Y-56486666D01*
X38141555Y-56534285D01*
X38141555Y-56796190D01*
X37903459Y-56796190D02*
X37903459Y-56462857D01*
X37903459Y-56510476D02*
X37879650Y-56486666D01*
X37832031Y-56462857D01*
X37760602Y-56462857D01*
X37712983Y-56486666D01*
X37689174Y-56534285D01*
X37689174Y-56796190D01*
X37689174Y-56534285D02*
X37665364Y-56486666D01*
X37617745Y-56462857D01*
X37546316Y-56462857D01*
X37498697Y-56486666D01*
X37474888Y-56534285D01*
X37474888Y-56796190D01*
X37165364Y-56796190D02*
X37212983Y-56772380D01*
X37236793Y-56748571D01*
X37260602Y-56700952D01*
X37260602Y-56558095D01*
X37236793Y-56510476D01*
X37212983Y-56486666D01*
X37165364Y-56462857D01*
X37093935Y-56462857D01*
X37046316Y-56486666D01*
X37022507Y-56510476D01*
X36998697Y-56558095D01*
X36998697Y-56700952D01*
X37022507Y-56748571D01*
X37046316Y-56772380D01*
X37093935Y-56796190D01*
X37165364Y-56796190D01*
X36784412Y-56462857D02*
X36784412Y-56796190D01*
X36784412Y-56510476D02*
X36760602Y-56486666D01*
X36712983Y-56462857D01*
X36641555Y-56462857D01*
X36593935Y-56486666D01*
X36570126Y-56534285D01*
X36570126Y-56796190D01*
X36355840Y-56772380D02*
X36308221Y-56796190D01*
X36212983Y-56796190D01*
X36165364Y-56772380D01*
X36141555Y-56724761D01*
X36141555Y-56700952D01*
X36165364Y-56653333D01*
X36212983Y-56629523D01*
X36284412Y-56629523D01*
X36332031Y-56605714D01*
X36355840Y-56558095D01*
X36355840Y-56534285D01*
X36332031Y-56486666D01*
X36284412Y-56462857D01*
X36212983Y-56462857D01*
X36165364Y-56486666D01*
X35927269Y-56748571D02*
X35903459Y-56772380D01*
X35927269Y-56796190D01*
X35951078Y-56772380D01*
X35927269Y-56748571D01*
X35927269Y-56796190D01*
X35617745Y-56796190D02*
X35665364Y-56772380D01*
X35689174Y-56748571D01*
X35712983Y-56700952D01*
X35712983Y-56558095D01*
X35689174Y-56510476D01*
X35665364Y-56486666D01*
X35617745Y-56462857D01*
X35546316Y-56462857D01*
X35498697Y-56486666D01*
X35474888Y-56510476D01*
X35451078Y-56558095D01*
X35451078Y-56700952D01*
X35474888Y-56748571D01*
X35498697Y-56772380D01*
X35546316Y-56796190D01*
X35617745Y-56796190D01*
X35236793Y-56796190D02*
X35236793Y-56462857D01*
X35236793Y-56558095D02*
X35212983Y-56510476D01*
X35189174Y-56486666D01*
X35141555Y-56462857D01*
X35093935Y-56462857D01*
X34712983Y-56462857D02*
X34712983Y-56867619D01*
X34736793Y-56915238D01*
X34760602Y-56939047D01*
X34808221Y-56962857D01*
X34879650Y-56962857D01*
X34927269Y-56939047D01*
X34712983Y-56772380D02*
X34760602Y-56796190D01*
X34855840Y-56796190D01*
X34903459Y-56772380D01*
X34927269Y-56748571D01*
X34951078Y-56700952D01*
X34951078Y-56558095D01*
X34927269Y-56510476D01*
X34903459Y-56486666D01*
X34855840Y-56462857D01*
X34760602Y-56462857D01*
X34712983Y-56486666D01*
G36*
X72097999Y-57406000D02*
G01*
X71197999Y-56506000D01*
X72097999Y-56506000D01*
X72097999Y-57406000D01*
G37*
X72097999Y-57406000D02*
X71197999Y-56506000D01*
X72097999Y-56506000D01*
X72097999Y-57406000D01*
G36*
X59318000Y-77685999D02*
G01*
X58418000Y-77685999D01*
X59318000Y-76785999D01*
X59318000Y-77685999D01*
G37*
X59318000Y-77685999D02*
X58418000Y-77685999D01*
X59318000Y-76785999D01*
X59318000Y-77685999D01*
G36*
X39038001Y-64906000D02*
G01*
X38138001Y-64906000D01*
X38138001Y-64006000D01*
X39038001Y-64906000D01*
G37*
X39038001Y-64906000D02*
X38138001Y-64906000D01*
X38138001Y-64006000D01*
X39038001Y-64906000D01*
G36*
X66549088Y-66682230D02*
G01*
X66548668Y-66714075D01*
X66546826Y-66756707D01*
X66543866Y-66788590D01*
X66540169Y-66804516D01*
X66535180Y-66809110D01*
X66511433Y-66814995D01*
X66468893Y-66815099D01*
X66406375Y-66811875D01*
X66403382Y-66692813D01*
X66400390Y-66573750D01*
X66263500Y-66573750D01*
X66263338Y-66682230D01*
X66262918Y-66714075D01*
X66261076Y-66756707D01*
X66258116Y-66788590D01*
X66254419Y-66804516D01*
X66249430Y-66809110D01*
X66225683Y-66814995D01*
X66183143Y-66815099D01*
X66120625Y-66811875D01*
X66117632Y-66692813D01*
X66114640Y-66573750D01*
X65978443Y-66573750D01*
X65975451Y-66692813D01*
X65972458Y-66811875D01*
X65909940Y-66815099D01*
X65888387Y-66815752D01*
X65854498Y-66813080D01*
X65838664Y-66804516D01*
X65836134Y-66795919D01*
X65832887Y-66768769D01*
X65830630Y-66729137D01*
X65829745Y-66682230D01*
X65829583Y-66573750D01*
X65692693Y-66573750D01*
X65689701Y-66692813D01*
X65686708Y-66811875D01*
X65628821Y-66815155D01*
X65600310Y-66815837D01*
X65574698Y-66811737D01*
X65558224Y-66799184D01*
X65548909Y-66775009D01*
X65544772Y-66736041D01*
X65543833Y-66679112D01*
X65543833Y-66576852D01*
X65467104Y-66564341D01*
X65388685Y-66542869D01*
X65321990Y-66505310D01*
X65269985Y-66452666D01*
X65233282Y-66385561D01*
X65212494Y-66304620D01*
X65200951Y-66224500D01*
X65087168Y-66224500D01*
X65047359Y-66224266D01*
X65008711Y-66222901D01*
X64984343Y-66219790D01*
X64970293Y-66214346D01*
X64962598Y-66205980D01*
X64953832Y-66179828D01*
X64952708Y-66141335D01*
X64962122Y-66107388D01*
X64962522Y-66106653D01*
X64969607Y-66097823D01*
X64981795Y-66092081D01*
X65003101Y-66088781D01*
X65037538Y-66087275D01*
X65089122Y-66086917D01*
X65205166Y-66086917D01*
X65205166Y-65949334D01*
X65096687Y-65949172D01*
X65064865Y-65948747D01*
X65022173Y-65946877D01*
X64990203Y-65943871D01*
X64974177Y-65940114D01*
X64970388Y-65936765D01*
X64959959Y-65914707D01*
X64954256Y-65882828D01*
X64954256Y-65849691D01*
X64960933Y-65823859D01*
X64962788Y-65820561D01*
X64970263Y-65811649D01*
X64982544Y-65805977D01*
X65003722Y-65802822D01*
X65037885Y-65801460D01*
X65089122Y-65801167D01*
X65205166Y-65801167D01*
X65205166Y-65663584D01*
X65096687Y-65663422D01*
X65064821Y-65663007D01*
X65022244Y-65661190D01*
X64990440Y-65658272D01*
X64974604Y-65654628D01*
X64963597Y-65639864D01*
X64955773Y-65610420D01*
X64955139Y-65594106D01*
X65597767Y-65594106D01*
X65599461Y-65627693D01*
X65603759Y-65650355D01*
X65608812Y-65654885D01*
X65629131Y-65659869D01*
X65666475Y-65662693D01*
X65722882Y-65663584D01*
X65836666Y-65663584D01*
X65852898Y-65761480D01*
X65855156Y-65774228D01*
X65867318Y-65828227D01*
X65882451Y-65879772D01*
X65897909Y-65919572D01*
X65919906Y-65958150D01*
X65970540Y-66020046D01*
X66032499Y-66072154D01*
X66099726Y-66108792D01*
X66113013Y-66113944D01*
X66131868Y-66120306D01*
X66151974Y-66125240D01*
X66176176Y-66128974D01*
X66207319Y-66131736D01*
X66248247Y-66133757D01*
X66301806Y-66135265D01*
X66370842Y-66136490D01*
X66458198Y-66137659D01*
X66531936Y-66138597D01*
X66606042Y-66139320D01*
X66663034Y-66139121D01*
X66705158Y-66137537D01*
X66734657Y-66134104D01*
X66753777Y-66128360D01*
X66764760Y-66119840D01*
X66769852Y-66108081D01*
X66771297Y-66092619D01*
X66771338Y-66072992D01*
X66771393Y-66064958D01*
X66771211Y-66042398D01*
X66768668Y-66025012D01*
X66761413Y-66012127D01*
X66747095Y-66003071D01*
X66723364Y-65997171D01*
X66687869Y-65993754D01*
X66638260Y-65992146D01*
X66572187Y-65991675D01*
X66487298Y-65991667D01*
X66474852Y-65991662D01*
X66382559Y-65991161D01*
X66308298Y-65989559D01*
X66249280Y-65986459D01*
X66202716Y-65981467D01*
X66165817Y-65974187D01*
X66135794Y-65964224D01*
X66109859Y-65951183D01*
X66085221Y-65934668D01*
X66041698Y-65893071D01*
X66002410Y-65833087D01*
X65976507Y-65765375D01*
X65967166Y-65696351D01*
X65967166Y-65663584D01*
X66370029Y-65663584D01*
X66469285Y-65663531D01*
X66549657Y-65663316D01*
X66613210Y-65662833D01*
X66662007Y-65661976D01*
X66698113Y-65660641D01*
X66723593Y-65658723D01*
X66740512Y-65656116D01*
X66750934Y-65652715D01*
X66756923Y-65648416D01*
X66760544Y-65643113D01*
X66760840Y-65642546D01*
X66768379Y-65617311D01*
X66771500Y-65585770D01*
X66771634Y-65576089D01*
X66771906Y-65559951D01*
X66770555Y-65546947D01*
X66765627Y-65536741D01*
X66755167Y-65528995D01*
X66737221Y-65523374D01*
X66709836Y-65519541D01*
X66671056Y-65517159D01*
X66618927Y-65515892D01*
X66551496Y-65515404D01*
X66466808Y-65515358D01*
X66362909Y-65515417D01*
X65967166Y-65515417D01*
X65967166Y-65480296D01*
X65968153Y-65458117D01*
X65983341Y-65388405D01*
X66014572Y-65323123D01*
X66058871Y-65267440D01*
X66113264Y-65226523D01*
X66113929Y-65226162D01*
X66146044Y-65211279D01*
X66182965Y-65199548D01*
X66227413Y-65190647D01*
X66282108Y-65184258D01*
X66349772Y-65180060D01*
X66433125Y-65177734D01*
X66534888Y-65176960D01*
X66581230Y-65176938D01*
X66646894Y-65176692D01*
X66695441Y-65175506D01*
X66729444Y-65172589D01*
X66751475Y-65167154D01*
X66764107Y-65158412D01*
X66769913Y-65145572D01*
X66771466Y-65127847D01*
X66771338Y-65104447D01*
X66771336Y-65090744D01*
X66770473Y-65074381D01*
X66766561Y-65061819D01*
X66757335Y-65052594D01*
X66740530Y-65046242D01*
X66713883Y-65042299D01*
X66675127Y-65040299D01*
X66621999Y-65039778D01*
X66552234Y-65040271D01*
X66463567Y-65041315D01*
X66418662Y-65041861D01*
X66341323Y-65042982D01*
X66280886Y-65044303D01*
X66234487Y-65046049D01*
X66199262Y-65048448D01*
X66172350Y-65051726D01*
X66150886Y-65056110D01*
X66132008Y-65061828D01*
X66112852Y-65069105D01*
X66033058Y-65111268D01*
X65965268Y-65169863D01*
X65911960Y-65243785D01*
X65873252Y-65332864D01*
X65849266Y-65436933D01*
X65837593Y-65515417D01*
X65723596Y-65515417D01*
X65692152Y-65515563D01*
X65650368Y-65516758D01*
X65624044Y-65519584D01*
X65609529Y-65524548D01*
X65603174Y-65532158D01*
X65602391Y-65534505D01*
X65598727Y-65559681D01*
X65597767Y-65594106D01*
X64955139Y-65594106D01*
X64954430Y-65575843D01*
X64960632Y-65544521D01*
X64971809Y-65515417D01*
X65205166Y-65515417D01*
X65205166Y-65377834D01*
X64971809Y-65377834D01*
X64960632Y-65348730D01*
X64954841Y-65322392D01*
X64955147Y-65287768D01*
X64962089Y-65257049D01*
X64974604Y-65238623D01*
X64983155Y-65236127D01*
X65010232Y-65232926D01*
X65049808Y-65230702D01*
X65096687Y-65229829D01*
X65205166Y-65229667D01*
X65205166Y-65092084D01*
X65089122Y-65092084D01*
X65072247Y-65092066D01*
X65026388Y-65091537D01*
X64996417Y-65089729D01*
X64978243Y-65085918D01*
X64967778Y-65079380D01*
X64960933Y-65069392D01*
X64958241Y-65063122D01*
X64953610Y-65034278D01*
X64955372Y-65000623D01*
X64962553Y-64970722D01*
X64974177Y-64953137D01*
X64982367Y-64950647D01*
X65009223Y-64947310D01*
X65048600Y-64944989D01*
X65095230Y-64944079D01*
X65202252Y-64943917D01*
X65209306Y-64883900D01*
X65213168Y-64858167D01*
X65237161Y-64779808D01*
X65277314Y-64714659D01*
X65332535Y-64663812D01*
X65401733Y-64628358D01*
X65483816Y-64609390D01*
X65543833Y-64602336D01*
X65543995Y-64495314D01*
X65544396Y-64464870D01*
X65546255Y-64422282D01*
X65549272Y-64390323D01*
X65553053Y-64374261D01*
X65556402Y-64370472D01*
X65578460Y-64360043D01*
X65610339Y-64354340D01*
X65643476Y-64354340D01*
X65669308Y-64361017D01*
X65672606Y-64362872D01*
X65681518Y-64370347D01*
X65687190Y-64382628D01*
X65690345Y-64403806D01*
X65691707Y-64437969D01*
X65692000Y-64489206D01*
X65692000Y-64605250D01*
X65829583Y-64605250D01*
X65829583Y-64494881D01*
X65829861Y-64461924D01*
X65832530Y-64413622D01*
X65839309Y-64381576D01*
X65851751Y-64362614D01*
X65871406Y-64353563D01*
X65899827Y-64351250D01*
X65928244Y-64352168D01*
X65951126Y-64357429D01*
X65965620Y-64370404D01*
X65973624Y-64394453D01*
X65977035Y-64432933D01*
X65977750Y-64489206D01*
X65977750Y-64605250D01*
X66115333Y-64605250D01*
X66115333Y-64489206D01*
X66115796Y-64441597D01*
X66118604Y-64400135D01*
X66125571Y-64373721D01*
X66138495Y-64359003D01*
X66159177Y-64352630D01*
X66189416Y-64351251D01*
X66214983Y-64352112D01*
X66237248Y-64357342D01*
X66251433Y-64370315D01*
X66259337Y-64394383D01*
X66262759Y-64432896D01*
X66263500Y-64489206D01*
X66263500Y-64605250D01*
X66401083Y-64605250D01*
X66401083Y-64489206D01*
X66401601Y-64438896D01*
X66404573Y-64398385D01*
X66411902Y-64372724D01*
X66425486Y-64358555D01*
X66447221Y-64352517D01*
X66479006Y-64351250D01*
X66495124Y-64351819D01*
X66518747Y-64357276D01*
X66534419Y-64371138D01*
X66543693Y-64396579D01*
X66548119Y-64436769D01*
X66549250Y-64494881D01*
X66549250Y-64605250D01*
X66686833Y-64605250D01*
X66686833Y-64489206D01*
X66686851Y-64472331D01*
X66687380Y-64426472D01*
X66689188Y-64396501D01*
X66692999Y-64378327D01*
X66699537Y-64367862D01*
X66709525Y-64361017D01*
X66714039Y-64359066D01*
X66740413Y-64354505D01*
X66773430Y-64354651D01*
X66803903Y-64359011D01*
X66822645Y-64367090D01*
X66825159Y-64375747D01*
X66828355Y-64402042D01*
X66831190Y-64441130D01*
X66833254Y-64488337D01*
X66836801Y-64602548D01*
X66895918Y-64609496D01*
X66920322Y-64613113D01*
X66998530Y-64636729D01*
X67063430Y-64676495D01*
X67114064Y-64731447D01*
X67149472Y-64800624D01*
X67168694Y-64883063D01*
X67176105Y-64943917D01*
X67283365Y-64944079D01*
X67314057Y-64944479D01*
X67356602Y-64946312D01*
X67388476Y-64949281D01*
X67404432Y-64952998D01*
X67409026Y-64957987D01*
X67414911Y-64981734D01*
X67415015Y-65024274D01*
X67411791Y-65086792D01*
X67292729Y-65089785D01*
X67173666Y-65092777D01*
X67173666Y-65229667D01*
X67282146Y-65229829D01*
X67313991Y-65230249D01*
X67356623Y-65232091D01*
X67388506Y-65235051D01*
X67404432Y-65238748D01*
X67409026Y-65243737D01*
X67414911Y-65267484D01*
X67415015Y-65310024D01*
X67411791Y-65372542D01*
X67292729Y-65375535D01*
X67173666Y-65378527D01*
X67173666Y-65514724D01*
X67292729Y-65517716D01*
X67411791Y-65520709D01*
X67415015Y-65583227D01*
X67415668Y-65604780D01*
X67412996Y-65638669D01*
X67404432Y-65654503D01*
X67395835Y-65657033D01*
X67368685Y-65660280D01*
X67329053Y-65662537D01*
X67282146Y-65663422D01*
X67173666Y-65663584D01*
X67173667Y-65732029D01*
X67173667Y-65800474D01*
X67292729Y-65803466D01*
X67411791Y-65806459D01*
X67415015Y-65868977D01*
X67415668Y-65890530D01*
X67412996Y-65924419D01*
X67404432Y-65940253D01*
X67395835Y-65942783D01*
X67368685Y-65946030D01*
X67329053Y-65948287D01*
X67282146Y-65949172D01*
X67173666Y-65949334D01*
X67173667Y-66017779D01*
X67173667Y-66086224D01*
X67292729Y-66089216D01*
X67411791Y-66092209D01*
X67411791Y-66219209D01*
X67177787Y-66225155D01*
X67166292Y-66304947D01*
X67146367Y-66383511D01*
X67110086Y-66450985D01*
X67058462Y-66504046D01*
X66992131Y-66542048D01*
X66911729Y-66564341D01*
X66835000Y-66576852D01*
X66835000Y-66679112D01*
X66834437Y-66726334D01*
X66831087Y-66768593D01*
X66822950Y-66795436D01*
X66808046Y-66810030D01*
X66784393Y-66815547D01*
X66750012Y-66815155D01*
X66692125Y-66811875D01*
X66689132Y-66692813D01*
X66686140Y-66573750D01*
X66549250Y-66573750D01*
X66549088Y-66682230D01*
G37*
D12*
X66549088Y-66682230D02*
X66548668Y-66714075D01*
X66546826Y-66756707D01*
X66543866Y-66788590D01*
X66540169Y-66804516D01*
X66535180Y-66809110D01*
X66511433Y-66814995D01*
X66468893Y-66815099D01*
X66406375Y-66811875D01*
X66403382Y-66692813D01*
X66400390Y-66573750D01*
X66263500Y-66573750D01*
X66263338Y-66682230D01*
X66262918Y-66714075D01*
X66261076Y-66756707D01*
X66258116Y-66788590D01*
X66254419Y-66804516D01*
X66249430Y-66809110D01*
X66225683Y-66814995D01*
X66183143Y-66815099D01*
X66120625Y-66811875D01*
X66117632Y-66692813D01*
X66114640Y-66573750D01*
X65978443Y-66573750D01*
X65975451Y-66692813D01*
X65972458Y-66811875D01*
X65909940Y-66815099D01*
X65888387Y-66815752D01*
X65854498Y-66813080D01*
X65838664Y-66804516D01*
X65836134Y-66795919D01*
X65832887Y-66768769D01*
X65830630Y-66729137D01*
X65829745Y-66682230D01*
X65829583Y-66573750D01*
X65692693Y-66573750D01*
X65689701Y-66692813D01*
X65686708Y-66811875D01*
X65628821Y-66815155D01*
X65600310Y-66815837D01*
X65574698Y-66811737D01*
X65558224Y-66799184D01*
X65548909Y-66775009D01*
X65544772Y-66736041D01*
X65543833Y-66679112D01*
X65543833Y-66576852D01*
X65467104Y-66564341D01*
X65388685Y-66542869D01*
X65321990Y-66505310D01*
X65269985Y-66452666D01*
X65233282Y-66385561D01*
X65212494Y-66304620D01*
X65200951Y-66224500D01*
X65087168Y-66224500D01*
X65047359Y-66224266D01*
X65008711Y-66222901D01*
X64984343Y-66219790D01*
X64970293Y-66214346D01*
X64962598Y-66205980D01*
X64953832Y-66179828D01*
X64952708Y-66141335D01*
X64962122Y-66107388D01*
X64962522Y-66106653D01*
X64969607Y-66097823D01*
X64981795Y-66092081D01*
X65003101Y-66088781D01*
X65037538Y-66087275D01*
X65089122Y-66086917D01*
X65205166Y-66086917D01*
X65205166Y-65949334D01*
X65096687Y-65949172D01*
X65064865Y-65948747D01*
X65022173Y-65946877D01*
X64990203Y-65943871D01*
X64974177Y-65940114D01*
X64970388Y-65936765D01*
X64959959Y-65914707D01*
X64954256Y-65882828D01*
X64954256Y-65849691D01*
X64960933Y-65823859D01*
X64962788Y-65820561D01*
X64970263Y-65811649D01*
X64982544Y-65805977D01*
X65003722Y-65802822D01*
X65037885Y-65801460D01*
X65089122Y-65801167D01*
X65205166Y-65801167D01*
X65205166Y-65663584D01*
X65096687Y-65663422D01*
X65064821Y-65663007D01*
X65022244Y-65661190D01*
X64990440Y-65658272D01*
X64974604Y-65654628D01*
X64963597Y-65639864D01*
X64955773Y-65610420D01*
X64955139Y-65594106D01*
X65597767Y-65594106D01*
X65599461Y-65627693D01*
X65603759Y-65650355D01*
X65608812Y-65654885D01*
X65629131Y-65659869D01*
X65666475Y-65662693D01*
X65722882Y-65663584D01*
X65836666Y-65663584D01*
X65852898Y-65761480D01*
X65855156Y-65774228D01*
X65867318Y-65828227D01*
X65882451Y-65879772D01*
X65897909Y-65919572D01*
X65919906Y-65958150D01*
X65970540Y-66020046D01*
X66032499Y-66072154D01*
X66099726Y-66108792D01*
X66113013Y-66113944D01*
X66131868Y-66120306D01*
X66151974Y-66125240D01*
X66176176Y-66128974D01*
X66207319Y-66131736D01*
X66248247Y-66133757D01*
X66301806Y-66135265D01*
X66370842Y-66136490D01*
X66458198Y-66137659D01*
X66531936Y-66138597D01*
X66606042Y-66139320D01*
X66663034Y-66139121D01*
X66705158Y-66137537D01*
X66734657Y-66134104D01*
X66753777Y-66128360D01*
X66764760Y-66119840D01*
X66769852Y-66108081D01*
X66771297Y-66092619D01*
X66771338Y-66072992D01*
X66771393Y-66064958D01*
X66771211Y-66042398D01*
X66768668Y-66025012D01*
X66761413Y-66012127D01*
X66747095Y-66003071D01*
X66723364Y-65997171D01*
X66687869Y-65993754D01*
X66638260Y-65992146D01*
X66572187Y-65991675D01*
X66487298Y-65991667D01*
X66474852Y-65991662D01*
X66382559Y-65991161D01*
X66308298Y-65989559D01*
X66249280Y-65986459D01*
X66202716Y-65981467D01*
X66165817Y-65974187D01*
X66135794Y-65964224D01*
X66109859Y-65951183D01*
X66085221Y-65934668D01*
X66041698Y-65893071D01*
X66002410Y-65833087D01*
X65976507Y-65765375D01*
X65967166Y-65696351D01*
X65967166Y-65663584D01*
X66370029Y-65663584D01*
X66469285Y-65663531D01*
X66549657Y-65663316D01*
X66613210Y-65662833D01*
X66662007Y-65661976D01*
X66698113Y-65660641D01*
X66723593Y-65658723D01*
X66740512Y-65656116D01*
X66750934Y-65652715D01*
X66756923Y-65648416D01*
X66760544Y-65643113D01*
X66760840Y-65642546D01*
X66768379Y-65617311D01*
X66771500Y-65585770D01*
X66771634Y-65576089D01*
X66771906Y-65559951D01*
X66770555Y-65546947D01*
X66765627Y-65536741D01*
X66755167Y-65528995D01*
X66737221Y-65523374D01*
X66709836Y-65519541D01*
X66671056Y-65517159D01*
X66618927Y-65515892D01*
X66551496Y-65515404D01*
X66466808Y-65515358D01*
X66362909Y-65515417D01*
X65967166Y-65515417D01*
X65967166Y-65480296D01*
X65968153Y-65458117D01*
X65983341Y-65388405D01*
X66014572Y-65323123D01*
X66058871Y-65267440D01*
X66113264Y-65226523D01*
X66113929Y-65226162D01*
X66146044Y-65211279D01*
X66182965Y-65199548D01*
X66227413Y-65190647D01*
X66282108Y-65184258D01*
X66349772Y-65180060D01*
X66433125Y-65177734D01*
X66534888Y-65176960D01*
X66581230Y-65176938D01*
X66646894Y-65176692D01*
X66695441Y-65175506D01*
X66729444Y-65172589D01*
X66751475Y-65167154D01*
X66764107Y-65158412D01*
X66769913Y-65145572D01*
X66771466Y-65127847D01*
X66771338Y-65104447D01*
X66771336Y-65090744D01*
X66770473Y-65074381D01*
X66766561Y-65061819D01*
X66757335Y-65052594D01*
X66740530Y-65046242D01*
X66713883Y-65042299D01*
X66675127Y-65040299D01*
X66621999Y-65039778D01*
X66552234Y-65040271D01*
X66463567Y-65041315D01*
X66418662Y-65041861D01*
X66341323Y-65042982D01*
X66280886Y-65044303D01*
X66234487Y-65046049D01*
X66199262Y-65048448D01*
X66172350Y-65051726D01*
X66150886Y-65056110D01*
X66132008Y-65061828D01*
X66112852Y-65069105D01*
X66033058Y-65111268D01*
X65965268Y-65169863D01*
X65911960Y-65243785D01*
X65873252Y-65332864D01*
X65849266Y-65436933D01*
X65837593Y-65515417D01*
X65723596Y-65515417D01*
X65692152Y-65515563D01*
X65650368Y-65516758D01*
X65624044Y-65519584D01*
X65609529Y-65524548D01*
X65603174Y-65532158D01*
X65602391Y-65534505D01*
X65598727Y-65559681D01*
X65597767Y-65594106D01*
X64955139Y-65594106D01*
X64954430Y-65575843D01*
X64960632Y-65544521D01*
X64971809Y-65515417D01*
X65205166Y-65515417D01*
X65205166Y-65377834D01*
X64971809Y-65377834D01*
X64960632Y-65348730D01*
X64954841Y-65322392D01*
X64955147Y-65287768D01*
X64962089Y-65257049D01*
X64974604Y-65238623D01*
X64983155Y-65236127D01*
X65010232Y-65232926D01*
X65049808Y-65230702D01*
X65096687Y-65229829D01*
X65205166Y-65229667D01*
X65205166Y-65092084D01*
X65089122Y-65092084D01*
X65072247Y-65092066D01*
X65026388Y-65091537D01*
X64996417Y-65089729D01*
X64978243Y-65085918D01*
X64967778Y-65079380D01*
X64960933Y-65069392D01*
X64958241Y-65063122D01*
X64953610Y-65034278D01*
X64955372Y-65000623D01*
X64962553Y-64970722D01*
X64974177Y-64953137D01*
X64982367Y-64950647D01*
X65009223Y-64947310D01*
X65048600Y-64944989D01*
X65095230Y-64944079D01*
X65202252Y-64943917D01*
X65209306Y-64883900D01*
X65213168Y-64858167D01*
X65237161Y-64779808D01*
X65277314Y-64714659D01*
X65332535Y-64663812D01*
X65401733Y-64628358D01*
X65483816Y-64609390D01*
X65543833Y-64602336D01*
X65543995Y-64495314D01*
X65544396Y-64464870D01*
X65546255Y-64422282D01*
X65549272Y-64390323D01*
X65553053Y-64374261D01*
X65556402Y-64370472D01*
X65578460Y-64360043D01*
X65610339Y-64354340D01*
X65643476Y-64354340D01*
X65669308Y-64361017D01*
X65672606Y-64362872D01*
X65681518Y-64370347D01*
X65687190Y-64382628D01*
X65690345Y-64403806D01*
X65691707Y-64437969D01*
X65692000Y-64489206D01*
X65692000Y-64605250D01*
X65829583Y-64605250D01*
X65829583Y-64494881D01*
X65829861Y-64461924D01*
X65832530Y-64413622D01*
X65839309Y-64381576D01*
X65851751Y-64362614D01*
X65871406Y-64353563D01*
X65899827Y-64351250D01*
X65928244Y-64352168D01*
X65951126Y-64357429D01*
X65965620Y-64370404D01*
X65973624Y-64394453D01*
X65977035Y-64432933D01*
X65977750Y-64489206D01*
X65977750Y-64605250D01*
X66115333Y-64605250D01*
X66115333Y-64489206D01*
X66115796Y-64441597D01*
X66118604Y-64400135D01*
X66125571Y-64373721D01*
X66138495Y-64359003D01*
X66159177Y-64352630D01*
X66189416Y-64351251D01*
X66214983Y-64352112D01*
X66237248Y-64357342D01*
X66251433Y-64370315D01*
X66259337Y-64394383D01*
X66262759Y-64432896D01*
X66263500Y-64489206D01*
X66263500Y-64605250D01*
X66401083Y-64605250D01*
X66401083Y-64489206D01*
X66401601Y-64438896D01*
X66404573Y-64398385D01*
X66411902Y-64372724D01*
X66425486Y-64358555D01*
X66447221Y-64352517D01*
X66479006Y-64351250D01*
X66495124Y-64351819D01*
X66518747Y-64357276D01*
X66534419Y-64371138D01*
X66543693Y-64396579D01*
X66548119Y-64436769D01*
X66549250Y-64494881D01*
X66549250Y-64605250D01*
X66686833Y-64605250D01*
X66686833Y-64489206D01*
X66686851Y-64472331D01*
X66687380Y-64426472D01*
X66689188Y-64396501D01*
X66692999Y-64378327D01*
X66699537Y-64367862D01*
X66709525Y-64361017D01*
X66714039Y-64359066D01*
X66740413Y-64354505D01*
X66773430Y-64354651D01*
X66803903Y-64359011D01*
X66822645Y-64367090D01*
X66825159Y-64375747D01*
X66828355Y-64402042D01*
X66831190Y-64441130D01*
X66833254Y-64488337D01*
X66836801Y-64602548D01*
X66895918Y-64609496D01*
X66920322Y-64613113D01*
X66998530Y-64636729D01*
X67063430Y-64676495D01*
X67114064Y-64731447D01*
X67149472Y-64800624D01*
X67168694Y-64883063D01*
X67176105Y-64943917D01*
X67283365Y-64944079D01*
X67314057Y-64944479D01*
X67356602Y-64946312D01*
X67388476Y-64949281D01*
X67404432Y-64952998D01*
X67409026Y-64957987D01*
X67414911Y-64981734D01*
X67415015Y-65024274D01*
X67411791Y-65086792D01*
X67292729Y-65089785D01*
X67173666Y-65092777D01*
X67173666Y-65229667D01*
X67282146Y-65229829D01*
X67313991Y-65230249D01*
X67356623Y-65232091D01*
X67388506Y-65235051D01*
X67404432Y-65238748D01*
X67409026Y-65243737D01*
X67414911Y-65267484D01*
X67415015Y-65310024D01*
X67411791Y-65372542D01*
X67292729Y-65375535D01*
X67173666Y-65378527D01*
X67173666Y-65514724D01*
X67292729Y-65517716D01*
X67411791Y-65520709D01*
X67415015Y-65583227D01*
X67415668Y-65604780D01*
X67412996Y-65638669D01*
X67404432Y-65654503D01*
X67395835Y-65657033D01*
X67368685Y-65660280D01*
X67329053Y-65662537D01*
X67282146Y-65663422D01*
X67173666Y-65663584D01*
X67173667Y-65732029D01*
X67173667Y-65800474D01*
X67292729Y-65803466D01*
X67411791Y-65806459D01*
X67415015Y-65868977D01*
X67415668Y-65890530D01*
X67412996Y-65924419D01*
X67404432Y-65940253D01*
X67395835Y-65942783D01*
X67368685Y-65946030D01*
X67329053Y-65948287D01*
X67282146Y-65949172D01*
X67173666Y-65949334D01*
X67173667Y-66017779D01*
X67173667Y-66086224D01*
X67292729Y-66089216D01*
X67411791Y-66092209D01*
X67411791Y-66219209D01*
X67177787Y-66225155D01*
X67166292Y-66304947D01*
X67146367Y-66383511D01*
X67110086Y-66450985D01*
X67058462Y-66504046D01*
X66992131Y-66542048D01*
X66911729Y-66564341D01*
X66835000Y-66576852D01*
X66835000Y-66679112D01*
X66834437Y-66726334D01*
X66831087Y-66768593D01*
X66822950Y-66795436D01*
X66808046Y-66810030D01*
X66784393Y-66815547D01*
X66750012Y-66815155D01*
X66692125Y-66811875D01*
X66689132Y-66692813D01*
X66686140Y-66573750D01*
X66549250Y-66573750D01*
X66549088Y-66682230D01*
G36*
X65670833Y-63810972D02*
G01*
X65624520Y-63809881D01*
X65513078Y-63797454D01*
X65417613Y-63771165D01*
X65338096Y-63730997D01*
X65274496Y-63676933D01*
X65226784Y-63608955D01*
X65194932Y-63527044D01*
X65188601Y-63496681D01*
X65182615Y-63430884D01*
X65183282Y-63376281D01*
X65304641Y-63376281D01*
X65305344Y-63430387D01*
X65312421Y-63475075D01*
X65329163Y-63513770D01*
X65365354Y-63561854D01*
X65413198Y-63603189D01*
X65467447Y-63632445D01*
X65488020Y-63639314D01*
X65549472Y-63652473D01*
X65621322Y-63660351D01*
X65696336Y-63662616D01*
X65767277Y-63658935D01*
X65826909Y-63648975D01*
X65883382Y-63630379D01*
X65952633Y-63592079D01*
X66005718Y-63541086D01*
X66041781Y-63478079D01*
X66049573Y-63445802D01*
X66053474Y-63398026D01*
X66052610Y-63345556D01*
X66047153Y-63296708D01*
X66037274Y-63259799D01*
X66007626Y-63207590D01*
X65960724Y-63160517D01*
X65898907Y-63126245D01*
X65821153Y-63104228D01*
X65726438Y-63093919D01*
X65672283Y-63092839D01*
X65571546Y-63099908D01*
X65487125Y-63119769D01*
X65418488Y-63152640D01*
X65365103Y-63198742D01*
X65326437Y-63258293D01*
X65320105Y-63274658D01*
X65309749Y-63321467D01*
X65304641Y-63376281D01*
X65183282Y-63376281D01*
X65183496Y-63358801D01*
X65190953Y-63289188D01*
X65204700Y-63230802D01*
X65226912Y-63164866D01*
X65180323Y-63104538D01*
X65130380Y-63034528D01*
X65088395Y-62962059D01*
X65062477Y-62898307D01*
X65060554Y-62891704D01*
X65053273Y-62857055D01*
X65057934Y-62837507D01*
X65077202Y-62829479D01*
X65113740Y-62829389D01*
X65139657Y-62831417D01*
X65161723Y-62837417D01*
X65176800Y-62851935D01*
X65192997Y-62880167D01*
X65210243Y-62910816D01*
X65235368Y-62952467D01*
X65261349Y-62993194D01*
X65304531Y-63058596D01*
X65333711Y-63037817D01*
X65339298Y-63033917D01*
X65418285Y-62991790D01*
X65512040Y-62962791D01*
X65618499Y-62947390D01*
X65735600Y-62946059D01*
X65758185Y-62947414D01*
X65865029Y-62962511D01*
X65955860Y-62991307D01*
X66030926Y-63033979D01*
X66090475Y-63090699D01*
X66134753Y-63161641D01*
X66164010Y-63246981D01*
X66173616Y-63306360D01*
X66175865Y-63391092D01*
X66166826Y-63475297D01*
X66147005Y-63549987D01*
X66143578Y-63558804D01*
X66102382Y-63633626D01*
X66044722Y-63696112D01*
X65971669Y-63745675D01*
X65884290Y-63781730D01*
X65783655Y-63803691D01*
X65696336Y-63809327D01*
X65670833Y-63810972D01*
G37*
X65670833Y-63810972D02*
X65624520Y-63809881D01*
X65513078Y-63797454D01*
X65417613Y-63771165D01*
X65338096Y-63730997D01*
X65274496Y-63676933D01*
X65226784Y-63608955D01*
X65194932Y-63527044D01*
X65188601Y-63496681D01*
X65182615Y-63430884D01*
X65183282Y-63376281D01*
X65304641Y-63376281D01*
X65305344Y-63430387D01*
X65312421Y-63475075D01*
X65329163Y-63513770D01*
X65365354Y-63561854D01*
X65413198Y-63603189D01*
X65467447Y-63632445D01*
X65488020Y-63639314D01*
X65549472Y-63652473D01*
X65621322Y-63660351D01*
X65696336Y-63662616D01*
X65767277Y-63658935D01*
X65826909Y-63648975D01*
X65883382Y-63630379D01*
X65952633Y-63592079D01*
X66005718Y-63541086D01*
X66041781Y-63478079D01*
X66049573Y-63445802D01*
X66053474Y-63398026D01*
X66052610Y-63345556D01*
X66047153Y-63296708D01*
X66037274Y-63259799D01*
X66007626Y-63207590D01*
X65960724Y-63160517D01*
X65898907Y-63126245D01*
X65821153Y-63104228D01*
X65726438Y-63093919D01*
X65672283Y-63092839D01*
X65571546Y-63099908D01*
X65487125Y-63119769D01*
X65418488Y-63152640D01*
X65365103Y-63198742D01*
X65326437Y-63258293D01*
X65320105Y-63274658D01*
X65309749Y-63321467D01*
X65304641Y-63376281D01*
X65183282Y-63376281D01*
X65183496Y-63358801D01*
X65190953Y-63289188D01*
X65204700Y-63230802D01*
X65226912Y-63164866D01*
X65180323Y-63104538D01*
X65130380Y-63034528D01*
X65088395Y-62962059D01*
X65062477Y-62898307D01*
X65060554Y-62891704D01*
X65053273Y-62857055D01*
X65057934Y-62837507D01*
X65077202Y-62829479D01*
X65113740Y-62829389D01*
X65139657Y-62831417D01*
X65161723Y-62837417D01*
X65176800Y-62851935D01*
X65192997Y-62880167D01*
X65210243Y-62910816D01*
X65235368Y-62952467D01*
X65261349Y-62993194D01*
X65304531Y-63058596D01*
X65333711Y-63037817D01*
X65339298Y-63033917D01*
X65418285Y-62991790D01*
X65512040Y-62962791D01*
X65618499Y-62947390D01*
X65735600Y-62946059D01*
X65758185Y-62947414D01*
X65865029Y-62962511D01*
X65955860Y-62991307D01*
X66030926Y-63033979D01*
X66090475Y-63090699D01*
X66134753Y-63161641D01*
X66164010Y-63246981D01*
X66173616Y-63306360D01*
X66175865Y-63391092D01*
X66166826Y-63475297D01*
X66147005Y-63549987D01*
X66143578Y-63558804D01*
X66102382Y-63633626D01*
X66044722Y-63696112D01*
X65971669Y-63745675D01*
X65884290Y-63781730D01*
X65783655Y-63803691D01*
X65696336Y-63809327D01*
X65670833Y-63810972D01*
G36*
X65291599Y-56477651D02*
G01*
X65244158Y-56447768D01*
X65226849Y-56428679D01*
X65200143Y-56378123D01*
X65184942Y-56313618D01*
X65183453Y-56300319D01*
X65184100Y-56246249D01*
X65289873Y-56246249D01*
X65291610Y-56276038D01*
X65300977Y-56302591D01*
X65322397Y-56328270D01*
X65345251Y-56346488D01*
X65385525Y-56360740D01*
X65425692Y-56355939D01*
X65462015Y-56332882D01*
X65490760Y-56292365D01*
X65491881Y-56290013D01*
X65503863Y-56256515D01*
X65510218Y-56216069D01*
X65512083Y-56161701D01*
X65512083Y-56075084D01*
X65445136Y-56075084D01*
X65421076Y-56075586D01*
X65387267Y-56080543D01*
X65361645Y-56093802D01*
X65338507Y-56118994D01*
X65312151Y-56159750D01*
X65298006Y-56191998D01*
X65289873Y-56246249D01*
X65184100Y-56246249D01*
X65184418Y-56219617D01*
X65203939Y-56148871D01*
X65242108Y-56087716D01*
X65270548Y-56053917D01*
X65233407Y-56053917D01*
X65212503Y-56052671D01*
X65197243Y-56044457D01*
X65189695Y-56024006D01*
X65188086Y-55997716D01*
X65194176Y-55965030D01*
X65205226Y-55935965D01*
X65488301Y-55939379D01*
X65543849Y-55940101D01*
X65618960Y-55941380D01*
X65677126Y-55942945D01*
X65720967Y-55944977D01*
X65753100Y-55947657D01*
X65776144Y-55951168D01*
X65792715Y-55955692D01*
X65805432Y-55961410D01*
X65819879Y-55969993D01*
X65869251Y-56013880D01*
X65902979Y-56071404D01*
X65920853Y-56141845D01*
X65922668Y-56224483D01*
X65908215Y-56318595D01*
X65894731Y-56368151D01*
X65872425Y-56419226D01*
X65844915Y-56451210D01*
X65811204Y-56465140D01*
X65770298Y-56462051D01*
X65757136Y-56457470D01*
X65747881Y-56447665D01*
X65747981Y-56430201D01*
X65757678Y-56401427D01*
X65777214Y-56357692D01*
X65795178Y-56314767D01*
X65806485Y-56270642D01*
X65809827Y-56222601D01*
X65808483Y-56192325D01*
X65795597Y-56140311D01*
X65768584Y-56103879D01*
X65726844Y-56082399D01*
X65669778Y-56075240D01*
X65621098Y-56075084D01*
X65614309Y-56178682D01*
X65611994Y-56209007D01*
X65600919Y-56292200D01*
X65583258Y-56358156D01*
X65557877Y-56409386D01*
X65523643Y-56448402D01*
X65479423Y-56477715D01*
X65466063Y-56483743D01*
X65409619Y-56496538D01*
X65385525Y-56495609D01*
X65349108Y-56494207D01*
X65291599Y-56477651D01*
G37*
X65291599Y-56477651D02*
X65244158Y-56447768D01*
X65226849Y-56428679D01*
X65200143Y-56378123D01*
X65184942Y-56313618D01*
X65183453Y-56300319D01*
X65184100Y-56246249D01*
X65289873Y-56246249D01*
X65291610Y-56276038D01*
X65300977Y-56302591D01*
X65322397Y-56328270D01*
X65345251Y-56346488D01*
X65385525Y-56360740D01*
X65425692Y-56355939D01*
X65462015Y-56332882D01*
X65490760Y-56292365D01*
X65491881Y-56290013D01*
X65503863Y-56256515D01*
X65510218Y-56216069D01*
X65512083Y-56161701D01*
X65512083Y-56075084D01*
X65445136Y-56075084D01*
X65421076Y-56075586D01*
X65387267Y-56080543D01*
X65361645Y-56093802D01*
X65338507Y-56118994D01*
X65312151Y-56159750D01*
X65298006Y-56191998D01*
X65289873Y-56246249D01*
X65184100Y-56246249D01*
X65184418Y-56219617D01*
X65203939Y-56148871D01*
X65242108Y-56087716D01*
X65270548Y-56053917D01*
X65233407Y-56053917D01*
X65212503Y-56052671D01*
X65197243Y-56044457D01*
X65189695Y-56024006D01*
X65188086Y-55997716D01*
X65194176Y-55965030D01*
X65205226Y-55935965D01*
X65488301Y-55939379D01*
X65543849Y-55940101D01*
X65618960Y-55941380D01*
X65677126Y-55942945D01*
X65720967Y-55944977D01*
X65753100Y-55947657D01*
X65776144Y-55951168D01*
X65792715Y-55955692D01*
X65805432Y-55961410D01*
X65819879Y-55969993D01*
X65869251Y-56013880D01*
X65902979Y-56071404D01*
X65920853Y-56141845D01*
X65922668Y-56224483D01*
X65908215Y-56318595D01*
X65894731Y-56368151D01*
X65872425Y-56419226D01*
X65844915Y-56451210D01*
X65811204Y-56465140D01*
X65770298Y-56462051D01*
X65757136Y-56457470D01*
X65747881Y-56447665D01*
X65747981Y-56430201D01*
X65757678Y-56401427D01*
X65777214Y-56357692D01*
X65795178Y-56314767D01*
X65806485Y-56270642D01*
X65809827Y-56222601D01*
X65808483Y-56192325D01*
X65795597Y-56140311D01*
X65768584Y-56103879D01*
X65726844Y-56082399D01*
X65669778Y-56075240D01*
X65621098Y-56075084D01*
X65614309Y-56178682D01*
X65611994Y-56209007D01*
X65600919Y-56292200D01*
X65583258Y-56358156D01*
X65557877Y-56409386D01*
X65523643Y-56448402D01*
X65479423Y-56477715D01*
X65466063Y-56483743D01*
X65409619Y-56496538D01*
X65385525Y-56495609D01*
X65349108Y-56494207D01*
X65291599Y-56477651D01*
G36*
X65599638Y-55254064D02*
G01*
X65533228Y-55257315D01*
X65464041Y-55250873D01*
X65426780Y-55244125D01*
X65346508Y-55218686D01*
X65282825Y-55180387D01*
X65235196Y-55128711D01*
X65203082Y-55063141D01*
X65185950Y-54983163D01*
X65184153Y-54964002D01*
X65182649Y-54900158D01*
X65187075Y-54836505D01*
X65196613Y-54777221D01*
X65210446Y-54726486D01*
X65227756Y-54688480D01*
X65247726Y-54667380D01*
X65278146Y-54658094D01*
X65309065Y-54659371D01*
X65330693Y-54671017D01*
X65335415Y-54684647D01*
X65331928Y-54708963D01*
X65319191Y-54747746D01*
X65307834Y-54783784D01*
X65298568Y-54836652D01*
X65295556Y-54901109D01*
X65295530Y-54915047D01*
X65296578Y-54957212D01*
X65300414Y-54986312D01*
X65308322Y-55008745D01*
X65321583Y-55030912D01*
X65358756Y-55069308D01*
X65412578Y-55099426D01*
X65477687Y-55117318D01*
X65522666Y-55124444D01*
X65522666Y-55122055D01*
X65617916Y-55122055D01*
X65652312Y-55115746D01*
X65705918Y-55098648D01*
X65755592Y-55066023D01*
X65792125Y-55022265D01*
X65812854Y-54970664D01*
X65815117Y-54914512D01*
X65800363Y-54861533D01*
X65769489Y-54817985D01*
X65722175Y-54786975D01*
X65657604Y-54767741D01*
X65617916Y-54760395D01*
X65617916Y-55122055D01*
X65522666Y-55122055D01*
X65522666Y-54892797D01*
X65522690Y-54870407D01*
X65523298Y-54790584D01*
X65524790Y-54730009D01*
X65527245Y-54687151D01*
X65530744Y-54660475D01*
X65535366Y-54648450D01*
X65538847Y-54645846D01*
X65563118Y-54638866D01*
X65600700Y-54636199D01*
X65645767Y-54637717D01*
X65692495Y-54643292D01*
X65735058Y-54652799D01*
X65758342Y-54660953D01*
X65818895Y-54696212D01*
X65867049Y-54746456D01*
X65901218Y-54809060D01*
X65919816Y-54881400D01*
X65921255Y-54960850D01*
X65913585Y-55011317D01*
X65887917Y-55086212D01*
X65846206Y-55147461D01*
X65788290Y-55195225D01*
X65714001Y-55229664D01*
X65623177Y-55250939D01*
X65617916Y-55251638D01*
X65599638Y-55254064D01*
G37*
X65599638Y-55254064D02*
X65533228Y-55257315D01*
X65464041Y-55250873D01*
X65426780Y-55244125D01*
X65346508Y-55218686D01*
X65282825Y-55180387D01*
X65235196Y-55128711D01*
X65203082Y-55063141D01*
X65185950Y-54983163D01*
X65184153Y-54964002D01*
X65182649Y-54900158D01*
X65187075Y-54836505D01*
X65196613Y-54777221D01*
X65210446Y-54726486D01*
X65227756Y-54688480D01*
X65247726Y-54667380D01*
X65278146Y-54658094D01*
X65309065Y-54659371D01*
X65330693Y-54671017D01*
X65335415Y-54684647D01*
X65331928Y-54708963D01*
X65319191Y-54747746D01*
X65307834Y-54783784D01*
X65298568Y-54836652D01*
X65295556Y-54901109D01*
X65295530Y-54915047D01*
X65296578Y-54957212D01*
X65300414Y-54986312D01*
X65308322Y-55008745D01*
X65321583Y-55030912D01*
X65358756Y-55069308D01*
X65412578Y-55099426D01*
X65477687Y-55117318D01*
X65522666Y-55124444D01*
X65522666Y-55122055D01*
X65617916Y-55122055D01*
X65652312Y-55115746D01*
X65705918Y-55098648D01*
X65755592Y-55066023D01*
X65792125Y-55022265D01*
X65812854Y-54970664D01*
X65815117Y-54914512D01*
X65800363Y-54861533D01*
X65769489Y-54817985D01*
X65722175Y-54786975D01*
X65657604Y-54767741D01*
X65617916Y-54760395D01*
X65617916Y-55122055D01*
X65522666Y-55122055D01*
X65522666Y-54892797D01*
X65522690Y-54870407D01*
X65523298Y-54790584D01*
X65524790Y-54730009D01*
X65527245Y-54687151D01*
X65530744Y-54660475D01*
X65535366Y-54648450D01*
X65538847Y-54645846D01*
X65563118Y-54638866D01*
X65600700Y-54636199D01*
X65645767Y-54637717D01*
X65692495Y-54643292D01*
X65735058Y-54652799D01*
X65758342Y-54660953D01*
X65818895Y-54696212D01*
X65867049Y-54746456D01*
X65901218Y-54809060D01*
X65919816Y-54881400D01*
X65921255Y-54960850D01*
X65913585Y-55011317D01*
X65887917Y-55086212D01*
X65846206Y-55147461D01*
X65788290Y-55195225D01*
X65714001Y-55229664D01*
X65623177Y-55250939D01*
X65617916Y-55251638D01*
X65599638Y-55254064D01*
G36*
X65955340Y-61679118D02*
G01*
X66020242Y-61680259D01*
X66070765Y-61682609D01*
X66108648Y-61686567D01*
X66135631Y-61692532D01*
X66153454Y-61700905D01*
X66163857Y-61712083D01*
X66168579Y-61726466D01*
X66169362Y-61744455D01*
X66167943Y-61766446D01*
X66166064Y-61792841D01*
X66164613Y-61814982D01*
X66159854Y-61848905D01*
X66151055Y-61871585D01*
X66136148Y-61889722D01*
X66131807Y-61893048D01*
X66108016Y-61906424D01*
X66067540Y-61926178D01*
X66012537Y-61951335D01*
X65945166Y-61980923D01*
X65867587Y-62013967D01*
X65781958Y-62049493D01*
X65728588Y-62071399D01*
X65652624Y-62102705D01*
X65583765Y-62131233D01*
X65524509Y-62155940D01*
X65477355Y-62175782D01*
X65444803Y-62189716D01*
X65429350Y-62196698D01*
X65428770Y-62197007D01*
X65423960Y-62201082D01*
X65424776Y-62206186D01*
X65432981Y-62213145D01*
X65450343Y-62222781D01*
X65478625Y-62235919D01*
X65519594Y-62253383D01*
X65575013Y-62275997D01*
X65646649Y-62304584D01*
X65736267Y-62339970D01*
X65790611Y-62361363D01*
X65881226Y-62397087D01*
X65954938Y-62426400D01*
X66013571Y-62450229D01*
X66058945Y-62469502D01*
X66092882Y-62485145D01*
X66117205Y-62498084D01*
X66133735Y-62509246D01*
X66144293Y-62519557D01*
X66150702Y-62529945D01*
X66154784Y-62541335D01*
X66158359Y-62554655D01*
X66164707Y-62591240D01*
X66166394Y-62633313D01*
X66163554Y-62673373D01*
X66156646Y-62705114D01*
X66146132Y-62722229D01*
X66138911Y-62723614D01*
X66112088Y-62725501D01*
X66067868Y-62727224D01*
X66008474Y-62728739D01*
X65936131Y-62730003D01*
X65853060Y-62730970D01*
X65761486Y-62731597D01*
X65663632Y-62731838D01*
X65196055Y-62732000D01*
X65191469Y-62708188D01*
X65186651Y-62677593D01*
X65186796Y-62648758D01*
X65194273Y-62621691D01*
X65204547Y-62594669D01*
X65606104Y-62591897D01*
X66007662Y-62589125D01*
X65613526Y-62437417D01*
X65586317Y-62426936D01*
X65501131Y-62394017D01*
X65422525Y-62363487D01*
X65352699Y-62336209D01*
X65293849Y-62313047D01*
X65248173Y-62294865D01*
X65217868Y-62282527D01*
X65205132Y-62276896D01*
X65204609Y-62276535D01*
X65196825Y-62260800D01*
X65191638Y-62232602D01*
X65189586Y-62200071D01*
X65191205Y-62171339D01*
X65197035Y-62154535D01*
X65200771Y-62152489D01*
X65221709Y-62143105D01*
X65259105Y-62127179D01*
X65310883Y-62105566D01*
X65374972Y-62079125D01*
X65449298Y-62048713D01*
X65531788Y-62015188D01*
X65620369Y-61979408D01*
X66035958Y-61812040D01*
X65616448Y-61811645D01*
X65196939Y-61811250D01*
X65190580Y-61776855D01*
X65188562Y-61744956D01*
X65192813Y-61710709D01*
X65201406Y-61678959D01*
X65669810Y-61678959D01*
X65775439Y-61678867D01*
X65874319Y-61678787D01*
X65955340Y-61679118D01*
G37*
X65955340Y-61679118D02*
X66020242Y-61680259D01*
X66070765Y-61682609D01*
X66108648Y-61686567D01*
X66135631Y-61692532D01*
X66153454Y-61700905D01*
X66163857Y-61712083D01*
X66168579Y-61726466D01*
X66169362Y-61744455D01*
X66167943Y-61766446D01*
X66166064Y-61792841D01*
X66164613Y-61814982D01*
X66159854Y-61848905D01*
X66151055Y-61871585D01*
X66136148Y-61889722D01*
X66131807Y-61893048D01*
X66108016Y-61906424D01*
X66067540Y-61926178D01*
X66012537Y-61951335D01*
X65945166Y-61980923D01*
X65867587Y-62013967D01*
X65781958Y-62049493D01*
X65728588Y-62071399D01*
X65652624Y-62102705D01*
X65583765Y-62131233D01*
X65524509Y-62155940D01*
X65477355Y-62175782D01*
X65444803Y-62189716D01*
X65429350Y-62196698D01*
X65428770Y-62197007D01*
X65423960Y-62201082D01*
X65424776Y-62206186D01*
X65432981Y-62213145D01*
X65450343Y-62222781D01*
X65478625Y-62235919D01*
X65519594Y-62253383D01*
X65575013Y-62275997D01*
X65646649Y-62304584D01*
X65736267Y-62339970D01*
X65790611Y-62361363D01*
X65881226Y-62397087D01*
X65954938Y-62426400D01*
X66013571Y-62450229D01*
X66058945Y-62469502D01*
X66092882Y-62485145D01*
X66117205Y-62498084D01*
X66133735Y-62509246D01*
X66144293Y-62519557D01*
X66150702Y-62529945D01*
X66154784Y-62541335D01*
X66158359Y-62554655D01*
X66164707Y-62591240D01*
X66166394Y-62633313D01*
X66163554Y-62673373D01*
X66156646Y-62705114D01*
X66146132Y-62722229D01*
X66138911Y-62723614D01*
X66112088Y-62725501D01*
X66067868Y-62727224D01*
X66008474Y-62728739D01*
X65936131Y-62730003D01*
X65853060Y-62730970D01*
X65761486Y-62731597D01*
X65663632Y-62731838D01*
X65196055Y-62732000D01*
X65191469Y-62708188D01*
X65186651Y-62677593D01*
X65186796Y-62648758D01*
X65194273Y-62621691D01*
X65204547Y-62594669D01*
X65606104Y-62591897D01*
X66007662Y-62589125D01*
X65613526Y-62437417D01*
X65586317Y-62426936D01*
X65501131Y-62394017D01*
X65422525Y-62363487D01*
X65352699Y-62336209D01*
X65293849Y-62313047D01*
X65248173Y-62294865D01*
X65217868Y-62282527D01*
X65205132Y-62276896D01*
X65204609Y-62276535D01*
X65196825Y-62260800D01*
X65191638Y-62232602D01*
X65189586Y-62200071D01*
X65191205Y-62171339D01*
X65197035Y-62154535D01*
X65200771Y-62152489D01*
X65221709Y-62143105D01*
X65259105Y-62127179D01*
X65310883Y-62105566D01*
X65374972Y-62079125D01*
X65449298Y-62048713D01*
X65531788Y-62015188D01*
X65620369Y-61979408D01*
X66035958Y-61812040D01*
X65616448Y-61811645D01*
X65196939Y-61811250D01*
X65190580Y-61776855D01*
X65188562Y-61744956D01*
X65192813Y-61710709D01*
X65201406Y-61678959D01*
X65669810Y-61678959D01*
X65775439Y-61678867D01*
X65874319Y-61678787D01*
X65955340Y-61679118D01*
G36*
X65214959Y-60795313D02*
G01*
X65225355Y-60797089D01*
X65238539Y-60802319D01*
X65256506Y-60812359D01*
X65281253Y-60828561D01*
X65314774Y-60852280D01*
X65359067Y-60884867D01*
X65416126Y-60927678D01*
X65487948Y-60982065D01*
X65537239Y-61019293D01*
X65591488Y-61059791D01*
X65638374Y-61094277D01*
X65675540Y-61121035D01*
X65700624Y-61138348D01*
X65711269Y-61144500D01*
X65714837Y-61142699D01*
X65732719Y-61129820D01*
X65763067Y-61106177D01*
X65803463Y-61073698D01*
X65851493Y-61034315D01*
X65904738Y-60989958D01*
X65965211Y-60939405D01*
X66018070Y-60895913D01*
X66058811Y-60863576D01*
X66089476Y-60840994D01*
X66112109Y-60826764D01*
X66128751Y-60819488D01*
X66141445Y-60817763D01*
X66152232Y-60820190D01*
X66153958Y-60820929D01*
X66163008Y-60830538D01*
X66166728Y-60851153D01*
X66166136Y-60887727D01*
X66162958Y-60948709D01*
X65948798Y-61120469D01*
X65734638Y-61292230D01*
X65948798Y-61295094D01*
X66162958Y-61297959D01*
X66162958Y-61424959D01*
X65679521Y-61427711D01*
X65196083Y-61430463D01*
X65191483Y-61406544D01*
X65186639Y-61375722D01*
X65186797Y-61346974D01*
X65194244Y-61320018D01*
X65204488Y-61293074D01*
X65437409Y-61290225D01*
X65670330Y-61287375D01*
X65433474Y-61113301D01*
X65394068Y-61084309D01*
X65332422Y-61038668D01*
X65284961Y-61002862D01*
X65249762Y-60975204D01*
X65224901Y-60954007D01*
X65208454Y-60937582D01*
X65198497Y-60924243D01*
X65193106Y-60912302D01*
X65190357Y-60900071D01*
X65187605Y-60864656D01*
X65190821Y-60829770D01*
X65199499Y-60804799D01*
X65212477Y-60795250D01*
X65214959Y-60795313D01*
G37*
X65214959Y-60795313D02*
X65225355Y-60797089D01*
X65238539Y-60802319D01*
X65256506Y-60812359D01*
X65281253Y-60828561D01*
X65314774Y-60852280D01*
X65359067Y-60884867D01*
X65416126Y-60927678D01*
X65487948Y-60982065D01*
X65537239Y-61019293D01*
X65591488Y-61059791D01*
X65638374Y-61094277D01*
X65675540Y-61121035D01*
X65700624Y-61138348D01*
X65711269Y-61144500D01*
X65714837Y-61142699D01*
X65732719Y-61129820D01*
X65763067Y-61106177D01*
X65803463Y-61073698D01*
X65851493Y-61034315D01*
X65904738Y-60989958D01*
X65965211Y-60939405D01*
X66018070Y-60895913D01*
X66058811Y-60863576D01*
X66089476Y-60840994D01*
X66112109Y-60826764D01*
X66128751Y-60819488D01*
X66141445Y-60817763D01*
X66152232Y-60820190D01*
X66153958Y-60820929D01*
X66163008Y-60830538D01*
X66166728Y-60851153D01*
X66166136Y-60887727D01*
X66162958Y-60948709D01*
X65948798Y-61120469D01*
X65734638Y-61292230D01*
X65948798Y-61295094D01*
X66162958Y-61297959D01*
X66162958Y-61424959D01*
X65679521Y-61427711D01*
X65196083Y-61430463D01*
X65191483Y-61406544D01*
X65186639Y-61375722D01*
X65186797Y-61346974D01*
X65194244Y-61320018D01*
X65204488Y-61293074D01*
X65437409Y-61290225D01*
X65670330Y-61287375D01*
X65433474Y-61113301D01*
X65394068Y-61084309D01*
X65332422Y-61038668D01*
X65284961Y-61002862D01*
X65249762Y-60975204D01*
X65224901Y-60954007D01*
X65208454Y-60937582D01*
X65198497Y-60924243D01*
X65193106Y-60912302D01*
X65190357Y-60900071D01*
X65187605Y-60864656D01*
X65190821Y-60829770D01*
X65199499Y-60804799D01*
X65212477Y-60795250D01*
X65214959Y-60795313D01*
G36*
X66134657Y-59782619D02*
G01*
X66155550Y-59791950D01*
X66156655Y-59793395D01*
X66161043Y-59808519D01*
X66164316Y-59838672D01*
X66166555Y-59885384D01*
X66167839Y-59950187D01*
X66168250Y-60034611D01*
X66168162Y-60089390D01*
X66167626Y-60153957D01*
X66166444Y-60201890D01*
X66164434Y-60235885D01*
X66161414Y-60258638D01*
X66157203Y-60272845D01*
X66151619Y-60281203D01*
X66145851Y-60285109D01*
X66135495Y-60288464D01*
X66118838Y-60291184D01*
X66094023Y-60293333D01*
X66059191Y-60294975D01*
X66012483Y-60296175D01*
X65952042Y-60296997D01*
X65876009Y-60297505D01*
X65782527Y-60297762D01*
X65669736Y-60297834D01*
X65204484Y-60297834D01*
X65194913Y-60274021D01*
X65194494Y-60272976D01*
X65186534Y-60248445D01*
X65185436Y-60225568D01*
X65190614Y-60193323D01*
X65197229Y-60160250D01*
X65617405Y-60160250D01*
X65620306Y-59982980D01*
X65623208Y-59805709D01*
X65663634Y-59802380D01*
X65668675Y-59801981D01*
X65692232Y-59801369D01*
X65709358Y-59805442D01*
X65721077Y-59816947D01*
X65728411Y-59838630D01*
X65732383Y-59873237D01*
X65734016Y-59923516D01*
X65734333Y-59992213D01*
X65734333Y-60160250D01*
X66041250Y-60160250D01*
X66041250Y-59982450D01*
X66041326Y-59953574D01*
X66042396Y-59885468D01*
X66044798Y-59836710D01*
X66048620Y-59805977D01*
X66053950Y-59791950D01*
X66073269Y-59782985D01*
X66103816Y-59779630D01*
X66134657Y-59782619D01*
G37*
X66134657Y-59782619D02*
X66155550Y-59791950D01*
X66156655Y-59793395D01*
X66161043Y-59808519D01*
X66164316Y-59838672D01*
X66166555Y-59885384D01*
X66167839Y-59950187D01*
X66168250Y-60034611D01*
X66168162Y-60089390D01*
X66167626Y-60153957D01*
X66166444Y-60201890D01*
X66164434Y-60235885D01*
X66161414Y-60258638D01*
X66157203Y-60272845D01*
X66151619Y-60281203D01*
X66145851Y-60285109D01*
X66135495Y-60288464D01*
X66118838Y-60291184D01*
X66094023Y-60293333D01*
X66059191Y-60294975D01*
X66012483Y-60296175D01*
X65952042Y-60296997D01*
X65876009Y-60297505D01*
X65782527Y-60297762D01*
X65669736Y-60297834D01*
X65204484Y-60297834D01*
X65194913Y-60274021D01*
X65194494Y-60272976D01*
X65186534Y-60248445D01*
X65185436Y-60225568D01*
X65190614Y-60193323D01*
X65197229Y-60160250D01*
X65617405Y-60160250D01*
X65620306Y-59982980D01*
X65623208Y-59805709D01*
X65663634Y-59802380D01*
X65668675Y-59801981D01*
X65692232Y-59801369D01*
X65709358Y-59805442D01*
X65721077Y-59816947D01*
X65728411Y-59838630D01*
X65732383Y-59873237D01*
X65734016Y-59923516D01*
X65734333Y-59992213D01*
X65734333Y-60160250D01*
X66041250Y-60160250D01*
X66041250Y-59982450D01*
X66041326Y-59953574D01*
X66042396Y-59885468D01*
X66044798Y-59836710D01*
X66048620Y-59805977D01*
X66053950Y-59791950D01*
X66073269Y-59782985D01*
X66103816Y-59779630D01*
X66134657Y-59782619D01*
G36*
X65553041Y-59485424D02*
G01*
X65908958Y-59488209D01*
X65908958Y-59604625D01*
X65552574Y-59607411D01*
X65515511Y-59607695D01*
X65426151Y-59608275D01*
X65355074Y-59608479D01*
X65300157Y-59608213D01*
X65259282Y-59607385D01*
X65230329Y-59605900D01*
X65211176Y-59603666D01*
X65199704Y-59600589D01*
X65193793Y-59596577D01*
X65191322Y-59591536D01*
X65186219Y-59562034D01*
X65190707Y-59506590D01*
X65197125Y-59482639D01*
X65553041Y-59485424D01*
G37*
X65553041Y-59485424D02*
X65908958Y-59488209D01*
X65908958Y-59604625D01*
X65552574Y-59607411D01*
X65515511Y-59607695D01*
X65426151Y-59608275D01*
X65355074Y-59608479D01*
X65300157Y-59608213D01*
X65259282Y-59607385D01*
X65230329Y-59605900D01*
X65211176Y-59603666D01*
X65199704Y-59600589D01*
X65193793Y-59596577D01*
X65191322Y-59591536D01*
X65186219Y-59562034D01*
X65190707Y-59506590D01*
X65197125Y-59482639D01*
X65553041Y-59485424D01*
G36*
X65857561Y-58859826D02*
G01*
X65886469Y-58865444D01*
X65903958Y-58874727D01*
X65908099Y-58881675D01*
X65916672Y-58908010D01*
X65922296Y-58941652D01*
X65922851Y-58949151D01*
X65915767Y-59008058D01*
X65889374Y-59062666D01*
X65845320Y-59109383D01*
X65808089Y-59138959D01*
X65858523Y-59144250D01*
X65908958Y-59149542D01*
X65908958Y-59255375D01*
X65552574Y-59258161D01*
X65515511Y-59258445D01*
X65426151Y-59259025D01*
X65355074Y-59259229D01*
X65300157Y-59258963D01*
X65259282Y-59258135D01*
X65230329Y-59256650D01*
X65211176Y-59254416D01*
X65199704Y-59251339D01*
X65193793Y-59247327D01*
X65191322Y-59242286D01*
X65186205Y-59212622D01*
X65190670Y-59157480D01*
X65193122Y-59149888D01*
X65197745Y-59143898D01*
X65207170Y-59139601D01*
X65224123Y-59136715D01*
X65251332Y-59134960D01*
X65291524Y-59134054D01*
X65347428Y-59133717D01*
X65421771Y-59133667D01*
X65646491Y-59133667D01*
X65687766Y-59103487D01*
X65700124Y-59094246D01*
X65746101Y-59055227D01*
X65778102Y-59019746D01*
X65793547Y-58990556D01*
X65794484Y-58984954D01*
X65793747Y-58956473D01*
X65787567Y-58923178D01*
X65784860Y-58912085D01*
X65780710Y-58884703D01*
X65782109Y-58868840D01*
X65782120Y-58868822D01*
X65797405Y-58861130D01*
X65825213Y-58858260D01*
X65857561Y-58859826D01*
G37*
X65857561Y-58859826D02*
X65886469Y-58865444D01*
X65903958Y-58874727D01*
X65908099Y-58881675D01*
X65916672Y-58908010D01*
X65922296Y-58941652D01*
X65922851Y-58949151D01*
X65915767Y-59008058D01*
X65889374Y-59062666D01*
X65845320Y-59109383D01*
X65808089Y-59138959D01*
X65858523Y-59144250D01*
X65908958Y-59149542D01*
X65908958Y-59255375D01*
X65552574Y-59258161D01*
X65515511Y-59258445D01*
X65426151Y-59259025D01*
X65355074Y-59259229D01*
X65300157Y-59258963D01*
X65259282Y-59258135D01*
X65230329Y-59256650D01*
X65211176Y-59254416D01*
X65199704Y-59251339D01*
X65193793Y-59247327D01*
X65191322Y-59242286D01*
X65186205Y-59212622D01*
X65190670Y-59157480D01*
X65193122Y-59149888D01*
X65197745Y-59143898D01*
X65207170Y-59139601D01*
X65224123Y-59136715D01*
X65251332Y-59134960D01*
X65291524Y-59134054D01*
X65347428Y-59133717D01*
X65421771Y-59133667D01*
X65646491Y-59133667D01*
X65687766Y-59103487D01*
X65700124Y-59094246D01*
X65746101Y-59055227D01*
X65778102Y-59019746D01*
X65793547Y-58990556D01*
X65794484Y-58984954D01*
X65793747Y-58956473D01*
X65787567Y-58923178D01*
X65784860Y-58912085D01*
X65780710Y-58884703D01*
X65782109Y-58868840D01*
X65782120Y-58868822D01*
X65797405Y-58861130D01*
X65825213Y-58858260D01*
X65857561Y-58859826D01*
G36*
X65445675Y-57726249D02*
G01*
X65486843Y-57726370D01*
X65576741Y-57727599D01*
X65649225Y-57730455D01*
X65706961Y-57735312D01*
X65752613Y-57742544D01*
X65788846Y-57752528D01*
X65818326Y-57765637D01*
X65843717Y-57782247D01*
X65853429Y-57790107D01*
X65890904Y-57834318D01*
X65912460Y-57889813D01*
X65919089Y-57958917D01*
X65915564Y-58009318D01*
X65903076Y-58054065D01*
X65878688Y-58096570D01*
X65839448Y-58143679D01*
X65798192Y-58188436D01*
X65837646Y-58213968D01*
X65851610Y-58223954D01*
X65889606Y-58266638D01*
X65911941Y-58322640D01*
X65919014Y-58392834D01*
X65918696Y-58407506D01*
X65910051Y-58468189D01*
X65887342Y-58519843D01*
X65847489Y-58570105D01*
X65814848Y-58604500D01*
X65852670Y-58604500D01*
X65870290Y-58605556D01*
X65897365Y-58616112D01*
X65910651Y-58640183D01*
X65912251Y-58680448D01*
X65908958Y-58726209D01*
X65552525Y-58728995D01*
X65196092Y-58731780D01*
X65191487Y-58707828D01*
X65186622Y-58676784D01*
X65186825Y-58648089D01*
X65194321Y-58621064D01*
X65204643Y-58593917D01*
X65689876Y-58593917D01*
X65743452Y-58535296D01*
X65778767Y-58491702D01*
X65800666Y-58449470D01*
X65805212Y-58410918D01*
X65793299Y-58373132D01*
X65787190Y-58361913D01*
X65774764Y-58343982D01*
X65759108Y-58330018D01*
X65737662Y-58319450D01*
X65707862Y-58311707D01*
X65667146Y-58306219D01*
X65612951Y-58302417D01*
X65542715Y-58299728D01*
X65453875Y-58297584D01*
X65199875Y-58292292D01*
X65190946Y-58255250D01*
X65187392Y-58228371D01*
X65193330Y-58189105D01*
X65204643Y-58160000D01*
X65689103Y-58160000D01*
X65737352Y-58108419D01*
X65738995Y-58106653D01*
X65779803Y-58053679D01*
X65800827Y-58004811D01*
X65802038Y-57960832D01*
X65783410Y-57922521D01*
X65744916Y-57890659D01*
X65736540Y-57886077D01*
X65722228Y-57880153D01*
X65704025Y-57875582D01*
X65679052Y-57872097D01*
X65644429Y-57869429D01*
X65597278Y-57867313D01*
X65534719Y-57865482D01*
X65453875Y-57863667D01*
X65199875Y-57858375D01*
X65190946Y-57821334D01*
X65187392Y-57794454D01*
X65193330Y-57755188D01*
X65204643Y-57726084D01*
X65445675Y-57726249D01*
G37*
X65445675Y-57726249D02*
X65486843Y-57726370D01*
X65576741Y-57727599D01*
X65649225Y-57730455D01*
X65706961Y-57735312D01*
X65752613Y-57742544D01*
X65788846Y-57752528D01*
X65818326Y-57765637D01*
X65843717Y-57782247D01*
X65853429Y-57790107D01*
X65890904Y-57834318D01*
X65912460Y-57889813D01*
X65919089Y-57958917D01*
X65915564Y-58009318D01*
X65903076Y-58054065D01*
X65878688Y-58096570D01*
X65839448Y-58143679D01*
X65798192Y-58188436D01*
X65837646Y-58213968D01*
X65851610Y-58223954D01*
X65889606Y-58266638D01*
X65911941Y-58322640D01*
X65919014Y-58392834D01*
X65918696Y-58407506D01*
X65910051Y-58468189D01*
X65887342Y-58519843D01*
X65847489Y-58570105D01*
X65814848Y-58604500D01*
X65852670Y-58604500D01*
X65870290Y-58605556D01*
X65897365Y-58616112D01*
X65910651Y-58640183D01*
X65912251Y-58680448D01*
X65908958Y-58726209D01*
X65552525Y-58728995D01*
X65196092Y-58731780D01*
X65191487Y-58707828D01*
X65186622Y-58676784D01*
X65186825Y-58648089D01*
X65194321Y-58621064D01*
X65204643Y-58593917D01*
X65689876Y-58593917D01*
X65743452Y-58535296D01*
X65778767Y-58491702D01*
X65800666Y-58449470D01*
X65805212Y-58410918D01*
X65793299Y-58373132D01*
X65787190Y-58361913D01*
X65774764Y-58343982D01*
X65759108Y-58330018D01*
X65737662Y-58319450D01*
X65707862Y-58311707D01*
X65667146Y-58306219D01*
X65612951Y-58302417D01*
X65542715Y-58299728D01*
X65453875Y-58297584D01*
X65199875Y-58292292D01*
X65190946Y-58255250D01*
X65187392Y-58228371D01*
X65193330Y-58189105D01*
X65204643Y-58160000D01*
X65689103Y-58160000D01*
X65737352Y-58108419D01*
X65738995Y-58106653D01*
X65779803Y-58053679D01*
X65800827Y-58004811D01*
X65802038Y-57960832D01*
X65783410Y-57922521D01*
X65744916Y-57890659D01*
X65736540Y-57886077D01*
X65722228Y-57880153D01*
X65704025Y-57875582D01*
X65679052Y-57872097D01*
X65644429Y-57869429D01*
X65597278Y-57867313D01*
X65534719Y-57865482D01*
X65453875Y-57863667D01*
X65199875Y-57858375D01*
X65190946Y-57821334D01*
X65187392Y-57794454D01*
X65193330Y-57755188D01*
X65204643Y-57726084D01*
X65445675Y-57726249D01*
G36*
X65890009Y-56586671D02*
G01*
X65902718Y-56592895D01*
X65909085Y-56608797D01*
X65912244Y-56640123D01*
X65912821Y-56657567D01*
X65911159Y-56685793D01*
X65906513Y-56700888D01*
X65895444Y-56705716D01*
X65866530Y-56715641D01*
X65822652Y-56729665D01*
X65766582Y-56746923D01*
X65701096Y-56766547D01*
X65628966Y-56787670D01*
X65558685Y-56808305D01*
X65495411Y-56827437D01*
X65442387Y-56844046D01*
X65402144Y-56857323D01*
X65377210Y-56866457D01*
X65370114Y-56870637D01*
X65378207Y-56873474D01*
X65404540Y-56881604D01*
X65446134Y-56893998D01*
X65500121Y-56909809D01*
X65563630Y-56928192D01*
X65633791Y-56948301D01*
X65688260Y-56963983D01*
X65754022Y-56983326D01*
X65811106Y-57000578D01*
X65856584Y-57014837D01*
X65887531Y-57025198D01*
X65901021Y-57030760D01*
X65910196Y-57046627D01*
X65914647Y-57075479D01*
X65913483Y-57108276D01*
X65907058Y-57136812D01*
X65895729Y-57152882D01*
X65886958Y-57156153D01*
X65859192Y-57164746D01*
X65816154Y-57177222D01*
X65760888Y-57192717D01*
X65696440Y-57210369D01*
X65625854Y-57229317D01*
X65572907Y-57243543D01*
X65508863Y-57261200D01*
X65454232Y-57276778D01*
X65411782Y-57289466D01*
X65384282Y-57298454D01*
X65374500Y-57302932D01*
X65378985Y-57305538D01*
X65400851Y-57313670D01*
X65438403Y-57326107D01*
X65488851Y-57341958D01*
X65549403Y-57360333D01*
X65617271Y-57380344D01*
X65651537Y-57390286D01*
X65730386Y-57413067D01*
X65791905Y-57431058D01*
X65838193Y-57445345D01*
X65871351Y-57457014D01*
X65893477Y-57467151D01*
X65906672Y-57476842D01*
X65913036Y-57487175D01*
X65914667Y-57499234D01*
X65913667Y-57514106D01*
X65912134Y-57532878D01*
X65910973Y-57551400D01*
X65907199Y-57578480D01*
X65900117Y-57591773D01*
X65887791Y-57596328D01*
X65880628Y-57595499D01*
X65854345Y-57589428D01*
X65812039Y-57578156D01*
X65756264Y-57562409D01*
X65689576Y-57542914D01*
X65614530Y-57520399D01*
X65533681Y-57495590D01*
X65530364Y-57494561D01*
X65439632Y-57466312D01*
X65367026Y-57443386D01*
X65310480Y-57424999D01*
X65267930Y-57410367D01*
X65237310Y-57398705D01*
X65216556Y-57389227D01*
X65203603Y-57381149D01*
X65196385Y-57373686D01*
X65192839Y-57366054D01*
X65189250Y-57342757D01*
X65188670Y-57308963D01*
X65190985Y-57273535D01*
X65195681Y-57244059D01*
X65202239Y-57228122D01*
X65206499Y-57226161D01*
X65228549Y-57218911D01*
X65266463Y-57207677D01*
X65317243Y-57193316D01*
X65377888Y-57176684D01*
X65445399Y-57158640D01*
X65485515Y-57147906D01*
X65546970Y-57130847D01*
X65598576Y-57115742D01*
X65637669Y-57103410D01*
X65661581Y-57094670D01*
X65667649Y-57090341D01*
X65665292Y-57089404D01*
X65645733Y-57083075D01*
X65610034Y-57072260D01*
X65561386Y-57057903D01*
X65502978Y-57040949D01*
X65438000Y-57022343D01*
X65416998Y-57016322D01*
X65353397Y-56997520D01*
X65297197Y-56980073D01*
X65251653Y-56965040D01*
X65220015Y-56953485D01*
X65205538Y-56946469D01*
X65201965Y-56941732D01*
X65194302Y-56917392D01*
X65190178Y-56882745D01*
X65189813Y-56845540D01*
X65193425Y-56813532D01*
X65201235Y-56794473D01*
X65205232Y-56791998D01*
X65227340Y-56782830D01*
X65265418Y-56769179D01*
X65316474Y-56751965D01*
X65377515Y-56732104D01*
X65445549Y-56710513D01*
X65517583Y-56688110D01*
X65590627Y-56665812D01*
X65661687Y-56644537D01*
X65727770Y-56625202D01*
X65785886Y-56608725D01*
X65833041Y-56596022D01*
X65866243Y-56588011D01*
X65882500Y-56585610D01*
X65890009Y-56586671D01*
G37*
X65890009Y-56586671D02*
X65902718Y-56592895D01*
X65909085Y-56608797D01*
X65912244Y-56640123D01*
X65912821Y-56657567D01*
X65911159Y-56685793D01*
X65906513Y-56700888D01*
X65895444Y-56705716D01*
X65866530Y-56715641D01*
X65822652Y-56729665D01*
X65766582Y-56746923D01*
X65701096Y-56766547D01*
X65628966Y-56787670D01*
X65558685Y-56808305D01*
X65495411Y-56827437D01*
X65442387Y-56844046D01*
X65402144Y-56857323D01*
X65377210Y-56866457D01*
X65370114Y-56870637D01*
X65378207Y-56873474D01*
X65404540Y-56881604D01*
X65446134Y-56893998D01*
X65500121Y-56909809D01*
X65563630Y-56928192D01*
X65633791Y-56948301D01*
X65688260Y-56963983D01*
X65754022Y-56983326D01*
X65811106Y-57000578D01*
X65856584Y-57014837D01*
X65887531Y-57025198D01*
X65901021Y-57030760D01*
X65910196Y-57046627D01*
X65914647Y-57075479D01*
X65913483Y-57108276D01*
X65907058Y-57136812D01*
X65895729Y-57152882D01*
X65886958Y-57156153D01*
X65859192Y-57164746D01*
X65816154Y-57177222D01*
X65760888Y-57192717D01*
X65696440Y-57210369D01*
X65625854Y-57229317D01*
X65572907Y-57243543D01*
X65508863Y-57261200D01*
X65454232Y-57276778D01*
X65411782Y-57289466D01*
X65384282Y-57298454D01*
X65374500Y-57302932D01*
X65378985Y-57305538D01*
X65400851Y-57313670D01*
X65438403Y-57326107D01*
X65488851Y-57341958D01*
X65549403Y-57360333D01*
X65617271Y-57380344D01*
X65651537Y-57390286D01*
X65730386Y-57413067D01*
X65791905Y-57431058D01*
X65838193Y-57445345D01*
X65871351Y-57457014D01*
X65893477Y-57467151D01*
X65906672Y-57476842D01*
X65913036Y-57487175D01*
X65914667Y-57499234D01*
X65913667Y-57514106D01*
X65912134Y-57532878D01*
X65910973Y-57551400D01*
X65907199Y-57578480D01*
X65900117Y-57591773D01*
X65887791Y-57596328D01*
X65880628Y-57595499D01*
X65854345Y-57589428D01*
X65812039Y-57578156D01*
X65756264Y-57562409D01*
X65689576Y-57542914D01*
X65614530Y-57520399D01*
X65533681Y-57495590D01*
X65530364Y-57494561D01*
X65439632Y-57466312D01*
X65367026Y-57443386D01*
X65310480Y-57424999D01*
X65267930Y-57410367D01*
X65237310Y-57398705D01*
X65216556Y-57389227D01*
X65203603Y-57381149D01*
X65196385Y-57373686D01*
X65192839Y-57366054D01*
X65189250Y-57342757D01*
X65188670Y-57308963D01*
X65190985Y-57273535D01*
X65195681Y-57244059D01*
X65202239Y-57228122D01*
X65206499Y-57226161D01*
X65228549Y-57218911D01*
X65266463Y-57207677D01*
X65317243Y-57193316D01*
X65377888Y-57176684D01*
X65445399Y-57158640D01*
X65485515Y-57147906D01*
X65546970Y-57130847D01*
X65598576Y-57115742D01*
X65637669Y-57103410D01*
X65661581Y-57094670D01*
X65667649Y-57090341D01*
X65665292Y-57089404D01*
X65645733Y-57083075D01*
X65610034Y-57072260D01*
X65561386Y-57057903D01*
X65502978Y-57040949D01*
X65438000Y-57022343D01*
X65416998Y-57016322D01*
X65353397Y-56997520D01*
X65297197Y-56980073D01*
X65251653Y-56965040D01*
X65220015Y-56953485D01*
X65205538Y-56946469D01*
X65201965Y-56941732D01*
X65194302Y-56917392D01*
X65190178Y-56882745D01*
X65189813Y-56845540D01*
X65193425Y-56813532D01*
X65201235Y-56794473D01*
X65205232Y-56791998D01*
X65227340Y-56782830D01*
X65265418Y-56769179D01*
X65316474Y-56751965D01*
X65377515Y-56732104D01*
X65445549Y-56710513D01*
X65517583Y-56688110D01*
X65590627Y-56665812D01*
X65661687Y-56644537D01*
X65727770Y-56625202D01*
X65785886Y-56608725D01*
X65833041Y-56596022D01*
X65866243Y-56588011D01*
X65882500Y-56585610D01*
X65890009Y-56586671D01*
G36*
X65895204Y-55327651D02*
G01*
X65905308Y-55337384D01*
X65913043Y-55356504D01*
X65923591Y-55404542D01*
X65918546Y-55463572D01*
X65892999Y-55518897D01*
X65847283Y-55569445D01*
X65813708Y-55598264D01*
X65852100Y-55598549D01*
X65870200Y-55599761D01*
X65897381Y-55610482D01*
X65910668Y-55634565D01*
X65912251Y-55674781D01*
X65908958Y-55720542D01*
X65204590Y-55726120D01*
X65194966Y-55702164D01*
X65192463Y-55695613D01*
X65185200Y-55656143D01*
X65194321Y-55615398D01*
X65204643Y-55588250D01*
X65657074Y-55588250D01*
X65698349Y-55557935D01*
X65710731Y-55548740D01*
X65750655Y-55515873D01*
X65775534Y-55486002D01*
X65787896Y-55453232D01*
X65790269Y-55411669D01*
X65785178Y-55355417D01*
X65784596Y-55341358D01*
X65790482Y-55332565D01*
X65807877Y-55328229D01*
X65841605Y-55325821D01*
X65843184Y-55325738D01*
X65876555Y-55324654D01*
X65895204Y-55327651D01*
G37*
X65895204Y-55327651D02*
X65905308Y-55337384D01*
X65913043Y-55356504D01*
X65923591Y-55404542D01*
X65918546Y-55463572D01*
X65892999Y-55518897D01*
X65847283Y-55569445D01*
X65813708Y-55598264D01*
X65852100Y-55598549D01*
X65870200Y-55599761D01*
X65897381Y-55610482D01*
X65910668Y-55634565D01*
X65912251Y-55674781D01*
X65908958Y-55720542D01*
X65204590Y-55726120D01*
X65194966Y-55702164D01*
X65192463Y-55695613D01*
X65185200Y-55656143D01*
X65194321Y-55615398D01*
X65204643Y-55588250D01*
X65657074Y-55588250D01*
X65698349Y-55557935D01*
X65710731Y-55548740D01*
X65750655Y-55515873D01*
X65775534Y-55486002D01*
X65787896Y-55453232D01*
X65790269Y-55411669D01*
X65785178Y-55355417D01*
X65784596Y-55341358D01*
X65790482Y-55332565D01*
X65807877Y-55328229D01*
X65841605Y-55325821D01*
X65843184Y-55325738D01*
X65876555Y-55324654D01*
X65895204Y-55327651D01*
G36*
X66160242Y-59474956D02*
G01*
X66181985Y-59501974D01*
X66189416Y-59544394D01*
X66187585Y-59572528D01*
X66176092Y-59602223D01*
X66151296Y-59617770D01*
X66110041Y-59622264D01*
X66093550Y-59621855D01*
X66062127Y-59616398D01*
X66044399Y-59603485D01*
X66037169Y-59588709D01*
X66031315Y-59554263D01*
X66033677Y-59517581D01*
X66044267Y-59489530D01*
X66047672Y-59485863D01*
X66070381Y-59473145D01*
X66101247Y-59465111D01*
X66125015Y-59464085D01*
X66160242Y-59474956D01*
G37*
X66160242Y-59474956D02*
X66181985Y-59501974D01*
X66189416Y-59544394D01*
X66187585Y-59572528D01*
X66176092Y-59602223D01*
X66151296Y-59617770D01*
X66110041Y-59622264D01*
X66093550Y-59621855D01*
X66062127Y-59616398D01*
X66044399Y-59603485D01*
X66037169Y-59588709D01*
X66031315Y-59554263D01*
X66033677Y-59517581D01*
X66044267Y-59489530D01*
X66047672Y-59485863D01*
X66070381Y-59473145D01*
X66101247Y-59465111D01*
X66125015Y-59464085D01*
X66160242Y-59474956D01*
G36*
X67081136Y-58292174D02*
G01*
X67090641Y-58311904D01*
X67093740Y-58339373D01*
X67088756Y-58367017D01*
X67083065Y-58375338D01*
X67068920Y-58385689D01*
X67044277Y-58398012D01*
X67006704Y-58413377D01*
X66953771Y-58432853D01*
X66883046Y-58457511D01*
X66836969Y-58473548D01*
X66772766Y-58497021D01*
X66728416Y-58515000D01*
X66704096Y-58527413D01*
X66699981Y-58534186D01*
X66712843Y-58539986D01*
X66742658Y-58551694D01*
X66785766Y-58567868D01*
X66838728Y-58587219D01*
X66898107Y-58608459D01*
X66940443Y-58623528D01*
X66995071Y-58643497D01*
X67034105Y-58658877D01*
X67060315Y-58671012D01*
X67076470Y-58681246D01*
X67085341Y-58690921D01*
X67089697Y-58701381D01*
X67093159Y-58722462D01*
X67092185Y-58752099D01*
X67085541Y-58775141D01*
X67074537Y-58784412D01*
X67065987Y-58782169D01*
X67039986Y-58773525D01*
X67000098Y-58759530D01*
X66949620Y-58741403D01*
X66891846Y-58720364D01*
X66830072Y-58697633D01*
X66767595Y-58674429D01*
X66707708Y-58651972D01*
X66653709Y-58631481D01*
X66608893Y-58614176D01*
X66576556Y-58601277D01*
X66559992Y-58594002D01*
X66553353Y-58591803D01*
X66532209Y-58592922D01*
X66498616Y-58602390D01*
X66449438Y-58620972D01*
X66427289Y-58629608D01*
X66389409Y-58642879D01*
X66361225Y-58650763D01*
X66347615Y-58651785D01*
X66344935Y-58648428D01*
X66339674Y-58628657D01*
X66337583Y-58598957D01*
X66338113Y-58581845D01*
X66343873Y-58555629D01*
X66357598Y-58541617D01*
X66373274Y-58534867D01*
X66405779Y-58522257D01*
X66452109Y-58504896D01*
X66509457Y-58483785D01*
X66575013Y-58459928D01*
X66645970Y-58434327D01*
X66719517Y-58407983D01*
X66792848Y-58381900D01*
X66863154Y-58357079D01*
X66927625Y-58334524D01*
X66983454Y-58315236D01*
X67027832Y-58300218D01*
X67057951Y-58290472D01*
X67071001Y-58287000D01*
X67081136Y-58292174D01*
G37*
X67081136Y-58292174D02*
X67090641Y-58311904D01*
X67093740Y-58339373D01*
X67088756Y-58367017D01*
X67083065Y-58375338D01*
X67068920Y-58385689D01*
X67044277Y-58398012D01*
X67006704Y-58413377D01*
X66953771Y-58432853D01*
X66883046Y-58457511D01*
X66836969Y-58473548D01*
X66772766Y-58497021D01*
X66728416Y-58515000D01*
X66704096Y-58527413D01*
X66699981Y-58534186D01*
X66712843Y-58539986D01*
X66742658Y-58551694D01*
X66785766Y-58567868D01*
X66838728Y-58587219D01*
X66898107Y-58608459D01*
X66940443Y-58623528D01*
X66995071Y-58643497D01*
X67034105Y-58658877D01*
X67060315Y-58671012D01*
X67076470Y-58681246D01*
X67085341Y-58690921D01*
X67089697Y-58701381D01*
X67093159Y-58722462D01*
X67092185Y-58752099D01*
X67085541Y-58775141D01*
X67074537Y-58784412D01*
X67065987Y-58782169D01*
X67039986Y-58773525D01*
X67000098Y-58759530D01*
X66949620Y-58741403D01*
X66891846Y-58720364D01*
X66830072Y-58697633D01*
X66767595Y-58674429D01*
X66707708Y-58651972D01*
X66653709Y-58631481D01*
X66608893Y-58614176D01*
X66576556Y-58601277D01*
X66559992Y-58594002D01*
X66553353Y-58591803D01*
X66532209Y-58592922D01*
X66498616Y-58602390D01*
X66449438Y-58620972D01*
X66427289Y-58629608D01*
X66389409Y-58642879D01*
X66361225Y-58650763D01*
X66347615Y-58651785D01*
X66344935Y-58648428D01*
X66339674Y-58628657D01*
X66337583Y-58598957D01*
X66338113Y-58581845D01*
X66343873Y-58555629D01*
X66357598Y-58541617D01*
X66373274Y-58534867D01*
X66405779Y-58522257D01*
X66452109Y-58504896D01*
X66509457Y-58483785D01*
X66575013Y-58459928D01*
X66645970Y-58434327D01*
X66719517Y-58407983D01*
X66792848Y-58381900D01*
X66863154Y-58357079D01*
X66927625Y-58334524D01*
X66983454Y-58315236D01*
X67027832Y-58300218D01*
X67057951Y-58290472D01*
X67071001Y-58287000D01*
X67081136Y-58292174D01*
G36*
X66808541Y-63202362D02*
G01*
X66794736Y-63202344D01*
X66745968Y-63201195D01*
X66711188Y-63197656D01*
X66684591Y-63190846D01*
X66660375Y-63179883D01*
X66615721Y-63150553D01*
X66569935Y-63101190D01*
X66542533Y-63042052D01*
X66540238Y-63032984D01*
X66533282Y-62982114D01*
X66533449Y-62943665D01*
X66625867Y-62943665D01*
X66631670Y-62998922D01*
X66653802Y-63041376D01*
X66692581Y-63071289D01*
X66748327Y-63088925D01*
X66821359Y-63094544D01*
X66852025Y-63093221D01*
X66915493Y-63080098D01*
X66963361Y-63053130D01*
X66995294Y-63012559D01*
X67010954Y-62958626D01*
X67010782Y-62920547D01*
X66994439Y-62874294D01*
X66960807Y-62837489D01*
X66911510Y-62811728D01*
X66848169Y-62798606D01*
X66777364Y-62799509D01*
X66714082Y-62815875D01*
X66663624Y-62847159D01*
X66660888Y-62849635D01*
X66641478Y-62871490D01*
X66631259Y-62896624D01*
X66626408Y-62933952D01*
X66625867Y-62943665D01*
X66533449Y-62943665D01*
X66533515Y-62928378D01*
X66533878Y-62924277D01*
X66549398Y-62849069D01*
X66580377Y-62788239D01*
X66626598Y-62741947D01*
X66687844Y-62710355D01*
X66763898Y-62693621D01*
X66854542Y-62691905D01*
X66907287Y-62697967D01*
X66977117Y-62718640D01*
X67030995Y-62753158D01*
X67069182Y-62801785D01*
X67091938Y-62864790D01*
X67099524Y-62942439D01*
X67099513Y-62946123D01*
X67090772Y-63023302D01*
X67065610Y-63087276D01*
X67023760Y-63138511D01*
X66964956Y-63177470D01*
X66956453Y-63181511D01*
X66929092Y-63192081D01*
X66899526Y-63198410D01*
X66861445Y-63201502D01*
X66821359Y-63202154D01*
X66808541Y-63202362D01*
G37*
X66808541Y-63202362D02*
X66794736Y-63202344D01*
X66745968Y-63201195D01*
X66711188Y-63197656D01*
X66684591Y-63190846D01*
X66660375Y-63179883D01*
X66615721Y-63150553D01*
X66569935Y-63101190D01*
X66542533Y-63042052D01*
X66540238Y-63032984D01*
X66533282Y-62982114D01*
X66533449Y-62943665D01*
X66625867Y-62943665D01*
X66631670Y-62998922D01*
X66653802Y-63041376D01*
X66692581Y-63071289D01*
X66748327Y-63088925D01*
X66821359Y-63094544D01*
X66852025Y-63093221D01*
X66915493Y-63080098D01*
X66963361Y-63053130D01*
X66995294Y-63012559D01*
X67010954Y-62958626D01*
X67010782Y-62920547D01*
X66994439Y-62874294D01*
X66960807Y-62837489D01*
X66911510Y-62811728D01*
X66848169Y-62798606D01*
X66777364Y-62799509D01*
X66714082Y-62815875D01*
X66663624Y-62847159D01*
X66660888Y-62849635D01*
X66641478Y-62871490D01*
X66631259Y-62896624D01*
X66626408Y-62933952D01*
X66625867Y-62943665D01*
X66533449Y-62943665D01*
X66533515Y-62928378D01*
X66533878Y-62924277D01*
X66549398Y-62849069D01*
X66580377Y-62788239D01*
X66626598Y-62741947D01*
X66687844Y-62710355D01*
X66763898Y-62693621D01*
X66854542Y-62691905D01*
X66907287Y-62697967D01*
X66977117Y-62718640D01*
X67030995Y-62753158D01*
X67069182Y-62801785D01*
X67091938Y-62864790D01*
X67099524Y-62942439D01*
X67099513Y-62946123D01*
X67090772Y-63023302D01*
X67065610Y-63087276D01*
X67023760Y-63138511D01*
X66964956Y-63177470D01*
X66956453Y-63181511D01*
X66929092Y-63192081D01*
X66899526Y-63198410D01*
X66861445Y-63201502D01*
X66821359Y-63202154D01*
X66808541Y-63202362D01*
G36*
X66819125Y-61772348D02*
G01*
X66800894Y-61772184D01*
X66717291Y-61763367D01*
X66649641Y-61740963D01*
X66597447Y-61704650D01*
X66560212Y-61654103D01*
X66537440Y-61589000D01*
X66533428Y-61560282D01*
X66532629Y-61509710D01*
X66537083Y-61454726D01*
X66545919Y-61401706D01*
X66558264Y-61357026D01*
X66573248Y-61327063D01*
X66587803Y-61317925D01*
X66612740Y-61314208D01*
X66636979Y-61317877D01*
X66650878Y-61328724D01*
X66651793Y-61336698D01*
X66648314Y-61362060D01*
X66639401Y-61394248D01*
X66633407Y-61414618D01*
X66624416Y-61466085D01*
X66622328Y-61517876D01*
X66627159Y-61563221D01*
X66638925Y-61595345D01*
X66641075Y-61598499D01*
X66673787Y-61630952D01*
X66715827Y-61654155D01*
X66758271Y-61663044D01*
X66792666Y-61663084D01*
X66792666Y-61529645D01*
X66866750Y-61529645D01*
X66866874Y-61578620D01*
X66867651Y-61618172D01*
X66869639Y-61642965D01*
X66873395Y-61656428D01*
X66879477Y-61661992D01*
X66888442Y-61663084D01*
X66901724Y-61662120D01*
X66943817Y-61646922D01*
X66980015Y-61617159D01*
X67005366Y-61577879D01*
X67014916Y-61534131D01*
X67014882Y-61529782D01*
X67007937Y-61481864D01*
X66987323Y-61446457D01*
X66950732Y-61421020D01*
X66895854Y-61403009D01*
X66866750Y-61396206D01*
X66866750Y-61529645D01*
X66792666Y-61529645D01*
X66792666Y-61489755D01*
X66792712Y-61444228D01*
X66793530Y-61385641D01*
X66796377Y-61343963D01*
X66802521Y-61316556D01*
X66813231Y-61300783D01*
X66829775Y-61294007D01*
X66853422Y-61293590D01*
X66885441Y-61296895D01*
X66955700Y-61311414D01*
X67015260Y-61339466D01*
X67058525Y-61380787D01*
X67085907Y-61435779D01*
X67097814Y-61504844D01*
X67098264Y-61541227D01*
X67095222Y-61583789D01*
X67089019Y-61615400D01*
X67070171Y-61656761D01*
X67029017Y-61705748D01*
X66972490Y-61741905D01*
X66902043Y-61764386D01*
X66888442Y-61765693D01*
X66819125Y-61772348D01*
G37*
X66819125Y-61772348D02*
X66800894Y-61772184D01*
X66717291Y-61763367D01*
X66649641Y-61740963D01*
X66597447Y-61704650D01*
X66560212Y-61654103D01*
X66537440Y-61589000D01*
X66533428Y-61560282D01*
X66532629Y-61509710D01*
X66537083Y-61454726D01*
X66545919Y-61401706D01*
X66558264Y-61357026D01*
X66573248Y-61327063D01*
X66587803Y-61317925D01*
X66612740Y-61314208D01*
X66636979Y-61317877D01*
X66650878Y-61328724D01*
X66651793Y-61336698D01*
X66648314Y-61362060D01*
X66639401Y-61394248D01*
X66633407Y-61414618D01*
X66624416Y-61466085D01*
X66622328Y-61517876D01*
X66627159Y-61563221D01*
X66638925Y-61595345D01*
X66641075Y-61598499D01*
X66673787Y-61630952D01*
X66715827Y-61654155D01*
X66758271Y-61663044D01*
X66792666Y-61663084D01*
X66792666Y-61529645D01*
X66866750Y-61529645D01*
X66866874Y-61578620D01*
X66867651Y-61618172D01*
X66869639Y-61642965D01*
X66873395Y-61656428D01*
X66879477Y-61661992D01*
X66888442Y-61663084D01*
X66901724Y-61662120D01*
X66943817Y-61646922D01*
X66980015Y-61617159D01*
X67005366Y-61577879D01*
X67014916Y-61534131D01*
X67014882Y-61529782D01*
X67007937Y-61481864D01*
X66987323Y-61446457D01*
X66950732Y-61421020D01*
X66895854Y-61403009D01*
X66866750Y-61396206D01*
X66866750Y-61529645D01*
X66792666Y-61529645D01*
X66792666Y-61489755D01*
X66792712Y-61444228D01*
X66793530Y-61385641D01*
X66796377Y-61343963D01*
X66802521Y-61316556D01*
X66813231Y-61300783D01*
X66829775Y-61294007D01*
X66853422Y-61293590D01*
X66885441Y-61296895D01*
X66955700Y-61311414D01*
X67015260Y-61339466D01*
X67058525Y-61380787D01*
X67085907Y-61435779D01*
X67097814Y-61504844D01*
X67098264Y-61541227D01*
X67095222Y-61583789D01*
X67089019Y-61615400D01*
X67070171Y-61656761D01*
X67029017Y-61705748D01*
X66972490Y-61741905D01*
X66902043Y-61764386D01*
X66888442Y-61765693D01*
X66819125Y-61772348D01*
G36*
X66839325Y-60803609D02*
G01*
X66827808Y-60804141D01*
X66740358Y-60800373D01*
X66668111Y-60781965D01*
X66611112Y-60748943D01*
X66569406Y-60701330D01*
X66543038Y-60639153D01*
X66539353Y-60624790D01*
X66530528Y-60574199D01*
X66530396Y-60524692D01*
X66538699Y-60465966D01*
X66548566Y-60418137D01*
X66559259Y-60383378D01*
X66572200Y-60362906D01*
X66589692Y-60353203D01*
X66614034Y-60350750D01*
X66625312Y-60350937D01*
X66645635Y-60354451D01*
X66653771Y-60365504D01*
X66651022Y-60388077D01*
X66638691Y-60426149D01*
X66637460Y-60429733D01*
X66626103Y-60480189D01*
X66622492Y-60534784D01*
X66626635Y-60585575D01*
X66638537Y-60624619D01*
X66656629Y-60649921D01*
X66696144Y-60677002D01*
X66752979Y-60693774D01*
X66792666Y-60700960D01*
X66792667Y-60700404D01*
X66866750Y-60700404D01*
X66895854Y-60693425D01*
X66938458Y-60679060D01*
X66981198Y-60649584D01*
X67006553Y-60608289D01*
X67014916Y-60554714D01*
X67014839Y-60550670D01*
X67009518Y-60517119D01*
X66998399Y-60490628D01*
X66973233Y-60465587D01*
X66933892Y-60443887D01*
X66893734Y-60435417D01*
X66866750Y-60435417D01*
X66866750Y-60700404D01*
X66792667Y-60700404D01*
X66792829Y-60528501D01*
X66793099Y-60489742D01*
X66794350Y-60434609D01*
X66796435Y-60388879D01*
X66799158Y-60356473D01*
X66802318Y-60341313D01*
X66804063Y-60339030D01*
X66817405Y-60332260D01*
X66843326Y-60330039D01*
X66885966Y-60331901D01*
X66923656Y-60336019D01*
X66977453Y-60350271D01*
X67020894Y-60376036D01*
X67060144Y-60416303D01*
X67069774Y-60428908D01*
X67084142Y-60454493D01*
X67092323Y-60485014D01*
X67096977Y-60528577D01*
X67098331Y-60559736D01*
X67093318Y-60621076D01*
X67075687Y-60671812D01*
X67043902Y-60717407D01*
X67017261Y-60744055D01*
X66969636Y-60775469D01*
X66911882Y-60794663D01*
X66866750Y-60800228D01*
X66839325Y-60803609D01*
G37*
X66839325Y-60803609D02*
X66827808Y-60804141D01*
X66740358Y-60800373D01*
X66668111Y-60781965D01*
X66611112Y-60748943D01*
X66569406Y-60701330D01*
X66543038Y-60639153D01*
X66539353Y-60624790D01*
X66530528Y-60574199D01*
X66530396Y-60524692D01*
X66538699Y-60465966D01*
X66548566Y-60418137D01*
X66559259Y-60383378D01*
X66572200Y-60362906D01*
X66589692Y-60353203D01*
X66614034Y-60350750D01*
X66625312Y-60350937D01*
X66645635Y-60354451D01*
X66653771Y-60365504D01*
X66651022Y-60388077D01*
X66638691Y-60426149D01*
X66637460Y-60429733D01*
X66626103Y-60480189D01*
X66622492Y-60534784D01*
X66626635Y-60585575D01*
X66638537Y-60624619D01*
X66656629Y-60649921D01*
X66696144Y-60677002D01*
X66752979Y-60693774D01*
X66792666Y-60700960D01*
X66792667Y-60700404D01*
X66866750Y-60700404D01*
X66895854Y-60693425D01*
X66938458Y-60679060D01*
X66981198Y-60649584D01*
X67006553Y-60608289D01*
X67014916Y-60554714D01*
X67014839Y-60550670D01*
X67009518Y-60517119D01*
X66998399Y-60490628D01*
X66973233Y-60465587D01*
X66933892Y-60443887D01*
X66893734Y-60435417D01*
X66866750Y-60435417D01*
X66866750Y-60700404D01*
X66792667Y-60700404D01*
X66792829Y-60528501D01*
X66793099Y-60489742D01*
X66794350Y-60434609D01*
X66796435Y-60388879D01*
X66799158Y-60356473D01*
X66802318Y-60341313D01*
X66804063Y-60339030D01*
X66817405Y-60332260D01*
X66843326Y-60330039D01*
X66885966Y-60331901D01*
X66923656Y-60336019D01*
X66977453Y-60350271D01*
X67020894Y-60376036D01*
X67060144Y-60416303D01*
X67069774Y-60428908D01*
X67084142Y-60454493D01*
X67092323Y-60485014D01*
X67096977Y-60528577D01*
X67098331Y-60559736D01*
X67093318Y-60621076D01*
X67075687Y-60671812D01*
X67043902Y-60717407D01*
X67017261Y-60744055D01*
X66969636Y-60775469D01*
X66911882Y-60794663D01*
X66866750Y-60800228D01*
X66839325Y-60803609D01*
G36*
X66784602Y-60221681D02*
G01*
X66722724Y-60215525D01*
X66652082Y-60197441D01*
X66598252Y-60167789D01*
X66560386Y-60126056D01*
X66537631Y-60071724D01*
X66532397Y-60014548D01*
X66537750Y-59984218D01*
X66623746Y-59984218D01*
X66628965Y-60026944D01*
X66653271Y-60064817D01*
X66665784Y-60075778D01*
X66713216Y-60101213D01*
X66770553Y-60115008D01*
X66832192Y-60117301D01*
X66892527Y-60108230D01*
X66945955Y-60087935D01*
X66986871Y-60056555D01*
X66994276Y-60046818D01*
X67006843Y-60009387D01*
X67001932Y-59966424D01*
X66980403Y-59921435D01*
X66943115Y-59877930D01*
X66932136Y-59868732D01*
X66916614Y-59860540D01*
X66895184Y-59855890D01*
X66862763Y-59853811D01*
X66814268Y-59853334D01*
X66792968Y-59853419D01*
X66747006Y-59855380D01*
X66714466Y-59862039D01*
X66689693Y-59876146D01*
X66667033Y-59900453D01*
X66640831Y-59937710D01*
X66638134Y-59941947D01*
X66623746Y-59984218D01*
X66537750Y-59984218D01*
X66543416Y-59952120D01*
X66569711Y-59893645D01*
X66600517Y-59843997D01*
X66572238Y-59840728D01*
X66570289Y-59840493D01*
X66552977Y-59835638D01*
X66545542Y-59822680D01*
X66543958Y-59795125D01*
X66543958Y-59752792D01*
X66937953Y-59750018D01*
X67331949Y-59747243D01*
X67338622Y-59773830D01*
X67341284Y-59794998D01*
X67338654Y-59826875D01*
X67332013Y-59853334D01*
X67189340Y-59853334D01*
X67174832Y-59853363D01*
X67124548Y-59853962D01*
X67083853Y-59855213D01*
X67056606Y-59856962D01*
X67046666Y-59859054D01*
X67046916Y-59860229D01*
X67054638Y-59874147D01*
X67069802Y-59896066D01*
X67071130Y-59897908D01*
X67090594Y-59941061D01*
X67098672Y-59994262D01*
X67095011Y-60049885D01*
X67079259Y-60100303D01*
X67058743Y-60133906D01*
X67013685Y-60176310D01*
X66953207Y-60204979D01*
X66876961Y-60220055D01*
X66832192Y-60220844D01*
X66784602Y-60221681D01*
G37*
X66784602Y-60221681D02*
X66722724Y-60215525D01*
X66652082Y-60197441D01*
X66598252Y-60167789D01*
X66560386Y-60126056D01*
X66537631Y-60071724D01*
X66532397Y-60014548D01*
X66537750Y-59984218D01*
X66623746Y-59984218D01*
X66628965Y-60026944D01*
X66653271Y-60064817D01*
X66665784Y-60075778D01*
X66713216Y-60101213D01*
X66770553Y-60115008D01*
X66832192Y-60117301D01*
X66892527Y-60108230D01*
X66945955Y-60087935D01*
X66986871Y-60056555D01*
X66994276Y-60046818D01*
X67006843Y-60009387D01*
X67001932Y-59966424D01*
X66980403Y-59921435D01*
X66943115Y-59877930D01*
X66932136Y-59868732D01*
X66916614Y-59860540D01*
X66895184Y-59855890D01*
X66862763Y-59853811D01*
X66814268Y-59853334D01*
X66792968Y-59853419D01*
X66747006Y-59855380D01*
X66714466Y-59862039D01*
X66689693Y-59876146D01*
X66667033Y-59900453D01*
X66640831Y-59937710D01*
X66638134Y-59941947D01*
X66623746Y-59984218D01*
X66537750Y-59984218D01*
X66543416Y-59952120D01*
X66569711Y-59893645D01*
X66600517Y-59843997D01*
X66572238Y-59840728D01*
X66570289Y-59840493D01*
X66552977Y-59835638D01*
X66545542Y-59822680D01*
X66543958Y-59795125D01*
X66543958Y-59752792D01*
X66937953Y-59750018D01*
X67331949Y-59747243D01*
X67338622Y-59773830D01*
X67341284Y-59794998D01*
X67338654Y-59826875D01*
X67332013Y-59853334D01*
X67189340Y-59853334D01*
X67174832Y-59853363D01*
X67124548Y-59853962D01*
X67083853Y-59855213D01*
X67056606Y-59856962D01*
X67046666Y-59859054D01*
X67046916Y-59860229D01*
X67054638Y-59874147D01*
X67069802Y-59896066D01*
X67071130Y-59897908D01*
X67090594Y-59941061D01*
X67098672Y-59994262D01*
X67095011Y-60049885D01*
X67079259Y-60100303D01*
X67058743Y-60133906D01*
X67013685Y-60176310D01*
X66953207Y-60204979D01*
X66876961Y-60220055D01*
X66832192Y-60220844D01*
X66784602Y-60221681D01*
G36*
X66543958Y-59276542D02*
G01*
X66543969Y-59272648D01*
X66545957Y-59247032D01*
X66554269Y-59235278D01*
X66573065Y-59230860D01*
X66602171Y-59227511D01*
X66577061Y-59193818D01*
X66574849Y-59190787D01*
X66555033Y-59158814D01*
X66540853Y-59128375D01*
X66533241Y-59100096D01*
X66532402Y-59067911D01*
X66623682Y-59067911D01*
X66631738Y-59110218D01*
X66659838Y-59157265D01*
X66675769Y-59176806D01*
X66697889Y-59199965D01*
X66713620Y-59211704D01*
X66717992Y-59212849D01*
X66742174Y-59215651D01*
X66779268Y-59217602D01*
X66823206Y-59218334D01*
X66867208Y-59218001D01*
X66896744Y-59215955D01*
X66916390Y-59210636D01*
X66931845Y-59200484D01*
X66948804Y-59183938D01*
X66954565Y-59177666D01*
X66980043Y-59143554D01*
X66998988Y-59109040D01*
X67001635Y-59102617D01*
X67009870Y-59077083D01*
X67008387Y-59056872D01*
X66996878Y-59030504D01*
X66981140Y-59005714D01*
X66945800Y-58976161D01*
X66896526Y-58959182D01*
X66831101Y-58953750D01*
X66797844Y-58954554D01*
X66732741Y-58962947D01*
X66683890Y-58980993D01*
X66649165Y-59009342D01*
X66635549Y-59028653D01*
X66623682Y-59067911D01*
X66532402Y-59067911D01*
X66531619Y-59037871D01*
X66549988Y-58977449D01*
X66587657Y-58921882D01*
X66590444Y-58918851D01*
X66632414Y-58884167D01*
X66684402Y-58860686D01*
X66749584Y-58847382D01*
X66831135Y-58843231D01*
X66854983Y-58843374D01*
X66896994Y-58845090D01*
X66928521Y-58849940D01*
X66956954Y-58859404D01*
X66989682Y-58874961D01*
X66994233Y-58877321D01*
X67045332Y-58910834D01*
X67077917Y-58949824D01*
X67094375Y-58998420D01*
X67097093Y-59060752D01*
X67096485Y-59071948D01*
X67091810Y-59112153D01*
X67082126Y-59141544D01*
X67064925Y-59168525D01*
X67056729Y-59179506D01*
X67041942Y-59200926D01*
X67036083Y-59212045D01*
X67037625Y-59212890D01*
X67054752Y-59215151D01*
X67087841Y-59217348D01*
X67133140Y-59219266D01*
X67186896Y-59220689D01*
X67337708Y-59223625D01*
X67337708Y-59318875D01*
X66543958Y-59318875D01*
X66543958Y-59276542D01*
G37*
X66543958Y-59276542D02*
X66543969Y-59272648D01*
X66545957Y-59247032D01*
X66554269Y-59235278D01*
X66573065Y-59230860D01*
X66602171Y-59227511D01*
X66577061Y-59193818D01*
X66574849Y-59190787D01*
X66555033Y-59158814D01*
X66540853Y-59128375D01*
X66533241Y-59100096D01*
X66532402Y-59067911D01*
X66623682Y-59067911D01*
X66631738Y-59110218D01*
X66659838Y-59157265D01*
X66675769Y-59176806D01*
X66697889Y-59199965D01*
X66713620Y-59211704D01*
X66717992Y-59212849D01*
X66742174Y-59215651D01*
X66779268Y-59217602D01*
X66823206Y-59218334D01*
X66867208Y-59218001D01*
X66896744Y-59215955D01*
X66916390Y-59210636D01*
X66931845Y-59200484D01*
X66948804Y-59183938D01*
X66954565Y-59177666D01*
X66980043Y-59143554D01*
X66998988Y-59109040D01*
X67001635Y-59102617D01*
X67009870Y-59077083D01*
X67008387Y-59056872D01*
X66996878Y-59030504D01*
X66981140Y-59005714D01*
X66945800Y-58976161D01*
X66896526Y-58959182D01*
X66831101Y-58953750D01*
X66797844Y-58954554D01*
X66732741Y-58962947D01*
X66683890Y-58980993D01*
X66649165Y-59009342D01*
X66635549Y-59028653D01*
X66623682Y-59067911D01*
X66532402Y-59067911D01*
X66531619Y-59037871D01*
X66549988Y-58977449D01*
X66587657Y-58921882D01*
X66590444Y-58918851D01*
X66632414Y-58884167D01*
X66684402Y-58860686D01*
X66749584Y-58847382D01*
X66831135Y-58843231D01*
X66854983Y-58843374D01*
X66896994Y-58845090D01*
X66928521Y-58849940D01*
X66956954Y-58859404D01*
X66989682Y-58874961D01*
X66994233Y-58877321D01*
X67045332Y-58910834D01*
X67077917Y-58949824D01*
X67094375Y-58998420D01*
X67097093Y-59060752D01*
X67096485Y-59071948D01*
X67091810Y-59112153D01*
X67082126Y-59141544D01*
X67064925Y-59168525D01*
X67056729Y-59179506D01*
X67041942Y-59200926D01*
X67036083Y-59212045D01*
X67037625Y-59212890D01*
X67054752Y-59215151D01*
X67087841Y-59217348D01*
X67133140Y-59219266D01*
X67186896Y-59220689D01*
X67337708Y-59223625D01*
X67337708Y-59318875D01*
X66543958Y-59318875D01*
X66543958Y-59276542D01*
G36*
X66766838Y-63736784D02*
G01*
X66695220Y-63735910D01*
X66634743Y-63734730D01*
X66587914Y-63733294D01*
X66557239Y-63731655D01*
X66545224Y-63729864D01*
X66543729Y-63727375D01*
X66540541Y-63708343D01*
X66540814Y-63679593D01*
X66543958Y-63636875D01*
X66793735Y-63631584D01*
X66906239Y-63631584D01*
X67194833Y-63631584D01*
X67194817Y-63565438D01*
X67194776Y-63559986D01*
X67189510Y-63504652D01*
X67176296Y-63462250D01*
X67175961Y-63461584D01*
X67146062Y-63423319D01*
X67105782Y-63399960D01*
X67059790Y-63391600D01*
X67012757Y-63398332D01*
X66969354Y-63420248D01*
X66934252Y-63457442D01*
X66926034Y-63476151D01*
X66917075Y-63513210D01*
X66911516Y-63557836D01*
X66906239Y-63631584D01*
X66793735Y-63631584D01*
X66821918Y-63630987D01*
X66826233Y-63533390D01*
X66826827Y-63521781D01*
X66835290Y-63451500D01*
X66852525Y-63396856D01*
X66880213Y-63354009D01*
X66920035Y-63319120D01*
X66966338Y-63295710D01*
X67027564Y-63281719D01*
X67091631Y-63281223D01*
X67152131Y-63294190D01*
X67202653Y-63320586D01*
X67228537Y-63344448D01*
X67253027Y-63380962D01*
X67270244Y-63428321D01*
X67281321Y-63489844D01*
X67287394Y-63568855D01*
X67288558Y-63591133D01*
X67291095Y-63631183D01*
X67292152Y-63663243D01*
X67289761Y-63688194D01*
X67281956Y-63706915D01*
X67266769Y-63720286D01*
X67242233Y-63729186D01*
X67206381Y-63734495D01*
X67157247Y-63737093D01*
X67092862Y-63737860D01*
X67011261Y-63737674D01*
X66910475Y-63737417D01*
X66906239Y-63737409D01*
X66847091Y-63737298D01*
X66766838Y-63736784D01*
G37*
X66766838Y-63736784D02*
X66695220Y-63735910D01*
X66634743Y-63734730D01*
X66587914Y-63733294D01*
X66557239Y-63731655D01*
X66545224Y-63729864D01*
X66543729Y-63727375D01*
X66540541Y-63708343D01*
X66540814Y-63679593D01*
X66543958Y-63636875D01*
X66793735Y-63631584D01*
X66906239Y-63631584D01*
X67194833Y-63631584D01*
X67194817Y-63565438D01*
X67194776Y-63559986D01*
X67189510Y-63504652D01*
X67176296Y-63462250D01*
X67175961Y-63461584D01*
X67146062Y-63423319D01*
X67105782Y-63399960D01*
X67059790Y-63391600D01*
X67012757Y-63398332D01*
X66969354Y-63420248D01*
X66934252Y-63457442D01*
X66926034Y-63476151D01*
X66917075Y-63513210D01*
X66911516Y-63557836D01*
X66906239Y-63631584D01*
X66793735Y-63631584D01*
X66821918Y-63630987D01*
X66826233Y-63533390D01*
X66826827Y-63521781D01*
X66835290Y-63451500D01*
X66852525Y-63396856D01*
X66880213Y-63354009D01*
X66920035Y-63319120D01*
X66966338Y-63295710D01*
X67027564Y-63281719D01*
X67091631Y-63281223D01*
X67152131Y-63294190D01*
X67202653Y-63320586D01*
X67228537Y-63344448D01*
X67253027Y-63380962D01*
X67270244Y-63428321D01*
X67281321Y-63489844D01*
X67287394Y-63568855D01*
X67288558Y-63591133D01*
X67291095Y-63631183D01*
X67292152Y-63663243D01*
X67289761Y-63688194D01*
X67281956Y-63706915D01*
X67266769Y-63720286D01*
X67242233Y-63729186D01*
X67206381Y-63734495D01*
X67157247Y-63737093D01*
X67092862Y-63737860D01*
X67011261Y-63737674D01*
X66910475Y-63737417D01*
X66906239Y-63737409D01*
X66847091Y-63737298D01*
X66766838Y-63736784D01*
G36*
X67083178Y-61850146D02*
G01*
X67093660Y-61873378D01*
X67091800Y-61910692D01*
X67089934Y-61918911D01*
X67086068Y-61926982D01*
X67078127Y-61934490D01*
X67063784Y-61942340D01*
X67040710Y-61951435D01*
X67006579Y-61962679D01*
X66959064Y-61976976D01*
X66895836Y-61995230D01*
X66814569Y-62018344D01*
X66794530Y-62024128D01*
X66748208Y-62038358D01*
X66712831Y-62050494D01*
X66691563Y-62059399D01*
X66687569Y-62063938D01*
X66701608Y-62068251D01*
X66732702Y-62077435D01*
X66777239Y-62090428D01*
X66831721Y-62106210D01*
X66892653Y-62123763D01*
X66939142Y-62137206D01*
X66994459Y-62153719D01*
X67034036Y-62166601D01*
X67060699Y-62177003D01*
X67077270Y-62186078D01*
X67086575Y-62194978D01*
X67091438Y-62204856D01*
X67094849Y-62225709D01*
X67090563Y-62256930D01*
X67087385Y-62263410D01*
X67079221Y-62272171D01*
X67064475Y-62280793D01*
X67040354Y-62290328D01*
X67004068Y-62301829D01*
X66952828Y-62316350D01*
X66883841Y-62334944D01*
X66877752Y-62336568D01*
X66817362Y-62352979D01*
X66764956Y-62367750D01*
X66723658Y-62379962D01*
X66696595Y-62388691D01*
X66686892Y-62393016D01*
X66687116Y-62393344D01*
X66699566Y-62398601D01*
X66728860Y-62408460D01*
X66771918Y-62421952D01*
X66825661Y-62438108D01*
X66887007Y-62455960D01*
X66907350Y-62461797D01*
X66970987Y-62480272D01*
X67017696Y-62494501D01*
X67050203Y-62505618D01*
X67071235Y-62514760D01*
X67083518Y-62523063D01*
X67089779Y-62531664D01*
X67092744Y-62541699D01*
X67093551Y-62546057D01*
X67094501Y-62581781D01*
X67084845Y-62606407D01*
X67066151Y-62615584D01*
X67057599Y-62613976D01*
X67030842Y-62607068D01*
X66989825Y-62595656D01*
X66937988Y-62580771D01*
X66878770Y-62563441D01*
X66815614Y-62544695D01*
X66751958Y-62525564D01*
X66691244Y-62507076D01*
X66636911Y-62490260D01*
X66592400Y-62476147D01*
X66561151Y-62465764D01*
X66546604Y-62460142D01*
X66543441Y-62453509D01*
X66540002Y-62430541D01*
X66538666Y-62397774D01*
X66538607Y-62375197D01*
X66540203Y-62358016D01*
X66546132Y-62344738D01*
X66559072Y-62333768D01*
X66581697Y-62323511D01*
X66616686Y-62312369D01*
X66666714Y-62298748D01*
X66734458Y-62281052D01*
X66755860Y-62275404D01*
X66806734Y-62261540D01*
X66848715Y-62249484D01*
X66877928Y-62240369D01*
X66890500Y-62235331D01*
X66888209Y-62232625D01*
X66869888Y-62224526D01*
X66836441Y-62212668D01*
X66791087Y-62198168D01*
X66737042Y-62182140D01*
X66704695Y-62172793D01*
X66651082Y-62156928D01*
X66605883Y-62143085D01*
X66573085Y-62132499D01*
X66556678Y-62126400D01*
X66553617Y-62124698D01*
X66544034Y-62113740D01*
X66540194Y-62093127D01*
X66540803Y-62057222D01*
X66543958Y-61997566D01*
X66792666Y-61920407D01*
X66842832Y-61904982D01*
X66909056Y-61885066D01*
X66967340Y-61868051D01*
X67014625Y-61854807D01*
X67047849Y-61846208D01*
X67063953Y-61843124D01*
X67083178Y-61850146D01*
G37*
X67083178Y-61850146D02*
X67093660Y-61873378D01*
X67091800Y-61910692D01*
X67089934Y-61918911D01*
X67086068Y-61926982D01*
X67078127Y-61934490D01*
X67063784Y-61942340D01*
X67040710Y-61951435D01*
X67006579Y-61962679D01*
X66959064Y-61976976D01*
X66895836Y-61995230D01*
X66814569Y-62018344D01*
X66794530Y-62024128D01*
X66748208Y-62038358D01*
X66712831Y-62050494D01*
X66691563Y-62059399D01*
X66687569Y-62063938D01*
X66701608Y-62068251D01*
X66732702Y-62077435D01*
X66777239Y-62090428D01*
X66831721Y-62106210D01*
X66892653Y-62123763D01*
X66939142Y-62137206D01*
X66994459Y-62153719D01*
X67034036Y-62166601D01*
X67060699Y-62177003D01*
X67077270Y-62186078D01*
X67086575Y-62194978D01*
X67091438Y-62204856D01*
X67094849Y-62225709D01*
X67090563Y-62256930D01*
X67087385Y-62263410D01*
X67079221Y-62272171D01*
X67064475Y-62280793D01*
X67040354Y-62290328D01*
X67004068Y-62301829D01*
X66952828Y-62316350D01*
X66883841Y-62334944D01*
X66877752Y-62336568D01*
X66817362Y-62352979D01*
X66764956Y-62367750D01*
X66723658Y-62379962D01*
X66696595Y-62388691D01*
X66686892Y-62393016D01*
X66687116Y-62393344D01*
X66699566Y-62398601D01*
X66728860Y-62408460D01*
X66771918Y-62421952D01*
X66825661Y-62438108D01*
X66887007Y-62455960D01*
X66907350Y-62461797D01*
X66970987Y-62480272D01*
X67017696Y-62494501D01*
X67050203Y-62505618D01*
X67071235Y-62514760D01*
X67083518Y-62523063D01*
X67089779Y-62531664D01*
X67092744Y-62541699D01*
X67093551Y-62546057D01*
X67094501Y-62581781D01*
X67084845Y-62606407D01*
X67066151Y-62615584D01*
X67057599Y-62613976D01*
X67030842Y-62607068D01*
X66989825Y-62595656D01*
X66937988Y-62580771D01*
X66878770Y-62563441D01*
X66815614Y-62544695D01*
X66751958Y-62525564D01*
X66691244Y-62507076D01*
X66636911Y-62490260D01*
X66592400Y-62476147D01*
X66561151Y-62465764D01*
X66546604Y-62460142D01*
X66543441Y-62453509D01*
X66540002Y-62430541D01*
X66538666Y-62397774D01*
X66538607Y-62375197D01*
X66540203Y-62358016D01*
X66546132Y-62344738D01*
X66559072Y-62333768D01*
X66581697Y-62323511D01*
X66616686Y-62312369D01*
X66666714Y-62298748D01*
X66734458Y-62281052D01*
X66755860Y-62275404D01*
X66806734Y-62261540D01*
X66848715Y-62249484D01*
X66877928Y-62240369D01*
X66890500Y-62235331D01*
X66888209Y-62232625D01*
X66869888Y-62224526D01*
X66836441Y-62212668D01*
X66791087Y-62198168D01*
X66737042Y-62182140D01*
X66704695Y-62172793D01*
X66651082Y-62156928D01*
X66605883Y-62143085D01*
X66573085Y-62132499D01*
X66556678Y-62126400D01*
X66553617Y-62124698D01*
X66544034Y-62113740D01*
X66540194Y-62093127D01*
X66540803Y-62057222D01*
X66543958Y-61997566D01*
X66792666Y-61920407D01*
X66842832Y-61904982D01*
X66909056Y-61885066D01*
X66967340Y-61868051D01*
X67014625Y-61854807D01*
X67047849Y-61846208D01*
X67063953Y-61843124D01*
X67083178Y-61850146D01*
G36*
X67049711Y-60858818D02*
G01*
X67075693Y-60861135D01*
X67088764Y-60869093D01*
X67095398Y-60885848D01*
X67095603Y-60886674D01*
X67099267Y-60941681D01*
X67084452Y-60993349D01*
X67052767Y-61036015D01*
X67015227Y-61070417D01*
X67050879Y-61070417D01*
X67059169Y-61070729D01*
X67083985Y-61079232D01*
X67094419Y-61100980D01*
X67091791Y-61138156D01*
X67086532Y-61165667D01*
X66819655Y-61165667D01*
X66759496Y-61165474D01*
X66691883Y-61164753D01*
X66633720Y-61163576D01*
X66587937Y-61162024D01*
X66557462Y-61160176D01*
X66545224Y-61158114D01*
X66543729Y-61155625D01*
X66540541Y-61136593D01*
X66540814Y-61107843D01*
X66543958Y-61065125D01*
X66717227Y-61062211D01*
X66890495Y-61059297D01*
X66935521Y-61026962D01*
X66952447Y-61014016D01*
X66984345Y-60980264D01*
X66998660Y-60944009D01*
X66997722Y-60900512D01*
X66991045Y-60858750D01*
X67039821Y-60858750D01*
X67049711Y-60858818D01*
G37*
X67049711Y-60858818D02*
X67075693Y-60861135D01*
X67088764Y-60869093D01*
X67095398Y-60885848D01*
X67095603Y-60886674D01*
X67099267Y-60941681D01*
X67084452Y-60993349D01*
X67052767Y-61036015D01*
X67015227Y-61070417D01*
X67050879Y-61070417D01*
X67059169Y-61070729D01*
X67083985Y-61079232D01*
X67094419Y-61100980D01*
X67091791Y-61138156D01*
X67086532Y-61165667D01*
X66819655Y-61165667D01*
X66759496Y-61165474D01*
X66691883Y-61164753D01*
X66633720Y-61163576D01*
X66587937Y-61162024D01*
X66557462Y-61160176D01*
X66545224Y-61158114D01*
X66543729Y-61155625D01*
X66540541Y-61136593D01*
X66540814Y-61107843D01*
X66543958Y-61065125D01*
X66717227Y-61062211D01*
X66890495Y-61059297D01*
X66935521Y-61026962D01*
X66952447Y-61014016D01*
X66984345Y-60980264D01*
X66998660Y-60944009D01*
X66997722Y-60900512D01*
X66991045Y-60858750D01*
X67039821Y-60858750D01*
X67049711Y-60858818D01*
G36*
X41496383Y-53636193D02*
G01*
X41494486Y-53694492D01*
X41491941Y-53748640D01*
X41488799Y-53796048D01*
X41485112Y-53834126D01*
X41480933Y-53860286D01*
X41462535Y-53932002D01*
X41417243Y-54064441D01*
X41358687Y-54191445D01*
X41287232Y-54312358D01*
X41203242Y-54426524D01*
X41107082Y-54533285D01*
X41101367Y-54538982D01*
X41076194Y-54563082D01*
X41048133Y-54588723D01*
X41019430Y-54613992D01*
X40992327Y-54636976D01*
X40969070Y-54655762D01*
X40951904Y-54668436D01*
X40943071Y-54673086D01*
X40937819Y-54675357D01*
X40923498Y-54684209D01*
X40904401Y-54697459D01*
X40883897Y-54711905D01*
X40795395Y-54766605D01*
X40698166Y-54816092D01*
X40596328Y-54858599D01*
X40494000Y-54892362D01*
X40395300Y-54915617D01*
X40384271Y-54917341D01*
X40346601Y-54920991D01*
X40294510Y-54923702D01*
X40228041Y-54925472D01*
X40147240Y-54926301D01*
X40145572Y-54926307D01*
X40070876Y-54926142D01*
X40007869Y-54924784D01*
X39953806Y-54921884D01*
X39905941Y-54917090D01*
X39861529Y-54910053D01*
X39817824Y-54900421D01*
X39772082Y-54887846D01*
X39721557Y-54871976D01*
X39697719Y-54863842D01*
X39593411Y-54821164D01*
X39488007Y-54767329D01*
X39384623Y-54704355D01*
X39286371Y-54634259D01*
X39196367Y-54559058D01*
X39117723Y-54480772D01*
X39033272Y-54378957D01*
X38958856Y-54268817D01*
X38897011Y-54152584D01*
X38847039Y-54028941D01*
X38808244Y-53896572D01*
X38805652Y-53885790D01*
X38800706Y-53863573D01*
X38796818Y-53842255D01*
X38793817Y-53819633D01*
X38791536Y-53793506D01*
X38789805Y-53761673D01*
X38788454Y-53721931D01*
X38787315Y-53672079D01*
X38786218Y-53609914D01*
X38786128Y-53603394D01*
X39049082Y-53603394D01*
X39049702Y-53658109D01*
X39051475Y-53707285D01*
X39054468Y-53747800D01*
X39054752Y-53750475D01*
X39065201Y-53813646D01*
X39082810Y-53883441D01*
X39106054Y-53955129D01*
X39133406Y-54023978D01*
X39163339Y-54085257D01*
X39204299Y-54153568D01*
X39278232Y-54253814D01*
X39364537Y-54346802D01*
X39462886Y-54432154D01*
X39526215Y-54479380D01*
X39611553Y-54535026D01*
X39694908Y-54579237D01*
X39778609Y-54613058D01*
X39864987Y-54637536D01*
X39956371Y-54653717D01*
X40019477Y-54661295D01*
X40082414Y-54666748D01*
X40139944Y-54668780D01*
X40196707Y-54667401D01*
X40257341Y-54662620D01*
X40326486Y-54654446D01*
X40372175Y-54647490D01*
X40449576Y-54630146D01*
X40523026Y-54605350D01*
X40598935Y-54571144D01*
X40670043Y-54532627D01*
X40776952Y-54462149D01*
X40875030Y-54381467D01*
X40963435Y-54291570D01*
X41041328Y-54193444D01*
X41107870Y-54088080D01*
X41162221Y-53976464D01*
X41203542Y-53859585D01*
X41212556Y-53824795D01*
X41227450Y-53741235D01*
X41235808Y-53650235D01*
X41237628Y-53555579D01*
X41232910Y-53461054D01*
X41221649Y-53370443D01*
X41203845Y-53287533D01*
X41200723Y-53276438D01*
X41178047Y-53209940D01*
X41147894Y-53138344D01*
X41112462Y-53066186D01*
X41073951Y-52998000D01*
X41034558Y-52938322D01*
X40973244Y-52861033D01*
X40889085Y-52773068D01*
X40796805Y-52693960D01*
X40698257Y-52625120D01*
X40595295Y-52567957D01*
X40489771Y-52523882D01*
X40459475Y-52514362D01*
X40385853Y-52497689D01*
X40303202Y-52486195D01*
X40214610Y-52479873D01*
X40123167Y-52478715D01*
X40031961Y-52482713D01*
X39944082Y-52491861D01*
X39862619Y-52506150D01*
X39790661Y-52525574D01*
X39725959Y-52549657D01*
X39619202Y-52601172D01*
X39518231Y-52664703D01*
X39424110Y-52739049D01*
X39337906Y-52823009D01*
X39260685Y-52915385D01*
X39193512Y-53014975D01*
X39137453Y-53120579D01*
X39093576Y-53230997D01*
X39062944Y-53345029D01*
X39060993Y-53356067D01*
X39056829Y-53391621D01*
X39053490Y-53437255D01*
X39051042Y-53489844D01*
X39049551Y-53546264D01*
X39049082Y-53603394D01*
X38786128Y-53603394D01*
X38785344Y-53546321D01*
X38785091Y-53483818D01*
X38785873Y-53431263D01*
X38787914Y-53386208D01*
X38791437Y-53346206D01*
X38796666Y-53308809D01*
X38803825Y-53271570D01*
X38813138Y-53232040D01*
X38824829Y-53187772D01*
X38839749Y-53138769D01*
X38867970Y-53062691D01*
X38902019Y-52985154D01*
X38939980Y-52910122D01*
X38979942Y-52841560D01*
X39019990Y-52783431D01*
X39029460Y-52771014D01*
X39051291Y-52742226D01*
X39071451Y-52715471D01*
X39087215Y-52695733D01*
X39119886Y-52658987D01*
X39159303Y-52618158D01*
X39202493Y-52576107D01*
X39246487Y-52535696D01*
X39288312Y-52499786D01*
X39325000Y-52471240D01*
X39390046Y-52426015D01*
X39474375Y-52373419D01*
X39556171Y-52330076D01*
X39638608Y-52294346D01*
X39724861Y-52264587D01*
X39739517Y-52260137D01*
X39777194Y-52249254D01*
X39811603Y-52240528D01*
X39844968Y-52233726D01*
X39879511Y-52228616D01*
X39917455Y-52224964D01*
X39961020Y-52222538D01*
X40012430Y-52221104D01*
X40073907Y-52220431D01*
X40147673Y-52220285D01*
X40178421Y-52220328D01*
X40247324Y-52220763D01*
X40304859Y-52221880D01*
X40353284Y-52223944D01*
X40394853Y-52227222D01*
X40431822Y-52231980D01*
X40466448Y-52238483D01*
X40500986Y-52246998D01*
X40537691Y-52257790D01*
X40578820Y-52271126D01*
X40650707Y-52298011D01*
X40751374Y-52344897D01*
X40850511Y-52401216D01*
X40945523Y-52465182D01*
X41033816Y-52535007D01*
X41112793Y-52608903D01*
X41179860Y-52685084D01*
X41193155Y-52701941D01*
X41213302Y-52727204D01*
X41229829Y-52747597D01*
X41240087Y-52759831D01*
X41253018Y-52775804D01*
X41277299Y-52810594D01*
X41304544Y-52854162D01*
X41333172Y-52903647D01*
X41361604Y-52956188D01*
X41388259Y-53008925D01*
X41411559Y-53058997D01*
X41429922Y-53103545D01*
X41437886Y-53126087D01*
X41453475Y-53177084D01*
X41468503Y-53234202D01*
X41481584Y-53291998D01*
X41491334Y-53345029D01*
X41494300Y-53373046D01*
X41496433Y-53413266D01*
X41497655Y-53462279D01*
X41498019Y-53517497D01*
X41497733Y-53555579D01*
X41497578Y-53576332D01*
X41496383Y-53636193D01*
G37*
X41496383Y-53636193D02*
X41494486Y-53694492D01*
X41491941Y-53748640D01*
X41488799Y-53796048D01*
X41485112Y-53834126D01*
X41480933Y-53860286D01*
X41462535Y-53932002D01*
X41417243Y-54064441D01*
X41358687Y-54191445D01*
X41287232Y-54312358D01*
X41203242Y-54426524D01*
X41107082Y-54533285D01*
X41101367Y-54538982D01*
X41076194Y-54563082D01*
X41048133Y-54588723D01*
X41019430Y-54613992D01*
X40992327Y-54636976D01*
X40969070Y-54655762D01*
X40951904Y-54668436D01*
X40943071Y-54673086D01*
X40937819Y-54675357D01*
X40923498Y-54684209D01*
X40904401Y-54697459D01*
X40883897Y-54711905D01*
X40795395Y-54766605D01*
X40698166Y-54816092D01*
X40596328Y-54858599D01*
X40494000Y-54892362D01*
X40395300Y-54915617D01*
X40384271Y-54917341D01*
X40346601Y-54920991D01*
X40294510Y-54923702D01*
X40228041Y-54925472D01*
X40147240Y-54926301D01*
X40145572Y-54926307D01*
X40070876Y-54926142D01*
X40007869Y-54924784D01*
X39953806Y-54921884D01*
X39905941Y-54917090D01*
X39861529Y-54910053D01*
X39817824Y-54900421D01*
X39772082Y-54887846D01*
X39721557Y-54871976D01*
X39697719Y-54863842D01*
X39593411Y-54821164D01*
X39488007Y-54767329D01*
X39384623Y-54704355D01*
X39286371Y-54634259D01*
X39196367Y-54559058D01*
X39117723Y-54480772D01*
X39033272Y-54378957D01*
X38958856Y-54268817D01*
X38897011Y-54152584D01*
X38847039Y-54028941D01*
X38808244Y-53896572D01*
X38805652Y-53885790D01*
X38800706Y-53863573D01*
X38796818Y-53842255D01*
X38793817Y-53819633D01*
X38791536Y-53793506D01*
X38789805Y-53761673D01*
X38788454Y-53721931D01*
X38787315Y-53672079D01*
X38786218Y-53609914D01*
X38786128Y-53603394D01*
X39049082Y-53603394D01*
X39049702Y-53658109D01*
X39051475Y-53707285D01*
X39054468Y-53747800D01*
X39054752Y-53750475D01*
X39065201Y-53813646D01*
X39082810Y-53883441D01*
X39106054Y-53955129D01*
X39133406Y-54023978D01*
X39163339Y-54085257D01*
X39204299Y-54153568D01*
X39278232Y-54253814D01*
X39364537Y-54346802D01*
X39462886Y-54432154D01*
X39526215Y-54479380D01*
X39611553Y-54535026D01*
X39694908Y-54579237D01*
X39778609Y-54613058D01*
X39864987Y-54637536D01*
X39956371Y-54653717D01*
X40019477Y-54661295D01*
X40082414Y-54666748D01*
X40139944Y-54668780D01*
X40196707Y-54667401D01*
X40257341Y-54662620D01*
X40326486Y-54654446D01*
X40372175Y-54647490D01*
X40449576Y-54630146D01*
X40523026Y-54605350D01*
X40598935Y-54571144D01*
X40670043Y-54532627D01*
X40776952Y-54462149D01*
X40875030Y-54381467D01*
X40963435Y-54291570D01*
X41041328Y-54193444D01*
X41107870Y-54088080D01*
X41162221Y-53976464D01*
X41203542Y-53859585D01*
X41212556Y-53824795D01*
X41227450Y-53741235D01*
X41235808Y-53650235D01*
X41237628Y-53555579D01*
X41232910Y-53461054D01*
X41221649Y-53370443D01*
X41203845Y-53287533D01*
X41200723Y-53276438D01*
X41178047Y-53209940D01*
X41147894Y-53138344D01*
X41112462Y-53066186D01*
X41073951Y-52998000D01*
X41034558Y-52938322D01*
X40973244Y-52861033D01*
X40889085Y-52773068D01*
X40796805Y-52693960D01*
X40698257Y-52625120D01*
X40595295Y-52567957D01*
X40489771Y-52523882D01*
X40459475Y-52514362D01*
X40385853Y-52497689D01*
X40303202Y-52486195D01*
X40214610Y-52479873D01*
X40123167Y-52478715D01*
X40031961Y-52482713D01*
X39944082Y-52491861D01*
X39862619Y-52506150D01*
X39790661Y-52525574D01*
X39725959Y-52549657D01*
X39619202Y-52601172D01*
X39518231Y-52664703D01*
X39424110Y-52739049D01*
X39337906Y-52823009D01*
X39260685Y-52915385D01*
X39193512Y-53014975D01*
X39137453Y-53120579D01*
X39093576Y-53230997D01*
X39062944Y-53345029D01*
X39060993Y-53356067D01*
X39056829Y-53391621D01*
X39053490Y-53437255D01*
X39051042Y-53489844D01*
X39049551Y-53546264D01*
X39049082Y-53603394D01*
X38786128Y-53603394D01*
X38785344Y-53546321D01*
X38785091Y-53483818D01*
X38785873Y-53431263D01*
X38787914Y-53386208D01*
X38791437Y-53346206D01*
X38796666Y-53308809D01*
X38803825Y-53271570D01*
X38813138Y-53232040D01*
X38824829Y-53187772D01*
X38839749Y-53138769D01*
X38867970Y-53062691D01*
X38902019Y-52985154D01*
X38939980Y-52910122D01*
X38979942Y-52841560D01*
X39019990Y-52783431D01*
X39029460Y-52771014D01*
X39051291Y-52742226D01*
X39071451Y-52715471D01*
X39087215Y-52695733D01*
X39119886Y-52658987D01*
X39159303Y-52618158D01*
X39202493Y-52576107D01*
X39246487Y-52535696D01*
X39288312Y-52499786D01*
X39325000Y-52471240D01*
X39390046Y-52426015D01*
X39474375Y-52373419D01*
X39556171Y-52330076D01*
X39638608Y-52294346D01*
X39724861Y-52264587D01*
X39739517Y-52260137D01*
X39777194Y-52249254D01*
X39811603Y-52240528D01*
X39844968Y-52233726D01*
X39879511Y-52228616D01*
X39917455Y-52224964D01*
X39961020Y-52222538D01*
X40012430Y-52221104D01*
X40073907Y-52220431D01*
X40147673Y-52220285D01*
X40178421Y-52220328D01*
X40247324Y-52220763D01*
X40304859Y-52221880D01*
X40353284Y-52223944D01*
X40394853Y-52227222D01*
X40431822Y-52231980D01*
X40466448Y-52238483D01*
X40500986Y-52246998D01*
X40537691Y-52257790D01*
X40578820Y-52271126D01*
X40650707Y-52298011D01*
X40751374Y-52344897D01*
X40850511Y-52401216D01*
X40945523Y-52465182D01*
X41033816Y-52535007D01*
X41112793Y-52608903D01*
X41179860Y-52685084D01*
X41193155Y-52701941D01*
X41213302Y-52727204D01*
X41229829Y-52747597D01*
X41240087Y-52759831D01*
X41253018Y-52775804D01*
X41277299Y-52810594D01*
X41304544Y-52854162D01*
X41333172Y-52903647D01*
X41361604Y-52956188D01*
X41388259Y-53008925D01*
X41411559Y-53058997D01*
X41429922Y-53103545D01*
X41437886Y-53126087D01*
X41453475Y-53177084D01*
X41468503Y-53234202D01*
X41481584Y-53291998D01*
X41491334Y-53345029D01*
X41494300Y-53373046D01*
X41496433Y-53413266D01*
X41497655Y-53462279D01*
X41498019Y-53517497D01*
X41497733Y-53555579D01*
X41497578Y-53576332D01*
X41496383Y-53636193D01*
G36*
X38574910Y-53666539D02*
G01*
X38572991Y-53725700D01*
X38570120Y-53778251D01*
X38566297Y-53821569D01*
X38561523Y-53853029D01*
X38542399Y-53930992D01*
X38498726Y-54060962D01*
X38441330Y-54186399D01*
X38370326Y-54307064D01*
X38285831Y-54422714D01*
X38273822Y-54437315D01*
X38233074Y-54483609D01*
X38188153Y-54530622D01*
X38141646Y-54575898D01*
X38096140Y-54616977D01*
X38054223Y-54651402D01*
X38018482Y-54676714D01*
X38015272Y-54678792D01*
X38000449Y-54688742D01*
X37978591Y-54703657D01*
X37953173Y-54721172D01*
X37873150Y-54770721D01*
X37779634Y-54817680D01*
X37679102Y-54858602D01*
X37575200Y-54892008D01*
X37471571Y-54916421D01*
X37461150Y-54918055D01*
X37428391Y-54921117D01*
X37385003Y-54923311D01*
X37333500Y-54924672D01*
X37276394Y-54925230D01*
X37216200Y-54925019D01*
X37155431Y-54924071D01*
X37096599Y-54922419D01*
X37042218Y-54920095D01*
X36994801Y-54917132D01*
X36956862Y-54913562D01*
X36930914Y-54909419D01*
X36808387Y-54874416D01*
X36684859Y-54826069D01*
X36562892Y-54765438D01*
X36444686Y-54693502D01*
X36382143Y-54650123D01*
X36328164Y-54608724D01*
X36280098Y-54566771D01*
X36234236Y-54521024D01*
X36186871Y-54468243D01*
X36099584Y-54357262D01*
X36025491Y-54242168D01*
X35965298Y-54123636D01*
X35918826Y-54001314D01*
X35885896Y-53874853D01*
X35884831Y-53869551D01*
X35880876Y-53847805D01*
X35877767Y-53825767D01*
X35875404Y-53801405D01*
X35873691Y-53772687D01*
X35872529Y-53737582D01*
X35871821Y-53694058D01*
X35871467Y-53640084D01*
X35871371Y-53573629D01*
X35871373Y-53569215D01*
X36129299Y-53569215D01*
X36132185Y-53658791D01*
X36139765Y-53745975D01*
X36151852Y-53826927D01*
X36168261Y-53897806D01*
X36173924Y-53916170D01*
X36186076Y-53951140D01*
X36200468Y-53988980D01*
X36215430Y-54025518D01*
X36229293Y-54056582D01*
X36240387Y-54078000D01*
X36272988Y-54129814D01*
X36310083Y-54184390D01*
X36348245Y-54236708D01*
X36385485Y-54284139D01*
X36419811Y-54324054D01*
X36449234Y-54353826D01*
X36452231Y-54356525D01*
X36490991Y-54389683D01*
X36536261Y-54425890D01*
X36583767Y-54461899D01*
X36629237Y-54494465D01*
X36668399Y-54520341D01*
X36729707Y-54555696D01*
X36828439Y-54601222D01*
X36929772Y-54633737D01*
X37036143Y-54654126D01*
X37073193Y-54658718D01*
X37167700Y-54666591D01*
X37257499Y-54667640D01*
X37348390Y-54661792D01*
X37446171Y-54648974D01*
X37472935Y-54644160D01*
X37563176Y-54620163D01*
X37654853Y-54584748D01*
X37744815Y-54539445D01*
X37829914Y-54485781D01*
X37907000Y-54425286D01*
X37924898Y-54409892D01*
X37950001Y-54389187D01*
X37970772Y-54372983D01*
X37988127Y-54358255D01*
X38017024Y-54328620D01*
X38049963Y-54290428D01*
X38085187Y-54246069D01*
X38120935Y-54197934D01*
X38155446Y-54148414D01*
X38186962Y-54099899D01*
X38213722Y-54054780D01*
X38233967Y-54015448D01*
X38246781Y-53986212D01*
X38279473Y-53893215D01*
X38302357Y-53794046D01*
X38315778Y-53686908D01*
X38320086Y-53570000D01*
X38319332Y-53519199D01*
X38313728Y-53428956D01*
X38301980Y-53345396D01*
X38283284Y-53266351D01*
X38256834Y-53189657D01*
X38221826Y-53113146D01*
X38177454Y-53034653D01*
X38122915Y-52952011D01*
X38057401Y-52863053D01*
X38043110Y-52846206D01*
X38016026Y-52818102D01*
X37981881Y-52785358D01*
X37943247Y-52750296D01*
X37902699Y-52715238D01*
X37862811Y-52682508D01*
X37826158Y-52654426D01*
X37788791Y-52629561D01*
X37740084Y-52601288D01*
X37686745Y-52573511D01*
X37633528Y-52548700D01*
X37585189Y-52529323D01*
X37562838Y-52521885D01*
X37487506Y-52502960D01*
X37402922Y-52489392D01*
X37312282Y-52481211D01*
X37218782Y-52478450D01*
X37125619Y-52481141D01*
X37035989Y-52489316D01*
X36953089Y-52503007D01*
X36880114Y-52522246D01*
X36825956Y-52541966D01*
X36720264Y-52591667D01*
X36617142Y-52655218D01*
X36517257Y-52732232D01*
X36493255Y-52753206D01*
X36402617Y-52842961D01*
X36324356Y-52938628D01*
X36258848Y-53039572D01*
X36206468Y-53145154D01*
X36167593Y-53254736D01*
X36142598Y-53367682D01*
X36138351Y-53398245D01*
X36131292Y-53481086D01*
X36129299Y-53569215D01*
X35871373Y-53569215D01*
X35871376Y-53561558D01*
X35871721Y-53487112D01*
X35872798Y-53424584D01*
X35874872Y-53371717D01*
X35878204Y-53326252D01*
X35883059Y-53285933D01*
X35889699Y-53248500D01*
X35898387Y-53211696D01*
X35909387Y-53173263D01*
X35922961Y-53130943D01*
X35929845Y-53111325D01*
X35949380Y-53061912D01*
X35973399Y-53007034D01*
X35999718Y-52951386D01*
X36026157Y-52899664D01*
X36050531Y-52856563D01*
X36057583Y-52845235D01*
X36093047Y-52793814D01*
X36136229Y-52738006D01*
X36184600Y-52680618D01*
X36235633Y-52624457D01*
X36286797Y-52572330D01*
X36335567Y-52527044D01*
X36379413Y-52491406D01*
X36420649Y-52461699D01*
X36522916Y-52394473D01*
X36622074Y-52339161D01*
X36720150Y-52294805D01*
X36819173Y-52260445D01*
X36921168Y-52235121D01*
X36927042Y-52233946D01*
X36949393Y-52229872D01*
X36971707Y-52226677D01*
X36996061Y-52224257D01*
X37024535Y-52222510D01*
X37059207Y-52221332D01*
X37102156Y-52220618D01*
X37155460Y-52220266D01*
X37221200Y-52220172D01*
X37232827Y-52220176D01*
X37307050Y-52220529D01*
X37369359Y-52221642D01*
X37422027Y-52223790D01*
X37467323Y-52227251D01*
X37507521Y-52232300D01*
X37544891Y-52239215D01*
X37581706Y-52248271D01*
X37620236Y-52259746D01*
X37662754Y-52273915D01*
X37744010Y-52304479D01*
X37820284Y-52339093D01*
X37893837Y-52379296D01*
X37968418Y-52427141D01*
X38047776Y-52484680D01*
X38086824Y-52515630D01*
X38183498Y-52604041D01*
X38272433Y-52702649D01*
X38352499Y-52809692D01*
X38422570Y-52923408D01*
X38481517Y-53042034D01*
X38528210Y-53163810D01*
X38561523Y-53286972D01*
X38561709Y-53287858D01*
X38566449Y-53319785D01*
X38570238Y-53363476D01*
X38573075Y-53416308D01*
X38574961Y-53475655D01*
X38575896Y-53538892D01*
X38575887Y-53570000D01*
X38575879Y-53603395D01*
X38574910Y-53666539D01*
G37*
X38574910Y-53666539D02*
X38572991Y-53725700D01*
X38570120Y-53778251D01*
X38566297Y-53821569D01*
X38561523Y-53853029D01*
X38542399Y-53930992D01*
X38498726Y-54060962D01*
X38441330Y-54186399D01*
X38370326Y-54307064D01*
X38285831Y-54422714D01*
X38273822Y-54437315D01*
X38233074Y-54483609D01*
X38188153Y-54530622D01*
X38141646Y-54575898D01*
X38096140Y-54616977D01*
X38054223Y-54651402D01*
X38018482Y-54676714D01*
X38015272Y-54678792D01*
X38000449Y-54688742D01*
X37978591Y-54703657D01*
X37953173Y-54721172D01*
X37873150Y-54770721D01*
X37779634Y-54817680D01*
X37679102Y-54858602D01*
X37575200Y-54892008D01*
X37471571Y-54916421D01*
X37461150Y-54918055D01*
X37428391Y-54921117D01*
X37385003Y-54923311D01*
X37333500Y-54924672D01*
X37276394Y-54925230D01*
X37216200Y-54925019D01*
X37155431Y-54924071D01*
X37096599Y-54922419D01*
X37042218Y-54920095D01*
X36994801Y-54917132D01*
X36956862Y-54913562D01*
X36930914Y-54909419D01*
X36808387Y-54874416D01*
X36684859Y-54826069D01*
X36562892Y-54765438D01*
X36444686Y-54693502D01*
X36382143Y-54650123D01*
X36328164Y-54608724D01*
X36280098Y-54566771D01*
X36234236Y-54521024D01*
X36186871Y-54468243D01*
X36099584Y-54357262D01*
X36025491Y-54242168D01*
X35965298Y-54123636D01*
X35918826Y-54001314D01*
X35885896Y-53874853D01*
X35884831Y-53869551D01*
X35880876Y-53847805D01*
X35877767Y-53825767D01*
X35875404Y-53801405D01*
X35873691Y-53772687D01*
X35872529Y-53737582D01*
X35871821Y-53694058D01*
X35871467Y-53640084D01*
X35871371Y-53573629D01*
X35871373Y-53569215D01*
X36129299Y-53569215D01*
X36132185Y-53658791D01*
X36139765Y-53745975D01*
X36151852Y-53826927D01*
X36168261Y-53897806D01*
X36173924Y-53916170D01*
X36186076Y-53951140D01*
X36200468Y-53988980D01*
X36215430Y-54025518D01*
X36229293Y-54056582D01*
X36240387Y-54078000D01*
X36272988Y-54129814D01*
X36310083Y-54184390D01*
X36348245Y-54236708D01*
X36385485Y-54284139D01*
X36419811Y-54324054D01*
X36449234Y-54353826D01*
X36452231Y-54356525D01*
X36490991Y-54389683D01*
X36536261Y-54425890D01*
X36583767Y-54461899D01*
X36629237Y-54494465D01*
X36668399Y-54520341D01*
X36729707Y-54555696D01*
X36828439Y-54601222D01*
X36929772Y-54633737D01*
X37036143Y-54654126D01*
X37073193Y-54658718D01*
X37167700Y-54666591D01*
X37257499Y-54667640D01*
X37348390Y-54661792D01*
X37446171Y-54648974D01*
X37472935Y-54644160D01*
X37563176Y-54620163D01*
X37654853Y-54584748D01*
X37744815Y-54539445D01*
X37829914Y-54485781D01*
X37907000Y-54425286D01*
X37924898Y-54409892D01*
X37950001Y-54389187D01*
X37970772Y-54372983D01*
X37988127Y-54358255D01*
X38017024Y-54328620D01*
X38049963Y-54290428D01*
X38085187Y-54246069D01*
X38120935Y-54197934D01*
X38155446Y-54148414D01*
X38186962Y-54099899D01*
X38213722Y-54054780D01*
X38233967Y-54015448D01*
X38246781Y-53986212D01*
X38279473Y-53893215D01*
X38302357Y-53794046D01*
X38315778Y-53686908D01*
X38320086Y-53570000D01*
X38319332Y-53519199D01*
X38313728Y-53428956D01*
X38301980Y-53345396D01*
X38283284Y-53266351D01*
X38256834Y-53189657D01*
X38221826Y-53113146D01*
X38177454Y-53034653D01*
X38122915Y-52952011D01*
X38057401Y-52863053D01*
X38043110Y-52846206D01*
X38016026Y-52818102D01*
X37981881Y-52785358D01*
X37943247Y-52750296D01*
X37902699Y-52715238D01*
X37862811Y-52682508D01*
X37826158Y-52654426D01*
X37788791Y-52629561D01*
X37740084Y-52601288D01*
X37686745Y-52573511D01*
X37633528Y-52548700D01*
X37585189Y-52529323D01*
X37562838Y-52521885D01*
X37487506Y-52502960D01*
X37402922Y-52489392D01*
X37312282Y-52481211D01*
X37218782Y-52478450D01*
X37125619Y-52481141D01*
X37035989Y-52489316D01*
X36953089Y-52503007D01*
X36880114Y-52522246D01*
X36825956Y-52541966D01*
X36720264Y-52591667D01*
X36617142Y-52655218D01*
X36517257Y-52732232D01*
X36493255Y-52753206D01*
X36402617Y-52842961D01*
X36324356Y-52938628D01*
X36258848Y-53039572D01*
X36206468Y-53145154D01*
X36167593Y-53254736D01*
X36142598Y-53367682D01*
X36138351Y-53398245D01*
X36131292Y-53481086D01*
X36129299Y-53569215D01*
X35871373Y-53569215D01*
X35871376Y-53561558D01*
X35871721Y-53487112D01*
X35872798Y-53424584D01*
X35874872Y-53371717D01*
X35878204Y-53326252D01*
X35883059Y-53285933D01*
X35889699Y-53248500D01*
X35898387Y-53211696D01*
X35909387Y-53173263D01*
X35922961Y-53130943D01*
X35929845Y-53111325D01*
X35949380Y-53061912D01*
X35973399Y-53007034D01*
X35999718Y-52951386D01*
X36026157Y-52899664D01*
X36050531Y-52856563D01*
X36057583Y-52845235D01*
X36093047Y-52793814D01*
X36136229Y-52738006D01*
X36184600Y-52680618D01*
X36235633Y-52624457D01*
X36286797Y-52572330D01*
X36335567Y-52527044D01*
X36379413Y-52491406D01*
X36420649Y-52461699D01*
X36522916Y-52394473D01*
X36622074Y-52339161D01*
X36720150Y-52294805D01*
X36819173Y-52260445D01*
X36921168Y-52235121D01*
X36927042Y-52233946D01*
X36949393Y-52229872D01*
X36971707Y-52226677D01*
X36996061Y-52224257D01*
X37024535Y-52222510D01*
X37059207Y-52221332D01*
X37102156Y-52220618D01*
X37155460Y-52220266D01*
X37221200Y-52220172D01*
X37232827Y-52220176D01*
X37307050Y-52220529D01*
X37369359Y-52221642D01*
X37422027Y-52223790D01*
X37467323Y-52227251D01*
X37507521Y-52232300D01*
X37544891Y-52239215D01*
X37581706Y-52248271D01*
X37620236Y-52259746D01*
X37662754Y-52273915D01*
X37744010Y-52304479D01*
X37820284Y-52339093D01*
X37893837Y-52379296D01*
X37968418Y-52427141D01*
X38047776Y-52484680D01*
X38086824Y-52515630D01*
X38183498Y-52604041D01*
X38272433Y-52702649D01*
X38352499Y-52809692D01*
X38422570Y-52923408D01*
X38481517Y-53042034D01*
X38528210Y-53163810D01*
X38561523Y-53286972D01*
X38561709Y-53287858D01*
X38566449Y-53319785D01*
X38570238Y-53363476D01*
X38573075Y-53416308D01*
X38574961Y-53475655D01*
X38575896Y-53538892D01*
X38575887Y-53570000D01*
X38575879Y-53603395D01*
X38574910Y-53666539D01*
G36*
X43450453Y-53142634D02*
G01*
X43524419Y-53152281D01*
X43591444Y-53173871D01*
X43653499Y-53208178D01*
X43712549Y-53255978D01*
X43742086Y-53286271D01*
X43776498Y-53331809D01*
X43801717Y-53381346D01*
X43818599Y-53437213D01*
X43828003Y-53501740D01*
X43830786Y-53577257D01*
X43830736Y-53588743D01*
X43830081Y-53628374D01*
X43828326Y-53658566D01*
X43824964Y-53683396D01*
X43819487Y-53706943D01*
X43811388Y-53733286D01*
X43809992Y-53737453D01*
X43797714Y-53769953D01*
X43783983Y-53800863D01*
X43771515Y-53824000D01*
X43749108Y-53854863D01*
X43702787Y-53902433D01*
X43648195Y-53943229D01*
X43588911Y-53974741D01*
X43528513Y-53994460D01*
X43465072Y-54003838D01*
X43385610Y-54003308D01*
X43308504Y-53989188D01*
X43235623Y-53961687D01*
X43224386Y-53955728D01*
X43190197Y-53933231D01*
X43153778Y-53904240D01*
X43118873Y-53872115D01*
X43089227Y-53840212D01*
X43068585Y-53811891D01*
X43065027Y-53805877D01*
X43058306Y-53793708D01*
X43055693Y-53784117D01*
X43058661Y-53775578D01*
X43068679Y-53766563D01*
X43087219Y-53755545D01*
X43115752Y-53740995D01*
X43155748Y-53721389D01*
X43188174Y-53705988D01*
X43215467Y-53694495D01*
X43231901Y-53689844D01*
X43238348Y-53691722D01*
X43250897Y-53716149D01*
X43271947Y-53744053D01*
X43296558Y-53769054D01*
X43320168Y-53785900D01*
X43346405Y-53795626D01*
X43385836Y-53801868D01*
X43425824Y-53800825D01*
X43459990Y-53792208D01*
X43465414Y-53789662D01*
X43495724Y-53767886D01*
X43523808Y-53735827D01*
X43546471Y-53697000D01*
X43547475Y-53694798D01*
X43554367Y-53677618D01*
X43558917Y-53660087D01*
X43561591Y-53638666D01*
X43562854Y-53609817D01*
X43563171Y-53570000D01*
X43563168Y-53564373D01*
X43562759Y-53526113D01*
X43561350Y-53498384D01*
X43558473Y-53477648D01*
X43553663Y-53460366D01*
X43546454Y-53443000D01*
X43542767Y-53435264D01*
X43517197Y-53394222D01*
X43486755Y-53366187D01*
X43450018Y-53350172D01*
X43405562Y-53345188D01*
X43388835Y-53345864D01*
X43350258Y-53353756D01*
X43317052Y-53371681D01*
X43287000Y-53401112D01*
X43257887Y-53443527D01*
X43257723Y-53443799D01*
X43253686Y-53448239D01*
X43247264Y-53449446D01*
X43236385Y-53446679D01*
X43218977Y-53439194D01*
X43192968Y-53426249D01*
X43156287Y-53407101D01*
X43141634Y-53399371D01*
X43110065Y-53382632D01*
X43084334Y-53368873D01*
X43066781Y-53359348D01*
X43059743Y-53355310D01*
X43057666Y-53348681D01*
X43062815Y-53332808D01*
X43075588Y-53311255D01*
X43094178Y-53286384D01*
X43116778Y-53260555D01*
X43141582Y-53236129D01*
X43166782Y-53215467D01*
X43204734Y-53191722D01*
X43270065Y-53164261D01*
X43343366Y-53147518D01*
X43423090Y-53141936D01*
X43450453Y-53142634D01*
G37*
X43450453Y-53142634D02*
X43524419Y-53152281D01*
X43591444Y-53173871D01*
X43653499Y-53208178D01*
X43712549Y-53255978D01*
X43742086Y-53286271D01*
X43776498Y-53331809D01*
X43801717Y-53381346D01*
X43818599Y-53437213D01*
X43828003Y-53501740D01*
X43830786Y-53577257D01*
X43830736Y-53588743D01*
X43830081Y-53628374D01*
X43828326Y-53658566D01*
X43824964Y-53683396D01*
X43819487Y-53706943D01*
X43811388Y-53733286D01*
X43809992Y-53737453D01*
X43797714Y-53769953D01*
X43783983Y-53800863D01*
X43771515Y-53824000D01*
X43749108Y-53854863D01*
X43702787Y-53902433D01*
X43648195Y-53943229D01*
X43588911Y-53974741D01*
X43528513Y-53994460D01*
X43465072Y-54003838D01*
X43385610Y-54003308D01*
X43308504Y-53989188D01*
X43235623Y-53961687D01*
X43224386Y-53955728D01*
X43190197Y-53933231D01*
X43153778Y-53904240D01*
X43118873Y-53872115D01*
X43089227Y-53840212D01*
X43068585Y-53811891D01*
X43065027Y-53805877D01*
X43058306Y-53793708D01*
X43055693Y-53784117D01*
X43058661Y-53775578D01*
X43068679Y-53766563D01*
X43087219Y-53755545D01*
X43115752Y-53740995D01*
X43155748Y-53721389D01*
X43188174Y-53705988D01*
X43215467Y-53694495D01*
X43231901Y-53689844D01*
X43238348Y-53691722D01*
X43250897Y-53716149D01*
X43271947Y-53744053D01*
X43296558Y-53769054D01*
X43320168Y-53785900D01*
X43346405Y-53795626D01*
X43385836Y-53801868D01*
X43425824Y-53800825D01*
X43459990Y-53792208D01*
X43465414Y-53789662D01*
X43495724Y-53767886D01*
X43523808Y-53735827D01*
X43546471Y-53697000D01*
X43547475Y-53694798D01*
X43554367Y-53677618D01*
X43558917Y-53660087D01*
X43561591Y-53638666D01*
X43562854Y-53609817D01*
X43563171Y-53570000D01*
X43563168Y-53564373D01*
X43562759Y-53526113D01*
X43561350Y-53498384D01*
X43558473Y-53477648D01*
X43553663Y-53460366D01*
X43546454Y-53443000D01*
X43542767Y-53435264D01*
X43517197Y-53394222D01*
X43486755Y-53366187D01*
X43450018Y-53350172D01*
X43405562Y-53345188D01*
X43388835Y-53345864D01*
X43350258Y-53353756D01*
X43317052Y-53371681D01*
X43287000Y-53401112D01*
X43257887Y-53443527D01*
X43257723Y-53443799D01*
X43253686Y-53448239D01*
X43247264Y-53449446D01*
X43236385Y-53446679D01*
X43218977Y-53439194D01*
X43192968Y-53426249D01*
X43156287Y-53407101D01*
X43141634Y-53399371D01*
X43110065Y-53382632D01*
X43084334Y-53368873D01*
X43066781Y-53359348D01*
X43059743Y-53355310D01*
X43057666Y-53348681D01*
X43062815Y-53332808D01*
X43075588Y-53311255D01*
X43094178Y-53286384D01*
X43116778Y-53260555D01*
X43141582Y-53236129D01*
X43166782Y-53215467D01*
X43204734Y-53191722D01*
X43270065Y-53164261D01*
X43343366Y-53147518D01*
X43423090Y-53141936D01*
X43450453Y-53142634D01*
G36*
X37360308Y-52860057D02*
G01*
X37446518Y-52883159D01*
X37526675Y-52917312D01*
X37599716Y-52962112D01*
X37664579Y-53017153D01*
X37720202Y-53082032D01*
X37765522Y-53156343D01*
X37785403Y-53199511D01*
X37804248Y-53248276D01*
X37818879Y-53294808D01*
X37827541Y-53334078D01*
X37832448Y-53366800D01*
X37886053Y-53366800D01*
X37913815Y-53367243D01*
X37930120Y-53369037D01*
X37937760Y-53372869D01*
X37939657Y-53379428D01*
X37939487Y-53380276D01*
X37932779Y-53390403D01*
X37917524Y-53408518D01*
X37895400Y-53432928D01*
X37868086Y-53461945D01*
X37837258Y-53493878D01*
X37804595Y-53527037D01*
X37771775Y-53559732D01*
X37740474Y-53590272D01*
X37712372Y-53616968D01*
X37689145Y-53638129D01*
X37672472Y-53652065D01*
X37664031Y-53657086D01*
X37663196Y-53656918D01*
X37653128Y-53650183D01*
X37635125Y-53634839D01*
X37610866Y-53612577D01*
X37582030Y-53585084D01*
X37550297Y-53554051D01*
X37517346Y-53521167D01*
X37484856Y-53488120D01*
X37454508Y-53456600D01*
X37427980Y-53428296D01*
X37406952Y-53404898D01*
X37393104Y-53388094D01*
X37388114Y-53379574D01*
X37389137Y-53374122D01*
X37395341Y-53369507D01*
X37409892Y-53367340D01*
X37435862Y-53366800D01*
X37483610Y-53366800D01*
X37478519Y-53343214D01*
X37468615Y-53311750D01*
X37443919Y-53266569D01*
X37409900Y-53226501D01*
X37369588Y-53195649D01*
X37344073Y-53182089D01*
X37315328Y-53171042D01*
X37282005Y-53163179D01*
X37239137Y-53157030D01*
X37185351Y-53154171D01*
X37121120Y-53161376D01*
X37064202Y-53180743D01*
X37015094Y-53212014D01*
X36974296Y-53254935D01*
X36942305Y-53309250D01*
X36928620Y-53341672D01*
X36916539Y-53378397D01*
X36907996Y-53417239D01*
X36902487Y-53461277D01*
X36899509Y-53513590D01*
X36898561Y-53577257D01*
X36898560Y-53577989D01*
X36898719Y-53626393D01*
X36899532Y-53663474D01*
X36901276Y-53692377D01*
X36904231Y-53716245D01*
X36908675Y-53738224D01*
X36914887Y-53761458D01*
X36930304Y-53808637D01*
X36959461Y-53873315D01*
X36994863Y-53925944D01*
X37037190Y-53967461D01*
X37087121Y-53998801D01*
X37136696Y-54016788D01*
X37192072Y-54025312D01*
X37249050Y-54024242D01*
X37304761Y-54014105D01*
X37356337Y-53995431D01*
X37400909Y-53968748D01*
X37435608Y-53934584D01*
X37442087Y-53925531D01*
X37463030Y-53887443D01*
X37478146Y-53845930D01*
X37484909Y-53807507D01*
X37486086Y-53784086D01*
X37665700Y-53782145D01*
X37680131Y-53781994D01*
X37733467Y-53781577D01*
X37774248Y-53781590D01*
X37804059Y-53782107D01*
X37824486Y-53783205D01*
X37837114Y-53784959D01*
X37843528Y-53787446D01*
X37845314Y-53790742D01*
X37845256Y-53793711D01*
X37841807Y-53821230D01*
X37833855Y-53857579D01*
X37822550Y-53898847D01*
X37809042Y-53941120D01*
X37794479Y-53980487D01*
X37780011Y-54013035D01*
X37760934Y-54047292D01*
X37711601Y-54115095D01*
X37651333Y-54175990D01*
X37581950Y-54228695D01*
X37505272Y-54271928D01*
X37423120Y-54304407D01*
X37337314Y-54324849D01*
X37312056Y-54327821D01*
X37262230Y-54329790D01*
X37205892Y-54328417D01*
X37147695Y-54323985D01*
X37092290Y-54316775D01*
X37044330Y-54307069D01*
X36989130Y-54290576D01*
X36899483Y-54252298D01*
X36817423Y-54202230D01*
X36743737Y-54141174D01*
X36679215Y-54069931D01*
X36624644Y-53989302D01*
X36580812Y-53900088D01*
X36548509Y-53803091D01*
X36542563Y-53777801D01*
X36531118Y-53704732D01*
X36525631Y-53625200D01*
X36525999Y-53543190D01*
X36532117Y-53462685D01*
X36543879Y-53387671D01*
X36561180Y-53322130D01*
X36575705Y-53283520D01*
X36604708Y-53220735D01*
X36639293Y-53158386D01*
X36676815Y-53101102D01*
X36714631Y-53053511D01*
X36725548Y-53041939D01*
X36773500Y-52999689D01*
X36831001Y-52959409D01*
X36894174Y-52923374D01*
X36959139Y-52893859D01*
X37022020Y-52873141D01*
X37075982Y-52861102D01*
X37173978Y-52848624D01*
X37269107Y-52848410D01*
X37360308Y-52860057D01*
G37*
X37360308Y-52860057D02*
X37446518Y-52883159D01*
X37526675Y-52917312D01*
X37599716Y-52962112D01*
X37664579Y-53017153D01*
X37720202Y-53082032D01*
X37765522Y-53156343D01*
X37785403Y-53199511D01*
X37804248Y-53248276D01*
X37818879Y-53294808D01*
X37827541Y-53334078D01*
X37832448Y-53366800D01*
X37886053Y-53366800D01*
X37913815Y-53367243D01*
X37930120Y-53369037D01*
X37937760Y-53372869D01*
X37939657Y-53379428D01*
X37939487Y-53380276D01*
X37932779Y-53390403D01*
X37917524Y-53408518D01*
X37895400Y-53432928D01*
X37868086Y-53461945D01*
X37837258Y-53493878D01*
X37804595Y-53527037D01*
X37771775Y-53559732D01*
X37740474Y-53590272D01*
X37712372Y-53616968D01*
X37689145Y-53638129D01*
X37672472Y-53652065D01*
X37664031Y-53657086D01*
X37663196Y-53656918D01*
X37653128Y-53650183D01*
X37635125Y-53634839D01*
X37610866Y-53612577D01*
X37582030Y-53585084D01*
X37550297Y-53554051D01*
X37517346Y-53521167D01*
X37484856Y-53488120D01*
X37454508Y-53456600D01*
X37427980Y-53428296D01*
X37406952Y-53404898D01*
X37393104Y-53388094D01*
X37388114Y-53379574D01*
X37389137Y-53374122D01*
X37395341Y-53369507D01*
X37409892Y-53367340D01*
X37435862Y-53366800D01*
X37483610Y-53366800D01*
X37478519Y-53343214D01*
X37468615Y-53311750D01*
X37443919Y-53266569D01*
X37409900Y-53226501D01*
X37369588Y-53195649D01*
X37344073Y-53182089D01*
X37315328Y-53171042D01*
X37282005Y-53163179D01*
X37239137Y-53157030D01*
X37185351Y-53154171D01*
X37121120Y-53161376D01*
X37064202Y-53180743D01*
X37015094Y-53212014D01*
X36974296Y-53254935D01*
X36942305Y-53309250D01*
X36928620Y-53341672D01*
X36916539Y-53378397D01*
X36907996Y-53417239D01*
X36902487Y-53461277D01*
X36899509Y-53513590D01*
X36898561Y-53577257D01*
X36898560Y-53577989D01*
X36898719Y-53626393D01*
X36899532Y-53663474D01*
X36901276Y-53692377D01*
X36904231Y-53716245D01*
X36908675Y-53738224D01*
X36914887Y-53761458D01*
X36930304Y-53808637D01*
X36959461Y-53873315D01*
X36994863Y-53925944D01*
X37037190Y-53967461D01*
X37087121Y-53998801D01*
X37136696Y-54016788D01*
X37192072Y-54025312D01*
X37249050Y-54024242D01*
X37304761Y-54014105D01*
X37356337Y-53995431D01*
X37400909Y-53968748D01*
X37435608Y-53934584D01*
X37442087Y-53925531D01*
X37463030Y-53887443D01*
X37478146Y-53845930D01*
X37484909Y-53807507D01*
X37486086Y-53784086D01*
X37665700Y-53782145D01*
X37680131Y-53781994D01*
X37733467Y-53781577D01*
X37774248Y-53781590D01*
X37804059Y-53782107D01*
X37824486Y-53783205D01*
X37837114Y-53784959D01*
X37843528Y-53787446D01*
X37845314Y-53790742D01*
X37845256Y-53793711D01*
X37841807Y-53821230D01*
X37833855Y-53857579D01*
X37822550Y-53898847D01*
X37809042Y-53941120D01*
X37794479Y-53980487D01*
X37780011Y-54013035D01*
X37760934Y-54047292D01*
X37711601Y-54115095D01*
X37651333Y-54175990D01*
X37581950Y-54228695D01*
X37505272Y-54271928D01*
X37423120Y-54304407D01*
X37337314Y-54324849D01*
X37312056Y-54327821D01*
X37262230Y-54329790D01*
X37205892Y-54328417D01*
X37147695Y-54323985D01*
X37092290Y-54316775D01*
X37044330Y-54307069D01*
X36989130Y-54290576D01*
X36899483Y-54252298D01*
X36817423Y-54202230D01*
X36743737Y-54141174D01*
X36679215Y-54069931D01*
X36624644Y-53989302D01*
X36580812Y-53900088D01*
X36548509Y-53803091D01*
X36542563Y-53777801D01*
X36531118Y-53704732D01*
X36525631Y-53625200D01*
X36525999Y-53543190D01*
X36532117Y-53462685D01*
X36543879Y-53387671D01*
X36561180Y-53322130D01*
X36575705Y-53283520D01*
X36604708Y-53220735D01*
X36639293Y-53158386D01*
X36676815Y-53101102D01*
X36714631Y-53053511D01*
X36725548Y-53041939D01*
X36773500Y-52999689D01*
X36831001Y-52959409D01*
X36894174Y-52923374D01*
X36959139Y-52893859D01*
X37022020Y-52873141D01*
X37075982Y-52861102D01*
X37173978Y-52848624D01*
X37269107Y-52848410D01*
X37360308Y-52860057D01*
G36*
X42694479Y-53145200D02*
G01*
X42761257Y-53156894D01*
X42821787Y-53179724D01*
X42878467Y-53214585D01*
X42933695Y-53262372D01*
X42954014Y-53283565D01*
X42990161Y-53330089D01*
X43016664Y-53379867D01*
X43034434Y-53435390D01*
X43044380Y-53499147D01*
X43047413Y-53573629D01*
X43047258Y-53590873D01*
X43043970Y-53650595D01*
X43035695Y-53702011D01*
X43021479Y-53749659D01*
X43000373Y-53798076D01*
X42966338Y-53852717D01*
X42919348Y-53903594D01*
X42863203Y-53945781D01*
X42800098Y-53977645D01*
X42732228Y-53997551D01*
X42715219Y-54000262D01*
X42670811Y-54003839D01*
X42622791Y-54003992D01*
X42577086Y-54000817D01*
X42539625Y-53994413D01*
X42485086Y-53976075D01*
X42418818Y-53941312D01*
X42359017Y-53895454D01*
X42355257Y-53891949D01*
X42334238Y-53870532D01*
X42313179Y-53846550D01*
X42294086Y-53822625D01*
X42278965Y-53801375D01*
X42269818Y-53785420D01*
X42268652Y-53777379D01*
X42269618Y-53776760D01*
X42280360Y-53770992D01*
X42300903Y-53760404D01*
X42328816Y-53746239D01*
X42361669Y-53729742D01*
X42364463Y-53728346D01*
X42399619Y-53710954D01*
X42424207Y-53699436D01*
X42440429Y-53693092D01*
X42450483Y-53691218D01*
X42456569Y-53693112D01*
X42460888Y-53698072D01*
X42478243Y-53723660D01*
X42498779Y-53751722D01*
X42515505Y-53770871D01*
X42530415Y-53783302D01*
X42545504Y-53791211D01*
X42552376Y-53793621D01*
X42582726Y-53799668D01*
X42618191Y-53801939D01*
X42652440Y-53800278D01*
X42679142Y-53794526D01*
X42690803Y-53789165D01*
X42721341Y-53766350D01*
X42748279Y-53734445D01*
X42768683Y-53697401D01*
X42779622Y-53659170D01*
X42781191Y-53644442D01*
X42782969Y-53611775D01*
X42783614Y-53573933D01*
X42783145Y-53535828D01*
X42781579Y-53502373D01*
X42778937Y-53478482D01*
X42767710Y-53439087D01*
X42744468Y-53399016D01*
X42711786Y-53369488D01*
X42670586Y-53351285D01*
X42621790Y-53345188D01*
X42601248Y-53346252D01*
X42560248Y-53356383D01*
X42525063Y-53378321D01*
X42493159Y-53413408D01*
X42463079Y-53454126D01*
X42369193Y-53405020D01*
X42367564Y-53404167D01*
X42326150Y-53381732D01*
X42297410Y-53364413D01*
X42280648Y-53351753D01*
X42275168Y-53343294D01*
X42275441Y-53340791D01*
X42282827Y-53325147D01*
X42298517Y-53303535D01*
X42320136Y-53278567D01*
X42345306Y-53252855D01*
X42371649Y-53229013D01*
X42396787Y-53209653D01*
X42433734Y-53187281D01*
X42487015Y-53164806D01*
X42546700Y-53150671D01*
X42616114Y-53143877D01*
X42619054Y-53143748D01*
X42694479Y-53145200D01*
G37*
X42694479Y-53145200D02*
X42761257Y-53156894D01*
X42821787Y-53179724D01*
X42878467Y-53214585D01*
X42933695Y-53262372D01*
X42954014Y-53283565D01*
X42990161Y-53330089D01*
X43016664Y-53379867D01*
X43034434Y-53435390D01*
X43044380Y-53499147D01*
X43047413Y-53573629D01*
X43047258Y-53590873D01*
X43043970Y-53650595D01*
X43035695Y-53702011D01*
X43021479Y-53749659D01*
X43000373Y-53798076D01*
X42966338Y-53852717D01*
X42919348Y-53903594D01*
X42863203Y-53945781D01*
X42800098Y-53977645D01*
X42732228Y-53997551D01*
X42715219Y-54000262D01*
X42670811Y-54003839D01*
X42622791Y-54003992D01*
X42577086Y-54000817D01*
X42539625Y-53994413D01*
X42485086Y-53976075D01*
X42418818Y-53941312D01*
X42359017Y-53895454D01*
X42355257Y-53891949D01*
X42334238Y-53870532D01*
X42313179Y-53846550D01*
X42294086Y-53822625D01*
X42278965Y-53801375D01*
X42269818Y-53785420D01*
X42268652Y-53777379D01*
X42269618Y-53776760D01*
X42280360Y-53770992D01*
X42300903Y-53760404D01*
X42328816Y-53746239D01*
X42361669Y-53729742D01*
X42364463Y-53728346D01*
X42399619Y-53710954D01*
X42424207Y-53699436D01*
X42440429Y-53693092D01*
X42450483Y-53691218D01*
X42456569Y-53693112D01*
X42460888Y-53698072D01*
X42478243Y-53723660D01*
X42498779Y-53751722D01*
X42515505Y-53770871D01*
X42530415Y-53783302D01*
X42545504Y-53791211D01*
X42552376Y-53793621D01*
X42582726Y-53799668D01*
X42618191Y-53801939D01*
X42652440Y-53800278D01*
X42679142Y-53794526D01*
X42690803Y-53789165D01*
X42721341Y-53766350D01*
X42748279Y-53734445D01*
X42768683Y-53697401D01*
X42779622Y-53659170D01*
X42781191Y-53644442D01*
X42782969Y-53611775D01*
X42783614Y-53573933D01*
X42783145Y-53535828D01*
X42781579Y-53502373D01*
X42778937Y-53478482D01*
X42767710Y-53439087D01*
X42744468Y-53399016D01*
X42711786Y-53369488D01*
X42670586Y-53351285D01*
X42621790Y-53345188D01*
X42601248Y-53346252D01*
X42560248Y-53356383D01*
X42525063Y-53378321D01*
X42493159Y-53413408D01*
X42463079Y-53454126D01*
X42369193Y-53405020D01*
X42367564Y-53404167D01*
X42326150Y-53381732D01*
X42297410Y-53364413D01*
X42280648Y-53351753D01*
X42275168Y-53343294D01*
X42275441Y-53340791D01*
X42282827Y-53325147D01*
X42298517Y-53303535D01*
X42320136Y-53278567D01*
X42345306Y-53252855D01*
X42371649Y-53229013D01*
X42396787Y-53209653D01*
X42433734Y-53187281D01*
X42487015Y-53164806D01*
X42546700Y-53150671D01*
X42616114Y-53143877D01*
X42619054Y-53143748D01*
X42694479Y-53145200D01*
G36*
X40201141Y-53141842D02*
G01*
X40269801Y-53141981D01*
X40326235Y-53142405D01*
X40371755Y-53143271D01*
X40407674Y-53144739D01*
X40435304Y-53146966D01*
X40455959Y-53150110D01*
X40470950Y-53154330D01*
X40481591Y-53159784D01*
X40489193Y-53166630D01*
X40495070Y-53175028D01*
X40500534Y-53185134D01*
X40501017Y-53186112D01*
X40503720Y-53193828D01*
X40505931Y-53205323D01*
X40507698Y-53221940D01*
X40509066Y-53245020D01*
X40510081Y-53275904D01*
X40510790Y-53315935D01*
X40511239Y-53366454D01*
X40511475Y-53428804D01*
X40511543Y-53504325D01*
X40511543Y-53802229D01*
X40359143Y-53802229D01*
X40359143Y-54127591D01*
X40359079Y-54179586D01*
X40358818Y-54243640D01*
X40358374Y-54302063D01*
X40357770Y-54353375D01*
X40357028Y-54396095D01*
X40356171Y-54428742D01*
X40355220Y-54449837D01*
X40354197Y-54457898D01*
X40353430Y-54458216D01*
X40341861Y-54459357D01*
X40318099Y-54460257D01*
X40284004Y-54460889D01*
X40241432Y-54461228D01*
X40192244Y-54461248D01*
X40138297Y-54460922D01*
X39927343Y-54459000D01*
X39925455Y-54130614D01*
X39923566Y-53802229D01*
X39771314Y-53802229D01*
X39771314Y-53504325D01*
X39771316Y-53491246D01*
X39771408Y-53417931D01*
X39771675Y-53357573D01*
X39772162Y-53308830D01*
X39772918Y-53270359D01*
X39773986Y-53240819D01*
X39775415Y-53218869D01*
X39777250Y-53203166D01*
X39779537Y-53192368D01*
X39782323Y-53185134D01*
X39786396Y-53177455D01*
X39792042Y-53168634D01*
X39799075Y-53161404D01*
X39808810Y-53155607D01*
X39822558Y-53151085D01*
X39841632Y-53147680D01*
X39867345Y-53145232D01*
X39901009Y-53143585D01*
X39943936Y-53142579D01*
X39997440Y-53142057D01*
X40062834Y-53141859D01*
X40141428Y-53141829D01*
X40201141Y-53141842D01*
G37*
X40201141Y-53141842D02*
X40269801Y-53141981D01*
X40326235Y-53142405D01*
X40371755Y-53143271D01*
X40407674Y-53144739D01*
X40435304Y-53146966D01*
X40455959Y-53150110D01*
X40470950Y-53154330D01*
X40481591Y-53159784D01*
X40489193Y-53166630D01*
X40495070Y-53175028D01*
X40500534Y-53185134D01*
X40501017Y-53186112D01*
X40503720Y-53193828D01*
X40505931Y-53205323D01*
X40507698Y-53221940D01*
X40509066Y-53245020D01*
X40510081Y-53275904D01*
X40510790Y-53315935D01*
X40511239Y-53366454D01*
X40511475Y-53428804D01*
X40511543Y-53504325D01*
X40511543Y-53802229D01*
X40359143Y-53802229D01*
X40359143Y-54127591D01*
X40359079Y-54179586D01*
X40358818Y-54243640D01*
X40358374Y-54302063D01*
X40357770Y-54353375D01*
X40357028Y-54396095D01*
X40356171Y-54428742D01*
X40355220Y-54449837D01*
X40354197Y-54457898D01*
X40353430Y-54458216D01*
X40341861Y-54459357D01*
X40318099Y-54460257D01*
X40284004Y-54460889D01*
X40241432Y-54461228D01*
X40192244Y-54461248D01*
X40138297Y-54460922D01*
X39927343Y-54459000D01*
X39925455Y-54130614D01*
X39923566Y-53802229D01*
X39771314Y-53802229D01*
X39771314Y-53504325D01*
X39771316Y-53491246D01*
X39771408Y-53417931D01*
X39771675Y-53357573D01*
X39772162Y-53308830D01*
X39772918Y-53270359D01*
X39773986Y-53240819D01*
X39775415Y-53218869D01*
X39777250Y-53203166D01*
X39779537Y-53192368D01*
X39782323Y-53185134D01*
X39786396Y-53177455D01*
X39792042Y-53168634D01*
X39799075Y-53161404D01*
X39808810Y-53155607D01*
X39822558Y-53151085D01*
X39841632Y-53147680D01*
X39867345Y-53145232D01*
X39901009Y-53143585D01*
X39943936Y-53142579D01*
X39997440Y-53142057D01*
X40062834Y-53141859D01*
X40141428Y-53141829D01*
X40201141Y-53141842D01*
G36*
X44405751Y-53653471D02*
G01*
X44404611Y-53705217D01*
X44403243Y-53746382D01*
X44401496Y-53779080D01*
X44399223Y-53805430D01*
X44396273Y-53827546D01*
X44392499Y-53847545D01*
X44387751Y-53867543D01*
X44370467Y-53930330D01*
X44322875Y-54067913D01*
X44264092Y-54196517D01*
X44193833Y-54316656D01*
X44111810Y-54428846D01*
X44017738Y-54533602D01*
X44007229Y-54543976D01*
X43983353Y-54566438D01*
X43956310Y-54590837D01*
X43928405Y-54615206D01*
X43901941Y-54637581D01*
X43879222Y-54655996D01*
X43862550Y-54668486D01*
X43854231Y-54673086D01*
X43848635Y-54675855D01*
X43833078Y-54685202D01*
X43810295Y-54699588D01*
X43782904Y-54717388D01*
X43765697Y-54728517D01*
X43653692Y-54792449D01*
X43536140Y-54845794D01*
X43415957Y-54887364D01*
X43296061Y-54915968D01*
X43278851Y-54918409D01*
X43241262Y-54921549D01*
X43190934Y-54923942D01*
X43128930Y-54925541D01*
X43056311Y-54926301D01*
X43039125Y-54926364D01*
X42982273Y-54926378D01*
X42936835Y-54925933D01*
X42900359Y-54924896D01*
X42870395Y-54923134D01*
X42844490Y-54920516D01*
X42820194Y-54916909D01*
X42795054Y-54912180D01*
X42717024Y-54893538D01*
X42612533Y-54860573D01*
X42508928Y-54819453D01*
X42410664Y-54771990D01*
X42322200Y-54719995D01*
X42301731Y-54706696D01*
X42274837Y-54689472D01*
X42253333Y-54675990D01*
X42240582Y-54668378D01*
X42225263Y-54658966D01*
X42194141Y-54636204D01*
X42157420Y-54605987D01*
X42117604Y-54570411D01*
X42077197Y-54531573D01*
X42022136Y-54473461D01*
X41934791Y-54365190D01*
X41860018Y-54249671D01*
X41797853Y-54126971D01*
X41748330Y-53997154D01*
X41711486Y-53860286D01*
X41710431Y-53855035D01*
X41705871Y-53821601D01*
X41702226Y-53776808D01*
X41699498Y-53723241D01*
X41697689Y-53663485D01*
X41696803Y-53600123D01*
X41696816Y-53577263D01*
X41957555Y-53577263D01*
X41957910Y-53624899D01*
X41958895Y-53670287D01*
X41960480Y-53710361D01*
X41962637Y-53742058D01*
X41965337Y-53762314D01*
X41966255Y-53766756D01*
X41969829Y-53786091D01*
X41973784Y-53809486D01*
X41974798Y-53815332D01*
X41983936Y-53854454D01*
X41997893Y-53901377D01*
X42015189Y-53951741D01*
X42034342Y-54001183D01*
X42053871Y-54045343D01*
X42067933Y-54073478D01*
X42129220Y-54176032D01*
X42202745Y-54272170D01*
X42287447Y-54360864D01*
X42382260Y-54441085D01*
X42486123Y-54511803D01*
X42597971Y-54571990D01*
X42625331Y-54584490D01*
X42706875Y-54616033D01*
X42789657Y-54638740D01*
X42879827Y-54654409D01*
X42905194Y-54657487D01*
X43003466Y-54664341D01*
X43103126Y-54663866D01*
X43200565Y-54656307D01*
X43292173Y-54641907D01*
X43374340Y-54620912D01*
X43405315Y-54610137D01*
X43456376Y-54589484D01*
X43510392Y-54564888D01*
X43563154Y-54538394D01*
X43610451Y-54512046D01*
X43648075Y-54487892D01*
X43653342Y-54484124D01*
X43744069Y-54414445D01*
X43822657Y-54343862D01*
X43891283Y-54270045D01*
X43952121Y-54190668D01*
X44007348Y-54103400D01*
X44041798Y-54038430D01*
X44088105Y-53926751D01*
X44121376Y-53810203D01*
X44141307Y-53690295D01*
X44147591Y-53568537D01*
X44139926Y-53446438D01*
X44139268Y-53441009D01*
X44134164Y-53399664D01*
X44130059Y-53369014D01*
X44126368Y-53345707D01*
X44122503Y-53326393D01*
X44117878Y-53307721D01*
X44111907Y-53286339D01*
X44082898Y-53199553D01*
X44032438Y-53086798D01*
X43969787Y-52979547D01*
X43896051Y-52879116D01*
X43812336Y-52786824D01*
X43719747Y-52703987D01*
X43619390Y-52631924D01*
X43512371Y-52571952D01*
X43436311Y-52539043D01*
X43350321Y-52511538D01*
X43259227Y-52492539D01*
X43160483Y-52481528D01*
X43051543Y-52477986D01*
X43008770Y-52478487D01*
X42894588Y-52485550D01*
X42789689Y-52501571D01*
X42691932Y-52527340D01*
X42599173Y-52563644D01*
X42509269Y-52611272D01*
X42420078Y-52671012D01*
X42329457Y-52743653D01*
X42275507Y-52793455D01*
X42193488Y-52884133D01*
X42122478Y-52982825D01*
X42063162Y-53088249D01*
X42016220Y-53199125D01*
X41982337Y-53314174D01*
X41962196Y-53432114D01*
X41960561Y-53451499D01*
X41958852Y-53487498D01*
X41957859Y-53530441D01*
X41957555Y-53577263D01*
X41696816Y-53577263D01*
X41696841Y-53535740D01*
X41697805Y-53472919D01*
X41699698Y-53414246D01*
X41702522Y-53362304D01*
X41706280Y-53319677D01*
X41710973Y-53288951D01*
X41727190Y-53221731D01*
X41769125Y-53090413D01*
X41823004Y-52965150D01*
X41888117Y-52847489D01*
X41963753Y-52738977D01*
X41982906Y-52714967D01*
X42073507Y-52614132D01*
X42172758Y-52522617D01*
X42279310Y-52441287D01*
X42391811Y-52371005D01*
X42508913Y-52312636D01*
X42629263Y-52267044D01*
X42751511Y-52235091D01*
X42760274Y-52233354D01*
X42782225Y-52229449D01*
X42804393Y-52226392D01*
X42828818Y-52224082D01*
X42857545Y-52222422D01*
X42892615Y-52221311D01*
X42936071Y-52220651D01*
X42989956Y-52220342D01*
X43056311Y-52220285D01*
X43071261Y-52220296D01*
X43135172Y-52220470D01*
X43186969Y-52220914D01*
X43228640Y-52221725D01*
X43262173Y-52222996D01*
X43289555Y-52224824D01*
X43312775Y-52227303D01*
X43333819Y-52230530D01*
X43354677Y-52234600D01*
X43396129Y-52244289D01*
X43486888Y-52271315D01*
X43577688Y-52305591D01*
X43663701Y-52345193D01*
X43740102Y-52388197D01*
X43769900Y-52407423D01*
X43887220Y-52492991D01*
X43994302Y-52587552D01*
X44090602Y-52690343D01*
X44175575Y-52800603D01*
X44248678Y-52917567D01*
X44309366Y-53040473D01*
X44357096Y-53168559D01*
X44391323Y-53301062D01*
X44395969Y-53324334D01*
X44400353Y-53348365D01*
X44403628Y-53370714D01*
X44405914Y-53393694D01*
X44407328Y-53419618D01*
X44407991Y-53450800D01*
X44408021Y-53489554D01*
X44407538Y-53538192D01*
X44407100Y-53568537D01*
X44406660Y-53599029D01*
X44405751Y-53653471D01*
G37*
X44405751Y-53653471D02*
X44404611Y-53705217D01*
X44403243Y-53746382D01*
X44401496Y-53779080D01*
X44399223Y-53805430D01*
X44396273Y-53827546D01*
X44392499Y-53847545D01*
X44387751Y-53867543D01*
X44370467Y-53930330D01*
X44322875Y-54067913D01*
X44264092Y-54196517D01*
X44193833Y-54316656D01*
X44111810Y-54428846D01*
X44017738Y-54533602D01*
X44007229Y-54543976D01*
X43983353Y-54566438D01*
X43956310Y-54590837D01*
X43928405Y-54615206D01*
X43901941Y-54637581D01*
X43879222Y-54655996D01*
X43862550Y-54668486D01*
X43854231Y-54673086D01*
X43848635Y-54675855D01*
X43833078Y-54685202D01*
X43810295Y-54699588D01*
X43782904Y-54717388D01*
X43765697Y-54728517D01*
X43653692Y-54792449D01*
X43536140Y-54845794D01*
X43415957Y-54887364D01*
X43296061Y-54915968D01*
X43278851Y-54918409D01*
X43241262Y-54921549D01*
X43190934Y-54923942D01*
X43128930Y-54925541D01*
X43056311Y-54926301D01*
X43039125Y-54926364D01*
X42982273Y-54926378D01*
X42936835Y-54925933D01*
X42900359Y-54924896D01*
X42870395Y-54923134D01*
X42844490Y-54920516D01*
X42820194Y-54916909D01*
X42795054Y-54912180D01*
X42717024Y-54893538D01*
X42612533Y-54860573D01*
X42508928Y-54819453D01*
X42410664Y-54771990D01*
X42322200Y-54719995D01*
X42301731Y-54706696D01*
X42274837Y-54689472D01*
X42253333Y-54675990D01*
X42240582Y-54668378D01*
X42225263Y-54658966D01*
X42194141Y-54636204D01*
X42157420Y-54605987D01*
X42117604Y-54570411D01*
X42077197Y-54531573D01*
X42022136Y-54473461D01*
X41934791Y-54365190D01*
X41860018Y-54249671D01*
X41797853Y-54126971D01*
X41748330Y-53997154D01*
X41711486Y-53860286D01*
X41710431Y-53855035D01*
X41705871Y-53821601D01*
X41702226Y-53776808D01*
X41699498Y-53723241D01*
X41697689Y-53663485D01*
X41696803Y-53600123D01*
X41696816Y-53577263D01*
X41957555Y-53577263D01*
X41957910Y-53624899D01*
X41958895Y-53670287D01*
X41960480Y-53710361D01*
X41962637Y-53742058D01*
X41965337Y-53762314D01*
X41966255Y-53766756D01*
X41969829Y-53786091D01*
X41973784Y-53809486D01*
X41974798Y-53815332D01*
X41983936Y-53854454D01*
X41997893Y-53901377D01*
X42015189Y-53951741D01*
X42034342Y-54001183D01*
X42053871Y-54045343D01*
X42067933Y-54073478D01*
X42129220Y-54176032D01*
X42202745Y-54272170D01*
X42287447Y-54360864D01*
X42382260Y-54441085D01*
X42486123Y-54511803D01*
X42597971Y-54571990D01*
X42625331Y-54584490D01*
X42706875Y-54616033D01*
X42789657Y-54638740D01*
X42879827Y-54654409D01*
X42905194Y-54657487D01*
X43003466Y-54664341D01*
X43103126Y-54663866D01*
X43200565Y-54656307D01*
X43292173Y-54641907D01*
X43374340Y-54620912D01*
X43405315Y-54610137D01*
X43456376Y-54589484D01*
X43510392Y-54564888D01*
X43563154Y-54538394D01*
X43610451Y-54512046D01*
X43648075Y-54487892D01*
X43653342Y-54484124D01*
X43744069Y-54414445D01*
X43822657Y-54343862D01*
X43891283Y-54270045D01*
X43952121Y-54190668D01*
X44007348Y-54103400D01*
X44041798Y-54038430D01*
X44088105Y-53926751D01*
X44121376Y-53810203D01*
X44141307Y-53690295D01*
X44147591Y-53568537D01*
X44139926Y-53446438D01*
X44139268Y-53441009D01*
X44134164Y-53399664D01*
X44130059Y-53369014D01*
X44126368Y-53345707D01*
X44122503Y-53326393D01*
X44117878Y-53307721D01*
X44111907Y-53286339D01*
X44082898Y-53199553D01*
X44032438Y-53086798D01*
X43969787Y-52979547D01*
X43896051Y-52879116D01*
X43812336Y-52786824D01*
X43719747Y-52703987D01*
X43619390Y-52631924D01*
X43512371Y-52571952D01*
X43436311Y-52539043D01*
X43350321Y-52511538D01*
X43259227Y-52492539D01*
X43160483Y-52481528D01*
X43051543Y-52477986D01*
X43008770Y-52478487D01*
X42894588Y-52485550D01*
X42789689Y-52501571D01*
X42691932Y-52527340D01*
X42599173Y-52563644D01*
X42509269Y-52611272D01*
X42420078Y-52671012D01*
X42329457Y-52743653D01*
X42275507Y-52793455D01*
X42193488Y-52884133D01*
X42122478Y-52982825D01*
X42063162Y-53088249D01*
X42016220Y-53199125D01*
X41982337Y-53314174D01*
X41962196Y-53432114D01*
X41960561Y-53451499D01*
X41958852Y-53487498D01*
X41957859Y-53530441D01*
X41957555Y-53577263D01*
X41696816Y-53577263D01*
X41696841Y-53535740D01*
X41697805Y-53472919D01*
X41699698Y-53414246D01*
X41702522Y-53362304D01*
X41706280Y-53319677D01*
X41710973Y-53288951D01*
X41727190Y-53221731D01*
X41769125Y-53090413D01*
X41823004Y-52965150D01*
X41888117Y-52847489D01*
X41963753Y-52738977D01*
X41982906Y-52714967D01*
X42073507Y-52614132D01*
X42172758Y-52522617D01*
X42279310Y-52441287D01*
X42391811Y-52371005D01*
X42508913Y-52312636D01*
X42629263Y-52267044D01*
X42751511Y-52235091D01*
X42760274Y-52233354D01*
X42782225Y-52229449D01*
X42804393Y-52226392D01*
X42828818Y-52224082D01*
X42857545Y-52222422D01*
X42892615Y-52221311D01*
X42936071Y-52220651D01*
X42989956Y-52220342D01*
X43056311Y-52220285D01*
X43071261Y-52220296D01*
X43135172Y-52220470D01*
X43186969Y-52220914D01*
X43228640Y-52221725D01*
X43262173Y-52222996D01*
X43289555Y-52224824D01*
X43312775Y-52227303D01*
X43333819Y-52230530D01*
X43354677Y-52234600D01*
X43396129Y-52244289D01*
X43486888Y-52271315D01*
X43577688Y-52305591D01*
X43663701Y-52345193D01*
X43740102Y-52388197D01*
X43769900Y-52407423D01*
X43887220Y-52492991D01*
X43994302Y-52587552D01*
X44090602Y-52690343D01*
X44175575Y-52800603D01*
X44248678Y-52917567D01*
X44309366Y-53040473D01*
X44357096Y-53168559D01*
X44391323Y-53301062D01*
X44395969Y-53324334D01*
X44400353Y-53348365D01*
X44403628Y-53370714D01*
X44405914Y-53393694D01*
X44407328Y-53419618D01*
X44407991Y-53450800D01*
X44408021Y-53489554D01*
X44407538Y-53538192D01*
X44407100Y-53568537D01*
X44406660Y-53599029D01*
X44405751Y-53653471D01*
G36*
X40151951Y-52688811D02*
G01*
X40182028Y-52689821D01*
X40204421Y-52693032D01*
X40224451Y-52699530D01*
X40247435Y-52710399D01*
X40271253Y-52724222D01*
X40299907Y-52748861D01*
X40319294Y-52779426D01*
X40330855Y-52818490D01*
X40336032Y-52868628D01*
X40336654Y-52914443D01*
X40333124Y-52952539D01*
X40324314Y-52982931D01*
X40309239Y-53008924D01*
X40286918Y-53033823D01*
X40275765Y-53043937D01*
X40248417Y-53063741D01*
X40224094Y-53074801D01*
X40217315Y-53076408D01*
X40181268Y-53081276D01*
X40139229Y-53082735D01*
X40097797Y-53080763D01*
X40063571Y-53075340D01*
X40058195Y-53073816D01*
X40024500Y-53057328D01*
X39992981Y-53031522D01*
X39967680Y-53000324D01*
X39952641Y-52967657D01*
X39952269Y-52966203D01*
X39948364Y-52940554D01*
X39946445Y-52906246D01*
X39946825Y-52868628D01*
X39949471Y-52835187D01*
X39958560Y-52792420D01*
X39974954Y-52759082D01*
X40000094Y-52732600D01*
X40035422Y-52710399D01*
X40042462Y-52706852D01*
X40064083Y-52697316D01*
X40084238Y-52691848D01*
X40108247Y-52689363D01*
X40141428Y-52688776D01*
X40151951Y-52688811D01*
G37*
X40151951Y-52688811D02*
X40182028Y-52689821D01*
X40204421Y-52693032D01*
X40224451Y-52699530D01*
X40247435Y-52710399D01*
X40271253Y-52724222D01*
X40299907Y-52748861D01*
X40319294Y-52779426D01*
X40330855Y-52818490D01*
X40336032Y-52868628D01*
X40336654Y-52914443D01*
X40333124Y-52952539D01*
X40324314Y-52982931D01*
X40309239Y-53008924D01*
X40286918Y-53033823D01*
X40275765Y-53043937D01*
X40248417Y-53063741D01*
X40224094Y-53074801D01*
X40217315Y-53076408D01*
X40181268Y-53081276D01*
X40139229Y-53082735D01*
X40097797Y-53080763D01*
X40063571Y-53075340D01*
X40058195Y-53073816D01*
X40024500Y-53057328D01*
X39992981Y-53031522D01*
X39967680Y-53000324D01*
X39952641Y-52967657D01*
X39952269Y-52966203D01*
X39948364Y-52940554D01*
X39946445Y-52906246D01*
X39946825Y-52868628D01*
X39949471Y-52835187D01*
X39958560Y-52792420D01*
X39974954Y-52759082D01*
X40000094Y-52732600D01*
X40035422Y-52710399D01*
X40042462Y-52706852D01*
X40064083Y-52697316D01*
X40084238Y-52691848D01*
X40108247Y-52689363D01*
X40141428Y-52688776D01*
X40151951Y-52688811D01*
D13*
X62738000Y-44736000D03*
X62738000Y-47276000D03*
X62738000Y-49816000D03*
X62738000Y-52356000D03*
X62738000Y-54896000D03*
X62738000Y-57436000D03*
X62738000Y-59976000D03*
X62738000Y-62516000D03*
X62738000Y-65056000D03*
X62738000Y-67596000D03*
X62738000Y-70136000D03*
X62738000Y-72676000D03*
X47498000Y-72676000D03*
X47498000Y-70136000D03*
X47498000Y-67596000D03*
X47498000Y-65056000D03*
X47498000Y-62516000D03*
X47498000Y-59976000D03*
X47498000Y-57436000D03*
X47498000Y-54896000D03*
X47498000Y-52356000D03*
X47498000Y-49816000D03*
X47498000Y-47276000D03*
D14*
X47498000Y-44736000D03*
%LPC*%
D13*
X62738000Y-44736000D03*
X62738000Y-47276000D03*
X62738000Y-49816000D03*
X62738000Y-52356000D03*
X62738000Y-54896000D03*
X62738000Y-57436000D03*
X62738000Y-59976000D03*
X62738000Y-62516000D03*
X62738000Y-65056000D03*
X62738000Y-67596000D03*
X62738000Y-70136000D03*
X62738000Y-72676000D03*
X47498000Y-72676000D03*
X47498000Y-70136000D03*
X47498000Y-67596000D03*
X47498000Y-65056000D03*
X47498000Y-62516000D03*
X47498000Y-59976000D03*
X47498000Y-57436000D03*
X47498000Y-54896000D03*
X47498000Y-52356000D03*
X47498000Y-49816000D03*
X47498000Y-47276000D03*
D14*
X47498000Y-44736000D03*
D15*
X69447999Y-58056000D03*
X70947999Y-58056000D03*
X70947999Y-63356000D03*
X69447999Y-63356000D03*
D16*
X52468000Y-75035999D03*
X52468000Y-76535999D03*
X57768000Y-76535999D03*
X57768000Y-75035999D03*
D17*
X40788001Y-63356000D03*
X39288001Y-63356000D03*
X39288001Y-58056000D03*
X40788001Y-58056000D03*
D18*
X67138815Y-48685185D03*
X43097185Y-72726815D03*
X67138815Y-72726815D03*
X43097185Y-48685185D03*
D19*
X52618000Y-53706000D03*
X57618000Y-53706000D03*
D20*
X60418000Y-60706000D03*
X49818000Y-60706000D03*
D19*
X55118000Y-68206000D03*
X57618000Y-68206000D03*
D21*
X52618000Y-68206000D03*
D22*
X61130000Y-71410000D03*
D23*
X56050000Y-71410000D03*
D22*
X54150000Y-71410000D03*
D23*
X49070000Y-71410000D03*
M02*
