M48
; DRILL file {KiCad (6.0.4)} date Thu Apr  7 13:27:01 2022
; FORMAT={-:-/ absolute / metric / decimal}
; #@! TF.CreationDate,2022-04-07T13:27:01+02:00
; #@! TF.GenerationSoftware,Kicad,Pcbnew,(6.0.4)
; #@! TF.FileFunction,Plated,1,2,PTH
FMAT,2
METRIC
; #@! TA.AperFunction,Plated,PTH,ViaDrill
T1C0.400
; #@! TA.AperFunction,Plated,PTH,ComponentDrill
T2C0.700
; #@! TA.AperFunction,Plated,PTH,ComponentDrill
T3C1.000
; #@! TA.AperFunction,Plated,PTH,ComponentDrill
T4C1.092
%
G90
G05
T1
X39.87Y-53.88
X59.37Y-50.16
X68.85Y-54.76
X69.43Y-64.98
T2
X49.07Y-71.41
X54.15Y-71.41
X56.05Y-71.41
X61.13Y-71.41
T3
X52.618Y-53.706
X52.618Y-68.206
X55.118Y-68.206
X57.618Y-53.706
X57.618Y-68.206
T4
X47.498Y-44.736
X47.498Y-47.276
X47.498Y-49.816
X47.498Y-52.356
X47.498Y-54.896
X47.498Y-57.436
X47.498Y-59.976
X47.498Y-62.516
X47.498Y-65.056
X47.498Y-67.596
X47.498Y-70.136
X47.498Y-72.676
X62.738Y-44.736
X62.738Y-47.276
X62.738Y-49.816
X62.738Y-52.356
X62.738Y-54.896
X62.738Y-57.436
X62.738Y-59.976
X62.738Y-62.516
X62.738Y-65.056
X62.738Y-67.596
X62.738Y-70.136
X62.738Y-72.676
T3
X49.818Y-61.306G85X49.818Y-60.106
G05
X60.418Y-61.306G85X60.418Y-60.106
G05
T0
M30
