%TF.GenerationSoftware,KiCad,Pcbnew,(6.0.4)*%
%TF.CreationDate,2022-04-07T13:26:34+02:00*%
%TF.ProjectId,Little Big Scroll 1,4c697474-6c65-4204-9269-67205363726f,v1.0*%
%TF.SameCoordinates,Original*%
%TF.FileFunction,Profile,NP*%
%FSLAX46Y46*%
G04 Gerber Fmt 4.6, Leading zero omitted, Abs format (unit mm)*
G04 Created by KiCad (PCBNEW (6.0.4)) date 2022-04-07 13:26:34*
%MOMM*%
%LPD*%
G01*
G04 APERTURE LIST*
%TA.AperFunction,Profile*%
%ADD10C,0.100000*%
%TD*%
G04 APERTURE END LIST*
D10*
X55118000Y-47990000D02*
X59410000Y-47990000D01*
X61580000Y-45820000D02*
X61579801Y-39490199D01*
X55118000Y-47990000D02*
X50830000Y-47990000D01*
X61580000Y-45820000D02*
X59410000Y-47990000D01*
X48660000Y-45820000D02*
X48660000Y-39490000D01*
X48660000Y-45820000D02*
X50830000Y-47990000D01*
X61830000Y-39240001D02*
G75*
G03*
X61579801Y-39490199I0J-250199D01*
G01*
X48409801Y-39239801D02*
G75*
G03*
X61830000Y-39240000I6709781J-21472203D01*
G01*
X48659999Y-39490000D02*
G75*
G03*
X48409801Y-39239801I-250199J0D01*
G01*
X71697999Y-61500452D02*
G75*
G03*
X71766298Y-61752710I500009J3D01*
G01*
X70900841Y-59006019D02*
G75*
G03*
X71117719Y-58956516I-41J500019D01*
G01*
X71766298Y-59659289D02*
G75*
G03*
X71117718Y-58956516I-431700J252259D01*
G01*
X69278279Y-58956516D02*
G75*
G03*
X68629701Y-59659289I-216879J-450514D01*
G01*
X71117719Y-62455484D02*
G75*
G03*
X71766296Y-61752711I216877J450515D01*
G01*
X69495157Y-62405999D02*
G75*
G03*
X69278279Y-62455484I-2J-499990D01*
G01*
X68698000Y-59911547D02*
G75*
G03*
X68629701Y-59659289I-500010J-3D01*
G01*
X71117719Y-62455484D02*
G75*
G03*
X70900842Y-62405999I-216876J-450505D01*
G01*
X68629700Y-61752711D02*
G75*
G03*
X69278279Y-62455484I431701J-252258D01*
G01*
X68629700Y-61752711D02*
G75*
G03*
X68697999Y-61500453I-431710J252261D01*
G01*
X71766298Y-59659289D02*
G75*
G03*
X71697999Y-59911548I431712J-252261D01*
G01*
X69278280Y-58956514D02*
G75*
G03*
X69495156Y-59006001I216880J450504D01*
G01*
X68698000Y-61500452D02*
X68698000Y-59911547D01*
X70900841Y-62405999D02*
X69495157Y-62405999D01*
X71697999Y-59911548D02*
X71697999Y-61500452D01*
X69495157Y-59006001D02*
X70900841Y-59006001D01*
X56817999Y-75083157D02*
X56817999Y-76488841D01*
X55912452Y-77285999D02*
X54323548Y-77285999D01*
X53418001Y-76488841D02*
X53418001Y-75083157D01*
X54323548Y-74286000D02*
X55912453Y-74286000D01*
X56867486Y-74866280D02*
G75*
G03*
X56817999Y-75083156I450504J-216880D01*
G01*
X56164711Y-77354298D02*
G75*
G03*
X55912452Y-77285999I-252261J-431712D01*
G01*
X54071289Y-74217700D02*
G75*
G03*
X54323547Y-74285999I252261J431710D01*
G01*
X54071289Y-74217700D02*
G75*
G03*
X53368516Y-74866279I-252258J-431701D01*
G01*
X53368516Y-76705719D02*
G75*
G03*
X53418001Y-76488842I-450505J216876D01*
G01*
X55912453Y-74286000D02*
G75*
G03*
X56164711Y-74217701I-3J500010D01*
G01*
X53418001Y-75083157D02*
G75*
G03*
X53368516Y-74866279I-499990J2D01*
G01*
X53368516Y-76705719D02*
G75*
G03*
X54071289Y-77354296I450515J-216877D01*
G01*
X56867484Y-74866279D02*
G75*
G03*
X56164711Y-74217701I-450514J216879D01*
G01*
X56164711Y-77354298D02*
G75*
G03*
X56867484Y-76705718I252259J431700D01*
G01*
X56817981Y-76488841D02*
G75*
G03*
X56867484Y-76705719I500019J41D01*
G01*
X54323548Y-77285999D02*
G75*
G03*
X54071290Y-77354298I3J-500009D01*
G01*
X38538001Y-59911548D02*
G75*
G03*
X38469702Y-59659290I-500009J-3D01*
G01*
X39335159Y-62405981D02*
G75*
G03*
X39118281Y-62455484I41J-500019D01*
G01*
X38469702Y-61752711D02*
G75*
G03*
X39118282Y-62455484I431700J-252259D01*
G01*
X40957721Y-62455484D02*
G75*
G03*
X41606299Y-61752711I216879J450514D01*
G01*
X39118281Y-58956516D02*
G75*
G03*
X38469704Y-59659289I-216877J-450515D01*
G01*
X40740843Y-59006001D02*
G75*
G03*
X40957721Y-58956516I2J499990D01*
G01*
X41538000Y-61500453D02*
G75*
G03*
X41606299Y-61752711I500010J3D01*
G01*
X39118281Y-58956516D02*
G75*
G03*
X39335158Y-59006001I216876J450505D01*
G01*
X41606300Y-59659289D02*
G75*
G03*
X40957721Y-58956516I-431701J252258D01*
G01*
X41606300Y-59659289D02*
G75*
G03*
X41538001Y-59911547I431710J-252261D01*
G01*
X38469702Y-61752711D02*
G75*
G03*
X38538001Y-61500452I-431712J252261D01*
G01*
X40957720Y-62455486D02*
G75*
G03*
X40740844Y-62405999I-216880J-450504D01*
G01*
X41538000Y-59911548D02*
X41538000Y-61500453D01*
X39335159Y-59006001D02*
X40740843Y-59006001D01*
X38538001Y-61500452D02*
X38538001Y-59911548D01*
X40740843Y-62405999D02*
X39335159Y-62405999D01*
M02*
