%TF.GenerationSoftware,KiCad,Pcbnew,(6.0.4)*%
%TF.CreationDate,2022-08-26T14:06:06+02:00*%
%TF.ProjectId,Little Big Scroll 6 - PCB,4c697474-6c65-4204-9269-67205363726f,v1.1*%
%TF.SameCoordinates,Original*%
%TF.FileFunction,Legend,Bot*%
%TF.FilePolarity,Positive*%
%FSLAX46Y46*%
G04 Gerber Fmt 4.6, Leading zero omitted, Abs format (unit mm)*
G04 Created by KiCad (PCBNEW (6.0.4)) date 2022-08-26 14:06:06*
%MOMM*%
%LPD*%
G01*
G04 APERTURE LIST*
G04 Aperture macros list*
%AMRoundRect*
0 Rectangle with rounded corners*
0 $1 Rounding radius*
0 $2 $3 $4 $5 $6 $7 $8 $9 X,Y pos of 4 corners*
0 Add a 4 corners polygon primitive as box body*
4,1,4,$2,$3,$4,$5,$6,$7,$8,$9,$2,$3,0*
0 Add four circle primitives for the rounded corners*
1,1,$1+$1,$2,$3*
1,1,$1+$1,$4,$5*
1,1,$1+$1,$6,$7*
1,1,$1+$1,$8,$9*
0 Add four rect primitives between the rounded corners*
20,1,$1+$1,$2,$3,$4,$5,0*
20,1,$1+$1,$4,$5,$6,$7,0*
20,1,$1+$1,$6,$7,$8,$9,0*
20,1,$1+$1,$8,$9,$2,$3,0*%
G04 Aperture macros list end*
%ADD10C,0.150000*%
%ADD11C,0.100000*%
%ADD12C,0.120000*%
%ADD13C,0.200000*%
%ADD14R,1.752600X1.752600*%
%ADD15C,1.752600*%
%ADD16C,3.000000*%
%ADD17C,1.701800*%
%ADD18C,3.987800*%
%ADD19R,2.550000X2.500000*%
%ADD20R,2.000000X2.000000*%
%ADD21C,2.000000*%
%ADD22O,1.400000X2.600000*%
%ADD23RoundRect,0.082000X-0.668000X0.328000X-0.668000X-0.328000X0.668000X-0.328000X0.668000X0.328000X0*%
%ADD24RoundRect,0.082000X0.668000X-0.328000X0.668000X0.328000X-0.668000X0.328000X-0.668000X-0.328000X0*%
%ADD25C,3.700000*%
%ADD26R,1.700000X1.700000*%
%ADD27O,1.700000X1.700000*%
%ADD28RoundRect,0.250000X0.625000X-0.350000X0.625000X0.350000X-0.625000X0.350000X-0.625000X-0.350000X0*%
%ADD29O,1.750000X1.200000*%
%ADD30C,1.600000*%
%ADD31O,1.600000X1.600000*%
%ADD32C,0.850000*%
%ADD33R,0.800000X1.200000*%
%ADD34R,1.400000X0.800000*%
%ADD35R,1.500000X0.800000*%
G04 APERTURE END LIST*
D10*
X106162380Y-51892380D02*
X106495714Y-51416190D01*
X106733809Y-51892380D02*
X106733809Y-50892380D01*
X106352857Y-50892380D01*
X106257619Y-50940000D01*
X106210000Y-50987619D01*
X106162380Y-51082857D01*
X106162380Y-51225714D01*
X106210000Y-51320952D01*
X106257619Y-51368571D01*
X106352857Y-51416190D01*
X106733809Y-51416190D01*
X105733809Y-51368571D02*
X105400476Y-51368571D01*
X105257619Y-51892380D02*
X105733809Y-51892380D01*
X105733809Y-50892380D01*
X105257619Y-50892380D01*
X104876666Y-51844761D02*
X104733809Y-51892380D01*
X104495714Y-51892380D01*
X104400476Y-51844761D01*
X104352857Y-51797142D01*
X104305238Y-51701904D01*
X104305238Y-51606666D01*
X104352857Y-51511428D01*
X104400476Y-51463809D01*
X104495714Y-51416190D01*
X104686190Y-51368571D01*
X104781428Y-51320952D01*
X104829047Y-51273333D01*
X104876666Y-51178095D01*
X104876666Y-51082857D01*
X104829047Y-50987619D01*
X104781428Y-50940000D01*
X104686190Y-50892380D01*
X104448095Y-50892380D01*
X104305238Y-50940000D01*
X103876666Y-51368571D02*
X103543333Y-51368571D01*
X103400476Y-51892380D02*
X103876666Y-51892380D01*
X103876666Y-50892380D01*
X103400476Y-50892380D01*
X103114761Y-50892380D02*
X102543333Y-50892380D01*
X102829047Y-51892380D02*
X102829047Y-50892380D01*
X121200952Y-49036428D02*
X120439047Y-49036428D01*
X120820000Y-49417380D02*
X120820000Y-48655476D01*
X121200952Y-50646428D02*
X120439047Y-50646428D01*
X123192380Y-48189404D02*
X123192380Y-47617976D01*
X123192380Y-47903690D02*
X122192380Y-47903690D01*
X122335238Y-47808452D01*
X122430476Y-47713214D01*
X122478095Y-47617976D01*
X123097142Y-48617976D02*
X123144761Y-48665595D01*
X123192380Y-48617976D01*
X123144761Y-48570357D01*
X123097142Y-48617976D01*
X123192380Y-48617976D01*
X123144761Y-49808452D02*
X123192380Y-49951309D01*
X123192380Y-50189404D01*
X123144761Y-50284642D01*
X123097142Y-50332261D01*
X123001904Y-50379880D01*
X122906666Y-50379880D01*
X122811428Y-50332261D01*
X122763809Y-50284642D01*
X122716190Y-50189404D01*
X122668571Y-49998928D01*
X122620952Y-49903690D01*
X122573333Y-49856071D01*
X122478095Y-49808452D01*
X122382857Y-49808452D01*
X122287619Y-49856071D01*
X122240000Y-49903690D01*
X122192380Y-49998928D01*
X122192380Y-50237023D01*
X122240000Y-50379880D01*
X123192380Y-50951309D02*
X123144761Y-50856071D01*
X123097142Y-50808452D01*
X123001904Y-50760833D01*
X122716190Y-50760833D01*
X122620952Y-50808452D01*
X122573333Y-50856071D01*
X122525714Y-50951309D01*
X122525714Y-51094166D01*
X122573333Y-51189404D01*
X122620952Y-51237023D01*
X122716190Y-51284642D01*
X123001904Y-51284642D01*
X123097142Y-51237023D01*
X123144761Y-51189404D01*
X123192380Y-51094166D01*
X123192380Y-50951309D01*
X123192380Y-51856071D02*
X123144761Y-51760833D01*
X123049523Y-51713214D01*
X122192380Y-51713214D01*
X123192380Y-52665595D02*
X122192380Y-52665595D01*
X123144761Y-52665595D02*
X123192380Y-52570357D01*
X123192380Y-52379880D01*
X123144761Y-52284642D01*
X123097142Y-52237023D01*
X123001904Y-52189404D01*
X122716190Y-52189404D01*
X122620952Y-52237023D01*
X122573333Y-52284642D01*
X122525714Y-52379880D01*
X122525714Y-52570357D01*
X122573333Y-52665595D01*
X123144761Y-53522738D02*
X123192380Y-53427500D01*
X123192380Y-53237023D01*
X123144761Y-53141785D01*
X123049523Y-53094166D01*
X122668571Y-53094166D01*
X122573333Y-53141785D01*
X122525714Y-53237023D01*
X122525714Y-53427500D01*
X122573333Y-53522738D01*
X122668571Y-53570357D01*
X122763809Y-53570357D01*
X122859047Y-53094166D01*
X123192380Y-53998928D02*
X122525714Y-53998928D01*
X122716190Y-53998928D02*
X122620952Y-54046547D01*
X122573333Y-54094166D01*
X122525714Y-54189404D01*
X122525714Y-54284642D01*
X123192380Y-55379880D02*
X122192380Y-55379880D01*
X123192380Y-55808452D02*
X122668571Y-55808452D01*
X122573333Y-55760833D01*
X122525714Y-55665595D01*
X122525714Y-55522738D01*
X122573333Y-55427500D01*
X122620952Y-55379880D01*
X123192380Y-56427500D02*
X123144761Y-56332261D01*
X123097142Y-56284642D01*
X123001904Y-56237023D01*
X122716190Y-56237023D01*
X122620952Y-56284642D01*
X122573333Y-56332261D01*
X122525714Y-56427500D01*
X122525714Y-56570357D01*
X122573333Y-56665595D01*
X122620952Y-56713214D01*
X122716190Y-56760833D01*
X123001904Y-56760833D01*
X123097142Y-56713214D01*
X123144761Y-56665595D01*
X123192380Y-56570357D01*
X123192380Y-56427500D01*
X122525714Y-57046547D02*
X122525714Y-57427500D01*
X122192380Y-57189404D02*
X123049523Y-57189404D01*
X123144761Y-57237023D01*
X123192380Y-57332261D01*
X123192380Y-57427500D01*
X123144761Y-57713214D02*
X123192380Y-57808452D01*
X123192380Y-57998928D01*
X123144761Y-58094166D01*
X123049523Y-58141785D01*
X123001904Y-58141785D01*
X122906666Y-58094166D01*
X122859047Y-57998928D01*
X122859047Y-57856071D01*
X122811428Y-57760833D01*
X122716190Y-57713214D01*
X122668571Y-57713214D01*
X122573333Y-57760833D01*
X122525714Y-57856071D01*
X122525714Y-57998928D01*
X122573333Y-58094166D01*
X122525714Y-58475119D02*
X123192380Y-58665595D01*
X122716190Y-58856071D01*
X123192380Y-59046547D01*
X122525714Y-59237023D01*
X123192380Y-60046547D02*
X122668571Y-60046547D01*
X122573333Y-59998928D01*
X122525714Y-59903690D01*
X122525714Y-59713214D01*
X122573333Y-59617976D01*
X123144761Y-60046547D02*
X123192380Y-59951309D01*
X123192380Y-59713214D01*
X123144761Y-59617976D01*
X123049523Y-59570357D01*
X122954285Y-59570357D01*
X122859047Y-59617976D01*
X122811428Y-59713214D01*
X122811428Y-59951309D01*
X122763809Y-60046547D01*
X122525714Y-60522738D02*
X123525714Y-60522738D01*
X122573333Y-60522738D02*
X122525714Y-60617976D01*
X122525714Y-60808452D01*
X122573333Y-60903690D01*
X122620952Y-60951309D01*
X122716190Y-60998928D01*
X123001904Y-60998928D01*
X123097142Y-60951309D01*
X123144761Y-60903690D01*
X123192380Y-60808452D01*
X123192380Y-60617976D01*
X123144761Y-60522738D01*
X123144761Y-62141785D02*
X123192380Y-62237023D01*
X123192380Y-62427500D01*
X123144761Y-62522738D01*
X123049523Y-62570357D01*
X123001904Y-62570357D01*
X122906666Y-62522738D01*
X122859047Y-62427500D01*
X122859047Y-62284642D01*
X122811428Y-62189404D01*
X122716190Y-62141785D01*
X122668571Y-62141785D01*
X122573333Y-62189404D01*
X122525714Y-62284642D01*
X122525714Y-62427500D01*
X122573333Y-62522738D01*
X123192380Y-63141785D02*
X123144761Y-63046547D01*
X123097142Y-62998928D01*
X123001904Y-62951309D01*
X122716190Y-62951309D01*
X122620952Y-62998928D01*
X122573333Y-63046547D01*
X122525714Y-63141785D01*
X122525714Y-63284642D01*
X122573333Y-63379880D01*
X122620952Y-63427500D01*
X122716190Y-63475119D01*
X123001904Y-63475119D01*
X123097142Y-63427500D01*
X123144761Y-63379880D01*
X123192380Y-63284642D01*
X123192380Y-63141785D01*
X123144761Y-64332261D02*
X123192380Y-64237023D01*
X123192380Y-64046547D01*
X123144761Y-63951309D01*
X123097142Y-63903690D01*
X123001904Y-63856071D01*
X122716190Y-63856071D01*
X122620952Y-63903690D01*
X122573333Y-63951309D01*
X122525714Y-64046547D01*
X122525714Y-64237023D01*
X122573333Y-64332261D01*
X123192380Y-64760833D02*
X122192380Y-64760833D01*
X122811428Y-64856071D02*
X123192380Y-65141785D01*
X122525714Y-65141785D02*
X122906666Y-64760833D01*
X123144761Y-65951309D02*
X123192380Y-65856071D01*
X123192380Y-65665595D01*
X123144761Y-65570357D01*
X123049523Y-65522738D01*
X122668571Y-65522738D01*
X122573333Y-65570357D01*
X122525714Y-65665595D01*
X122525714Y-65856071D01*
X122573333Y-65951309D01*
X122668571Y-65998928D01*
X122763809Y-65998928D01*
X122859047Y-65522738D01*
X122525714Y-66284642D02*
X122525714Y-66665595D01*
X122192380Y-66427500D02*
X123049523Y-66427500D01*
X123144761Y-66475119D01*
X123192380Y-66570357D01*
X123192380Y-66665595D01*
X123144761Y-66951309D02*
X123192380Y-67046547D01*
X123192380Y-67237023D01*
X123144761Y-67332261D01*
X123049523Y-67379880D01*
X123001904Y-67379880D01*
X122906666Y-67332261D01*
X122859047Y-67237023D01*
X122859047Y-67094166D01*
X122811428Y-66998928D01*
X122716190Y-66951309D01*
X122668571Y-66951309D01*
X122573333Y-66998928D01*
X122525714Y-67094166D01*
X122525714Y-67237023D01*
X122573333Y-67332261D01*
X122525714Y-68427500D02*
X122525714Y-68808452D01*
X123192380Y-68570357D02*
X122335238Y-68570357D01*
X122240000Y-68617976D01*
X122192380Y-68713214D01*
X122192380Y-68808452D01*
X123192380Y-69141785D02*
X122525714Y-69141785D01*
X122716190Y-69141785D02*
X122620952Y-69189404D01*
X122573333Y-69237023D01*
X122525714Y-69332261D01*
X122525714Y-69427500D01*
X123192380Y-69903690D02*
X123144761Y-69808452D01*
X123097142Y-69760833D01*
X123001904Y-69713214D01*
X122716190Y-69713214D01*
X122620952Y-69760833D01*
X122573333Y-69808452D01*
X122525714Y-69903690D01*
X122525714Y-70046547D01*
X122573333Y-70141785D01*
X122620952Y-70189404D01*
X122716190Y-70237023D01*
X123001904Y-70237023D01*
X123097142Y-70189404D01*
X123144761Y-70141785D01*
X123192380Y-70046547D01*
X123192380Y-69903690D01*
X123192380Y-70665595D02*
X122525714Y-70665595D01*
X122620952Y-70665595D02*
X122573333Y-70713214D01*
X122525714Y-70808452D01*
X122525714Y-70951309D01*
X122573333Y-71046547D01*
X122668571Y-71094166D01*
X123192380Y-71094166D01*
X122668571Y-71094166D02*
X122573333Y-71141785D01*
X122525714Y-71237023D01*
X122525714Y-71379880D01*
X122573333Y-71475119D01*
X122668571Y-71522738D01*
X123192380Y-71522738D01*
X123192380Y-72760833D02*
X122525714Y-72760833D01*
X122716190Y-72760833D02*
X122620952Y-72808452D01*
X122573333Y-72856071D01*
X122525714Y-72951309D01*
X122525714Y-73046547D01*
X123144761Y-73760833D02*
X123192380Y-73665595D01*
X123192380Y-73475119D01*
X123144761Y-73379880D01*
X123049523Y-73332261D01*
X122668571Y-73332261D01*
X122573333Y-73379880D01*
X122525714Y-73475119D01*
X122525714Y-73665595D01*
X122573333Y-73760833D01*
X122668571Y-73808452D01*
X122763809Y-73808452D01*
X122859047Y-73332261D01*
X123192380Y-74665595D02*
X122668571Y-74665595D01*
X122573333Y-74617976D01*
X122525714Y-74522738D01*
X122525714Y-74332261D01*
X122573333Y-74237023D01*
X123144761Y-74665595D02*
X123192380Y-74570357D01*
X123192380Y-74332261D01*
X123144761Y-74237023D01*
X123049523Y-74189404D01*
X122954285Y-74189404D01*
X122859047Y-74237023D01*
X122811428Y-74332261D01*
X122811428Y-74570357D01*
X122763809Y-74665595D01*
X123192380Y-75141785D02*
X122525714Y-75141785D01*
X122716190Y-75141785D02*
X122620952Y-75189404D01*
X122573333Y-75237023D01*
X122525714Y-75332261D01*
X122525714Y-75427500D01*
X123192380Y-76665595D02*
X123144761Y-76570357D01*
X123097142Y-76522738D01*
X123001904Y-76475119D01*
X122716190Y-76475119D01*
X122620952Y-76522738D01*
X122573333Y-76570357D01*
X122525714Y-76665595D01*
X122525714Y-76808452D01*
X122573333Y-76903690D01*
X122620952Y-76951309D01*
X122716190Y-76998928D01*
X123001904Y-76998928D01*
X123097142Y-76951309D01*
X123144761Y-76903690D01*
X123192380Y-76808452D01*
X123192380Y-76665595D01*
X122525714Y-77284642D02*
X122525714Y-77665595D01*
X123192380Y-77427500D02*
X122335238Y-77427500D01*
X122240000Y-77475119D01*
X122192380Y-77570357D01*
X122192380Y-77665595D01*
X123192380Y-78760833D02*
X122192380Y-78760833D01*
X122192380Y-79141785D01*
X122240000Y-79237023D01*
X122287619Y-79284642D01*
X122382857Y-79332261D01*
X122525714Y-79332261D01*
X122620952Y-79284642D01*
X122668571Y-79237023D01*
X122716190Y-79141785D01*
X122716190Y-78760833D01*
X123097142Y-80332261D02*
X123144761Y-80284642D01*
X123192380Y-80141785D01*
X123192380Y-80046547D01*
X123144761Y-79903690D01*
X123049523Y-79808452D01*
X122954285Y-79760833D01*
X122763809Y-79713214D01*
X122620952Y-79713214D01*
X122430476Y-79760833D01*
X122335238Y-79808452D01*
X122240000Y-79903690D01*
X122192380Y-80046547D01*
X122192380Y-80141785D01*
X122240000Y-80284642D01*
X122287619Y-80332261D01*
X122668571Y-81094166D02*
X122716190Y-81237023D01*
X122763809Y-81284642D01*
X122859047Y-81332261D01*
X123001904Y-81332261D01*
X123097142Y-81284642D01*
X123144761Y-81237023D01*
X123192380Y-81141785D01*
X123192380Y-80760833D01*
X122192380Y-80760833D01*
X122192380Y-81094166D01*
X122240000Y-81189404D01*
X122287619Y-81237023D01*
X122382857Y-81284642D01*
X122478095Y-81284642D01*
X122573333Y-81237023D01*
X122620952Y-81189404D01*
X122668571Y-81094166D01*
X122668571Y-80760833D01*
X123144761Y-81808452D02*
X123192380Y-81808452D01*
X123287619Y-81760833D01*
X123335238Y-81713214D01*
X122525714Y-82856071D02*
X122525714Y-83237023D01*
X123192380Y-82998928D02*
X122335238Y-82998928D01*
X122240000Y-83046547D01*
X122192380Y-83141785D01*
X122192380Y-83237023D01*
X123192380Y-83713214D02*
X123144761Y-83617976D01*
X123097142Y-83570357D01*
X123001904Y-83522738D01*
X122716190Y-83522738D01*
X122620952Y-83570357D01*
X122573333Y-83617976D01*
X122525714Y-83713214D01*
X122525714Y-83856071D01*
X122573333Y-83951309D01*
X122620952Y-83998928D01*
X122716190Y-84046547D01*
X123001904Y-84046547D01*
X123097142Y-83998928D01*
X123144761Y-83951309D01*
X123192380Y-83856071D01*
X123192380Y-83713214D01*
X123192380Y-84617976D02*
X123144761Y-84522738D01*
X123049523Y-84475119D01*
X122192380Y-84475119D01*
X123192380Y-85141785D02*
X123144761Y-85046547D01*
X123049523Y-84998928D01*
X122192380Y-84998928D01*
X123192380Y-85665595D02*
X123144761Y-85570357D01*
X123097142Y-85522738D01*
X123001904Y-85475119D01*
X122716190Y-85475119D01*
X122620952Y-85522738D01*
X122573333Y-85570357D01*
X122525714Y-85665595D01*
X122525714Y-85808452D01*
X122573333Y-85903690D01*
X122620952Y-85951309D01*
X122716190Y-85998928D01*
X123001904Y-85998928D01*
X123097142Y-85951309D01*
X123144761Y-85903690D01*
X123192380Y-85808452D01*
X123192380Y-85665595D01*
X122525714Y-86332261D02*
X123192380Y-86522738D01*
X122716190Y-86713214D01*
X123192380Y-86903690D01*
X122525714Y-87094166D01*
X123192380Y-88379880D02*
X123144761Y-88284642D01*
X123097142Y-88237023D01*
X123001904Y-88189404D01*
X122716190Y-88189404D01*
X122620952Y-88237023D01*
X122573333Y-88284642D01*
X122525714Y-88379880D01*
X122525714Y-88522738D01*
X122573333Y-88617976D01*
X122620952Y-88665595D01*
X122716190Y-88713214D01*
X123001904Y-88713214D01*
X123097142Y-88665595D01*
X123144761Y-88617976D01*
X123192380Y-88522738D01*
X123192380Y-88379880D01*
X122525714Y-89570357D02*
X123192380Y-89570357D01*
X122525714Y-89141785D02*
X123049523Y-89141785D01*
X123144761Y-89189404D01*
X123192380Y-89284642D01*
X123192380Y-89427499D01*
X123144761Y-89522738D01*
X123097142Y-89570357D01*
X122525714Y-89903690D02*
X122525714Y-90284642D01*
X122192380Y-90046547D02*
X123049523Y-90046547D01*
X123144761Y-90094166D01*
X123192380Y-90189404D01*
X123192380Y-90284642D01*
X123192380Y-90760833D02*
X123144761Y-90665595D01*
X123049523Y-90617976D01*
X122192380Y-90617976D01*
X123192380Y-91141785D02*
X122525714Y-91141785D01*
X122192380Y-91141785D02*
X122240000Y-91094166D01*
X122287619Y-91141785D01*
X122240000Y-91189404D01*
X122192380Y-91141785D01*
X122287619Y-91141785D01*
X122525714Y-91617976D02*
X123192380Y-91617976D01*
X122620952Y-91617976D02*
X122573333Y-91665595D01*
X122525714Y-91760833D01*
X122525714Y-91903690D01*
X122573333Y-91998928D01*
X122668571Y-92046547D01*
X123192380Y-92046547D01*
X123144761Y-92903690D02*
X123192380Y-92808452D01*
X123192380Y-92617976D01*
X123144761Y-92522738D01*
X123049523Y-92475119D01*
X122668571Y-92475119D01*
X122573333Y-92522738D01*
X122525714Y-92617976D01*
X122525714Y-92808452D01*
X122573333Y-92903690D01*
X122668571Y-92951309D01*
X122763809Y-92951309D01*
X122859047Y-92475119D01*
X123897619Y-47617976D02*
X123850000Y-47665595D01*
X123802380Y-47760833D01*
X123802380Y-47998928D01*
X123850000Y-48094166D01*
X123897619Y-48141785D01*
X123992857Y-48189404D01*
X124088095Y-48189404D01*
X124230952Y-48141785D01*
X124802380Y-47570357D01*
X124802380Y-48189404D01*
X124707142Y-48617976D02*
X124754761Y-48665595D01*
X124802380Y-48617976D01*
X124754761Y-48570357D01*
X124707142Y-48617976D01*
X124802380Y-48617976D01*
X124754761Y-49808452D02*
X124802380Y-49951309D01*
X124802380Y-50189404D01*
X124754761Y-50284642D01*
X124707142Y-50332261D01*
X124611904Y-50379880D01*
X124516666Y-50379880D01*
X124421428Y-50332261D01*
X124373809Y-50284642D01*
X124326190Y-50189404D01*
X124278571Y-49998928D01*
X124230952Y-49903690D01*
X124183333Y-49856071D01*
X124088095Y-49808452D01*
X123992857Y-49808452D01*
X123897619Y-49856071D01*
X123850000Y-49903690D01*
X123802380Y-49998928D01*
X123802380Y-50237023D01*
X123850000Y-50379880D01*
X124802380Y-50951309D02*
X124754761Y-50856071D01*
X124707142Y-50808452D01*
X124611904Y-50760833D01*
X124326190Y-50760833D01*
X124230952Y-50808452D01*
X124183333Y-50856071D01*
X124135714Y-50951309D01*
X124135714Y-51094166D01*
X124183333Y-51189404D01*
X124230952Y-51237023D01*
X124326190Y-51284642D01*
X124611904Y-51284642D01*
X124707142Y-51237023D01*
X124754761Y-51189404D01*
X124802380Y-51094166D01*
X124802380Y-50951309D01*
X124802380Y-51856071D02*
X124754761Y-51760833D01*
X124659523Y-51713214D01*
X123802380Y-51713214D01*
X124802380Y-52665595D02*
X123802380Y-52665595D01*
X124754761Y-52665595D02*
X124802380Y-52570357D01*
X124802380Y-52379880D01*
X124754761Y-52284642D01*
X124707142Y-52237023D01*
X124611904Y-52189404D01*
X124326190Y-52189404D01*
X124230952Y-52237023D01*
X124183333Y-52284642D01*
X124135714Y-52379880D01*
X124135714Y-52570357D01*
X124183333Y-52665595D01*
X124754761Y-53522738D02*
X124802380Y-53427500D01*
X124802380Y-53237023D01*
X124754761Y-53141785D01*
X124659523Y-53094166D01*
X124278571Y-53094166D01*
X124183333Y-53141785D01*
X124135714Y-53237023D01*
X124135714Y-53427500D01*
X124183333Y-53522738D01*
X124278571Y-53570357D01*
X124373809Y-53570357D01*
X124469047Y-53094166D01*
X124802380Y-53998928D02*
X124135714Y-53998928D01*
X124326190Y-53998928D02*
X124230952Y-54046547D01*
X124183333Y-54094166D01*
X124135714Y-54189404D01*
X124135714Y-54284642D01*
X124754761Y-55808452D02*
X124802380Y-55713214D01*
X124802380Y-55522738D01*
X124754761Y-55427500D01*
X124707142Y-55379880D01*
X124611904Y-55332261D01*
X124326190Y-55332261D01*
X124230952Y-55379880D01*
X124183333Y-55427500D01*
X124135714Y-55522738D01*
X124135714Y-55713214D01*
X124183333Y-55808452D01*
X124802380Y-56665595D02*
X124278571Y-56665595D01*
X124183333Y-56617976D01*
X124135714Y-56522738D01*
X124135714Y-56332261D01*
X124183333Y-56237023D01*
X124754761Y-56665595D02*
X124802380Y-56570357D01*
X124802380Y-56332261D01*
X124754761Y-56237023D01*
X124659523Y-56189404D01*
X124564285Y-56189404D01*
X124469047Y-56237023D01*
X124421428Y-56332261D01*
X124421428Y-56570357D01*
X124373809Y-56665595D01*
X124135714Y-57141785D02*
X125135714Y-57141785D01*
X124183333Y-57141785D02*
X124135714Y-57237023D01*
X124135714Y-57427500D01*
X124183333Y-57522738D01*
X124230952Y-57570357D01*
X124326190Y-57617976D01*
X124611904Y-57617976D01*
X124707142Y-57570357D01*
X124754761Y-57522738D01*
X124802380Y-57427500D01*
X124802380Y-57237023D01*
X124754761Y-57141785D01*
X124802380Y-58475119D02*
X124278571Y-58475119D01*
X124183333Y-58427500D01*
X124135714Y-58332261D01*
X124135714Y-58141785D01*
X124183333Y-58046547D01*
X124754761Y-58475119D02*
X124802380Y-58379880D01*
X124802380Y-58141785D01*
X124754761Y-58046547D01*
X124659523Y-57998928D01*
X124564285Y-57998928D01*
X124469047Y-58046547D01*
X124421428Y-58141785D01*
X124421428Y-58379880D01*
X124373809Y-58475119D01*
X124754761Y-59379880D02*
X124802380Y-59284642D01*
X124802380Y-59094166D01*
X124754761Y-58998928D01*
X124707142Y-58951309D01*
X124611904Y-58903690D01*
X124326190Y-58903690D01*
X124230952Y-58951309D01*
X124183333Y-58998928D01*
X124135714Y-59094166D01*
X124135714Y-59284642D01*
X124183333Y-59379880D01*
X124802380Y-59808452D02*
X124135714Y-59808452D01*
X123802380Y-59808452D02*
X123850000Y-59760833D01*
X123897619Y-59808452D01*
X123850000Y-59856071D01*
X123802380Y-59808452D01*
X123897619Y-59808452D01*
X124135714Y-60141785D02*
X124135714Y-60522738D01*
X123802380Y-60284642D02*
X124659523Y-60284642D01*
X124754761Y-60332261D01*
X124802380Y-60427500D01*
X124802380Y-60522738D01*
X124802380Y-60998928D02*
X124754761Y-60903690D01*
X124707142Y-60856071D01*
X124611904Y-60808452D01*
X124326190Y-60808452D01*
X124230952Y-60856071D01*
X124183333Y-60903690D01*
X124135714Y-60998928D01*
X124135714Y-61141785D01*
X124183333Y-61237023D01*
X124230952Y-61284642D01*
X124326190Y-61332261D01*
X124611904Y-61332261D01*
X124707142Y-61284642D01*
X124754761Y-61237023D01*
X124802380Y-61141785D01*
X124802380Y-60998928D01*
X124802380Y-61760833D02*
X124135714Y-61760833D01*
X124326190Y-61760833D02*
X124230952Y-61808452D01*
X124183333Y-61856071D01*
X124135714Y-61951309D01*
X124135714Y-62046547D01*
X124754761Y-62332261D02*
X124802380Y-62427500D01*
X124802380Y-62617976D01*
X124754761Y-62713214D01*
X124659523Y-62760833D01*
X124611904Y-62760833D01*
X124516666Y-62713214D01*
X124469047Y-62617976D01*
X124469047Y-62475119D01*
X124421428Y-62379880D01*
X124326190Y-62332261D01*
X124278571Y-62332261D01*
X124183333Y-62379880D01*
X124135714Y-62475119D01*
X124135714Y-62617976D01*
X124183333Y-62713214D01*
X125183333Y-64237023D02*
X125135714Y-64189404D01*
X124992857Y-64094166D01*
X124897619Y-64046547D01*
X124754761Y-63998928D01*
X124516666Y-63951309D01*
X124326190Y-63951309D01*
X124088095Y-63998928D01*
X123945238Y-64046547D01*
X123850000Y-64094166D01*
X123707142Y-64189404D01*
X123659523Y-64237023D01*
X124707142Y-65189404D02*
X124754761Y-65141785D01*
X124802380Y-64998928D01*
X124802380Y-64903690D01*
X124754761Y-64760833D01*
X124659523Y-64665595D01*
X124564285Y-64617976D01*
X124373809Y-64570357D01*
X124230952Y-64570357D01*
X124040476Y-64617976D01*
X123945238Y-64665595D01*
X123850000Y-64760833D01*
X123802380Y-64903690D01*
X123802380Y-64998928D01*
X123850000Y-65141785D01*
X123897619Y-65189404D01*
X124802380Y-66141785D02*
X124802380Y-65570357D01*
X124802380Y-65856071D02*
X123802380Y-65856071D01*
X123945238Y-65760833D01*
X124040476Y-65665595D01*
X124088095Y-65570357D01*
X124802380Y-68141785D02*
X124802380Y-68094166D01*
X124754761Y-67998928D01*
X124611904Y-67856071D01*
X124326190Y-67617976D01*
X124183333Y-67522738D01*
X124040476Y-67475119D01*
X123945238Y-67475119D01*
X123850000Y-67522738D01*
X123802380Y-67617976D01*
X123802380Y-67665595D01*
X123850000Y-67760833D01*
X123945238Y-67808452D01*
X123992857Y-67808452D01*
X124088095Y-67760833D01*
X124135714Y-67713214D01*
X124326190Y-67427500D01*
X124373809Y-67379880D01*
X124469047Y-67332261D01*
X124611904Y-67332261D01*
X124707142Y-67379880D01*
X124754761Y-67427500D01*
X124802380Y-67522738D01*
X124802380Y-67665595D01*
X124754761Y-67760833D01*
X124707142Y-67808452D01*
X124516666Y-67951309D01*
X124373809Y-67998928D01*
X124278571Y-67998928D01*
X124707142Y-69903690D02*
X124754761Y-69856071D01*
X124802380Y-69713214D01*
X124802380Y-69617976D01*
X124754761Y-69475119D01*
X124659523Y-69379880D01*
X124564285Y-69332261D01*
X124373809Y-69284642D01*
X124230952Y-69284642D01*
X124040476Y-69332261D01*
X123945238Y-69379880D01*
X123850000Y-69475119D01*
X123802380Y-69617976D01*
X123802380Y-69713214D01*
X123850000Y-69856071D01*
X123897619Y-69903690D01*
X123897619Y-70284642D02*
X123850000Y-70332261D01*
X123802380Y-70427500D01*
X123802380Y-70665595D01*
X123850000Y-70760833D01*
X123897619Y-70808452D01*
X123992857Y-70856071D01*
X124088095Y-70856071D01*
X124230952Y-70808452D01*
X124802380Y-70237023D01*
X124802380Y-70856071D01*
X125183333Y-71189404D02*
X125135714Y-71237023D01*
X124992857Y-71332261D01*
X124897619Y-71379880D01*
X124754761Y-71427500D01*
X124516666Y-71475119D01*
X124326190Y-71475119D01*
X124088095Y-71427500D01*
X123945238Y-71379880D01*
X123850000Y-71332261D01*
X123707142Y-71237023D01*
X123659523Y-71189404D01*
X124135714Y-72570357D02*
X124135714Y-72951309D01*
X124802380Y-72713214D02*
X123945238Y-72713214D01*
X123850000Y-72760833D01*
X123802380Y-72856071D01*
X123802380Y-72951309D01*
X124802380Y-73284642D02*
X124135714Y-73284642D01*
X124326190Y-73284642D02*
X124230952Y-73332261D01*
X124183333Y-73379880D01*
X124135714Y-73475119D01*
X124135714Y-73570357D01*
X124802380Y-74046547D02*
X124754761Y-73951309D01*
X124707142Y-73903690D01*
X124611904Y-73856071D01*
X124326190Y-73856071D01*
X124230952Y-73903690D01*
X124183333Y-73951309D01*
X124135714Y-74046547D01*
X124135714Y-74189404D01*
X124183333Y-74284642D01*
X124230952Y-74332261D01*
X124326190Y-74379880D01*
X124611904Y-74379880D01*
X124707142Y-74332261D01*
X124754761Y-74284642D01*
X124802380Y-74189404D01*
X124802380Y-74046547D01*
X124802380Y-74808452D02*
X124135714Y-74808452D01*
X124230952Y-74808452D02*
X124183333Y-74856071D01*
X124135714Y-74951309D01*
X124135714Y-75094166D01*
X124183333Y-75189404D01*
X124278571Y-75237023D01*
X124802380Y-75237023D01*
X124278571Y-75237023D02*
X124183333Y-75284642D01*
X124135714Y-75379880D01*
X124135714Y-75522738D01*
X124183333Y-75617976D01*
X124278571Y-75665595D01*
X124802380Y-75665595D01*
X124802380Y-76903690D02*
X124135714Y-76903690D01*
X124326190Y-76903690D02*
X124230952Y-76951309D01*
X124183333Y-76998928D01*
X124135714Y-77094166D01*
X124135714Y-77189404D01*
X124754761Y-77903690D02*
X124802380Y-77808452D01*
X124802380Y-77617976D01*
X124754761Y-77522738D01*
X124659523Y-77475119D01*
X124278571Y-77475119D01*
X124183333Y-77522738D01*
X124135714Y-77617976D01*
X124135714Y-77808452D01*
X124183333Y-77903690D01*
X124278571Y-77951309D01*
X124373809Y-77951309D01*
X124469047Y-77475119D01*
X124802380Y-78808452D02*
X124278571Y-78808452D01*
X124183333Y-78760833D01*
X124135714Y-78665595D01*
X124135714Y-78475119D01*
X124183333Y-78379880D01*
X124754761Y-78808452D02*
X124802380Y-78713214D01*
X124802380Y-78475119D01*
X124754761Y-78379880D01*
X124659523Y-78332261D01*
X124564285Y-78332261D01*
X124469047Y-78379880D01*
X124421428Y-78475119D01*
X124421428Y-78713214D01*
X124373809Y-78808452D01*
X124802380Y-79284642D02*
X124135714Y-79284642D01*
X124326190Y-79284642D02*
X124230952Y-79332261D01*
X124183333Y-79379880D01*
X124135714Y-79475119D01*
X124135714Y-79570357D01*
X125183333Y-80951309D02*
X125135714Y-80903690D01*
X124992857Y-80808452D01*
X124897619Y-80760833D01*
X124754761Y-80713214D01*
X124516666Y-80665595D01*
X124326190Y-80665595D01*
X124088095Y-80713214D01*
X123945238Y-80760833D01*
X123850000Y-80808452D01*
X123707142Y-80903690D01*
X123659523Y-80951309D01*
X124135714Y-81760833D02*
X124802380Y-81760833D01*
X124135714Y-81332261D02*
X124659523Y-81332261D01*
X124754761Y-81379880D01*
X124802380Y-81475119D01*
X124802380Y-81617976D01*
X124754761Y-81713214D01*
X124707142Y-81760833D01*
X124135714Y-82237023D02*
X124802380Y-82237023D01*
X124230952Y-82237023D02*
X124183333Y-82284642D01*
X124135714Y-82379880D01*
X124135714Y-82522738D01*
X124183333Y-82617976D01*
X124278571Y-82665595D01*
X124802380Y-82665595D01*
X124802380Y-83141785D02*
X124135714Y-83141785D01*
X123802380Y-83141785D02*
X123850000Y-83094166D01*
X123897619Y-83141785D01*
X123850000Y-83189404D01*
X123802380Y-83141785D01*
X123897619Y-83141785D01*
X124802380Y-84046547D02*
X123802380Y-84046547D01*
X124754761Y-84046547D02*
X124802380Y-83951309D01*
X124802380Y-83760833D01*
X124754761Y-83665595D01*
X124707142Y-83617976D01*
X124611904Y-83570357D01*
X124326190Y-83570357D01*
X124230952Y-83617976D01*
X124183333Y-83665595D01*
X124135714Y-83760833D01*
X124135714Y-83951309D01*
X124183333Y-84046547D01*
X124802380Y-84522738D02*
X124135714Y-84522738D01*
X123802380Y-84522738D02*
X123850000Y-84475119D01*
X123897619Y-84522738D01*
X123850000Y-84570357D01*
X123802380Y-84522738D01*
X123897619Y-84522738D01*
X124802380Y-84998928D02*
X124135714Y-84998928D01*
X124326190Y-84998928D02*
X124230952Y-85046547D01*
X124183333Y-85094166D01*
X124135714Y-85189404D01*
X124135714Y-85284642D01*
X124754761Y-85998928D02*
X124802380Y-85903690D01*
X124802380Y-85713214D01*
X124754761Y-85617976D01*
X124659523Y-85570357D01*
X124278571Y-85570357D01*
X124183333Y-85617976D01*
X124135714Y-85713214D01*
X124135714Y-85903690D01*
X124183333Y-85998928D01*
X124278571Y-86046547D01*
X124373809Y-86046547D01*
X124469047Y-85570357D01*
X124754761Y-86903690D02*
X124802380Y-86808452D01*
X124802380Y-86617976D01*
X124754761Y-86522738D01*
X124707142Y-86475119D01*
X124611904Y-86427500D01*
X124326190Y-86427500D01*
X124230952Y-86475119D01*
X124183333Y-86522738D01*
X124135714Y-86617976D01*
X124135714Y-86808452D01*
X124183333Y-86903690D01*
X124135714Y-87189404D02*
X124135714Y-87570357D01*
X123802380Y-87332261D02*
X124659523Y-87332261D01*
X124754761Y-87379880D01*
X124802380Y-87475119D01*
X124802380Y-87570357D01*
X124802380Y-87903690D02*
X124135714Y-87903690D01*
X123802380Y-87903690D02*
X123850000Y-87856071D01*
X123897619Y-87903690D01*
X123850000Y-87951309D01*
X123802380Y-87903690D01*
X123897619Y-87903690D01*
X124802380Y-88522738D02*
X124754761Y-88427500D01*
X124707142Y-88379880D01*
X124611904Y-88332261D01*
X124326190Y-88332261D01*
X124230952Y-88379880D01*
X124183333Y-88427500D01*
X124135714Y-88522738D01*
X124135714Y-88665595D01*
X124183333Y-88760833D01*
X124230952Y-88808452D01*
X124326190Y-88856071D01*
X124611904Y-88856071D01*
X124707142Y-88808452D01*
X124754761Y-88760833D01*
X124802380Y-88665595D01*
X124802380Y-88522738D01*
X124135714Y-89284642D02*
X124802380Y-89284642D01*
X124230952Y-89284642D02*
X124183333Y-89332261D01*
X124135714Y-89427500D01*
X124135714Y-89570357D01*
X124183333Y-89665595D01*
X124278571Y-89713214D01*
X124802380Y-89713214D01*
X124802380Y-90617976D02*
X124278571Y-90617976D01*
X124183333Y-90570357D01*
X124135714Y-90475119D01*
X124135714Y-90284642D01*
X124183333Y-90189404D01*
X124754761Y-90617976D02*
X124802380Y-90522738D01*
X124802380Y-90284642D01*
X124754761Y-90189404D01*
X124659523Y-90141785D01*
X124564285Y-90141785D01*
X124469047Y-90189404D01*
X124421428Y-90284642D01*
X124421428Y-90522738D01*
X124373809Y-90617976D01*
X124802380Y-91237023D02*
X124754761Y-91141785D01*
X124659523Y-91094166D01*
X123802380Y-91094166D01*
X125183333Y-91522738D02*
X125135714Y-91570357D01*
X124992857Y-91665595D01*
X124897619Y-91713214D01*
X124754761Y-91760833D01*
X124516666Y-91808452D01*
X124326190Y-91808452D01*
X124088095Y-91760833D01*
X123945238Y-91713214D01*
X123850000Y-91665595D01*
X123707142Y-91570357D01*
X123659523Y-91522738D01*
X125412380Y-47570357D02*
X125412380Y-48189404D01*
X125793333Y-47856071D01*
X125793333Y-47998928D01*
X125840952Y-48094166D01*
X125888571Y-48141785D01*
X125983809Y-48189404D01*
X126221904Y-48189404D01*
X126317142Y-48141785D01*
X126364761Y-48094166D01*
X126412380Y-47998928D01*
X126412380Y-47713214D01*
X126364761Y-47617976D01*
X126317142Y-47570357D01*
X126317142Y-48617976D02*
X126364761Y-48665595D01*
X126412380Y-48617976D01*
X126364761Y-48570357D01*
X126317142Y-48617976D01*
X126412380Y-48617976D01*
X126317142Y-50427500D02*
X126364761Y-50379880D01*
X126412380Y-50237023D01*
X126412380Y-50141785D01*
X126364761Y-49998928D01*
X126269523Y-49903690D01*
X126174285Y-49856071D01*
X125983809Y-49808452D01*
X125840952Y-49808452D01*
X125650476Y-49856071D01*
X125555238Y-49903690D01*
X125460000Y-49998928D01*
X125412380Y-50141785D01*
X125412380Y-50237023D01*
X125460000Y-50379880D01*
X125507619Y-50427500D01*
X125745714Y-51284642D02*
X126412380Y-51284642D01*
X125745714Y-50856071D02*
X126269523Y-50856071D01*
X126364761Y-50903690D01*
X126412380Y-50998928D01*
X126412380Y-51141785D01*
X126364761Y-51237023D01*
X126317142Y-51284642D01*
X125745714Y-51617976D02*
X125745714Y-51998928D01*
X125412380Y-51760833D02*
X126269523Y-51760833D01*
X126364761Y-51808452D01*
X126412380Y-51903690D01*
X126412380Y-51998928D01*
X126364761Y-53475119D02*
X126412380Y-53379880D01*
X126412380Y-53189404D01*
X126364761Y-53094166D01*
X126269523Y-53046547D01*
X125888571Y-53046547D01*
X125793333Y-53094166D01*
X125745714Y-53189404D01*
X125745714Y-53379880D01*
X125793333Y-53475119D01*
X125888571Y-53522738D01*
X125983809Y-53522738D01*
X126079047Y-53046547D01*
X125745714Y-53951309D02*
X126412380Y-53951309D01*
X125840952Y-53951309D02*
X125793333Y-53998928D01*
X125745714Y-54094166D01*
X125745714Y-54237023D01*
X125793333Y-54332261D01*
X125888571Y-54379880D01*
X126412380Y-54379880D01*
X126412380Y-55284642D02*
X125412380Y-55284642D01*
X126364761Y-55284642D02*
X126412380Y-55189404D01*
X126412380Y-54998928D01*
X126364761Y-54903690D01*
X126317142Y-54856071D01*
X126221904Y-54808452D01*
X125936190Y-54808452D01*
X125840952Y-54856071D01*
X125793333Y-54903690D01*
X125745714Y-54998928D01*
X125745714Y-55189404D01*
X125793333Y-55284642D01*
X126364761Y-55713214D02*
X126412380Y-55808452D01*
X126412380Y-55998928D01*
X126364761Y-56094166D01*
X126269523Y-56141785D01*
X126221904Y-56141785D01*
X126126666Y-56094166D01*
X126079047Y-55998928D01*
X126079047Y-55856071D01*
X126031428Y-55760833D01*
X125936190Y-55713214D01*
X125888571Y-55713214D01*
X125793333Y-55760833D01*
X125745714Y-55856071D01*
X125745714Y-55998928D01*
X125793333Y-56094166D01*
X126412380Y-57475119D02*
X126364761Y-57379880D01*
X126317142Y-57332261D01*
X126221904Y-57284642D01*
X125936190Y-57284642D01*
X125840952Y-57332261D01*
X125793333Y-57379880D01*
X125745714Y-57475119D01*
X125745714Y-57617976D01*
X125793333Y-57713214D01*
X125840952Y-57760833D01*
X125936190Y-57808452D01*
X126221904Y-57808452D01*
X126317142Y-57760833D01*
X126364761Y-57713214D01*
X126412380Y-57617976D01*
X126412380Y-57475119D01*
X125745714Y-58094166D02*
X125745714Y-58475119D01*
X126412380Y-58237023D02*
X125555238Y-58237023D01*
X125460000Y-58284642D01*
X125412380Y-58379880D01*
X125412380Y-58475119D01*
X126412380Y-59713214D02*
X126364761Y-59617976D01*
X126269523Y-59570357D01*
X125412380Y-59570357D01*
X126364761Y-60475119D02*
X126412380Y-60379880D01*
X126412380Y-60189404D01*
X126364761Y-60094166D01*
X126269523Y-60046547D01*
X125888571Y-60046547D01*
X125793333Y-60094166D01*
X125745714Y-60189404D01*
X125745714Y-60379880D01*
X125793333Y-60475119D01*
X125888571Y-60522738D01*
X125983809Y-60522738D01*
X126079047Y-60046547D01*
X125745714Y-61379880D02*
X126555238Y-61379880D01*
X126650476Y-61332261D01*
X126698095Y-61284642D01*
X126745714Y-61189404D01*
X126745714Y-61046547D01*
X126698095Y-60951309D01*
X126364761Y-61379880D02*
X126412380Y-61284642D01*
X126412380Y-61094166D01*
X126364761Y-60998928D01*
X126317142Y-60951309D01*
X126221904Y-60903690D01*
X125936190Y-60903690D01*
X125840952Y-60951309D01*
X125793333Y-60998928D01*
X125745714Y-61094166D01*
X125745714Y-61284642D01*
X125793333Y-61379880D01*
X126364761Y-61808452D02*
X126412380Y-61903690D01*
X126412380Y-62094166D01*
X126364761Y-62189404D01*
X126269523Y-62237023D01*
X126221904Y-62237023D01*
X126126666Y-62189404D01*
X126079047Y-62094166D01*
X126079047Y-61951309D01*
X126031428Y-61856071D01*
X125936190Y-61808452D01*
X125888571Y-61808452D01*
X125793333Y-61856071D01*
X125745714Y-61951309D01*
X125745714Y-62094166D01*
X125793333Y-62189404D01*
X125745714Y-63284642D02*
X125745714Y-63665595D01*
X126412380Y-63427500D02*
X125555238Y-63427500D01*
X125460000Y-63475119D01*
X125412380Y-63570357D01*
X125412380Y-63665595D01*
X126412380Y-64141785D02*
X126364761Y-64046547D01*
X126269523Y-63998928D01*
X125412380Y-63998928D01*
X125745714Y-64951309D02*
X126412380Y-64951309D01*
X125745714Y-64522738D02*
X126269523Y-64522738D01*
X126364761Y-64570357D01*
X126412380Y-64665595D01*
X126412380Y-64808452D01*
X126364761Y-64903690D01*
X126317142Y-64951309D01*
X126364761Y-65379880D02*
X126412380Y-65475119D01*
X126412380Y-65665595D01*
X126364761Y-65760833D01*
X126269523Y-65808452D01*
X126221904Y-65808452D01*
X126126666Y-65760833D01*
X126079047Y-65665595D01*
X126079047Y-65522738D01*
X126031428Y-65427500D01*
X125936190Y-65379880D01*
X125888571Y-65379880D01*
X125793333Y-65427500D01*
X125745714Y-65522738D01*
X125745714Y-65665595D01*
X125793333Y-65760833D01*
X126412380Y-66237023D02*
X125412380Y-66237023D01*
X126412380Y-66665595D02*
X125888571Y-66665595D01*
X125793333Y-66617976D01*
X125745714Y-66522738D01*
X125745714Y-66379880D01*
X125793333Y-66284642D01*
X125840952Y-66237023D01*
X126412380Y-68046547D02*
X126364761Y-67951309D01*
X126317142Y-67903690D01*
X126221904Y-67856071D01*
X125936190Y-67856071D01*
X125840952Y-67903690D01*
X125793333Y-67951309D01*
X125745714Y-68046547D01*
X125745714Y-68189404D01*
X125793333Y-68284642D01*
X125840952Y-68332261D01*
X125936190Y-68379880D01*
X126221904Y-68379880D01*
X126317142Y-68332261D01*
X126364761Y-68284642D01*
X126412380Y-68189404D01*
X126412380Y-68046547D01*
X125745714Y-68808452D02*
X126412380Y-68808452D01*
X125840952Y-68808452D02*
X125793333Y-68856071D01*
X125745714Y-68951309D01*
X125745714Y-69094166D01*
X125793333Y-69189404D01*
X125888571Y-69237023D01*
X126412380Y-69237023D01*
X125745714Y-70332261D02*
X125745714Y-70713214D01*
X126412380Y-70475119D02*
X125555238Y-70475119D01*
X125460000Y-70522738D01*
X125412380Y-70617976D01*
X125412380Y-70713214D01*
X126412380Y-71046547D02*
X125745714Y-71046547D01*
X125936190Y-71046547D02*
X125840952Y-71094166D01*
X125793333Y-71141785D01*
X125745714Y-71237023D01*
X125745714Y-71332261D01*
X126412380Y-71808452D02*
X126364761Y-71713214D01*
X126317142Y-71665595D01*
X126221904Y-71617976D01*
X125936190Y-71617976D01*
X125840952Y-71665595D01*
X125793333Y-71713214D01*
X125745714Y-71808452D01*
X125745714Y-71951309D01*
X125793333Y-72046547D01*
X125840952Y-72094166D01*
X125936190Y-72141785D01*
X126221904Y-72141785D01*
X126317142Y-72094166D01*
X126364761Y-72046547D01*
X126412380Y-71951309D01*
X126412380Y-71808452D01*
X125745714Y-72570357D02*
X126412380Y-72570357D01*
X125840952Y-72570357D02*
X125793333Y-72617976D01*
X125745714Y-72713214D01*
X125745714Y-72856071D01*
X125793333Y-72951309D01*
X125888571Y-72998928D01*
X126412380Y-72998928D01*
X125745714Y-73332261D02*
X125745714Y-73713214D01*
X125412380Y-73475119D02*
X126269523Y-73475119D01*
X126364761Y-73522738D01*
X126412380Y-73617976D01*
X126412380Y-73713214D01*
X126364761Y-74760833D02*
X126412380Y-74856071D01*
X126412380Y-75046547D01*
X126364761Y-75141785D01*
X126269523Y-75189404D01*
X126221904Y-75189404D01*
X126126666Y-75141785D01*
X126079047Y-75046547D01*
X126079047Y-74903690D01*
X126031428Y-74808452D01*
X125936190Y-74760833D01*
X125888571Y-74760833D01*
X125793333Y-74808452D01*
X125745714Y-74903690D01*
X125745714Y-75046547D01*
X125793333Y-75141785D01*
X126412380Y-75617976D02*
X125745714Y-75617976D01*
X125412380Y-75617976D02*
X125460000Y-75570357D01*
X125507619Y-75617976D01*
X125460000Y-75665595D01*
X125412380Y-75617976D01*
X125507619Y-75617976D01*
X126412380Y-76522738D02*
X125412380Y-76522738D01*
X126364761Y-76522738D02*
X126412380Y-76427499D01*
X126412380Y-76237023D01*
X126364761Y-76141785D01*
X126317142Y-76094166D01*
X126221904Y-76046547D01*
X125936190Y-76046547D01*
X125840952Y-76094166D01*
X125793333Y-76141785D01*
X125745714Y-76237023D01*
X125745714Y-76427499D01*
X125793333Y-76522738D01*
X126364761Y-77379880D02*
X126412380Y-77284642D01*
X126412380Y-77094166D01*
X126364761Y-76998928D01*
X126269523Y-76951309D01*
X125888571Y-76951309D01*
X125793333Y-76998928D01*
X125745714Y-77094166D01*
X125745714Y-77284642D01*
X125793333Y-77379880D01*
X125888571Y-77427499D01*
X125983809Y-77427499D01*
X126079047Y-76951309D01*
X126793333Y-78903690D02*
X126745714Y-78856071D01*
X126602857Y-78760833D01*
X126507619Y-78713214D01*
X126364761Y-78665595D01*
X126126666Y-78617976D01*
X125936190Y-78617976D01*
X125698095Y-78665595D01*
X125555238Y-78713214D01*
X125460000Y-78760833D01*
X125317142Y-78856071D01*
X125269523Y-78903690D01*
X125745714Y-79713214D02*
X126412380Y-79713214D01*
X125745714Y-79284642D02*
X126269523Y-79284642D01*
X126364761Y-79332261D01*
X126412380Y-79427499D01*
X126412380Y-79570357D01*
X126364761Y-79665595D01*
X126317142Y-79713214D01*
X125745714Y-80189404D02*
X126412380Y-80189404D01*
X125840952Y-80189404D02*
X125793333Y-80237023D01*
X125745714Y-80332261D01*
X125745714Y-80475119D01*
X125793333Y-80570357D01*
X125888571Y-80617976D01*
X126412380Y-80617976D01*
X126412380Y-81522738D02*
X125412380Y-81522738D01*
X126364761Y-81522738D02*
X126412380Y-81427499D01*
X126412380Y-81237023D01*
X126364761Y-81141785D01*
X126317142Y-81094166D01*
X126221904Y-81046547D01*
X125936190Y-81046547D01*
X125840952Y-81094166D01*
X125793333Y-81141785D01*
X125745714Y-81237023D01*
X125745714Y-81427499D01*
X125793333Y-81522738D01*
X126364761Y-82379880D02*
X126412380Y-82284642D01*
X126412380Y-82094166D01*
X126364761Y-81998928D01*
X126269523Y-81951309D01*
X125888571Y-81951309D01*
X125793333Y-81998928D01*
X125745714Y-82094166D01*
X125745714Y-82284642D01*
X125793333Y-82379880D01*
X125888571Y-82427499D01*
X125983809Y-82427499D01*
X126079047Y-81951309D01*
X126412380Y-82856071D02*
X125745714Y-82856071D01*
X125936190Y-82856071D02*
X125840952Y-82903690D01*
X125793333Y-82951309D01*
X125745714Y-83046547D01*
X125745714Y-83141785D01*
X125745714Y-83475119D02*
X126412380Y-83475119D01*
X125840952Y-83475119D02*
X125793333Y-83522738D01*
X125745714Y-83617976D01*
X125745714Y-83760833D01*
X125793333Y-83856071D01*
X125888571Y-83903690D01*
X126412380Y-83903690D01*
X126364761Y-84760833D02*
X126412380Y-84665595D01*
X126412380Y-84475119D01*
X126364761Y-84379880D01*
X126269523Y-84332261D01*
X125888571Y-84332261D01*
X125793333Y-84379880D01*
X125745714Y-84475119D01*
X125745714Y-84665595D01*
X125793333Y-84760833D01*
X125888571Y-84808452D01*
X125983809Y-84808452D01*
X126079047Y-84332261D01*
X126412380Y-85665595D02*
X125888571Y-85665595D01*
X125793333Y-85617976D01*
X125745714Y-85522738D01*
X125745714Y-85332261D01*
X125793333Y-85237023D01*
X126364761Y-85665595D02*
X126412380Y-85570357D01*
X126412380Y-85332261D01*
X126364761Y-85237023D01*
X126269523Y-85189404D01*
X126174285Y-85189404D01*
X126079047Y-85237023D01*
X126031428Y-85332261D01*
X126031428Y-85570357D01*
X125983809Y-85665595D01*
X125745714Y-85998928D02*
X125745714Y-86379880D01*
X125412380Y-86141785D02*
X126269523Y-86141785D01*
X126364761Y-86189404D01*
X126412380Y-86284642D01*
X126412380Y-86379880D01*
X126412380Y-86713214D02*
X125412380Y-86713214D01*
X126412380Y-87141785D02*
X125888571Y-87141785D01*
X125793333Y-87094166D01*
X125745714Y-86998928D01*
X125745714Y-86856071D01*
X125793333Y-86760833D01*
X125840952Y-86713214D01*
X126364761Y-88760833D02*
X126412380Y-88665595D01*
X126412380Y-88475119D01*
X126364761Y-88379880D01*
X126269523Y-88332261D01*
X125888571Y-88332261D01*
X125793333Y-88379880D01*
X125745714Y-88475119D01*
X125745714Y-88665595D01*
X125793333Y-88760833D01*
X125888571Y-88808452D01*
X125983809Y-88808452D01*
X126079047Y-88332261D01*
X125745714Y-89237023D02*
X126412380Y-89237023D01*
X125840952Y-89237023D02*
X125793333Y-89284642D01*
X125745714Y-89379880D01*
X125745714Y-89522738D01*
X125793333Y-89617976D01*
X125888571Y-89665595D01*
X126412380Y-89665595D01*
X126364761Y-90570357D02*
X126412380Y-90475119D01*
X126412380Y-90284642D01*
X126364761Y-90189404D01*
X126317142Y-90141785D01*
X126221904Y-90094166D01*
X125936190Y-90094166D01*
X125840952Y-90141785D01*
X125793333Y-90189404D01*
X125745714Y-90284642D01*
X125745714Y-90475119D01*
X125793333Y-90570357D01*
X126412380Y-91141785D02*
X126364761Y-91046547D01*
X126317142Y-90998928D01*
X126221904Y-90951309D01*
X125936190Y-90951309D01*
X125840952Y-90998928D01*
X125793333Y-91046547D01*
X125745714Y-91141785D01*
X125745714Y-91284642D01*
X125793333Y-91379880D01*
X125840952Y-91427499D01*
X125936190Y-91475119D01*
X126221904Y-91475119D01*
X126317142Y-91427499D01*
X126364761Y-91379880D01*
X126412380Y-91284642D01*
X126412380Y-91141785D01*
X126412380Y-92332261D02*
X125412380Y-92332261D01*
X126364761Y-92332261D02*
X126412380Y-92237023D01*
X126412380Y-92046547D01*
X126364761Y-91951309D01*
X126317142Y-91903690D01*
X126221904Y-91856071D01*
X125936190Y-91856071D01*
X125840952Y-91903690D01*
X125793333Y-91951309D01*
X125745714Y-92046547D01*
X125745714Y-92237023D01*
X125793333Y-92332261D01*
X126364761Y-93189404D02*
X126412380Y-93094166D01*
X126412380Y-92903690D01*
X126364761Y-92808452D01*
X126269523Y-92760833D01*
X125888571Y-92760833D01*
X125793333Y-92808452D01*
X125745714Y-92903690D01*
X125745714Y-93094166D01*
X125793333Y-93189404D01*
X125888571Y-93237023D01*
X125983809Y-93237023D01*
X126079047Y-92760833D01*
X126412380Y-93665595D02*
X125745714Y-93665595D01*
X125936190Y-93665595D02*
X125840952Y-93713214D01*
X125793333Y-93760833D01*
X125745714Y-93856071D01*
X125745714Y-93951309D01*
X126793333Y-94189404D02*
X126745714Y-94237023D01*
X126602857Y-94332261D01*
X126507619Y-94379880D01*
X126364761Y-94427499D01*
X126126666Y-94475119D01*
X125936190Y-94475119D01*
X125698095Y-94427499D01*
X125555238Y-94379880D01*
X125460000Y-94332261D01*
X125317142Y-94237023D01*
X125269523Y-94189404D01*
X127355714Y-48094166D02*
X128022380Y-48094166D01*
X126974761Y-47856071D02*
X127689047Y-47617976D01*
X127689047Y-48237023D01*
X127927142Y-48617976D02*
X127974761Y-48665595D01*
X128022380Y-48617976D01*
X127974761Y-48570357D01*
X127927142Y-48617976D01*
X128022380Y-48617976D01*
X127974761Y-49808452D02*
X128022380Y-49951309D01*
X128022380Y-50189404D01*
X127974761Y-50284642D01*
X127927142Y-50332261D01*
X127831904Y-50379880D01*
X127736666Y-50379880D01*
X127641428Y-50332261D01*
X127593809Y-50284642D01*
X127546190Y-50189404D01*
X127498571Y-49998928D01*
X127450952Y-49903690D01*
X127403333Y-49856071D01*
X127308095Y-49808452D01*
X127212857Y-49808452D01*
X127117619Y-49856071D01*
X127070000Y-49903690D01*
X127022380Y-49998928D01*
X127022380Y-50237023D01*
X127070000Y-50379880D01*
X128022380Y-50951309D02*
X127974761Y-50856071D01*
X127927142Y-50808452D01*
X127831904Y-50760833D01*
X127546190Y-50760833D01*
X127450952Y-50808452D01*
X127403333Y-50856071D01*
X127355714Y-50951309D01*
X127355714Y-51094166D01*
X127403333Y-51189404D01*
X127450952Y-51237023D01*
X127546190Y-51284642D01*
X127831904Y-51284642D01*
X127927142Y-51237023D01*
X127974761Y-51189404D01*
X128022380Y-51094166D01*
X128022380Y-50951309D01*
X128022380Y-51856071D02*
X127974761Y-51760833D01*
X127879523Y-51713214D01*
X127022380Y-51713214D01*
X128022380Y-52665595D02*
X127022380Y-52665595D01*
X127974761Y-52665595D02*
X128022380Y-52570357D01*
X128022380Y-52379880D01*
X127974761Y-52284642D01*
X127927142Y-52237023D01*
X127831904Y-52189404D01*
X127546190Y-52189404D01*
X127450952Y-52237023D01*
X127403333Y-52284642D01*
X127355714Y-52379880D01*
X127355714Y-52570357D01*
X127403333Y-52665595D01*
X127974761Y-53522738D02*
X128022380Y-53427500D01*
X128022380Y-53237023D01*
X127974761Y-53141785D01*
X127879523Y-53094166D01*
X127498571Y-53094166D01*
X127403333Y-53141785D01*
X127355714Y-53237023D01*
X127355714Y-53427500D01*
X127403333Y-53522738D01*
X127498571Y-53570357D01*
X127593809Y-53570357D01*
X127689047Y-53094166D01*
X128022380Y-53998928D02*
X127355714Y-53998928D01*
X127546190Y-53998928D02*
X127450952Y-54046547D01*
X127403333Y-54094166D01*
X127355714Y-54189404D01*
X127355714Y-54284642D01*
X128022380Y-55951309D02*
X127546190Y-55617976D01*
X128022380Y-55379880D02*
X127022380Y-55379880D01*
X127022380Y-55760833D01*
X127070000Y-55856071D01*
X127117619Y-55903690D01*
X127212857Y-55951309D01*
X127355714Y-55951309D01*
X127450952Y-55903690D01*
X127498571Y-55856071D01*
X127546190Y-55760833D01*
X127546190Y-55379880D01*
X127070000Y-56903690D02*
X127022380Y-56808452D01*
X127022380Y-56665595D01*
X127070000Y-56522738D01*
X127165238Y-56427500D01*
X127260476Y-56379880D01*
X127450952Y-56332261D01*
X127593809Y-56332261D01*
X127784285Y-56379880D01*
X127879523Y-56427500D01*
X127974761Y-56522738D01*
X128022380Y-56665595D01*
X128022380Y-56760833D01*
X127974761Y-56903690D01*
X127927142Y-56951309D01*
X127593809Y-56951309D01*
X127593809Y-56760833D01*
X127498571Y-57713214D02*
X127546190Y-57856071D01*
X127593809Y-57903690D01*
X127689047Y-57951309D01*
X127831904Y-57951309D01*
X127927142Y-57903690D01*
X127974761Y-57856071D01*
X128022380Y-57760833D01*
X128022380Y-57379880D01*
X127022380Y-57379880D01*
X127022380Y-57713214D01*
X127070000Y-57808452D01*
X127117619Y-57856071D01*
X127212857Y-57903690D01*
X127308095Y-57903690D01*
X127403333Y-57856071D01*
X127450952Y-57808452D01*
X127498571Y-57713214D01*
X127498571Y-57379880D01*
X127355714Y-58998928D02*
X127355714Y-59379880D01*
X128022380Y-59141785D02*
X127165238Y-59141785D01*
X127070000Y-59189404D01*
X127022380Y-59284642D01*
X127022380Y-59379880D01*
X128022380Y-59713214D02*
X127355714Y-59713214D01*
X127546190Y-59713214D02*
X127450952Y-59760833D01*
X127403333Y-59808452D01*
X127355714Y-59903690D01*
X127355714Y-59998928D01*
X128022380Y-60475119D02*
X127974761Y-60379880D01*
X127927142Y-60332261D01*
X127831904Y-60284642D01*
X127546190Y-60284642D01*
X127450952Y-60332261D01*
X127403333Y-60379880D01*
X127355714Y-60475119D01*
X127355714Y-60617976D01*
X127403333Y-60713214D01*
X127450952Y-60760833D01*
X127546190Y-60808452D01*
X127831904Y-60808452D01*
X127927142Y-60760833D01*
X127974761Y-60713214D01*
X128022380Y-60617976D01*
X128022380Y-60475119D01*
X128022380Y-61237023D02*
X127355714Y-61237023D01*
X127450952Y-61237023D02*
X127403333Y-61284642D01*
X127355714Y-61379880D01*
X127355714Y-61522738D01*
X127403333Y-61617976D01*
X127498571Y-61665595D01*
X128022380Y-61665595D01*
X127498571Y-61665595D02*
X127403333Y-61713214D01*
X127355714Y-61808452D01*
X127355714Y-61951309D01*
X127403333Y-62046547D01*
X127498571Y-62094166D01*
X128022380Y-62094166D01*
X128022380Y-63332261D02*
X127355714Y-63332261D01*
X127546190Y-63332261D02*
X127450952Y-63379880D01*
X127403333Y-63427500D01*
X127355714Y-63522738D01*
X127355714Y-63617976D01*
X127974761Y-64332261D02*
X128022380Y-64237023D01*
X128022380Y-64046547D01*
X127974761Y-63951309D01*
X127879523Y-63903690D01*
X127498571Y-63903690D01*
X127403333Y-63951309D01*
X127355714Y-64046547D01*
X127355714Y-64237023D01*
X127403333Y-64332261D01*
X127498571Y-64379880D01*
X127593809Y-64379880D01*
X127689047Y-63903690D01*
X128022380Y-65237023D02*
X127498571Y-65237023D01*
X127403333Y-65189404D01*
X127355714Y-65094166D01*
X127355714Y-64903690D01*
X127403333Y-64808452D01*
X127974761Y-65237023D02*
X128022380Y-65141785D01*
X128022380Y-64903690D01*
X127974761Y-64808452D01*
X127879523Y-64760833D01*
X127784285Y-64760833D01*
X127689047Y-64808452D01*
X127641428Y-64903690D01*
X127641428Y-65141785D01*
X127593809Y-65237023D01*
X128022380Y-65713214D02*
X127355714Y-65713214D01*
X127546190Y-65713214D02*
X127450952Y-65760833D01*
X127403333Y-65808452D01*
X127355714Y-65903690D01*
X127355714Y-65998928D01*
X127974761Y-66379880D02*
X128022380Y-66379880D01*
X128117619Y-66332261D01*
X128165238Y-66284642D01*
X128022380Y-67713214D02*
X127974761Y-67617976D01*
X127927142Y-67570357D01*
X127831904Y-67522738D01*
X127546190Y-67522738D01*
X127450952Y-67570357D01*
X127403333Y-67617976D01*
X127355714Y-67713214D01*
X127355714Y-67856071D01*
X127403333Y-67951309D01*
X127450952Y-67998928D01*
X127546190Y-68046547D01*
X127831904Y-68046547D01*
X127927142Y-67998928D01*
X127974761Y-67951309D01*
X128022380Y-67856071D01*
X128022380Y-67713214D01*
X128022380Y-68475119D02*
X127355714Y-68475119D01*
X127546190Y-68475119D02*
X127450952Y-68522738D01*
X127403333Y-68570357D01*
X127355714Y-68665595D01*
X127355714Y-68760833D01*
X128022380Y-69094166D02*
X127355714Y-69094166D01*
X127022380Y-69094166D02*
X127070000Y-69046547D01*
X127117619Y-69094166D01*
X127070000Y-69141785D01*
X127022380Y-69094166D01*
X127117619Y-69094166D01*
X127974761Y-69951309D02*
X128022380Y-69856071D01*
X128022380Y-69665595D01*
X127974761Y-69570357D01*
X127879523Y-69522738D01*
X127498571Y-69522738D01*
X127403333Y-69570357D01*
X127355714Y-69665595D01*
X127355714Y-69856071D01*
X127403333Y-69951309D01*
X127498571Y-69998928D01*
X127593809Y-69998928D01*
X127689047Y-69522738D01*
X127355714Y-70427500D02*
X128022380Y-70427500D01*
X127450952Y-70427500D02*
X127403333Y-70475119D01*
X127355714Y-70570357D01*
X127355714Y-70713214D01*
X127403333Y-70808452D01*
X127498571Y-70856071D01*
X128022380Y-70856071D01*
X127355714Y-71189404D02*
X127355714Y-71570357D01*
X127022380Y-71332261D02*
X127879523Y-71332261D01*
X127974761Y-71379880D01*
X128022380Y-71475119D01*
X128022380Y-71570357D01*
X128022380Y-72665595D02*
X127022380Y-72665595D01*
X127403333Y-72665595D02*
X127355714Y-72760833D01*
X127355714Y-72951309D01*
X127403333Y-73046547D01*
X127450952Y-73094166D01*
X127546190Y-73141785D01*
X127831904Y-73141785D01*
X127927142Y-73094166D01*
X127974761Y-73046547D01*
X128022380Y-72951309D01*
X128022380Y-72760833D01*
X127974761Y-72665595D01*
X127355714Y-73475119D02*
X128022380Y-73713214D01*
X127355714Y-73951309D02*
X128022380Y-73713214D01*
X128260476Y-73617976D01*
X128308095Y-73570357D01*
X128355714Y-73475119D01*
X128022380Y-75522738D02*
X127498571Y-75522738D01*
X127403333Y-75475119D01*
X127355714Y-75379880D01*
X127355714Y-75189404D01*
X127403333Y-75094166D01*
X127974761Y-75522738D02*
X128022380Y-75427500D01*
X128022380Y-75189404D01*
X127974761Y-75094166D01*
X127879523Y-75046547D01*
X127784285Y-75046547D01*
X127689047Y-75094166D01*
X127641428Y-75189404D01*
X127641428Y-75427500D01*
X127593809Y-75522738D01*
X128022380Y-75998928D02*
X127355714Y-75998928D01*
X127546190Y-75998928D02*
X127450952Y-76046547D01*
X127403333Y-76094166D01*
X127355714Y-76189404D01*
X127355714Y-76284642D01*
X128022380Y-76617976D02*
X127355714Y-76617976D01*
X127546190Y-76617976D02*
X127450952Y-76665595D01*
X127403333Y-76713214D01*
X127355714Y-76808452D01*
X127355714Y-76903690D01*
X128022380Y-77379880D02*
X127974761Y-77284642D01*
X127927142Y-77237023D01*
X127831904Y-77189404D01*
X127546190Y-77189404D01*
X127450952Y-77237023D01*
X127403333Y-77284642D01*
X127355714Y-77379880D01*
X127355714Y-77522738D01*
X127403333Y-77617976D01*
X127450952Y-77665595D01*
X127546190Y-77713214D01*
X127831904Y-77713214D01*
X127927142Y-77665595D01*
X127974761Y-77617976D01*
X128022380Y-77522738D01*
X128022380Y-77379880D01*
X127355714Y-78046547D02*
X128022380Y-78237023D01*
X127546190Y-78427500D01*
X128022380Y-78617976D01*
X127355714Y-78808452D01*
X126974761Y-79903690D02*
X128260476Y-79046547D01*
X128022380Y-80237023D02*
X127355714Y-80237023D01*
X127450952Y-80237023D02*
X127403333Y-80284642D01*
X127355714Y-80379880D01*
X127355714Y-80522738D01*
X127403333Y-80617976D01*
X127498571Y-80665595D01*
X128022380Y-80665595D01*
X127498571Y-80665595D02*
X127403333Y-80713214D01*
X127355714Y-80808452D01*
X127355714Y-80951309D01*
X127403333Y-81046547D01*
X127498571Y-81094166D01*
X128022380Y-81094166D01*
X128022380Y-81998928D02*
X127498571Y-81998928D01*
X127403333Y-81951309D01*
X127355714Y-81856071D01*
X127355714Y-81665595D01*
X127403333Y-81570357D01*
X127974761Y-81998928D02*
X128022380Y-81903690D01*
X128022380Y-81665595D01*
X127974761Y-81570357D01*
X127879523Y-81522738D01*
X127784285Y-81522738D01*
X127689047Y-81570357D01*
X127641428Y-81665595D01*
X127641428Y-81903690D01*
X127593809Y-81998928D01*
X128022380Y-82475119D02*
X127355714Y-82475119D01*
X127546190Y-82475119D02*
X127450952Y-82522738D01*
X127403333Y-82570357D01*
X127355714Y-82665595D01*
X127355714Y-82760833D01*
X128022380Y-83094166D02*
X127022380Y-83094166D01*
X127641428Y-83189404D02*
X128022380Y-83475119D01*
X127355714Y-83475119D02*
X127736666Y-83094166D01*
X127974761Y-84284642D02*
X128022380Y-84189404D01*
X128022380Y-83998928D01*
X127974761Y-83903690D01*
X127879523Y-83856071D01*
X127498571Y-83856071D01*
X127403333Y-83903690D01*
X127355714Y-83998928D01*
X127355714Y-84189404D01*
X127403333Y-84284642D01*
X127498571Y-84332261D01*
X127593809Y-84332261D01*
X127689047Y-83856071D01*
X128022380Y-85189404D02*
X127022380Y-85189404D01*
X127974761Y-85189404D02*
X128022380Y-85094166D01*
X128022380Y-84903690D01*
X127974761Y-84808452D01*
X127927142Y-84760833D01*
X127831904Y-84713214D01*
X127546190Y-84713214D01*
X127450952Y-84760833D01*
X127403333Y-84808452D01*
X127355714Y-84903690D01*
X127355714Y-85094166D01*
X127403333Y-85189404D01*
X128022380Y-86570357D02*
X127974761Y-86475119D01*
X127879523Y-86427500D01*
X127022380Y-86427500D01*
X127974761Y-87332261D02*
X128022380Y-87237023D01*
X128022380Y-87046547D01*
X127974761Y-86951309D01*
X127879523Y-86903690D01*
X127498571Y-86903690D01*
X127403333Y-86951309D01*
X127355714Y-87046547D01*
X127355714Y-87237023D01*
X127403333Y-87332261D01*
X127498571Y-87379880D01*
X127593809Y-87379880D01*
X127689047Y-86903690D01*
X127355714Y-88237023D02*
X128165238Y-88237023D01*
X128260476Y-88189404D01*
X128308095Y-88141785D01*
X128355714Y-88046547D01*
X128355714Y-87903690D01*
X128308095Y-87808452D01*
X127974761Y-88237023D02*
X128022380Y-88141785D01*
X128022380Y-87951309D01*
X127974761Y-87856071D01*
X127927142Y-87808452D01*
X127831904Y-87760833D01*
X127546190Y-87760833D01*
X127450952Y-87808452D01*
X127403333Y-87856071D01*
X127355714Y-87951309D01*
X127355714Y-88141785D01*
X127403333Y-88237023D01*
X128632380Y-48141785D02*
X128632380Y-47665595D01*
X129108571Y-47617976D01*
X129060952Y-47665595D01*
X129013333Y-47760833D01*
X129013333Y-47998928D01*
X129060952Y-48094166D01*
X129108571Y-48141785D01*
X129203809Y-48189404D01*
X129441904Y-48189404D01*
X129537142Y-48141785D01*
X129584761Y-48094166D01*
X129632380Y-47998928D01*
X129632380Y-47760833D01*
X129584761Y-47665595D01*
X129537142Y-47617976D01*
X129537142Y-48617976D02*
X129584761Y-48665595D01*
X129632380Y-48617976D01*
X129584761Y-48570357D01*
X129537142Y-48617976D01*
X129632380Y-48617976D01*
X129584761Y-49808452D02*
X129632380Y-49951309D01*
X129632380Y-50189404D01*
X129584761Y-50284642D01*
X129537142Y-50332261D01*
X129441904Y-50379880D01*
X129346666Y-50379880D01*
X129251428Y-50332261D01*
X129203809Y-50284642D01*
X129156190Y-50189404D01*
X129108571Y-49998928D01*
X129060952Y-49903690D01*
X129013333Y-49856071D01*
X128918095Y-49808452D01*
X128822857Y-49808452D01*
X128727619Y-49856071D01*
X128680000Y-49903690D01*
X128632380Y-49998928D01*
X128632380Y-50237023D01*
X128680000Y-50379880D01*
X129632380Y-50951309D02*
X129584761Y-50856071D01*
X129537142Y-50808452D01*
X129441904Y-50760833D01*
X129156190Y-50760833D01*
X129060952Y-50808452D01*
X129013333Y-50856071D01*
X128965714Y-50951309D01*
X128965714Y-51094166D01*
X129013333Y-51189404D01*
X129060952Y-51237023D01*
X129156190Y-51284642D01*
X129441904Y-51284642D01*
X129537142Y-51237023D01*
X129584761Y-51189404D01*
X129632380Y-51094166D01*
X129632380Y-50951309D01*
X129632380Y-51856071D02*
X129584761Y-51760833D01*
X129489523Y-51713214D01*
X128632380Y-51713214D01*
X129632380Y-52665595D02*
X128632380Y-52665595D01*
X129584761Y-52665595D02*
X129632380Y-52570357D01*
X129632380Y-52379880D01*
X129584761Y-52284642D01*
X129537142Y-52237023D01*
X129441904Y-52189404D01*
X129156190Y-52189404D01*
X129060952Y-52237023D01*
X129013333Y-52284642D01*
X128965714Y-52379880D01*
X128965714Y-52570357D01*
X129013333Y-52665595D01*
X129584761Y-53522738D02*
X129632380Y-53427500D01*
X129632380Y-53237023D01*
X129584761Y-53141785D01*
X129489523Y-53094166D01*
X129108571Y-53094166D01*
X129013333Y-53141785D01*
X128965714Y-53237023D01*
X128965714Y-53427500D01*
X129013333Y-53522738D01*
X129108571Y-53570357D01*
X129203809Y-53570357D01*
X129299047Y-53094166D01*
X129632380Y-53998928D02*
X128965714Y-53998928D01*
X129156190Y-53998928D02*
X129060952Y-54046547D01*
X129013333Y-54094166D01*
X128965714Y-54189404D01*
X128965714Y-54284642D01*
X129584761Y-55808452D02*
X129632380Y-55713214D01*
X129632380Y-55522738D01*
X129584761Y-55427500D01*
X129537142Y-55379880D01*
X129441904Y-55332261D01*
X129156190Y-55332261D01*
X129060952Y-55379880D01*
X129013333Y-55427500D01*
X128965714Y-55522738D01*
X128965714Y-55713214D01*
X129013333Y-55808452D01*
X129632380Y-56379880D02*
X129584761Y-56284642D01*
X129537142Y-56237023D01*
X129441904Y-56189404D01*
X129156190Y-56189404D01*
X129060952Y-56237023D01*
X129013333Y-56284642D01*
X128965714Y-56379880D01*
X128965714Y-56522738D01*
X129013333Y-56617976D01*
X129060952Y-56665595D01*
X129156190Y-56713214D01*
X129441904Y-56713214D01*
X129537142Y-56665595D01*
X129584761Y-56617976D01*
X129632380Y-56522738D01*
X129632380Y-56379880D01*
X128965714Y-57141785D02*
X129632380Y-57141785D01*
X129060952Y-57141785D02*
X129013333Y-57189404D01*
X128965714Y-57284642D01*
X128965714Y-57427500D01*
X129013333Y-57522738D01*
X129108571Y-57570357D01*
X129632380Y-57570357D01*
X128965714Y-57903690D02*
X128965714Y-58284642D01*
X128632380Y-58046547D02*
X129489523Y-58046547D01*
X129584761Y-58094166D01*
X129632380Y-58189404D01*
X129632380Y-58284642D01*
X129632380Y-58617976D02*
X128965714Y-58617976D01*
X129156190Y-58617976D02*
X129060952Y-58665595D01*
X129013333Y-58713214D01*
X128965714Y-58808452D01*
X128965714Y-58903690D01*
X129632380Y-59379880D02*
X129584761Y-59284642D01*
X129537142Y-59237023D01*
X129441904Y-59189404D01*
X129156190Y-59189404D01*
X129060952Y-59237023D01*
X129013333Y-59284642D01*
X128965714Y-59379880D01*
X128965714Y-59522738D01*
X129013333Y-59617976D01*
X129060952Y-59665595D01*
X129156190Y-59713214D01*
X129441904Y-59713214D01*
X129537142Y-59665595D01*
X129584761Y-59617976D01*
X129632380Y-59522738D01*
X129632380Y-59379880D01*
X129632380Y-60284642D02*
X129584761Y-60189404D01*
X129489523Y-60141785D01*
X128632380Y-60141785D01*
X129632380Y-60808452D02*
X129584761Y-60713214D01*
X129489523Y-60665595D01*
X128632380Y-60665595D01*
X129584761Y-61570357D02*
X129632380Y-61475119D01*
X129632380Y-61284642D01*
X129584761Y-61189404D01*
X129489523Y-61141785D01*
X129108571Y-61141785D01*
X129013333Y-61189404D01*
X128965714Y-61284642D01*
X128965714Y-61475119D01*
X129013333Y-61570357D01*
X129108571Y-61617976D01*
X129203809Y-61617976D01*
X129299047Y-61141785D01*
X129632380Y-62046547D02*
X128965714Y-62046547D01*
X129156190Y-62046547D02*
X129060952Y-62094166D01*
X129013333Y-62141785D01*
X128965714Y-62237023D01*
X128965714Y-62332261D01*
X129632380Y-63570357D02*
X129584761Y-63475119D01*
X129537142Y-63427500D01*
X129441904Y-63379880D01*
X129156190Y-63379880D01*
X129060952Y-63427500D01*
X129013333Y-63475119D01*
X128965714Y-63570357D01*
X128965714Y-63713214D01*
X129013333Y-63808452D01*
X129060952Y-63856071D01*
X129156190Y-63903690D01*
X129441904Y-63903690D01*
X129537142Y-63856071D01*
X129584761Y-63808452D01*
X129632380Y-63713214D01*
X129632380Y-63570357D01*
X128965714Y-64332261D02*
X129632380Y-64332261D01*
X129060952Y-64332261D02*
X129013333Y-64379880D01*
X128965714Y-64475119D01*
X128965714Y-64617976D01*
X129013333Y-64713214D01*
X129108571Y-64760833D01*
X129632380Y-64760833D01*
X129632380Y-65998928D02*
X128965714Y-65998928D01*
X129156190Y-65998928D02*
X129060952Y-66046547D01*
X129013333Y-66094166D01*
X128965714Y-66189404D01*
X128965714Y-66284642D01*
X129584761Y-66998928D02*
X129632380Y-66903690D01*
X129632380Y-66713214D01*
X129584761Y-66617976D01*
X129489523Y-66570357D01*
X129108571Y-66570357D01*
X129013333Y-66617976D01*
X128965714Y-66713214D01*
X128965714Y-66903690D01*
X129013333Y-66998928D01*
X129108571Y-67046547D01*
X129203809Y-67046547D01*
X129299047Y-66570357D01*
X129632380Y-67903690D02*
X129108571Y-67903690D01*
X129013333Y-67856071D01*
X128965714Y-67760833D01*
X128965714Y-67570357D01*
X129013333Y-67475119D01*
X129584761Y-67903690D02*
X129632380Y-67808452D01*
X129632380Y-67570357D01*
X129584761Y-67475119D01*
X129489523Y-67427500D01*
X129394285Y-67427500D01*
X129299047Y-67475119D01*
X129251428Y-67570357D01*
X129251428Y-67808452D01*
X129203809Y-67903690D01*
X129632380Y-68379880D02*
X128965714Y-68379880D01*
X129156190Y-68379880D02*
X129060952Y-68427500D01*
X129013333Y-68475119D01*
X128965714Y-68570357D01*
X128965714Y-68665595D01*
X129632380Y-69903690D02*
X129584761Y-69808452D01*
X129537142Y-69760833D01*
X129441904Y-69713214D01*
X129156190Y-69713214D01*
X129060952Y-69760833D01*
X129013333Y-69808452D01*
X128965714Y-69903690D01*
X128965714Y-70046547D01*
X129013333Y-70141785D01*
X129060952Y-70189404D01*
X129156190Y-70237023D01*
X129441904Y-70237023D01*
X129537142Y-70189404D01*
X129584761Y-70141785D01*
X129632380Y-70046547D01*
X129632380Y-69903690D01*
X128965714Y-70522738D02*
X128965714Y-70903690D01*
X129632380Y-70665595D02*
X128775238Y-70665595D01*
X128680000Y-70713214D01*
X128632380Y-70808452D01*
X128632380Y-70903690D01*
X129632380Y-71998928D02*
X128632380Y-71998928D01*
X128632380Y-72379880D01*
X128680000Y-72475119D01*
X128727619Y-72522738D01*
X128822857Y-72570357D01*
X128965714Y-72570357D01*
X129060952Y-72522738D01*
X129108571Y-72475119D01*
X129156190Y-72379880D01*
X129156190Y-71998928D01*
X129537142Y-73570357D02*
X129584761Y-73522738D01*
X129632380Y-73379880D01*
X129632380Y-73284642D01*
X129584761Y-73141785D01*
X129489523Y-73046547D01*
X129394285Y-72998928D01*
X129203809Y-72951309D01*
X129060952Y-72951309D01*
X128870476Y-72998928D01*
X128775238Y-73046547D01*
X128680000Y-73141785D01*
X128632380Y-73284642D01*
X128632380Y-73379880D01*
X128680000Y-73522738D01*
X128727619Y-73570357D01*
X129108571Y-74332261D02*
X129156190Y-74475119D01*
X129203809Y-74522738D01*
X129299047Y-74570357D01*
X129441904Y-74570357D01*
X129537142Y-74522738D01*
X129584761Y-74475119D01*
X129632380Y-74379880D01*
X129632380Y-73998928D01*
X128632380Y-73998928D01*
X128632380Y-74332261D01*
X128680000Y-74427500D01*
X128727619Y-74475119D01*
X128822857Y-74522738D01*
X128918095Y-74522738D01*
X129013333Y-74475119D01*
X129060952Y-74427500D01*
X129108571Y-74332261D01*
X129108571Y-73998928D01*
X129584761Y-75046547D02*
X129632380Y-75046547D01*
X129727619Y-74998928D01*
X129775238Y-74951309D01*
X128965714Y-76094166D02*
X128965714Y-76475119D01*
X129632380Y-76237023D02*
X128775238Y-76237023D01*
X128680000Y-76284642D01*
X128632380Y-76379880D01*
X128632380Y-76475119D01*
X129632380Y-77237023D02*
X129108571Y-77237023D01*
X129013333Y-77189404D01*
X128965714Y-77094166D01*
X128965714Y-76903690D01*
X129013333Y-76808452D01*
X129584761Y-77237023D02*
X129632380Y-77141785D01*
X129632380Y-76903690D01*
X129584761Y-76808452D01*
X129489523Y-76760833D01*
X129394285Y-76760833D01*
X129299047Y-76808452D01*
X129251428Y-76903690D01*
X129251428Y-77141785D01*
X129203809Y-77237023D01*
X129584761Y-78141785D02*
X129632380Y-78046547D01*
X129632380Y-77856071D01*
X129584761Y-77760833D01*
X129537142Y-77713214D01*
X129441904Y-77665595D01*
X129156190Y-77665595D01*
X129060952Y-77713214D01*
X129013333Y-77760833D01*
X128965714Y-77856071D01*
X128965714Y-78046547D01*
X129013333Y-78141785D01*
X129632380Y-78570357D02*
X128965714Y-78570357D01*
X128632380Y-78570357D02*
X128680000Y-78522738D01*
X128727619Y-78570357D01*
X128680000Y-78617976D01*
X128632380Y-78570357D01*
X128727619Y-78570357D01*
X128965714Y-79046547D02*
X129632380Y-79046547D01*
X129060952Y-79046547D02*
X129013333Y-79094166D01*
X128965714Y-79189404D01*
X128965714Y-79332261D01*
X129013333Y-79427500D01*
X129108571Y-79475119D01*
X129632380Y-79475119D01*
X128965714Y-80379880D02*
X129775238Y-80379880D01*
X129870476Y-80332261D01*
X129918095Y-80284642D01*
X129965714Y-80189404D01*
X129965714Y-80046547D01*
X129918095Y-79951309D01*
X129584761Y-80379880D02*
X129632380Y-80284642D01*
X129632380Y-80094166D01*
X129584761Y-79998928D01*
X129537142Y-79951309D01*
X129441904Y-79903690D01*
X129156190Y-79903690D01*
X129060952Y-79951309D01*
X129013333Y-79998928D01*
X128965714Y-80094166D01*
X128965714Y-80284642D01*
X129013333Y-80379880D01*
X128965714Y-82046547D02*
X129632380Y-82046547D01*
X128965714Y-81617976D02*
X129489523Y-81617976D01*
X129584761Y-81665595D01*
X129632380Y-81760833D01*
X129632380Y-81903690D01*
X129584761Y-81998928D01*
X129537142Y-82046547D01*
X128965714Y-82522738D02*
X129965714Y-82522738D01*
X129013333Y-82522738D02*
X128965714Y-82617976D01*
X128965714Y-82808452D01*
X129013333Y-82903690D01*
X129060952Y-82951309D01*
X129156190Y-82998928D01*
X129441904Y-82998928D01*
X129537142Y-82951309D01*
X129584761Y-82903690D01*
X129632380Y-82808452D01*
X129632380Y-82617976D01*
X129584761Y-82522738D01*
X130242380Y-48094166D02*
X130242380Y-47903690D01*
X130290000Y-47808452D01*
X130337619Y-47760833D01*
X130480476Y-47665595D01*
X130670952Y-47617976D01*
X131051904Y-47617976D01*
X131147142Y-47665595D01*
X131194761Y-47713214D01*
X131242380Y-47808452D01*
X131242380Y-47998928D01*
X131194761Y-48094166D01*
X131147142Y-48141785D01*
X131051904Y-48189404D01*
X130813809Y-48189404D01*
X130718571Y-48141785D01*
X130670952Y-48094166D01*
X130623333Y-47998928D01*
X130623333Y-47808452D01*
X130670952Y-47713214D01*
X130718571Y-47665595D01*
X130813809Y-47617976D01*
X131147142Y-48617976D02*
X131194761Y-48665595D01*
X131242380Y-48617976D01*
X131194761Y-48570357D01*
X131147142Y-48617976D01*
X131242380Y-48617976D01*
X131194761Y-49808452D02*
X131242380Y-49951309D01*
X131242380Y-50189404D01*
X131194761Y-50284642D01*
X131147142Y-50332261D01*
X131051904Y-50379880D01*
X130956666Y-50379880D01*
X130861428Y-50332261D01*
X130813809Y-50284642D01*
X130766190Y-50189404D01*
X130718571Y-49998928D01*
X130670952Y-49903690D01*
X130623333Y-49856071D01*
X130528095Y-49808452D01*
X130432857Y-49808452D01*
X130337619Y-49856071D01*
X130290000Y-49903690D01*
X130242380Y-49998928D01*
X130242380Y-50237023D01*
X130290000Y-50379880D01*
X131242380Y-50951309D02*
X131194761Y-50856071D01*
X131147142Y-50808452D01*
X131051904Y-50760833D01*
X130766190Y-50760833D01*
X130670952Y-50808452D01*
X130623333Y-50856071D01*
X130575714Y-50951309D01*
X130575714Y-51094166D01*
X130623333Y-51189404D01*
X130670952Y-51237023D01*
X130766190Y-51284642D01*
X131051904Y-51284642D01*
X131147142Y-51237023D01*
X131194761Y-51189404D01*
X131242380Y-51094166D01*
X131242380Y-50951309D01*
X131242380Y-51856071D02*
X131194761Y-51760833D01*
X131099523Y-51713214D01*
X130242380Y-51713214D01*
X131242380Y-52665595D02*
X130242380Y-52665595D01*
X131194761Y-52665595D02*
X131242380Y-52570357D01*
X131242380Y-52379880D01*
X131194761Y-52284642D01*
X131147142Y-52237023D01*
X131051904Y-52189404D01*
X130766190Y-52189404D01*
X130670952Y-52237023D01*
X130623333Y-52284642D01*
X130575714Y-52379880D01*
X130575714Y-52570357D01*
X130623333Y-52665595D01*
X131194761Y-53522738D02*
X131242380Y-53427500D01*
X131242380Y-53237023D01*
X131194761Y-53141785D01*
X131099523Y-53094166D01*
X130718571Y-53094166D01*
X130623333Y-53141785D01*
X130575714Y-53237023D01*
X130575714Y-53427500D01*
X130623333Y-53522738D01*
X130718571Y-53570357D01*
X130813809Y-53570357D01*
X130909047Y-53094166D01*
X131242380Y-53998928D02*
X130575714Y-53998928D01*
X130766190Y-53998928D02*
X130670952Y-54046547D01*
X130623333Y-54094166D01*
X130575714Y-54189404D01*
X130575714Y-54284642D01*
X131194761Y-55760833D02*
X131242380Y-55665595D01*
X131242380Y-55475119D01*
X131194761Y-55379880D01*
X131099523Y-55332261D01*
X130718571Y-55332261D01*
X130623333Y-55379880D01*
X130575714Y-55475119D01*
X130575714Y-55665595D01*
X130623333Y-55760833D01*
X130718571Y-55808452D01*
X130813809Y-55808452D01*
X130909047Y-55332261D01*
X130575714Y-56237023D02*
X131242380Y-56237023D01*
X130670952Y-56237023D02*
X130623333Y-56284642D01*
X130575714Y-56379880D01*
X130575714Y-56522738D01*
X130623333Y-56617976D01*
X130718571Y-56665595D01*
X131242380Y-56665595D01*
X131194761Y-57570357D02*
X131242380Y-57475119D01*
X131242380Y-57284642D01*
X131194761Y-57189404D01*
X131147142Y-57141785D01*
X131051904Y-57094166D01*
X130766190Y-57094166D01*
X130670952Y-57141785D01*
X130623333Y-57189404D01*
X130575714Y-57284642D01*
X130575714Y-57475119D01*
X130623333Y-57570357D01*
X131242380Y-58141785D02*
X131194761Y-58046547D01*
X131147142Y-57998928D01*
X131051904Y-57951309D01*
X130766190Y-57951309D01*
X130670952Y-57998928D01*
X130623333Y-58046547D01*
X130575714Y-58141785D01*
X130575714Y-58284642D01*
X130623333Y-58379880D01*
X130670952Y-58427500D01*
X130766190Y-58475119D01*
X131051904Y-58475119D01*
X131147142Y-58427500D01*
X131194761Y-58379880D01*
X131242380Y-58284642D01*
X131242380Y-58141785D01*
X131242380Y-59332261D02*
X130242380Y-59332261D01*
X131194761Y-59332261D02*
X131242380Y-59237023D01*
X131242380Y-59046547D01*
X131194761Y-58951309D01*
X131147142Y-58903690D01*
X131051904Y-58856071D01*
X130766190Y-58856071D01*
X130670952Y-58903690D01*
X130623333Y-58951309D01*
X130575714Y-59046547D01*
X130575714Y-59237023D01*
X130623333Y-59332261D01*
X131194761Y-60189404D02*
X131242380Y-60094166D01*
X131242380Y-59903690D01*
X131194761Y-59808452D01*
X131099523Y-59760833D01*
X130718571Y-59760833D01*
X130623333Y-59808452D01*
X130575714Y-59903690D01*
X130575714Y-60094166D01*
X130623333Y-60189404D01*
X130718571Y-60237023D01*
X130813809Y-60237023D01*
X130909047Y-59760833D01*
X131242380Y-60665595D02*
X130575714Y-60665595D01*
X130766190Y-60665595D02*
X130670952Y-60713214D01*
X130623333Y-60760833D01*
X130575714Y-60856071D01*
X130575714Y-60951309D01*
X130575714Y-61903690D02*
X130575714Y-62284642D01*
X131242380Y-62046547D02*
X130385238Y-62046547D01*
X130290000Y-62094166D01*
X130242380Y-62189404D01*
X130242380Y-62284642D01*
X131242380Y-62617976D02*
X130575714Y-62617976D01*
X130766190Y-62617976D02*
X130670952Y-62665595D01*
X130623333Y-62713214D01*
X130575714Y-62808452D01*
X130575714Y-62903690D01*
X131242380Y-63379880D02*
X131194761Y-63284642D01*
X131147142Y-63237023D01*
X131051904Y-63189404D01*
X130766190Y-63189404D01*
X130670952Y-63237023D01*
X130623333Y-63284642D01*
X130575714Y-63379880D01*
X130575714Y-63522738D01*
X130623333Y-63617976D01*
X130670952Y-63665595D01*
X130766190Y-63713214D01*
X131051904Y-63713214D01*
X131147142Y-63665595D01*
X131194761Y-63617976D01*
X131242380Y-63522738D01*
X131242380Y-63379880D01*
X131242380Y-64141785D02*
X130575714Y-64141785D01*
X130670952Y-64141785D02*
X130623333Y-64189404D01*
X130575714Y-64284642D01*
X130575714Y-64427500D01*
X130623333Y-64522738D01*
X130718571Y-64570357D01*
X131242380Y-64570357D01*
X130718571Y-64570357D02*
X130623333Y-64617976D01*
X130575714Y-64713214D01*
X130575714Y-64856071D01*
X130623333Y-64951309D01*
X130718571Y-64998928D01*
X131242380Y-64998928D01*
X130575714Y-66094166D02*
X130575714Y-66475119D01*
X131242380Y-66237023D02*
X130385238Y-66237023D01*
X130290000Y-66284642D01*
X130242380Y-66379880D01*
X130242380Y-66475119D01*
X131242380Y-66808452D02*
X130575714Y-66808452D01*
X130766190Y-66808452D02*
X130670952Y-66856071D01*
X130623333Y-66903690D01*
X130575714Y-66998928D01*
X130575714Y-67094166D01*
X131242380Y-67570357D02*
X131194761Y-67475119D01*
X131147142Y-67427500D01*
X131051904Y-67379880D01*
X130766190Y-67379880D01*
X130670952Y-67427500D01*
X130623333Y-67475119D01*
X130575714Y-67570357D01*
X130575714Y-67713214D01*
X130623333Y-67808452D01*
X130670952Y-67856071D01*
X130766190Y-67903690D01*
X131051904Y-67903690D01*
X131147142Y-67856071D01*
X131194761Y-67808452D01*
X131242380Y-67713214D01*
X131242380Y-67570357D01*
X130575714Y-68332261D02*
X131242380Y-68332261D01*
X130670952Y-68332261D02*
X130623333Y-68379880D01*
X130575714Y-68475119D01*
X130575714Y-68617976D01*
X130623333Y-68713214D01*
X130718571Y-68760833D01*
X131242380Y-68760833D01*
X130575714Y-69094166D02*
X130575714Y-69475119D01*
X130242380Y-69237023D02*
X131099523Y-69237023D01*
X131194761Y-69284642D01*
X131242380Y-69379880D01*
X131242380Y-69475119D01*
X131242380Y-70713214D02*
X131194761Y-70617976D01*
X131147142Y-70570357D01*
X131051904Y-70522738D01*
X130766190Y-70522738D01*
X130670952Y-70570357D01*
X130623333Y-70617976D01*
X130575714Y-70713214D01*
X130575714Y-70856071D01*
X130623333Y-70951309D01*
X130670952Y-70998928D01*
X130766190Y-71046547D01*
X131051904Y-71046547D01*
X131147142Y-70998928D01*
X131194761Y-70951309D01*
X131242380Y-70856071D01*
X131242380Y-70713214D01*
X130575714Y-71332261D02*
X130575714Y-71713214D01*
X131242380Y-71475119D02*
X130385238Y-71475119D01*
X130290000Y-71522738D01*
X130242380Y-71617976D01*
X130242380Y-71713214D01*
X131242380Y-72808452D02*
X130242380Y-72808452D01*
X130242380Y-73189404D01*
X130290000Y-73284642D01*
X130337619Y-73332261D01*
X130432857Y-73379880D01*
X130575714Y-73379880D01*
X130670952Y-73332261D01*
X130718571Y-73284642D01*
X130766190Y-73189404D01*
X130766190Y-72808452D01*
X131147142Y-74379880D02*
X131194761Y-74332261D01*
X131242380Y-74189404D01*
X131242380Y-74094166D01*
X131194761Y-73951309D01*
X131099523Y-73856071D01*
X131004285Y-73808452D01*
X130813809Y-73760833D01*
X130670952Y-73760833D01*
X130480476Y-73808452D01*
X130385238Y-73856071D01*
X130290000Y-73951309D01*
X130242380Y-74094166D01*
X130242380Y-74189404D01*
X130290000Y-74332261D01*
X130337619Y-74379880D01*
X130718571Y-75141785D02*
X130766190Y-75284642D01*
X130813809Y-75332261D01*
X130909047Y-75379880D01*
X131051904Y-75379880D01*
X131147142Y-75332261D01*
X131194761Y-75284642D01*
X131242380Y-75189404D01*
X131242380Y-74808452D01*
X130242380Y-74808452D01*
X130242380Y-75141785D01*
X130290000Y-75237023D01*
X130337619Y-75284642D01*
X130432857Y-75332261D01*
X130528095Y-75332261D01*
X130623333Y-75284642D01*
X130670952Y-75237023D01*
X130718571Y-75141785D01*
X130718571Y-74808452D01*
X131623333Y-76856071D02*
X131575714Y-76808452D01*
X131432857Y-76713214D01*
X131337619Y-76665595D01*
X131194761Y-76617976D01*
X130956666Y-76570357D01*
X130766190Y-76570357D01*
X130528095Y-76617976D01*
X130385238Y-76665595D01*
X130290000Y-76713214D01*
X130147142Y-76808452D01*
X130099523Y-76856071D01*
X130718571Y-77570357D02*
X130766190Y-77713214D01*
X130813809Y-77760833D01*
X130909047Y-77808452D01*
X131051904Y-77808452D01*
X131147142Y-77760833D01*
X131194761Y-77713214D01*
X131242380Y-77617976D01*
X131242380Y-77237023D01*
X130242380Y-77237023D01*
X130242380Y-77570357D01*
X130290000Y-77665595D01*
X130337619Y-77713214D01*
X130432857Y-77760833D01*
X130528095Y-77760833D01*
X130623333Y-77713214D01*
X130670952Y-77665595D01*
X130718571Y-77570357D01*
X130718571Y-77237023D01*
X131194761Y-78617976D02*
X131242380Y-78522738D01*
X131242380Y-78332261D01*
X131194761Y-78237023D01*
X131099523Y-78189404D01*
X130718571Y-78189404D01*
X130623333Y-78237023D01*
X130575714Y-78332261D01*
X130575714Y-78522738D01*
X130623333Y-78617976D01*
X130718571Y-78665595D01*
X130813809Y-78665595D01*
X130909047Y-78189404D01*
X130575714Y-79094166D02*
X131242380Y-79094166D01*
X130670952Y-79094166D02*
X130623333Y-79141785D01*
X130575714Y-79237023D01*
X130575714Y-79379880D01*
X130623333Y-79475119D01*
X130718571Y-79522738D01*
X131242380Y-79522738D01*
X131242380Y-80427499D02*
X130242380Y-80427499D01*
X131194761Y-80427499D02*
X131242380Y-80332261D01*
X131242380Y-80141785D01*
X131194761Y-80046547D01*
X131147142Y-79998928D01*
X131051904Y-79951309D01*
X130766190Y-79951309D01*
X130670952Y-79998928D01*
X130623333Y-80046547D01*
X130575714Y-80141785D01*
X130575714Y-80332261D01*
X130623333Y-80427499D01*
X130575714Y-82094166D02*
X131385238Y-82094166D01*
X131480476Y-82046547D01*
X131528095Y-81998928D01*
X131575714Y-81903690D01*
X131575714Y-81760833D01*
X131528095Y-81665595D01*
X131194761Y-82094166D02*
X131242380Y-81998928D01*
X131242380Y-81808452D01*
X131194761Y-81713214D01*
X131147142Y-81665595D01*
X131051904Y-81617976D01*
X130766190Y-81617976D01*
X130670952Y-81665595D01*
X130623333Y-81713214D01*
X130575714Y-81808452D01*
X130575714Y-81998928D01*
X130623333Y-82094166D01*
X131242380Y-82570357D02*
X130575714Y-82570357D01*
X130766190Y-82570357D02*
X130670952Y-82617976D01*
X130623333Y-82665595D01*
X130575714Y-82760833D01*
X130575714Y-82856071D01*
X131242380Y-83332261D02*
X131194761Y-83237023D01*
X131147142Y-83189404D01*
X131051904Y-83141785D01*
X130766190Y-83141785D01*
X130670952Y-83189404D01*
X130623333Y-83237023D01*
X130575714Y-83332261D01*
X130575714Y-83475119D01*
X130623333Y-83570357D01*
X130670952Y-83617976D01*
X130766190Y-83665595D01*
X131051904Y-83665595D01*
X131147142Y-83617976D01*
X131194761Y-83570357D01*
X131242380Y-83475119D01*
X131242380Y-83332261D01*
X130575714Y-84522738D02*
X131242380Y-84522738D01*
X130575714Y-84094166D02*
X131099523Y-84094166D01*
X131194761Y-84141785D01*
X131242380Y-84237023D01*
X131242380Y-84379880D01*
X131194761Y-84475119D01*
X131147142Y-84522738D01*
X130575714Y-84998928D02*
X131242380Y-84998928D01*
X130670952Y-84998928D02*
X130623333Y-85046547D01*
X130575714Y-85141785D01*
X130575714Y-85284642D01*
X130623333Y-85379880D01*
X130718571Y-85427499D01*
X131242380Y-85427499D01*
X131242380Y-86332261D02*
X130242380Y-86332261D01*
X131194761Y-86332261D02*
X131242380Y-86237023D01*
X131242380Y-86046547D01*
X131194761Y-85951309D01*
X131147142Y-85903690D01*
X131051904Y-85856071D01*
X130766190Y-85856071D01*
X130670952Y-85903690D01*
X130623333Y-85951309D01*
X130575714Y-86046547D01*
X130575714Y-86237023D01*
X130623333Y-86332261D01*
X130575714Y-87427499D02*
X130575714Y-87808452D01*
X130242380Y-87570357D02*
X131099523Y-87570357D01*
X131194761Y-87617976D01*
X131242380Y-87713214D01*
X131242380Y-87808452D01*
X131242380Y-88570357D02*
X130718571Y-88570357D01*
X130623333Y-88522738D01*
X130575714Y-88427499D01*
X130575714Y-88237023D01*
X130623333Y-88141785D01*
X131194761Y-88570357D02*
X131242380Y-88475119D01*
X131242380Y-88237023D01*
X131194761Y-88141785D01*
X131099523Y-88094166D01*
X131004285Y-88094166D01*
X130909047Y-88141785D01*
X130861428Y-88237023D01*
X130861428Y-88475119D01*
X130813809Y-88570357D01*
X131242380Y-89046547D02*
X130242380Y-89046547D01*
X130623333Y-89046547D02*
X130575714Y-89141785D01*
X130575714Y-89332261D01*
X130623333Y-89427499D01*
X130670952Y-89475119D01*
X130766190Y-89522738D01*
X131051904Y-89522738D01*
X131147142Y-89475119D01*
X131194761Y-89427499D01*
X131242380Y-89332261D01*
X131242380Y-89141785D01*
X131194761Y-89046547D01*
X131194761Y-89903690D02*
X131242380Y-89998928D01*
X131242380Y-90189404D01*
X131194761Y-90284642D01*
X131099523Y-90332261D01*
X131051904Y-90332261D01*
X130956666Y-90284642D01*
X130909047Y-90189404D01*
X130909047Y-90046547D01*
X130861428Y-89951309D01*
X130766190Y-89903690D01*
X130718571Y-89903690D01*
X130623333Y-89951309D01*
X130575714Y-90046547D01*
X130575714Y-90189404D01*
X130623333Y-90284642D01*
X131147142Y-90760833D02*
X131194761Y-90808452D01*
X131242380Y-90760833D01*
X131194761Y-90713214D01*
X131147142Y-90760833D01*
X131242380Y-90760833D01*
X130861428Y-90760833D02*
X130290000Y-90713214D01*
X130242380Y-90760833D01*
X130290000Y-90808452D01*
X130861428Y-90760833D01*
X130242380Y-90760833D01*
X131623333Y-91141785D02*
X131575714Y-91189404D01*
X131432857Y-91284642D01*
X131337619Y-91332261D01*
X131194761Y-91379880D01*
X130956666Y-91427499D01*
X130766190Y-91427499D01*
X130528095Y-91379880D01*
X130385238Y-91332261D01*
X130290000Y-91284642D01*
X130147142Y-91189404D01*
X130099523Y-91141785D01*
X131852380Y-47570357D02*
X131852380Y-48237023D01*
X132852380Y-47808452D01*
X132757142Y-48617976D02*
X132804761Y-48665595D01*
X132852380Y-48617976D01*
X132804761Y-48570357D01*
X132757142Y-48617976D01*
X132852380Y-48617976D01*
X132566666Y-49808452D02*
X132566666Y-50284642D01*
X132852380Y-49713214D02*
X131852380Y-50046547D01*
X132852380Y-50379880D01*
X132804761Y-50665595D02*
X132852380Y-50760833D01*
X132852380Y-50951309D01*
X132804761Y-51046547D01*
X132709523Y-51094166D01*
X132661904Y-51094166D01*
X132566666Y-51046547D01*
X132519047Y-50951309D01*
X132519047Y-50808452D01*
X132471428Y-50713214D01*
X132376190Y-50665595D01*
X132328571Y-50665595D01*
X132233333Y-50713214D01*
X132185714Y-50808452D01*
X132185714Y-50951309D01*
X132233333Y-51046547D01*
X132804761Y-51475119D02*
X132852380Y-51570357D01*
X132852380Y-51760833D01*
X132804761Y-51856071D01*
X132709523Y-51903690D01*
X132661904Y-51903690D01*
X132566666Y-51856071D01*
X132519047Y-51760833D01*
X132519047Y-51617976D01*
X132471428Y-51522738D01*
X132376190Y-51475119D01*
X132328571Y-51475119D01*
X132233333Y-51522738D01*
X132185714Y-51617976D01*
X132185714Y-51760833D01*
X132233333Y-51856071D01*
X132804761Y-52713214D02*
X132852380Y-52617976D01*
X132852380Y-52427500D01*
X132804761Y-52332261D01*
X132709523Y-52284642D01*
X132328571Y-52284642D01*
X132233333Y-52332261D01*
X132185714Y-52427500D01*
X132185714Y-52617976D01*
X132233333Y-52713214D01*
X132328571Y-52760833D01*
X132423809Y-52760833D01*
X132519047Y-52284642D01*
X132852380Y-53189404D02*
X132185714Y-53189404D01*
X132280952Y-53189404D02*
X132233333Y-53237023D01*
X132185714Y-53332261D01*
X132185714Y-53475119D01*
X132233333Y-53570357D01*
X132328571Y-53617976D01*
X132852380Y-53617976D01*
X132328571Y-53617976D02*
X132233333Y-53665595D01*
X132185714Y-53760833D01*
X132185714Y-53903690D01*
X132233333Y-53998928D01*
X132328571Y-54046547D01*
X132852380Y-54046547D01*
X132852380Y-54522738D02*
X131852380Y-54522738D01*
X132233333Y-54522738D02*
X132185714Y-54617976D01*
X132185714Y-54808452D01*
X132233333Y-54903690D01*
X132280952Y-54951309D01*
X132376190Y-54998928D01*
X132661904Y-54998928D01*
X132757142Y-54951309D01*
X132804761Y-54903690D01*
X132852380Y-54808452D01*
X132852380Y-54617976D01*
X132804761Y-54522738D01*
X132852380Y-55570357D02*
X132804761Y-55475119D01*
X132709523Y-55427500D01*
X131852380Y-55427500D01*
X132804761Y-56332261D02*
X132852380Y-56237023D01*
X132852380Y-56046547D01*
X132804761Y-55951309D01*
X132709523Y-55903690D01*
X132328571Y-55903690D01*
X132233333Y-55951309D01*
X132185714Y-56046547D01*
X132185714Y-56237023D01*
X132233333Y-56332261D01*
X132328571Y-56379880D01*
X132423809Y-56379880D01*
X132519047Y-55903690D01*
X132804761Y-56856071D02*
X132852380Y-56856071D01*
X132947619Y-56808452D01*
X132995238Y-56760833D01*
X132328571Y-58379880D02*
X132328571Y-58046547D01*
X132852380Y-58046547D02*
X131852380Y-58046547D01*
X131852380Y-58522738D01*
X132852380Y-59046547D02*
X132804761Y-58951309D01*
X132709523Y-58903690D01*
X131852380Y-58903690D01*
X132852380Y-59856071D02*
X132328571Y-59856071D01*
X132233333Y-59808452D01*
X132185714Y-59713214D01*
X132185714Y-59522738D01*
X132233333Y-59427500D01*
X132804761Y-59856071D02*
X132852380Y-59760833D01*
X132852380Y-59522738D01*
X132804761Y-59427500D01*
X132709523Y-59379880D01*
X132614285Y-59379880D01*
X132519047Y-59427500D01*
X132471428Y-59522738D01*
X132471428Y-59760833D01*
X132423809Y-59856071D01*
X132804761Y-60284642D02*
X132852380Y-60379880D01*
X132852380Y-60570357D01*
X132804761Y-60665595D01*
X132709523Y-60713214D01*
X132661904Y-60713214D01*
X132566666Y-60665595D01*
X132519047Y-60570357D01*
X132519047Y-60427500D01*
X132471428Y-60332261D01*
X132376190Y-60284642D01*
X132328571Y-60284642D01*
X132233333Y-60332261D01*
X132185714Y-60427500D01*
X132185714Y-60570357D01*
X132233333Y-60665595D01*
X132852380Y-61141785D02*
X131852380Y-61141785D01*
X132852380Y-61570357D02*
X132328571Y-61570357D01*
X132233333Y-61522738D01*
X132185714Y-61427500D01*
X132185714Y-61284642D01*
X132233333Y-61189404D01*
X132280952Y-61141785D01*
X132852380Y-63237023D02*
X132328571Y-63237023D01*
X132233333Y-63189404D01*
X132185714Y-63094166D01*
X132185714Y-62903690D01*
X132233333Y-62808452D01*
X132804761Y-63237023D02*
X132852380Y-63141785D01*
X132852380Y-62903690D01*
X132804761Y-62808452D01*
X132709523Y-62760833D01*
X132614285Y-62760833D01*
X132519047Y-62808452D01*
X132471428Y-62903690D01*
X132471428Y-63141785D01*
X132423809Y-63237023D01*
X132185714Y-63713214D02*
X132852380Y-63713214D01*
X132280952Y-63713214D02*
X132233333Y-63760833D01*
X132185714Y-63856071D01*
X132185714Y-63998928D01*
X132233333Y-64094166D01*
X132328571Y-64141785D01*
X132852380Y-64141785D01*
X132852380Y-65046547D02*
X131852380Y-65046547D01*
X132804761Y-65046547D02*
X132852380Y-64951309D01*
X132852380Y-64760833D01*
X132804761Y-64665595D01*
X132757142Y-64617976D01*
X132661904Y-64570357D01*
X132376190Y-64570357D01*
X132280952Y-64617976D01*
X132233333Y-64665595D01*
X132185714Y-64760833D01*
X132185714Y-64951309D01*
X132233333Y-65046547D01*
X132328571Y-66284642D02*
X132328571Y-66617976D01*
X132852380Y-66760833D02*
X132852380Y-66284642D01*
X131852380Y-66284642D01*
X131852380Y-66760833D01*
X132185714Y-67189404D02*
X132852380Y-67189404D01*
X132280952Y-67189404D02*
X132233333Y-67237023D01*
X132185714Y-67332261D01*
X132185714Y-67475119D01*
X132233333Y-67570357D01*
X132328571Y-67617976D01*
X132852380Y-67617976D01*
X132185714Y-68094166D02*
X133042857Y-68094166D01*
X133138095Y-68046547D01*
X133185714Y-67951309D01*
X133185714Y-67903690D01*
X131852380Y-68094166D02*
X131900000Y-68046547D01*
X131947619Y-68094166D01*
X131900000Y-68141785D01*
X131852380Y-68094166D01*
X131947619Y-68094166D01*
X132852380Y-68713214D02*
X132804761Y-68617976D01*
X132757142Y-68570357D01*
X132661904Y-68522738D01*
X132376190Y-68522738D01*
X132280952Y-68570357D01*
X132233333Y-68617976D01*
X132185714Y-68713214D01*
X132185714Y-68856071D01*
X132233333Y-68951309D01*
X132280952Y-68998928D01*
X132376190Y-69046547D01*
X132661904Y-69046547D01*
X132757142Y-68998928D01*
X132804761Y-68951309D01*
X132852380Y-68856071D01*
X132852380Y-68713214D01*
X132185714Y-69379880D02*
X132852380Y-69617976D01*
X132185714Y-69856071D02*
X132852380Y-69617976D01*
X133090476Y-69522738D01*
X133138095Y-69475119D01*
X133185714Y-69379880D01*
X132757142Y-70237023D02*
X132804761Y-70284642D01*
X132852380Y-70237023D01*
X132804761Y-70189404D01*
X132757142Y-70237023D01*
X132852380Y-70237023D01*
X132471428Y-70237023D02*
X131900000Y-70189404D01*
X131852380Y-70237023D01*
X131900000Y-70284642D01*
X132471428Y-70237023D01*
X131852380Y-70237023D01*
X98525238Y-87521904D02*
X98525238Y-88093333D01*
X98563333Y-88207619D01*
X98639523Y-88283809D01*
X98753809Y-88321904D01*
X98830000Y-88321904D01*
X97763333Y-88321904D02*
X98144285Y-88321904D01*
X98144285Y-87521904D01*
X97039523Y-88245714D02*
X97077619Y-88283809D01*
X97191904Y-88321904D01*
X97268095Y-88321904D01*
X97382380Y-88283809D01*
X97458571Y-88207619D01*
X97496666Y-88131428D01*
X97534761Y-87979047D01*
X97534761Y-87864761D01*
X97496666Y-87712380D01*
X97458571Y-87636190D01*
X97382380Y-87560000D01*
X97268095Y-87521904D01*
X97191904Y-87521904D01*
X97077619Y-87560000D01*
X97039523Y-87598095D01*
X96468095Y-87521904D02*
X96468095Y-88093333D01*
X96506190Y-88207619D01*
X96582380Y-88283809D01*
X96696666Y-88321904D01*
X96772857Y-88321904D01*
X95706190Y-88321904D02*
X96087142Y-88321904D01*
X96087142Y-87521904D01*
X94982380Y-88245714D02*
X95020476Y-88283809D01*
X95134761Y-88321904D01*
X95210952Y-88321904D01*
X95325238Y-88283809D01*
X95401428Y-88207619D01*
X95439523Y-88131428D01*
X95477619Y-87979047D01*
X95477619Y-87864761D01*
X95439523Y-87712380D01*
X95401428Y-87636190D01*
X95325238Y-87560000D01*
X95210952Y-87521904D01*
X95134761Y-87521904D01*
X95020476Y-87560000D01*
X94982380Y-87598095D01*
X94410952Y-87521904D02*
X94410952Y-88093333D01*
X94449047Y-88207619D01*
X94525238Y-88283809D01*
X94639523Y-88321904D01*
X94715714Y-88321904D01*
X93649047Y-88321904D02*
X94030000Y-88321904D01*
X94030000Y-87521904D01*
X92925238Y-88245714D02*
X92963333Y-88283809D01*
X93077619Y-88321904D01*
X93153809Y-88321904D01*
X93268095Y-88283809D01*
X93344285Y-88207619D01*
X93382380Y-88131428D01*
X93420476Y-87979047D01*
X93420476Y-87864761D01*
X93382380Y-87712380D01*
X93344285Y-87636190D01*
X93268095Y-87560000D01*
X93153809Y-87521904D01*
X93077619Y-87521904D01*
X92963333Y-87560000D01*
X92925238Y-87598095D01*
X92353809Y-87521904D02*
X92353809Y-88093333D01*
X92391904Y-88207619D01*
X92468095Y-88283809D01*
X92582380Y-88321904D01*
X92658571Y-88321904D01*
X91591904Y-88321904D02*
X91972857Y-88321904D01*
X91972857Y-87521904D01*
X90868095Y-88245714D02*
X90906190Y-88283809D01*
X91020476Y-88321904D01*
X91096666Y-88321904D01*
X91210952Y-88283809D01*
X91287142Y-88207619D01*
X91325238Y-88131428D01*
X91363333Y-87979047D01*
X91363333Y-87864761D01*
X91325238Y-87712380D01*
X91287142Y-87636190D01*
X91210952Y-87560000D01*
X91096666Y-87521904D01*
X91020476Y-87521904D01*
X90906190Y-87560000D01*
X90868095Y-87598095D01*
X92566666Y-111852380D02*
X92900000Y-111376190D01*
X93138095Y-111852380D02*
X93138095Y-110852380D01*
X92757142Y-110852380D01*
X92661904Y-110900000D01*
X92614285Y-110947619D01*
X92566666Y-111042857D01*
X92566666Y-111185714D01*
X92614285Y-111280952D01*
X92661904Y-111328571D01*
X92757142Y-111376190D01*
X93138095Y-111376190D01*
X91614285Y-110900000D02*
X91709523Y-110852380D01*
X91852380Y-110852380D01*
X91995238Y-110900000D01*
X92090476Y-110995238D01*
X92138095Y-111090476D01*
X92185714Y-111280952D01*
X92185714Y-111423809D01*
X92138095Y-111614285D01*
X92090476Y-111709523D01*
X91995238Y-111804761D01*
X91852380Y-111852380D01*
X91757142Y-111852380D01*
X91614285Y-111804761D01*
X91566666Y-111757142D01*
X91566666Y-111423809D01*
X91757142Y-111423809D01*
X90804761Y-111328571D02*
X90661904Y-111376190D01*
X90614285Y-111423809D01*
X90566666Y-111519047D01*
X90566666Y-111661904D01*
X90614285Y-111757142D01*
X90661904Y-111804761D01*
X90757142Y-111852380D01*
X91138095Y-111852380D01*
X91138095Y-110852380D01*
X90804761Y-110852380D01*
X90709523Y-110900000D01*
X90661904Y-110947619D01*
X90614285Y-111042857D01*
X90614285Y-111138095D01*
X90661904Y-111233333D01*
X90709523Y-111280952D01*
X90804761Y-111328571D01*
X91138095Y-111328571D01*
X89614285Y-111852380D02*
X90185714Y-111852380D01*
X89900000Y-111852380D02*
X89900000Y-110852380D01*
X89995238Y-110995238D01*
X90090476Y-111090476D01*
X90185714Y-111138095D01*
X111616666Y-111852380D02*
X111950000Y-111376190D01*
X112188095Y-111852380D02*
X112188095Y-110852380D01*
X111807142Y-110852380D01*
X111711904Y-110900000D01*
X111664285Y-110947619D01*
X111616666Y-111042857D01*
X111616666Y-111185714D01*
X111664285Y-111280952D01*
X111711904Y-111328571D01*
X111807142Y-111376190D01*
X112188095Y-111376190D01*
X110664285Y-110900000D02*
X110759523Y-110852380D01*
X110902380Y-110852380D01*
X111045238Y-110900000D01*
X111140476Y-110995238D01*
X111188095Y-111090476D01*
X111235714Y-111280952D01*
X111235714Y-111423809D01*
X111188095Y-111614285D01*
X111140476Y-111709523D01*
X111045238Y-111804761D01*
X110902380Y-111852380D01*
X110807142Y-111852380D01*
X110664285Y-111804761D01*
X110616666Y-111757142D01*
X110616666Y-111423809D01*
X110807142Y-111423809D01*
X109854761Y-111328571D02*
X109711904Y-111376190D01*
X109664285Y-111423809D01*
X109616666Y-111519047D01*
X109616666Y-111661904D01*
X109664285Y-111757142D01*
X109711904Y-111804761D01*
X109807142Y-111852380D01*
X110188095Y-111852380D01*
X110188095Y-110852380D01*
X109854761Y-110852380D01*
X109759523Y-110900000D01*
X109711904Y-110947619D01*
X109664285Y-111042857D01*
X109664285Y-111138095D01*
X109711904Y-111233333D01*
X109759523Y-111280952D01*
X109854761Y-111328571D01*
X110188095Y-111328571D01*
X109235714Y-110947619D02*
X109188095Y-110900000D01*
X109092857Y-110852380D01*
X108854761Y-110852380D01*
X108759523Y-110900000D01*
X108711904Y-110947619D01*
X108664285Y-111042857D01*
X108664285Y-111138095D01*
X108711904Y-111280952D01*
X109283333Y-111852380D01*
X108664285Y-111852380D01*
X130666666Y-111852380D02*
X131000000Y-111376190D01*
X131238095Y-111852380D02*
X131238095Y-110852380D01*
X130857142Y-110852380D01*
X130761904Y-110900000D01*
X130714285Y-110947619D01*
X130666666Y-111042857D01*
X130666666Y-111185714D01*
X130714285Y-111280952D01*
X130761904Y-111328571D01*
X130857142Y-111376190D01*
X131238095Y-111376190D01*
X129714285Y-110900000D02*
X129809523Y-110852380D01*
X129952380Y-110852380D01*
X130095238Y-110900000D01*
X130190476Y-110995238D01*
X130238095Y-111090476D01*
X130285714Y-111280952D01*
X130285714Y-111423809D01*
X130238095Y-111614285D01*
X130190476Y-111709523D01*
X130095238Y-111804761D01*
X129952380Y-111852380D01*
X129857142Y-111852380D01*
X129714285Y-111804761D01*
X129666666Y-111757142D01*
X129666666Y-111423809D01*
X129857142Y-111423809D01*
X128904761Y-111328571D02*
X128761904Y-111376190D01*
X128714285Y-111423809D01*
X128666666Y-111519047D01*
X128666666Y-111661904D01*
X128714285Y-111757142D01*
X128761904Y-111804761D01*
X128857142Y-111852380D01*
X129238095Y-111852380D01*
X129238095Y-110852380D01*
X128904761Y-110852380D01*
X128809523Y-110900000D01*
X128761904Y-110947619D01*
X128714285Y-111042857D01*
X128714285Y-111138095D01*
X128761904Y-111233333D01*
X128809523Y-111280952D01*
X128904761Y-111328571D01*
X129238095Y-111328571D01*
X128333333Y-110852380D02*
X127714285Y-110852380D01*
X128047619Y-111233333D01*
X127904761Y-111233333D01*
X127809523Y-111280952D01*
X127761904Y-111328571D01*
X127714285Y-111423809D01*
X127714285Y-111661904D01*
X127761904Y-111757142D01*
X127809523Y-111804761D01*
X127904761Y-111852380D01*
X128190476Y-111852380D01*
X128285714Y-111804761D01*
X128333333Y-111757142D01*
X92566666Y-130902380D02*
X92900000Y-130426190D01*
X93138095Y-130902380D02*
X93138095Y-129902380D01*
X92757142Y-129902380D01*
X92661904Y-129950000D01*
X92614285Y-129997619D01*
X92566666Y-130092857D01*
X92566666Y-130235714D01*
X92614285Y-130330952D01*
X92661904Y-130378571D01*
X92757142Y-130426190D01*
X93138095Y-130426190D01*
X91614285Y-129950000D02*
X91709523Y-129902380D01*
X91852380Y-129902380D01*
X91995238Y-129950000D01*
X92090476Y-130045238D01*
X92138095Y-130140476D01*
X92185714Y-130330952D01*
X92185714Y-130473809D01*
X92138095Y-130664285D01*
X92090476Y-130759523D01*
X91995238Y-130854761D01*
X91852380Y-130902380D01*
X91757142Y-130902380D01*
X91614285Y-130854761D01*
X91566666Y-130807142D01*
X91566666Y-130473809D01*
X91757142Y-130473809D01*
X90804761Y-130378571D02*
X90661904Y-130426190D01*
X90614285Y-130473809D01*
X90566666Y-130569047D01*
X90566666Y-130711904D01*
X90614285Y-130807142D01*
X90661904Y-130854761D01*
X90757142Y-130902380D01*
X91138095Y-130902380D01*
X91138095Y-129902380D01*
X90804761Y-129902380D01*
X90709523Y-129950000D01*
X90661904Y-129997619D01*
X90614285Y-130092857D01*
X90614285Y-130188095D01*
X90661904Y-130283333D01*
X90709523Y-130330952D01*
X90804761Y-130378571D01*
X91138095Y-130378571D01*
X89709523Y-130235714D02*
X89709523Y-130902380D01*
X89947619Y-129854761D02*
X90185714Y-130569047D01*
X89566666Y-130569047D01*
X111616666Y-130902380D02*
X111950000Y-130426190D01*
X112188095Y-130902380D02*
X112188095Y-129902380D01*
X111807142Y-129902380D01*
X111711904Y-129950000D01*
X111664285Y-129997619D01*
X111616666Y-130092857D01*
X111616666Y-130235714D01*
X111664285Y-130330952D01*
X111711904Y-130378571D01*
X111807142Y-130426190D01*
X112188095Y-130426190D01*
X110664285Y-129950000D02*
X110759523Y-129902380D01*
X110902380Y-129902380D01*
X111045238Y-129950000D01*
X111140476Y-130045238D01*
X111188095Y-130140476D01*
X111235714Y-130330952D01*
X111235714Y-130473809D01*
X111188095Y-130664285D01*
X111140476Y-130759523D01*
X111045238Y-130854761D01*
X110902380Y-130902380D01*
X110807142Y-130902380D01*
X110664285Y-130854761D01*
X110616666Y-130807142D01*
X110616666Y-130473809D01*
X110807142Y-130473809D01*
X109854761Y-130378571D02*
X109711904Y-130426190D01*
X109664285Y-130473809D01*
X109616666Y-130569047D01*
X109616666Y-130711904D01*
X109664285Y-130807142D01*
X109711904Y-130854761D01*
X109807142Y-130902380D01*
X110188095Y-130902380D01*
X110188095Y-129902380D01*
X109854761Y-129902380D01*
X109759523Y-129950000D01*
X109711904Y-129997619D01*
X109664285Y-130092857D01*
X109664285Y-130188095D01*
X109711904Y-130283333D01*
X109759523Y-130330952D01*
X109854761Y-130378571D01*
X110188095Y-130378571D01*
X108711904Y-129902380D02*
X109188095Y-129902380D01*
X109235714Y-130378571D01*
X109188095Y-130330952D01*
X109092857Y-130283333D01*
X108854761Y-130283333D01*
X108759523Y-130330952D01*
X108711904Y-130378571D01*
X108664285Y-130473809D01*
X108664285Y-130711904D01*
X108711904Y-130807142D01*
X108759523Y-130854761D01*
X108854761Y-130902380D01*
X109092857Y-130902380D01*
X109188095Y-130854761D01*
X109235714Y-130807142D01*
X130666666Y-130902380D02*
X131000000Y-130426190D01*
X131238095Y-130902380D02*
X131238095Y-129902380D01*
X130857142Y-129902380D01*
X130761904Y-129950000D01*
X130714285Y-129997619D01*
X130666666Y-130092857D01*
X130666666Y-130235714D01*
X130714285Y-130330952D01*
X130761904Y-130378571D01*
X130857142Y-130426190D01*
X131238095Y-130426190D01*
X129714285Y-129950000D02*
X129809523Y-129902380D01*
X129952380Y-129902380D01*
X130095238Y-129950000D01*
X130190476Y-130045238D01*
X130238095Y-130140476D01*
X130285714Y-130330952D01*
X130285714Y-130473809D01*
X130238095Y-130664285D01*
X130190476Y-130759523D01*
X130095238Y-130854761D01*
X129952380Y-130902380D01*
X129857142Y-130902380D01*
X129714285Y-130854761D01*
X129666666Y-130807142D01*
X129666666Y-130473809D01*
X129857142Y-130473809D01*
X128904761Y-130378571D02*
X128761904Y-130426190D01*
X128714285Y-130473809D01*
X128666666Y-130569047D01*
X128666666Y-130711904D01*
X128714285Y-130807142D01*
X128761904Y-130854761D01*
X128857142Y-130902380D01*
X129238095Y-130902380D01*
X129238095Y-129902380D01*
X128904761Y-129902380D01*
X128809523Y-129950000D01*
X128761904Y-129997619D01*
X128714285Y-130092857D01*
X128714285Y-130188095D01*
X128761904Y-130283333D01*
X128809523Y-130330952D01*
X128904761Y-130378571D01*
X129238095Y-130378571D01*
X127809523Y-129902380D02*
X128000000Y-129902380D01*
X128095238Y-129950000D01*
X128142857Y-129997619D01*
X128238095Y-130140476D01*
X128285714Y-130330952D01*
X128285714Y-130711904D01*
X128238095Y-130807142D01*
X128190476Y-130854761D01*
X128095238Y-130902380D01*
X127904761Y-130902380D01*
X127809523Y-130854761D01*
X127761904Y-130807142D01*
X127714285Y-130711904D01*
X127714285Y-130473809D01*
X127761904Y-130378571D01*
X127809523Y-130330952D01*
X127904761Y-130283333D01*
X128095238Y-130283333D01*
X128190476Y-130330952D01*
X128238095Y-130378571D01*
X128285714Y-130473809D01*
X111256666Y-54412380D02*
X111590000Y-53936190D01*
X111828095Y-54412380D02*
X111828095Y-53412380D01*
X111447142Y-53412380D01*
X111351904Y-53460000D01*
X111304285Y-53507619D01*
X111256666Y-53602857D01*
X111256666Y-53745714D01*
X111304285Y-53840952D01*
X111351904Y-53888571D01*
X111447142Y-53936190D01*
X111828095Y-53936190D01*
X110304285Y-53460000D02*
X110399523Y-53412380D01*
X110542380Y-53412380D01*
X110685238Y-53460000D01*
X110780476Y-53555238D01*
X110828095Y-53650476D01*
X110875714Y-53840952D01*
X110875714Y-53983809D01*
X110828095Y-54174285D01*
X110780476Y-54269523D01*
X110685238Y-54364761D01*
X110542380Y-54412380D01*
X110447142Y-54412380D01*
X110304285Y-54364761D01*
X110256666Y-54317142D01*
X110256666Y-53983809D01*
X110447142Y-53983809D01*
X109494761Y-53888571D02*
X109351904Y-53936190D01*
X109304285Y-53983809D01*
X109256666Y-54079047D01*
X109256666Y-54221904D01*
X109304285Y-54317142D01*
X109351904Y-54364761D01*
X109447142Y-54412380D01*
X109828095Y-54412380D01*
X109828095Y-53412380D01*
X109494761Y-53412380D01*
X109399523Y-53460000D01*
X109351904Y-53507619D01*
X109304285Y-53602857D01*
X109304285Y-53698095D01*
X109351904Y-53793333D01*
X109399523Y-53840952D01*
X109494761Y-53888571D01*
X109828095Y-53888571D01*
X108685238Y-53840952D02*
X108780476Y-53793333D01*
X108828095Y-53745714D01*
X108875714Y-53650476D01*
X108875714Y-53602857D01*
X108828095Y-53507619D01*
X108780476Y-53460000D01*
X108685238Y-53412380D01*
X108494761Y-53412380D01*
X108399523Y-53460000D01*
X108351904Y-53507619D01*
X108304285Y-53602857D01*
X108304285Y-53650476D01*
X108351904Y-53745714D01*
X108399523Y-53793333D01*
X108494761Y-53840952D01*
X108685238Y-53840952D01*
X108780476Y-53888571D01*
X108828095Y-53936190D01*
X108875714Y-54031428D01*
X108875714Y-54221904D01*
X108828095Y-54317142D01*
X108780476Y-54364761D01*
X108685238Y-54412380D01*
X108494761Y-54412380D01*
X108399523Y-54364761D01*
X108351904Y-54317142D01*
X108304285Y-54221904D01*
X108304285Y-54031428D01*
X108351904Y-53936190D01*
X108399523Y-53888571D01*
X108494761Y-53840952D01*
X111666666Y-83452380D02*
X112000000Y-82976190D01*
X112238095Y-83452380D02*
X112238095Y-82452380D01*
X111857142Y-82452380D01*
X111761904Y-82500000D01*
X111714285Y-82547619D01*
X111666666Y-82642857D01*
X111666666Y-82785714D01*
X111714285Y-82880952D01*
X111761904Y-82928571D01*
X111857142Y-82976190D01*
X112238095Y-82976190D01*
X110714285Y-82500000D02*
X110809523Y-82452380D01*
X110952380Y-82452380D01*
X111095238Y-82500000D01*
X111190476Y-82595238D01*
X111238095Y-82690476D01*
X111285714Y-82880952D01*
X111285714Y-83023809D01*
X111238095Y-83214285D01*
X111190476Y-83309523D01*
X111095238Y-83404761D01*
X110952380Y-83452380D01*
X110857142Y-83452380D01*
X110714285Y-83404761D01*
X110666666Y-83357142D01*
X110666666Y-83023809D01*
X110857142Y-83023809D01*
X109904761Y-82928571D02*
X109761904Y-82976190D01*
X109714285Y-83023809D01*
X109666666Y-83119047D01*
X109666666Y-83261904D01*
X109714285Y-83357142D01*
X109761904Y-83404761D01*
X109857142Y-83452380D01*
X110238095Y-83452380D01*
X110238095Y-82452380D01*
X109904761Y-82452380D01*
X109809523Y-82500000D01*
X109761904Y-82547619D01*
X109714285Y-82642857D01*
X109714285Y-82738095D01*
X109761904Y-82833333D01*
X109809523Y-82880952D01*
X109904761Y-82928571D01*
X110238095Y-82928571D01*
X109333333Y-82452380D02*
X108666666Y-82452380D01*
X109095238Y-83452380D01*
X113017142Y-67673333D02*
X113064761Y-67625714D01*
X113112380Y-67482857D01*
X113112380Y-67387619D01*
X113064761Y-67244761D01*
X112969523Y-67149523D01*
X112874285Y-67101904D01*
X112683809Y-67054285D01*
X112540952Y-67054285D01*
X112350476Y-67101904D01*
X112255238Y-67149523D01*
X112160000Y-67244761D01*
X112112380Y-67387619D01*
X112112380Y-67482857D01*
X112160000Y-67625714D01*
X112207619Y-67673333D01*
X112207619Y-68054285D02*
X112160000Y-68101904D01*
X112112380Y-68197142D01*
X112112380Y-68435238D01*
X112160000Y-68530476D01*
X112207619Y-68578095D01*
X112302857Y-68625714D01*
X112398095Y-68625714D01*
X112540952Y-68578095D01*
X113112380Y-68006666D01*
X113112380Y-68625714D01*
X108117142Y-67543333D02*
X108164761Y-67495714D01*
X108212380Y-67352857D01*
X108212380Y-67257619D01*
X108164761Y-67114761D01*
X108069523Y-67019523D01*
X107974285Y-66971904D01*
X107783809Y-66924285D01*
X107640952Y-66924285D01*
X107450476Y-66971904D01*
X107355238Y-67019523D01*
X107260000Y-67114761D01*
X107212380Y-67257619D01*
X107212380Y-67352857D01*
X107260000Y-67495714D01*
X107307619Y-67543333D01*
X108212380Y-68495714D02*
X108212380Y-67924285D01*
X108212380Y-68210000D02*
X107212380Y-68210000D01*
X107355238Y-68114761D01*
X107450476Y-68019523D01*
X107498095Y-67924285D01*
X113051428Y-48403571D02*
X112944285Y-48439285D01*
X112765714Y-48439285D01*
X112694285Y-48403571D01*
X112658571Y-48367857D01*
X112622857Y-48296428D01*
X112622857Y-48225000D01*
X112658571Y-48153571D01*
X112694285Y-48117857D01*
X112765714Y-48082142D01*
X112908571Y-48046428D01*
X112980000Y-48010714D01*
X113015714Y-47975000D01*
X113051428Y-47903571D01*
X113051428Y-47832142D01*
X113015714Y-47760714D01*
X112980000Y-47725000D01*
X112908571Y-47689285D01*
X112730000Y-47689285D01*
X112622857Y-47725000D01*
X111908571Y-48439285D02*
X112337142Y-48439285D01*
X112122857Y-48439285D02*
X112122857Y-47689285D01*
X112194285Y-47796428D01*
X112265714Y-47867857D01*
X112337142Y-47903571D01*
X84870000Y-98715000D02*
X84870000Y-99096000D01*
X96300000Y-100620000D02*
X91220000Y-100620000D01*
X87410000Y-96175000D02*
X96300000Y-96175000D01*
X85251000Y-102525000D02*
X84870000Y-102525000D01*
X96300000Y-96175000D02*
X96300000Y-96556000D01*
X96300000Y-99604000D02*
X96300000Y-100620000D01*
X88755838Y-102525000D02*
X87029000Y-102525000D01*
X84870000Y-102144000D02*
X84870000Y-102525000D01*
X91220000Y-100619999D02*
G75*
G03*
X88755838Y-102543960I0J-2540000D01*
G01*
X87410000Y-96175000D02*
G75*
G03*
X84870000Y-98715000I1J-2540001D01*
G01*
X103920000Y-102144000D02*
X103920000Y-102525000D01*
X106460000Y-96175000D02*
X115350000Y-96175000D01*
X103920000Y-98715000D02*
X103920000Y-99096000D01*
X115350000Y-100620000D02*
X110270000Y-100620000D01*
X115350000Y-96175000D02*
X115350000Y-96556000D01*
X104301000Y-102525000D02*
X103920000Y-102525000D01*
X115350000Y-99604000D02*
X115350000Y-100620000D01*
X107805838Y-102525000D02*
X106079000Y-102525000D01*
X110270000Y-100619999D02*
G75*
G03*
X107805838Y-102543960I0J-2540000D01*
G01*
X106460000Y-96175000D02*
G75*
G03*
X103920000Y-98715000I1J-2540001D01*
G01*
X126855838Y-102525000D02*
X125129000Y-102525000D01*
X122970000Y-102144000D02*
X122970000Y-102525000D01*
X125510000Y-96175000D02*
X134400000Y-96175000D01*
X122970000Y-98715000D02*
X122970000Y-99096000D01*
X123351000Y-102525000D02*
X122970000Y-102525000D01*
X134400000Y-100620000D02*
X129320000Y-100620000D01*
X134400000Y-99604000D02*
X134400000Y-100620000D01*
X134400000Y-96175000D02*
X134400000Y-96556000D01*
X129320000Y-100619999D02*
G75*
G03*
X126855838Y-102543960I0J-2540000D01*
G01*
X125510000Y-96175000D02*
G75*
G03*
X122970000Y-98715000I1J-2540001D01*
G01*
X84870000Y-121194000D02*
X84870000Y-121575000D01*
X85251000Y-121575000D02*
X84870000Y-121575000D01*
X84870000Y-117765000D02*
X84870000Y-118146000D01*
X96300000Y-118654000D02*
X96300000Y-119670000D01*
X96300000Y-115225000D02*
X96300000Y-115606000D01*
X87410000Y-115225000D02*
X96300000Y-115225000D01*
X88755838Y-121575000D02*
X87029000Y-121575000D01*
X96300000Y-119670000D02*
X91220000Y-119670000D01*
X91220000Y-119669999D02*
G75*
G03*
X88755838Y-121593960I0J-2540000D01*
G01*
X87410000Y-115225000D02*
G75*
G03*
X84870000Y-117765000I1J-2540001D01*
G01*
X115350000Y-115225000D02*
X115350000Y-115606000D01*
X115350000Y-118654000D02*
X115350000Y-119670000D01*
X103920000Y-117765000D02*
X103920000Y-118146000D01*
X107805838Y-121575000D02*
X106079000Y-121575000D01*
X115350000Y-119670000D02*
X110270000Y-119670000D01*
X104301000Y-121575000D02*
X103920000Y-121575000D01*
X106460000Y-115225000D02*
X115350000Y-115225000D01*
X103920000Y-121194000D02*
X103920000Y-121575000D01*
X106460000Y-115225000D02*
G75*
G03*
X103920000Y-117765000I1J-2540001D01*
G01*
X110270000Y-119669999D02*
G75*
G03*
X107805838Y-121593960I0J-2540000D01*
G01*
X123351000Y-121575000D02*
X122970000Y-121575000D01*
X134400000Y-115225000D02*
X134400000Y-115606000D01*
X134400000Y-118654000D02*
X134400000Y-119670000D01*
X122970000Y-117765000D02*
X122970000Y-118146000D01*
X134400000Y-119670000D02*
X129320000Y-119670000D01*
X122970000Y-121194000D02*
X122970000Y-121575000D01*
X125510000Y-115225000D02*
X134400000Y-115225000D01*
X126855838Y-121575000D02*
X125129000Y-121575000D01*
X125510000Y-115225000D02*
G75*
G03*
X122970000Y-117765000I1J-2540001D01*
G01*
X129320000Y-119669999D02*
G75*
G03*
X126855838Y-121593960I0J-2540000D01*
G01*
G36*
X95420000Y-110139999D02*
G01*
X94520000Y-110139999D01*
X95420000Y-109239999D01*
X95420000Y-110139999D01*
G37*
D11*
X95420000Y-110139999D02*
X94520000Y-110139999D01*
X95420000Y-109239999D01*
X95420000Y-110139999D01*
G36*
X114470000Y-110139999D02*
G01*
X113570000Y-110139999D01*
X114470000Y-109239999D01*
X114470000Y-110139999D01*
G37*
X114470000Y-110139999D02*
X113570000Y-110139999D01*
X114470000Y-109239999D01*
X114470000Y-110139999D01*
G36*
X133520000Y-110139999D02*
G01*
X132620000Y-110139999D01*
X133520000Y-109239999D01*
X133520000Y-110139999D01*
G37*
X133520000Y-110139999D02*
X132620000Y-110139999D01*
X133520000Y-109239999D01*
X133520000Y-110139999D01*
G36*
X95420000Y-129189999D02*
G01*
X94520000Y-129189999D01*
X95420000Y-128289999D01*
X95420000Y-129189999D01*
G37*
X95420000Y-129189999D02*
X94520000Y-129189999D01*
X95420000Y-128289999D01*
X95420000Y-129189999D01*
G36*
X114470000Y-129189999D02*
G01*
X113570000Y-129189999D01*
X114470000Y-128289999D01*
X114470000Y-129189999D01*
G37*
X114470000Y-129189999D02*
X113570000Y-129189999D01*
X114470000Y-128289999D01*
X114470000Y-129189999D01*
G36*
X133520000Y-129189999D02*
G01*
X132620000Y-129189999D01*
X133520000Y-128289999D01*
X133520000Y-129189999D01*
G37*
X133520000Y-129189999D02*
X132620000Y-129189999D01*
X133520000Y-128289999D01*
X133520000Y-129189999D01*
G36*
X106070000Y-56120001D02*
G01*
X106070000Y-55220001D01*
X106970000Y-55220001D01*
X106070000Y-56120001D01*
G37*
X106070000Y-56120001D02*
X106070000Y-55220001D01*
X106970000Y-55220001D01*
X106070000Y-56120001D01*
G36*
X106070000Y-79115001D02*
G01*
X106070000Y-78215001D01*
X106970000Y-78215001D01*
X106070000Y-79115001D01*
G37*
X106070000Y-79115001D02*
X106070000Y-78215001D01*
X106970000Y-78215001D01*
X106070000Y-79115001D01*
D12*
X111350000Y-65820000D02*
X114190000Y-65820000D01*
X112770000Y-70550000D02*
X112770000Y-69860000D01*
X111350000Y-69860000D02*
X111350000Y-65820000D01*
X114190000Y-65820000D02*
X114190000Y-69860000D01*
X114190000Y-69860000D02*
X111350000Y-69860000D01*
X112770000Y-65130000D02*
X112770000Y-65820000D01*
X107790000Y-70520000D02*
X107790000Y-69830000D01*
X106370000Y-69830000D02*
X106370000Y-65790000D01*
X109210000Y-65790000D02*
X109210000Y-69830000D01*
X109210000Y-69830000D02*
X106370000Y-69830000D01*
X106370000Y-65790000D02*
X109210000Y-65790000D01*
X107790000Y-65100000D02*
X107790000Y-65790000D01*
D13*
X110860000Y-50810000D02*
X110860000Y-50810000D01*
X110760000Y-50810000D02*
X110760000Y-50810000D01*
D11*
X112290000Y-50100000D02*
X111290000Y-50100000D01*
X115040000Y-47400000D02*
X110040000Y-47400000D01*
X115690000Y-48500000D02*
X115690000Y-48500000D01*
X109390000Y-49000000D02*
X109390000Y-48500000D01*
X110040000Y-47400000D02*
X115040000Y-47400000D01*
D13*
X110760000Y-50810000D02*
X110760000Y-50810000D01*
D11*
X109390000Y-48500000D02*
X109390000Y-49000000D01*
X111290000Y-50100000D02*
X112290000Y-50100000D01*
X109390000Y-48500000D02*
X109390000Y-48500000D01*
X109390000Y-49000000D02*
X109390000Y-49000000D01*
X115040000Y-47400000D02*
X115040000Y-47400000D01*
X110040000Y-47400000D02*
X110040000Y-47400000D01*
X115690000Y-48500000D02*
X115690000Y-49000000D01*
X115690000Y-49000000D02*
X115690000Y-49000000D01*
X112290000Y-50100000D02*
X112290000Y-50100000D01*
X111290000Y-50100000D02*
X111290000Y-50100000D01*
X115690000Y-49000000D02*
X115690000Y-48500000D01*
D13*
X110760000Y-50810000D02*
G75*
G03*
X110860000Y-50810000I50000J0D01*
G01*
X110860000Y-50810000D02*
G75*
G03*
X110760000Y-50810000I-50000J0D01*
G01*
X110860000Y-50810000D02*
G75*
G03*
X110760000Y-50810000I-50000J0D01*
G01*
D14*
X87340000Y-57510000D03*
D15*
X87340000Y-60050000D03*
X87340000Y-62590000D03*
X87340000Y-65130000D03*
X87340000Y-67670000D03*
X87340000Y-70210000D03*
X87340000Y-72750000D03*
X87340000Y-75290000D03*
X87340000Y-77830000D03*
X87340000Y-80370000D03*
X87340000Y-82910000D03*
X87340000Y-85450000D03*
X102580000Y-85450000D03*
X102580000Y-82910000D03*
X102580000Y-80370000D03*
X102580000Y-77830000D03*
X102580000Y-75290000D03*
X102580000Y-72750000D03*
X102580000Y-70210000D03*
X102580000Y-67670000D03*
X102580000Y-65130000D03*
X102580000Y-62590000D03*
X102580000Y-60050000D03*
X102580000Y-57510000D03*
%LPC*%
D14*
X87340000Y-57510000D03*
D15*
X87340000Y-60050000D03*
X87340000Y-62590000D03*
X87340000Y-65130000D03*
X87340000Y-67670000D03*
X87340000Y-70210000D03*
X87340000Y-72750000D03*
X87340000Y-75290000D03*
X87340000Y-77830000D03*
X87340000Y-80370000D03*
X87340000Y-82910000D03*
X87340000Y-85450000D03*
X102580000Y-85450000D03*
X102580000Y-82910000D03*
X102580000Y-80370000D03*
X102580000Y-77830000D03*
X102580000Y-75290000D03*
X102580000Y-72750000D03*
X102580000Y-70210000D03*
X102580000Y-67670000D03*
X102580000Y-65130000D03*
X102580000Y-62590000D03*
X102580000Y-60050000D03*
X102580000Y-57510000D03*
D16*
X93760000Y-98080000D03*
D17*
X86140000Y-103160000D03*
D16*
X87410000Y-100620000D03*
D18*
X91220000Y-103160000D03*
D17*
X96300000Y-103160000D03*
D19*
X83660000Y-100620000D03*
X97510000Y-98080000D03*
D16*
X106460000Y-100620000D03*
D17*
X115350000Y-103160000D03*
X105190000Y-103160000D03*
D18*
X110270000Y-103160000D03*
D16*
X112810000Y-98080000D03*
D19*
X102710000Y-100620000D03*
X116560000Y-98080000D03*
D17*
X124240000Y-103160000D03*
D16*
X131860000Y-98080000D03*
D17*
X134400000Y-103160000D03*
D16*
X125510000Y-100620000D03*
D18*
X129320000Y-103160000D03*
D19*
X121760000Y-100620000D03*
X135610000Y-98080000D03*
D17*
X86140000Y-122210000D03*
D18*
X91220000Y-122210000D03*
D17*
X96300000Y-122210000D03*
D16*
X93760000Y-117130000D03*
X87410000Y-119670000D03*
D19*
X83660000Y-119670000D03*
X97510000Y-117130000D03*
D17*
X105190000Y-122210000D03*
D16*
X112810000Y-117130000D03*
D18*
X110270000Y-122210000D03*
D17*
X115350000Y-122210000D03*
D16*
X106460000Y-119670000D03*
D19*
X102710000Y-119670000D03*
X116560000Y-117130000D03*
D18*
X129320000Y-122210000D03*
D16*
X131860000Y-117130000D03*
X125510000Y-119670000D03*
D17*
X134400000Y-122210000D03*
X124240000Y-122210000D03*
D19*
X121760000Y-119670000D03*
X135610000Y-117130000D03*
D20*
X107770000Y-75660000D03*
D21*
X112770000Y-75660000D03*
X110270000Y-75660000D03*
D22*
X104970000Y-68160000D03*
X115570000Y-68160000D03*
D21*
X112770000Y-61160000D03*
X107770000Y-61160000D03*
D23*
X88570000Y-107489999D03*
X88570000Y-108989999D03*
X93870000Y-108989999D03*
X93870000Y-107489999D03*
X107620000Y-107489999D03*
X107620000Y-108989999D03*
X112920000Y-108989999D03*
X112920000Y-107489999D03*
X126670000Y-107489999D03*
X126670000Y-108989999D03*
X131970000Y-108989999D03*
X131970000Y-107489999D03*
X88570000Y-126539999D03*
X88570000Y-128039999D03*
X93870000Y-128039999D03*
X93870000Y-126539999D03*
X107620000Y-126539999D03*
X107620000Y-128039999D03*
X112920000Y-128039999D03*
X112920000Y-126539999D03*
X126670000Y-126539999D03*
X126670000Y-128039999D03*
X131970000Y-128039999D03*
X131970000Y-126539999D03*
D24*
X112920000Y-57870001D03*
X112920000Y-56370001D03*
X107620000Y-56370001D03*
X107620000Y-57870001D03*
X112920000Y-80865001D03*
X112920000Y-79365001D03*
X107620000Y-79365001D03*
X107620000Y-80865001D03*
D25*
X84600000Y-112685000D03*
X135940000Y-112685000D03*
X135940000Y-49730000D03*
X84600000Y-49730000D03*
D26*
X106250000Y-48810000D03*
D27*
X103710000Y-48810000D03*
D28*
X118870000Y-50820000D03*
D29*
X118870000Y-48820000D03*
D30*
X112770000Y-64090000D03*
D31*
X112770000Y-71590000D03*
D30*
X107790000Y-71560000D03*
D31*
X107790000Y-64060000D03*
D32*
X114040000Y-48750000D03*
X111040000Y-48750000D03*
D33*
X110240000Y-50750000D03*
X113240000Y-50750000D03*
X114740000Y-50750000D03*
D34*
X116340000Y-47650000D03*
D35*
X108690000Y-47650000D03*
D34*
X116340000Y-49850000D03*
D35*
X108690000Y-49850000D03*
M02*
