M48
; DRILL file {KiCad (6.0.1)} date Sat Feb 26 21:44:42 2022
; FORMAT={-:-/ absolute / metric / decimal}
; #@! TF.CreationDate,2022-02-26T21:44:42+01:00
; #@! TF.GenerationSoftware,Kicad,Pcbnew,(6.0.1)
; #@! TF.FileFunction,NonPlated,1,2,NPTH
FMAT,2
METRIC
; #@! TA.AperFunction,NonPlated,NPTH,ComponentDrill
T1C1.000
; #@! TA.AperFunction,NonPlated,NPTH,ComponentDrill
T2C2.500
%
G90
G05
T1
X84.591Y-96.531
X84.591Y-109.789
X84.591Y-115.581
X84.591Y-128.839
X97.849Y-96.531
X97.849Y-109.789
X97.849Y-115.581
X97.849Y-128.839
X103.641Y-96.531
X103.641Y-109.789
X103.641Y-115.581
X103.641Y-128.839
X104.491Y-61.381
X104.491Y-72.939
X116.049Y-61.381
X116.049Y-72.939
X116.899Y-96.531
X116.899Y-109.789
X116.899Y-115.581
X116.899Y-128.839
X122.691Y-96.531
X122.691Y-109.789
X122.691Y-115.581
X122.691Y-128.839
X135.949Y-96.531
X135.949Y-109.789
X135.949Y-115.581
X135.949Y-128.839
T2
X85.6Y-50.73
X86.22Y-112.685
X134.32Y-112.685
X134.94Y-50.73
T0
M30
