%TF.GenerationSoftware,KiCad,Pcbnew,(5.1.9)-1*%
%TF.CreationDate,2021-11-30T13:34:52+01:00*%
%TF.ProjectId,Little_Big_Scroll_4KEY,4c697474-6c65-45f4-9269-675f5363726f,v1.0*%
%TF.SameCoordinates,Original*%
%TF.FileFunction,Copper,L1,Top*%
%TF.FilePolarity,Positive*%
%FSLAX46Y46*%
G04 Gerber Fmt 4.6, Leading zero omitted, Abs format (unit mm)*
G04 Created by KiCad (PCBNEW (5.1.9)-1) date 2021-11-30 13:34:52*
%MOMM*%
%LPD*%
G01*
G04 APERTURE LIST*
%TA.AperFunction,NonConductor*%
%ADD10C,0.254000*%
%TD*%
%TA.AperFunction,NonConductor*%
%ADD11C,0.100000*%
%TD*%
G04 APERTURE END LIST*
D10*
X221098706Y-92297197D02*
X222803819Y-92526222D01*
X224481811Y-92905913D01*
X226119415Y-93433267D01*
X227703645Y-94104102D01*
X229221976Y-94913112D01*
X230662394Y-95853901D01*
X232013458Y-96918994D01*
X233264504Y-98099984D01*
X234405606Y-99387499D01*
X235427747Y-100771366D01*
X236322816Y-102240608D01*
X237083738Y-103783603D01*
X237704480Y-105388128D01*
X238180136Y-107041486D01*
X238506933Y-108730582D01*
X238682287Y-110442044D01*
X238704806Y-112162299D01*
X238574313Y-113877773D01*
X238291845Y-115574833D01*
X237859634Y-117240073D01*
X237281099Y-118860310D01*
X236560832Y-120422692D01*
X235704526Y-121914864D01*
X234718970Y-123325002D01*
X233611950Y-124641960D01*
X232392253Y-125855287D01*
X231069527Y-126955386D01*
X229654243Y-127933549D01*
X228157614Y-128782025D01*
X226591472Y-129494108D01*
X224968237Y-130064147D01*
X223300765Y-130487631D01*
X221602234Y-130761212D01*
X219875748Y-130883454D01*
X219375715Y-130890000D01*
X156837279Y-130890000D01*
X156739576Y-130880420D01*
X156676643Y-130861420D01*
X156618594Y-130830554D01*
X156567657Y-130789011D01*
X156525752Y-130738356D01*
X156494485Y-130680529D01*
X156475044Y-130617728D01*
X156465000Y-130522165D01*
X156465000Y-114389612D01*
X158616400Y-114389612D01*
X158616400Y-114613188D01*
X158660017Y-114832467D01*
X158745000Y-115037634D01*
X158745001Y-127122364D01*
X158660017Y-127327533D01*
X158616400Y-127546812D01*
X158616400Y-127770388D01*
X158660017Y-127989667D01*
X158745576Y-128196224D01*
X158869788Y-128382120D01*
X158892532Y-128404864D01*
X158943289Y-128466711D01*
X159005136Y-128517468D01*
X159027880Y-128540212D01*
X159213776Y-128664424D01*
X159420333Y-128749983D01*
X159639612Y-128793600D01*
X159863188Y-128793600D01*
X160082467Y-128749983D01*
X160287633Y-128665000D01*
X172372367Y-128665000D01*
X172577533Y-128749983D01*
X172796812Y-128793600D01*
X173020388Y-128793600D01*
X173239667Y-128749983D01*
X173446224Y-128664424D01*
X173632120Y-128540212D01*
X173654864Y-128517468D01*
X173716711Y-128466711D01*
X173767468Y-128404864D01*
X173790212Y-128382120D01*
X173870000Y-128262709D01*
X173870000Y-128300505D01*
X173946282Y-128684003D01*
X174095915Y-129045250D01*
X174313149Y-129370364D01*
X174589636Y-129646851D01*
X174914750Y-129864085D01*
X175275997Y-130013718D01*
X175659495Y-130090000D01*
X176050505Y-130090000D01*
X176434003Y-130013718D01*
X176795250Y-129864085D01*
X177120364Y-129646851D01*
X177396851Y-129370364D01*
X177614085Y-129045250D01*
X177763718Y-128684003D01*
X177840000Y-128300505D01*
X177840000Y-128262709D01*
X177919788Y-128382120D01*
X177942532Y-128404864D01*
X177993289Y-128466711D01*
X178055136Y-128517468D01*
X178077880Y-128540212D01*
X178263776Y-128664424D01*
X178470333Y-128749983D01*
X178689612Y-128793600D01*
X178913188Y-128793600D01*
X179132467Y-128749983D01*
X179337633Y-128665000D01*
X191422367Y-128665000D01*
X191627533Y-128749983D01*
X191846812Y-128793600D01*
X192070388Y-128793600D01*
X192289667Y-128749983D01*
X192496224Y-128664424D01*
X192682120Y-128540212D01*
X192704864Y-128517468D01*
X192766711Y-128466711D01*
X192817468Y-128404864D01*
X192840212Y-128382120D01*
X192964424Y-128196224D01*
X193049983Y-127989667D01*
X193093600Y-127770388D01*
X193093600Y-127546812D01*
X193049983Y-127327533D01*
X192965000Y-127122367D01*
X192965000Y-125215901D01*
X225395000Y-125215901D01*
X225395000Y-125606911D01*
X225471282Y-125990409D01*
X225620915Y-126351656D01*
X225838149Y-126676770D01*
X226114636Y-126953257D01*
X226439750Y-127170491D01*
X226800997Y-127320124D01*
X227184495Y-127396406D01*
X227575505Y-127396406D01*
X227959003Y-127320124D01*
X228320250Y-127170491D01*
X228645364Y-126953257D01*
X228921851Y-126676770D01*
X229139085Y-126351656D01*
X229288718Y-125990409D01*
X229365000Y-125606911D01*
X229365000Y-125215901D01*
X229288718Y-124832403D01*
X229139085Y-124471156D01*
X228921851Y-124146042D01*
X228645364Y-123869555D01*
X228320250Y-123652321D01*
X227959003Y-123502688D01*
X227575505Y-123426406D01*
X227184495Y-123426406D01*
X226800997Y-123502688D01*
X226439750Y-123652321D01*
X226114636Y-123869555D01*
X225838149Y-124146042D01*
X225620915Y-124471156D01*
X225471282Y-124832403D01*
X225395000Y-125215901D01*
X192965000Y-125215901D01*
X192965000Y-115037633D01*
X193049983Y-114832467D01*
X193093600Y-114613188D01*
X193093600Y-114389612D01*
X193049983Y-114170333D01*
X192964424Y-113963776D01*
X192840212Y-113777880D01*
X192817468Y-113755136D01*
X192766711Y-113693289D01*
X192704864Y-113642532D01*
X192682120Y-113619788D01*
X192496224Y-113495576D01*
X192289667Y-113410017D01*
X192070388Y-113366400D01*
X191846812Y-113366400D01*
X191627533Y-113410017D01*
X191422367Y-113495000D01*
X179337633Y-113495000D01*
X179132467Y-113410017D01*
X178913188Y-113366400D01*
X178689612Y-113366400D01*
X178470333Y-113410017D01*
X178263776Y-113495576D01*
X178077880Y-113619788D01*
X178055136Y-113642532D01*
X177993289Y-113693289D01*
X177942532Y-113755136D01*
X177919788Y-113777880D01*
X177795576Y-113963776D01*
X177710017Y-114170333D01*
X177666400Y-114389612D01*
X177666400Y-114613188D01*
X177710017Y-114832467D01*
X177795000Y-115037634D01*
X177795001Y-127122364D01*
X177710017Y-127327533D01*
X177700769Y-127374025D01*
X177614085Y-127164750D01*
X177396851Y-126839636D01*
X177120364Y-126563149D01*
X176795250Y-126345915D01*
X176434003Y-126196282D01*
X176050505Y-126120000D01*
X175659495Y-126120000D01*
X175275997Y-126196282D01*
X174914750Y-126345915D01*
X174589636Y-126563149D01*
X174313149Y-126839636D01*
X174095915Y-127164750D01*
X174009231Y-127374025D01*
X173999983Y-127327533D01*
X173915000Y-127122367D01*
X173915000Y-115037633D01*
X173999983Y-114832467D01*
X174043600Y-114613188D01*
X174043600Y-114389612D01*
X173999983Y-114170333D01*
X173914424Y-113963776D01*
X173790212Y-113777880D01*
X173767468Y-113755136D01*
X173716711Y-113693289D01*
X173654864Y-113642532D01*
X173632120Y-113619788D01*
X173446224Y-113495576D01*
X173239667Y-113410017D01*
X173020388Y-113366400D01*
X172796812Y-113366400D01*
X172577533Y-113410017D01*
X172372367Y-113495000D01*
X160287633Y-113495000D01*
X160082467Y-113410017D01*
X159863188Y-113366400D01*
X159639612Y-113366400D01*
X159420333Y-113410017D01*
X159213776Y-113495576D01*
X159027880Y-113619788D01*
X159005136Y-113642532D01*
X158943289Y-113693289D01*
X158892532Y-113755136D01*
X158869788Y-113777880D01*
X158745576Y-113963776D01*
X158660017Y-114170333D01*
X158616400Y-114389612D01*
X156465000Y-114389612D01*
X156465000Y-95339612D01*
X158616400Y-95339612D01*
X158616400Y-95563188D01*
X158660017Y-95782467D01*
X158745000Y-95987634D01*
X158745001Y-108072364D01*
X158660017Y-108277533D01*
X158616400Y-108496812D01*
X158616400Y-108720388D01*
X158660017Y-108939667D01*
X158745576Y-109146224D01*
X158869788Y-109332120D01*
X158892532Y-109354864D01*
X158943289Y-109416711D01*
X159005136Y-109467468D01*
X159027880Y-109490212D01*
X159213776Y-109614424D01*
X159420333Y-109699983D01*
X159639612Y-109743600D01*
X159863188Y-109743600D01*
X160082467Y-109699983D01*
X160287633Y-109615000D01*
X172372367Y-109615000D01*
X172577533Y-109699983D01*
X172796812Y-109743600D01*
X173020388Y-109743600D01*
X173239667Y-109699983D01*
X173446224Y-109614424D01*
X173632120Y-109490212D01*
X173654864Y-109467468D01*
X173716711Y-109416711D01*
X173767468Y-109354864D01*
X173790212Y-109332120D01*
X173914424Y-109146224D01*
X173999983Y-108939667D01*
X174043600Y-108720388D01*
X174043600Y-108496812D01*
X173999983Y-108277533D01*
X173915000Y-108072367D01*
X173915000Y-95987633D01*
X173999983Y-95782467D01*
X174009231Y-95735975D01*
X174095915Y-95945250D01*
X174313149Y-96270364D01*
X174589636Y-96546851D01*
X174914750Y-96764085D01*
X175275997Y-96913718D01*
X175659495Y-96990000D01*
X176050505Y-96990000D01*
X176434003Y-96913718D01*
X176795250Y-96764085D01*
X177120364Y-96546851D01*
X177396851Y-96270364D01*
X177614085Y-95945250D01*
X177700769Y-95735975D01*
X177710017Y-95782467D01*
X177795000Y-95987634D01*
X177795001Y-108072364D01*
X177710017Y-108277533D01*
X177666400Y-108496812D01*
X177666400Y-108720388D01*
X177710017Y-108939667D01*
X177795576Y-109146224D01*
X177919788Y-109332120D01*
X177942532Y-109354864D01*
X177993289Y-109416711D01*
X178055136Y-109467468D01*
X178077880Y-109490212D01*
X178263776Y-109614424D01*
X178470333Y-109699983D01*
X178689612Y-109743600D01*
X178913188Y-109743600D01*
X179132467Y-109699983D01*
X179337633Y-109615000D01*
X191422367Y-109615000D01*
X191627533Y-109699983D01*
X191846812Y-109743600D01*
X192070388Y-109743600D01*
X192289667Y-109699983D01*
X192496224Y-109614424D01*
X192682120Y-109490212D01*
X192704864Y-109467468D01*
X192766711Y-109416711D01*
X192817468Y-109354864D01*
X192840212Y-109332120D01*
X192964424Y-109146224D01*
X193049983Y-108939667D01*
X193093600Y-108720388D01*
X193093600Y-108496812D01*
X193049983Y-108277533D01*
X192965000Y-108072367D01*
X192965000Y-105664612D01*
X212666400Y-105664612D01*
X212666400Y-105888188D01*
X212710017Y-106107467D01*
X212785000Y-106288492D01*
X212785001Y-116821506D01*
X212710017Y-117002533D01*
X212666400Y-117221812D01*
X212666400Y-117445388D01*
X212710017Y-117664667D01*
X212795576Y-117871224D01*
X212855296Y-117960601D01*
X212899333Y-118042989D01*
X212986183Y-118148817D01*
X213092011Y-118235667D01*
X213174399Y-118279704D01*
X213263776Y-118339424D01*
X213470333Y-118424983D01*
X213689612Y-118468600D01*
X213913188Y-118468600D01*
X214132467Y-118424983D01*
X214313491Y-118350000D01*
X224446509Y-118350000D01*
X224627533Y-118424983D01*
X224846812Y-118468600D01*
X225070388Y-118468600D01*
X225289667Y-118424983D01*
X225496224Y-118339424D01*
X225585601Y-118279704D01*
X225667989Y-118235667D01*
X225773817Y-118148817D01*
X225860667Y-118042989D01*
X225904704Y-117960601D01*
X225964424Y-117871224D01*
X226049983Y-117664667D01*
X226093600Y-117445388D01*
X226093600Y-117221812D01*
X226049983Y-117002533D01*
X225975000Y-116821509D01*
X225975000Y-106288491D01*
X226049983Y-106107467D01*
X226093600Y-105888188D01*
X226093600Y-105664612D01*
X226049983Y-105445333D01*
X225964424Y-105238776D01*
X225904704Y-105149399D01*
X225860667Y-105067011D01*
X225773817Y-104961183D01*
X225667989Y-104874333D01*
X225585601Y-104830296D01*
X225496224Y-104770576D01*
X225289667Y-104685017D01*
X225070388Y-104641400D01*
X224846812Y-104641400D01*
X224627533Y-104685017D01*
X224446509Y-104760000D01*
X214313491Y-104760000D01*
X214132467Y-104685017D01*
X213913188Y-104641400D01*
X213689612Y-104641400D01*
X213470333Y-104685017D01*
X213263776Y-104770576D01*
X213174399Y-104830296D01*
X213092011Y-104874333D01*
X212986183Y-104961183D01*
X212899333Y-105067011D01*
X212855296Y-105149399D01*
X212795576Y-105238776D01*
X212710017Y-105445333D01*
X212666400Y-105664612D01*
X192965000Y-105664612D01*
X192965000Y-97503089D01*
X225395000Y-97503089D01*
X225395000Y-97894099D01*
X225471282Y-98277597D01*
X225620915Y-98638844D01*
X225838149Y-98963958D01*
X226114636Y-99240445D01*
X226439750Y-99457679D01*
X226800997Y-99607312D01*
X227184495Y-99683594D01*
X227575505Y-99683594D01*
X227959003Y-99607312D01*
X228320250Y-99457679D01*
X228645364Y-99240445D01*
X228921851Y-98963958D01*
X229139085Y-98638844D01*
X229288718Y-98277597D01*
X229365000Y-97894099D01*
X229365000Y-97503089D01*
X229288718Y-97119591D01*
X229139085Y-96758344D01*
X228921851Y-96433230D01*
X228645364Y-96156743D01*
X228320250Y-95939509D01*
X227959003Y-95789876D01*
X227575505Y-95713594D01*
X227184495Y-95713594D01*
X226800997Y-95789876D01*
X226439750Y-95939509D01*
X226114636Y-96156743D01*
X225838149Y-96433230D01*
X225620915Y-96758344D01*
X225471282Y-97119591D01*
X225395000Y-97503089D01*
X192965000Y-97503089D01*
X192965000Y-95987633D01*
X193049983Y-95782467D01*
X193093600Y-95563188D01*
X193093600Y-95339612D01*
X193049983Y-95120333D01*
X192964424Y-94913776D01*
X192840212Y-94727880D01*
X192817468Y-94705136D01*
X192766711Y-94643289D01*
X192704864Y-94592532D01*
X192682120Y-94569788D01*
X192496224Y-94445576D01*
X192289667Y-94360017D01*
X192070388Y-94316400D01*
X191846812Y-94316400D01*
X191627533Y-94360017D01*
X191422367Y-94445000D01*
X179337633Y-94445000D01*
X179132467Y-94360017D01*
X178913188Y-94316400D01*
X178689612Y-94316400D01*
X178470333Y-94360017D01*
X178263776Y-94445576D01*
X178077880Y-94569788D01*
X178055136Y-94592532D01*
X177993289Y-94643289D01*
X177942532Y-94705136D01*
X177919788Y-94727880D01*
X177840000Y-94847291D01*
X177840000Y-94809495D01*
X177763718Y-94425997D01*
X177614085Y-94064750D01*
X177396851Y-93739636D01*
X177120364Y-93463149D01*
X176795250Y-93245915D01*
X176434003Y-93096282D01*
X176050505Y-93020000D01*
X175659495Y-93020000D01*
X175275997Y-93096282D01*
X174914750Y-93245915D01*
X174589636Y-93463149D01*
X174313149Y-93739636D01*
X174095915Y-94064750D01*
X173946282Y-94425997D01*
X173870000Y-94809495D01*
X173870000Y-94847291D01*
X173790212Y-94727880D01*
X173767468Y-94705136D01*
X173716711Y-94643289D01*
X173654864Y-94592532D01*
X173632120Y-94569788D01*
X173446224Y-94445576D01*
X173239667Y-94360017D01*
X173020388Y-94316400D01*
X172796812Y-94316400D01*
X172577533Y-94360017D01*
X172372367Y-94445000D01*
X160287633Y-94445000D01*
X160082467Y-94360017D01*
X159863188Y-94316400D01*
X159639612Y-94316400D01*
X159420333Y-94360017D01*
X159213776Y-94445576D01*
X159027880Y-94569788D01*
X159005136Y-94592532D01*
X158943289Y-94643289D01*
X158892532Y-94705136D01*
X158869788Y-94727880D01*
X158745576Y-94913776D01*
X158660017Y-95120333D01*
X158616400Y-95339612D01*
X156465000Y-95339612D01*
X156465000Y-92592279D01*
X156474580Y-92494576D01*
X156493580Y-92431644D01*
X156524445Y-92373595D01*
X156565989Y-92322657D01*
X156616644Y-92280752D01*
X156674471Y-92249485D01*
X156737272Y-92230044D01*
X156832835Y-92220000D01*
X219365321Y-92220000D01*
X221098706Y-92297197D01*
%TA.AperFunction,NonConductor*%
D11*
G36*
X221098706Y-92297197D02*
G01*
X222803819Y-92526222D01*
X224481811Y-92905913D01*
X226119415Y-93433267D01*
X227703645Y-94104102D01*
X229221976Y-94913112D01*
X230662394Y-95853901D01*
X232013458Y-96918994D01*
X233264504Y-98099984D01*
X234405606Y-99387499D01*
X235427747Y-100771366D01*
X236322816Y-102240608D01*
X237083738Y-103783603D01*
X237704480Y-105388128D01*
X238180136Y-107041486D01*
X238506933Y-108730582D01*
X238682287Y-110442044D01*
X238704806Y-112162299D01*
X238574313Y-113877773D01*
X238291845Y-115574833D01*
X237859634Y-117240073D01*
X237281099Y-118860310D01*
X236560832Y-120422692D01*
X235704526Y-121914864D01*
X234718970Y-123325002D01*
X233611950Y-124641960D01*
X232392253Y-125855287D01*
X231069527Y-126955386D01*
X229654243Y-127933549D01*
X228157614Y-128782025D01*
X226591472Y-129494108D01*
X224968237Y-130064147D01*
X223300765Y-130487631D01*
X221602234Y-130761212D01*
X219875748Y-130883454D01*
X219375715Y-130890000D01*
X156837279Y-130890000D01*
X156739576Y-130880420D01*
X156676643Y-130861420D01*
X156618594Y-130830554D01*
X156567657Y-130789011D01*
X156525752Y-130738356D01*
X156494485Y-130680529D01*
X156475044Y-130617728D01*
X156465000Y-130522165D01*
X156465000Y-114389612D01*
X158616400Y-114389612D01*
X158616400Y-114613188D01*
X158660017Y-114832467D01*
X158745000Y-115037634D01*
X158745001Y-127122364D01*
X158660017Y-127327533D01*
X158616400Y-127546812D01*
X158616400Y-127770388D01*
X158660017Y-127989667D01*
X158745576Y-128196224D01*
X158869788Y-128382120D01*
X158892532Y-128404864D01*
X158943289Y-128466711D01*
X159005136Y-128517468D01*
X159027880Y-128540212D01*
X159213776Y-128664424D01*
X159420333Y-128749983D01*
X159639612Y-128793600D01*
X159863188Y-128793600D01*
X160082467Y-128749983D01*
X160287633Y-128665000D01*
X172372367Y-128665000D01*
X172577533Y-128749983D01*
X172796812Y-128793600D01*
X173020388Y-128793600D01*
X173239667Y-128749983D01*
X173446224Y-128664424D01*
X173632120Y-128540212D01*
X173654864Y-128517468D01*
X173716711Y-128466711D01*
X173767468Y-128404864D01*
X173790212Y-128382120D01*
X173870000Y-128262709D01*
X173870000Y-128300505D01*
X173946282Y-128684003D01*
X174095915Y-129045250D01*
X174313149Y-129370364D01*
X174589636Y-129646851D01*
X174914750Y-129864085D01*
X175275997Y-130013718D01*
X175659495Y-130090000D01*
X176050505Y-130090000D01*
X176434003Y-130013718D01*
X176795250Y-129864085D01*
X177120364Y-129646851D01*
X177396851Y-129370364D01*
X177614085Y-129045250D01*
X177763718Y-128684003D01*
X177840000Y-128300505D01*
X177840000Y-128262709D01*
X177919788Y-128382120D01*
X177942532Y-128404864D01*
X177993289Y-128466711D01*
X178055136Y-128517468D01*
X178077880Y-128540212D01*
X178263776Y-128664424D01*
X178470333Y-128749983D01*
X178689612Y-128793600D01*
X178913188Y-128793600D01*
X179132467Y-128749983D01*
X179337633Y-128665000D01*
X191422367Y-128665000D01*
X191627533Y-128749983D01*
X191846812Y-128793600D01*
X192070388Y-128793600D01*
X192289667Y-128749983D01*
X192496224Y-128664424D01*
X192682120Y-128540212D01*
X192704864Y-128517468D01*
X192766711Y-128466711D01*
X192817468Y-128404864D01*
X192840212Y-128382120D01*
X192964424Y-128196224D01*
X193049983Y-127989667D01*
X193093600Y-127770388D01*
X193093600Y-127546812D01*
X193049983Y-127327533D01*
X192965000Y-127122367D01*
X192965000Y-125215901D01*
X225395000Y-125215901D01*
X225395000Y-125606911D01*
X225471282Y-125990409D01*
X225620915Y-126351656D01*
X225838149Y-126676770D01*
X226114636Y-126953257D01*
X226439750Y-127170491D01*
X226800997Y-127320124D01*
X227184495Y-127396406D01*
X227575505Y-127396406D01*
X227959003Y-127320124D01*
X228320250Y-127170491D01*
X228645364Y-126953257D01*
X228921851Y-126676770D01*
X229139085Y-126351656D01*
X229288718Y-125990409D01*
X229365000Y-125606911D01*
X229365000Y-125215901D01*
X229288718Y-124832403D01*
X229139085Y-124471156D01*
X228921851Y-124146042D01*
X228645364Y-123869555D01*
X228320250Y-123652321D01*
X227959003Y-123502688D01*
X227575505Y-123426406D01*
X227184495Y-123426406D01*
X226800997Y-123502688D01*
X226439750Y-123652321D01*
X226114636Y-123869555D01*
X225838149Y-124146042D01*
X225620915Y-124471156D01*
X225471282Y-124832403D01*
X225395000Y-125215901D01*
X192965000Y-125215901D01*
X192965000Y-115037633D01*
X193049983Y-114832467D01*
X193093600Y-114613188D01*
X193093600Y-114389612D01*
X193049983Y-114170333D01*
X192964424Y-113963776D01*
X192840212Y-113777880D01*
X192817468Y-113755136D01*
X192766711Y-113693289D01*
X192704864Y-113642532D01*
X192682120Y-113619788D01*
X192496224Y-113495576D01*
X192289667Y-113410017D01*
X192070388Y-113366400D01*
X191846812Y-113366400D01*
X191627533Y-113410017D01*
X191422367Y-113495000D01*
X179337633Y-113495000D01*
X179132467Y-113410017D01*
X178913188Y-113366400D01*
X178689612Y-113366400D01*
X178470333Y-113410017D01*
X178263776Y-113495576D01*
X178077880Y-113619788D01*
X178055136Y-113642532D01*
X177993289Y-113693289D01*
X177942532Y-113755136D01*
X177919788Y-113777880D01*
X177795576Y-113963776D01*
X177710017Y-114170333D01*
X177666400Y-114389612D01*
X177666400Y-114613188D01*
X177710017Y-114832467D01*
X177795000Y-115037634D01*
X177795001Y-127122364D01*
X177710017Y-127327533D01*
X177700769Y-127374025D01*
X177614085Y-127164750D01*
X177396851Y-126839636D01*
X177120364Y-126563149D01*
X176795250Y-126345915D01*
X176434003Y-126196282D01*
X176050505Y-126120000D01*
X175659495Y-126120000D01*
X175275997Y-126196282D01*
X174914750Y-126345915D01*
X174589636Y-126563149D01*
X174313149Y-126839636D01*
X174095915Y-127164750D01*
X174009231Y-127374025D01*
X173999983Y-127327533D01*
X173915000Y-127122367D01*
X173915000Y-115037633D01*
X173999983Y-114832467D01*
X174043600Y-114613188D01*
X174043600Y-114389612D01*
X173999983Y-114170333D01*
X173914424Y-113963776D01*
X173790212Y-113777880D01*
X173767468Y-113755136D01*
X173716711Y-113693289D01*
X173654864Y-113642532D01*
X173632120Y-113619788D01*
X173446224Y-113495576D01*
X173239667Y-113410017D01*
X173020388Y-113366400D01*
X172796812Y-113366400D01*
X172577533Y-113410017D01*
X172372367Y-113495000D01*
X160287633Y-113495000D01*
X160082467Y-113410017D01*
X159863188Y-113366400D01*
X159639612Y-113366400D01*
X159420333Y-113410017D01*
X159213776Y-113495576D01*
X159027880Y-113619788D01*
X159005136Y-113642532D01*
X158943289Y-113693289D01*
X158892532Y-113755136D01*
X158869788Y-113777880D01*
X158745576Y-113963776D01*
X158660017Y-114170333D01*
X158616400Y-114389612D01*
X156465000Y-114389612D01*
X156465000Y-95339612D01*
X158616400Y-95339612D01*
X158616400Y-95563188D01*
X158660017Y-95782467D01*
X158745000Y-95987634D01*
X158745001Y-108072364D01*
X158660017Y-108277533D01*
X158616400Y-108496812D01*
X158616400Y-108720388D01*
X158660017Y-108939667D01*
X158745576Y-109146224D01*
X158869788Y-109332120D01*
X158892532Y-109354864D01*
X158943289Y-109416711D01*
X159005136Y-109467468D01*
X159027880Y-109490212D01*
X159213776Y-109614424D01*
X159420333Y-109699983D01*
X159639612Y-109743600D01*
X159863188Y-109743600D01*
X160082467Y-109699983D01*
X160287633Y-109615000D01*
X172372367Y-109615000D01*
X172577533Y-109699983D01*
X172796812Y-109743600D01*
X173020388Y-109743600D01*
X173239667Y-109699983D01*
X173446224Y-109614424D01*
X173632120Y-109490212D01*
X173654864Y-109467468D01*
X173716711Y-109416711D01*
X173767468Y-109354864D01*
X173790212Y-109332120D01*
X173914424Y-109146224D01*
X173999983Y-108939667D01*
X174043600Y-108720388D01*
X174043600Y-108496812D01*
X173999983Y-108277533D01*
X173915000Y-108072367D01*
X173915000Y-95987633D01*
X173999983Y-95782467D01*
X174009231Y-95735975D01*
X174095915Y-95945250D01*
X174313149Y-96270364D01*
X174589636Y-96546851D01*
X174914750Y-96764085D01*
X175275997Y-96913718D01*
X175659495Y-96990000D01*
X176050505Y-96990000D01*
X176434003Y-96913718D01*
X176795250Y-96764085D01*
X177120364Y-96546851D01*
X177396851Y-96270364D01*
X177614085Y-95945250D01*
X177700769Y-95735975D01*
X177710017Y-95782467D01*
X177795000Y-95987634D01*
X177795001Y-108072364D01*
X177710017Y-108277533D01*
X177666400Y-108496812D01*
X177666400Y-108720388D01*
X177710017Y-108939667D01*
X177795576Y-109146224D01*
X177919788Y-109332120D01*
X177942532Y-109354864D01*
X177993289Y-109416711D01*
X178055136Y-109467468D01*
X178077880Y-109490212D01*
X178263776Y-109614424D01*
X178470333Y-109699983D01*
X178689612Y-109743600D01*
X178913188Y-109743600D01*
X179132467Y-109699983D01*
X179337633Y-109615000D01*
X191422367Y-109615000D01*
X191627533Y-109699983D01*
X191846812Y-109743600D01*
X192070388Y-109743600D01*
X192289667Y-109699983D01*
X192496224Y-109614424D01*
X192682120Y-109490212D01*
X192704864Y-109467468D01*
X192766711Y-109416711D01*
X192817468Y-109354864D01*
X192840212Y-109332120D01*
X192964424Y-109146224D01*
X193049983Y-108939667D01*
X193093600Y-108720388D01*
X193093600Y-108496812D01*
X193049983Y-108277533D01*
X192965000Y-108072367D01*
X192965000Y-105664612D01*
X212666400Y-105664612D01*
X212666400Y-105888188D01*
X212710017Y-106107467D01*
X212785000Y-106288492D01*
X212785001Y-116821506D01*
X212710017Y-117002533D01*
X212666400Y-117221812D01*
X212666400Y-117445388D01*
X212710017Y-117664667D01*
X212795576Y-117871224D01*
X212855296Y-117960601D01*
X212899333Y-118042989D01*
X212986183Y-118148817D01*
X213092011Y-118235667D01*
X213174399Y-118279704D01*
X213263776Y-118339424D01*
X213470333Y-118424983D01*
X213689612Y-118468600D01*
X213913188Y-118468600D01*
X214132467Y-118424983D01*
X214313491Y-118350000D01*
X224446509Y-118350000D01*
X224627533Y-118424983D01*
X224846812Y-118468600D01*
X225070388Y-118468600D01*
X225289667Y-118424983D01*
X225496224Y-118339424D01*
X225585601Y-118279704D01*
X225667989Y-118235667D01*
X225773817Y-118148817D01*
X225860667Y-118042989D01*
X225904704Y-117960601D01*
X225964424Y-117871224D01*
X226049983Y-117664667D01*
X226093600Y-117445388D01*
X226093600Y-117221812D01*
X226049983Y-117002533D01*
X225975000Y-116821509D01*
X225975000Y-106288491D01*
X226049983Y-106107467D01*
X226093600Y-105888188D01*
X226093600Y-105664612D01*
X226049983Y-105445333D01*
X225964424Y-105238776D01*
X225904704Y-105149399D01*
X225860667Y-105067011D01*
X225773817Y-104961183D01*
X225667989Y-104874333D01*
X225585601Y-104830296D01*
X225496224Y-104770576D01*
X225289667Y-104685017D01*
X225070388Y-104641400D01*
X224846812Y-104641400D01*
X224627533Y-104685017D01*
X224446509Y-104760000D01*
X214313491Y-104760000D01*
X214132467Y-104685017D01*
X213913188Y-104641400D01*
X213689612Y-104641400D01*
X213470333Y-104685017D01*
X213263776Y-104770576D01*
X213174399Y-104830296D01*
X213092011Y-104874333D01*
X212986183Y-104961183D01*
X212899333Y-105067011D01*
X212855296Y-105149399D01*
X212795576Y-105238776D01*
X212710017Y-105445333D01*
X212666400Y-105664612D01*
X192965000Y-105664612D01*
X192965000Y-97503089D01*
X225395000Y-97503089D01*
X225395000Y-97894099D01*
X225471282Y-98277597D01*
X225620915Y-98638844D01*
X225838149Y-98963958D01*
X226114636Y-99240445D01*
X226439750Y-99457679D01*
X226800997Y-99607312D01*
X227184495Y-99683594D01*
X227575505Y-99683594D01*
X227959003Y-99607312D01*
X228320250Y-99457679D01*
X228645364Y-99240445D01*
X228921851Y-98963958D01*
X229139085Y-98638844D01*
X229288718Y-98277597D01*
X229365000Y-97894099D01*
X229365000Y-97503089D01*
X229288718Y-97119591D01*
X229139085Y-96758344D01*
X228921851Y-96433230D01*
X228645364Y-96156743D01*
X228320250Y-95939509D01*
X227959003Y-95789876D01*
X227575505Y-95713594D01*
X227184495Y-95713594D01*
X226800997Y-95789876D01*
X226439750Y-95939509D01*
X226114636Y-96156743D01*
X225838149Y-96433230D01*
X225620915Y-96758344D01*
X225471282Y-97119591D01*
X225395000Y-97503089D01*
X192965000Y-97503089D01*
X192965000Y-95987633D01*
X193049983Y-95782467D01*
X193093600Y-95563188D01*
X193093600Y-95339612D01*
X193049983Y-95120333D01*
X192964424Y-94913776D01*
X192840212Y-94727880D01*
X192817468Y-94705136D01*
X192766711Y-94643289D01*
X192704864Y-94592532D01*
X192682120Y-94569788D01*
X192496224Y-94445576D01*
X192289667Y-94360017D01*
X192070388Y-94316400D01*
X191846812Y-94316400D01*
X191627533Y-94360017D01*
X191422367Y-94445000D01*
X179337633Y-94445000D01*
X179132467Y-94360017D01*
X178913188Y-94316400D01*
X178689612Y-94316400D01*
X178470333Y-94360017D01*
X178263776Y-94445576D01*
X178077880Y-94569788D01*
X178055136Y-94592532D01*
X177993289Y-94643289D01*
X177942532Y-94705136D01*
X177919788Y-94727880D01*
X177840000Y-94847291D01*
X177840000Y-94809495D01*
X177763718Y-94425997D01*
X177614085Y-94064750D01*
X177396851Y-93739636D01*
X177120364Y-93463149D01*
X176795250Y-93245915D01*
X176434003Y-93096282D01*
X176050505Y-93020000D01*
X175659495Y-93020000D01*
X175275997Y-93096282D01*
X174914750Y-93245915D01*
X174589636Y-93463149D01*
X174313149Y-93739636D01*
X174095915Y-94064750D01*
X173946282Y-94425997D01*
X173870000Y-94809495D01*
X173870000Y-94847291D01*
X173790212Y-94727880D01*
X173767468Y-94705136D01*
X173716711Y-94643289D01*
X173654864Y-94592532D01*
X173632120Y-94569788D01*
X173446224Y-94445576D01*
X173239667Y-94360017D01*
X173020388Y-94316400D01*
X172796812Y-94316400D01*
X172577533Y-94360017D01*
X172372367Y-94445000D01*
X160287633Y-94445000D01*
X160082467Y-94360017D01*
X159863188Y-94316400D01*
X159639612Y-94316400D01*
X159420333Y-94360017D01*
X159213776Y-94445576D01*
X159027880Y-94569788D01*
X159005136Y-94592532D01*
X158943289Y-94643289D01*
X158892532Y-94705136D01*
X158869788Y-94727880D01*
X158745576Y-94913776D01*
X158660017Y-95120333D01*
X158616400Y-95339612D01*
X156465000Y-95339612D01*
X156465000Y-92592279D01*
X156474580Y-92494576D01*
X156493580Y-92431644D01*
X156524445Y-92373595D01*
X156565989Y-92322657D01*
X156616644Y-92280752D01*
X156674471Y-92249485D01*
X156737272Y-92230044D01*
X156832835Y-92220000D01*
X219365321Y-92220000D01*
X221098706Y-92297197D01*
G37*
%TD.AperFunction*%
M02*
