%TF.GenerationSoftware,KiCad,Pcbnew,(5.1.9)-1*%
%TF.CreationDate,2021-11-30T13:31:35+01:00*%
%TF.ProjectId,Little_Big_Scroll,4c697474-6c65-45f4-9269-675f5363726f,v1.0*%
%TF.SameCoordinates,Original*%
%TF.FileFunction,Paste,Bot*%
%TF.FilePolarity,Positive*%
%FSLAX46Y46*%
G04 Gerber Fmt 4.6, Leading zero omitted, Abs format (unit mm)*
G04 Created by KiCad (PCBNEW (5.1.9)-1) date 2021-11-30 13:31:35*
%MOMM*%
%LPD*%
G01*
G04 APERTURE LIST*
%ADD10R,2.550000X2.500000*%
G04 APERTURE END LIST*
D10*
X177820000Y-118540000D03*
X191670000Y-116000000D03*
X158770000Y-118540000D03*
X172620000Y-116000000D03*
X177820000Y-99490000D03*
X191670000Y-96950000D03*
X158770000Y-99490000D03*
X172620000Y-96950000D03*
G36*
G01*
X221262000Y-123499999D02*
X222698000Y-123499999D01*
G75*
G02*
X222780000Y-123581999I0J-82000D01*
G01*
X222780000Y-124237999D01*
G75*
G02*
X222698000Y-124319999I-82000J0D01*
G01*
X221262000Y-124319999D01*
G75*
G02*
X221180000Y-124237999I0J82000D01*
G01*
X221180000Y-123581999D01*
G75*
G02*
X221262000Y-123499999I82000J0D01*
G01*
G37*
G36*
G01*
X221262000Y-121999999D02*
X222698000Y-121999999D01*
G75*
G02*
X222780000Y-122081999I0J-82000D01*
G01*
X222780000Y-122737999D01*
G75*
G02*
X222698000Y-122819999I-82000J0D01*
G01*
X221262000Y-122819999D01*
G75*
G02*
X221180000Y-122737999I0J82000D01*
G01*
X221180000Y-122081999D01*
G75*
G02*
X221262000Y-121999999I82000J0D01*
G01*
G37*
G36*
G01*
X216062000Y-123499999D02*
X217498000Y-123499999D01*
G75*
G02*
X217580000Y-123581999I0J-82000D01*
G01*
X217580000Y-124237999D01*
G75*
G02*
X217498000Y-124319999I-82000J0D01*
G01*
X216062000Y-124319999D01*
G75*
G02*
X215980000Y-124237999I0J82000D01*
G01*
X215980000Y-123581999D01*
G75*
G02*
X216062000Y-123499999I82000J0D01*
G01*
G37*
G36*
G01*
X216062000Y-121999999D02*
X217498000Y-121999999D01*
G75*
G02*
X217580000Y-122081999I0J-82000D01*
G01*
X217580000Y-122737999D01*
G75*
G02*
X217498000Y-122819999I-82000J0D01*
G01*
X216062000Y-122819999D01*
G75*
G02*
X215980000Y-122737999I0J82000D01*
G01*
X215980000Y-122081999D01*
G75*
G02*
X216062000Y-121999999I82000J0D01*
G01*
G37*
G36*
G01*
X221262000Y-100424999D02*
X222698000Y-100424999D01*
G75*
G02*
X222780000Y-100506999I0J-82000D01*
G01*
X222780000Y-101162999D01*
G75*
G02*
X222698000Y-101244999I-82000J0D01*
G01*
X221262000Y-101244999D01*
G75*
G02*
X221180000Y-101162999I0J82000D01*
G01*
X221180000Y-100506999D01*
G75*
G02*
X221262000Y-100424999I82000J0D01*
G01*
G37*
G36*
G01*
X221262000Y-98924999D02*
X222698000Y-98924999D01*
G75*
G02*
X222780000Y-99006999I0J-82000D01*
G01*
X222780000Y-99662999D01*
G75*
G02*
X222698000Y-99744999I-82000J0D01*
G01*
X221262000Y-99744999D01*
G75*
G02*
X221180000Y-99662999I0J82000D01*
G01*
X221180000Y-99006999D01*
G75*
G02*
X221262000Y-98924999I82000J0D01*
G01*
G37*
G36*
G01*
X216062000Y-100424999D02*
X217498000Y-100424999D01*
G75*
G02*
X217580000Y-100506999I0J-82000D01*
G01*
X217580000Y-101162999D01*
G75*
G02*
X217498000Y-101244999I-82000J0D01*
G01*
X216062000Y-101244999D01*
G75*
G02*
X215980000Y-101162999I0J82000D01*
G01*
X215980000Y-100506999D01*
G75*
G02*
X216062000Y-100424999I82000J0D01*
G01*
G37*
G36*
G01*
X216062000Y-98924999D02*
X217498000Y-98924999D01*
G75*
G02*
X217580000Y-99006999I0J-82000D01*
G01*
X217580000Y-99662999D01*
G75*
G02*
X217498000Y-99744999I-82000J0D01*
G01*
X216062000Y-99744999D01*
G75*
G02*
X215980000Y-99662999I0J82000D01*
G01*
X215980000Y-99006999D01*
G75*
G02*
X216062000Y-98924999I82000J0D01*
G01*
G37*
G36*
G01*
X187262000Y-126499999D02*
X188698000Y-126499999D01*
G75*
G02*
X188780000Y-126581999I0J-82000D01*
G01*
X188780000Y-127237999D01*
G75*
G02*
X188698000Y-127319999I-82000J0D01*
G01*
X187262000Y-127319999D01*
G75*
G02*
X187180000Y-127237999I0J82000D01*
G01*
X187180000Y-126581999D01*
G75*
G02*
X187262000Y-126499999I82000J0D01*
G01*
G37*
G36*
G01*
X187262000Y-124999999D02*
X188698000Y-124999999D01*
G75*
G02*
X188780000Y-125081999I0J-82000D01*
G01*
X188780000Y-125737999D01*
G75*
G02*
X188698000Y-125819999I-82000J0D01*
G01*
X187262000Y-125819999D01*
G75*
G02*
X187180000Y-125737999I0J82000D01*
G01*
X187180000Y-125081999D01*
G75*
G02*
X187262000Y-124999999I82000J0D01*
G01*
G37*
G36*
G01*
X182062000Y-126499999D02*
X183498000Y-126499999D01*
G75*
G02*
X183580000Y-126581999I0J-82000D01*
G01*
X183580000Y-127237999D01*
G75*
G02*
X183498000Y-127319999I-82000J0D01*
G01*
X182062000Y-127319999D01*
G75*
G02*
X181980000Y-127237999I0J82000D01*
G01*
X181980000Y-126581999D01*
G75*
G02*
X182062000Y-126499999I82000J0D01*
G01*
G37*
G36*
G01*
X182062000Y-124999999D02*
X183498000Y-124999999D01*
G75*
G02*
X183580000Y-125081999I0J-82000D01*
G01*
X183580000Y-125737999D01*
G75*
G02*
X183498000Y-125819999I-82000J0D01*
G01*
X182062000Y-125819999D01*
G75*
G02*
X181980000Y-125737999I0J82000D01*
G01*
X181980000Y-125081999D01*
G75*
G02*
X182062000Y-124999999I82000J0D01*
G01*
G37*
G36*
G01*
X168212000Y-126499999D02*
X169648000Y-126499999D01*
G75*
G02*
X169730000Y-126581999I0J-82000D01*
G01*
X169730000Y-127237999D01*
G75*
G02*
X169648000Y-127319999I-82000J0D01*
G01*
X168212000Y-127319999D01*
G75*
G02*
X168130000Y-127237999I0J82000D01*
G01*
X168130000Y-126581999D01*
G75*
G02*
X168212000Y-126499999I82000J0D01*
G01*
G37*
G36*
G01*
X168212000Y-124999999D02*
X169648000Y-124999999D01*
G75*
G02*
X169730000Y-125081999I0J-82000D01*
G01*
X169730000Y-125737999D01*
G75*
G02*
X169648000Y-125819999I-82000J0D01*
G01*
X168212000Y-125819999D01*
G75*
G02*
X168130000Y-125737999I0J82000D01*
G01*
X168130000Y-125081999D01*
G75*
G02*
X168212000Y-124999999I82000J0D01*
G01*
G37*
G36*
G01*
X163012000Y-126499999D02*
X164448000Y-126499999D01*
G75*
G02*
X164530000Y-126581999I0J-82000D01*
G01*
X164530000Y-127237999D01*
G75*
G02*
X164448000Y-127319999I-82000J0D01*
G01*
X163012000Y-127319999D01*
G75*
G02*
X162930000Y-127237999I0J82000D01*
G01*
X162930000Y-126581999D01*
G75*
G02*
X163012000Y-126499999I82000J0D01*
G01*
G37*
G36*
G01*
X163012000Y-124999999D02*
X164448000Y-124999999D01*
G75*
G02*
X164530000Y-125081999I0J-82000D01*
G01*
X164530000Y-125737999D01*
G75*
G02*
X164448000Y-125819999I-82000J0D01*
G01*
X163012000Y-125819999D01*
G75*
G02*
X162930000Y-125737999I0J82000D01*
G01*
X162930000Y-125081999D01*
G75*
G02*
X163012000Y-124999999I82000J0D01*
G01*
G37*
G36*
G01*
X168212000Y-107449999D02*
X169648000Y-107449999D01*
G75*
G02*
X169730000Y-107531999I0J-82000D01*
G01*
X169730000Y-108187999D01*
G75*
G02*
X169648000Y-108269999I-82000J0D01*
G01*
X168212000Y-108269999D01*
G75*
G02*
X168130000Y-108187999I0J82000D01*
G01*
X168130000Y-107531999D01*
G75*
G02*
X168212000Y-107449999I82000J0D01*
G01*
G37*
G36*
G01*
X168212000Y-105949999D02*
X169648000Y-105949999D01*
G75*
G02*
X169730000Y-106031999I0J-82000D01*
G01*
X169730000Y-106687999D01*
G75*
G02*
X169648000Y-106769999I-82000J0D01*
G01*
X168212000Y-106769999D01*
G75*
G02*
X168130000Y-106687999I0J82000D01*
G01*
X168130000Y-106031999D01*
G75*
G02*
X168212000Y-105949999I82000J0D01*
G01*
G37*
G36*
G01*
X163012000Y-107449999D02*
X164448000Y-107449999D01*
G75*
G02*
X164530000Y-107531999I0J-82000D01*
G01*
X164530000Y-108187999D01*
G75*
G02*
X164448000Y-108269999I-82000J0D01*
G01*
X163012000Y-108269999D01*
G75*
G02*
X162930000Y-108187999I0J82000D01*
G01*
X162930000Y-107531999D01*
G75*
G02*
X163012000Y-107449999I82000J0D01*
G01*
G37*
G36*
G01*
X163012000Y-105949999D02*
X164448000Y-105949999D01*
G75*
G02*
X164530000Y-106031999I0J-82000D01*
G01*
X164530000Y-106687999D01*
G75*
G02*
X164448000Y-106769999I-82000J0D01*
G01*
X163012000Y-106769999D01*
G75*
G02*
X162930000Y-106687999I0J82000D01*
G01*
X162930000Y-106031999D01*
G75*
G02*
X163012000Y-105949999I82000J0D01*
G01*
G37*
G36*
G01*
X187262000Y-107449999D02*
X188698000Y-107449999D01*
G75*
G02*
X188780000Y-107531999I0J-82000D01*
G01*
X188780000Y-108187999D01*
G75*
G02*
X188698000Y-108269999I-82000J0D01*
G01*
X187262000Y-108269999D01*
G75*
G02*
X187180000Y-108187999I0J82000D01*
G01*
X187180000Y-107531999D01*
G75*
G02*
X187262000Y-107449999I82000J0D01*
G01*
G37*
G36*
G01*
X187262000Y-105949999D02*
X188698000Y-105949999D01*
G75*
G02*
X188780000Y-106031999I0J-82000D01*
G01*
X188780000Y-106687999D01*
G75*
G02*
X188698000Y-106769999I-82000J0D01*
G01*
X187262000Y-106769999D01*
G75*
G02*
X187180000Y-106687999I0J82000D01*
G01*
X187180000Y-106031999D01*
G75*
G02*
X187262000Y-105949999I82000J0D01*
G01*
G37*
G36*
G01*
X182062000Y-107449999D02*
X183498000Y-107449999D01*
G75*
G02*
X183580000Y-107531999I0J-82000D01*
G01*
X183580000Y-108187999D01*
G75*
G02*
X183498000Y-108269999I-82000J0D01*
G01*
X182062000Y-108269999D01*
G75*
G02*
X181980000Y-108187999I0J82000D01*
G01*
X181980000Y-107531999D01*
G75*
G02*
X182062000Y-107449999I82000J0D01*
G01*
G37*
G36*
G01*
X182062000Y-105949999D02*
X183498000Y-105949999D01*
G75*
G02*
X183580000Y-106031999I0J-82000D01*
G01*
X183580000Y-106687999D01*
G75*
G02*
X183498000Y-106769999I-82000J0D01*
G01*
X182062000Y-106769999D01*
G75*
G02*
X181980000Y-106687999I0J82000D01*
G01*
X181980000Y-106031999D01*
G75*
G02*
X182062000Y-105949999I82000J0D01*
G01*
G37*
M02*
