%TF.GenerationSoftware,KiCad,Pcbnew,(5.1.9)-1*%
%TF.CreationDate,2021-11-30T13:31:35+01:00*%
%TF.ProjectId,Little_Big_Scroll,4c697474-6c65-45f4-9269-675f5363726f,v1.0*%
%TF.SameCoordinates,Original*%
%TF.FileFunction,Copper,L1,Top*%
%TF.FilePolarity,Positive*%
%FSLAX46Y46*%
G04 Gerber Fmt 4.6, Leading zero omitted, Abs format (unit mm)*
G04 Created by KiCad (PCBNEW (5.1.9)-1) date 2021-11-30 13:31:35*
%MOMM*%
%LPD*%
G01*
G04 APERTURE LIST*
%TA.AperFunction,ComponentPad*%
%ADD10C,2.000000*%
%TD*%
%TA.AperFunction,ComponentPad*%
%ADD11R,2.000000X3.200000*%
%TD*%
%TA.AperFunction,ComponentPad*%
%ADD12R,2.000000X2.000000*%
%TD*%
%TA.AperFunction,ComponentPad*%
%ADD13C,1.752600*%
%TD*%
%TA.AperFunction,ComponentPad*%
%ADD14R,1.752600X1.752600*%
%TD*%
%TA.AperFunction,ComponentPad*%
%ADD15O,1.700000X1.700000*%
%TD*%
%TA.AperFunction,ComponentPad*%
%ADD16R,1.700000X1.700000*%
%TD*%
%TA.AperFunction,ComponentPad*%
%ADD17O,1.400000X1.400000*%
%TD*%
%TA.AperFunction,ComponentPad*%
%ADD18C,1.400000*%
%TD*%
%TA.AperFunction,ViaPad*%
%ADD19C,0.800000*%
%TD*%
%TA.AperFunction,Conductor*%
%ADD20C,0.450000*%
%TD*%
%TA.AperFunction,Conductor*%
%ADD21C,0.250000*%
%TD*%
%TA.AperFunction,Conductor*%
%ADD22C,0.254000*%
%TD*%
%TA.AperFunction,Conductor*%
%ADD23C,0.100000*%
%TD*%
G04 APERTURE END LIST*
D10*
X221880000Y-104555000D03*
X216880000Y-104555000D03*
D11*
X224980000Y-111555000D03*
X213780000Y-111555000D03*
D10*
X221880000Y-119055000D03*
X219380000Y-119055000D03*
D12*
X216880000Y-119055000D03*
D13*
X211500000Y-96585000D03*
X196260000Y-124525000D03*
X211500000Y-99125000D03*
X211500000Y-101665000D03*
X211500000Y-104205000D03*
X211500000Y-106745000D03*
X211500000Y-109285000D03*
X211500000Y-111825000D03*
X211500000Y-114365000D03*
X211500000Y-116905000D03*
X211500000Y-119445000D03*
X211500000Y-121985000D03*
X211500000Y-124525000D03*
X196260000Y-121985000D03*
X196260000Y-119445000D03*
X196260000Y-116905000D03*
X196260000Y-114365000D03*
X196260000Y-111825000D03*
X196260000Y-109285000D03*
X196260000Y-106745000D03*
X196260000Y-104205000D03*
X196260000Y-101665000D03*
X196260000Y-99125000D03*
D14*
X196260000Y-96585000D03*
D15*
X194105000Y-107340000D03*
X194105000Y-104800000D03*
X194105000Y-102260000D03*
D16*
X194105000Y-99720000D03*
D15*
X217490000Y-93870000D03*
D16*
X214950000Y-93870000D03*
D17*
X224520000Y-121620000D03*
D18*
X224520000Y-126700000D03*
D17*
X214250000Y-126650000D03*
D18*
X214250000Y-121570000D03*
D17*
X187180000Y-111480000D03*
D18*
X192260000Y-111480000D03*
D17*
X179690000Y-111500000D03*
D18*
X184770000Y-111500000D03*
D19*
X159330000Y-112360000D03*
X160240000Y-125500000D03*
X171710000Y-112540000D03*
X171870000Y-123220000D03*
X193294000Y-126492000D03*
X191770000Y-106426000D03*
X236970000Y-112040000D03*
X219202000Y-126238000D03*
X218440000Y-116586000D03*
X181330001Y-106359999D03*
X216612227Y-98515010D03*
X189372631Y-104928360D03*
X216586000Y-129286000D03*
X216770000Y-121540000D03*
X165520000Y-111210000D03*
X158770000Y-99490000D03*
X177820000Y-99490000D03*
X191670000Y-96950000D03*
X158770000Y-118540000D03*
D20*
X194315000Y-99720000D02*
X196260000Y-101665000D01*
X194105000Y-99720000D02*
X194315000Y-99720000D01*
X182761640Y-104928360D02*
X189372631Y-104928360D01*
X181330001Y-106359999D02*
X182761640Y-104928360D01*
X216612227Y-100092773D02*
X216612227Y-98515010D01*
X212500000Y-104205000D02*
X216612227Y-100092773D01*
X211500000Y-104205000D02*
X212500000Y-104205000D01*
X216770000Y-129102000D02*
X216586000Y-129286000D01*
X216770000Y-121540000D02*
X216770000Y-129102000D01*
D21*
X192532000Y-106373000D02*
X194105000Y-104800000D01*
X192532000Y-108092000D02*
X192532000Y-106373000D01*
X193725000Y-109285000D02*
X192532000Y-108092000D01*
X196260000Y-109285000D02*
X193725000Y-109285000D01*
X215730000Y-117905000D02*
X216880000Y-119055000D01*
X212500000Y-117905000D02*
X215730000Y-117905000D01*
X211500000Y-116905000D02*
X212500000Y-117905000D01*
X216765000Y-119055000D02*
X216880000Y-119055000D01*
X214250000Y-121570000D02*
X216765000Y-119055000D01*
X221955000Y-119055000D02*
X221880000Y-119055000D01*
X224520000Y-121620000D02*
X221955000Y-119055000D01*
X221880000Y-116470000D02*
X221880000Y-119055000D01*
X220775000Y-115365000D02*
X221880000Y-116470000D01*
X212500000Y-115365000D02*
X220775000Y-115365000D01*
X211500000Y-114365000D02*
X212500000Y-115365000D01*
X165520000Y-111210000D02*
X164260000Y-111210000D01*
X158770000Y-105720000D02*
X158770000Y-99490000D01*
X164260000Y-111210000D02*
X158770000Y-105720000D01*
X195058699Y-113163699D02*
X196260000Y-114365000D01*
X195058699Y-112648699D02*
X195058699Y-113163699D01*
X190246000Y-107836000D02*
X195058699Y-112648699D01*
X188525989Y-103056400D02*
X190246000Y-104776410D01*
X188525989Y-101875989D02*
X188525989Y-103056400D01*
X183730000Y-97080000D02*
X188525989Y-101875989D01*
X180230000Y-97080000D02*
X183730000Y-97080000D01*
X190246000Y-104776410D02*
X190246000Y-107836000D01*
X177820000Y-99490000D02*
X180230000Y-97080000D01*
X188976000Y-99644000D02*
X191670000Y-96950000D01*
X188976000Y-102870000D02*
X188976000Y-99644000D01*
X190754000Y-104648000D02*
X188976000Y-102870000D01*
X190754000Y-107319000D02*
X190754000Y-104648000D01*
X195260000Y-111825000D02*
X190754000Y-107319000D01*
X196260000Y-111825000D02*
X195260000Y-111825000D01*
X211500000Y-127336000D02*
X211500000Y-124525000D01*
X210266000Y-128570000D02*
X211500000Y-127336000D01*
X181090000Y-128570000D02*
X210266000Y-128570000D01*
X178030000Y-125510000D02*
X181090000Y-128570000D01*
X173300000Y-125510000D02*
X178030000Y-125510000D01*
X160750000Y-129050000D02*
X169760000Y-129050000D01*
X169760000Y-129050000D02*
X173300000Y-125510000D01*
X158770000Y-127070000D02*
X160750000Y-129050000D01*
X158770000Y-118540000D02*
X158770000Y-127070000D01*
X212500000Y-106745000D02*
X211500000Y-106745000D01*
X214690000Y-104555000D02*
X212500000Y-106745000D01*
X216880000Y-104555000D02*
X214690000Y-104555000D01*
X211623701Y-109408701D02*
X211500000Y-109285000D01*
X217026299Y-109408701D02*
X211623701Y-109408701D01*
X221880000Y-104555000D02*
X217026299Y-109408701D01*
X213803000Y-101665000D02*
X211500000Y-101665000D01*
X215138000Y-100330000D02*
X213803000Y-101665000D01*
X215138000Y-98298000D02*
X215138000Y-100330000D01*
X217490000Y-95946000D02*
X215138000Y-98298000D01*
X217490000Y-93870000D02*
X217490000Y-95946000D01*
D22*
X197460001Y-95161703D02*
X197380480Y-95119198D01*
X197260782Y-95082888D01*
X197136300Y-95070628D01*
X195383700Y-95070628D01*
X195259218Y-95082888D01*
X195139520Y-95119198D01*
X195029206Y-95178163D01*
X194932515Y-95257515D01*
X194853163Y-95354206D01*
X194794198Y-95464520D01*
X194757888Y-95584218D01*
X194745628Y-95708700D01*
X194745628Y-97461300D01*
X194757888Y-97585782D01*
X194794198Y-97705480D01*
X194853163Y-97815794D01*
X194932515Y-97912485D01*
X195029206Y-97991837D01*
X195139520Y-98050802D01*
X195183542Y-98064156D01*
X195086096Y-98161602D01*
X195033913Y-98239700D01*
X194955000Y-98231928D01*
X194390750Y-98235000D01*
X194232000Y-98393750D01*
X194232000Y-99593000D01*
X194252000Y-99593000D01*
X194252000Y-99847000D01*
X194232000Y-99847000D01*
X194232000Y-99867000D01*
X193978000Y-99867000D01*
X193978000Y-99847000D01*
X192778750Y-99847000D01*
X192620000Y-100005750D01*
X192616928Y-100570000D01*
X192629188Y-100694482D01*
X192665498Y-100814180D01*
X192724463Y-100924494D01*
X192803815Y-101021185D01*
X192900506Y-101100537D01*
X193010820Y-101159502D01*
X193083380Y-101181513D01*
X192951525Y-101313368D01*
X192789010Y-101556589D01*
X192677068Y-101826842D01*
X192620000Y-102113740D01*
X192620000Y-102406260D01*
X192677068Y-102693158D01*
X192789010Y-102963411D01*
X192951525Y-103206632D01*
X193158368Y-103413475D01*
X193332760Y-103530000D01*
X193158368Y-103646525D01*
X192951525Y-103853368D01*
X192789010Y-104096589D01*
X192677068Y-104366842D01*
X192620000Y-104653740D01*
X192620000Y-104946260D01*
X192663791Y-105166408D01*
X192020998Y-105809201D01*
X191992000Y-105832999D01*
X191968202Y-105861997D01*
X191968201Y-105861998D01*
X191897026Y-105948724D01*
X191826454Y-106080754D01*
X191797605Y-106175861D01*
X191782998Y-106224014D01*
X191772154Y-106334118D01*
X191768324Y-106373000D01*
X191772001Y-106410332D01*
X191772000Y-107262199D01*
X191514000Y-107004199D01*
X191514000Y-104685325D01*
X191517676Y-104648000D01*
X191514000Y-104610675D01*
X191514000Y-104610667D01*
X191503003Y-104499014D01*
X191459546Y-104355753D01*
X191388974Y-104223724D01*
X191294001Y-104107999D01*
X191265003Y-104084201D01*
X190681711Y-103500909D01*
X190893421Y-103458798D01*
X191163838Y-103346788D01*
X191407206Y-103184174D01*
X191614174Y-102977206D01*
X191776788Y-102733838D01*
X191888798Y-102463421D01*
X191945900Y-102176348D01*
X191945900Y-101883652D01*
X191888798Y-101596579D01*
X191776788Y-101326162D01*
X191614174Y-101082794D01*
X191407206Y-100875826D01*
X191163838Y-100713212D01*
X190893421Y-100601202D01*
X190606348Y-100544100D01*
X190313652Y-100544100D01*
X190026579Y-100601202D01*
X189756162Y-100713212D01*
X189736000Y-100726684D01*
X189736000Y-99958801D01*
X190824801Y-98870000D01*
X192616928Y-98870000D01*
X192620000Y-99434250D01*
X192778750Y-99593000D01*
X193978000Y-99593000D01*
X193978000Y-98393750D01*
X193819250Y-98235000D01*
X193255000Y-98231928D01*
X193130518Y-98244188D01*
X193010820Y-98280498D01*
X192900506Y-98339463D01*
X192803815Y-98418815D01*
X192724463Y-98515506D01*
X192665498Y-98625820D01*
X192629188Y-98745518D01*
X192616928Y-98870000D01*
X190824801Y-98870000D01*
X191709802Y-97985000D01*
X191771939Y-97985000D01*
X191971898Y-97945226D01*
X192160256Y-97867205D01*
X192329774Y-97753937D01*
X192473937Y-97609774D01*
X192587205Y-97440256D01*
X192665226Y-97251898D01*
X192705000Y-97051939D01*
X192705000Y-96848061D01*
X192665226Y-96648102D01*
X192587205Y-96459744D01*
X192473937Y-96290226D01*
X192329774Y-96146063D01*
X192160256Y-96032795D01*
X191971898Y-95954774D01*
X191771939Y-95915000D01*
X191568061Y-95915000D01*
X191368102Y-95954774D01*
X191179744Y-96032795D01*
X191010226Y-96146063D01*
X190866063Y-96290226D01*
X190752795Y-96459744D01*
X190674774Y-96648102D01*
X190635000Y-96848061D01*
X190635000Y-96910198D01*
X189973080Y-97572119D01*
X190055000Y-97160279D01*
X190055000Y-96739721D01*
X189972953Y-96327244D01*
X189812012Y-95938698D01*
X189578363Y-95589017D01*
X189280983Y-95291637D01*
X188931302Y-95057988D01*
X188542756Y-94897047D01*
X188130279Y-94815000D01*
X187709721Y-94815000D01*
X187297244Y-94897047D01*
X186908698Y-95057988D01*
X186559017Y-95291637D01*
X186261637Y-95589017D01*
X186027988Y-95938698D01*
X185867047Y-96327244D01*
X185785000Y-96739721D01*
X185785000Y-97160279D01*
X185867047Y-97572756D01*
X186027988Y-97961302D01*
X186261637Y-98310983D01*
X186559017Y-98608363D01*
X186908698Y-98842012D01*
X187297244Y-99002953D01*
X187709721Y-99085000D01*
X188130279Y-99085000D01*
X188542119Y-99003080D01*
X188464998Y-99080201D01*
X188436000Y-99103999D01*
X188412202Y-99132997D01*
X188412201Y-99132998D01*
X188341026Y-99219724D01*
X188270454Y-99351754D01*
X188245430Y-99434250D01*
X188226998Y-99495014D01*
X188219848Y-99567609D01*
X188212324Y-99644000D01*
X188216001Y-99681332D01*
X188216001Y-100491199D01*
X184293804Y-96569003D01*
X184270001Y-96539999D01*
X184154276Y-96445026D01*
X184022247Y-96374454D01*
X183878986Y-96330997D01*
X183767333Y-96320000D01*
X183767322Y-96320000D01*
X183730000Y-96316324D01*
X183692678Y-96320000D01*
X180267325Y-96320000D01*
X180230000Y-96316324D01*
X180192675Y-96320000D01*
X180192667Y-96320000D01*
X180081014Y-96330997D01*
X179937753Y-96374454D01*
X179805724Y-96445026D01*
X179689999Y-96539999D01*
X179666201Y-96568997D01*
X177780199Y-98455000D01*
X177718061Y-98455000D01*
X177518102Y-98494774D01*
X177329744Y-98572795D01*
X177160226Y-98686063D01*
X177016063Y-98830226D01*
X176902795Y-98999744D01*
X176824774Y-99188102D01*
X176785000Y-99388061D01*
X176785000Y-99591939D01*
X176824774Y-99791898D01*
X176902795Y-99980256D01*
X177016063Y-100149774D01*
X177160226Y-100293937D01*
X177329744Y-100407205D01*
X177518102Y-100485226D01*
X177718061Y-100525000D01*
X177921939Y-100525000D01*
X178121898Y-100485226D01*
X178310256Y-100407205D01*
X178479774Y-100293937D01*
X178623937Y-100149774D01*
X178737205Y-99980256D01*
X178815226Y-99791898D01*
X178855000Y-99591939D01*
X178855000Y-99529801D01*
X179516920Y-98867881D01*
X179435000Y-99279721D01*
X179435000Y-99700279D01*
X179517047Y-100112756D01*
X179677988Y-100501302D01*
X179771150Y-100640730D01*
X179596162Y-100713212D01*
X179352794Y-100875826D01*
X179145826Y-101082794D01*
X178983212Y-101326162D01*
X178871202Y-101596579D01*
X178814100Y-101883652D01*
X178814100Y-102176348D01*
X178871202Y-102463421D01*
X178983212Y-102733838D01*
X179145826Y-102977206D01*
X179352794Y-103184174D01*
X179596162Y-103346788D01*
X179866579Y-103458798D01*
X180153652Y-103515900D01*
X180446348Y-103515900D01*
X180733421Y-103458798D01*
X181003838Y-103346788D01*
X181247206Y-103184174D01*
X181454174Y-102977206D01*
X181616788Y-102733838D01*
X181728798Y-102463421D01*
X181785900Y-102176348D01*
X181785900Y-101883652D01*
X181734451Y-101625000D01*
X181780279Y-101625000D01*
X182192756Y-101542953D01*
X182581302Y-101382012D01*
X182887708Y-101177279D01*
X182852127Y-101263178D01*
X182751100Y-101771076D01*
X182751100Y-102288924D01*
X182852127Y-102796822D01*
X183050299Y-103275251D01*
X183338000Y-103705826D01*
X183700534Y-104068360D01*
X182803878Y-104068360D01*
X182761639Y-104064200D01*
X182719400Y-104068360D01*
X182719394Y-104068360D01*
X182624178Y-104077738D01*
X182593049Y-104080804D01*
X182528025Y-104100529D01*
X182430940Y-104129979D01*
X182281538Y-104209836D01*
X182150586Y-104317306D01*
X182123657Y-104350120D01*
X181129091Y-105344685D01*
X181028103Y-105364773D01*
X180839745Y-105442794D01*
X180670227Y-105556062D01*
X180526064Y-105700225D01*
X180412796Y-105869743D01*
X180334775Y-106058101D01*
X180295001Y-106258060D01*
X180295001Y-106461938D01*
X180334775Y-106661897D01*
X180412796Y-106850255D01*
X180526064Y-107019773D01*
X180670227Y-107163936D01*
X180839745Y-107277204D01*
X181028103Y-107355225D01*
X181228062Y-107394999D01*
X181431940Y-107394999D01*
X181631899Y-107355225D01*
X181820257Y-107277204D01*
X181989775Y-107163936D01*
X182133938Y-107019773D01*
X182247206Y-106850255D01*
X182325227Y-106661897D01*
X182345315Y-106560909D01*
X182899268Y-106006955D01*
X182900992Y-106036793D01*
X182903708Y-106098831D01*
X182905123Y-106108291D01*
X182920231Y-106204697D01*
X182935780Y-106264794D01*
X182950492Y-106325114D01*
X182953716Y-106334118D01*
X182987261Y-106425754D01*
X182995002Y-106446900D01*
X182995001Y-107777266D01*
X182994859Y-107777737D01*
X182987376Y-107793011D01*
X182984089Y-107801993D01*
X182951193Y-107893864D01*
X182936068Y-107954077D01*
X182920102Y-108014081D01*
X182918622Y-108023530D01*
X182904198Y-108120040D01*
X182901057Y-108182032D01*
X182897049Y-108243992D01*
X182897433Y-108253548D01*
X182902028Y-108351023D01*
X182910989Y-108412455D01*
X182919093Y-108474017D01*
X182921325Y-108483317D01*
X182944766Y-108578042D01*
X182965492Y-108636570D01*
X182985395Y-108695374D01*
X182989392Y-108704063D01*
X183030786Y-108792433D01*
X183062468Y-108845792D01*
X183093429Y-108899637D01*
X183099037Y-108907384D01*
X183156806Y-108986029D01*
X183198256Y-109032226D01*
X183239081Y-109079026D01*
X183246087Y-109085537D01*
X183318032Y-109151464D01*
X183367663Y-109188729D01*
X183416800Y-109226707D01*
X183424937Y-109231733D01*
X183508316Y-109282430D01*
X183564274Y-109309362D01*
X183619825Y-109337059D01*
X183628784Y-109340409D01*
X183720423Y-109373945D01*
X183780583Y-109389504D01*
X183840407Y-109405871D01*
X183849846Y-109407417D01*
X183849853Y-109407419D01*
X183849861Y-109407419D01*
X183946253Y-109422516D01*
X184008231Y-109426091D01*
X184070166Y-109430531D01*
X184079725Y-109430214D01*
X184177230Y-109426299D01*
X184238698Y-109417770D01*
X184300333Y-109410094D01*
X184309648Y-109407927D01*
X184404535Y-109385148D01*
X184463223Y-109364826D01*
X184522152Y-109345338D01*
X184530869Y-109341402D01*
X184619202Y-109300774D01*
X184619519Y-109300631D01*
X184631764Y-109294999D01*
X186130132Y-109294999D01*
X186139264Y-109300420D01*
X186147954Y-109304415D01*
X186236896Y-109344562D01*
X186295712Y-109364463D01*
X186354230Y-109385178D01*
X186363527Y-109387409D01*
X186363532Y-109387411D01*
X186363537Y-109387412D01*
X186458576Y-109409517D01*
X186520125Y-109417613D01*
X186581565Y-109426570D01*
X186591122Y-109426953D01*
X186688651Y-109430178D01*
X186750616Y-109426164D01*
X186812619Y-109423016D01*
X186822068Y-109421535D01*
X186918366Y-109405754D01*
X186978362Y-109389783D01*
X187038566Y-109374654D01*
X187047547Y-109371366D01*
X187047556Y-109371363D01*
X187047559Y-109371361D01*
X187138947Y-109337182D01*
X187194686Y-109309868D01*
X187250827Y-109283323D01*
X187258999Y-109278354D01*
X187342018Y-109227068D01*
X187391429Y-109189418D01*
X187441308Y-109152501D01*
X187448359Y-109146039D01*
X187519835Y-109079604D01*
X187560960Y-109033110D01*
X187602740Y-108987184D01*
X187608402Y-108979475D01*
X187665614Y-108900423D01*
X187696929Y-108846822D01*
X187728999Y-108793645D01*
X187733055Y-108784983D01*
X187773822Y-108696323D01*
X187794113Y-108637705D01*
X187815256Y-108579277D01*
X187817553Y-108569992D01*
X187840323Y-108475103D01*
X187848850Y-108413598D01*
X187858234Y-108352230D01*
X187858683Y-108342677D01*
X187862588Y-108245172D01*
X187859008Y-108183208D01*
X187856292Y-108121166D01*
X187854878Y-108111707D01*
X187839769Y-108015300D01*
X187824220Y-107955204D01*
X187809508Y-107894883D01*
X187806284Y-107885879D01*
X187772739Y-107794243D01*
X187772737Y-107794240D01*
X187764999Y-107773100D01*
X187764999Y-106442731D01*
X187765140Y-106442264D01*
X187772624Y-106426988D01*
X187775911Y-106418006D01*
X187808807Y-106326135D01*
X187823932Y-106265922D01*
X187839897Y-106205924D01*
X187841377Y-106196475D01*
X187855802Y-106099964D01*
X187858943Y-106037981D01*
X187862952Y-105976006D01*
X187862568Y-105966449D01*
X187857973Y-105868975D01*
X187849012Y-105807543D01*
X187846487Y-105788360D01*
X188796761Y-105788360D01*
X188882375Y-105845565D01*
X189070733Y-105923586D01*
X189270692Y-105963360D01*
X189474570Y-105963360D01*
X189486000Y-105961086D01*
X189486001Y-107798668D01*
X189482324Y-107836000D01*
X189486001Y-107873333D01*
X189496998Y-107984986D01*
X189508690Y-108023530D01*
X189540454Y-108128246D01*
X189611026Y-108260276D01*
X189679397Y-108343585D01*
X189706000Y-108376001D01*
X189734998Y-108399799D01*
X191630821Y-110295622D01*
X191627641Y-110296939D01*
X191408987Y-110443038D01*
X191223038Y-110628987D01*
X191076939Y-110847641D01*
X190976304Y-111090595D01*
X190925000Y-111348514D01*
X190925000Y-111611486D01*
X190976304Y-111869405D01*
X191076939Y-112112359D01*
X191223038Y-112331013D01*
X191408987Y-112516962D01*
X191627641Y-112663061D01*
X191870595Y-112763696D01*
X192128514Y-112815000D01*
X192391486Y-112815000D01*
X192649405Y-112763696D01*
X192892359Y-112663061D01*
X193111013Y-112516962D01*
X193296962Y-112331013D01*
X193443061Y-112112359D01*
X193444378Y-112109180D01*
X194298699Y-112963501D01*
X194298699Y-113126377D01*
X194295023Y-113163699D01*
X194298699Y-113201021D01*
X194298699Y-113201032D01*
X194309696Y-113312685D01*
X194353153Y-113455946D01*
X194423725Y-113587975D01*
X194518699Y-113703700D01*
X194547697Y-113727498D01*
X194796424Y-113976225D01*
X194748700Y-114216150D01*
X194748700Y-114513850D01*
X194806778Y-114805830D01*
X194920703Y-115080869D01*
X195086096Y-115328398D01*
X195296602Y-115538904D01*
X195440420Y-115635000D01*
X195296602Y-115731096D01*
X195086096Y-115941602D01*
X194920703Y-116189131D01*
X194806778Y-116464170D01*
X194748700Y-116756150D01*
X194748700Y-117053850D01*
X194806778Y-117345830D01*
X194920703Y-117620869D01*
X195086096Y-117868398D01*
X195296602Y-118078904D01*
X195440420Y-118175000D01*
X195296602Y-118271096D01*
X195086096Y-118481602D01*
X194920703Y-118729131D01*
X194806778Y-119004170D01*
X194748700Y-119296150D01*
X194748700Y-119593850D01*
X194806778Y-119885830D01*
X194920703Y-120160869D01*
X195086096Y-120408398D01*
X195296602Y-120618904D01*
X195440420Y-120715000D01*
X195296602Y-120811096D01*
X195086096Y-121021602D01*
X194920703Y-121269131D01*
X194806778Y-121544170D01*
X194748700Y-121836150D01*
X194748700Y-122133850D01*
X194806778Y-122425830D01*
X194920703Y-122700869D01*
X195086096Y-122948398D01*
X195296602Y-123158904D01*
X195440420Y-123255000D01*
X195296602Y-123351096D01*
X195086096Y-123561602D01*
X194920703Y-123809131D01*
X194806778Y-124084170D01*
X194748700Y-124376150D01*
X194748700Y-124673850D01*
X194806778Y-124965830D01*
X194920703Y-125240869D01*
X195086096Y-125488398D01*
X195296602Y-125698904D01*
X195544131Y-125864297D01*
X195819170Y-125978222D01*
X196111150Y-126036300D01*
X196408850Y-126036300D01*
X196700830Y-125978222D01*
X196975869Y-125864297D01*
X197223398Y-125698904D01*
X197433904Y-125488398D01*
X197460000Y-125449342D01*
X197460000Y-126037581D01*
X197456807Y-126070000D01*
X197469550Y-126199383D01*
X197507290Y-126323793D01*
X197568575Y-126438450D01*
X197640814Y-126526473D01*
X197651052Y-126538948D01*
X197751550Y-126621425D01*
X197866207Y-126682710D01*
X197990617Y-126720450D01*
X198120000Y-126733193D01*
X198152419Y-126730000D01*
X209657581Y-126730000D01*
X209690000Y-126733193D01*
X209722419Y-126730000D01*
X209819383Y-126720450D01*
X209943793Y-126682710D01*
X210058450Y-126621425D01*
X210158948Y-126538948D01*
X210241425Y-126438450D01*
X210302710Y-126323793D01*
X210340450Y-126199383D01*
X210353193Y-126070000D01*
X210350000Y-126037581D01*
X210350000Y-125512302D01*
X210536602Y-125698904D01*
X210740001Y-125834810D01*
X210740000Y-127021198D01*
X209951199Y-127810000D01*
X187744543Y-127810000D01*
X187773822Y-127746323D01*
X187794113Y-127687705D01*
X187815256Y-127629277D01*
X187817553Y-127619992D01*
X187840323Y-127525103D01*
X187848850Y-127463598D01*
X187858234Y-127402230D01*
X187858683Y-127392677D01*
X187862588Y-127295172D01*
X187859008Y-127233208D01*
X187856292Y-127171166D01*
X187854878Y-127161707D01*
X187839769Y-127065300D01*
X187824220Y-127005204D01*
X187809508Y-126944883D01*
X187806284Y-126935879D01*
X187772739Y-126844243D01*
X187772737Y-126844240D01*
X187764999Y-126823100D01*
X187764999Y-125492731D01*
X187765140Y-125492264D01*
X187772624Y-125476988D01*
X187775911Y-125468006D01*
X187808807Y-125376135D01*
X187823932Y-125315922D01*
X187839897Y-125255924D01*
X187841377Y-125246475D01*
X187855802Y-125149964D01*
X187858943Y-125087981D01*
X187862952Y-125026006D01*
X187862568Y-125016449D01*
X187857973Y-124918975D01*
X187849012Y-124857543D01*
X187840908Y-124795981D01*
X187838678Y-124786694D01*
X187838677Y-124786686D01*
X187838674Y-124786679D01*
X187815235Y-124691956D01*
X187794509Y-124633428D01*
X187774606Y-124574624D01*
X187770610Y-124565935D01*
X187729215Y-124477566D01*
X187697543Y-124424223D01*
X187666572Y-124370361D01*
X187660964Y-124362614D01*
X187603195Y-124283969D01*
X187561745Y-124237772D01*
X187520920Y-124190972D01*
X187513914Y-124184461D01*
X187441969Y-124118534D01*
X187392324Y-124081259D01*
X187343198Y-124043289D01*
X187335061Y-124038263D01*
X187251681Y-123987566D01*
X187195720Y-123960634D01*
X187140181Y-123932942D01*
X187131223Y-123929592D01*
X187039584Y-123896055D01*
X186979470Y-123880508D01*
X186919587Y-123864125D01*
X186910149Y-123862579D01*
X186813742Y-123847481D01*
X186751759Y-123843906D01*
X186689836Y-123839467D01*
X186680277Y-123839783D01*
X186582771Y-123843699D01*
X186521312Y-123852226D01*
X186459667Y-123859904D01*
X186450352Y-123862071D01*
X186355465Y-123884850D01*
X186296778Y-123905171D01*
X186237854Y-123924658D01*
X186229137Y-123928593D01*
X186140482Y-123969368D01*
X186128237Y-123975000D01*
X184629868Y-123975000D01*
X184620736Y-123969579D01*
X184612046Y-123965584D01*
X184523104Y-123925437D01*
X184464281Y-123905533D01*
X184405771Y-123884821D01*
X184396471Y-123882589D01*
X184396468Y-123882588D01*
X184396465Y-123882588D01*
X184301426Y-123860482D01*
X184239863Y-123852384D01*
X184178436Y-123843429D01*
X184168879Y-123843046D01*
X184071349Y-123839821D01*
X184009396Y-123843834D01*
X183947389Y-123846982D01*
X183937940Y-123848463D01*
X183841642Y-123864243D01*
X183781666Y-123880209D01*
X183721435Y-123895344D01*
X183712453Y-123898632D01*
X183621054Y-123932816D01*
X183565316Y-123960129D01*
X183509174Y-123986675D01*
X183501002Y-123991644D01*
X183417983Y-124042930D01*
X183368590Y-124080567D01*
X183318697Y-124117494D01*
X183311646Y-124123956D01*
X183240170Y-124190390D01*
X183199053Y-124236874D01*
X183157258Y-124282816D01*
X183151597Y-124290525D01*
X183094385Y-124369578D01*
X183063067Y-124423185D01*
X183031004Y-124476350D01*
X183026947Y-124485012D01*
X182986180Y-124573671D01*
X182965863Y-124632364D01*
X182944745Y-124690720D01*
X182942448Y-124700005D01*
X182919678Y-124794894D01*
X182911146Y-124856431D01*
X182901768Y-124917760D01*
X182901318Y-124927313D01*
X182897412Y-125024818D01*
X182900992Y-125086793D01*
X182903708Y-125148831D01*
X182905123Y-125158291D01*
X182920231Y-125254697D01*
X182935780Y-125314794D01*
X182950492Y-125375114D01*
X182953716Y-125384118D01*
X182987261Y-125475754D01*
X182995002Y-125496900D01*
X182995001Y-126827266D01*
X182994859Y-126827737D01*
X182987376Y-126843011D01*
X182984089Y-126851993D01*
X182951193Y-126943864D01*
X182936068Y-127004077D01*
X182920102Y-127064081D01*
X182918622Y-127073530D01*
X182904198Y-127170040D01*
X182901057Y-127232032D01*
X182897049Y-127293992D01*
X182897433Y-127303548D01*
X182902028Y-127401023D01*
X182910989Y-127462455D01*
X182919093Y-127524017D01*
X182921325Y-127533317D01*
X182944766Y-127628042D01*
X182965492Y-127686570D01*
X182985395Y-127745374D01*
X182989392Y-127754063D01*
X183015594Y-127810000D01*
X181404802Y-127810000D01*
X178593804Y-124999003D01*
X178570001Y-124969999D01*
X178454276Y-124875026D01*
X178322247Y-124804454D01*
X178178986Y-124760997D01*
X178067333Y-124750000D01*
X178067322Y-124750000D01*
X178030000Y-124746324D01*
X177992678Y-124750000D01*
X173337322Y-124750000D01*
X173299999Y-124746324D01*
X173262677Y-124750000D01*
X173262667Y-124750000D01*
X173151014Y-124760997D01*
X173021263Y-124800356D01*
X173007753Y-124804454D01*
X172875723Y-124875026D01*
X172797037Y-124939603D01*
X172759999Y-124969999D01*
X172736201Y-124998997D01*
X169445199Y-128290000D01*
X168271084Y-128290000D01*
X168292018Y-128277068D01*
X168341429Y-128239418D01*
X168391308Y-128202501D01*
X168398359Y-128196039D01*
X168469835Y-128129604D01*
X168510960Y-128083110D01*
X168552740Y-128037184D01*
X168558402Y-128029475D01*
X168615614Y-127950423D01*
X168646929Y-127896822D01*
X168678999Y-127843645D01*
X168683055Y-127834983D01*
X168723822Y-127746323D01*
X168744113Y-127687705D01*
X168765256Y-127629277D01*
X168767553Y-127619992D01*
X168790323Y-127525103D01*
X168798850Y-127463598D01*
X168808234Y-127402230D01*
X168808683Y-127392677D01*
X168812588Y-127295172D01*
X168809008Y-127233208D01*
X168806292Y-127171166D01*
X168804878Y-127161707D01*
X168789769Y-127065300D01*
X168774220Y-127005204D01*
X168759508Y-126944883D01*
X168756284Y-126935879D01*
X168722739Y-126844243D01*
X168722737Y-126844240D01*
X168714999Y-126823100D01*
X168714999Y-125492731D01*
X168715140Y-125492264D01*
X168722624Y-125476988D01*
X168725911Y-125468006D01*
X168758807Y-125376135D01*
X168773932Y-125315922D01*
X168789897Y-125255924D01*
X168791377Y-125246475D01*
X168805802Y-125149964D01*
X168808943Y-125087981D01*
X168812952Y-125026006D01*
X168812568Y-125016449D01*
X168807973Y-124918975D01*
X168799012Y-124857543D01*
X168790908Y-124795981D01*
X168788678Y-124786694D01*
X168788677Y-124786686D01*
X168788674Y-124786679D01*
X168765235Y-124691956D01*
X168744509Y-124633428D01*
X168724606Y-124574624D01*
X168720610Y-124565935D01*
X168679215Y-124477566D01*
X168647543Y-124424223D01*
X168616572Y-124370361D01*
X168610964Y-124362614D01*
X168553195Y-124283969D01*
X168511745Y-124237772D01*
X168470920Y-124190972D01*
X168463914Y-124184461D01*
X168391969Y-124118534D01*
X168342324Y-124081259D01*
X168293198Y-124043289D01*
X168285061Y-124038263D01*
X168201681Y-123987566D01*
X168145720Y-123960634D01*
X168090181Y-123932942D01*
X168081223Y-123929592D01*
X167989584Y-123896055D01*
X167929470Y-123880508D01*
X167869587Y-123864125D01*
X167860149Y-123862579D01*
X167763742Y-123847481D01*
X167701759Y-123843906D01*
X167639836Y-123839467D01*
X167630277Y-123839783D01*
X167532771Y-123843699D01*
X167471312Y-123852226D01*
X167409667Y-123859904D01*
X167400352Y-123862071D01*
X167305465Y-123884850D01*
X167246778Y-123905171D01*
X167187854Y-123924658D01*
X167179137Y-123928593D01*
X167090482Y-123969368D01*
X167078237Y-123975000D01*
X165579868Y-123975000D01*
X165570736Y-123969579D01*
X165562046Y-123965584D01*
X165473104Y-123925437D01*
X165414281Y-123905533D01*
X165355771Y-123884821D01*
X165346471Y-123882589D01*
X165346468Y-123882588D01*
X165346465Y-123882588D01*
X165251426Y-123860482D01*
X165189863Y-123852384D01*
X165128436Y-123843429D01*
X165118879Y-123843046D01*
X165021349Y-123839821D01*
X164959396Y-123843834D01*
X164897389Y-123846982D01*
X164887940Y-123848463D01*
X164791642Y-123864243D01*
X164731666Y-123880209D01*
X164671435Y-123895344D01*
X164662453Y-123898632D01*
X164571054Y-123932816D01*
X164515316Y-123960129D01*
X164459174Y-123986675D01*
X164451002Y-123991644D01*
X164367983Y-124042930D01*
X164318590Y-124080567D01*
X164268697Y-124117494D01*
X164261646Y-124123956D01*
X164190170Y-124190390D01*
X164149053Y-124236874D01*
X164107258Y-124282816D01*
X164101597Y-124290525D01*
X164044385Y-124369578D01*
X164013067Y-124423185D01*
X163981004Y-124476350D01*
X163976947Y-124485012D01*
X163936180Y-124573671D01*
X163915863Y-124632364D01*
X163894745Y-124690720D01*
X163892448Y-124700005D01*
X163869678Y-124794894D01*
X163861146Y-124856431D01*
X163851768Y-124917760D01*
X163851318Y-124927313D01*
X163847412Y-125024818D01*
X163850992Y-125086793D01*
X163853708Y-125148831D01*
X163855123Y-125158291D01*
X163870231Y-125254697D01*
X163885780Y-125314794D01*
X163900492Y-125375114D01*
X163903716Y-125384118D01*
X163937261Y-125475754D01*
X163945002Y-125496900D01*
X163945001Y-126827266D01*
X163944859Y-126827737D01*
X163937376Y-126843011D01*
X163934089Y-126851993D01*
X163901193Y-126943864D01*
X163886068Y-127004077D01*
X163870102Y-127064081D01*
X163868622Y-127073530D01*
X163854198Y-127170040D01*
X163851057Y-127232032D01*
X163847049Y-127293992D01*
X163847433Y-127303548D01*
X163852028Y-127401023D01*
X163860989Y-127462455D01*
X163869093Y-127524017D01*
X163871325Y-127533317D01*
X163894766Y-127628042D01*
X163915492Y-127686570D01*
X163935395Y-127745374D01*
X163939392Y-127754063D01*
X163980786Y-127842433D01*
X164012468Y-127895792D01*
X164043429Y-127949637D01*
X164049037Y-127957384D01*
X164106806Y-128036029D01*
X164148256Y-128082226D01*
X164189081Y-128129026D01*
X164196087Y-128135537D01*
X164268032Y-128201464D01*
X164317663Y-128238729D01*
X164366800Y-128276707D01*
X164374937Y-128281733D01*
X164388533Y-128290000D01*
X161064802Y-128290000D01*
X159530000Y-126755199D01*
X159530000Y-120933652D01*
X159764100Y-120933652D01*
X159764100Y-121226348D01*
X159821202Y-121513421D01*
X159933212Y-121783838D01*
X160095826Y-122027206D01*
X160302794Y-122234174D01*
X160546162Y-122396788D01*
X160816579Y-122508798D01*
X161103652Y-122565900D01*
X161396348Y-122565900D01*
X161683421Y-122508798D01*
X161953838Y-122396788D01*
X162197206Y-122234174D01*
X162404174Y-122027206D01*
X162566788Y-121783838D01*
X162678798Y-121513421D01*
X162735900Y-121226348D01*
X162735900Y-120933652D01*
X162684451Y-120675000D01*
X162730279Y-120675000D01*
X163142756Y-120592953D01*
X163531302Y-120432012D01*
X163837708Y-120227279D01*
X163802127Y-120313178D01*
X163701100Y-120821076D01*
X163701100Y-121338924D01*
X163802127Y-121846822D01*
X164000299Y-122325251D01*
X164288000Y-122755826D01*
X164654174Y-123122000D01*
X165084749Y-123409701D01*
X165563178Y-123607873D01*
X166071076Y-123708900D01*
X166588924Y-123708900D01*
X167096822Y-123607873D01*
X167575251Y-123409701D01*
X168005826Y-123122000D01*
X168372000Y-122755826D01*
X168659701Y-122325251D01*
X168857873Y-121846822D01*
X168958900Y-121338924D01*
X168958900Y-120933652D01*
X169924100Y-120933652D01*
X169924100Y-121226348D01*
X169981202Y-121513421D01*
X170093212Y-121783838D01*
X170255826Y-122027206D01*
X170462794Y-122234174D01*
X170706162Y-122396788D01*
X170976579Y-122508798D01*
X171263652Y-122565900D01*
X171556348Y-122565900D01*
X171843421Y-122508798D01*
X172113838Y-122396788D01*
X172357206Y-122234174D01*
X172564174Y-122027206D01*
X172726788Y-121783838D01*
X172838798Y-121513421D01*
X172895900Y-121226348D01*
X172895900Y-120933652D01*
X178814100Y-120933652D01*
X178814100Y-121226348D01*
X178871202Y-121513421D01*
X178983212Y-121783838D01*
X179145826Y-122027206D01*
X179352794Y-122234174D01*
X179596162Y-122396788D01*
X179866579Y-122508798D01*
X180153652Y-122565900D01*
X180446348Y-122565900D01*
X180733421Y-122508798D01*
X181003838Y-122396788D01*
X181247206Y-122234174D01*
X181454174Y-122027206D01*
X181616788Y-121783838D01*
X181728798Y-121513421D01*
X181785900Y-121226348D01*
X181785900Y-120933652D01*
X181734451Y-120675000D01*
X181780279Y-120675000D01*
X182192756Y-120592953D01*
X182581302Y-120432012D01*
X182887708Y-120227279D01*
X182852127Y-120313178D01*
X182751100Y-120821076D01*
X182751100Y-121338924D01*
X182852127Y-121846822D01*
X183050299Y-122325251D01*
X183338000Y-122755826D01*
X183704174Y-123122000D01*
X184134749Y-123409701D01*
X184613178Y-123607873D01*
X185121076Y-123708900D01*
X185638924Y-123708900D01*
X186146822Y-123607873D01*
X186625251Y-123409701D01*
X187055826Y-123122000D01*
X187422000Y-122755826D01*
X187709701Y-122325251D01*
X187907873Y-121846822D01*
X188008900Y-121338924D01*
X188008900Y-120933652D01*
X188974100Y-120933652D01*
X188974100Y-121226348D01*
X189031202Y-121513421D01*
X189143212Y-121783838D01*
X189305826Y-122027206D01*
X189512794Y-122234174D01*
X189756162Y-122396788D01*
X190026579Y-122508798D01*
X190313652Y-122565900D01*
X190606348Y-122565900D01*
X190893421Y-122508798D01*
X191163838Y-122396788D01*
X191407206Y-122234174D01*
X191614174Y-122027206D01*
X191776788Y-121783838D01*
X191888798Y-121513421D01*
X191945900Y-121226348D01*
X191945900Y-120933652D01*
X191888798Y-120646579D01*
X191776788Y-120376162D01*
X191614174Y-120132794D01*
X191407206Y-119925826D01*
X191163838Y-119763212D01*
X190893421Y-119651202D01*
X190606348Y-119594100D01*
X190313652Y-119594100D01*
X190026579Y-119651202D01*
X189756162Y-119763212D01*
X189512794Y-119925826D01*
X189305826Y-120132794D01*
X189143212Y-120376162D01*
X189031202Y-120646579D01*
X188974100Y-120933652D01*
X188008900Y-120933652D01*
X188008900Y-120821076D01*
X187907873Y-120313178D01*
X187709701Y-119834749D01*
X187422000Y-119404174D01*
X187055826Y-119038000D01*
X186625251Y-118750299D01*
X186146822Y-118552127D01*
X185638924Y-118451100D01*
X185121076Y-118451100D01*
X184613178Y-118552127D01*
X184134749Y-118750299D01*
X183704174Y-119038000D01*
X183633763Y-119108411D01*
X183705000Y-118750279D01*
X183705000Y-118329721D01*
X183622953Y-117917244D01*
X183462012Y-117528698D01*
X183228363Y-117179017D01*
X182930983Y-116881637D01*
X182581302Y-116647988D01*
X182192756Y-116487047D01*
X181780279Y-116405000D01*
X181359721Y-116405000D01*
X180947244Y-116487047D01*
X180558698Y-116647988D01*
X180209017Y-116881637D01*
X179911637Y-117179017D01*
X179677988Y-117528698D01*
X179517047Y-117917244D01*
X179435000Y-118329721D01*
X179435000Y-118750279D01*
X179517047Y-119162756D01*
X179677988Y-119551302D01*
X179771150Y-119690730D01*
X179596162Y-119763212D01*
X179352794Y-119925826D01*
X179145826Y-120132794D01*
X178983212Y-120376162D01*
X178871202Y-120646579D01*
X178814100Y-120933652D01*
X172895900Y-120933652D01*
X172838798Y-120646579D01*
X172726788Y-120376162D01*
X172564174Y-120132794D01*
X172357206Y-119925826D01*
X172113838Y-119763212D01*
X171843421Y-119651202D01*
X171556348Y-119594100D01*
X171263652Y-119594100D01*
X170976579Y-119651202D01*
X170706162Y-119763212D01*
X170462794Y-119925826D01*
X170255826Y-120132794D01*
X170093212Y-120376162D01*
X169981202Y-120646579D01*
X169924100Y-120933652D01*
X168958900Y-120933652D01*
X168958900Y-120821076D01*
X168857873Y-120313178D01*
X168659701Y-119834749D01*
X168372000Y-119404174D01*
X168005826Y-119038000D01*
X167575251Y-118750299D01*
X167096822Y-118552127D01*
X166588924Y-118451100D01*
X166071076Y-118451100D01*
X165563178Y-118552127D01*
X165084749Y-118750299D01*
X164654174Y-119038000D01*
X164583763Y-119108411D01*
X164655000Y-118750279D01*
X164655000Y-118329721D01*
X164572953Y-117917244D01*
X164412012Y-117528698D01*
X164178363Y-117179017D01*
X163880983Y-116881637D01*
X163531302Y-116647988D01*
X163142756Y-116487047D01*
X162730279Y-116405000D01*
X162309721Y-116405000D01*
X161897244Y-116487047D01*
X161508698Y-116647988D01*
X161159017Y-116881637D01*
X160861637Y-117179017D01*
X160627988Y-117528698D01*
X160467047Y-117917244D01*
X160385000Y-118329721D01*
X160385000Y-118750279D01*
X160467047Y-119162756D01*
X160627988Y-119551302D01*
X160721150Y-119690730D01*
X160546162Y-119763212D01*
X160302794Y-119925826D01*
X160095826Y-120132794D01*
X159933212Y-120376162D01*
X159821202Y-120646579D01*
X159764100Y-120933652D01*
X159530000Y-120933652D01*
X159530000Y-119243711D01*
X159573937Y-119199774D01*
X159687205Y-119030256D01*
X159765226Y-118841898D01*
X159805000Y-118641939D01*
X159805000Y-118438061D01*
X159765226Y-118238102D01*
X159687205Y-118049744D01*
X159573937Y-117880226D01*
X159429774Y-117736063D01*
X159260256Y-117622795D01*
X159071898Y-117544774D01*
X158871939Y-117505000D01*
X158668061Y-117505000D01*
X158468102Y-117544774D01*
X158279744Y-117622795D01*
X158110226Y-117736063D01*
X157966063Y-117880226D01*
X157852795Y-118049744D01*
X157774774Y-118238102D01*
X157735000Y-118438061D01*
X157735000Y-118641939D01*
X157774774Y-118841898D01*
X157852795Y-119030256D01*
X157966063Y-119199774D01*
X158010000Y-119243711D01*
X158010001Y-127032668D01*
X158006324Y-127070000D01*
X158010001Y-127107333D01*
X158020998Y-127218986D01*
X158032851Y-127258062D01*
X158064454Y-127362246D01*
X158135026Y-127494276D01*
X158199670Y-127573044D01*
X158230000Y-127610001D01*
X158258998Y-127633799D01*
X160186201Y-129561003D01*
X160209999Y-129590001D01*
X160325724Y-129684974D01*
X160457753Y-129755546D01*
X160601014Y-129799003D01*
X160712667Y-129810000D01*
X160712677Y-129810000D01*
X160750000Y-129813676D01*
X160787323Y-129810000D01*
X169722678Y-129810000D01*
X169760000Y-129813676D01*
X169797322Y-129810000D01*
X169797333Y-129810000D01*
X169908986Y-129799003D01*
X170052247Y-129755546D01*
X170184276Y-129684974D01*
X170300001Y-129590001D01*
X170323804Y-129560997D01*
X173614802Y-126270000D01*
X174175679Y-126270000D01*
X173924774Y-126520905D01*
X173652821Y-126927911D01*
X173465497Y-127380152D01*
X173370000Y-127860249D01*
X173370000Y-128349751D01*
X173465497Y-128829848D01*
X173652821Y-129282089D01*
X173924774Y-129689095D01*
X174270905Y-130035226D01*
X174677911Y-130307179D01*
X175130152Y-130494503D01*
X175610249Y-130590000D01*
X176099751Y-130590000D01*
X176579848Y-130494503D01*
X177032089Y-130307179D01*
X177439095Y-130035226D01*
X177785226Y-129689095D01*
X178057179Y-129282089D01*
X178244503Y-128829848D01*
X178340000Y-128349751D01*
X178340000Y-127860249D01*
X178244503Y-127380152D01*
X178057179Y-126927911D01*
X177785226Y-126520905D01*
X177534321Y-126270000D01*
X177715199Y-126270000D01*
X180526201Y-129081003D01*
X180549999Y-129110001D01*
X180578997Y-129133799D01*
X180665724Y-129204974D01*
X180797753Y-129275546D01*
X180941014Y-129319003D01*
X181090000Y-129333677D01*
X181127333Y-129330000D01*
X210228678Y-129330000D01*
X210266000Y-129333676D01*
X210303322Y-129330000D01*
X210303333Y-129330000D01*
X210414986Y-129319003D01*
X210558247Y-129275546D01*
X210690276Y-129204974D01*
X210806001Y-129110001D01*
X210829804Y-129080997D01*
X212011004Y-127899798D01*
X212040001Y-127876001D01*
X212134974Y-127760276D01*
X212205546Y-127628247D01*
X212249003Y-127484986D01*
X212260000Y-127373333D01*
X212260000Y-127373332D01*
X212263677Y-127336000D01*
X212260000Y-127298667D01*
X212260000Y-126983330D01*
X212957278Y-126983330D01*
X213047147Y-127229123D01*
X213183241Y-127452660D01*
X213360330Y-127645351D01*
X213571608Y-127799792D01*
X213808956Y-127910047D01*
X213916671Y-127942716D01*
X214123000Y-127819374D01*
X214123000Y-126777000D01*
X214377000Y-126777000D01*
X214377000Y-127819374D01*
X214583329Y-127942716D01*
X214691044Y-127910047D01*
X214928392Y-127799792D01*
X215139670Y-127645351D01*
X215316759Y-127452660D01*
X215452853Y-127229123D01*
X215542722Y-126983330D01*
X215420201Y-126777000D01*
X214377000Y-126777000D01*
X214123000Y-126777000D01*
X213079799Y-126777000D01*
X212957278Y-126983330D01*
X212260000Y-126983330D01*
X212260000Y-126316670D01*
X212957278Y-126316670D01*
X213079799Y-126523000D01*
X214123000Y-126523000D01*
X214123000Y-125480626D01*
X214377000Y-125480626D01*
X214377000Y-126523000D01*
X215420201Y-126523000D01*
X215542722Y-126316670D01*
X215452853Y-126070877D01*
X215316759Y-125847340D01*
X215139670Y-125654649D01*
X214928392Y-125500208D01*
X214691044Y-125389953D01*
X214583329Y-125357284D01*
X214377000Y-125480626D01*
X214123000Y-125480626D01*
X213916671Y-125357284D01*
X213808956Y-125389953D01*
X213571608Y-125500208D01*
X213360330Y-125654649D01*
X213183241Y-125847340D01*
X213047147Y-126070877D01*
X212957278Y-126316670D01*
X212260000Y-126316670D01*
X212260000Y-125834810D01*
X212463398Y-125698904D01*
X212673904Y-125488398D01*
X212839297Y-125240869D01*
X212953222Y-124965830D01*
X213011300Y-124673850D01*
X213011300Y-124376150D01*
X212953222Y-124084170D01*
X212839297Y-123809131D01*
X212673904Y-123561602D01*
X212463398Y-123351096D01*
X212319580Y-123255000D01*
X212463398Y-123158904D01*
X212673904Y-122948398D01*
X212839297Y-122700869D01*
X212953222Y-122425830D01*
X213011300Y-122133850D01*
X213011300Y-122068035D01*
X213066939Y-122202359D01*
X213213038Y-122421013D01*
X213398987Y-122606962D01*
X213617641Y-122753061D01*
X213860595Y-122853696D01*
X214118514Y-122905000D01*
X214381486Y-122905000D01*
X214639405Y-122853696D01*
X214882359Y-122753061D01*
X215101013Y-122606962D01*
X215286962Y-122421013D01*
X215433061Y-122202359D01*
X215533696Y-121959405D01*
X215585000Y-121701486D01*
X215585000Y-121438514D01*
X215563645Y-121331156D01*
X215868376Y-121026426D01*
X215852795Y-121049744D01*
X215774774Y-121238102D01*
X215735000Y-121438061D01*
X215735000Y-121641939D01*
X215774774Y-121841898D01*
X215852795Y-122030256D01*
X215910000Y-122115870D01*
X215910001Y-128498288D01*
X215782063Y-128626226D01*
X215668795Y-128795744D01*
X215590774Y-128984102D01*
X215551000Y-129184061D01*
X215551000Y-129387939D01*
X215590774Y-129587898D01*
X215668795Y-129776256D01*
X215782063Y-129945774D01*
X215926226Y-130089937D01*
X216095744Y-130203205D01*
X216284102Y-130281226D01*
X216484061Y-130321000D01*
X216687939Y-130321000D01*
X216887898Y-130281226D01*
X217076256Y-130203205D01*
X217245774Y-130089937D01*
X217389937Y-129945774D01*
X217503205Y-129776256D01*
X217581226Y-129587898D01*
X217621000Y-129387939D01*
X217621000Y-129235622D01*
X217630000Y-129144246D01*
X217630000Y-129144240D01*
X217634160Y-129102001D01*
X217630000Y-129059762D01*
X217630000Y-127621269D01*
X223778336Y-127621269D01*
X223837797Y-127855037D01*
X224076242Y-127965934D01*
X224331740Y-128028183D01*
X224594473Y-128039390D01*
X224854344Y-127999125D01*
X225101366Y-127908935D01*
X225202203Y-127855037D01*
X225261664Y-127621269D01*
X224520000Y-126879605D01*
X223778336Y-127621269D01*
X217630000Y-127621269D01*
X217630000Y-126774473D01*
X223180610Y-126774473D01*
X223220875Y-127034344D01*
X223311065Y-127281366D01*
X223364963Y-127382203D01*
X223598731Y-127441664D01*
X224340395Y-126700000D01*
X223598731Y-125958336D01*
X223364963Y-126017797D01*
X223254066Y-126256242D01*
X223191817Y-126511740D01*
X223180610Y-126774473D01*
X217630000Y-126774473D01*
X217630000Y-125778731D01*
X223778336Y-125778731D01*
X224520000Y-126520395D01*
X224534143Y-126506253D01*
X224713748Y-126685858D01*
X224699605Y-126700000D01*
X225441269Y-127441664D01*
X225675037Y-127382203D01*
X225726285Y-127272012D01*
X225795905Y-127341632D01*
X226202911Y-127613585D01*
X226655152Y-127800909D01*
X227135249Y-127896406D01*
X227624751Y-127896406D01*
X228104848Y-127800909D01*
X228557089Y-127613585D01*
X228964095Y-127341632D01*
X229310226Y-126995501D01*
X229582179Y-126588495D01*
X229769503Y-126136254D01*
X229865000Y-125656157D01*
X229865000Y-125166655D01*
X229769503Y-124686558D01*
X229582179Y-124234317D01*
X229310226Y-123827311D01*
X228964095Y-123481180D01*
X228557089Y-123209227D01*
X228104848Y-123021903D01*
X227624751Y-122926406D01*
X227135249Y-122926406D01*
X226655152Y-123021903D01*
X226202911Y-123209227D01*
X225795905Y-123481180D01*
X225449774Y-123827311D01*
X225177821Y-124234317D01*
X224990497Y-124686558D01*
X224895000Y-125166655D01*
X224895000Y-125417314D01*
X224708260Y-125371817D01*
X224445527Y-125360610D01*
X224185656Y-125400875D01*
X223938634Y-125491065D01*
X223837797Y-125544963D01*
X223778336Y-125778731D01*
X217630000Y-125778731D01*
X217630000Y-125390854D01*
X217720423Y-125423945D01*
X217780583Y-125439504D01*
X217840407Y-125455871D01*
X217849846Y-125457417D01*
X217849853Y-125457419D01*
X217849861Y-125457419D01*
X217946253Y-125472516D01*
X218008231Y-125476091D01*
X218070166Y-125480531D01*
X218079725Y-125480214D01*
X218177230Y-125476299D01*
X218238698Y-125467770D01*
X218300333Y-125460094D01*
X218309648Y-125457927D01*
X218404535Y-125435148D01*
X218463223Y-125414826D01*
X218522152Y-125395338D01*
X218530869Y-125391402D01*
X218619202Y-125350774D01*
X218619519Y-125350631D01*
X218631764Y-125344999D01*
X220130132Y-125344999D01*
X220139264Y-125350420D01*
X220147954Y-125354415D01*
X220236896Y-125394562D01*
X220295712Y-125414463D01*
X220354230Y-125435178D01*
X220363527Y-125437409D01*
X220363532Y-125437411D01*
X220363537Y-125437412D01*
X220458576Y-125459517D01*
X220520125Y-125467613D01*
X220581565Y-125476570D01*
X220591122Y-125476953D01*
X220688651Y-125480178D01*
X220750616Y-125476164D01*
X220812619Y-125473016D01*
X220822068Y-125471535D01*
X220918366Y-125455754D01*
X220978362Y-125439783D01*
X221038566Y-125424654D01*
X221047547Y-125421366D01*
X221047556Y-125421363D01*
X221047559Y-125421361D01*
X221138947Y-125387182D01*
X221194686Y-125359868D01*
X221250827Y-125333323D01*
X221258999Y-125328354D01*
X221342018Y-125277068D01*
X221391429Y-125239418D01*
X221441308Y-125202501D01*
X221448359Y-125196039D01*
X221519835Y-125129604D01*
X221560960Y-125083110D01*
X221602740Y-125037184D01*
X221608402Y-125029475D01*
X221665614Y-124950423D01*
X221696929Y-124896822D01*
X221728999Y-124843645D01*
X221733055Y-124834983D01*
X221773822Y-124746323D01*
X221794113Y-124687705D01*
X221815256Y-124629277D01*
X221817553Y-124619992D01*
X221840323Y-124525103D01*
X221848850Y-124463598D01*
X221858234Y-124402230D01*
X221858683Y-124392677D01*
X221862588Y-124295172D01*
X221859008Y-124233208D01*
X221856292Y-124171166D01*
X221854878Y-124161707D01*
X221839769Y-124065300D01*
X221824220Y-124005204D01*
X221809508Y-123944883D01*
X221806284Y-123935879D01*
X221772739Y-123844243D01*
X221772737Y-123844240D01*
X221764999Y-123823100D01*
X221764999Y-122492731D01*
X221765140Y-122492264D01*
X221772624Y-122476988D01*
X221775911Y-122468006D01*
X221808807Y-122376135D01*
X221823932Y-122315922D01*
X221839897Y-122255924D01*
X221841377Y-122246475D01*
X221855802Y-122149964D01*
X221858943Y-122087981D01*
X221862952Y-122026006D01*
X221862568Y-122016449D01*
X221857973Y-121918975D01*
X221849012Y-121857543D01*
X221840908Y-121795981D01*
X221838678Y-121786694D01*
X221838677Y-121786686D01*
X221838674Y-121786679D01*
X221815235Y-121691956D01*
X221794509Y-121633428D01*
X221774606Y-121574624D01*
X221770610Y-121565935D01*
X221729215Y-121477566D01*
X221697543Y-121424223D01*
X221666572Y-121370361D01*
X221660964Y-121362614D01*
X221603195Y-121283969D01*
X221561745Y-121237772D01*
X221520920Y-121190972D01*
X221513914Y-121184461D01*
X221441969Y-121118534D01*
X221392324Y-121081259D01*
X221343198Y-121043289D01*
X221335061Y-121038263D01*
X221251681Y-120987566D01*
X221195720Y-120960634D01*
X221140181Y-120932942D01*
X221131223Y-120929592D01*
X221039584Y-120896055D01*
X220979470Y-120880508D01*
X220919587Y-120864125D01*
X220910149Y-120862579D01*
X220813742Y-120847481D01*
X220751759Y-120843906D01*
X220689836Y-120839467D01*
X220680277Y-120839783D01*
X220582771Y-120843699D01*
X220521312Y-120852226D01*
X220459667Y-120859904D01*
X220450352Y-120862071D01*
X220355465Y-120884850D01*
X220296778Y-120905171D01*
X220237854Y-120924658D01*
X220229137Y-120928593D01*
X220140482Y-120969368D01*
X220128237Y-120975000D01*
X218629868Y-120975000D01*
X218620736Y-120969579D01*
X218612046Y-120965584D01*
X218523104Y-120925437D01*
X218464281Y-120905533D01*
X218405771Y-120884821D01*
X218396471Y-120882589D01*
X218396468Y-120882588D01*
X218396465Y-120882588D01*
X218301426Y-120860482D01*
X218239863Y-120852384D01*
X218178436Y-120843429D01*
X218168879Y-120843046D01*
X218071349Y-120839821D01*
X218009396Y-120843834D01*
X217947389Y-120846982D01*
X217937940Y-120848463D01*
X217841642Y-120864243D01*
X217781666Y-120880209D01*
X217721435Y-120895344D01*
X217712453Y-120898632D01*
X217621054Y-120932816D01*
X217612031Y-120937238D01*
X217573937Y-120880226D01*
X217429774Y-120736063D01*
X217365433Y-120693072D01*
X217880000Y-120693072D01*
X218004482Y-120680812D01*
X218124180Y-120644502D01*
X218234494Y-120585537D01*
X218331185Y-120506185D01*
X218410537Y-120409494D01*
X218465976Y-120305777D01*
X218519956Y-120454814D01*
X218809571Y-120595704D01*
X219121108Y-120677384D01*
X219442595Y-120696718D01*
X219761675Y-120652961D01*
X220066088Y-120547795D01*
X220240044Y-120454814D01*
X220335808Y-120190413D01*
X219380000Y-119234605D01*
X219365858Y-119248748D01*
X219186253Y-119069143D01*
X219200395Y-119055000D01*
X219186253Y-119040858D01*
X219365858Y-118861253D01*
X219380000Y-118875395D01*
X220335808Y-117919587D01*
X220240044Y-117655186D01*
X219950429Y-117514296D01*
X219638892Y-117432616D01*
X219317405Y-117413282D01*
X218998325Y-117457039D01*
X218693912Y-117562205D01*
X218519956Y-117655186D01*
X218465976Y-117804223D01*
X218410537Y-117700506D01*
X218331185Y-117603815D01*
X218234494Y-117524463D01*
X218124180Y-117465498D01*
X218004482Y-117429188D01*
X217880000Y-117416928D01*
X216316729Y-117416928D01*
X216293804Y-117394003D01*
X216270001Y-117364999D01*
X216154276Y-117270026D01*
X216022247Y-117199454D01*
X215878986Y-117155997D01*
X215767333Y-117145000D01*
X215767322Y-117145000D01*
X215730000Y-117141324D01*
X215692678Y-117145000D01*
X212993169Y-117145000D01*
X213011300Y-117053850D01*
X213011300Y-116756150D01*
X212953222Y-116464170D01*
X212839297Y-116189131D01*
X212796446Y-116125000D01*
X220460199Y-116125000D01*
X221120000Y-116784802D01*
X221120000Y-117600091D01*
X221105537Y-117606082D01*
X220837748Y-117785013D01*
X220610013Y-118012748D01*
X220545075Y-118109935D01*
X220515413Y-118099192D01*
X219559605Y-119055000D01*
X220515413Y-120010808D01*
X220545075Y-120000065D01*
X220610013Y-120097252D01*
X220837748Y-120324987D01*
X221105537Y-120503918D01*
X221403088Y-120627168D01*
X221718967Y-120690000D01*
X222041033Y-120690000D01*
X222356912Y-120627168D01*
X222424409Y-120599210D01*
X223206355Y-121381157D01*
X223185000Y-121488514D01*
X223185000Y-121751486D01*
X223236304Y-122009405D01*
X223336939Y-122252359D01*
X223483038Y-122471013D01*
X223668987Y-122656962D01*
X223887641Y-122803061D01*
X224130595Y-122903696D01*
X224388514Y-122955000D01*
X224651486Y-122955000D01*
X224909405Y-122903696D01*
X225152359Y-122803061D01*
X225371013Y-122656962D01*
X225556962Y-122471013D01*
X225703061Y-122252359D01*
X225803696Y-122009405D01*
X225855000Y-121751486D01*
X225855000Y-121488514D01*
X225803696Y-121230595D01*
X225703061Y-120987641D01*
X225556962Y-120768987D01*
X225371013Y-120583038D01*
X225152359Y-120436939D01*
X224909405Y-120336304D01*
X224651486Y-120285000D01*
X224388514Y-120285000D01*
X224281157Y-120306355D01*
X223461218Y-119486416D01*
X223515000Y-119216033D01*
X223515000Y-118893967D01*
X223452168Y-118578088D01*
X223328918Y-118280537D01*
X223149987Y-118012748D01*
X222922252Y-117785013D01*
X222654463Y-117606082D01*
X222640000Y-117600091D01*
X222640000Y-116507322D01*
X222643676Y-116470000D01*
X222640000Y-116432677D01*
X222640000Y-116432667D01*
X222629003Y-116321014D01*
X222585546Y-116177753D01*
X222557349Y-116125000D01*
X222514974Y-116045723D01*
X222443799Y-115958997D01*
X222420001Y-115929999D01*
X222391004Y-115906202D01*
X221338804Y-114854002D01*
X221315001Y-114824999D01*
X221199276Y-114730026D01*
X221067247Y-114659454D01*
X220923986Y-114615997D01*
X220812333Y-114605000D01*
X220812322Y-114605000D01*
X220775000Y-114601324D01*
X220737678Y-114605000D01*
X212993169Y-114605000D01*
X213011300Y-114513850D01*
X213011300Y-114216150D01*
X212953222Y-113924170D01*
X212898919Y-113793072D01*
X214780000Y-113793072D01*
X214904482Y-113780812D01*
X215024180Y-113744502D01*
X215134494Y-113685537D01*
X215231185Y-113606185D01*
X215310537Y-113509494D01*
X215369502Y-113399180D01*
X215405812Y-113279482D01*
X215418072Y-113155000D01*
X215418072Y-110168701D01*
X216988977Y-110168701D01*
X217026299Y-110172377D01*
X217063621Y-110168701D01*
X217063632Y-110168701D01*
X217175285Y-110157704D01*
X217318546Y-110114247D01*
X217450575Y-110043675D01*
X217558625Y-109955000D01*
X223341928Y-109955000D01*
X223341928Y-113155000D01*
X223354188Y-113279482D01*
X223390498Y-113399180D01*
X223449463Y-113509494D01*
X223528815Y-113606185D01*
X223625506Y-113685537D01*
X223735820Y-113744502D01*
X223855518Y-113780812D01*
X223980000Y-113793072D01*
X225980000Y-113793072D01*
X226104482Y-113780812D01*
X226224180Y-113744502D01*
X226334494Y-113685537D01*
X226431185Y-113606185D01*
X226510537Y-113509494D01*
X226569502Y-113399180D01*
X226605812Y-113279482D01*
X226618072Y-113155000D01*
X226618072Y-109955000D01*
X226605812Y-109830518D01*
X226569502Y-109710820D01*
X226510537Y-109600506D01*
X226431185Y-109503815D01*
X226334494Y-109424463D01*
X226224180Y-109365498D01*
X226104482Y-109329188D01*
X225980000Y-109316928D01*
X223980000Y-109316928D01*
X223855518Y-109329188D01*
X223735820Y-109365498D01*
X223625506Y-109424463D01*
X223528815Y-109503815D01*
X223449463Y-109600506D01*
X223390498Y-109710820D01*
X223354188Y-109830518D01*
X223341928Y-109955000D01*
X217558625Y-109955000D01*
X217566300Y-109948702D01*
X217590103Y-109919698D01*
X221388625Y-106121177D01*
X221403088Y-106127168D01*
X221718967Y-106190000D01*
X222041033Y-106190000D01*
X222356912Y-106127168D01*
X222654463Y-106003918D01*
X222922252Y-105824987D01*
X223149987Y-105597252D01*
X223328918Y-105329463D01*
X223452168Y-105031912D01*
X223515000Y-104716033D01*
X223515000Y-104393967D01*
X223452168Y-104078088D01*
X223328918Y-103780537D01*
X223149987Y-103512748D01*
X222922252Y-103285013D01*
X222654463Y-103106082D01*
X222356912Y-102982832D01*
X222041033Y-102920000D01*
X221718967Y-102920000D01*
X221403088Y-102982832D01*
X221105537Y-103106082D01*
X220837748Y-103285013D01*
X220610013Y-103512748D01*
X220431082Y-103780537D01*
X220307832Y-104078088D01*
X220245000Y-104393967D01*
X220245000Y-104716033D01*
X220307832Y-105031912D01*
X220313823Y-105046375D01*
X216711498Y-108648701D01*
X212872256Y-108648701D01*
X212839297Y-108569131D01*
X212673904Y-108321602D01*
X212463398Y-108111096D01*
X212319580Y-108015000D01*
X212463398Y-107918904D01*
X212673904Y-107708398D01*
X212839297Y-107460869D01*
X212858168Y-107415310D01*
X212924276Y-107379974D01*
X213040001Y-107285001D01*
X213063804Y-107255997D01*
X215004802Y-105315000D01*
X215425091Y-105315000D01*
X215431082Y-105329463D01*
X215610013Y-105597252D01*
X215837748Y-105824987D01*
X216105537Y-106003918D01*
X216403088Y-106127168D01*
X216718967Y-106190000D01*
X217041033Y-106190000D01*
X217356912Y-106127168D01*
X217654463Y-106003918D01*
X217922252Y-105824987D01*
X218149987Y-105597252D01*
X218328918Y-105329463D01*
X218452168Y-105031912D01*
X218515000Y-104716033D01*
X218515000Y-104393967D01*
X218452168Y-104078088D01*
X218328918Y-103780537D01*
X218149987Y-103512748D01*
X217922252Y-103285013D01*
X217654463Y-103106082D01*
X217356912Y-102982832D01*
X217041033Y-102920000D01*
X216718967Y-102920000D01*
X216403088Y-102982832D01*
X216105537Y-103106082D01*
X215837748Y-103285013D01*
X215610013Y-103512748D01*
X215431082Y-103780537D01*
X215425091Y-103795000D01*
X214727325Y-103795000D01*
X214690000Y-103791324D01*
X214652675Y-103795000D01*
X214652667Y-103795000D01*
X214541014Y-103805997D01*
X214397753Y-103849454D01*
X214265724Y-103920026D01*
X214149999Y-104014999D01*
X214126201Y-104043997D01*
X212531250Y-105638948D01*
X212463398Y-105571096D01*
X212319580Y-105475000D01*
X212463398Y-105378904D01*
X212673904Y-105168398D01*
X212772335Y-105021086D01*
X212830700Y-105003381D01*
X212980102Y-104923524D01*
X213111054Y-104816054D01*
X213137988Y-104783235D01*
X216917906Y-101003317D01*
X216904198Y-101095040D01*
X216901057Y-101157032D01*
X216897049Y-101218992D01*
X216897433Y-101228548D01*
X216902028Y-101326023D01*
X216910989Y-101387455D01*
X216919093Y-101449017D01*
X216921325Y-101458317D01*
X216944766Y-101553042D01*
X216965492Y-101611570D01*
X216985395Y-101670374D01*
X216989392Y-101679063D01*
X217030786Y-101767433D01*
X217062468Y-101820792D01*
X217093429Y-101874637D01*
X217099037Y-101882384D01*
X217156806Y-101961029D01*
X217198256Y-102007226D01*
X217239081Y-102054026D01*
X217246087Y-102060537D01*
X217318032Y-102126464D01*
X217367663Y-102163729D01*
X217416800Y-102201707D01*
X217424937Y-102206733D01*
X217508316Y-102257430D01*
X217564274Y-102284362D01*
X217619825Y-102312059D01*
X217628784Y-102315409D01*
X217720423Y-102348945D01*
X217780583Y-102364504D01*
X217840407Y-102380871D01*
X217849846Y-102382417D01*
X217849853Y-102382419D01*
X217849861Y-102382419D01*
X217946253Y-102397516D01*
X218008231Y-102401091D01*
X218070166Y-102405531D01*
X218079725Y-102405214D01*
X218177230Y-102401299D01*
X218238698Y-102392770D01*
X218300333Y-102385094D01*
X218309648Y-102382927D01*
X218404535Y-102360148D01*
X218463223Y-102339826D01*
X218522152Y-102320338D01*
X218530869Y-102316402D01*
X218619202Y-102275774D01*
X218619519Y-102275631D01*
X218631764Y-102269999D01*
X220130132Y-102269999D01*
X220139264Y-102275420D01*
X220147954Y-102279415D01*
X220236896Y-102319562D01*
X220295712Y-102339463D01*
X220354230Y-102360178D01*
X220363527Y-102362409D01*
X220363532Y-102362411D01*
X220363537Y-102362412D01*
X220458576Y-102384517D01*
X220520125Y-102392613D01*
X220581565Y-102401570D01*
X220591122Y-102401953D01*
X220688651Y-102405178D01*
X220750616Y-102401164D01*
X220812619Y-102398016D01*
X220822068Y-102396535D01*
X220918366Y-102380754D01*
X220978362Y-102364783D01*
X221038566Y-102349654D01*
X221047547Y-102346366D01*
X221047556Y-102346363D01*
X221047559Y-102346361D01*
X221138947Y-102312182D01*
X221194686Y-102284868D01*
X221250827Y-102258323D01*
X221258999Y-102253354D01*
X221342018Y-102202068D01*
X221391429Y-102164418D01*
X221441308Y-102127501D01*
X221448359Y-102121039D01*
X221519835Y-102054604D01*
X221560960Y-102008110D01*
X221602740Y-101962184D01*
X221608402Y-101954475D01*
X221665614Y-101875423D01*
X221696929Y-101821822D01*
X221728999Y-101768645D01*
X221733055Y-101759983D01*
X221773822Y-101671323D01*
X221794113Y-101612705D01*
X221815256Y-101554277D01*
X221817553Y-101544992D01*
X221840323Y-101450103D01*
X221848850Y-101388598D01*
X221858234Y-101327230D01*
X221858683Y-101317677D01*
X221862588Y-101220172D01*
X221859008Y-101158208D01*
X221856292Y-101096166D01*
X221854878Y-101086707D01*
X221839769Y-100990300D01*
X221824220Y-100930204D01*
X221809508Y-100869883D01*
X221806284Y-100860879D01*
X221772739Y-100769243D01*
X221772737Y-100769240D01*
X221764999Y-100748100D01*
X221764999Y-99417731D01*
X221765140Y-99417264D01*
X221772624Y-99401988D01*
X221775911Y-99393006D01*
X221808807Y-99301135D01*
X221823932Y-99240922D01*
X221839897Y-99180924D01*
X221841377Y-99171475D01*
X221855802Y-99074964D01*
X221858943Y-99012981D01*
X221862952Y-98951006D01*
X221862568Y-98941449D01*
X221857973Y-98843975D01*
X221849012Y-98782543D01*
X221840908Y-98720981D01*
X221838678Y-98711694D01*
X221838677Y-98711686D01*
X221838674Y-98711679D01*
X221815235Y-98616956D01*
X221794509Y-98558428D01*
X221774606Y-98499624D01*
X221770610Y-98490935D01*
X221729215Y-98402566D01*
X221697543Y-98349223D01*
X221666572Y-98295361D01*
X221660964Y-98287614D01*
X221603195Y-98208969D01*
X221561745Y-98162772D01*
X221520920Y-98115972D01*
X221513914Y-98109461D01*
X221441969Y-98043534D01*
X221392324Y-98006259D01*
X221343198Y-97968289D01*
X221335061Y-97963263D01*
X221251681Y-97912566D01*
X221195720Y-97885634D01*
X221140181Y-97857942D01*
X221131223Y-97854592D01*
X221039584Y-97821055D01*
X220979470Y-97805508D01*
X220919587Y-97789125D01*
X220910149Y-97787579D01*
X220813742Y-97772481D01*
X220751759Y-97768906D01*
X220689836Y-97764467D01*
X220680277Y-97764783D01*
X220582771Y-97768699D01*
X220521312Y-97777226D01*
X220459667Y-97784904D01*
X220450352Y-97787071D01*
X220355465Y-97809850D01*
X220296778Y-97830171D01*
X220237854Y-97849658D01*
X220229137Y-97853593D01*
X220140482Y-97894368D01*
X220128237Y-97900000D01*
X218629868Y-97900000D01*
X218620736Y-97894579D01*
X218612046Y-97890584D01*
X218523104Y-97850437D01*
X218464281Y-97830533D01*
X218405771Y-97809821D01*
X218396471Y-97807589D01*
X218396468Y-97807588D01*
X218396465Y-97807588D01*
X218301426Y-97785482D01*
X218239863Y-97777384D01*
X218178436Y-97768429D01*
X218168879Y-97768046D01*
X218071349Y-97764821D01*
X218009396Y-97768834D01*
X217947389Y-97771982D01*
X217937940Y-97773463D01*
X217841642Y-97789243D01*
X217781666Y-97805209D01*
X217721435Y-97820344D01*
X217712453Y-97823632D01*
X217621054Y-97857816D01*
X217565316Y-97885129D01*
X217509174Y-97911675D01*
X217501002Y-97916644D01*
X217469995Y-97935799D01*
X217416164Y-97855236D01*
X217272001Y-97711073D01*
X217102483Y-97597805D01*
X216968496Y-97542305D01*
X217056958Y-97453843D01*
X224895000Y-97453843D01*
X224895000Y-97943345D01*
X224990497Y-98423442D01*
X225177821Y-98875683D01*
X225449774Y-99282689D01*
X225795905Y-99628820D01*
X226202911Y-99900773D01*
X226655152Y-100088097D01*
X227135249Y-100183594D01*
X227624751Y-100183594D01*
X228104848Y-100088097D01*
X228557089Y-99900773D01*
X228964095Y-99628820D01*
X229310226Y-99282689D01*
X229582179Y-98875683D01*
X229769503Y-98423442D01*
X229865000Y-97943345D01*
X229865000Y-97453843D01*
X229769503Y-96973746D01*
X229582179Y-96521505D01*
X229310226Y-96114499D01*
X228964095Y-95768368D01*
X228557089Y-95496415D01*
X228104848Y-95309091D01*
X227624751Y-95213594D01*
X227135249Y-95213594D01*
X226655152Y-95309091D01*
X226202911Y-95496415D01*
X225795905Y-95768368D01*
X225449774Y-96114499D01*
X225177821Y-96521505D01*
X224990497Y-96973746D01*
X224895000Y-97453843D01*
X217056958Y-97453843D01*
X218001003Y-96509799D01*
X218030001Y-96486001D01*
X218124974Y-96370276D01*
X218195546Y-96238247D01*
X218239003Y-96094986D01*
X218250000Y-95983333D01*
X218250000Y-95983324D01*
X218253676Y-95946001D01*
X218250000Y-95908678D01*
X218250000Y-95148178D01*
X218436632Y-95023475D01*
X218643475Y-94816632D01*
X218805990Y-94573411D01*
X218917932Y-94303158D01*
X218975000Y-94016260D01*
X218975000Y-93723740D01*
X218917932Y-93436842D01*
X218805990Y-93166589D01*
X218643475Y-92923368D01*
X218436632Y-92716525D01*
X218193411Y-92554010D01*
X217923158Y-92442068D01*
X217636260Y-92385000D01*
X217343740Y-92385000D01*
X217056842Y-92442068D01*
X216786589Y-92554010D01*
X216543368Y-92716525D01*
X216411513Y-92848380D01*
X216389502Y-92775820D01*
X216330537Y-92665506D01*
X216251185Y-92568815D01*
X216154494Y-92489463D01*
X216044180Y-92430498D01*
X215924482Y-92394188D01*
X215800000Y-92381928D01*
X215235750Y-92385000D01*
X215077000Y-92543750D01*
X215077000Y-93743000D01*
X215097000Y-93743000D01*
X215097000Y-93997000D01*
X215077000Y-93997000D01*
X215077000Y-95196250D01*
X215235750Y-95355000D01*
X215800000Y-95358072D01*
X215924482Y-95345812D01*
X216044180Y-95309502D01*
X216154494Y-95250537D01*
X216251185Y-95171185D01*
X216330537Y-95074494D01*
X216389502Y-94964180D01*
X216411513Y-94891620D01*
X216543368Y-95023475D01*
X216730001Y-95148179D01*
X216730001Y-95631197D01*
X214627003Y-97734196D01*
X214597999Y-97757999D01*
X214551082Y-97815168D01*
X214503026Y-97873724D01*
X214434250Y-98002394D01*
X214432454Y-98005754D01*
X214388997Y-98149015D01*
X214378000Y-98260668D01*
X214378000Y-98260678D01*
X214374324Y-98298000D01*
X214378000Y-98335323D01*
X214378001Y-100015197D01*
X213488199Y-100905000D01*
X212809810Y-100905000D01*
X212673904Y-100701602D01*
X212463398Y-100491096D01*
X212300191Y-100382045D01*
X212367563Y-100172169D01*
X211500000Y-99304605D01*
X210632437Y-100172169D01*
X210699809Y-100382045D01*
X210536602Y-100491096D01*
X210350000Y-100677698D01*
X210350000Y-99959553D01*
X210452831Y-99992563D01*
X211320395Y-99125000D01*
X211679605Y-99125000D01*
X212547169Y-99992563D01*
X212798929Y-99911746D01*
X212927457Y-99643221D01*
X213001129Y-99354781D01*
X213017113Y-99057509D01*
X212974796Y-98762833D01*
X212875802Y-98482073D01*
X212798929Y-98338254D01*
X212547169Y-98257437D01*
X211679605Y-99125000D01*
X211320395Y-99125000D01*
X210452831Y-98257437D01*
X210350000Y-98290447D01*
X210350000Y-97572302D01*
X210536602Y-97758904D01*
X210699809Y-97867955D01*
X210632437Y-98077831D01*
X211500000Y-98945395D01*
X212367563Y-98077831D01*
X212300191Y-97867955D01*
X212463398Y-97758904D01*
X212673904Y-97548398D01*
X212839297Y-97300869D01*
X212953222Y-97025830D01*
X213011300Y-96733850D01*
X213011300Y-96436150D01*
X212953222Y-96144170D01*
X212839297Y-95869131D01*
X212673904Y-95621602D01*
X212463398Y-95411096D01*
X212215869Y-95245703D01*
X211940830Y-95131778D01*
X211648850Y-95073700D01*
X211351150Y-95073700D01*
X211059170Y-95131778D01*
X210784131Y-95245703D01*
X210536602Y-95411096D01*
X210350000Y-95597698D01*
X210350000Y-94720000D01*
X213461928Y-94720000D01*
X213474188Y-94844482D01*
X213510498Y-94964180D01*
X213569463Y-95074494D01*
X213648815Y-95171185D01*
X213745506Y-95250537D01*
X213855820Y-95309502D01*
X213975518Y-95345812D01*
X214100000Y-95358072D01*
X214664250Y-95355000D01*
X214823000Y-95196250D01*
X214823000Y-93997000D01*
X213623750Y-93997000D01*
X213465000Y-94155750D01*
X213461928Y-94720000D01*
X210350000Y-94720000D01*
X210350000Y-93020000D01*
X213461928Y-93020000D01*
X213465000Y-93584250D01*
X213623750Y-93743000D01*
X214823000Y-93743000D01*
X214823000Y-92543750D01*
X214664250Y-92385000D01*
X214100000Y-92381928D01*
X213975518Y-92394188D01*
X213855820Y-92430498D01*
X213745506Y-92489463D01*
X213648815Y-92568815D01*
X213569463Y-92665506D01*
X213510498Y-92775820D01*
X213474188Y-92895518D01*
X213461928Y-93020000D01*
X210350000Y-93020000D01*
X210350000Y-92220000D01*
X219365321Y-92220000D01*
X221098706Y-92297197D01*
X222803819Y-92526222D01*
X224481811Y-92905913D01*
X226119415Y-93433267D01*
X227703645Y-94104102D01*
X229221976Y-94913112D01*
X230662394Y-95853901D01*
X232013458Y-96918994D01*
X233264504Y-98099984D01*
X234405606Y-99387499D01*
X235427747Y-100771366D01*
X236322816Y-102240608D01*
X237083738Y-103783603D01*
X237704480Y-105388128D01*
X238180136Y-107041486D01*
X238506933Y-108730582D01*
X238682287Y-110442044D01*
X238704806Y-112162299D01*
X238574313Y-113877773D01*
X238291845Y-115574833D01*
X237859634Y-117240073D01*
X237281099Y-118860310D01*
X236560832Y-120422692D01*
X235704526Y-121914864D01*
X234718970Y-123325002D01*
X233611950Y-124641960D01*
X232392253Y-125855287D01*
X231069527Y-126955386D01*
X229654243Y-127933549D01*
X228157614Y-128782025D01*
X226591472Y-129494108D01*
X224968237Y-130064147D01*
X223300765Y-130487631D01*
X221602234Y-130761212D01*
X219875748Y-130883454D01*
X219375715Y-130890000D01*
X156837279Y-130890000D01*
X156739576Y-130880420D01*
X156676643Y-130861420D01*
X156618594Y-130830554D01*
X156567657Y-130789011D01*
X156525752Y-130738356D01*
X156494485Y-130680529D01*
X156475044Y-130617728D01*
X156465000Y-130522165D01*
X156465000Y-115789721D01*
X166735000Y-115789721D01*
X166735000Y-116210279D01*
X166817047Y-116622756D01*
X166977988Y-117011302D01*
X167211637Y-117360983D01*
X167509017Y-117658363D01*
X167858698Y-117892012D01*
X168247244Y-118052953D01*
X168659721Y-118135000D01*
X169080279Y-118135000D01*
X169492756Y-118052953D01*
X169881302Y-117892012D01*
X170230983Y-117658363D01*
X170528363Y-117360983D01*
X170762012Y-117011302D01*
X170922953Y-116622756D01*
X171005000Y-116210279D01*
X171005000Y-115789721D01*
X185785000Y-115789721D01*
X185785000Y-116210279D01*
X185867047Y-116622756D01*
X186027988Y-117011302D01*
X186261637Y-117360983D01*
X186559017Y-117658363D01*
X186908698Y-117892012D01*
X187297244Y-118052953D01*
X187709721Y-118135000D01*
X188130279Y-118135000D01*
X188542756Y-118052953D01*
X188931302Y-117892012D01*
X189280983Y-117658363D01*
X189578363Y-117360983D01*
X189812012Y-117011302D01*
X189972953Y-116622756D01*
X190055000Y-116210279D01*
X190055000Y-115789721D01*
X189972953Y-115377244D01*
X189812012Y-114988698D01*
X189578363Y-114639017D01*
X189280983Y-114341637D01*
X188931302Y-114107988D01*
X188542756Y-113947047D01*
X188130279Y-113865000D01*
X187709721Y-113865000D01*
X187297244Y-113947047D01*
X186908698Y-114107988D01*
X186559017Y-114341637D01*
X186261637Y-114639017D01*
X186027988Y-114988698D01*
X185867047Y-115377244D01*
X185785000Y-115789721D01*
X171005000Y-115789721D01*
X170922953Y-115377244D01*
X170762012Y-114988698D01*
X170528363Y-114639017D01*
X170230983Y-114341637D01*
X169881302Y-114107988D01*
X169492756Y-113947047D01*
X169080279Y-113865000D01*
X168659721Y-113865000D01*
X168247244Y-113947047D01*
X167858698Y-114107988D01*
X167509017Y-114341637D01*
X167211637Y-114639017D01*
X166977988Y-114988698D01*
X166817047Y-115377244D01*
X166735000Y-115789721D01*
X156465000Y-115789721D01*
X156465000Y-99388061D01*
X157735000Y-99388061D01*
X157735000Y-99591939D01*
X157774774Y-99791898D01*
X157852795Y-99980256D01*
X157966063Y-100149774D01*
X158010001Y-100193712D01*
X158010000Y-105682677D01*
X158006324Y-105720000D01*
X158010000Y-105757322D01*
X158010000Y-105757332D01*
X158020997Y-105868985D01*
X158061194Y-106001499D01*
X158064454Y-106012246D01*
X158135026Y-106144276D01*
X158167985Y-106184436D01*
X158229999Y-106260001D01*
X158259003Y-106283804D01*
X163696205Y-111721008D01*
X163719999Y-111750001D01*
X163748992Y-111773795D01*
X163748996Y-111773799D01*
X163819685Y-111831811D01*
X163835724Y-111844974D01*
X163967753Y-111915546D01*
X164111014Y-111959003D01*
X164222667Y-111970000D01*
X164222676Y-111970000D01*
X164259999Y-111973676D01*
X164297322Y-111970000D01*
X164816289Y-111970000D01*
X164860226Y-112013937D01*
X165029744Y-112127205D01*
X165218102Y-112205226D01*
X165418061Y-112245000D01*
X165621939Y-112245000D01*
X165821898Y-112205226D01*
X166010256Y-112127205D01*
X166179774Y-112013937D01*
X166323937Y-111869774D01*
X166348288Y-111833329D01*
X178397284Y-111833329D01*
X178429953Y-111941044D01*
X178540208Y-112178392D01*
X178694649Y-112389670D01*
X178887340Y-112566759D01*
X179110877Y-112702853D01*
X179356670Y-112792722D01*
X179563000Y-112670201D01*
X179563000Y-111627000D01*
X179817000Y-111627000D01*
X179817000Y-112670201D01*
X180023330Y-112792722D01*
X180269123Y-112702853D01*
X180492660Y-112566759D01*
X180685351Y-112389670D01*
X180839792Y-112178392D01*
X180950047Y-111941044D01*
X180982716Y-111833329D01*
X180859374Y-111627000D01*
X179817000Y-111627000D01*
X179563000Y-111627000D01*
X178520626Y-111627000D01*
X178397284Y-111833329D01*
X166348288Y-111833329D01*
X166437205Y-111700256D01*
X166515226Y-111511898D01*
X166555000Y-111311939D01*
X166555000Y-111166671D01*
X178397284Y-111166671D01*
X178520626Y-111373000D01*
X179563000Y-111373000D01*
X179563000Y-110329799D01*
X179817000Y-110329799D01*
X179817000Y-111373000D01*
X180859374Y-111373000D01*
X180862055Y-111368514D01*
X183435000Y-111368514D01*
X183435000Y-111631486D01*
X183486304Y-111889405D01*
X183586939Y-112132359D01*
X183733038Y-112351013D01*
X183918987Y-112536962D01*
X184137641Y-112683061D01*
X184380595Y-112783696D01*
X184638514Y-112835000D01*
X184901486Y-112835000D01*
X185159405Y-112783696D01*
X185402359Y-112683061D01*
X185621013Y-112536962D01*
X185806962Y-112351013D01*
X185953061Y-112132359D01*
X185983726Y-112058328D01*
X186030208Y-112158392D01*
X186184649Y-112369670D01*
X186377340Y-112546759D01*
X186600877Y-112682853D01*
X186846670Y-112772722D01*
X187053000Y-112650201D01*
X187053000Y-111607000D01*
X187307000Y-111607000D01*
X187307000Y-112650201D01*
X187513330Y-112772722D01*
X187759123Y-112682853D01*
X187982660Y-112546759D01*
X188175351Y-112369670D01*
X188329792Y-112158392D01*
X188440047Y-111921044D01*
X188472716Y-111813329D01*
X188349374Y-111607000D01*
X187307000Y-111607000D01*
X187053000Y-111607000D01*
X187033000Y-111607000D01*
X187033000Y-111353000D01*
X187053000Y-111353000D01*
X187053000Y-110309799D01*
X187307000Y-110309799D01*
X187307000Y-111353000D01*
X188349374Y-111353000D01*
X188472716Y-111146671D01*
X188440047Y-111038956D01*
X188329792Y-110801608D01*
X188175351Y-110590330D01*
X187982660Y-110413241D01*
X187759123Y-110277147D01*
X187513330Y-110187278D01*
X187307000Y-110309799D01*
X187053000Y-110309799D01*
X186846670Y-110187278D01*
X186600877Y-110277147D01*
X186377340Y-110413241D01*
X186184649Y-110590330D01*
X186030208Y-110801608D01*
X185974967Y-110920526D01*
X185953061Y-110867641D01*
X185806962Y-110648987D01*
X185621013Y-110463038D01*
X185402359Y-110316939D01*
X185159405Y-110216304D01*
X184901486Y-110165000D01*
X184638514Y-110165000D01*
X184380595Y-110216304D01*
X184137641Y-110316939D01*
X183918987Y-110463038D01*
X183733038Y-110648987D01*
X183586939Y-110867641D01*
X183486304Y-111110595D01*
X183435000Y-111368514D01*
X180862055Y-111368514D01*
X180982716Y-111166671D01*
X180950047Y-111058956D01*
X180839792Y-110821608D01*
X180685351Y-110610330D01*
X180492660Y-110433241D01*
X180269123Y-110297147D01*
X180023330Y-110207278D01*
X179817000Y-110329799D01*
X179563000Y-110329799D01*
X179356670Y-110207278D01*
X179110877Y-110297147D01*
X178887340Y-110433241D01*
X178694649Y-110610330D01*
X178540208Y-110821608D01*
X178429953Y-111058956D01*
X178397284Y-111166671D01*
X166555000Y-111166671D01*
X166555000Y-111108061D01*
X166515226Y-110908102D01*
X166437205Y-110719744D01*
X166323937Y-110550226D01*
X166179774Y-110406063D01*
X166010256Y-110292795D01*
X165821898Y-110214774D01*
X165621939Y-110175000D01*
X165418061Y-110175000D01*
X165218102Y-110214774D01*
X165029744Y-110292795D01*
X164860226Y-110406063D01*
X164816289Y-110450000D01*
X164574803Y-110450000D01*
X162368795Y-108243992D01*
X163847049Y-108243992D01*
X163847433Y-108253548D01*
X163852028Y-108351023D01*
X163860989Y-108412455D01*
X163869093Y-108474017D01*
X163871325Y-108483317D01*
X163894766Y-108578042D01*
X163915492Y-108636570D01*
X163935395Y-108695374D01*
X163939392Y-108704063D01*
X163980786Y-108792433D01*
X164012468Y-108845792D01*
X164043429Y-108899637D01*
X164049037Y-108907384D01*
X164106806Y-108986029D01*
X164148256Y-109032226D01*
X164189081Y-109079026D01*
X164196087Y-109085537D01*
X164268032Y-109151464D01*
X164317663Y-109188729D01*
X164366800Y-109226707D01*
X164374937Y-109231733D01*
X164458316Y-109282430D01*
X164514274Y-109309362D01*
X164569825Y-109337059D01*
X164578784Y-109340409D01*
X164670423Y-109373945D01*
X164730583Y-109389504D01*
X164790407Y-109405871D01*
X164799846Y-109407417D01*
X164799853Y-109407419D01*
X164799861Y-109407419D01*
X164896253Y-109422516D01*
X164958231Y-109426091D01*
X165020166Y-109430531D01*
X165029725Y-109430214D01*
X165127230Y-109426299D01*
X165188698Y-109417770D01*
X165250333Y-109410094D01*
X165259648Y-109407927D01*
X165354535Y-109385148D01*
X165413223Y-109364826D01*
X165472152Y-109345338D01*
X165480869Y-109341402D01*
X165569202Y-109300774D01*
X165569519Y-109300631D01*
X165581764Y-109294999D01*
X167080132Y-109294999D01*
X167089264Y-109300420D01*
X167097954Y-109304415D01*
X167186896Y-109344562D01*
X167245712Y-109364463D01*
X167304230Y-109385178D01*
X167313527Y-109387409D01*
X167313532Y-109387411D01*
X167313537Y-109387412D01*
X167408576Y-109409517D01*
X167470125Y-109417613D01*
X167531565Y-109426570D01*
X167541122Y-109426953D01*
X167638651Y-109430178D01*
X167700616Y-109426164D01*
X167762619Y-109423016D01*
X167772068Y-109421535D01*
X167868366Y-109405754D01*
X167928362Y-109389783D01*
X167988566Y-109374654D01*
X167997547Y-109371366D01*
X167997556Y-109371363D01*
X167997559Y-109371361D01*
X168088947Y-109337182D01*
X168144686Y-109309868D01*
X168200827Y-109283323D01*
X168208999Y-109278354D01*
X168292018Y-109227068D01*
X168341429Y-109189418D01*
X168391308Y-109152501D01*
X168398359Y-109146039D01*
X168469835Y-109079604D01*
X168510960Y-109033110D01*
X168552740Y-108987184D01*
X168558402Y-108979475D01*
X168615614Y-108900423D01*
X168646929Y-108846822D01*
X168678999Y-108793645D01*
X168683055Y-108784983D01*
X168723822Y-108696323D01*
X168744113Y-108637705D01*
X168765256Y-108579277D01*
X168767553Y-108569992D01*
X168790323Y-108475103D01*
X168798850Y-108413598D01*
X168808234Y-108352230D01*
X168808683Y-108342677D01*
X168812588Y-108245172D01*
X168809008Y-108183208D01*
X168806292Y-108121166D01*
X168804878Y-108111707D01*
X168789769Y-108015300D01*
X168774220Y-107955204D01*
X168759508Y-107894883D01*
X168756284Y-107885879D01*
X168722739Y-107794243D01*
X168722737Y-107794240D01*
X168714999Y-107773100D01*
X168714999Y-106442731D01*
X168715140Y-106442264D01*
X168722624Y-106426988D01*
X168725911Y-106418006D01*
X168758807Y-106326135D01*
X168773932Y-106265922D01*
X168789897Y-106205924D01*
X168791377Y-106196475D01*
X168805802Y-106099964D01*
X168808943Y-106037981D01*
X168812952Y-105976006D01*
X168812568Y-105966449D01*
X168807973Y-105868975D01*
X168799012Y-105807543D01*
X168790908Y-105745981D01*
X168788678Y-105736694D01*
X168788677Y-105736686D01*
X168788674Y-105736679D01*
X168765235Y-105641956D01*
X168744509Y-105583428D01*
X168724606Y-105524624D01*
X168720610Y-105515935D01*
X168679215Y-105427566D01*
X168647543Y-105374223D01*
X168616572Y-105320361D01*
X168610964Y-105312614D01*
X168553195Y-105233969D01*
X168511745Y-105187772D01*
X168470920Y-105140972D01*
X168463914Y-105134461D01*
X168391969Y-105068534D01*
X168342324Y-105031259D01*
X168293198Y-104993289D01*
X168285061Y-104988263D01*
X168201681Y-104937566D01*
X168145720Y-104910634D01*
X168090181Y-104882942D01*
X168081223Y-104879592D01*
X167989584Y-104846055D01*
X167929470Y-104830508D01*
X167869587Y-104814125D01*
X167860149Y-104812579D01*
X167763742Y-104797481D01*
X167701759Y-104793906D01*
X167639836Y-104789467D01*
X167630277Y-104789783D01*
X167532771Y-104793699D01*
X167471312Y-104802226D01*
X167409667Y-104809904D01*
X167400352Y-104812071D01*
X167305465Y-104834850D01*
X167246778Y-104855171D01*
X167187854Y-104874658D01*
X167179137Y-104878593D01*
X167090482Y-104919368D01*
X167078237Y-104925000D01*
X165579868Y-104925000D01*
X165570736Y-104919579D01*
X165562046Y-104915584D01*
X165473104Y-104875437D01*
X165414281Y-104855533D01*
X165355771Y-104834821D01*
X165346471Y-104832589D01*
X165346468Y-104832588D01*
X165346465Y-104832588D01*
X165251426Y-104810482D01*
X165189863Y-104802384D01*
X165128436Y-104793429D01*
X165118879Y-104793046D01*
X165021349Y-104789821D01*
X164959396Y-104793834D01*
X164897389Y-104796982D01*
X164887940Y-104798463D01*
X164791642Y-104814243D01*
X164731666Y-104830209D01*
X164671435Y-104845344D01*
X164662453Y-104848632D01*
X164571054Y-104882816D01*
X164515316Y-104910129D01*
X164459174Y-104936675D01*
X164451002Y-104941644D01*
X164367983Y-104992930D01*
X164318590Y-105030567D01*
X164268697Y-105067494D01*
X164261646Y-105073956D01*
X164190170Y-105140390D01*
X164149053Y-105186874D01*
X164107258Y-105232816D01*
X164101597Y-105240525D01*
X164044385Y-105319578D01*
X164013067Y-105373185D01*
X163981004Y-105426350D01*
X163976947Y-105435012D01*
X163936180Y-105523671D01*
X163915863Y-105582364D01*
X163894745Y-105640720D01*
X163892448Y-105650005D01*
X163869678Y-105744894D01*
X163861146Y-105806431D01*
X163851768Y-105867760D01*
X163851318Y-105877313D01*
X163847412Y-105974818D01*
X163850992Y-106036793D01*
X163853708Y-106098831D01*
X163855123Y-106108291D01*
X163870231Y-106204697D01*
X163885780Y-106264794D01*
X163900492Y-106325114D01*
X163903716Y-106334118D01*
X163937261Y-106425754D01*
X163945002Y-106446900D01*
X163945001Y-107777266D01*
X163944859Y-107777737D01*
X163937376Y-107793011D01*
X163934089Y-107801993D01*
X163901193Y-107893864D01*
X163886068Y-107954077D01*
X163870102Y-108014081D01*
X163868622Y-108023530D01*
X163854198Y-108120040D01*
X163851057Y-108182032D01*
X163847049Y-108243992D01*
X162368795Y-108243992D01*
X159530000Y-105405199D01*
X159530000Y-101883652D01*
X159764100Y-101883652D01*
X159764100Y-102176348D01*
X159821202Y-102463421D01*
X159933212Y-102733838D01*
X160095826Y-102977206D01*
X160302794Y-103184174D01*
X160546162Y-103346788D01*
X160816579Y-103458798D01*
X161103652Y-103515900D01*
X161396348Y-103515900D01*
X161683421Y-103458798D01*
X161953838Y-103346788D01*
X162197206Y-103184174D01*
X162404174Y-102977206D01*
X162566788Y-102733838D01*
X162678798Y-102463421D01*
X162735900Y-102176348D01*
X162735900Y-101883652D01*
X162684451Y-101625000D01*
X162730279Y-101625000D01*
X163142756Y-101542953D01*
X163531302Y-101382012D01*
X163837708Y-101177279D01*
X163802127Y-101263178D01*
X163701100Y-101771076D01*
X163701100Y-102288924D01*
X163802127Y-102796822D01*
X164000299Y-103275251D01*
X164288000Y-103705826D01*
X164654174Y-104072000D01*
X165084749Y-104359701D01*
X165563178Y-104557873D01*
X166071076Y-104658900D01*
X166588924Y-104658900D01*
X167096822Y-104557873D01*
X167575251Y-104359701D01*
X168005826Y-104072000D01*
X168372000Y-103705826D01*
X168659701Y-103275251D01*
X168857873Y-102796822D01*
X168958900Y-102288924D01*
X168958900Y-101883652D01*
X169924100Y-101883652D01*
X169924100Y-102176348D01*
X169981202Y-102463421D01*
X170093212Y-102733838D01*
X170255826Y-102977206D01*
X170462794Y-103184174D01*
X170706162Y-103346788D01*
X170976579Y-103458798D01*
X171263652Y-103515900D01*
X171556348Y-103515900D01*
X171843421Y-103458798D01*
X172113838Y-103346788D01*
X172357206Y-103184174D01*
X172564174Y-102977206D01*
X172726788Y-102733838D01*
X172838798Y-102463421D01*
X172895900Y-102176348D01*
X172895900Y-101883652D01*
X172838798Y-101596579D01*
X172726788Y-101326162D01*
X172564174Y-101082794D01*
X172357206Y-100875826D01*
X172113838Y-100713212D01*
X171843421Y-100601202D01*
X171556348Y-100544100D01*
X171263652Y-100544100D01*
X170976579Y-100601202D01*
X170706162Y-100713212D01*
X170462794Y-100875826D01*
X170255826Y-101082794D01*
X170093212Y-101326162D01*
X169981202Y-101596579D01*
X169924100Y-101883652D01*
X168958900Y-101883652D01*
X168958900Y-101771076D01*
X168857873Y-101263178D01*
X168659701Y-100784749D01*
X168372000Y-100354174D01*
X168005826Y-99988000D01*
X167575251Y-99700299D01*
X167096822Y-99502127D01*
X166588924Y-99401100D01*
X166071076Y-99401100D01*
X165563178Y-99502127D01*
X165084749Y-99700299D01*
X164654174Y-99988000D01*
X164583763Y-100058411D01*
X164655000Y-99700279D01*
X164655000Y-99279721D01*
X164572953Y-98867244D01*
X164412012Y-98478698D01*
X164178363Y-98129017D01*
X163880983Y-97831637D01*
X163531302Y-97597988D01*
X163142756Y-97437047D01*
X162730279Y-97355000D01*
X162309721Y-97355000D01*
X161897244Y-97437047D01*
X161508698Y-97597988D01*
X161159017Y-97831637D01*
X160861637Y-98129017D01*
X160627988Y-98478698D01*
X160467047Y-98867244D01*
X160385000Y-99279721D01*
X160385000Y-99700279D01*
X160467047Y-100112756D01*
X160627988Y-100501302D01*
X160721150Y-100640730D01*
X160546162Y-100713212D01*
X160302794Y-100875826D01*
X160095826Y-101082794D01*
X159933212Y-101326162D01*
X159821202Y-101596579D01*
X159764100Y-101883652D01*
X159530000Y-101883652D01*
X159530000Y-100193711D01*
X159573937Y-100149774D01*
X159687205Y-99980256D01*
X159765226Y-99791898D01*
X159805000Y-99591939D01*
X159805000Y-99388061D01*
X159765226Y-99188102D01*
X159687205Y-98999744D01*
X159573937Y-98830226D01*
X159429774Y-98686063D01*
X159260256Y-98572795D01*
X159071898Y-98494774D01*
X158871939Y-98455000D01*
X158668061Y-98455000D01*
X158468102Y-98494774D01*
X158279744Y-98572795D01*
X158110226Y-98686063D01*
X157966063Y-98830226D01*
X157852795Y-98999744D01*
X157774774Y-99188102D01*
X157735000Y-99388061D01*
X156465000Y-99388061D01*
X156465000Y-96739721D01*
X166735000Y-96739721D01*
X166735000Y-97160279D01*
X166817047Y-97572756D01*
X166977988Y-97961302D01*
X167211637Y-98310983D01*
X167509017Y-98608363D01*
X167858698Y-98842012D01*
X168247244Y-99002953D01*
X168659721Y-99085000D01*
X169080279Y-99085000D01*
X169492756Y-99002953D01*
X169881302Y-98842012D01*
X170230983Y-98608363D01*
X170528363Y-98310983D01*
X170762012Y-97961302D01*
X170922953Y-97572756D01*
X171005000Y-97160279D01*
X171005000Y-96739721D01*
X170922953Y-96327244D01*
X170762012Y-95938698D01*
X170528363Y-95589017D01*
X170230983Y-95291637D01*
X169881302Y-95057988D01*
X169492756Y-94897047D01*
X169080279Y-94815000D01*
X168659721Y-94815000D01*
X168247244Y-94897047D01*
X167858698Y-95057988D01*
X167509017Y-95291637D01*
X167211637Y-95589017D01*
X166977988Y-95938698D01*
X166817047Y-96327244D01*
X166735000Y-96739721D01*
X156465000Y-96739721D01*
X156465000Y-94760249D01*
X173370000Y-94760249D01*
X173370000Y-95249751D01*
X173465497Y-95729848D01*
X173652821Y-96182089D01*
X173924774Y-96589095D01*
X174270905Y-96935226D01*
X174677911Y-97207179D01*
X175130152Y-97394503D01*
X175610249Y-97490000D01*
X176099751Y-97490000D01*
X176579848Y-97394503D01*
X177032089Y-97207179D01*
X177439095Y-96935226D01*
X177785226Y-96589095D01*
X178057179Y-96182089D01*
X178244503Y-95729848D01*
X178340000Y-95249751D01*
X178340000Y-94760249D01*
X178244503Y-94280152D01*
X178057179Y-93827911D01*
X177785226Y-93420905D01*
X177439095Y-93074774D01*
X177032089Y-92802821D01*
X176579848Y-92615497D01*
X176099751Y-92520000D01*
X175610249Y-92520000D01*
X175130152Y-92615497D01*
X174677911Y-92802821D01*
X174270905Y-93074774D01*
X173924774Y-93420905D01*
X173652821Y-93827911D01*
X173465497Y-94280152D01*
X173370000Y-94760249D01*
X156465000Y-94760249D01*
X156465000Y-92592279D01*
X156474580Y-92494576D01*
X156493580Y-92431644D01*
X156524445Y-92373595D01*
X156565989Y-92322657D01*
X156616644Y-92280752D01*
X156674471Y-92249485D01*
X156737272Y-92230044D01*
X156832835Y-92220000D01*
X197460001Y-92220000D01*
X197460001Y-95161703D01*
%TA.AperFunction,Conductor*%
D23*
G36*
X197460001Y-95161703D02*
G01*
X197380480Y-95119198D01*
X197260782Y-95082888D01*
X197136300Y-95070628D01*
X195383700Y-95070628D01*
X195259218Y-95082888D01*
X195139520Y-95119198D01*
X195029206Y-95178163D01*
X194932515Y-95257515D01*
X194853163Y-95354206D01*
X194794198Y-95464520D01*
X194757888Y-95584218D01*
X194745628Y-95708700D01*
X194745628Y-97461300D01*
X194757888Y-97585782D01*
X194794198Y-97705480D01*
X194853163Y-97815794D01*
X194932515Y-97912485D01*
X195029206Y-97991837D01*
X195139520Y-98050802D01*
X195183542Y-98064156D01*
X195086096Y-98161602D01*
X195033913Y-98239700D01*
X194955000Y-98231928D01*
X194390750Y-98235000D01*
X194232000Y-98393750D01*
X194232000Y-99593000D01*
X194252000Y-99593000D01*
X194252000Y-99847000D01*
X194232000Y-99847000D01*
X194232000Y-99867000D01*
X193978000Y-99867000D01*
X193978000Y-99847000D01*
X192778750Y-99847000D01*
X192620000Y-100005750D01*
X192616928Y-100570000D01*
X192629188Y-100694482D01*
X192665498Y-100814180D01*
X192724463Y-100924494D01*
X192803815Y-101021185D01*
X192900506Y-101100537D01*
X193010820Y-101159502D01*
X193083380Y-101181513D01*
X192951525Y-101313368D01*
X192789010Y-101556589D01*
X192677068Y-101826842D01*
X192620000Y-102113740D01*
X192620000Y-102406260D01*
X192677068Y-102693158D01*
X192789010Y-102963411D01*
X192951525Y-103206632D01*
X193158368Y-103413475D01*
X193332760Y-103530000D01*
X193158368Y-103646525D01*
X192951525Y-103853368D01*
X192789010Y-104096589D01*
X192677068Y-104366842D01*
X192620000Y-104653740D01*
X192620000Y-104946260D01*
X192663791Y-105166408D01*
X192020998Y-105809201D01*
X191992000Y-105832999D01*
X191968202Y-105861997D01*
X191968201Y-105861998D01*
X191897026Y-105948724D01*
X191826454Y-106080754D01*
X191797605Y-106175861D01*
X191782998Y-106224014D01*
X191772154Y-106334118D01*
X191768324Y-106373000D01*
X191772001Y-106410332D01*
X191772000Y-107262199D01*
X191514000Y-107004199D01*
X191514000Y-104685325D01*
X191517676Y-104648000D01*
X191514000Y-104610675D01*
X191514000Y-104610667D01*
X191503003Y-104499014D01*
X191459546Y-104355753D01*
X191388974Y-104223724D01*
X191294001Y-104107999D01*
X191265003Y-104084201D01*
X190681711Y-103500909D01*
X190893421Y-103458798D01*
X191163838Y-103346788D01*
X191407206Y-103184174D01*
X191614174Y-102977206D01*
X191776788Y-102733838D01*
X191888798Y-102463421D01*
X191945900Y-102176348D01*
X191945900Y-101883652D01*
X191888798Y-101596579D01*
X191776788Y-101326162D01*
X191614174Y-101082794D01*
X191407206Y-100875826D01*
X191163838Y-100713212D01*
X190893421Y-100601202D01*
X190606348Y-100544100D01*
X190313652Y-100544100D01*
X190026579Y-100601202D01*
X189756162Y-100713212D01*
X189736000Y-100726684D01*
X189736000Y-99958801D01*
X190824801Y-98870000D01*
X192616928Y-98870000D01*
X192620000Y-99434250D01*
X192778750Y-99593000D01*
X193978000Y-99593000D01*
X193978000Y-98393750D01*
X193819250Y-98235000D01*
X193255000Y-98231928D01*
X193130518Y-98244188D01*
X193010820Y-98280498D01*
X192900506Y-98339463D01*
X192803815Y-98418815D01*
X192724463Y-98515506D01*
X192665498Y-98625820D01*
X192629188Y-98745518D01*
X192616928Y-98870000D01*
X190824801Y-98870000D01*
X191709802Y-97985000D01*
X191771939Y-97985000D01*
X191971898Y-97945226D01*
X192160256Y-97867205D01*
X192329774Y-97753937D01*
X192473937Y-97609774D01*
X192587205Y-97440256D01*
X192665226Y-97251898D01*
X192705000Y-97051939D01*
X192705000Y-96848061D01*
X192665226Y-96648102D01*
X192587205Y-96459744D01*
X192473937Y-96290226D01*
X192329774Y-96146063D01*
X192160256Y-96032795D01*
X191971898Y-95954774D01*
X191771939Y-95915000D01*
X191568061Y-95915000D01*
X191368102Y-95954774D01*
X191179744Y-96032795D01*
X191010226Y-96146063D01*
X190866063Y-96290226D01*
X190752795Y-96459744D01*
X190674774Y-96648102D01*
X190635000Y-96848061D01*
X190635000Y-96910198D01*
X189973080Y-97572119D01*
X190055000Y-97160279D01*
X190055000Y-96739721D01*
X189972953Y-96327244D01*
X189812012Y-95938698D01*
X189578363Y-95589017D01*
X189280983Y-95291637D01*
X188931302Y-95057988D01*
X188542756Y-94897047D01*
X188130279Y-94815000D01*
X187709721Y-94815000D01*
X187297244Y-94897047D01*
X186908698Y-95057988D01*
X186559017Y-95291637D01*
X186261637Y-95589017D01*
X186027988Y-95938698D01*
X185867047Y-96327244D01*
X185785000Y-96739721D01*
X185785000Y-97160279D01*
X185867047Y-97572756D01*
X186027988Y-97961302D01*
X186261637Y-98310983D01*
X186559017Y-98608363D01*
X186908698Y-98842012D01*
X187297244Y-99002953D01*
X187709721Y-99085000D01*
X188130279Y-99085000D01*
X188542119Y-99003080D01*
X188464998Y-99080201D01*
X188436000Y-99103999D01*
X188412202Y-99132997D01*
X188412201Y-99132998D01*
X188341026Y-99219724D01*
X188270454Y-99351754D01*
X188245430Y-99434250D01*
X188226998Y-99495014D01*
X188219848Y-99567609D01*
X188212324Y-99644000D01*
X188216001Y-99681332D01*
X188216001Y-100491199D01*
X184293804Y-96569003D01*
X184270001Y-96539999D01*
X184154276Y-96445026D01*
X184022247Y-96374454D01*
X183878986Y-96330997D01*
X183767333Y-96320000D01*
X183767322Y-96320000D01*
X183730000Y-96316324D01*
X183692678Y-96320000D01*
X180267325Y-96320000D01*
X180230000Y-96316324D01*
X180192675Y-96320000D01*
X180192667Y-96320000D01*
X180081014Y-96330997D01*
X179937753Y-96374454D01*
X179805724Y-96445026D01*
X179689999Y-96539999D01*
X179666201Y-96568997D01*
X177780199Y-98455000D01*
X177718061Y-98455000D01*
X177518102Y-98494774D01*
X177329744Y-98572795D01*
X177160226Y-98686063D01*
X177016063Y-98830226D01*
X176902795Y-98999744D01*
X176824774Y-99188102D01*
X176785000Y-99388061D01*
X176785000Y-99591939D01*
X176824774Y-99791898D01*
X176902795Y-99980256D01*
X177016063Y-100149774D01*
X177160226Y-100293937D01*
X177329744Y-100407205D01*
X177518102Y-100485226D01*
X177718061Y-100525000D01*
X177921939Y-100525000D01*
X178121898Y-100485226D01*
X178310256Y-100407205D01*
X178479774Y-100293937D01*
X178623937Y-100149774D01*
X178737205Y-99980256D01*
X178815226Y-99791898D01*
X178855000Y-99591939D01*
X178855000Y-99529801D01*
X179516920Y-98867881D01*
X179435000Y-99279721D01*
X179435000Y-99700279D01*
X179517047Y-100112756D01*
X179677988Y-100501302D01*
X179771150Y-100640730D01*
X179596162Y-100713212D01*
X179352794Y-100875826D01*
X179145826Y-101082794D01*
X178983212Y-101326162D01*
X178871202Y-101596579D01*
X178814100Y-101883652D01*
X178814100Y-102176348D01*
X178871202Y-102463421D01*
X178983212Y-102733838D01*
X179145826Y-102977206D01*
X179352794Y-103184174D01*
X179596162Y-103346788D01*
X179866579Y-103458798D01*
X180153652Y-103515900D01*
X180446348Y-103515900D01*
X180733421Y-103458798D01*
X181003838Y-103346788D01*
X181247206Y-103184174D01*
X181454174Y-102977206D01*
X181616788Y-102733838D01*
X181728798Y-102463421D01*
X181785900Y-102176348D01*
X181785900Y-101883652D01*
X181734451Y-101625000D01*
X181780279Y-101625000D01*
X182192756Y-101542953D01*
X182581302Y-101382012D01*
X182887708Y-101177279D01*
X182852127Y-101263178D01*
X182751100Y-101771076D01*
X182751100Y-102288924D01*
X182852127Y-102796822D01*
X183050299Y-103275251D01*
X183338000Y-103705826D01*
X183700534Y-104068360D01*
X182803878Y-104068360D01*
X182761639Y-104064200D01*
X182719400Y-104068360D01*
X182719394Y-104068360D01*
X182624178Y-104077738D01*
X182593049Y-104080804D01*
X182528025Y-104100529D01*
X182430940Y-104129979D01*
X182281538Y-104209836D01*
X182150586Y-104317306D01*
X182123657Y-104350120D01*
X181129091Y-105344685D01*
X181028103Y-105364773D01*
X180839745Y-105442794D01*
X180670227Y-105556062D01*
X180526064Y-105700225D01*
X180412796Y-105869743D01*
X180334775Y-106058101D01*
X180295001Y-106258060D01*
X180295001Y-106461938D01*
X180334775Y-106661897D01*
X180412796Y-106850255D01*
X180526064Y-107019773D01*
X180670227Y-107163936D01*
X180839745Y-107277204D01*
X181028103Y-107355225D01*
X181228062Y-107394999D01*
X181431940Y-107394999D01*
X181631899Y-107355225D01*
X181820257Y-107277204D01*
X181989775Y-107163936D01*
X182133938Y-107019773D01*
X182247206Y-106850255D01*
X182325227Y-106661897D01*
X182345315Y-106560909D01*
X182899268Y-106006955D01*
X182900992Y-106036793D01*
X182903708Y-106098831D01*
X182905123Y-106108291D01*
X182920231Y-106204697D01*
X182935780Y-106264794D01*
X182950492Y-106325114D01*
X182953716Y-106334118D01*
X182987261Y-106425754D01*
X182995002Y-106446900D01*
X182995001Y-107777266D01*
X182994859Y-107777737D01*
X182987376Y-107793011D01*
X182984089Y-107801993D01*
X182951193Y-107893864D01*
X182936068Y-107954077D01*
X182920102Y-108014081D01*
X182918622Y-108023530D01*
X182904198Y-108120040D01*
X182901057Y-108182032D01*
X182897049Y-108243992D01*
X182897433Y-108253548D01*
X182902028Y-108351023D01*
X182910989Y-108412455D01*
X182919093Y-108474017D01*
X182921325Y-108483317D01*
X182944766Y-108578042D01*
X182965492Y-108636570D01*
X182985395Y-108695374D01*
X182989392Y-108704063D01*
X183030786Y-108792433D01*
X183062468Y-108845792D01*
X183093429Y-108899637D01*
X183099037Y-108907384D01*
X183156806Y-108986029D01*
X183198256Y-109032226D01*
X183239081Y-109079026D01*
X183246087Y-109085537D01*
X183318032Y-109151464D01*
X183367663Y-109188729D01*
X183416800Y-109226707D01*
X183424937Y-109231733D01*
X183508316Y-109282430D01*
X183564274Y-109309362D01*
X183619825Y-109337059D01*
X183628784Y-109340409D01*
X183720423Y-109373945D01*
X183780583Y-109389504D01*
X183840407Y-109405871D01*
X183849846Y-109407417D01*
X183849853Y-109407419D01*
X183849861Y-109407419D01*
X183946253Y-109422516D01*
X184008231Y-109426091D01*
X184070166Y-109430531D01*
X184079725Y-109430214D01*
X184177230Y-109426299D01*
X184238698Y-109417770D01*
X184300333Y-109410094D01*
X184309648Y-109407927D01*
X184404535Y-109385148D01*
X184463223Y-109364826D01*
X184522152Y-109345338D01*
X184530869Y-109341402D01*
X184619202Y-109300774D01*
X184619519Y-109300631D01*
X184631764Y-109294999D01*
X186130132Y-109294999D01*
X186139264Y-109300420D01*
X186147954Y-109304415D01*
X186236896Y-109344562D01*
X186295712Y-109364463D01*
X186354230Y-109385178D01*
X186363527Y-109387409D01*
X186363532Y-109387411D01*
X186363537Y-109387412D01*
X186458576Y-109409517D01*
X186520125Y-109417613D01*
X186581565Y-109426570D01*
X186591122Y-109426953D01*
X186688651Y-109430178D01*
X186750616Y-109426164D01*
X186812619Y-109423016D01*
X186822068Y-109421535D01*
X186918366Y-109405754D01*
X186978362Y-109389783D01*
X187038566Y-109374654D01*
X187047547Y-109371366D01*
X187047556Y-109371363D01*
X187047559Y-109371361D01*
X187138947Y-109337182D01*
X187194686Y-109309868D01*
X187250827Y-109283323D01*
X187258999Y-109278354D01*
X187342018Y-109227068D01*
X187391429Y-109189418D01*
X187441308Y-109152501D01*
X187448359Y-109146039D01*
X187519835Y-109079604D01*
X187560960Y-109033110D01*
X187602740Y-108987184D01*
X187608402Y-108979475D01*
X187665614Y-108900423D01*
X187696929Y-108846822D01*
X187728999Y-108793645D01*
X187733055Y-108784983D01*
X187773822Y-108696323D01*
X187794113Y-108637705D01*
X187815256Y-108579277D01*
X187817553Y-108569992D01*
X187840323Y-108475103D01*
X187848850Y-108413598D01*
X187858234Y-108352230D01*
X187858683Y-108342677D01*
X187862588Y-108245172D01*
X187859008Y-108183208D01*
X187856292Y-108121166D01*
X187854878Y-108111707D01*
X187839769Y-108015300D01*
X187824220Y-107955204D01*
X187809508Y-107894883D01*
X187806284Y-107885879D01*
X187772739Y-107794243D01*
X187772737Y-107794240D01*
X187764999Y-107773100D01*
X187764999Y-106442731D01*
X187765140Y-106442264D01*
X187772624Y-106426988D01*
X187775911Y-106418006D01*
X187808807Y-106326135D01*
X187823932Y-106265922D01*
X187839897Y-106205924D01*
X187841377Y-106196475D01*
X187855802Y-106099964D01*
X187858943Y-106037981D01*
X187862952Y-105976006D01*
X187862568Y-105966449D01*
X187857973Y-105868975D01*
X187849012Y-105807543D01*
X187846487Y-105788360D01*
X188796761Y-105788360D01*
X188882375Y-105845565D01*
X189070733Y-105923586D01*
X189270692Y-105963360D01*
X189474570Y-105963360D01*
X189486000Y-105961086D01*
X189486001Y-107798668D01*
X189482324Y-107836000D01*
X189486001Y-107873333D01*
X189496998Y-107984986D01*
X189508690Y-108023530D01*
X189540454Y-108128246D01*
X189611026Y-108260276D01*
X189679397Y-108343585D01*
X189706000Y-108376001D01*
X189734998Y-108399799D01*
X191630821Y-110295622D01*
X191627641Y-110296939D01*
X191408987Y-110443038D01*
X191223038Y-110628987D01*
X191076939Y-110847641D01*
X190976304Y-111090595D01*
X190925000Y-111348514D01*
X190925000Y-111611486D01*
X190976304Y-111869405D01*
X191076939Y-112112359D01*
X191223038Y-112331013D01*
X191408987Y-112516962D01*
X191627641Y-112663061D01*
X191870595Y-112763696D01*
X192128514Y-112815000D01*
X192391486Y-112815000D01*
X192649405Y-112763696D01*
X192892359Y-112663061D01*
X193111013Y-112516962D01*
X193296962Y-112331013D01*
X193443061Y-112112359D01*
X193444378Y-112109180D01*
X194298699Y-112963501D01*
X194298699Y-113126377D01*
X194295023Y-113163699D01*
X194298699Y-113201021D01*
X194298699Y-113201032D01*
X194309696Y-113312685D01*
X194353153Y-113455946D01*
X194423725Y-113587975D01*
X194518699Y-113703700D01*
X194547697Y-113727498D01*
X194796424Y-113976225D01*
X194748700Y-114216150D01*
X194748700Y-114513850D01*
X194806778Y-114805830D01*
X194920703Y-115080869D01*
X195086096Y-115328398D01*
X195296602Y-115538904D01*
X195440420Y-115635000D01*
X195296602Y-115731096D01*
X195086096Y-115941602D01*
X194920703Y-116189131D01*
X194806778Y-116464170D01*
X194748700Y-116756150D01*
X194748700Y-117053850D01*
X194806778Y-117345830D01*
X194920703Y-117620869D01*
X195086096Y-117868398D01*
X195296602Y-118078904D01*
X195440420Y-118175000D01*
X195296602Y-118271096D01*
X195086096Y-118481602D01*
X194920703Y-118729131D01*
X194806778Y-119004170D01*
X194748700Y-119296150D01*
X194748700Y-119593850D01*
X194806778Y-119885830D01*
X194920703Y-120160869D01*
X195086096Y-120408398D01*
X195296602Y-120618904D01*
X195440420Y-120715000D01*
X195296602Y-120811096D01*
X195086096Y-121021602D01*
X194920703Y-121269131D01*
X194806778Y-121544170D01*
X194748700Y-121836150D01*
X194748700Y-122133850D01*
X194806778Y-122425830D01*
X194920703Y-122700869D01*
X195086096Y-122948398D01*
X195296602Y-123158904D01*
X195440420Y-123255000D01*
X195296602Y-123351096D01*
X195086096Y-123561602D01*
X194920703Y-123809131D01*
X194806778Y-124084170D01*
X194748700Y-124376150D01*
X194748700Y-124673850D01*
X194806778Y-124965830D01*
X194920703Y-125240869D01*
X195086096Y-125488398D01*
X195296602Y-125698904D01*
X195544131Y-125864297D01*
X195819170Y-125978222D01*
X196111150Y-126036300D01*
X196408850Y-126036300D01*
X196700830Y-125978222D01*
X196975869Y-125864297D01*
X197223398Y-125698904D01*
X197433904Y-125488398D01*
X197460000Y-125449342D01*
X197460000Y-126037581D01*
X197456807Y-126070000D01*
X197469550Y-126199383D01*
X197507290Y-126323793D01*
X197568575Y-126438450D01*
X197640814Y-126526473D01*
X197651052Y-126538948D01*
X197751550Y-126621425D01*
X197866207Y-126682710D01*
X197990617Y-126720450D01*
X198120000Y-126733193D01*
X198152419Y-126730000D01*
X209657581Y-126730000D01*
X209690000Y-126733193D01*
X209722419Y-126730000D01*
X209819383Y-126720450D01*
X209943793Y-126682710D01*
X210058450Y-126621425D01*
X210158948Y-126538948D01*
X210241425Y-126438450D01*
X210302710Y-126323793D01*
X210340450Y-126199383D01*
X210353193Y-126070000D01*
X210350000Y-126037581D01*
X210350000Y-125512302D01*
X210536602Y-125698904D01*
X210740001Y-125834810D01*
X210740000Y-127021198D01*
X209951199Y-127810000D01*
X187744543Y-127810000D01*
X187773822Y-127746323D01*
X187794113Y-127687705D01*
X187815256Y-127629277D01*
X187817553Y-127619992D01*
X187840323Y-127525103D01*
X187848850Y-127463598D01*
X187858234Y-127402230D01*
X187858683Y-127392677D01*
X187862588Y-127295172D01*
X187859008Y-127233208D01*
X187856292Y-127171166D01*
X187854878Y-127161707D01*
X187839769Y-127065300D01*
X187824220Y-127005204D01*
X187809508Y-126944883D01*
X187806284Y-126935879D01*
X187772739Y-126844243D01*
X187772737Y-126844240D01*
X187764999Y-126823100D01*
X187764999Y-125492731D01*
X187765140Y-125492264D01*
X187772624Y-125476988D01*
X187775911Y-125468006D01*
X187808807Y-125376135D01*
X187823932Y-125315922D01*
X187839897Y-125255924D01*
X187841377Y-125246475D01*
X187855802Y-125149964D01*
X187858943Y-125087981D01*
X187862952Y-125026006D01*
X187862568Y-125016449D01*
X187857973Y-124918975D01*
X187849012Y-124857543D01*
X187840908Y-124795981D01*
X187838678Y-124786694D01*
X187838677Y-124786686D01*
X187838674Y-124786679D01*
X187815235Y-124691956D01*
X187794509Y-124633428D01*
X187774606Y-124574624D01*
X187770610Y-124565935D01*
X187729215Y-124477566D01*
X187697543Y-124424223D01*
X187666572Y-124370361D01*
X187660964Y-124362614D01*
X187603195Y-124283969D01*
X187561745Y-124237772D01*
X187520920Y-124190972D01*
X187513914Y-124184461D01*
X187441969Y-124118534D01*
X187392324Y-124081259D01*
X187343198Y-124043289D01*
X187335061Y-124038263D01*
X187251681Y-123987566D01*
X187195720Y-123960634D01*
X187140181Y-123932942D01*
X187131223Y-123929592D01*
X187039584Y-123896055D01*
X186979470Y-123880508D01*
X186919587Y-123864125D01*
X186910149Y-123862579D01*
X186813742Y-123847481D01*
X186751759Y-123843906D01*
X186689836Y-123839467D01*
X186680277Y-123839783D01*
X186582771Y-123843699D01*
X186521312Y-123852226D01*
X186459667Y-123859904D01*
X186450352Y-123862071D01*
X186355465Y-123884850D01*
X186296778Y-123905171D01*
X186237854Y-123924658D01*
X186229137Y-123928593D01*
X186140482Y-123969368D01*
X186128237Y-123975000D01*
X184629868Y-123975000D01*
X184620736Y-123969579D01*
X184612046Y-123965584D01*
X184523104Y-123925437D01*
X184464281Y-123905533D01*
X184405771Y-123884821D01*
X184396471Y-123882589D01*
X184396468Y-123882588D01*
X184396465Y-123882588D01*
X184301426Y-123860482D01*
X184239863Y-123852384D01*
X184178436Y-123843429D01*
X184168879Y-123843046D01*
X184071349Y-123839821D01*
X184009396Y-123843834D01*
X183947389Y-123846982D01*
X183937940Y-123848463D01*
X183841642Y-123864243D01*
X183781666Y-123880209D01*
X183721435Y-123895344D01*
X183712453Y-123898632D01*
X183621054Y-123932816D01*
X183565316Y-123960129D01*
X183509174Y-123986675D01*
X183501002Y-123991644D01*
X183417983Y-124042930D01*
X183368590Y-124080567D01*
X183318697Y-124117494D01*
X183311646Y-124123956D01*
X183240170Y-124190390D01*
X183199053Y-124236874D01*
X183157258Y-124282816D01*
X183151597Y-124290525D01*
X183094385Y-124369578D01*
X183063067Y-124423185D01*
X183031004Y-124476350D01*
X183026947Y-124485012D01*
X182986180Y-124573671D01*
X182965863Y-124632364D01*
X182944745Y-124690720D01*
X182942448Y-124700005D01*
X182919678Y-124794894D01*
X182911146Y-124856431D01*
X182901768Y-124917760D01*
X182901318Y-124927313D01*
X182897412Y-125024818D01*
X182900992Y-125086793D01*
X182903708Y-125148831D01*
X182905123Y-125158291D01*
X182920231Y-125254697D01*
X182935780Y-125314794D01*
X182950492Y-125375114D01*
X182953716Y-125384118D01*
X182987261Y-125475754D01*
X182995002Y-125496900D01*
X182995001Y-126827266D01*
X182994859Y-126827737D01*
X182987376Y-126843011D01*
X182984089Y-126851993D01*
X182951193Y-126943864D01*
X182936068Y-127004077D01*
X182920102Y-127064081D01*
X182918622Y-127073530D01*
X182904198Y-127170040D01*
X182901057Y-127232032D01*
X182897049Y-127293992D01*
X182897433Y-127303548D01*
X182902028Y-127401023D01*
X182910989Y-127462455D01*
X182919093Y-127524017D01*
X182921325Y-127533317D01*
X182944766Y-127628042D01*
X182965492Y-127686570D01*
X182985395Y-127745374D01*
X182989392Y-127754063D01*
X183015594Y-127810000D01*
X181404802Y-127810000D01*
X178593804Y-124999003D01*
X178570001Y-124969999D01*
X178454276Y-124875026D01*
X178322247Y-124804454D01*
X178178986Y-124760997D01*
X178067333Y-124750000D01*
X178067322Y-124750000D01*
X178030000Y-124746324D01*
X177992678Y-124750000D01*
X173337322Y-124750000D01*
X173299999Y-124746324D01*
X173262677Y-124750000D01*
X173262667Y-124750000D01*
X173151014Y-124760997D01*
X173021263Y-124800356D01*
X173007753Y-124804454D01*
X172875723Y-124875026D01*
X172797037Y-124939603D01*
X172759999Y-124969999D01*
X172736201Y-124998997D01*
X169445199Y-128290000D01*
X168271084Y-128290000D01*
X168292018Y-128277068D01*
X168341429Y-128239418D01*
X168391308Y-128202501D01*
X168398359Y-128196039D01*
X168469835Y-128129604D01*
X168510960Y-128083110D01*
X168552740Y-128037184D01*
X168558402Y-128029475D01*
X168615614Y-127950423D01*
X168646929Y-127896822D01*
X168678999Y-127843645D01*
X168683055Y-127834983D01*
X168723822Y-127746323D01*
X168744113Y-127687705D01*
X168765256Y-127629277D01*
X168767553Y-127619992D01*
X168790323Y-127525103D01*
X168798850Y-127463598D01*
X168808234Y-127402230D01*
X168808683Y-127392677D01*
X168812588Y-127295172D01*
X168809008Y-127233208D01*
X168806292Y-127171166D01*
X168804878Y-127161707D01*
X168789769Y-127065300D01*
X168774220Y-127005204D01*
X168759508Y-126944883D01*
X168756284Y-126935879D01*
X168722739Y-126844243D01*
X168722737Y-126844240D01*
X168714999Y-126823100D01*
X168714999Y-125492731D01*
X168715140Y-125492264D01*
X168722624Y-125476988D01*
X168725911Y-125468006D01*
X168758807Y-125376135D01*
X168773932Y-125315922D01*
X168789897Y-125255924D01*
X168791377Y-125246475D01*
X168805802Y-125149964D01*
X168808943Y-125087981D01*
X168812952Y-125026006D01*
X168812568Y-125016449D01*
X168807973Y-124918975D01*
X168799012Y-124857543D01*
X168790908Y-124795981D01*
X168788678Y-124786694D01*
X168788677Y-124786686D01*
X168788674Y-124786679D01*
X168765235Y-124691956D01*
X168744509Y-124633428D01*
X168724606Y-124574624D01*
X168720610Y-124565935D01*
X168679215Y-124477566D01*
X168647543Y-124424223D01*
X168616572Y-124370361D01*
X168610964Y-124362614D01*
X168553195Y-124283969D01*
X168511745Y-124237772D01*
X168470920Y-124190972D01*
X168463914Y-124184461D01*
X168391969Y-124118534D01*
X168342324Y-124081259D01*
X168293198Y-124043289D01*
X168285061Y-124038263D01*
X168201681Y-123987566D01*
X168145720Y-123960634D01*
X168090181Y-123932942D01*
X168081223Y-123929592D01*
X167989584Y-123896055D01*
X167929470Y-123880508D01*
X167869587Y-123864125D01*
X167860149Y-123862579D01*
X167763742Y-123847481D01*
X167701759Y-123843906D01*
X167639836Y-123839467D01*
X167630277Y-123839783D01*
X167532771Y-123843699D01*
X167471312Y-123852226D01*
X167409667Y-123859904D01*
X167400352Y-123862071D01*
X167305465Y-123884850D01*
X167246778Y-123905171D01*
X167187854Y-123924658D01*
X167179137Y-123928593D01*
X167090482Y-123969368D01*
X167078237Y-123975000D01*
X165579868Y-123975000D01*
X165570736Y-123969579D01*
X165562046Y-123965584D01*
X165473104Y-123925437D01*
X165414281Y-123905533D01*
X165355771Y-123884821D01*
X165346471Y-123882589D01*
X165346468Y-123882588D01*
X165346465Y-123882588D01*
X165251426Y-123860482D01*
X165189863Y-123852384D01*
X165128436Y-123843429D01*
X165118879Y-123843046D01*
X165021349Y-123839821D01*
X164959396Y-123843834D01*
X164897389Y-123846982D01*
X164887940Y-123848463D01*
X164791642Y-123864243D01*
X164731666Y-123880209D01*
X164671435Y-123895344D01*
X164662453Y-123898632D01*
X164571054Y-123932816D01*
X164515316Y-123960129D01*
X164459174Y-123986675D01*
X164451002Y-123991644D01*
X164367983Y-124042930D01*
X164318590Y-124080567D01*
X164268697Y-124117494D01*
X164261646Y-124123956D01*
X164190170Y-124190390D01*
X164149053Y-124236874D01*
X164107258Y-124282816D01*
X164101597Y-124290525D01*
X164044385Y-124369578D01*
X164013067Y-124423185D01*
X163981004Y-124476350D01*
X163976947Y-124485012D01*
X163936180Y-124573671D01*
X163915863Y-124632364D01*
X163894745Y-124690720D01*
X163892448Y-124700005D01*
X163869678Y-124794894D01*
X163861146Y-124856431D01*
X163851768Y-124917760D01*
X163851318Y-124927313D01*
X163847412Y-125024818D01*
X163850992Y-125086793D01*
X163853708Y-125148831D01*
X163855123Y-125158291D01*
X163870231Y-125254697D01*
X163885780Y-125314794D01*
X163900492Y-125375114D01*
X163903716Y-125384118D01*
X163937261Y-125475754D01*
X163945002Y-125496900D01*
X163945001Y-126827266D01*
X163944859Y-126827737D01*
X163937376Y-126843011D01*
X163934089Y-126851993D01*
X163901193Y-126943864D01*
X163886068Y-127004077D01*
X163870102Y-127064081D01*
X163868622Y-127073530D01*
X163854198Y-127170040D01*
X163851057Y-127232032D01*
X163847049Y-127293992D01*
X163847433Y-127303548D01*
X163852028Y-127401023D01*
X163860989Y-127462455D01*
X163869093Y-127524017D01*
X163871325Y-127533317D01*
X163894766Y-127628042D01*
X163915492Y-127686570D01*
X163935395Y-127745374D01*
X163939392Y-127754063D01*
X163980786Y-127842433D01*
X164012468Y-127895792D01*
X164043429Y-127949637D01*
X164049037Y-127957384D01*
X164106806Y-128036029D01*
X164148256Y-128082226D01*
X164189081Y-128129026D01*
X164196087Y-128135537D01*
X164268032Y-128201464D01*
X164317663Y-128238729D01*
X164366800Y-128276707D01*
X164374937Y-128281733D01*
X164388533Y-128290000D01*
X161064802Y-128290000D01*
X159530000Y-126755199D01*
X159530000Y-120933652D01*
X159764100Y-120933652D01*
X159764100Y-121226348D01*
X159821202Y-121513421D01*
X159933212Y-121783838D01*
X160095826Y-122027206D01*
X160302794Y-122234174D01*
X160546162Y-122396788D01*
X160816579Y-122508798D01*
X161103652Y-122565900D01*
X161396348Y-122565900D01*
X161683421Y-122508798D01*
X161953838Y-122396788D01*
X162197206Y-122234174D01*
X162404174Y-122027206D01*
X162566788Y-121783838D01*
X162678798Y-121513421D01*
X162735900Y-121226348D01*
X162735900Y-120933652D01*
X162684451Y-120675000D01*
X162730279Y-120675000D01*
X163142756Y-120592953D01*
X163531302Y-120432012D01*
X163837708Y-120227279D01*
X163802127Y-120313178D01*
X163701100Y-120821076D01*
X163701100Y-121338924D01*
X163802127Y-121846822D01*
X164000299Y-122325251D01*
X164288000Y-122755826D01*
X164654174Y-123122000D01*
X165084749Y-123409701D01*
X165563178Y-123607873D01*
X166071076Y-123708900D01*
X166588924Y-123708900D01*
X167096822Y-123607873D01*
X167575251Y-123409701D01*
X168005826Y-123122000D01*
X168372000Y-122755826D01*
X168659701Y-122325251D01*
X168857873Y-121846822D01*
X168958900Y-121338924D01*
X168958900Y-120933652D01*
X169924100Y-120933652D01*
X169924100Y-121226348D01*
X169981202Y-121513421D01*
X170093212Y-121783838D01*
X170255826Y-122027206D01*
X170462794Y-122234174D01*
X170706162Y-122396788D01*
X170976579Y-122508798D01*
X171263652Y-122565900D01*
X171556348Y-122565900D01*
X171843421Y-122508798D01*
X172113838Y-122396788D01*
X172357206Y-122234174D01*
X172564174Y-122027206D01*
X172726788Y-121783838D01*
X172838798Y-121513421D01*
X172895900Y-121226348D01*
X172895900Y-120933652D01*
X178814100Y-120933652D01*
X178814100Y-121226348D01*
X178871202Y-121513421D01*
X178983212Y-121783838D01*
X179145826Y-122027206D01*
X179352794Y-122234174D01*
X179596162Y-122396788D01*
X179866579Y-122508798D01*
X180153652Y-122565900D01*
X180446348Y-122565900D01*
X180733421Y-122508798D01*
X181003838Y-122396788D01*
X181247206Y-122234174D01*
X181454174Y-122027206D01*
X181616788Y-121783838D01*
X181728798Y-121513421D01*
X181785900Y-121226348D01*
X181785900Y-120933652D01*
X181734451Y-120675000D01*
X181780279Y-120675000D01*
X182192756Y-120592953D01*
X182581302Y-120432012D01*
X182887708Y-120227279D01*
X182852127Y-120313178D01*
X182751100Y-120821076D01*
X182751100Y-121338924D01*
X182852127Y-121846822D01*
X183050299Y-122325251D01*
X183338000Y-122755826D01*
X183704174Y-123122000D01*
X184134749Y-123409701D01*
X184613178Y-123607873D01*
X185121076Y-123708900D01*
X185638924Y-123708900D01*
X186146822Y-123607873D01*
X186625251Y-123409701D01*
X187055826Y-123122000D01*
X187422000Y-122755826D01*
X187709701Y-122325251D01*
X187907873Y-121846822D01*
X188008900Y-121338924D01*
X188008900Y-120933652D01*
X188974100Y-120933652D01*
X188974100Y-121226348D01*
X189031202Y-121513421D01*
X189143212Y-121783838D01*
X189305826Y-122027206D01*
X189512794Y-122234174D01*
X189756162Y-122396788D01*
X190026579Y-122508798D01*
X190313652Y-122565900D01*
X190606348Y-122565900D01*
X190893421Y-122508798D01*
X191163838Y-122396788D01*
X191407206Y-122234174D01*
X191614174Y-122027206D01*
X191776788Y-121783838D01*
X191888798Y-121513421D01*
X191945900Y-121226348D01*
X191945900Y-120933652D01*
X191888798Y-120646579D01*
X191776788Y-120376162D01*
X191614174Y-120132794D01*
X191407206Y-119925826D01*
X191163838Y-119763212D01*
X190893421Y-119651202D01*
X190606348Y-119594100D01*
X190313652Y-119594100D01*
X190026579Y-119651202D01*
X189756162Y-119763212D01*
X189512794Y-119925826D01*
X189305826Y-120132794D01*
X189143212Y-120376162D01*
X189031202Y-120646579D01*
X188974100Y-120933652D01*
X188008900Y-120933652D01*
X188008900Y-120821076D01*
X187907873Y-120313178D01*
X187709701Y-119834749D01*
X187422000Y-119404174D01*
X187055826Y-119038000D01*
X186625251Y-118750299D01*
X186146822Y-118552127D01*
X185638924Y-118451100D01*
X185121076Y-118451100D01*
X184613178Y-118552127D01*
X184134749Y-118750299D01*
X183704174Y-119038000D01*
X183633763Y-119108411D01*
X183705000Y-118750279D01*
X183705000Y-118329721D01*
X183622953Y-117917244D01*
X183462012Y-117528698D01*
X183228363Y-117179017D01*
X182930983Y-116881637D01*
X182581302Y-116647988D01*
X182192756Y-116487047D01*
X181780279Y-116405000D01*
X181359721Y-116405000D01*
X180947244Y-116487047D01*
X180558698Y-116647988D01*
X180209017Y-116881637D01*
X179911637Y-117179017D01*
X179677988Y-117528698D01*
X179517047Y-117917244D01*
X179435000Y-118329721D01*
X179435000Y-118750279D01*
X179517047Y-119162756D01*
X179677988Y-119551302D01*
X179771150Y-119690730D01*
X179596162Y-119763212D01*
X179352794Y-119925826D01*
X179145826Y-120132794D01*
X178983212Y-120376162D01*
X178871202Y-120646579D01*
X178814100Y-120933652D01*
X172895900Y-120933652D01*
X172838798Y-120646579D01*
X172726788Y-120376162D01*
X172564174Y-120132794D01*
X172357206Y-119925826D01*
X172113838Y-119763212D01*
X171843421Y-119651202D01*
X171556348Y-119594100D01*
X171263652Y-119594100D01*
X170976579Y-119651202D01*
X170706162Y-119763212D01*
X170462794Y-119925826D01*
X170255826Y-120132794D01*
X170093212Y-120376162D01*
X169981202Y-120646579D01*
X169924100Y-120933652D01*
X168958900Y-120933652D01*
X168958900Y-120821076D01*
X168857873Y-120313178D01*
X168659701Y-119834749D01*
X168372000Y-119404174D01*
X168005826Y-119038000D01*
X167575251Y-118750299D01*
X167096822Y-118552127D01*
X166588924Y-118451100D01*
X166071076Y-118451100D01*
X165563178Y-118552127D01*
X165084749Y-118750299D01*
X164654174Y-119038000D01*
X164583763Y-119108411D01*
X164655000Y-118750279D01*
X164655000Y-118329721D01*
X164572953Y-117917244D01*
X164412012Y-117528698D01*
X164178363Y-117179017D01*
X163880983Y-116881637D01*
X163531302Y-116647988D01*
X163142756Y-116487047D01*
X162730279Y-116405000D01*
X162309721Y-116405000D01*
X161897244Y-116487047D01*
X161508698Y-116647988D01*
X161159017Y-116881637D01*
X160861637Y-117179017D01*
X160627988Y-117528698D01*
X160467047Y-117917244D01*
X160385000Y-118329721D01*
X160385000Y-118750279D01*
X160467047Y-119162756D01*
X160627988Y-119551302D01*
X160721150Y-119690730D01*
X160546162Y-119763212D01*
X160302794Y-119925826D01*
X160095826Y-120132794D01*
X159933212Y-120376162D01*
X159821202Y-120646579D01*
X159764100Y-120933652D01*
X159530000Y-120933652D01*
X159530000Y-119243711D01*
X159573937Y-119199774D01*
X159687205Y-119030256D01*
X159765226Y-118841898D01*
X159805000Y-118641939D01*
X159805000Y-118438061D01*
X159765226Y-118238102D01*
X159687205Y-118049744D01*
X159573937Y-117880226D01*
X159429774Y-117736063D01*
X159260256Y-117622795D01*
X159071898Y-117544774D01*
X158871939Y-117505000D01*
X158668061Y-117505000D01*
X158468102Y-117544774D01*
X158279744Y-117622795D01*
X158110226Y-117736063D01*
X157966063Y-117880226D01*
X157852795Y-118049744D01*
X157774774Y-118238102D01*
X157735000Y-118438061D01*
X157735000Y-118641939D01*
X157774774Y-118841898D01*
X157852795Y-119030256D01*
X157966063Y-119199774D01*
X158010000Y-119243711D01*
X158010001Y-127032668D01*
X158006324Y-127070000D01*
X158010001Y-127107333D01*
X158020998Y-127218986D01*
X158032851Y-127258062D01*
X158064454Y-127362246D01*
X158135026Y-127494276D01*
X158199670Y-127573044D01*
X158230000Y-127610001D01*
X158258998Y-127633799D01*
X160186201Y-129561003D01*
X160209999Y-129590001D01*
X160325724Y-129684974D01*
X160457753Y-129755546D01*
X160601014Y-129799003D01*
X160712667Y-129810000D01*
X160712677Y-129810000D01*
X160750000Y-129813676D01*
X160787323Y-129810000D01*
X169722678Y-129810000D01*
X169760000Y-129813676D01*
X169797322Y-129810000D01*
X169797333Y-129810000D01*
X169908986Y-129799003D01*
X170052247Y-129755546D01*
X170184276Y-129684974D01*
X170300001Y-129590001D01*
X170323804Y-129560997D01*
X173614802Y-126270000D01*
X174175679Y-126270000D01*
X173924774Y-126520905D01*
X173652821Y-126927911D01*
X173465497Y-127380152D01*
X173370000Y-127860249D01*
X173370000Y-128349751D01*
X173465497Y-128829848D01*
X173652821Y-129282089D01*
X173924774Y-129689095D01*
X174270905Y-130035226D01*
X174677911Y-130307179D01*
X175130152Y-130494503D01*
X175610249Y-130590000D01*
X176099751Y-130590000D01*
X176579848Y-130494503D01*
X177032089Y-130307179D01*
X177439095Y-130035226D01*
X177785226Y-129689095D01*
X178057179Y-129282089D01*
X178244503Y-128829848D01*
X178340000Y-128349751D01*
X178340000Y-127860249D01*
X178244503Y-127380152D01*
X178057179Y-126927911D01*
X177785226Y-126520905D01*
X177534321Y-126270000D01*
X177715199Y-126270000D01*
X180526201Y-129081003D01*
X180549999Y-129110001D01*
X180578997Y-129133799D01*
X180665724Y-129204974D01*
X180797753Y-129275546D01*
X180941014Y-129319003D01*
X181090000Y-129333677D01*
X181127333Y-129330000D01*
X210228678Y-129330000D01*
X210266000Y-129333676D01*
X210303322Y-129330000D01*
X210303333Y-129330000D01*
X210414986Y-129319003D01*
X210558247Y-129275546D01*
X210690276Y-129204974D01*
X210806001Y-129110001D01*
X210829804Y-129080997D01*
X212011004Y-127899798D01*
X212040001Y-127876001D01*
X212134974Y-127760276D01*
X212205546Y-127628247D01*
X212249003Y-127484986D01*
X212260000Y-127373333D01*
X212260000Y-127373332D01*
X212263677Y-127336000D01*
X212260000Y-127298667D01*
X212260000Y-126983330D01*
X212957278Y-126983330D01*
X213047147Y-127229123D01*
X213183241Y-127452660D01*
X213360330Y-127645351D01*
X213571608Y-127799792D01*
X213808956Y-127910047D01*
X213916671Y-127942716D01*
X214123000Y-127819374D01*
X214123000Y-126777000D01*
X214377000Y-126777000D01*
X214377000Y-127819374D01*
X214583329Y-127942716D01*
X214691044Y-127910047D01*
X214928392Y-127799792D01*
X215139670Y-127645351D01*
X215316759Y-127452660D01*
X215452853Y-127229123D01*
X215542722Y-126983330D01*
X215420201Y-126777000D01*
X214377000Y-126777000D01*
X214123000Y-126777000D01*
X213079799Y-126777000D01*
X212957278Y-126983330D01*
X212260000Y-126983330D01*
X212260000Y-126316670D01*
X212957278Y-126316670D01*
X213079799Y-126523000D01*
X214123000Y-126523000D01*
X214123000Y-125480626D01*
X214377000Y-125480626D01*
X214377000Y-126523000D01*
X215420201Y-126523000D01*
X215542722Y-126316670D01*
X215452853Y-126070877D01*
X215316759Y-125847340D01*
X215139670Y-125654649D01*
X214928392Y-125500208D01*
X214691044Y-125389953D01*
X214583329Y-125357284D01*
X214377000Y-125480626D01*
X214123000Y-125480626D01*
X213916671Y-125357284D01*
X213808956Y-125389953D01*
X213571608Y-125500208D01*
X213360330Y-125654649D01*
X213183241Y-125847340D01*
X213047147Y-126070877D01*
X212957278Y-126316670D01*
X212260000Y-126316670D01*
X212260000Y-125834810D01*
X212463398Y-125698904D01*
X212673904Y-125488398D01*
X212839297Y-125240869D01*
X212953222Y-124965830D01*
X213011300Y-124673850D01*
X213011300Y-124376150D01*
X212953222Y-124084170D01*
X212839297Y-123809131D01*
X212673904Y-123561602D01*
X212463398Y-123351096D01*
X212319580Y-123255000D01*
X212463398Y-123158904D01*
X212673904Y-122948398D01*
X212839297Y-122700869D01*
X212953222Y-122425830D01*
X213011300Y-122133850D01*
X213011300Y-122068035D01*
X213066939Y-122202359D01*
X213213038Y-122421013D01*
X213398987Y-122606962D01*
X213617641Y-122753061D01*
X213860595Y-122853696D01*
X214118514Y-122905000D01*
X214381486Y-122905000D01*
X214639405Y-122853696D01*
X214882359Y-122753061D01*
X215101013Y-122606962D01*
X215286962Y-122421013D01*
X215433061Y-122202359D01*
X215533696Y-121959405D01*
X215585000Y-121701486D01*
X215585000Y-121438514D01*
X215563645Y-121331156D01*
X215868376Y-121026426D01*
X215852795Y-121049744D01*
X215774774Y-121238102D01*
X215735000Y-121438061D01*
X215735000Y-121641939D01*
X215774774Y-121841898D01*
X215852795Y-122030256D01*
X215910000Y-122115870D01*
X215910001Y-128498288D01*
X215782063Y-128626226D01*
X215668795Y-128795744D01*
X215590774Y-128984102D01*
X215551000Y-129184061D01*
X215551000Y-129387939D01*
X215590774Y-129587898D01*
X215668795Y-129776256D01*
X215782063Y-129945774D01*
X215926226Y-130089937D01*
X216095744Y-130203205D01*
X216284102Y-130281226D01*
X216484061Y-130321000D01*
X216687939Y-130321000D01*
X216887898Y-130281226D01*
X217076256Y-130203205D01*
X217245774Y-130089937D01*
X217389937Y-129945774D01*
X217503205Y-129776256D01*
X217581226Y-129587898D01*
X217621000Y-129387939D01*
X217621000Y-129235622D01*
X217630000Y-129144246D01*
X217630000Y-129144240D01*
X217634160Y-129102001D01*
X217630000Y-129059762D01*
X217630000Y-127621269D01*
X223778336Y-127621269D01*
X223837797Y-127855037D01*
X224076242Y-127965934D01*
X224331740Y-128028183D01*
X224594473Y-128039390D01*
X224854344Y-127999125D01*
X225101366Y-127908935D01*
X225202203Y-127855037D01*
X225261664Y-127621269D01*
X224520000Y-126879605D01*
X223778336Y-127621269D01*
X217630000Y-127621269D01*
X217630000Y-126774473D01*
X223180610Y-126774473D01*
X223220875Y-127034344D01*
X223311065Y-127281366D01*
X223364963Y-127382203D01*
X223598731Y-127441664D01*
X224340395Y-126700000D01*
X223598731Y-125958336D01*
X223364963Y-126017797D01*
X223254066Y-126256242D01*
X223191817Y-126511740D01*
X223180610Y-126774473D01*
X217630000Y-126774473D01*
X217630000Y-125778731D01*
X223778336Y-125778731D01*
X224520000Y-126520395D01*
X224534143Y-126506253D01*
X224713748Y-126685858D01*
X224699605Y-126700000D01*
X225441269Y-127441664D01*
X225675037Y-127382203D01*
X225726285Y-127272012D01*
X225795905Y-127341632D01*
X226202911Y-127613585D01*
X226655152Y-127800909D01*
X227135249Y-127896406D01*
X227624751Y-127896406D01*
X228104848Y-127800909D01*
X228557089Y-127613585D01*
X228964095Y-127341632D01*
X229310226Y-126995501D01*
X229582179Y-126588495D01*
X229769503Y-126136254D01*
X229865000Y-125656157D01*
X229865000Y-125166655D01*
X229769503Y-124686558D01*
X229582179Y-124234317D01*
X229310226Y-123827311D01*
X228964095Y-123481180D01*
X228557089Y-123209227D01*
X228104848Y-123021903D01*
X227624751Y-122926406D01*
X227135249Y-122926406D01*
X226655152Y-123021903D01*
X226202911Y-123209227D01*
X225795905Y-123481180D01*
X225449774Y-123827311D01*
X225177821Y-124234317D01*
X224990497Y-124686558D01*
X224895000Y-125166655D01*
X224895000Y-125417314D01*
X224708260Y-125371817D01*
X224445527Y-125360610D01*
X224185656Y-125400875D01*
X223938634Y-125491065D01*
X223837797Y-125544963D01*
X223778336Y-125778731D01*
X217630000Y-125778731D01*
X217630000Y-125390854D01*
X217720423Y-125423945D01*
X217780583Y-125439504D01*
X217840407Y-125455871D01*
X217849846Y-125457417D01*
X217849853Y-125457419D01*
X217849861Y-125457419D01*
X217946253Y-125472516D01*
X218008231Y-125476091D01*
X218070166Y-125480531D01*
X218079725Y-125480214D01*
X218177230Y-125476299D01*
X218238698Y-125467770D01*
X218300333Y-125460094D01*
X218309648Y-125457927D01*
X218404535Y-125435148D01*
X218463223Y-125414826D01*
X218522152Y-125395338D01*
X218530869Y-125391402D01*
X218619202Y-125350774D01*
X218619519Y-125350631D01*
X218631764Y-125344999D01*
X220130132Y-125344999D01*
X220139264Y-125350420D01*
X220147954Y-125354415D01*
X220236896Y-125394562D01*
X220295712Y-125414463D01*
X220354230Y-125435178D01*
X220363527Y-125437409D01*
X220363532Y-125437411D01*
X220363537Y-125437412D01*
X220458576Y-125459517D01*
X220520125Y-125467613D01*
X220581565Y-125476570D01*
X220591122Y-125476953D01*
X220688651Y-125480178D01*
X220750616Y-125476164D01*
X220812619Y-125473016D01*
X220822068Y-125471535D01*
X220918366Y-125455754D01*
X220978362Y-125439783D01*
X221038566Y-125424654D01*
X221047547Y-125421366D01*
X221047556Y-125421363D01*
X221047559Y-125421361D01*
X221138947Y-125387182D01*
X221194686Y-125359868D01*
X221250827Y-125333323D01*
X221258999Y-125328354D01*
X221342018Y-125277068D01*
X221391429Y-125239418D01*
X221441308Y-125202501D01*
X221448359Y-125196039D01*
X221519835Y-125129604D01*
X221560960Y-125083110D01*
X221602740Y-125037184D01*
X221608402Y-125029475D01*
X221665614Y-124950423D01*
X221696929Y-124896822D01*
X221728999Y-124843645D01*
X221733055Y-124834983D01*
X221773822Y-124746323D01*
X221794113Y-124687705D01*
X221815256Y-124629277D01*
X221817553Y-124619992D01*
X221840323Y-124525103D01*
X221848850Y-124463598D01*
X221858234Y-124402230D01*
X221858683Y-124392677D01*
X221862588Y-124295172D01*
X221859008Y-124233208D01*
X221856292Y-124171166D01*
X221854878Y-124161707D01*
X221839769Y-124065300D01*
X221824220Y-124005204D01*
X221809508Y-123944883D01*
X221806284Y-123935879D01*
X221772739Y-123844243D01*
X221772737Y-123844240D01*
X221764999Y-123823100D01*
X221764999Y-122492731D01*
X221765140Y-122492264D01*
X221772624Y-122476988D01*
X221775911Y-122468006D01*
X221808807Y-122376135D01*
X221823932Y-122315922D01*
X221839897Y-122255924D01*
X221841377Y-122246475D01*
X221855802Y-122149964D01*
X221858943Y-122087981D01*
X221862952Y-122026006D01*
X221862568Y-122016449D01*
X221857973Y-121918975D01*
X221849012Y-121857543D01*
X221840908Y-121795981D01*
X221838678Y-121786694D01*
X221838677Y-121786686D01*
X221838674Y-121786679D01*
X221815235Y-121691956D01*
X221794509Y-121633428D01*
X221774606Y-121574624D01*
X221770610Y-121565935D01*
X221729215Y-121477566D01*
X221697543Y-121424223D01*
X221666572Y-121370361D01*
X221660964Y-121362614D01*
X221603195Y-121283969D01*
X221561745Y-121237772D01*
X221520920Y-121190972D01*
X221513914Y-121184461D01*
X221441969Y-121118534D01*
X221392324Y-121081259D01*
X221343198Y-121043289D01*
X221335061Y-121038263D01*
X221251681Y-120987566D01*
X221195720Y-120960634D01*
X221140181Y-120932942D01*
X221131223Y-120929592D01*
X221039584Y-120896055D01*
X220979470Y-120880508D01*
X220919587Y-120864125D01*
X220910149Y-120862579D01*
X220813742Y-120847481D01*
X220751759Y-120843906D01*
X220689836Y-120839467D01*
X220680277Y-120839783D01*
X220582771Y-120843699D01*
X220521312Y-120852226D01*
X220459667Y-120859904D01*
X220450352Y-120862071D01*
X220355465Y-120884850D01*
X220296778Y-120905171D01*
X220237854Y-120924658D01*
X220229137Y-120928593D01*
X220140482Y-120969368D01*
X220128237Y-120975000D01*
X218629868Y-120975000D01*
X218620736Y-120969579D01*
X218612046Y-120965584D01*
X218523104Y-120925437D01*
X218464281Y-120905533D01*
X218405771Y-120884821D01*
X218396471Y-120882589D01*
X218396468Y-120882588D01*
X218396465Y-120882588D01*
X218301426Y-120860482D01*
X218239863Y-120852384D01*
X218178436Y-120843429D01*
X218168879Y-120843046D01*
X218071349Y-120839821D01*
X218009396Y-120843834D01*
X217947389Y-120846982D01*
X217937940Y-120848463D01*
X217841642Y-120864243D01*
X217781666Y-120880209D01*
X217721435Y-120895344D01*
X217712453Y-120898632D01*
X217621054Y-120932816D01*
X217612031Y-120937238D01*
X217573937Y-120880226D01*
X217429774Y-120736063D01*
X217365433Y-120693072D01*
X217880000Y-120693072D01*
X218004482Y-120680812D01*
X218124180Y-120644502D01*
X218234494Y-120585537D01*
X218331185Y-120506185D01*
X218410537Y-120409494D01*
X218465976Y-120305777D01*
X218519956Y-120454814D01*
X218809571Y-120595704D01*
X219121108Y-120677384D01*
X219442595Y-120696718D01*
X219761675Y-120652961D01*
X220066088Y-120547795D01*
X220240044Y-120454814D01*
X220335808Y-120190413D01*
X219380000Y-119234605D01*
X219365858Y-119248748D01*
X219186253Y-119069143D01*
X219200395Y-119055000D01*
X219186253Y-119040858D01*
X219365858Y-118861253D01*
X219380000Y-118875395D01*
X220335808Y-117919587D01*
X220240044Y-117655186D01*
X219950429Y-117514296D01*
X219638892Y-117432616D01*
X219317405Y-117413282D01*
X218998325Y-117457039D01*
X218693912Y-117562205D01*
X218519956Y-117655186D01*
X218465976Y-117804223D01*
X218410537Y-117700506D01*
X218331185Y-117603815D01*
X218234494Y-117524463D01*
X218124180Y-117465498D01*
X218004482Y-117429188D01*
X217880000Y-117416928D01*
X216316729Y-117416928D01*
X216293804Y-117394003D01*
X216270001Y-117364999D01*
X216154276Y-117270026D01*
X216022247Y-117199454D01*
X215878986Y-117155997D01*
X215767333Y-117145000D01*
X215767322Y-117145000D01*
X215730000Y-117141324D01*
X215692678Y-117145000D01*
X212993169Y-117145000D01*
X213011300Y-117053850D01*
X213011300Y-116756150D01*
X212953222Y-116464170D01*
X212839297Y-116189131D01*
X212796446Y-116125000D01*
X220460199Y-116125000D01*
X221120000Y-116784802D01*
X221120000Y-117600091D01*
X221105537Y-117606082D01*
X220837748Y-117785013D01*
X220610013Y-118012748D01*
X220545075Y-118109935D01*
X220515413Y-118099192D01*
X219559605Y-119055000D01*
X220515413Y-120010808D01*
X220545075Y-120000065D01*
X220610013Y-120097252D01*
X220837748Y-120324987D01*
X221105537Y-120503918D01*
X221403088Y-120627168D01*
X221718967Y-120690000D01*
X222041033Y-120690000D01*
X222356912Y-120627168D01*
X222424409Y-120599210D01*
X223206355Y-121381157D01*
X223185000Y-121488514D01*
X223185000Y-121751486D01*
X223236304Y-122009405D01*
X223336939Y-122252359D01*
X223483038Y-122471013D01*
X223668987Y-122656962D01*
X223887641Y-122803061D01*
X224130595Y-122903696D01*
X224388514Y-122955000D01*
X224651486Y-122955000D01*
X224909405Y-122903696D01*
X225152359Y-122803061D01*
X225371013Y-122656962D01*
X225556962Y-122471013D01*
X225703061Y-122252359D01*
X225803696Y-122009405D01*
X225855000Y-121751486D01*
X225855000Y-121488514D01*
X225803696Y-121230595D01*
X225703061Y-120987641D01*
X225556962Y-120768987D01*
X225371013Y-120583038D01*
X225152359Y-120436939D01*
X224909405Y-120336304D01*
X224651486Y-120285000D01*
X224388514Y-120285000D01*
X224281157Y-120306355D01*
X223461218Y-119486416D01*
X223515000Y-119216033D01*
X223515000Y-118893967D01*
X223452168Y-118578088D01*
X223328918Y-118280537D01*
X223149987Y-118012748D01*
X222922252Y-117785013D01*
X222654463Y-117606082D01*
X222640000Y-117600091D01*
X222640000Y-116507322D01*
X222643676Y-116470000D01*
X222640000Y-116432677D01*
X222640000Y-116432667D01*
X222629003Y-116321014D01*
X222585546Y-116177753D01*
X222557349Y-116125000D01*
X222514974Y-116045723D01*
X222443799Y-115958997D01*
X222420001Y-115929999D01*
X222391004Y-115906202D01*
X221338804Y-114854002D01*
X221315001Y-114824999D01*
X221199276Y-114730026D01*
X221067247Y-114659454D01*
X220923986Y-114615997D01*
X220812333Y-114605000D01*
X220812322Y-114605000D01*
X220775000Y-114601324D01*
X220737678Y-114605000D01*
X212993169Y-114605000D01*
X213011300Y-114513850D01*
X213011300Y-114216150D01*
X212953222Y-113924170D01*
X212898919Y-113793072D01*
X214780000Y-113793072D01*
X214904482Y-113780812D01*
X215024180Y-113744502D01*
X215134494Y-113685537D01*
X215231185Y-113606185D01*
X215310537Y-113509494D01*
X215369502Y-113399180D01*
X215405812Y-113279482D01*
X215418072Y-113155000D01*
X215418072Y-110168701D01*
X216988977Y-110168701D01*
X217026299Y-110172377D01*
X217063621Y-110168701D01*
X217063632Y-110168701D01*
X217175285Y-110157704D01*
X217318546Y-110114247D01*
X217450575Y-110043675D01*
X217558625Y-109955000D01*
X223341928Y-109955000D01*
X223341928Y-113155000D01*
X223354188Y-113279482D01*
X223390498Y-113399180D01*
X223449463Y-113509494D01*
X223528815Y-113606185D01*
X223625506Y-113685537D01*
X223735820Y-113744502D01*
X223855518Y-113780812D01*
X223980000Y-113793072D01*
X225980000Y-113793072D01*
X226104482Y-113780812D01*
X226224180Y-113744502D01*
X226334494Y-113685537D01*
X226431185Y-113606185D01*
X226510537Y-113509494D01*
X226569502Y-113399180D01*
X226605812Y-113279482D01*
X226618072Y-113155000D01*
X226618072Y-109955000D01*
X226605812Y-109830518D01*
X226569502Y-109710820D01*
X226510537Y-109600506D01*
X226431185Y-109503815D01*
X226334494Y-109424463D01*
X226224180Y-109365498D01*
X226104482Y-109329188D01*
X225980000Y-109316928D01*
X223980000Y-109316928D01*
X223855518Y-109329188D01*
X223735820Y-109365498D01*
X223625506Y-109424463D01*
X223528815Y-109503815D01*
X223449463Y-109600506D01*
X223390498Y-109710820D01*
X223354188Y-109830518D01*
X223341928Y-109955000D01*
X217558625Y-109955000D01*
X217566300Y-109948702D01*
X217590103Y-109919698D01*
X221388625Y-106121177D01*
X221403088Y-106127168D01*
X221718967Y-106190000D01*
X222041033Y-106190000D01*
X222356912Y-106127168D01*
X222654463Y-106003918D01*
X222922252Y-105824987D01*
X223149987Y-105597252D01*
X223328918Y-105329463D01*
X223452168Y-105031912D01*
X223515000Y-104716033D01*
X223515000Y-104393967D01*
X223452168Y-104078088D01*
X223328918Y-103780537D01*
X223149987Y-103512748D01*
X222922252Y-103285013D01*
X222654463Y-103106082D01*
X222356912Y-102982832D01*
X222041033Y-102920000D01*
X221718967Y-102920000D01*
X221403088Y-102982832D01*
X221105537Y-103106082D01*
X220837748Y-103285013D01*
X220610013Y-103512748D01*
X220431082Y-103780537D01*
X220307832Y-104078088D01*
X220245000Y-104393967D01*
X220245000Y-104716033D01*
X220307832Y-105031912D01*
X220313823Y-105046375D01*
X216711498Y-108648701D01*
X212872256Y-108648701D01*
X212839297Y-108569131D01*
X212673904Y-108321602D01*
X212463398Y-108111096D01*
X212319580Y-108015000D01*
X212463398Y-107918904D01*
X212673904Y-107708398D01*
X212839297Y-107460869D01*
X212858168Y-107415310D01*
X212924276Y-107379974D01*
X213040001Y-107285001D01*
X213063804Y-107255997D01*
X215004802Y-105315000D01*
X215425091Y-105315000D01*
X215431082Y-105329463D01*
X215610013Y-105597252D01*
X215837748Y-105824987D01*
X216105537Y-106003918D01*
X216403088Y-106127168D01*
X216718967Y-106190000D01*
X217041033Y-106190000D01*
X217356912Y-106127168D01*
X217654463Y-106003918D01*
X217922252Y-105824987D01*
X218149987Y-105597252D01*
X218328918Y-105329463D01*
X218452168Y-105031912D01*
X218515000Y-104716033D01*
X218515000Y-104393967D01*
X218452168Y-104078088D01*
X218328918Y-103780537D01*
X218149987Y-103512748D01*
X217922252Y-103285013D01*
X217654463Y-103106082D01*
X217356912Y-102982832D01*
X217041033Y-102920000D01*
X216718967Y-102920000D01*
X216403088Y-102982832D01*
X216105537Y-103106082D01*
X215837748Y-103285013D01*
X215610013Y-103512748D01*
X215431082Y-103780537D01*
X215425091Y-103795000D01*
X214727325Y-103795000D01*
X214690000Y-103791324D01*
X214652675Y-103795000D01*
X214652667Y-103795000D01*
X214541014Y-103805997D01*
X214397753Y-103849454D01*
X214265724Y-103920026D01*
X214149999Y-104014999D01*
X214126201Y-104043997D01*
X212531250Y-105638948D01*
X212463398Y-105571096D01*
X212319580Y-105475000D01*
X212463398Y-105378904D01*
X212673904Y-105168398D01*
X212772335Y-105021086D01*
X212830700Y-105003381D01*
X212980102Y-104923524D01*
X213111054Y-104816054D01*
X213137988Y-104783235D01*
X216917906Y-101003317D01*
X216904198Y-101095040D01*
X216901057Y-101157032D01*
X216897049Y-101218992D01*
X216897433Y-101228548D01*
X216902028Y-101326023D01*
X216910989Y-101387455D01*
X216919093Y-101449017D01*
X216921325Y-101458317D01*
X216944766Y-101553042D01*
X216965492Y-101611570D01*
X216985395Y-101670374D01*
X216989392Y-101679063D01*
X217030786Y-101767433D01*
X217062468Y-101820792D01*
X217093429Y-101874637D01*
X217099037Y-101882384D01*
X217156806Y-101961029D01*
X217198256Y-102007226D01*
X217239081Y-102054026D01*
X217246087Y-102060537D01*
X217318032Y-102126464D01*
X217367663Y-102163729D01*
X217416800Y-102201707D01*
X217424937Y-102206733D01*
X217508316Y-102257430D01*
X217564274Y-102284362D01*
X217619825Y-102312059D01*
X217628784Y-102315409D01*
X217720423Y-102348945D01*
X217780583Y-102364504D01*
X217840407Y-102380871D01*
X217849846Y-102382417D01*
X217849853Y-102382419D01*
X217849861Y-102382419D01*
X217946253Y-102397516D01*
X218008231Y-102401091D01*
X218070166Y-102405531D01*
X218079725Y-102405214D01*
X218177230Y-102401299D01*
X218238698Y-102392770D01*
X218300333Y-102385094D01*
X218309648Y-102382927D01*
X218404535Y-102360148D01*
X218463223Y-102339826D01*
X218522152Y-102320338D01*
X218530869Y-102316402D01*
X218619202Y-102275774D01*
X218619519Y-102275631D01*
X218631764Y-102269999D01*
X220130132Y-102269999D01*
X220139264Y-102275420D01*
X220147954Y-102279415D01*
X220236896Y-102319562D01*
X220295712Y-102339463D01*
X220354230Y-102360178D01*
X220363527Y-102362409D01*
X220363532Y-102362411D01*
X220363537Y-102362412D01*
X220458576Y-102384517D01*
X220520125Y-102392613D01*
X220581565Y-102401570D01*
X220591122Y-102401953D01*
X220688651Y-102405178D01*
X220750616Y-102401164D01*
X220812619Y-102398016D01*
X220822068Y-102396535D01*
X220918366Y-102380754D01*
X220978362Y-102364783D01*
X221038566Y-102349654D01*
X221047547Y-102346366D01*
X221047556Y-102346363D01*
X221047559Y-102346361D01*
X221138947Y-102312182D01*
X221194686Y-102284868D01*
X221250827Y-102258323D01*
X221258999Y-102253354D01*
X221342018Y-102202068D01*
X221391429Y-102164418D01*
X221441308Y-102127501D01*
X221448359Y-102121039D01*
X221519835Y-102054604D01*
X221560960Y-102008110D01*
X221602740Y-101962184D01*
X221608402Y-101954475D01*
X221665614Y-101875423D01*
X221696929Y-101821822D01*
X221728999Y-101768645D01*
X221733055Y-101759983D01*
X221773822Y-101671323D01*
X221794113Y-101612705D01*
X221815256Y-101554277D01*
X221817553Y-101544992D01*
X221840323Y-101450103D01*
X221848850Y-101388598D01*
X221858234Y-101327230D01*
X221858683Y-101317677D01*
X221862588Y-101220172D01*
X221859008Y-101158208D01*
X221856292Y-101096166D01*
X221854878Y-101086707D01*
X221839769Y-100990300D01*
X221824220Y-100930204D01*
X221809508Y-100869883D01*
X221806284Y-100860879D01*
X221772739Y-100769243D01*
X221772737Y-100769240D01*
X221764999Y-100748100D01*
X221764999Y-99417731D01*
X221765140Y-99417264D01*
X221772624Y-99401988D01*
X221775911Y-99393006D01*
X221808807Y-99301135D01*
X221823932Y-99240922D01*
X221839897Y-99180924D01*
X221841377Y-99171475D01*
X221855802Y-99074964D01*
X221858943Y-99012981D01*
X221862952Y-98951006D01*
X221862568Y-98941449D01*
X221857973Y-98843975D01*
X221849012Y-98782543D01*
X221840908Y-98720981D01*
X221838678Y-98711694D01*
X221838677Y-98711686D01*
X221838674Y-98711679D01*
X221815235Y-98616956D01*
X221794509Y-98558428D01*
X221774606Y-98499624D01*
X221770610Y-98490935D01*
X221729215Y-98402566D01*
X221697543Y-98349223D01*
X221666572Y-98295361D01*
X221660964Y-98287614D01*
X221603195Y-98208969D01*
X221561745Y-98162772D01*
X221520920Y-98115972D01*
X221513914Y-98109461D01*
X221441969Y-98043534D01*
X221392324Y-98006259D01*
X221343198Y-97968289D01*
X221335061Y-97963263D01*
X221251681Y-97912566D01*
X221195720Y-97885634D01*
X221140181Y-97857942D01*
X221131223Y-97854592D01*
X221039584Y-97821055D01*
X220979470Y-97805508D01*
X220919587Y-97789125D01*
X220910149Y-97787579D01*
X220813742Y-97772481D01*
X220751759Y-97768906D01*
X220689836Y-97764467D01*
X220680277Y-97764783D01*
X220582771Y-97768699D01*
X220521312Y-97777226D01*
X220459667Y-97784904D01*
X220450352Y-97787071D01*
X220355465Y-97809850D01*
X220296778Y-97830171D01*
X220237854Y-97849658D01*
X220229137Y-97853593D01*
X220140482Y-97894368D01*
X220128237Y-97900000D01*
X218629868Y-97900000D01*
X218620736Y-97894579D01*
X218612046Y-97890584D01*
X218523104Y-97850437D01*
X218464281Y-97830533D01*
X218405771Y-97809821D01*
X218396471Y-97807589D01*
X218396468Y-97807588D01*
X218396465Y-97807588D01*
X218301426Y-97785482D01*
X218239863Y-97777384D01*
X218178436Y-97768429D01*
X218168879Y-97768046D01*
X218071349Y-97764821D01*
X218009396Y-97768834D01*
X217947389Y-97771982D01*
X217937940Y-97773463D01*
X217841642Y-97789243D01*
X217781666Y-97805209D01*
X217721435Y-97820344D01*
X217712453Y-97823632D01*
X217621054Y-97857816D01*
X217565316Y-97885129D01*
X217509174Y-97911675D01*
X217501002Y-97916644D01*
X217469995Y-97935799D01*
X217416164Y-97855236D01*
X217272001Y-97711073D01*
X217102483Y-97597805D01*
X216968496Y-97542305D01*
X217056958Y-97453843D01*
X224895000Y-97453843D01*
X224895000Y-97943345D01*
X224990497Y-98423442D01*
X225177821Y-98875683D01*
X225449774Y-99282689D01*
X225795905Y-99628820D01*
X226202911Y-99900773D01*
X226655152Y-100088097D01*
X227135249Y-100183594D01*
X227624751Y-100183594D01*
X228104848Y-100088097D01*
X228557089Y-99900773D01*
X228964095Y-99628820D01*
X229310226Y-99282689D01*
X229582179Y-98875683D01*
X229769503Y-98423442D01*
X229865000Y-97943345D01*
X229865000Y-97453843D01*
X229769503Y-96973746D01*
X229582179Y-96521505D01*
X229310226Y-96114499D01*
X228964095Y-95768368D01*
X228557089Y-95496415D01*
X228104848Y-95309091D01*
X227624751Y-95213594D01*
X227135249Y-95213594D01*
X226655152Y-95309091D01*
X226202911Y-95496415D01*
X225795905Y-95768368D01*
X225449774Y-96114499D01*
X225177821Y-96521505D01*
X224990497Y-96973746D01*
X224895000Y-97453843D01*
X217056958Y-97453843D01*
X218001003Y-96509799D01*
X218030001Y-96486001D01*
X218124974Y-96370276D01*
X218195546Y-96238247D01*
X218239003Y-96094986D01*
X218250000Y-95983333D01*
X218250000Y-95983324D01*
X218253676Y-95946001D01*
X218250000Y-95908678D01*
X218250000Y-95148178D01*
X218436632Y-95023475D01*
X218643475Y-94816632D01*
X218805990Y-94573411D01*
X218917932Y-94303158D01*
X218975000Y-94016260D01*
X218975000Y-93723740D01*
X218917932Y-93436842D01*
X218805990Y-93166589D01*
X218643475Y-92923368D01*
X218436632Y-92716525D01*
X218193411Y-92554010D01*
X217923158Y-92442068D01*
X217636260Y-92385000D01*
X217343740Y-92385000D01*
X217056842Y-92442068D01*
X216786589Y-92554010D01*
X216543368Y-92716525D01*
X216411513Y-92848380D01*
X216389502Y-92775820D01*
X216330537Y-92665506D01*
X216251185Y-92568815D01*
X216154494Y-92489463D01*
X216044180Y-92430498D01*
X215924482Y-92394188D01*
X215800000Y-92381928D01*
X215235750Y-92385000D01*
X215077000Y-92543750D01*
X215077000Y-93743000D01*
X215097000Y-93743000D01*
X215097000Y-93997000D01*
X215077000Y-93997000D01*
X215077000Y-95196250D01*
X215235750Y-95355000D01*
X215800000Y-95358072D01*
X215924482Y-95345812D01*
X216044180Y-95309502D01*
X216154494Y-95250537D01*
X216251185Y-95171185D01*
X216330537Y-95074494D01*
X216389502Y-94964180D01*
X216411513Y-94891620D01*
X216543368Y-95023475D01*
X216730001Y-95148179D01*
X216730001Y-95631197D01*
X214627003Y-97734196D01*
X214597999Y-97757999D01*
X214551082Y-97815168D01*
X214503026Y-97873724D01*
X214434250Y-98002394D01*
X214432454Y-98005754D01*
X214388997Y-98149015D01*
X214378000Y-98260668D01*
X214378000Y-98260678D01*
X214374324Y-98298000D01*
X214378000Y-98335323D01*
X214378001Y-100015197D01*
X213488199Y-100905000D01*
X212809810Y-100905000D01*
X212673904Y-100701602D01*
X212463398Y-100491096D01*
X212300191Y-100382045D01*
X212367563Y-100172169D01*
X211500000Y-99304605D01*
X210632437Y-100172169D01*
X210699809Y-100382045D01*
X210536602Y-100491096D01*
X210350000Y-100677698D01*
X210350000Y-99959553D01*
X210452831Y-99992563D01*
X211320395Y-99125000D01*
X211679605Y-99125000D01*
X212547169Y-99992563D01*
X212798929Y-99911746D01*
X212927457Y-99643221D01*
X213001129Y-99354781D01*
X213017113Y-99057509D01*
X212974796Y-98762833D01*
X212875802Y-98482073D01*
X212798929Y-98338254D01*
X212547169Y-98257437D01*
X211679605Y-99125000D01*
X211320395Y-99125000D01*
X210452831Y-98257437D01*
X210350000Y-98290447D01*
X210350000Y-97572302D01*
X210536602Y-97758904D01*
X210699809Y-97867955D01*
X210632437Y-98077831D01*
X211500000Y-98945395D01*
X212367563Y-98077831D01*
X212300191Y-97867955D01*
X212463398Y-97758904D01*
X212673904Y-97548398D01*
X212839297Y-97300869D01*
X212953222Y-97025830D01*
X213011300Y-96733850D01*
X213011300Y-96436150D01*
X212953222Y-96144170D01*
X212839297Y-95869131D01*
X212673904Y-95621602D01*
X212463398Y-95411096D01*
X212215869Y-95245703D01*
X211940830Y-95131778D01*
X211648850Y-95073700D01*
X211351150Y-95073700D01*
X211059170Y-95131778D01*
X210784131Y-95245703D01*
X210536602Y-95411096D01*
X210350000Y-95597698D01*
X210350000Y-94720000D01*
X213461928Y-94720000D01*
X213474188Y-94844482D01*
X213510498Y-94964180D01*
X213569463Y-95074494D01*
X213648815Y-95171185D01*
X213745506Y-95250537D01*
X213855820Y-95309502D01*
X213975518Y-95345812D01*
X214100000Y-95358072D01*
X214664250Y-95355000D01*
X214823000Y-95196250D01*
X214823000Y-93997000D01*
X213623750Y-93997000D01*
X213465000Y-94155750D01*
X213461928Y-94720000D01*
X210350000Y-94720000D01*
X210350000Y-93020000D01*
X213461928Y-93020000D01*
X213465000Y-93584250D01*
X213623750Y-93743000D01*
X214823000Y-93743000D01*
X214823000Y-92543750D01*
X214664250Y-92385000D01*
X214100000Y-92381928D01*
X213975518Y-92394188D01*
X213855820Y-92430498D01*
X213745506Y-92489463D01*
X213648815Y-92568815D01*
X213569463Y-92665506D01*
X213510498Y-92775820D01*
X213474188Y-92895518D01*
X213461928Y-93020000D01*
X210350000Y-93020000D01*
X210350000Y-92220000D01*
X219365321Y-92220000D01*
X221098706Y-92297197D01*
X222803819Y-92526222D01*
X224481811Y-92905913D01*
X226119415Y-93433267D01*
X227703645Y-94104102D01*
X229221976Y-94913112D01*
X230662394Y-95853901D01*
X232013458Y-96918994D01*
X233264504Y-98099984D01*
X234405606Y-99387499D01*
X235427747Y-100771366D01*
X236322816Y-102240608D01*
X237083738Y-103783603D01*
X237704480Y-105388128D01*
X238180136Y-107041486D01*
X238506933Y-108730582D01*
X238682287Y-110442044D01*
X238704806Y-112162299D01*
X238574313Y-113877773D01*
X238291845Y-115574833D01*
X237859634Y-117240073D01*
X237281099Y-118860310D01*
X236560832Y-120422692D01*
X235704526Y-121914864D01*
X234718970Y-123325002D01*
X233611950Y-124641960D01*
X232392253Y-125855287D01*
X231069527Y-126955386D01*
X229654243Y-127933549D01*
X228157614Y-128782025D01*
X226591472Y-129494108D01*
X224968237Y-130064147D01*
X223300765Y-130487631D01*
X221602234Y-130761212D01*
X219875748Y-130883454D01*
X219375715Y-130890000D01*
X156837279Y-130890000D01*
X156739576Y-130880420D01*
X156676643Y-130861420D01*
X156618594Y-130830554D01*
X156567657Y-130789011D01*
X156525752Y-130738356D01*
X156494485Y-130680529D01*
X156475044Y-130617728D01*
X156465000Y-130522165D01*
X156465000Y-115789721D01*
X166735000Y-115789721D01*
X166735000Y-116210279D01*
X166817047Y-116622756D01*
X166977988Y-117011302D01*
X167211637Y-117360983D01*
X167509017Y-117658363D01*
X167858698Y-117892012D01*
X168247244Y-118052953D01*
X168659721Y-118135000D01*
X169080279Y-118135000D01*
X169492756Y-118052953D01*
X169881302Y-117892012D01*
X170230983Y-117658363D01*
X170528363Y-117360983D01*
X170762012Y-117011302D01*
X170922953Y-116622756D01*
X171005000Y-116210279D01*
X171005000Y-115789721D01*
X185785000Y-115789721D01*
X185785000Y-116210279D01*
X185867047Y-116622756D01*
X186027988Y-117011302D01*
X186261637Y-117360983D01*
X186559017Y-117658363D01*
X186908698Y-117892012D01*
X187297244Y-118052953D01*
X187709721Y-118135000D01*
X188130279Y-118135000D01*
X188542756Y-118052953D01*
X188931302Y-117892012D01*
X189280983Y-117658363D01*
X189578363Y-117360983D01*
X189812012Y-117011302D01*
X189972953Y-116622756D01*
X190055000Y-116210279D01*
X190055000Y-115789721D01*
X189972953Y-115377244D01*
X189812012Y-114988698D01*
X189578363Y-114639017D01*
X189280983Y-114341637D01*
X188931302Y-114107988D01*
X188542756Y-113947047D01*
X188130279Y-113865000D01*
X187709721Y-113865000D01*
X187297244Y-113947047D01*
X186908698Y-114107988D01*
X186559017Y-114341637D01*
X186261637Y-114639017D01*
X186027988Y-114988698D01*
X185867047Y-115377244D01*
X185785000Y-115789721D01*
X171005000Y-115789721D01*
X170922953Y-115377244D01*
X170762012Y-114988698D01*
X170528363Y-114639017D01*
X170230983Y-114341637D01*
X169881302Y-114107988D01*
X169492756Y-113947047D01*
X169080279Y-113865000D01*
X168659721Y-113865000D01*
X168247244Y-113947047D01*
X167858698Y-114107988D01*
X167509017Y-114341637D01*
X167211637Y-114639017D01*
X166977988Y-114988698D01*
X166817047Y-115377244D01*
X166735000Y-115789721D01*
X156465000Y-115789721D01*
X156465000Y-99388061D01*
X157735000Y-99388061D01*
X157735000Y-99591939D01*
X157774774Y-99791898D01*
X157852795Y-99980256D01*
X157966063Y-100149774D01*
X158010001Y-100193712D01*
X158010000Y-105682677D01*
X158006324Y-105720000D01*
X158010000Y-105757322D01*
X158010000Y-105757332D01*
X158020997Y-105868985D01*
X158061194Y-106001499D01*
X158064454Y-106012246D01*
X158135026Y-106144276D01*
X158167985Y-106184436D01*
X158229999Y-106260001D01*
X158259003Y-106283804D01*
X163696205Y-111721008D01*
X163719999Y-111750001D01*
X163748992Y-111773795D01*
X163748996Y-111773799D01*
X163819685Y-111831811D01*
X163835724Y-111844974D01*
X163967753Y-111915546D01*
X164111014Y-111959003D01*
X164222667Y-111970000D01*
X164222676Y-111970000D01*
X164259999Y-111973676D01*
X164297322Y-111970000D01*
X164816289Y-111970000D01*
X164860226Y-112013937D01*
X165029744Y-112127205D01*
X165218102Y-112205226D01*
X165418061Y-112245000D01*
X165621939Y-112245000D01*
X165821898Y-112205226D01*
X166010256Y-112127205D01*
X166179774Y-112013937D01*
X166323937Y-111869774D01*
X166348288Y-111833329D01*
X178397284Y-111833329D01*
X178429953Y-111941044D01*
X178540208Y-112178392D01*
X178694649Y-112389670D01*
X178887340Y-112566759D01*
X179110877Y-112702853D01*
X179356670Y-112792722D01*
X179563000Y-112670201D01*
X179563000Y-111627000D01*
X179817000Y-111627000D01*
X179817000Y-112670201D01*
X180023330Y-112792722D01*
X180269123Y-112702853D01*
X180492660Y-112566759D01*
X180685351Y-112389670D01*
X180839792Y-112178392D01*
X180950047Y-111941044D01*
X180982716Y-111833329D01*
X180859374Y-111627000D01*
X179817000Y-111627000D01*
X179563000Y-111627000D01*
X178520626Y-111627000D01*
X178397284Y-111833329D01*
X166348288Y-111833329D01*
X166437205Y-111700256D01*
X166515226Y-111511898D01*
X166555000Y-111311939D01*
X166555000Y-111166671D01*
X178397284Y-111166671D01*
X178520626Y-111373000D01*
X179563000Y-111373000D01*
X179563000Y-110329799D01*
X179817000Y-110329799D01*
X179817000Y-111373000D01*
X180859374Y-111373000D01*
X180862055Y-111368514D01*
X183435000Y-111368514D01*
X183435000Y-111631486D01*
X183486304Y-111889405D01*
X183586939Y-112132359D01*
X183733038Y-112351013D01*
X183918987Y-112536962D01*
X184137641Y-112683061D01*
X184380595Y-112783696D01*
X184638514Y-112835000D01*
X184901486Y-112835000D01*
X185159405Y-112783696D01*
X185402359Y-112683061D01*
X185621013Y-112536962D01*
X185806962Y-112351013D01*
X185953061Y-112132359D01*
X185983726Y-112058328D01*
X186030208Y-112158392D01*
X186184649Y-112369670D01*
X186377340Y-112546759D01*
X186600877Y-112682853D01*
X186846670Y-112772722D01*
X187053000Y-112650201D01*
X187053000Y-111607000D01*
X187307000Y-111607000D01*
X187307000Y-112650201D01*
X187513330Y-112772722D01*
X187759123Y-112682853D01*
X187982660Y-112546759D01*
X188175351Y-112369670D01*
X188329792Y-112158392D01*
X188440047Y-111921044D01*
X188472716Y-111813329D01*
X188349374Y-111607000D01*
X187307000Y-111607000D01*
X187053000Y-111607000D01*
X187033000Y-111607000D01*
X187033000Y-111353000D01*
X187053000Y-111353000D01*
X187053000Y-110309799D01*
X187307000Y-110309799D01*
X187307000Y-111353000D01*
X188349374Y-111353000D01*
X188472716Y-111146671D01*
X188440047Y-111038956D01*
X188329792Y-110801608D01*
X188175351Y-110590330D01*
X187982660Y-110413241D01*
X187759123Y-110277147D01*
X187513330Y-110187278D01*
X187307000Y-110309799D01*
X187053000Y-110309799D01*
X186846670Y-110187278D01*
X186600877Y-110277147D01*
X186377340Y-110413241D01*
X186184649Y-110590330D01*
X186030208Y-110801608D01*
X185974967Y-110920526D01*
X185953061Y-110867641D01*
X185806962Y-110648987D01*
X185621013Y-110463038D01*
X185402359Y-110316939D01*
X185159405Y-110216304D01*
X184901486Y-110165000D01*
X184638514Y-110165000D01*
X184380595Y-110216304D01*
X184137641Y-110316939D01*
X183918987Y-110463038D01*
X183733038Y-110648987D01*
X183586939Y-110867641D01*
X183486304Y-111110595D01*
X183435000Y-111368514D01*
X180862055Y-111368514D01*
X180982716Y-111166671D01*
X180950047Y-111058956D01*
X180839792Y-110821608D01*
X180685351Y-110610330D01*
X180492660Y-110433241D01*
X180269123Y-110297147D01*
X180023330Y-110207278D01*
X179817000Y-110329799D01*
X179563000Y-110329799D01*
X179356670Y-110207278D01*
X179110877Y-110297147D01*
X178887340Y-110433241D01*
X178694649Y-110610330D01*
X178540208Y-110821608D01*
X178429953Y-111058956D01*
X178397284Y-111166671D01*
X166555000Y-111166671D01*
X166555000Y-111108061D01*
X166515226Y-110908102D01*
X166437205Y-110719744D01*
X166323937Y-110550226D01*
X166179774Y-110406063D01*
X166010256Y-110292795D01*
X165821898Y-110214774D01*
X165621939Y-110175000D01*
X165418061Y-110175000D01*
X165218102Y-110214774D01*
X165029744Y-110292795D01*
X164860226Y-110406063D01*
X164816289Y-110450000D01*
X164574803Y-110450000D01*
X162368795Y-108243992D01*
X163847049Y-108243992D01*
X163847433Y-108253548D01*
X163852028Y-108351023D01*
X163860989Y-108412455D01*
X163869093Y-108474017D01*
X163871325Y-108483317D01*
X163894766Y-108578042D01*
X163915492Y-108636570D01*
X163935395Y-108695374D01*
X163939392Y-108704063D01*
X163980786Y-108792433D01*
X164012468Y-108845792D01*
X164043429Y-108899637D01*
X164049037Y-108907384D01*
X164106806Y-108986029D01*
X164148256Y-109032226D01*
X164189081Y-109079026D01*
X164196087Y-109085537D01*
X164268032Y-109151464D01*
X164317663Y-109188729D01*
X164366800Y-109226707D01*
X164374937Y-109231733D01*
X164458316Y-109282430D01*
X164514274Y-109309362D01*
X164569825Y-109337059D01*
X164578784Y-109340409D01*
X164670423Y-109373945D01*
X164730583Y-109389504D01*
X164790407Y-109405871D01*
X164799846Y-109407417D01*
X164799853Y-109407419D01*
X164799861Y-109407419D01*
X164896253Y-109422516D01*
X164958231Y-109426091D01*
X165020166Y-109430531D01*
X165029725Y-109430214D01*
X165127230Y-109426299D01*
X165188698Y-109417770D01*
X165250333Y-109410094D01*
X165259648Y-109407927D01*
X165354535Y-109385148D01*
X165413223Y-109364826D01*
X165472152Y-109345338D01*
X165480869Y-109341402D01*
X165569202Y-109300774D01*
X165569519Y-109300631D01*
X165581764Y-109294999D01*
X167080132Y-109294999D01*
X167089264Y-109300420D01*
X167097954Y-109304415D01*
X167186896Y-109344562D01*
X167245712Y-109364463D01*
X167304230Y-109385178D01*
X167313527Y-109387409D01*
X167313532Y-109387411D01*
X167313537Y-109387412D01*
X167408576Y-109409517D01*
X167470125Y-109417613D01*
X167531565Y-109426570D01*
X167541122Y-109426953D01*
X167638651Y-109430178D01*
X167700616Y-109426164D01*
X167762619Y-109423016D01*
X167772068Y-109421535D01*
X167868366Y-109405754D01*
X167928362Y-109389783D01*
X167988566Y-109374654D01*
X167997547Y-109371366D01*
X167997556Y-109371363D01*
X167997559Y-109371361D01*
X168088947Y-109337182D01*
X168144686Y-109309868D01*
X168200827Y-109283323D01*
X168208999Y-109278354D01*
X168292018Y-109227068D01*
X168341429Y-109189418D01*
X168391308Y-109152501D01*
X168398359Y-109146039D01*
X168469835Y-109079604D01*
X168510960Y-109033110D01*
X168552740Y-108987184D01*
X168558402Y-108979475D01*
X168615614Y-108900423D01*
X168646929Y-108846822D01*
X168678999Y-108793645D01*
X168683055Y-108784983D01*
X168723822Y-108696323D01*
X168744113Y-108637705D01*
X168765256Y-108579277D01*
X168767553Y-108569992D01*
X168790323Y-108475103D01*
X168798850Y-108413598D01*
X168808234Y-108352230D01*
X168808683Y-108342677D01*
X168812588Y-108245172D01*
X168809008Y-108183208D01*
X168806292Y-108121166D01*
X168804878Y-108111707D01*
X168789769Y-108015300D01*
X168774220Y-107955204D01*
X168759508Y-107894883D01*
X168756284Y-107885879D01*
X168722739Y-107794243D01*
X168722737Y-107794240D01*
X168714999Y-107773100D01*
X168714999Y-106442731D01*
X168715140Y-106442264D01*
X168722624Y-106426988D01*
X168725911Y-106418006D01*
X168758807Y-106326135D01*
X168773932Y-106265922D01*
X168789897Y-106205924D01*
X168791377Y-106196475D01*
X168805802Y-106099964D01*
X168808943Y-106037981D01*
X168812952Y-105976006D01*
X168812568Y-105966449D01*
X168807973Y-105868975D01*
X168799012Y-105807543D01*
X168790908Y-105745981D01*
X168788678Y-105736694D01*
X168788677Y-105736686D01*
X168788674Y-105736679D01*
X168765235Y-105641956D01*
X168744509Y-105583428D01*
X168724606Y-105524624D01*
X168720610Y-105515935D01*
X168679215Y-105427566D01*
X168647543Y-105374223D01*
X168616572Y-105320361D01*
X168610964Y-105312614D01*
X168553195Y-105233969D01*
X168511745Y-105187772D01*
X168470920Y-105140972D01*
X168463914Y-105134461D01*
X168391969Y-105068534D01*
X168342324Y-105031259D01*
X168293198Y-104993289D01*
X168285061Y-104988263D01*
X168201681Y-104937566D01*
X168145720Y-104910634D01*
X168090181Y-104882942D01*
X168081223Y-104879592D01*
X167989584Y-104846055D01*
X167929470Y-104830508D01*
X167869587Y-104814125D01*
X167860149Y-104812579D01*
X167763742Y-104797481D01*
X167701759Y-104793906D01*
X167639836Y-104789467D01*
X167630277Y-104789783D01*
X167532771Y-104793699D01*
X167471312Y-104802226D01*
X167409667Y-104809904D01*
X167400352Y-104812071D01*
X167305465Y-104834850D01*
X167246778Y-104855171D01*
X167187854Y-104874658D01*
X167179137Y-104878593D01*
X167090482Y-104919368D01*
X167078237Y-104925000D01*
X165579868Y-104925000D01*
X165570736Y-104919579D01*
X165562046Y-104915584D01*
X165473104Y-104875437D01*
X165414281Y-104855533D01*
X165355771Y-104834821D01*
X165346471Y-104832589D01*
X165346468Y-104832588D01*
X165346465Y-104832588D01*
X165251426Y-104810482D01*
X165189863Y-104802384D01*
X165128436Y-104793429D01*
X165118879Y-104793046D01*
X165021349Y-104789821D01*
X164959396Y-104793834D01*
X164897389Y-104796982D01*
X164887940Y-104798463D01*
X164791642Y-104814243D01*
X164731666Y-104830209D01*
X164671435Y-104845344D01*
X164662453Y-104848632D01*
X164571054Y-104882816D01*
X164515316Y-104910129D01*
X164459174Y-104936675D01*
X164451002Y-104941644D01*
X164367983Y-104992930D01*
X164318590Y-105030567D01*
X164268697Y-105067494D01*
X164261646Y-105073956D01*
X164190170Y-105140390D01*
X164149053Y-105186874D01*
X164107258Y-105232816D01*
X164101597Y-105240525D01*
X164044385Y-105319578D01*
X164013067Y-105373185D01*
X163981004Y-105426350D01*
X163976947Y-105435012D01*
X163936180Y-105523671D01*
X163915863Y-105582364D01*
X163894745Y-105640720D01*
X163892448Y-105650005D01*
X163869678Y-105744894D01*
X163861146Y-105806431D01*
X163851768Y-105867760D01*
X163851318Y-105877313D01*
X163847412Y-105974818D01*
X163850992Y-106036793D01*
X163853708Y-106098831D01*
X163855123Y-106108291D01*
X163870231Y-106204697D01*
X163885780Y-106264794D01*
X163900492Y-106325114D01*
X163903716Y-106334118D01*
X163937261Y-106425754D01*
X163945002Y-106446900D01*
X163945001Y-107777266D01*
X163944859Y-107777737D01*
X163937376Y-107793011D01*
X163934089Y-107801993D01*
X163901193Y-107893864D01*
X163886068Y-107954077D01*
X163870102Y-108014081D01*
X163868622Y-108023530D01*
X163854198Y-108120040D01*
X163851057Y-108182032D01*
X163847049Y-108243992D01*
X162368795Y-108243992D01*
X159530000Y-105405199D01*
X159530000Y-101883652D01*
X159764100Y-101883652D01*
X159764100Y-102176348D01*
X159821202Y-102463421D01*
X159933212Y-102733838D01*
X160095826Y-102977206D01*
X160302794Y-103184174D01*
X160546162Y-103346788D01*
X160816579Y-103458798D01*
X161103652Y-103515900D01*
X161396348Y-103515900D01*
X161683421Y-103458798D01*
X161953838Y-103346788D01*
X162197206Y-103184174D01*
X162404174Y-102977206D01*
X162566788Y-102733838D01*
X162678798Y-102463421D01*
X162735900Y-102176348D01*
X162735900Y-101883652D01*
X162684451Y-101625000D01*
X162730279Y-101625000D01*
X163142756Y-101542953D01*
X163531302Y-101382012D01*
X163837708Y-101177279D01*
X163802127Y-101263178D01*
X163701100Y-101771076D01*
X163701100Y-102288924D01*
X163802127Y-102796822D01*
X164000299Y-103275251D01*
X164288000Y-103705826D01*
X164654174Y-104072000D01*
X165084749Y-104359701D01*
X165563178Y-104557873D01*
X166071076Y-104658900D01*
X166588924Y-104658900D01*
X167096822Y-104557873D01*
X167575251Y-104359701D01*
X168005826Y-104072000D01*
X168372000Y-103705826D01*
X168659701Y-103275251D01*
X168857873Y-102796822D01*
X168958900Y-102288924D01*
X168958900Y-101883652D01*
X169924100Y-101883652D01*
X169924100Y-102176348D01*
X169981202Y-102463421D01*
X170093212Y-102733838D01*
X170255826Y-102977206D01*
X170462794Y-103184174D01*
X170706162Y-103346788D01*
X170976579Y-103458798D01*
X171263652Y-103515900D01*
X171556348Y-103515900D01*
X171843421Y-103458798D01*
X172113838Y-103346788D01*
X172357206Y-103184174D01*
X172564174Y-102977206D01*
X172726788Y-102733838D01*
X172838798Y-102463421D01*
X172895900Y-102176348D01*
X172895900Y-101883652D01*
X172838798Y-101596579D01*
X172726788Y-101326162D01*
X172564174Y-101082794D01*
X172357206Y-100875826D01*
X172113838Y-100713212D01*
X171843421Y-100601202D01*
X171556348Y-100544100D01*
X171263652Y-100544100D01*
X170976579Y-100601202D01*
X170706162Y-100713212D01*
X170462794Y-100875826D01*
X170255826Y-101082794D01*
X170093212Y-101326162D01*
X169981202Y-101596579D01*
X169924100Y-101883652D01*
X168958900Y-101883652D01*
X168958900Y-101771076D01*
X168857873Y-101263178D01*
X168659701Y-100784749D01*
X168372000Y-100354174D01*
X168005826Y-99988000D01*
X167575251Y-99700299D01*
X167096822Y-99502127D01*
X166588924Y-99401100D01*
X166071076Y-99401100D01*
X165563178Y-99502127D01*
X165084749Y-99700299D01*
X164654174Y-99988000D01*
X164583763Y-100058411D01*
X164655000Y-99700279D01*
X164655000Y-99279721D01*
X164572953Y-98867244D01*
X164412012Y-98478698D01*
X164178363Y-98129017D01*
X163880983Y-97831637D01*
X163531302Y-97597988D01*
X163142756Y-97437047D01*
X162730279Y-97355000D01*
X162309721Y-97355000D01*
X161897244Y-97437047D01*
X161508698Y-97597988D01*
X161159017Y-97831637D01*
X160861637Y-98129017D01*
X160627988Y-98478698D01*
X160467047Y-98867244D01*
X160385000Y-99279721D01*
X160385000Y-99700279D01*
X160467047Y-100112756D01*
X160627988Y-100501302D01*
X160721150Y-100640730D01*
X160546162Y-100713212D01*
X160302794Y-100875826D01*
X160095826Y-101082794D01*
X159933212Y-101326162D01*
X159821202Y-101596579D01*
X159764100Y-101883652D01*
X159530000Y-101883652D01*
X159530000Y-100193711D01*
X159573937Y-100149774D01*
X159687205Y-99980256D01*
X159765226Y-99791898D01*
X159805000Y-99591939D01*
X159805000Y-99388061D01*
X159765226Y-99188102D01*
X159687205Y-98999744D01*
X159573937Y-98830226D01*
X159429774Y-98686063D01*
X159260256Y-98572795D01*
X159071898Y-98494774D01*
X158871939Y-98455000D01*
X158668061Y-98455000D01*
X158468102Y-98494774D01*
X158279744Y-98572795D01*
X158110226Y-98686063D01*
X157966063Y-98830226D01*
X157852795Y-98999744D01*
X157774774Y-99188102D01*
X157735000Y-99388061D01*
X156465000Y-99388061D01*
X156465000Y-96739721D01*
X166735000Y-96739721D01*
X166735000Y-97160279D01*
X166817047Y-97572756D01*
X166977988Y-97961302D01*
X167211637Y-98310983D01*
X167509017Y-98608363D01*
X167858698Y-98842012D01*
X168247244Y-99002953D01*
X168659721Y-99085000D01*
X169080279Y-99085000D01*
X169492756Y-99002953D01*
X169881302Y-98842012D01*
X170230983Y-98608363D01*
X170528363Y-98310983D01*
X170762012Y-97961302D01*
X170922953Y-97572756D01*
X171005000Y-97160279D01*
X171005000Y-96739721D01*
X170922953Y-96327244D01*
X170762012Y-95938698D01*
X170528363Y-95589017D01*
X170230983Y-95291637D01*
X169881302Y-95057988D01*
X169492756Y-94897047D01*
X169080279Y-94815000D01*
X168659721Y-94815000D01*
X168247244Y-94897047D01*
X167858698Y-95057988D01*
X167509017Y-95291637D01*
X167211637Y-95589017D01*
X166977988Y-95938698D01*
X166817047Y-96327244D01*
X166735000Y-96739721D01*
X156465000Y-96739721D01*
X156465000Y-94760249D01*
X173370000Y-94760249D01*
X173370000Y-95249751D01*
X173465497Y-95729848D01*
X173652821Y-96182089D01*
X173924774Y-96589095D01*
X174270905Y-96935226D01*
X174677911Y-97207179D01*
X175130152Y-97394503D01*
X175610249Y-97490000D01*
X176099751Y-97490000D01*
X176579848Y-97394503D01*
X177032089Y-97207179D01*
X177439095Y-96935226D01*
X177785226Y-96589095D01*
X178057179Y-96182089D01*
X178244503Y-95729848D01*
X178340000Y-95249751D01*
X178340000Y-94760249D01*
X178244503Y-94280152D01*
X178057179Y-93827911D01*
X177785226Y-93420905D01*
X177439095Y-93074774D01*
X177032089Y-92802821D01*
X176579848Y-92615497D01*
X176099751Y-92520000D01*
X175610249Y-92520000D01*
X175130152Y-92615497D01*
X174677911Y-92802821D01*
X174270905Y-93074774D01*
X173924774Y-93420905D01*
X173652821Y-93827911D01*
X173465497Y-94280152D01*
X173370000Y-94760249D01*
X156465000Y-94760249D01*
X156465000Y-92592279D01*
X156474580Y-92494576D01*
X156493580Y-92431644D01*
X156524445Y-92373595D01*
X156565989Y-92322657D01*
X156616644Y-92280752D01*
X156674471Y-92249485D01*
X156737272Y-92230044D01*
X156832835Y-92220000D01*
X197460001Y-92220000D01*
X197460001Y-95161703D01*
G37*
%TD.AperFunction*%
D22*
X197460001Y-100846497D02*
X197307169Y-100797437D01*
X196439605Y-101665000D01*
X197307169Y-102532563D01*
X197460001Y-102483503D01*
X197460001Y-103386497D01*
X197307169Y-103337437D01*
X196439605Y-104205000D01*
X197307169Y-105072563D01*
X197460001Y-105023503D01*
X197460001Y-105820658D01*
X197433904Y-105781602D01*
X197223398Y-105571096D01*
X197060191Y-105462045D01*
X197127563Y-105252169D01*
X196260000Y-104384605D01*
X196245858Y-104398748D01*
X196066252Y-104219142D01*
X196080395Y-104205000D01*
X196066252Y-104190858D01*
X196245858Y-104011252D01*
X196260000Y-104025395D01*
X197127563Y-103157831D01*
X197056032Y-102935000D01*
X197127563Y-102712169D01*
X196260000Y-101844605D01*
X196245858Y-101858748D01*
X196066252Y-101679142D01*
X196080395Y-101665000D01*
X196066252Y-101650858D01*
X196245858Y-101471252D01*
X196260000Y-101485395D01*
X197127563Y-100617831D01*
X197060191Y-100407955D01*
X197223398Y-100298904D01*
X197433904Y-100088398D01*
X197460001Y-100049341D01*
X197460001Y-100846497D01*
%TA.AperFunction,Conductor*%
D23*
G36*
X197460001Y-100846497D02*
G01*
X197307169Y-100797437D01*
X196439605Y-101665000D01*
X197307169Y-102532563D01*
X197460001Y-102483503D01*
X197460001Y-103386497D01*
X197307169Y-103337437D01*
X196439605Y-104205000D01*
X197307169Y-105072563D01*
X197460001Y-105023503D01*
X197460001Y-105820658D01*
X197433904Y-105781602D01*
X197223398Y-105571096D01*
X197060191Y-105462045D01*
X197127563Y-105252169D01*
X196260000Y-104384605D01*
X196245858Y-104398748D01*
X196066252Y-104219142D01*
X196080395Y-104205000D01*
X196066252Y-104190858D01*
X196245858Y-104011252D01*
X196260000Y-104025395D01*
X197127563Y-103157831D01*
X197056032Y-102935000D01*
X197127563Y-102712169D01*
X196260000Y-101844605D01*
X196245858Y-101858748D01*
X196066252Y-101679142D01*
X196080395Y-101665000D01*
X196066252Y-101650858D01*
X196245858Y-101471252D01*
X196260000Y-101485395D01*
X197127563Y-100617831D01*
X197060191Y-100407955D01*
X197223398Y-100298904D01*
X197433904Y-100088398D01*
X197460001Y-100049341D01*
X197460001Y-100846497D01*
G37*
%TD.AperFunction*%
M02*
