M48
; DRILL file {KiCad (5.1.9)-1} date 11/30/21 13:29:33
; FORMAT={-:-/ absolute / metric / decimal}
; #@! TF.CreationDate,2021-11-30T13:29:33+01:00
; #@! TF.GenerationSoftware,Kicad,Pcbnew,(5.1.9)-1
FMAT,2
METRIC
T1C1.000
T2C2.700
%
G90
G05
T1
X159.751Y-95.451
X159.751Y-108.609
X159.751Y-114.501
X159.751Y-127.659
X172.909Y-95.451
X172.909Y-108.609
X172.909Y-114.501
X172.909Y-127.659
X178.801Y-95.451
X178.801Y-108.609
X178.801Y-114.501
X178.801Y-127.659
X191.959Y-95.451
X191.959Y-108.609
X191.959Y-114.501
X191.959Y-127.659
X213.801Y-105.776
X213.801Y-117.334
X224.959Y-105.776
X224.959Y-117.334
T2
X175.855Y-95.005
X175.855Y-128.105
X227.38Y-97.699
X227.38Y-125.411
T0
M30
