%TF.GenerationSoftware,KiCad,Pcbnew,(5.1.9)-1*%
%TF.CreationDate,2021-11-30T13:34:52+01:00*%
%TF.ProjectId,Little_Big_Scroll_4KEY,4c697474-6c65-45f4-9269-675f5363726f,v1.0*%
%TF.SameCoordinates,Original*%
%TF.FileFunction,Legend,Bot*%
%TF.FilePolarity,Positive*%
%FSLAX46Y46*%
G04 Gerber Fmt 4.6, Leading zero omitted, Abs format (unit mm)*
G04 Created by KiCad (PCBNEW (5.1.9)-1) date 2021-11-30 13:34:52*
%MOMM*%
%LPD*%
G01*
G04 APERTURE LIST*
%ADD10C,0.150000*%
%ADD11C,1.000000*%
%ADD12C,2.700000*%
G04 APERTURE END LIST*
D10*
X230471904Y-105751428D02*
X230471904Y-105370476D01*
X229671904Y-105370476D01*
X230471904Y-106018095D02*
X229938571Y-106018095D01*
X229671904Y-106018095D02*
X229710000Y-105980000D01*
X229748095Y-106018095D01*
X229710000Y-106056190D01*
X229671904Y-106018095D01*
X229748095Y-106018095D01*
X229938571Y-106284761D02*
X229938571Y-106589523D01*
X229671904Y-106399047D02*
X230357619Y-106399047D01*
X230433809Y-106437142D01*
X230471904Y-106513333D01*
X230471904Y-106589523D01*
X229938571Y-106741904D02*
X229938571Y-107046666D01*
X229671904Y-106856190D02*
X230357619Y-106856190D01*
X230433809Y-106894285D01*
X230471904Y-106970476D01*
X230471904Y-107046666D01*
X230471904Y-107427619D02*
X230433809Y-107351428D01*
X230357619Y-107313333D01*
X229671904Y-107313333D01*
X230433809Y-108037142D02*
X230471904Y-107960952D01*
X230471904Y-107808571D01*
X230433809Y-107732380D01*
X230357619Y-107694285D01*
X230052857Y-107694285D01*
X229976666Y-107732380D01*
X229938571Y-107808571D01*
X229938571Y-107960952D01*
X229976666Y-108037142D01*
X230052857Y-108075238D01*
X230129047Y-108075238D01*
X230205238Y-107694285D01*
X230052857Y-109294285D02*
X230090952Y-109408571D01*
X230129047Y-109446666D01*
X230205238Y-109484761D01*
X230319523Y-109484761D01*
X230395714Y-109446666D01*
X230433809Y-109408571D01*
X230471904Y-109332380D01*
X230471904Y-109027619D01*
X229671904Y-109027619D01*
X229671904Y-109294285D01*
X229710000Y-109370476D01*
X229748095Y-109408571D01*
X229824285Y-109446666D01*
X229900476Y-109446666D01*
X229976666Y-109408571D01*
X230014761Y-109370476D01*
X230052857Y-109294285D01*
X230052857Y-109027619D01*
X230471904Y-109827619D02*
X229938571Y-109827619D01*
X229671904Y-109827619D02*
X229710000Y-109789523D01*
X229748095Y-109827619D01*
X229710000Y-109865714D01*
X229671904Y-109827619D01*
X229748095Y-109827619D01*
X229938571Y-110551428D02*
X230586190Y-110551428D01*
X230662380Y-110513333D01*
X230700476Y-110475238D01*
X230738571Y-110399047D01*
X230738571Y-110284761D01*
X230700476Y-110208571D01*
X230433809Y-110551428D02*
X230471904Y-110475238D01*
X230471904Y-110322857D01*
X230433809Y-110246666D01*
X230395714Y-110208571D01*
X230319523Y-110170476D01*
X230090952Y-110170476D01*
X230014761Y-110208571D01*
X229976666Y-110246666D01*
X229938571Y-110322857D01*
X229938571Y-110475238D01*
X229976666Y-110551428D01*
X230433809Y-111503809D02*
X230471904Y-111618095D01*
X230471904Y-111808571D01*
X230433809Y-111884761D01*
X230395714Y-111922857D01*
X230319523Y-111960952D01*
X230243333Y-111960952D01*
X230167142Y-111922857D01*
X230129047Y-111884761D01*
X230090952Y-111808571D01*
X230052857Y-111656190D01*
X230014761Y-111580000D01*
X229976666Y-111541904D01*
X229900476Y-111503809D01*
X229824285Y-111503809D01*
X229748095Y-111541904D01*
X229710000Y-111580000D01*
X229671904Y-111656190D01*
X229671904Y-111846666D01*
X229710000Y-111960952D01*
X230433809Y-112646666D02*
X230471904Y-112570476D01*
X230471904Y-112418095D01*
X230433809Y-112341904D01*
X230395714Y-112303809D01*
X230319523Y-112265714D01*
X230090952Y-112265714D01*
X230014761Y-112303809D01*
X229976666Y-112341904D01*
X229938571Y-112418095D01*
X229938571Y-112570476D01*
X229976666Y-112646666D01*
X230471904Y-112989523D02*
X229938571Y-112989523D01*
X230090952Y-112989523D02*
X230014761Y-113027619D01*
X229976666Y-113065714D01*
X229938571Y-113141904D01*
X229938571Y-113218095D01*
X230471904Y-113599047D02*
X230433809Y-113522857D01*
X230395714Y-113484761D01*
X230319523Y-113446666D01*
X230090952Y-113446666D01*
X230014761Y-113484761D01*
X229976666Y-113522857D01*
X229938571Y-113599047D01*
X229938571Y-113713333D01*
X229976666Y-113789523D01*
X230014761Y-113827619D01*
X230090952Y-113865714D01*
X230319523Y-113865714D01*
X230395714Y-113827619D01*
X230433809Y-113789523D01*
X230471904Y-113713333D01*
X230471904Y-113599047D01*
X230471904Y-114322857D02*
X230433809Y-114246666D01*
X230357619Y-114208571D01*
X229671904Y-114208571D01*
X230471904Y-114741904D02*
X230433809Y-114665714D01*
X230357619Y-114627619D01*
X229671904Y-114627619D01*
X229938571Y-115580000D02*
X230471904Y-115770476D01*
X229938571Y-115960952D01*
X230471904Y-116684761D02*
X230471904Y-116227619D01*
X230471904Y-116456190D02*
X229671904Y-116456190D01*
X229786190Y-116380000D01*
X229862380Y-116303809D01*
X229900476Y-116227619D01*
X230395714Y-117027619D02*
X230433809Y-117065714D01*
X230471904Y-117027619D01*
X230433809Y-116989523D01*
X230395714Y-117027619D01*
X230471904Y-117027619D01*
X229671904Y-117560952D02*
X229671904Y-117637142D01*
X229710000Y-117713333D01*
X229748095Y-117751428D01*
X229824285Y-117789523D01*
X229976666Y-117827619D01*
X230167142Y-117827619D01*
X230319523Y-117789523D01*
X230395714Y-117751428D01*
X230433809Y-117713333D01*
X230471904Y-117637142D01*
X230471904Y-117560952D01*
X230433809Y-117484761D01*
X230395714Y-117446666D01*
X230319523Y-117408571D01*
X230167142Y-117370476D01*
X229976666Y-117370476D01*
X229824285Y-117408571D01*
X229748095Y-117446666D01*
X229710000Y-117484761D01*
X229671904Y-117560952D01*
X231821904Y-104837142D02*
X231021904Y-104837142D01*
X231593333Y-105103809D01*
X231021904Y-105370476D01*
X231821904Y-105370476D01*
X231821904Y-106094285D02*
X231402857Y-106094285D01*
X231326666Y-106056190D01*
X231288571Y-105980000D01*
X231288571Y-105827619D01*
X231326666Y-105751428D01*
X231783809Y-106094285D02*
X231821904Y-106018095D01*
X231821904Y-105827619D01*
X231783809Y-105751428D01*
X231707619Y-105713333D01*
X231631428Y-105713333D01*
X231555238Y-105751428D01*
X231517142Y-105827619D01*
X231517142Y-106018095D01*
X231479047Y-106094285D01*
X231821904Y-106475238D02*
X231288571Y-106475238D01*
X231440952Y-106475238D02*
X231364761Y-106513333D01*
X231326666Y-106551428D01*
X231288571Y-106627619D01*
X231288571Y-106703809D01*
X231821904Y-106970476D02*
X231021904Y-106970476D01*
X231517142Y-107046666D02*
X231821904Y-107275238D01*
X231288571Y-107275238D02*
X231593333Y-106970476D01*
X231288571Y-107960952D02*
X231821904Y-107960952D01*
X231288571Y-107618095D02*
X231707619Y-107618095D01*
X231783809Y-107656190D01*
X231821904Y-107732380D01*
X231821904Y-107846666D01*
X231783809Y-107922857D01*
X231745714Y-107960952D01*
X231783809Y-108303809D02*
X231821904Y-108380000D01*
X231821904Y-108532380D01*
X231783809Y-108608571D01*
X231707619Y-108646666D01*
X231669523Y-108646666D01*
X231593333Y-108608571D01*
X231555238Y-108532380D01*
X231555238Y-108418095D01*
X231517142Y-108341904D01*
X231440952Y-108303809D01*
X231402857Y-108303809D01*
X231326666Y-108341904D01*
X231288571Y-108418095D01*
X231288571Y-108532380D01*
X231326666Y-108608571D01*
X231821904Y-109599047D02*
X231021904Y-109599047D01*
X231821904Y-110056190D02*
X231364761Y-109713333D01*
X231021904Y-110056190D02*
X231479047Y-109599047D01*
X231288571Y-110399047D02*
X231821904Y-110399047D01*
X231364761Y-110399047D02*
X231326666Y-110437142D01*
X231288571Y-110513333D01*
X231288571Y-110627619D01*
X231326666Y-110703809D01*
X231402857Y-110741904D01*
X231821904Y-110741904D01*
X231288571Y-111465714D02*
X231821904Y-111465714D01*
X231288571Y-111122857D02*
X231707619Y-111122857D01*
X231783809Y-111160952D01*
X231821904Y-111237142D01*
X231821904Y-111351428D01*
X231783809Y-111427619D01*
X231745714Y-111465714D01*
X231288571Y-111732380D02*
X231288571Y-112037142D01*
X231021904Y-111846666D02*
X231707619Y-111846666D01*
X231783809Y-111884761D01*
X231821904Y-111960952D01*
X231821904Y-112037142D01*
X231783809Y-112265714D02*
X231821904Y-112341904D01*
X231821904Y-112494285D01*
X231783809Y-112570476D01*
X231707619Y-112608571D01*
X231669523Y-112608571D01*
X231593333Y-112570476D01*
X231555238Y-112494285D01*
X231555238Y-112380000D01*
X231517142Y-112303809D01*
X231440952Y-112265714D01*
X231402857Y-112265714D01*
X231326666Y-112303809D01*
X231288571Y-112380000D01*
X231288571Y-112494285D01*
X231326666Y-112570476D01*
X231783809Y-112913333D02*
X231821904Y-112989523D01*
X231821904Y-113141904D01*
X231783809Y-113218095D01*
X231707619Y-113256190D01*
X231669523Y-113256190D01*
X231593333Y-113218095D01*
X231555238Y-113141904D01*
X231555238Y-113027619D01*
X231517142Y-112951428D01*
X231440952Y-112913333D01*
X231402857Y-112913333D01*
X231326666Y-112951428D01*
X231288571Y-113027619D01*
X231288571Y-113141904D01*
X231326666Y-113218095D01*
X231821904Y-113713333D02*
X231783809Y-113637142D01*
X231745714Y-113599047D01*
X231669523Y-113560952D01*
X231440952Y-113560952D01*
X231364761Y-113599047D01*
X231326666Y-113637142D01*
X231288571Y-113713333D01*
X231288571Y-113827619D01*
X231326666Y-113903809D01*
X231364761Y-113941904D01*
X231440952Y-113980000D01*
X231669523Y-113980000D01*
X231745714Y-113941904D01*
X231783809Y-113903809D01*
X231821904Y-113827619D01*
X231821904Y-113713333D01*
X231288571Y-114322857D02*
X231821904Y-114322857D01*
X231364761Y-114322857D02*
X231326666Y-114360952D01*
X231288571Y-114437142D01*
X231288571Y-114551428D01*
X231326666Y-114627619D01*
X231402857Y-114665714D01*
X231821904Y-114665714D01*
X231098095Y-115618095D02*
X231060000Y-115656190D01*
X231021904Y-115732380D01*
X231021904Y-115922857D01*
X231060000Y-115999047D01*
X231098095Y-116037142D01*
X231174285Y-116075238D01*
X231250476Y-116075238D01*
X231364761Y-116037142D01*
X231821904Y-115580000D01*
X231821904Y-116075238D01*
X231021904Y-116570476D02*
X231021904Y-116646666D01*
X231060000Y-116722857D01*
X231098095Y-116760952D01*
X231174285Y-116799047D01*
X231326666Y-116837142D01*
X231517142Y-116837142D01*
X231669523Y-116799047D01*
X231745714Y-116760952D01*
X231783809Y-116722857D01*
X231821904Y-116646666D01*
X231821904Y-116570476D01*
X231783809Y-116494285D01*
X231745714Y-116456190D01*
X231669523Y-116418095D01*
X231517142Y-116380000D01*
X231326666Y-116380000D01*
X231174285Y-116418095D01*
X231098095Y-116456190D01*
X231060000Y-116494285D01*
X231021904Y-116570476D01*
X231098095Y-117141904D02*
X231060000Y-117180000D01*
X231021904Y-117256190D01*
X231021904Y-117446666D01*
X231060000Y-117522857D01*
X231098095Y-117560952D01*
X231174285Y-117599047D01*
X231250476Y-117599047D01*
X231364761Y-117560952D01*
X231821904Y-117103809D01*
X231821904Y-117599047D01*
X231821904Y-118360952D02*
X231821904Y-117903809D01*
X231821904Y-118132380D02*
X231021904Y-118132380D01*
X231136190Y-118056190D01*
X231212380Y-117980000D01*
X231250476Y-117903809D01*
X233171904Y-101618095D02*
X232371904Y-101618095D01*
X233171904Y-101960952D02*
X232752857Y-101960952D01*
X232676666Y-101922857D01*
X232638571Y-101846666D01*
X232638571Y-101732380D01*
X232676666Y-101656190D01*
X232714761Y-101618095D01*
X232638571Y-102227619D02*
X232638571Y-102532380D01*
X232371904Y-102341904D02*
X233057619Y-102341904D01*
X233133809Y-102380000D01*
X233171904Y-102456190D01*
X233171904Y-102532380D01*
X232638571Y-102684761D02*
X232638571Y-102989523D01*
X232371904Y-102799047D02*
X233057619Y-102799047D01*
X233133809Y-102837142D01*
X233171904Y-102913333D01*
X233171904Y-102989523D01*
X232638571Y-103256190D02*
X233438571Y-103256190D01*
X232676666Y-103256190D02*
X232638571Y-103332380D01*
X232638571Y-103484761D01*
X232676666Y-103560952D01*
X232714761Y-103599047D01*
X232790952Y-103637142D01*
X233019523Y-103637142D01*
X233095714Y-103599047D01*
X233133809Y-103560952D01*
X233171904Y-103484761D01*
X233171904Y-103332380D01*
X233133809Y-103256190D01*
X233133809Y-103941904D02*
X233171904Y-104018095D01*
X233171904Y-104170476D01*
X233133809Y-104246666D01*
X233057619Y-104284761D01*
X233019523Y-104284761D01*
X232943333Y-104246666D01*
X232905238Y-104170476D01*
X232905238Y-104056190D01*
X232867142Y-103980000D01*
X232790952Y-103941904D01*
X232752857Y-103941904D01*
X232676666Y-103980000D01*
X232638571Y-104056190D01*
X232638571Y-104170476D01*
X232676666Y-104246666D01*
X233095714Y-104627619D02*
X233133809Y-104665714D01*
X233171904Y-104627619D01*
X233133809Y-104589523D01*
X233095714Y-104627619D01*
X233171904Y-104627619D01*
X232676666Y-104627619D02*
X232714761Y-104665714D01*
X232752857Y-104627619D01*
X232714761Y-104589523D01*
X232676666Y-104627619D01*
X232752857Y-104627619D01*
X232333809Y-105580000D02*
X233362380Y-104894285D01*
X232333809Y-106418095D02*
X233362380Y-105732380D01*
X232638571Y-107027619D02*
X233286190Y-107027619D01*
X233362380Y-106989523D01*
X233400476Y-106951428D01*
X233438571Y-106875238D01*
X233438571Y-106760952D01*
X233400476Y-106684761D01*
X233133809Y-107027619D02*
X233171904Y-106951428D01*
X233171904Y-106799047D01*
X233133809Y-106722857D01*
X233095714Y-106684761D01*
X233019523Y-106646666D01*
X232790952Y-106646666D01*
X232714761Y-106684761D01*
X232676666Y-106722857D01*
X232638571Y-106799047D01*
X232638571Y-106951428D01*
X232676666Y-107027619D01*
X233171904Y-107408571D02*
X232638571Y-107408571D01*
X232371904Y-107408571D02*
X232410000Y-107370476D01*
X232448095Y-107408571D01*
X232410000Y-107446666D01*
X232371904Y-107408571D01*
X232448095Y-107408571D01*
X232638571Y-107675238D02*
X232638571Y-107980000D01*
X232371904Y-107789523D02*
X233057619Y-107789523D01*
X233133809Y-107827619D01*
X233171904Y-107903809D01*
X233171904Y-107980000D01*
X233171904Y-108246666D02*
X232371904Y-108246666D01*
X233171904Y-108589523D02*
X232752857Y-108589523D01*
X232676666Y-108551428D01*
X232638571Y-108475238D01*
X232638571Y-108360952D01*
X232676666Y-108284761D01*
X232714761Y-108246666D01*
X232638571Y-109313333D02*
X233171904Y-109313333D01*
X232638571Y-108970476D02*
X233057619Y-108970476D01*
X233133809Y-109008571D01*
X233171904Y-109084761D01*
X233171904Y-109199047D01*
X233133809Y-109275238D01*
X233095714Y-109313333D01*
X233171904Y-109694285D02*
X232371904Y-109694285D01*
X232676666Y-109694285D02*
X232638571Y-109770476D01*
X232638571Y-109922857D01*
X232676666Y-109999047D01*
X232714761Y-110037142D01*
X232790952Y-110075238D01*
X233019523Y-110075238D01*
X233095714Y-110037142D01*
X233133809Y-109999047D01*
X233171904Y-109922857D01*
X233171904Y-109770476D01*
X233133809Y-109694285D01*
X233095714Y-110418095D02*
X233133809Y-110456190D01*
X233171904Y-110418095D01*
X233133809Y-110380000D01*
X233095714Y-110418095D01*
X233171904Y-110418095D01*
X233133809Y-111141904D02*
X233171904Y-111065714D01*
X233171904Y-110913333D01*
X233133809Y-110837142D01*
X233095714Y-110799047D01*
X233019523Y-110760952D01*
X232790952Y-110760952D01*
X232714761Y-110799047D01*
X232676666Y-110837142D01*
X232638571Y-110913333D01*
X232638571Y-111065714D01*
X232676666Y-111141904D01*
X233171904Y-111599047D02*
X233133809Y-111522857D01*
X233095714Y-111484761D01*
X233019523Y-111446666D01*
X232790952Y-111446666D01*
X232714761Y-111484761D01*
X232676666Y-111522857D01*
X232638571Y-111599047D01*
X232638571Y-111713333D01*
X232676666Y-111789523D01*
X232714761Y-111827619D01*
X232790952Y-111865714D01*
X233019523Y-111865714D01*
X233095714Y-111827619D01*
X233133809Y-111789523D01*
X233171904Y-111713333D01*
X233171904Y-111599047D01*
X233171904Y-112208571D02*
X232638571Y-112208571D01*
X232714761Y-112208571D02*
X232676666Y-112246666D01*
X232638571Y-112322857D01*
X232638571Y-112437142D01*
X232676666Y-112513333D01*
X232752857Y-112551428D01*
X233171904Y-112551428D01*
X232752857Y-112551428D02*
X232676666Y-112589523D01*
X232638571Y-112665714D01*
X232638571Y-112780000D01*
X232676666Y-112856190D01*
X232752857Y-112894285D01*
X233171904Y-112894285D01*
X232333809Y-113846666D02*
X233362380Y-113160952D01*
X232371904Y-113999047D02*
X232371904Y-114456190D01*
X233171904Y-114227619D02*
X232371904Y-114227619D01*
X232638571Y-114646666D02*
X233171904Y-114799047D01*
X232790952Y-114951428D01*
X233171904Y-115103809D01*
X232638571Y-115256190D01*
X233133809Y-115865714D02*
X233171904Y-115789523D01*
X233171904Y-115637142D01*
X233133809Y-115560952D01*
X233057619Y-115522857D01*
X232752857Y-115522857D01*
X232676666Y-115560952D01*
X232638571Y-115637142D01*
X232638571Y-115789523D01*
X232676666Y-115865714D01*
X232752857Y-115903809D01*
X232829047Y-115903809D01*
X232905238Y-115522857D01*
X233133809Y-116551428D02*
X233171904Y-116475238D01*
X233171904Y-116322857D01*
X233133809Y-116246666D01*
X233057619Y-116208571D01*
X232752857Y-116208571D01*
X232676666Y-116246666D01*
X232638571Y-116322857D01*
X232638571Y-116475238D01*
X232676666Y-116551428D01*
X232752857Y-116589523D01*
X232829047Y-116589523D01*
X232905238Y-116208571D01*
X232638571Y-116818095D02*
X232638571Y-117122857D01*
X232371904Y-116932380D02*
X233057619Y-116932380D01*
X233133809Y-116970476D01*
X233171904Y-117046666D01*
X233171904Y-117122857D01*
X232638571Y-117313333D02*
X233171904Y-117503809D01*
X232638571Y-117694285D02*
X233171904Y-117503809D01*
X233362380Y-117427619D01*
X233400476Y-117389523D01*
X233438571Y-117313333D01*
X233171904Y-117999047D02*
X232371904Y-117999047D01*
X232371904Y-118189523D01*
X232410000Y-118303809D01*
X232486190Y-118380000D01*
X232562380Y-118418095D01*
X232714761Y-118456190D01*
X232829047Y-118456190D01*
X232981428Y-118418095D01*
X233057619Y-118380000D01*
X233133809Y-118303809D01*
X233171904Y-118189523D01*
X233171904Y-117999047D01*
X233171904Y-119141904D02*
X232752857Y-119141904D01*
X232676666Y-119103809D01*
X232638571Y-119027619D01*
X232638571Y-118875238D01*
X232676666Y-118799047D01*
X233133809Y-119141904D02*
X233171904Y-119065714D01*
X233171904Y-118875238D01*
X233133809Y-118799047D01*
X233057619Y-118760952D01*
X232981428Y-118760952D01*
X232905238Y-118799047D01*
X232867142Y-118875238D01*
X232867142Y-119065714D01*
X232829047Y-119141904D01*
X232752857Y-119789523D02*
X232790952Y-119903809D01*
X232829047Y-119941904D01*
X232905238Y-119980000D01*
X233019523Y-119980000D01*
X233095714Y-119941904D01*
X233133809Y-119903809D01*
X233171904Y-119827619D01*
X233171904Y-119522857D01*
X232371904Y-119522857D01*
X232371904Y-119789523D01*
X232410000Y-119865714D01*
X232448095Y-119903809D01*
X232524285Y-119941904D01*
X232600476Y-119941904D01*
X232676666Y-119903809D01*
X232714761Y-119865714D01*
X232752857Y-119789523D01*
X232752857Y-119522857D01*
X233171904Y-120322857D02*
X232638571Y-120322857D01*
X232371904Y-120322857D02*
X232410000Y-120284761D01*
X232448095Y-120322857D01*
X232410000Y-120360952D01*
X232371904Y-120322857D01*
X232448095Y-120322857D01*
X233171904Y-120703809D02*
X232638571Y-120703809D01*
X232790952Y-120703809D02*
X232714761Y-120741904D01*
X232676666Y-120780000D01*
X232638571Y-120856190D01*
X232638571Y-120932380D01*
X233171904Y-121541904D02*
X232371904Y-121541904D01*
X233133809Y-121541904D02*
X233171904Y-121465714D01*
X233171904Y-121313333D01*
X233133809Y-121237142D01*
X233095714Y-121199047D01*
X233019523Y-121160952D01*
X232790952Y-121160952D01*
X232714761Y-121199047D01*
X232676666Y-121237142D01*
X232638571Y-121313333D01*
X232638571Y-121465714D01*
X232676666Y-121541904D01*
X234521904Y-101675238D02*
X234521904Y-101294285D01*
X233721904Y-101294285D01*
X234521904Y-101941904D02*
X233988571Y-101941904D01*
X233721904Y-101941904D02*
X233760000Y-101903809D01*
X233798095Y-101941904D01*
X233760000Y-101980000D01*
X233721904Y-101941904D01*
X233798095Y-101941904D01*
X234483809Y-102665714D02*
X234521904Y-102589523D01*
X234521904Y-102437142D01*
X234483809Y-102360952D01*
X234445714Y-102322857D01*
X234369523Y-102284761D01*
X234140952Y-102284761D01*
X234064761Y-102322857D01*
X234026666Y-102360952D01*
X233988571Y-102437142D01*
X233988571Y-102589523D01*
X234026666Y-102665714D01*
X234483809Y-103313333D02*
X234521904Y-103237142D01*
X234521904Y-103084761D01*
X234483809Y-103008571D01*
X234407619Y-102970476D01*
X234102857Y-102970476D01*
X234026666Y-103008571D01*
X233988571Y-103084761D01*
X233988571Y-103237142D01*
X234026666Y-103313333D01*
X234102857Y-103351428D01*
X234179047Y-103351428D01*
X234255238Y-102970476D01*
X233988571Y-103694285D02*
X234521904Y-103694285D01*
X234064761Y-103694285D02*
X234026666Y-103732380D01*
X233988571Y-103808571D01*
X233988571Y-103922857D01*
X234026666Y-103999047D01*
X234102857Y-104037142D01*
X234521904Y-104037142D01*
X234483809Y-104380000D02*
X234521904Y-104456190D01*
X234521904Y-104608571D01*
X234483809Y-104684761D01*
X234407619Y-104722857D01*
X234369523Y-104722857D01*
X234293333Y-104684761D01*
X234255238Y-104608571D01*
X234255238Y-104494285D01*
X234217142Y-104418095D01*
X234140952Y-104380000D01*
X234102857Y-104380000D01*
X234026666Y-104418095D01*
X233988571Y-104494285D01*
X233988571Y-104608571D01*
X234026666Y-104684761D01*
X234483809Y-105370476D02*
X234521904Y-105294285D01*
X234521904Y-105141904D01*
X234483809Y-105065714D01*
X234407619Y-105027619D01*
X234102857Y-105027619D01*
X234026666Y-105065714D01*
X233988571Y-105141904D01*
X233988571Y-105294285D01*
X234026666Y-105370476D01*
X234102857Y-105408571D01*
X234179047Y-105408571D01*
X234255238Y-105027619D01*
X234521904Y-106094285D02*
X233721904Y-106094285D01*
X234483809Y-106094285D02*
X234521904Y-106018095D01*
X234521904Y-105865714D01*
X234483809Y-105789523D01*
X234445714Y-105751428D01*
X234369523Y-105713333D01*
X234140952Y-105713333D01*
X234064761Y-105751428D01*
X234026666Y-105789523D01*
X233988571Y-105865714D01*
X233988571Y-106018095D01*
X234026666Y-106094285D01*
X233988571Y-107427619D02*
X234521904Y-107427619D01*
X233988571Y-107084761D02*
X234407619Y-107084761D01*
X234483809Y-107122857D01*
X234521904Y-107199047D01*
X234521904Y-107313333D01*
X234483809Y-107389523D01*
X234445714Y-107427619D01*
X233988571Y-107808571D02*
X234521904Y-107808571D01*
X234064761Y-107808571D02*
X234026666Y-107846666D01*
X233988571Y-107922857D01*
X233988571Y-108037142D01*
X234026666Y-108113333D01*
X234102857Y-108151428D01*
X234521904Y-108151428D01*
X234521904Y-108875238D02*
X233721904Y-108875238D01*
X234483809Y-108875238D02*
X234521904Y-108799047D01*
X234521904Y-108646666D01*
X234483809Y-108570476D01*
X234445714Y-108532380D01*
X234369523Y-108494285D01*
X234140952Y-108494285D01*
X234064761Y-108532380D01*
X234026666Y-108570476D01*
X233988571Y-108646666D01*
X233988571Y-108799047D01*
X234026666Y-108875238D01*
X234483809Y-109560952D02*
X234521904Y-109484761D01*
X234521904Y-109332380D01*
X234483809Y-109256190D01*
X234407619Y-109218095D01*
X234102857Y-109218095D01*
X234026666Y-109256190D01*
X233988571Y-109332380D01*
X233988571Y-109484761D01*
X234026666Y-109560952D01*
X234102857Y-109599047D01*
X234179047Y-109599047D01*
X234255238Y-109218095D01*
X234521904Y-109941904D02*
X233988571Y-109941904D01*
X234140952Y-109941904D02*
X234064761Y-109980000D01*
X234026666Y-110018095D01*
X233988571Y-110094285D01*
X233988571Y-110170476D01*
X234445714Y-111503809D02*
X234483809Y-111465714D01*
X234521904Y-111351428D01*
X234521904Y-111275238D01*
X234483809Y-111160952D01*
X234407619Y-111084761D01*
X234331428Y-111046666D01*
X234179047Y-111008571D01*
X234064761Y-111008571D01*
X233912380Y-111046666D01*
X233836190Y-111084761D01*
X233760000Y-111160952D01*
X233721904Y-111275238D01*
X233721904Y-111351428D01*
X233760000Y-111465714D01*
X233798095Y-111503809D01*
X234102857Y-111846666D02*
X234102857Y-112113333D01*
X234521904Y-112227619D02*
X234521904Y-111846666D01*
X233721904Y-111846666D01*
X233721904Y-112227619D01*
X234521904Y-113027619D02*
X234140952Y-112760952D01*
X234521904Y-112570476D02*
X233721904Y-112570476D01*
X233721904Y-112875238D01*
X233760000Y-112951428D01*
X233798095Y-112989523D01*
X233874285Y-113027619D01*
X233988571Y-113027619D01*
X234064761Y-112989523D01*
X234102857Y-112951428D01*
X234140952Y-112875238D01*
X234140952Y-112570476D01*
X234521904Y-113370476D02*
X233721904Y-113370476D01*
X234521904Y-113827619D01*
X233721904Y-113827619D01*
X234217142Y-114208571D02*
X234217142Y-114818095D01*
X233721904Y-115351428D02*
X233721904Y-115503809D01*
X233760000Y-115580000D01*
X233836190Y-115656190D01*
X233988571Y-115694285D01*
X234255238Y-115694285D01*
X234407619Y-115656190D01*
X234483809Y-115580000D01*
X234521904Y-115503809D01*
X234521904Y-115351428D01*
X234483809Y-115275238D01*
X234407619Y-115199047D01*
X234255238Y-115160952D01*
X233988571Y-115160952D01*
X233836190Y-115199047D01*
X233760000Y-115275238D01*
X233721904Y-115351428D01*
X234521904Y-116037142D02*
X233721904Y-116037142D01*
X234102857Y-116037142D02*
X234102857Y-116494285D01*
X234521904Y-116494285D02*
X233721904Y-116494285D01*
X234521904Y-117256190D02*
X234521904Y-116875238D01*
X233721904Y-116875238D01*
X234217142Y-117522857D02*
X234217142Y-118132380D01*
X234483809Y-118475238D02*
X234521904Y-118589523D01*
X234521904Y-118780000D01*
X234483809Y-118856190D01*
X234445714Y-118894285D01*
X234369523Y-118932380D01*
X234293333Y-118932380D01*
X234217142Y-118894285D01*
X234179047Y-118856190D01*
X234140952Y-118780000D01*
X234102857Y-118627619D01*
X234064761Y-118551428D01*
X234026666Y-118513333D01*
X233950476Y-118475238D01*
X233874285Y-118475238D01*
X233798095Y-118513333D01*
X233760000Y-118551428D01*
X233721904Y-118627619D01*
X233721904Y-118818095D01*
X233760000Y-118932380D01*
X233988571Y-119808571D02*
X234521904Y-119999047D01*
X233988571Y-120189523D01*
X233798095Y-120456190D02*
X233760000Y-120494285D01*
X233721904Y-120570476D01*
X233721904Y-120760952D01*
X233760000Y-120837142D01*
X233798095Y-120875238D01*
X233874285Y-120913333D01*
X233950476Y-120913333D01*
X234064761Y-120875238D01*
X234521904Y-120418095D01*
X234521904Y-120913333D01*
X234217142Y-121256190D02*
X234217142Y-121865714D01*
X234521904Y-121560952D02*
X233912380Y-121560952D01*
X235071904Y-107884761D02*
X235643333Y-107884761D01*
X235757619Y-107846666D01*
X235833809Y-107770476D01*
X235871904Y-107656190D01*
X235871904Y-107580000D01*
X235871904Y-108646666D02*
X235871904Y-108265714D01*
X235071904Y-108265714D01*
X235795714Y-109370476D02*
X235833809Y-109332380D01*
X235871904Y-109218095D01*
X235871904Y-109141904D01*
X235833809Y-109027619D01*
X235757619Y-108951428D01*
X235681428Y-108913333D01*
X235529047Y-108875238D01*
X235414761Y-108875238D01*
X235262380Y-108913333D01*
X235186190Y-108951428D01*
X235110000Y-109027619D01*
X235071904Y-109141904D01*
X235071904Y-109218095D01*
X235110000Y-109332380D01*
X235148095Y-109370476D01*
X235071904Y-109941904D02*
X235643333Y-109941904D01*
X235757619Y-109903809D01*
X235833809Y-109827619D01*
X235871904Y-109713333D01*
X235871904Y-109637142D01*
X235871904Y-110703809D02*
X235871904Y-110322857D01*
X235071904Y-110322857D01*
X235795714Y-111427619D02*
X235833809Y-111389523D01*
X235871904Y-111275238D01*
X235871904Y-111199047D01*
X235833809Y-111084761D01*
X235757619Y-111008571D01*
X235681428Y-110970476D01*
X235529047Y-110932380D01*
X235414761Y-110932380D01*
X235262380Y-110970476D01*
X235186190Y-111008571D01*
X235110000Y-111084761D01*
X235071904Y-111199047D01*
X235071904Y-111275238D01*
X235110000Y-111389523D01*
X235148095Y-111427619D01*
X235071904Y-111999047D02*
X235643333Y-111999047D01*
X235757619Y-111960952D01*
X235833809Y-111884761D01*
X235871904Y-111770476D01*
X235871904Y-111694285D01*
X235871904Y-112760952D02*
X235871904Y-112380000D01*
X235071904Y-112380000D01*
X235795714Y-113484761D02*
X235833809Y-113446666D01*
X235871904Y-113332380D01*
X235871904Y-113256190D01*
X235833809Y-113141904D01*
X235757619Y-113065714D01*
X235681428Y-113027619D01*
X235529047Y-112989523D01*
X235414761Y-112989523D01*
X235262380Y-113027619D01*
X235186190Y-113065714D01*
X235110000Y-113141904D01*
X235071904Y-113256190D01*
X235071904Y-113332380D01*
X235110000Y-113446666D01*
X235148095Y-113484761D01*
X235071904Y-114056190D02*
X235643333Y-114056190D01*
X235757619Y-114018095D01*
X235833809Y-113941904D01*
X235871904Y-113827619D01*
X235871904Y-113751428D01*
X235871904Y-114818095D02*
X235871904Y-114437142D01*
X235071904Y-114437142D01*
X235795714Y-115541904D02*
X235833809Y-115503809D01*
X235871904Y-115389523D01*
X235871904Y-115313333D01*
X235833809Y-115199047D01*
X235757619Y-115122857D01*
X235681428Y-115084761D01*
X235529047Y-115046666D01*
X235414761Y-115046666D01*
X235262380Y-115084761D01*
X235186190Y-115122857D01*
X235110000Y-115199047D01*
X235071904Y-115313333D01*
X235071904Y-115389523D01*
X235110000Y-115503809D01*
X235148095Y-115541904D01*
%LPC*%
D11*
X213801400Y-105776400D03*
X224958600Y-117333600D03*
X213801400Y-117333600D03*
X224958600Y-105776400D03*
X178801400Y-114501400D03*
X191958600Y-114501400D03*
X191958600Y-127658600D03*
X178801400Y-127658600D03*
X159751400Y-114501400D03*
X172908600Y-114501400D03*
X172908600Y-127658600D03*
X159751400Y-127658600D03*
X178801400Y-95451400D03*
X191958600Y-95451400D03*
X191958600Y-108608600D03*
X178801400Y-108608600D03*
X159751400Y-95451400D03*
X172908600Y-95451400D03*
X172908600Y-108608600D03*
X159751400Y-108608600D03*
D12*
X175855000Y-128105000D03*
X227380000Y-125411406D03*
X227380000Y-97698594D03*
X175855000Y-95005000D03*
M02*
