%TF.GenerationSoftware,KiCad,Pcbnew,(5.1.9)-1*%
%TF.CreationDate,2021-11-30T13:31:35+01:00*%
%TF.ProjectId,Little_Big_Scroll,4c697474-6c65-45f4-9269-675f5363726f,v1.0*%
%TF.SameCoordinates,Original*%
%TF.FileFunction,Soldermask,Top*%
%TF.FilePolarity,Negative*%
%FSLAX46Y46*%
G04 Gerber Fmt 4.6, Leading zero omitted, Abs format (unit mm)*
G04 Created by KiCad (PCBNEW (5.1.9)-1) date 2021-11-30 13:31:35*
%MOMM*%
%LPD*%
G01*
G04 APERTURE LIST*
%ADD10C,2.000000*%
%ADD11R,2.000000X3.200000*%
%ADD12R,2.000000X2.000000*%
%ADD13C,1.752600*%
%ADD14R,1.752600X1.752600*%
%ADD15C,1.701800*%
%ADD16C,3.987800*%
%ADD17C,3.000000*%
%ADD18O,1.700000X1.700000*%
%ADD19R,1.700000X1.700000*%
%ADD20C,3.700000*%
%ADD21O,1.400000X1.400000*%
%ADD22C,1.400000*%
G04 APERTURE END LIST*
D10*
X221880000Y-104555000D03*
X216880000Y-104555000D03*
D11*
X224980000Y-111555000D03*
X213780000Y-111555000D03*
D10*
X221880000Y-119055000D03*
X219380000Y-119055000D03*
D12*
X216880000Y-119055000D03*
D13*
X211500000Y-96585000D03*
X196260000Y-124525000D03*
X211500000Y-99125000D03*
X211500000Y-101665000D03*
X211500000Y-104205000D03*
X211500000Y-106745000D03*
X211500000Y-109285000D03*
X211500000Y-111825000D03*
X211500000Y-114365000D03*
X211500000Y-116905000D03*
X211500000Y-119445000D03*
X211500000Y-121985000D03*
X211500000Y-124525000D03*
X196260000Y-121985000D03*
X196260000Y-119445000D03*
X196260000Y-116905000D03*
X196260000Y-114365000D03*
X196260000Y-111825000D03*
X196260000Y-109285000D03*
X196260000Y-106745000D03*
X196260000Y-104205000D03*
X196260000Y-101665000D03*
X196260000Y-99125000D03*
D14*
X196260000Y-96585000D03*
D15*
X180300000Y-121080000D03*
X190460000Y-121080000D03*
D16*
X185380000Y-121080000D03*
D17*
X181570000Y-118540000D03*
X187920000Y-116000000D03*
D15*
X161250000Y-121080000D03*
X171410000Y-121080000D03*
D16*
X166330000Y-121080000D03*
D17*
X162520000Y-118540000D03*
X168870000Y-116000000D03*
D15*
X180300000Y-102030000D03*
X190460000Y-102030000D03*
D16*
X185380000Y-102030000D03*
D17*
X181570000Y-99490000D03*
X187920000Y-96950000D03*
D15*
X161250000Y-102030000D03*
X171410000Y-102030000D03*
D16*
X166330000Y-102030000D03*
D17*
X162520000Y-99490000D03*
X168870000Y-96950000D03*
D18*
X194105000Y-107340000D03*
X194105000Y-104800000D03*
X194105000Y-102260000D03*
D19*
X194105000Y-99720000D03*
D20*
X175855000Y-128105000D03*
X227380000Y-125411406D03*
X227380000Y-97698594D03*
X175855000Y-95005000D03*
D18*
X217490000Y-93870000D03*
D19*
X214950000Y-93870000D03*
D21*
X224520000Y-121620000D03*
D22*
X224520000Y-126700000D03*
D21*
X214250000Y-126650000D03*
D22*
X214250000Y-121570000D03*
D21*
X187180000Y-111480000D03*
D22*
X192260000Y-111480000D03*
D21*
X179690000Y-111500000D03*
D22*
X184770000Y-111500000D03*
M02*
