%TF.GenerationSoftware,KiCad,Pcbnew,(5.1.9)-1*%
%TF.CreationDate,2021-11-30T13:31:35+01:00*%
%TF.ProjectId,Little_Big_Scroll,4c697474-6c65-45f4-9269-675f5363726f,v1.0*%
%TF.SameCoordinates,Original*%
%TF.FileFunction,Soldermask,Bot*%
%TF.FilePolarity,Negative*%
%FSLAX46Y46*%
G04 Gerber Fmt 4.6, Leading zero omitted, Abs format (unit mm)*
G04 Created by KiCad (PCBNEW (5.1.9)-1) date 2021-11-30 13:31:35*
%MOMM*%
%LPD*%
G01*
G04 APERTURE LIST*
%ADD10C,2.000000*%
%ADD11R,2.000000X3.200000*%
%ADD12R,2.000000X2.000000*%
%ADD13C,1.752600*%
%ADD14R,1.752600X1.752600*%
%ADD15R,2.550000X2.500000*%
%ADD16C,1.701800*%
%ADD17C,3.987800*%
%ADD18C,3.000000*%
%ADD19O,1.700000X1.700000*%
%ADD20R,1.700000X1.700000*%
%ADD21C,3.700000*%
%ADD22O,1.400000X1.400000*%
%ADD23C,1.400000*%
G04 APERTURE END LIST*
D10*
X221880000Y-104555000D03*
X216880000Y-104555000D03*
D11*
X224980000Y-111555000D03*
X213780000Y-111555000D03*
D10*
X221880000Y-119055000D03*
X219380000Y-119055000D03*
D12*
X216880000Y-119055000D03*
D13*
X211500000Y-96585000D03*
X196260000Y-124525000D03*
X211500000Y-99125000D03*
X211500000Y-101665000D03*
X211500000Y-104205000D03*
X211500000Y-106745000D03*
X211500000Y-109285000D03*
X211500000Y-111825000D03*
X211500000Y-114365000D03*
X211500000Y-116905000D03*
X211500000Y-119445000D03*
X211500000Y-121985000D03*
X211500000Y-124525000D03*
X196260000Y-121985000D03*
X196260000Y-119445000D03*
X196260000Y-116905000D03*
X196260000Y-114365000D03*
X196260000Y-111825000D03*
X196260000Y-109285000D03*
X196260000Y-106745000D03*
X196260000Y-104205000D03*
X196260000Y-101665000D03*
X196260000Y-99125000D03*
D14*
X196260000Y-96585000D03*
D15*
X177820000Y-118540000D03*
D16*
X180300000Y-121080000D03*
X190460000Y-121080000D03*
D17*
X185380000Y-121080000D03*
D18*
X181570000Y-118540000D03*
X187920000Y-116000000D03*
D15*
X191670000Y-116000000D03*
X158770000Y-118540000D03*
D16*
X161250000Y-121080000D03*
X171410000Y-121080000D03*
D17*
X166330000Y-121080000D03*
D18*
X162520000Y-118540000D03*
X168870000Y-116000000D03*
D15*
X172620000Y-116000000D03*
X177820000Y-99490000D03*
D16*
X180300000Y-102030000D03*
X190460000Y-102030000D03*
D17*
X185380000Y-102030000D03*
D18*
X181570000Y-99490000D03*
X187920000Y-96950000D03*
D15*
X191670000Y-96950000D03*
X158770000Y-99490000D03*
D16*
X161250000Y-102030000D03*
X171410000Y-102030000D03*
D17*
X166330000Y-102030000D03*
D18*
X162520000Y-99490000D03*
X168870000Y-96950000D03*
D15*
X172620000Y-96950000D03*
D19*
X194105000Y-107340000D03*
X194105000Y-104800000D03*
X194105000Y-102260000D03*
D20*
X194105000Y-99720000D03*
D21*
X175855000Y-128105000D03*
X227380000Y-125411406D03*
X227380000Y-97698594D03*
X175855000Y-95005000D03*
D19*
X217490000Y-93870000D03*
D20*
X214950000Y-93870000D03*
G36*
G01*
X221262000Y-123499999D02*
X222698000Y-123499999D01*
G75*
G02*
X222780000Y-123581999I0J-82000D01*
G01*
X222780000Y-124237999D01*
G75*
G02*
X222698000Y-124319999I-82000J0D01*
G01*
X221262000Y-124319999D01*
G75*
G02*
X221180000Y-124237999I0J82000D01*
G01*
X221180000Y-123581999D01*
G75*
G02*
X221262000Y-123499999I82000J0D01*
G01*
G37*
G36*
G01*
X221262000Y-121999999D02*
X222698000Y-121999999D01*
G75*
G02*
X222780000Y-122081999I0J-82000D01*
G01*
X222780000Y-122737999D01*
G75*
G02*
X222698000Y-122819999I-82000J0D01*
G01*
X221262000Y-122819999D01*
G75*
G02*
X221180000Y-122737999I0J82000D01*
G01*
X221180000Y-122081999D01*
G75*
G02*
X221262000Y-121999999I82000J0D01*
G01*
G37*
G36*
G01*
X216062000Y-123499999D02*
X217498000Y-123499999D01*
G75*
G02*
X217580000Y-123581999I0J-82000D01*
G01*
X217580000Y-124237999D01*
G75*
G02*
X217498000Y-124319999I-82000J0D01*
G01*
X216062000Y-124319999D01*
G75*
G02*
X215980000Y-124237999I0J82000D01*
G01*
X215980000Y-123581999D01*
G75*
G02*
X216062000Y-123499999I82000J0D01*
G01*
G37*
G36*
G01*
X216062000Y-121999999D02*
X217498000Y-121999999D01*
G75*
G02*
X217580000Y-122081999I0J-82000D01*
G01*
X217580000Y-122737999D01*
G75*
G02*
X217498000Y-122819999I-82000J0D01*
G01*
X216062000Y-122819999D01*
G75*
G02*
X215980000Y-122737999I0J82000D01*
G01*
X215980000Y-122081999D01*
G75*
G02*
X216062000Y-121999999I82000J0D01*
G01*
G37*
G36*
G01*
X221262000Y-100424999D02*
X222698000Y-100424999D01*
G75*
G02*
X222780000Y-100506999I0J-82000D01*
G01*
X222780000Y-101162999D01*
G75*
G02*
X222698000Y-101244999I-82000J0D01*
G01*
X221262000Y-101244999D01*
G75*
G02*
X221180000Y-101162999I0J82000D01*
G01*
X221180000Y-100506999D01*
G75*
G02*
X221262000Y-100424999I82000J0D01*
G01*
G37*
G36*
G01*
X221262000Y-98924999D02*
X222698000Y-98924999D01*
G75*
G02*
X222780000Y-99006999I0J-82000D01*
G01*
X222780000Y-99662999D01*
G75*
G02*
X222698000Y-99744999I-82000J0D01*
G01*
X221262000Y-99744999D01*
G75*
G02*
X221180000Y-99662999I0J82000D01*
G01*
X221180000Y-99006999D01*
G75*
G02*
X221262000Y-98924999I82000J0D01*
G01*
G37*
G36*
G01*
X216062000Y-100424999D02*
X217498000Y-100424999D01*
G75*
G02*
X217580000Y-100506999I0J-82000D01*
G01*
X217580000Y-101162999D01*
G75*
G02*
X217498000Y-101244999I-82000J0D01*
G01*
X216062000Y-101244999D01*
G75*
G02*
X215980000Y-101162999I0J82000D01*
G01*
X215980000Y-100506999D01*
G75*
G02*
X216062000Y-100424999I82000J0D01*
G01*
G37*
G36*
G01*
X216062000Y-98924999D02*
X217498000Y-98924999D01*
G75*
G02*
X217580000Y-99006999I0J-82000D01*
G01*
X217580000Y-99662999D01*
G75*
G02*
X217498000Y-99744999I-82000J0D01*
G01*
X216062000Y-99744999D01*
G75*
G02*
X215980000Y-99662999I0J82000D01*
G01*
X215980000Y-99006999D01*
G75*
G02*
X216062000Y-98924999I82000J0D01*
G01*
G37*
D22*
X224520000Y-121620000D03*
D23*
X224520000Y-126700000D03*
D22*
X214250000Y-126650000D03*
D23*
X214250000Y-121570000D03*
D22*
X187180000Y-111480000D03*
D23*
X192260000Y-111480000D03*
D22*
X179690000Y-111500000D03*
D23*
X184770000Y-111500000D03*
G36*
G01*
X187262000Y-126499999D02*
X188698000Y-126499999D01*
G75*
G02*
X188780000Y-126581999I0J-82000D01*
G01*
X188780000Y-127237999D01*
G75*
G02*
X188698000Y-127319999I-82000J0D01*
G01*
X187262000Y-127319999D01*
G75*
G02*
X187180000Y-127237999I0J82000D01*
G01*
X187180000Y-126581999D01*
G75*
G02*
X187262000Y-126499999I82000J0D01*
G01*
G37*
G36*
G01*
X187262000Y-124999999D02*
X188698000Y-124999999D01*
G75*
G02*
X188780000Y-125081999I0J-82000D01*
G01*
X188780000Y-125737999D01*
G75*
G02*
X188698000Y-125819999I-82000J0D01*
G01*
X187262000Y-125819999D01*
G75*
G02*
X187180000Y-125737999I0J82000D01*
G01*
X187180000Y-125081999D01*
G75*
G02*
X187262000Y-124999999I82000J0D01*
G01*
G37*
G36*
G01*
X182062000Y-126499999D02*
X183498000Y-126499999D01*
G75*
G02*
X183580000Y-126581999I0J-82000D01*
G01*
X183580000Y-127237999D01*
G75*
G02*
X183498000Y-127319999I-82000J0D01*
G01*
X182062000Y-127319999D01*
G75*
G02*
X181980000Y-127237999I0J82000D01*
G01*
X181980000Y-126581999D01*
G75*
G02*
X182062000Y-126499999I82000J0D01*
G01*
G37*
G36*
G01*
X182062000Y-124999999D02*
X183498000Y-124999999D01*
G75*
G02*
X183580000Y-125081999I0J-82000D01*
G01*
X183580000Y-125737999D01*
G75*
G02*
X183498000Y-125819999I-82000J0D01*
G01*
X182062000Y-125819999D01*
G75*
G02*
X181980000Y-125737999I0J82000D01*
G01*
X181980000Y-125081999D01*
G75*
G02*
X182062000Y-124999999I82000J0D01*
G01*
G37*
G36*
G01*
X168212000Y-126499999D02*
X169648000Y-126499999D01*
G75*
G02*
X169730000Y-126581999I0J-82000D01*
G01*
X169730000Y-127237999D01*
G75*
G02*
X169648000Y-127319999I-82000J0D01*
G01*
X168212000Y-127319999D01*
G75*
G02*
X168130000Y-127237999I0J82000D01*
G01*
X168130000Y-126581999D01*
G75*
G02*
X168212000Y-126499999I82000J0D01*
G01*
G37*
G36*
G01*
X168212000Y-124999999D02*
X169648000Y-124999999D01*
G75*
G02*
X169730000Y-125081999I0J-82000D01*
G01*
X169730000Y-125737999D01*
G75*
G02*
X169648000Y-125819999I-82000J0D01*
G01*
X168212000Y-125819999D01*
G75*
G02*
X168130000Y-125737999I0J82000D01*
G01*
X168130000Y-125081999D01*
G75*
G02*
X168212000Y-124999999I82000J0D01*
G01*
G37*
G36*
G01*
X163012000Y-126499999D02*
X164448000Y-126499999D01*
G75*
G02*
X164530000Y-126581999I0J-82000D01*
G01*
X164530000Y-127237999D01*
G75*
G02*
X164448000Y-127319999I-82000J0D01*
G01*
X163012000Y-127319999D01*
G75*
G02*
X162930000Y-127237999I0J82000D01*
G01*
X162930000Y-126581999D01*
G75*
G02*
X163012000Y-126499999I82000J0D01*
G01*
G37*
G36*
G01*
X163012000Y-124999999D02*
X164448000Y-124999999D01*
G75*
G02*
X164530000Y-125081999I0J-82000D01*
G01*
X164530000Y-125737999D01*
G75*
G02*
X164448000Y-125819999I-82000J0D01*
G01*
X163012000Y-125819999D01*
G75*
G02*
X162930000Y-125737999I0J82000D01*
G01*
X162930000Y-125081999D01*
G75*
G02*
X163012000Y-124999999I82000J0D01*
G01*
G37*
G36*
G01*
X168212000Y-107449999D02*
X169648000Y-107449999D01*
G75*
G02*
X169730000Y-107531999I0J-82000D01*
G01*
X169730000Y-108187999D01*
G75*
G02*
X169648000Y-108269999I-82000J0D01*
G01*
X168212000Y-108269999D01*
G75*
G02*
X168130000Y-108187999I0J82000D01*
G01*
X168130000Y-107531999D01*
G75*
G02*
X168212000Y-107449999I82000J0D01*
G01*
G37*
G36*
G01*
X168212000Y-105949999D02*
X169648000Y-105949999D01*
G75*
G02*
X169730000Y-106031999I0J-82000D01*
G01*
X169730000Y-106687999D01*
G75*
G02*
X169648000Y-106769999I-82000J0D01*
G01*
X168212000Y-106769999D01*
G75*
G02*
X168130000Y-106687999I0J82000D01*
G01*
X168130000Y-106031999D01*
G75*
G02*
X168212000Y-105949999I82000J0D01*
G01*
G37*
G36*
G01*
X163012000Y-107449999D02*
X164448000Y-107449999D01*
G75*
G02*
X164530000Y-107531999I0J-82000D01*
G01*
X164530000Y-108187999D01*
G75*
G02*
X164448000Y-108269999I-82000J0D01*
G01*
X163012000Y-108269999D01*
G75*
G02*
X162930000Y-108187999I0J82000D01*
G01*
X162930000Y-107531999D01*
G75*
G02*
X163012000Y-107449999I82000J0D01*
G01*
G37*
G36*
G01*
X163012000Y-105949999D02*
X164448000Y-105949999D01*
G75*
G02*
X164530000Y-106031999I0J-82000D01*
G01*
X164530000Y-106687999D01*
G75*
G02*
X164448000Y-106769999I-82000J0D01*
G01*
X163012000Y-106769999D01*
G75*
G02*
X162930000Y-106687999I0J82000D01*
G01*
X162930000Y-106031999D01*
G75*
G02*
X163012000Y-105949999I82000J0D01*
G01*
G37*
G36*
G01*
X187262000Y-107449999D02*
X188698000Y-107449999D01*
G75*
G02*
X188780000Y-107531999I0J-82000D01*
G01*
X188780000Y-108187999D01*
G75*
G02*
X188698000Y-108269999I-82000J0D01*
G01*
X187262000Y-108269999D01*
G75*
G02*
X187180000Y-108187999I0J82000D01*
G01*
X187180000Y-107531999D01*
G75*
G02*
X187262000Y-107449999I82000J0D01*
G01*
G37*
G36*
G01*
X187262000Y-105949999D02*
X188698000Y-105949999D01*
G75*
G02*
X188780000Y-106031999I0J-82000D01*
G01*
X188780000Y-106687999D01*
G75*
G02*
X188698000Y-106769999I-82000J0D01*
G01*
X187262000Y-106769999D01*
G75*
G02*
X187180000Y-106687999I0J82000D01*
G01*
X187180000Y-106031999D01*
G75*
G02*
X187262000Y-105949999I82000J0D01*
G01*
G37*
G36*
G01*
X182062000Y-107449999D02*
X183498000Y-107449999D01*
G75*
G02*
X183580000Y-107531999I0J-82000D01*
G01*
X183580000Y-108187999D01*
G75*
G02*
X183498000Y-108269999I-82000J0D01*
G01*
X182062000Y-108269999D01*
G75*
G02*
X181980000Y-108187999I0J82000D01*
G01*
X181980000Y-107531999D01*
G75*
G02*
X182062000Y-107449999I82000J0D01*
G01*
G37*
G36*
G01*
X182062000Y-105949999D02*
X183498000Y-105949999D01*
G75*
G02*
X183580000Y-106031999I0J-82000D01*
G01*
X183580000Y-106687999D01*
G75*
G02*
X183498000Y-106769999I-82000J0D01*
G01*
X182062000Y-106769999D01*
G75*
G02*
X181980000Y-106687999I0J82000D01*
G01*
X181980000Y-106031999D01*
G75*
G02*
X182062000Y-105949999I82000J0D01*
G01*
G37*
M02*
