M48
; DRILL file {KiCad (5.1.9)-1} date 11/30/21 13:31:42
; FORMAT={-:-/ absolute / metric / decimal}
; #@! TF.CreationDate,2021-11-30T13:31:42+01:00
; #@! TF.GenerationSoftware,Kicad,Pcbnew,(5.1.9)-1
FMAT,2
METRIC
T1C0.400
T2C0.700
T3C1.000
T4C1.092
T5C1.500
T6C1.702
T7C3.000
T8C3.700
T9C3.988
%
G90
G05
T1
X158.77Y-99.49
X158.77Y-118.54
X159.33Y-112.36
X160.24Y-125.5
X165.52Y-111.21
X171.71Y-112.54
X171.87Y-123.22
X177.82Y-99.49
X181.33Y-106.36
X189.373Y-104.928
X191.67Y-96.95
X191.77Y-106.426
X193.294Y-126.492
X216.586Y-129.286
X216.612Y-98.515
X216.77Y-121.54
X218.44Y-116.586
X219.202Y-126.238
X236.97Y-112.04
T2
X179.69Y-111.5
X184.77Y-111.5
X187.18Y-111.48
X192.26Y-111.48
X214.25Y-121.57
X214.25Y-126.65
X224.52Y-121.62
X224.52Y-126.7
T3
X194.105Y-99.72
X194.105Y-102.26
X194.105Y-104.8
X194.105Y-107.34
X214.95Y-93.87
X216.88Y-104.555
X216.88Y-119.055
X217.49Y-93.87
X219.38Y-119.055
X221.88Y-104.555
X221.88Y-119.055
T4
X196.26Y-96.585
X196.26Y-99.125
X196.26Y-101.665
X196.26Y-104.205
X196.26Y-106.745
X196.26Y-109.285
X196.26Y-111.825
X196.26Y-114.365
X196.26Y-116.905
X196.26Y-119.445
X196.26Y-121.985
X196.26Y-124.525
X211.5Y-96.585
X211.5Y-99.125
X211.5Y-101.665
X211.5Y-104.205
X211.5Y-106.745
X211.5Y-109.285
X211.5Y-111.825
X211.5Y-114.365
X211.5Y-116.905
X211.5Y-119.445
X211.5Y-121.985
X211.5Y-124.525
T6
X161.25Y-102.03
X161.25Y-121.08
X171.41Y-102.03
X171.41Y-121.08
X180.3Y-102.03
X180.3Y-121.08
X190.46Y-102.03
X190.46Y-121.08
T7
X162.52Y-99.49
X162.52Y-118.54
X168.87Y-96.95
X168.87Y-116.0
X181.57Y-99.49
X181.57Y-118.54
X187.92Y-96.95
X187.92Y-116.0
T8
X175.855Y-95.005
X175.855Y-128.105
X227.38Y-97.699
X227.38Y-125.411
T9
X166.33Y-102.03
X166.33Y-121.08
X185.38Y-102.03
X185.38Y-121.08
T5
X213.78Y-112.205G85X213.78Y-110.905
G05
X224.98Y-112.205G85X224.98Y-110.905
G05
T0
M30
