%TF.GenerationSoftware,KiCad,Pcbnew,(5.1.9)-1*%
%TF.CreationDate,2021-11-30T13:34:52+01:00*%
%TF.ProjectId,Little_Big_Scroll_4KEY,4c697474-6c65-45f4-9269-675f5363726f,v1.0*%
%TF.SameCoordinates,Original*%
%TF.FileFunction,Profile,NP*%
%FSLAX46Y46*%
G04 Gerber Fmt 4.6, Leading zero omitted, Abs format (unit mm)*
G04 Created by KiCad (PCBNEW (5.1.9)-1) date 2021-11-30 13:34:52*
%MOMM*%
%LPD*%
G01*
G04 APERTURE LIST*
%TA.AperFunction,Profile*%
%ADD10C,0.050000*%
%TD*%
%TA.AperFunction,Profile*%
%ADD11C,0.120000*%
%TD*%
%TA.AperFunction,Profile*%
%ADD12C,0.100000*%
%TD*%
G04 APERTURE END LIST*
D10*
X155805000Y-92560000D02*
G75*
G02*
X156805000Y-91560000I1000000J0D01*
G01*
X156805000Y-131550000D02*
G75*
G02*
X155805000Y-130550000I0J1000000D01*
G01*
X219380000Y-91560000D02*
G75*
G02*
X219380000Y-131550000I0J-19995000D01*
G01*
X155805000Y-92560000D02*
X155805000Y-130550000D01*
X156805000Y-131550000D02*
X219380000Y-131550000D01*
X156805000Y-91560000D02*
X219380000Y-91560000D01*
D11*
X213480000Y-105455000D02*
X225280000Y-105455000D01*
X213480000Y-117655000D02*
X225280000Y-117655000D01*
X213480000Y-105455000D02*
X213480000Y-117655000D01*
X225280000Y-105455000D02*
X225280000Y-117655000D01*
D12*
X178480000Y-127980000D02*
X192280000Y-127980000D01*
X192280000Y-114180000D02*
X178480000Y-114180000D01*
X178480000Y-114180000D02*
X178480000Y-127980000D01*
X192280000Y-127980000D02*
X192280000Y-114180000D01*
X159430000Y-127980000D02*
X173230000Y-127980000D01*
X173230000Y-114180000D02*
X159430000Y-114180000D01*
X159430000Y-114180000D02*
X159430000Y-127980000D01*
X173230000Y-127980000D02*
X173230000Y-114180000D01*
X178480000Y-108930000D02*
X192280000Y-108930000D01*
X192280000Y-95130000D02*
X178480000Y-95130000D01*
X178480000Y-95130000D02*
X178480000Y-108930000D01*
X192280000Y-108930000D02*
X192280000Y-95130000D01*
X159430000Y-108930000D02*
X173230000Y-108930000D01*
X173230000Y-95130000D02*
X159430000Y-95130000D01*
X159430000Y-95130000D02*
X159430000Y-108930000D01*
X173230000Y-108930000D02*
X173230000Y-95130000D01*
M02*
