%TF.GenerationSoftware,KiCad,Pcbnew,(5.1.9)-1*%
%TF.CreationDate,2021-11-30T13:31:35+01:00*%
%TF.ProjectId,Little_Big_Scroll,4c697474-6c65-45f4-9269-675f5363726f,v1.0*%
%TF.SameCoordinates,Original*%
%TF.FileFunction,Copper,L2,Bot*%
%TF.FilePolarity,Positive*%
%FSLAX46Y46*%
G04 Gerber Fmt 4.6, Leading zero omitted, Abs format (unit mm)*
G04 Created by KiCad (PCBNEW (5.1.9)-1) date 2021-11-30 13:31:35*
%MOMM*%
%LPD*%
G01*
G04 APERTURE LIST*
%TA.AperFunction,ComponentPad*%
%ADD10C,2.000000*%
%TD*%
%TA.AperFunction,ComponentPad*%
%ADD11R,2.000000X3.200000*%
%TD*%
%TA.AperFunction,ComponentPad*%
%ADD12R,2.000000X2.000000*%
%TD*%
%TA.AperFunction,ComponentPad*%
%ADD13C,1.752600*%
%TD*%
%TA.AperFunction,ComponentPad*%
%ADD14R,1.752600X1.752600*%
%TD*%
%TA.AperFunction,SMDPad,CuDef*%
%ADD15R,2.550000X2.500000*%
%TD*%
%TA.AperFunction,ComponentPad*%
%ADD16O,1.700000X1.700000*%
%TD*%
%TA.AperFunction,ComponentPad*%
%ADD17R,1.700000X1.700000*%
%TD*%
%TA.AperFunction,ComponentPad*%
%ADD18O,1.400000X1.400000*%
%TD*%
%TA.AperFunction,ComponentPad*%
%ADD19C,1.400000*%
%TD*%
%TA.AperFunction,ViaPad*%
%ADD20C,0.800000*%
%TD*%
%TA.AperFunction,Conductor*%
%ADD21C,0.450000*%
%TD*%
%TA.AperFunction,Conductor*%
%ADD22C,0.250000*%
%TD*%
%TA.AperFunction,Conductor*%
%ADD23C,0.254000*%
%TD*%
%TA.AperFunction,Conductor*%
%ADD24C,0.100000*%
%TD*%
G04 APERTURE END LIST*
D10*
X221880000Y-104555000D03*
X216880000Y-104555000D03*
D11*
X224980000Y-111555000D03*
X213780000Y-111555000D03*
D10*
X221880000Y-119055000D03*
X219380000Y-119055000D03*
D12*
X216880000Y-119055000D03*
D13*
X211500000Y-96585000D03*
X196260000Y-124525000D03*
X211500000Y-99125000D03*
X211500000Y-101665000D03*
X211500000Y-104205000D03*
X211500000Y-106745000D03*
X211500000Y-109285000D03*
X211500000Y-111825000D03*
X211500000Y-114365000D03*
X211500000Y-116905000D03*
X211500000Y-119445000D03*
X211500000Y-121985000D03*
X211500000Y-124525000D03*
X196260000Y-121985000D03*
X196260000Y-119445000D03*
X196260000Y-116905000D03*
X196260000Y-114365000D03*
X196260000Y-111825000D03*
X196260000Y-109285000D03*
X196260000Y-106745000D03*
X196260000Y-104205000D03*
X196260000Y-101665000D03*
X196260000Y-99125000D03*
D14*
X196260000Y-96585000D03*
D15*
X177820000Y-118540000D03*
X191670000Y-116000000D03*
X158770000Y-118540000D03*
X172620000Y-116000000D03*
X177820000Y-99490000D03*
X191670000Y-96950000D03*
X158770000Y-99490000D03*
X172620000Y-96950000D03*
D16*
X194105000Y-107340000D03*
X194105000Y-104800000D03*
X194105000Y-102260000D03*
D17*
X194105000Y-99720000D03*
D16*
X217490000Y-93870000D03*
D17*
X214950000Y-93870000D03*
%TA.AperFunction,SMDPad,CuDef*%
G36*
G01*
X221262000Y-123499999D02*
X222698000Y-123499999D01*
G75*
G02*
X222780000Y-123581999I0J-82000D01*
G01*
X222780000Y-124237999D01*
G75*
G02*
X222698000Y-124319999I-82000J0D01*
G01*
X221262000Y-124319999D01*
G75*
G02*
X221180000Y-124237999I0J82000D01*
G01*
X221180000Y-123581999D01*
G75*
G02*
X221262000Y-123499999I82000J0D01*
G01*
G37*
%TD.AperFunction*%
%TA.AperFunction,SMDPad,CuDef*%
G36*
G01*
X221262000Y-121999999D02*
X222698000Y-121999999D01*
G75*
G02*
X222780000Y-122081999I0J-82000D01*
G01*
X222780000Y-122737999D01*
G75*
G02*
X222698000Y-122819999I-82000J0D01*
G01*
X221262000Y-122819999D01*
G75*
G02*
X221180000Y-122737999I0J82000D01*
G01*
X221180000Y-122081999D01*
G75*
G02*
X221262000Y-121999999I82000J0D01*
G01*
G37*
%TD.AperFunction*%
%TA.AperFunction,SMDPad,CuDef*%
G36*
G01*
X216062000Y-123499999D02*
X217498000Y-123499999D01*
G75*
G02*
X217580000Y-123581999I0J-82000D01*
G01*
X217580000Y-124237999D01*
G75*
G02*
X217498000Y-124319999I-82000J0D01*
G01*
X216062000Y-124319999D01*
G75*
G02*
X215980000Y-124237999I0J82000D01*
G01*
X215980000Y-123581999D01*
G75*
G02*
X216062000Y-123499999I82000J0D01*
G01*
G37*
%TD.AperFunction*%
%TA.AperFunction,SMDPad,CuDef*%
G36*
G01*
X216062000Y-121999999D02*
X217498000Y-121999999D01*
G75*
G02*
X217580000Y-122081999I0J-82000D01*
G01*
X217580000Y-122737999D01*
G75*
G02*
X217498000Y-122819999I-82000J0D01*
G01*
X216062000Y-122819999D01*
G75*
G02*
X215980000Y-122737999I0J82000D01*
G01*
X215980000Y-122081999D01*
G75*
G02*
X216062000Y-121999999I82000J0D01*
G01*
G37*
%TD.AperFunction*%
%TA.AperFunction,SMDPad,CuDef*%
G36*
G01*
X221262000Y-100424999D02*
X222698000Y-100424999D01*
G75*
G02*
X222780000Y-100506999I0J-82000D01*
G01*
X222780000Y-101162999D01*
G75*
G02*
X222698000Y-101244999I-82000J0D01*
G01*
X221262000Y-101244999D01*
G75*
G02*
X221180000Y-101162999I0J82000D01*
G01*
X221180000Y-100506999D01*
G75*
G02*
X221262000Y-100424999I82000J0D01*
G01*
G37*
%TD.AperFunction*%
%TA.AperFunction,SMDPad,CuDef*%
G36*
G01*
X221262000Y-98924999D02*
X222698000Y-98924999D01*
G75*
G02*
X222780000Y-99006999I0J-82000D01*
G01*
X222780000Y-99662999D01*
G75*
G02*
X222698000Y-99744999I-82000J0D01*
G01*
X221262000Y-99744999D01*
G75*
G02*
X221180000Y-99662999I0J82000D01*
G01*
X221180000Y-99006999D01*
G75*
G02*
X221262000Y-98924999I82000J0D01*
G01*
G37*
%TD.AperFunction*%
%TA.AperFunction,SMDPad,CuDef*%
G36*
G01*
X216062000Y-100424999D02*
X217498000Y-100424999D01*
G75*
G02*
X217580000Y-100506999I0J-82000D01*
G01*
X217580000Y-101162999D01*
G75*
G02*
X217498000Y-101244999I-82000J0D01*
G01*
X216062000Y-101244999D01*
G75*
G02*
X215980000Y-101162999I0J82000D01*
G01*
X215980000Y-100506999D01*
G75*
G02*
X216062000Y-100424999I82000J0D01*
G01*
G37*
%TD.AperFunction*%
%TA.AperFunction,SMDPad,CuDef*%
G36*
G01*
X216062000Y-98924999D02*
X217498000Y-98924999D01*
G75*
G02*
X217580000Y-99006999I0J-82000D01*
G01*
X217580000Y-99662999D01*
G75*
G02*
X217498000Y-99744999I-82000J0D01*
G01*
X216062000Y-99744999D01*
G75*
G02*
X215980000Y-99662999I0J82000D01*
G01*
X215980000Y-99006999D01*
G75*
G02*
X216062000Y-98924999I82000J0D01*
G01*
G37*
%TD.AperFunction*%
D18*
X224520000Y-121620000D03*
D19*
X224520000Y-126700000D03*
D18*
X214250000Y-126650000D03*
D19*
X214250000Y-121570000D03*
D18*
X187180000Y-111480000D03*
D19*
X192260000Y-111480000D03*
D18*
X179690000Y-111500000D03*
D19*
X184770000Y-111500000D03*
%TA.AperFunction,SMDPad,CuDef*%
G36*
G01*
X187262000Y-126499999D02*
X188698000Y-126499999D01*
G75*
G02*
X188780000Y-126581999I0J-82000D01*
G01*
X188780000Y-127237999D01*
G75*
G02*
X188698000Y-127319999I-82000J0D01*
G01*
X187262000Y-127319999D01*
G75*
G02*
X187180000Y-127237999I0J82000D01*
G01*
X187180000Y-126581999D01*
G75*
G02*
X187262000Y-126499999I82000J0D01*
G01*
G37*
%TD.AperFunction*%
%TA.AperFunction,SMDPad,CuDef*%
G36*
G01*
X187262000Y-124999999D02*
X188698000Y-124999999D01*
G75*
G02*
X188780000Y-125081999I0J-82000D01*
G01*
X188780000Y-125737999D01*
G75*
G02*
X188698000Y-125819999I-82000J0D01*
G01*
X187262000Y-125819999D01*
G75*
G02*
X187180000Y-125737999I0J82000D01*
G01*
X187180000Y-125081999D01*
G75*
G02*
X187262000Y-124999999I82000J0D01*
G01*
G37*
%TD.AperFunction*%
%TA.AperFunction,SMDPad,CuDef*%
G36*
G01*
X182062000Y-126499999D02*
X183498000Y-126499999D01*
G75*
G02*
X183580000Y-126581999I0J-82000D01*
G01*
X183580000Y-127237999D01*
G75*
G02*
X183498000Y-127319999I-82000J0D01*
G01*
X182062000Y-127319999D01*
G75*
G02*
X181980000Y-127237999I0J82000D01*
G01*
X181980000Y-126581999D01*
G75*
G02*
X182062000Y-126499999I82000J0D01*
G01*
G37*
%TD.AperFunction*%
%TA.AperFunction,SMDPad,CuDef*%
G36*
G01*
X182062000Y-124999999D02*
X183498000Y-124999999D01*
G75*
G02*
X183580000Y-125081999I0J-82000D01*
G01*
X183580000Y-125737999D01*
G75*
G02*
X183498000Y-125819999I-82000J0D01*
G01*
X182062000Y-125819999D01*
G75*
G02*
X181980000Y-125737999I0J82000D01*
G01*
X181980000Y-125081999D01*
G75*
G02*
X182062000Y-124999999I82000J0D01*
G01*
G37*
%TD.AperFunction*%
%TA.AperFunction,SMDPad,CuDef*%
G36*
G01*
X168212000Y-126499999D02*
X169648000Y-126499999D01*
G75*
G02*
X169730000Y-126581999I0J-82000D01*
G01*
X169730000Y-127237999D01*
G75*
G02*
X169648000Y-127319999I-82000J0D01*
G01*
X168212000Y-127319999D01*
G75*
G02*
X168130000Y-127237999I0J82000D01*
G01*
X168130000Y-126581999D01*
G75*
G02*
X168212000Y-126499999I82000J0D01*
G01*
G37*
%TD.AperFunction*%
%TA.AperFunction,SMDPad,CuDef*%
G36*
G01*
X168212000Y-124999999D02*
X169648000Y-124999999D01*
G75*
G02*
X169730000Y-125081999I0J-82000D01*
G01*
X169730000Y-125737999D01*
G75*
G02*
X169648000Y-125819999I-82000J0D01*
G01*
X168212000Y-125819999D01*
G75*
G02*
X168130000Y-125737999I0J82000D01*
G01*
X168130000Y-125081999D01*
G75*
G02*
X168212000Y-124999999I82000J0D01*
G01*
G37*
%TD.AperFunction*%
%TA.AperFunction,SMDPad,CuDef*%
G36*
G01*
X163012000Y-126499999D02*
X164448000Y-126499999D01*
G75*
G02*
X164530000Y-126581999I0J-82000D01*
G01*
X164530000Y-127237999D01*
G75*
G02*
X164448000Y-127319999I-82000J0D01*
G01*
X163012000Y-127319999D01*
G75*
G02*
X162930000Y-127237999I0J82000D01*
G01*
X162930000Y-126581999D01*
G75*
G02*
X163012000Y-126499999I82000J0D01*
G01*
G37*
%TD.AperFunction*%
%TA.AperFunction,SMDPad,CuDef*%
G36*
G01*
X163012000Y-124999999D02*
X164448000Y-124999999D01*
G75*
G02*
X164530000Y-125081999I0J-82000D01*
G01*
X164530000Y-125737999D01*
G75*
G02*
X164448000Y-125819999I-82000J0D01*
G01*
X163012000Y-125819999D01*
G75*
G02*
X162930000Y-125737999I0J82000D01*
G01*
X162930000Y-125081999D01*
G75*
G02*
X163012000Y-124999999I82000J0D01*
G01*
G37*
%TD.AperFunction*%
%TA.AperFunction,SMDPad,CuDef*%
G36*
G01*
X168212000Y-107449999D02*
X169648000Y-107449999D01*
G75*
G02*
X169730000Y-107531999I0J-82000D01*
G01*
X169730000Y-108187999D01*
G75*
G02*
X169648000Y-108269999I-82000J0D01*
G01*
X168212000Y-108269999D01*
G75*
G02*
X168130000Y-108187999I0J82000D01*
G01*
X168130000Y-107531999D01*
G75*
G02*
X168212000Y-107449999I82000J0D01*
G01*
G37*
%TD.AperFunction*%
%TA.AperFunction,SMDPad,CuDef*%
G36*
G01*
X168212000Y-105949999D02*
X169648000Y-105949999D01*
G75*
G02*
X169730000Y-106031999I0J-82000D01*
G01*
X169730000Y-106687999D01*
G75*
G02*
X169648000Y-106769999I-82000J0D01*
G01*
X168212000Y-106769999D01*
G75*
G02*
X168130000Y-106687999I0J82000D01*
G01*
X168130000Y-106031999D01*
G75*
G02*
X168212000Y-105949999I82000J0D01*
G01*
G37*
%TD.AperFunction*%
%TA.AperFunction,SMDPad,CuDef*%
G36*
G01*
X163012000Y-107449999D02*
X164448000Y-107449999D01*
G75*
G02*
X164530000Y-107531999I0J-82000D01*
G01*
X164530000Y-108187999D01*
G75*
G02*
X164448000Y-108269999I-82000J0D01*
G01*
X163012000Y-108269999D01*
G75*
G02*
X162930000Y-108187999I0J82000D01*
G01*
X162930000Y-107531999D01*
G75*
G02*
X163012000Y-107449999I82000J0D01*
G01*
G37*
%TD.AperFunction*%
%TA.AperFunction,SMDPad,CuDef*%
G36*
G01*
X163012000Y-105949999D02*
X164448000Y-105949999D01*
G75*
G02*
X164530000Y-106031999I0J-82000D01*
G01*
X164530000Y-106687999D01*
G75*
G02*
X164448000Y-106769999I-82000J0D01*
G01*
X163012000Y-106769999D01*
G75*
G02*
X162930000Y-106687999I0J82000D01*
G01*
X162930000Y-106031999D01*
G75*
G02*
X163012000Y-105949999I82000J0D01*
G01*
G37*
%TD.AperFunction*%
%TA.AperFunction,SMDPad,CuDef*%
G36*
G01*
X187262000Y-107449999D02*
X188698000Y-107449999D01*
G75*
G02*
X188780000Y-107531999I0J-82000D01*
G01*
X188780000Y-108187999D01*
G75*
G02*
X188698000Y-108269999I-82000J0D01*
G01*
X187262000Y-108269999D01*
G75*
G02*
X187180000Y-108187999I0J82000D01*
G01*
X187180000Y-107531999D01*
G75*
G02*
X187262000Y-107449999I82000J0D01*
G01*
G37*
%TD.AperFunction*%
%TA.AperFunction,SMDPad,CuDef*%
G36*
G01*
X187262000Y-105949999D02*
X188698000Y-105949999D01*
G75*
G02*
X188780000Y-106031999I0J-82000D01*
G01*
X188780000Y-106687999D01*
G75*
G02*
X188698000Y-106769999I-82000J0D01*
G01*
X187262000Y-106769999D01*
G75*
G02*
X187180000Y-106687999I0J82000D01*
G01*
X187180000Y-106031999D01*
G75*
G02*
X187262000Y-105949999I82000J0D01*
G01*
G37*
%TD.AperFunction*%
%TA.AperFunction,SMDPad,CuDef*%
G36*
G01*
X182062000Y-107449999D02*
X183498000Y-107449999D01*
G75*
G02*
X183580000Y-107531999I0J-82000D01*
G01*
X183580000Y-108187999D01*
G75*
G02*
X183498000Y-108269999I-82000J0D01*
G01*
X182062000Y-108269999D01*
G75*
G02*
X181980000Y-108187999I0J82000D01*
G01*
X181980000Y-107531999D01*
G75*
G02*
X182062000Y-107449999I82000J0D01*
G01*
G37*
%TD.AperFunction*%
%TA.AperFunction,SMDPad,CuDef*%
G36*
G01*
X182062000Y-105949999D02*
X183498000Y-105949999D01*
G75*
G02*
X183580000Y-106031999I0J-82000D01*
G01*
X183580000Y-106687999D01*
G75*
G02*
X183498000Y-106769999I-82000J0D01*
G01*
X182062000Y-106769999D01*
G75*
G02*
X181980000Y-106687999I0J82000D01*
G01*
X181980000Y-106031999D01*
G75*
G02*
X182062000Y-105949999I82000J0D01*
G01*
G37*
%TD.AperFunction*%
D20*
X159330000Y-112360000D03*
X160240000Y-125500000D03*
X171710000Y-112540000D03*
X171870000Y-123220000D03*
X193294000Y-126492000D03*
X191770000Y-106426000D03*
X236970000Y-112040000D03*
X219202000Y-126238000D03*
X218440000Y-116586000D03*
X181330001Y-106359999D03*
X216612227Y-98515010D03*
X189372631Y-104928360D03*
X216586000Y-129286000D03*
X216770000Y-121540000D03*
X165520000Y-111210000D03*
X158770000Y-99490000D03*
X177820000Y-99490000D03*
X191670000Y-96950000D03*
X158770000Y-118540000D03*
D21*
X164446442Y-104885029D02*
X163730000Y-105601471D01*
X163730000Y-105601471D02*
X163730000Y-106359999D01*
X171645028Y-104885029D02*
X164446442Y-104885029D01*
X173119999Y-106359999D02*
X171645028Y-104885029D01*
X164445001Y-119464001D02*
X164445001Y-115395001D01*
X163730000Y-120179002D02*
X164445001Y-119464001D01*
X163730000Y-125409999D02*
X163730000Y-120179002D01*
X164445001Y-115395001D02*
X161490000Y-112440000D01*
X161490000Y-107799999D02*
X162930000Y-106359999D01*
X162930000Y-106359999D02*
X163730000Y-106359999D01*
X161490000Y-112440000D02*
X161490000Y-107799999D01*
X181330001Y-106359999D02*
X173119999Y-106359999D01*
X182780000Y-106359999D02*
X181330001Y-106359999D01*
X173920001Y-125409999D02*
X182780000Y-125409999D01*
X161900000Y-128100000D02*
X162710000Y-128910000D01*
X163730000Y-125409999D02*
X162930000Y-125409999D01*
X162710000Y-128910000D02*
X170420000Y-128910000D01*
X161900000Y-126439999D02*
X161900000Y-128100000D01*
X162930000Y-125409999D02*
X161900000Y-126439999D01*
X170420000Y-128910000D02*
X173920001Y-125409999D01*
X216780000Y-99334999D02*
X216780000Y-98682783D01*
X216780000Y-98682783D02*
X216612227Y-98515010D01*
X194105000Y-102260000D02*
X191436640Y-104928360D01*
X191436640Y-104928360D02*
X189372631Y-104928360D01*
X181020000Y-126280000D02*
X181020000Y-127540000D01*
X181020000Y-127540000D02*
X182766000Y-129286000D01*
X181890001Y-125409999D02*
X181020000Y-126280000D01*
X182780000Y-125409999D02*
X181890001Y-125409999D01*
X216780000Y-121550000D02*
X216770000Y-121540000D01*
X216780000Y-122409999D02*
X216780000Y-121550000D01*
X182766000Y-129286000D02*
X216586000Y-129286000D01*
X222620000Y-97680000D02*
X217447237Y-97680000D01*
X217447237Y-97680000D02*
X216612227Y-98515010D01*
X226459999Y-101519999D02*
X222620000Y-97680000D01*
X226459999Y-122437834D02*
X226459999Y-101519999D01*
X219611833Y-129286000D02*
X226459999Y-122437834D01*
X216586000Y-129286000D02*
X219611833Y-129286000D01*
D22*
X196260000Y-99850002D02*
X196260000Y-99125000D01*
X195108703Y-101001299D02*
X196260000Y-99850002D01*
X190600000Y-103790000D02*
X193388701Y-101001299D01*
X189437986Y-103790000D02*
X190600000Y-103790000D01*
X193388701Y-101001299D02*
X195108703Y-101001299D01*
X187980000Y-105247986D02*
X189437986Y-103790000D01*
X187980000Y-106359999D02*
X187980000Y-105247986D01*
X182780000Y-107859999D02*
X172999999Y-107859999D01*
X171499999Y-106359999D02*
X168930000Y-106359999D01*
X172999999Y-107859999D02*
X171499999Y-106359999D01*
X168930000Y-118761002D02*
X168930000Y-125409999D01*
X163730000Y-113561002D02*
X168930000Y-118761002D01*
X163730000Y-107859999D02*
X163730000Y-113561002D01*
X187980000Y-124999999D02*
X187980000Y-125409999D01*
X163730000Y-126909999D02*
X163730000Y-127665631D01*
X186964941Y-123984940D02*
X187980000Y-124999999D01*
X174567228Y-123984940D02*
X186964941Y-123984940D01*
X164424358Y-128359989D02*
X170192179Y-128359989D01*
X163730000Y-127665631D02*
X164424358Y-128359989D01*
X170192179Y-128359989D02*
X174567228Y-123984940D01*
X222780000Y-122409999D02*
X221980000Y-122409999D01*
X223640000Y-124480000D02*
X223640000Y-123269999D01*
X223640000Y-123269999D02*
X222780000Y-122409999D01*
X219559001Y-128560999D02*
X223640000Y-124480000D01*
X216228998Y-128570000D02*
X216237999Y-128560999D01*
X183788089Y-128570000D02*
X216228998Y-128570000D01*
X216237999Y-128560999D02*
X219559001Y-128560999D01*
X182780000Y-127561911D02*
X183788089Y-128570000D01*
X182780000Y-126909999D02*
X182780000Y-127561911D01*
X222780000Y-99334999D02*
X223205001Y-99760000D01*
X221980000Y-99334999D02*
X222780000Y-99334999D01*
X215980000Y-123909999D02*
X215554999Y-123484998D01*
X215554999Y-123484998D02*
X215554999Y-114025001D01*
X216780000Y-123909999D02*
X215980000Y-123909999D01*
X223205001Y-106374999D02*
X223205001Y-105434999D01*
X215554999Y-114025001D02*
X223205001Y-106374999D01*
X223205001Y-99760000D02*
X223205001Y-105434999D01*
X194105000Y-107340000D02*
X191545000Y-109900000D01*
X186370000Y-109900000D02*
X184770000Y-111500000D01*
X191545000Y-109900000D02*
X186370000Y-109900000D01*
X195665000Y-107340000D02*
X194105000Y-107340000D01*
X196260000Y-106745000D02*
X195665000Y-107340000D01*
X194455000Y-109285000D02*
X192260000Y-111480000D01*
X196260000Y-109285000D02*
X194455000Y-109285000D01*
X192889501Y-114109499D02*
X195685002Y-116905000D01*
X179840501Y-114109499D02*
X192889501Y-114109499D01*
X195685002Y-116905000D02*
X196260000Y-116905000D01*
X176941002Y-111210000D02*
X179840501Y-114109499D01*
X165520000Y-111210000D02*
X176941002Y-111210000D01*
X173250001Y-97580001D02*
X172620000Y-96950000D01*
X178119999Y-97580001D02*
X173250001Y-97580001D01*
X181755001Y-93944999D02*
X178119999Y-97580001D01*
X193284999Y-93944999D02*
X181755001Y-93944999D01*
X195925000Y-96585000D02*
X193284999Y-93944999D01*
X196260000Y-96585000D02*
X195925000Y-96585000D01*
X172620000Y-117500000D02*
X172620000Y-116000000D01*
X178518901Y-123398901D02*
X172620000Y-117500000D01*
X194133901Y-123398901D02*
X178518901Y-123398901D01*
X195260000Y-124525000D02*
X194133901Y-123398901D01*
X196260000Y-124525000D02*
X195260000Y-124525000D01*
X179645001Y-116714999D02*
X177820000Y-118540000D01*
X182446001Y-116714999D02*
X179645001Y-116714999D01*
X184492101Y-118761099D02*
X182446001Y-116714999D01*
X192036099Y-118761099D02*
X184492101Y-118761099D01*
X195260000Y-121985000D02*
X192036099Y-118761099D01*
X196260000Y-121985000D02*
X195260000Y-121985000D01*
X195260000Y-119445000D02*
X191815000Y-116000000D01*
X191815000Y-116000000D02*
X191670000Y-116000000D01*
X196260000Y-119445000D02*
X195260000Y-119445000D01*
D23*
X197460001Y-95161703D02*
X197380480Y-95119198D01*
X197260782Y-95082888D01*
X197136300Y-95070628D01*
X195485430Y-95070628D01*
X193848803Y-93434002D01*
X193825000Y-93404998D01*
X193709275Y-93310025D01*
X193577246Y-93239453D01*
X193433985Y-93195996D01*
X193322332Y-93184999D01*
X193322321Y-93184999D01*
X193284999Y-93181323D01*
X193247677Y-93184999D01*
X181792323Y-93184999D01*
X181755000Y-93181323D01*
X181717677Y-93184999D01*
X181717668Y-93184999D01*
X181606015Y-93195996D01*
X181489002Y-93231491D01*
X181462754Y-93239453D01*
X181330724Y-93310025D01*
X181273498Y-93356990D01*
X181215000Y-93404998D01*
X181191202Y-93433996D01*
X177805198Y-96820001D01*
X177554320Y-96820001D01*
X177785226Y-96589095D01*
X178057179Y-96182089D01*
X178244503Y-95729848D01*
X178340000Y-95249751D01*
X178340000Y-94760249D01*
X178244503Y-94280152D01*
X178057179Y-93827911D01*
X177785226Y-93420905D01*
X177439095Y-93074774D01*
X177032089Y-92802821D01*
X176579848Y-92615497D01*
X176099751Y-92520000D01*
X175610249Y-92520000D01*
X175130152Y-92615497D01*
X174677911Y-92802821D01*
X174270905Y-93074774D01*
X173924774Y-93420905D01*
X173652821Y-93827911D01*
X173465497Y-94280152D01*
X173370000Y-94760249D01*
X173370000Y-95061928D01*
X171345000Y-95061928D01*
X171220518Y-95074188D01*
X171100820Y-95110498D01*
X170990506Y-95169463D01*
X170893815Y-95248815D01*
X170814463Y-95345506D01*
X170755498Y-95455820D01*
X170719188Y-95575518D01*
X170706928Y-95700000D01*
X170706928Y-95856259D01*
X170528363Y-95589017D01*
X170230983Y-95291637D01*
X169881302Y-95057988D01*
X169492756Y-94897047D01*
X169080279Y-94815000D01*
X168659721Y-94815000D01*
X168247244Y-94897047D01*
X167858698Y-95057988D01*
X167509017Y-95291637D01*
X167211637Y-95589017D01*
X166977988Y-95938698D01*
X166817047Y-96327244D01*
X166735000Y-96739721D01*
X166735000Y-97160279D01*
X166817047Y-97572756D01*
X166977988Y-97961302D01*
X167211637Y-98310983D01*
X167509017Y-98608363D01*
X167858698Y-98842012D01*
X168247244Y-99002953D01*
X168659721Y-99085000D01*
X169080279Y-99085000D01*
X169492756Y-99002953D01*
X169881302Y-98842012D01*
X170230983Y-98608363D01*
X170528363Y-98310983D01*
X170706928Y-98043741D01*
X170706928Y-98200000D01*
X170719188Y-98324482D01*
X170755498Y-98444180D01*
X170814463Y-98554494D01*
X170893815Y-98651185D01*
X170990506Y-98730537D01*
X171100820Y-98789502D01*
X171220518Y-98825812D01*
X171345000Y-98838072D01*
X173895000Y-98838072D01*
X174019482Y-98825812D01*
X174139180Y-98789502D01*
X174249494Y-98730537D01*
X174346185Y-98651185D01*
X174425537Y-98554494D01*
X174484502Y-98444180D01*
X174516104Y-98340001D01*
X175906928Y-98340001D01*
X175906928Y-100740000D01*
X175919188Y-100864482D01*
X175955498Y-100984180D01*
X176014463Y-101094494D01*
X176093815Y-101191185D01*
X176190506Y-101270537D01*
X176300820Y-101329502D01*
X176420518Y-101365812D01*
X176545000Y-101378072D01*
X178961710Y-101378072D01*
X178871202Y-101596579D01*
X178814100Y-101883652D01*
X178814100Y-102176348D01*
X178871202Y-102463421D01*
X178983212Y-102733838D01*
X179145826Y-102977206D01*
X179352794Y-103184174D01*
X179596162Y-103346788D01*
X179866579Y-103458798D01*
X180153652Y-103515900D01*
X180446348Y-103515900D01*
X180733421Y-103458798D01*
X181003838Y-103346788D01*
X181247206Y-103184174D01*
X181454174Y-102977206D01*
X181616788Y-102733838D01*
X181728798Y-102463421D01*
X181785900Y-102176348D01*
X181785900Y-101883652D01*
X181734451Y-101625000D01*
X181780279Y-101625000D01*
X182192756Y-101542953D01*
X182581302Y-101382012D01*
X182887708Y-101177279D01*
X182852127Y-101263178D01*
X182751100Y-101771076D01*
X182751100Y-102288924D01*
X182852127Y-102796822D01*
X183050299Y-103275251D01*
X183338000Y-103705826D01*
X183704174Y-104072000D01*
X184134749Y-104359701D01*
X184613178Y-104557873D01*
X185121076Y-104658900D01*
X185638924Y-104658900D01*
X186146822Y-104557873D01*
X186625251Y-104359701D01*
X187055826Y-104072000D01*
X187422000Y-103705826D01*
X187709701Y-103275251D01*
X187907873Y-102796822D01*
X188008900Y-102288924D01*
X188008900Y-101771076D01*
X187907873Y-101263178D01*
X187709701Y-100784749D01*
X187422000Y-100354174D01*
X187055826Y-99988000D01*
X186625251Y-99700299D01*
X186146822Y-99502127D01*
X185638924Y-99401100D01*
X185121076Y-99401100D01*
X184613178Y-99502127D01*
X184134749Y-99700299D01*
X183704174Y-99988000D01*
X183633763Y-100058411D01*
X183705000Y-99700279D01*
X183705000Y-99279721D01*
X183622953Y-98867244D01*
X183462012Y-98478698D01*
X183228363Y-98129017D01*
X182930983Y-97831637D01*
X182581302Y-97597988D01*
X182192756Y-97437047D01*
X181780279Y-97355000D01*
X181359721Y-97355000D01*
X180947244Y-97437047D01*
X180558698Y-97597988D01*
X180209017Y-97831637D01*
X179911637Y-98129017D01*
X179733072Y-98396259D01*
X179733072Y-98240000D01*
X179720812Y-98115518D01*
X179684502Y-97995820D01*
X179625537Y-97885506D01*
X179546185Y-97788815D01*
X179449494Y-97709463D01*
X179339180Y-97650498D01*
X179219482Y-97614188D01*
X179165891Y-97608910D01*
X180035080Y-96739721D01*
X185785000Y-96739721D01*
X185785000Y-97160279D01*
X185867047Y-97572756D01*
X186027988Y-97961302D01*
X186261637Y-98310983D01*
X186559017Y-98608363D01*
X186908698Y-98842012D01*
X187297244Y-99002953D01*
X187709721Y-99085000D01*
X188130279Y-99085000D01*
X188542756Y-99002953D01*
X188931302Y-98842012D01*
X189280983Y-98608363D01*
X189578363Y-98310983D01*
X189756928Y-98043741D01*
X189756928Y-98200000D01*
X189769188Y-98324482D01*
X189805498Y-98444180D01*
X189864463Y-98554494D01*
X189943815Y-98651185D01*
X190040506Y-98730537D01*
X190150820Y-98789502D01*
X190270518Y-98825812D01*
X190395000Y-98838072D01*
X192620073Y-98838072D01*
X192616928Y-98870000D01*
X192620000Y-99434250D01*
X192778750Y-99593000D01*
X193978000Y-99593000D01*
X193978000Y-98393750D01*
X193819250Y-98235000D01*
X193579753Y-98233696D01*
X193583072Y-98200000D01*
X193583072Y-95700000D01*
X193570812Y-95575518D01*
X193534502Y-95455820D01*
X193475537Y-95345506D01*
X193396185Y-95248815D01*
X193299494Y-95169463D01*
X193189180Y-95110498D01*
X193069482Y-95074188D01*
X192945000Y-95061928D01*
X190395000Y-95061928D01*
X190270518Y-95074188D01*
X190150820Y-95110498D01*
X190040506Y-95169463D01*
X189943815Y-95248815D01*
X189864463Y-95345506D01*
X189805498Y-95455820D01*
X189769188Y-95575518D01*
X189756928Y-95700000D01*
X189756928Y-95856259D01*
X189578363Y-95589017D01*
X189280983Y-95291637D01*
X188931302Y-95057988D01*
X188542756Y-94897047D01*
X188130279Y-94815000D01*
X187709721Y-94815000D01*
X187297244Y-94897047D01*
X186908698Y-95057988D01*
X186559017Y-95291637D01*
X186261637Y-95589017D01*
X186027988Y-95938698D01*
X185867047Y-96327244D01*
X185785000Y-96739721D01*
X180035080Y-96739721D01*
X182069803Y-94704999D01*
X192970198Y-94704999D01*
X194745628Y-96480430D01*
X194745628Y-97461300D01*
X194757888Y-97585782D01*
X194794198Y-97705480D01*
X194853163Y-97815794D01*
X194932515Y-97912485D01*
X195029206Y-97991837D01*
X195139520Y-98050802D01*
X195183542Y-98064156D01*
X195086096Y-98161602D01*
X195033913Y-98239700D01*
X194955000Y-98231928D01*
X194390750Y-98235000D01*
X194232000Y-98393750D01*
X194232000Y-99593000D01*
X194252000Y-99593000D01*
X194252000Y-99847000D01*
X194232000Y-99847000D01*
X194232000Y-99867000D01*
X193978000Y-99867000D01*
X193978000Y-99847000D01*
X192778750Y-99847000D01*
X192620000Y-100005750D01*
X192616928Y-100570000D01*
X192628428Y-100686770D01*
X191838954Y-101476244D01*
X191776788Y-101326162D01*
X191614174Y-101082794D01*
X191407206Y-100875826D01*
X191163838Y-100713212D01*
X190893421Y-100601202D01*
X190606348Y-100544100D01*
X190313652Y-100544100D01*
X190026579Y-100601202D01*
X189756162Y-100713212D01*
X189512794Y-100875826D01*
X189305826Y-101082794D01*
X189143212Y-101326162D01*
X189031202Y-101596579D01*
X188974100Y-101883652D01*
X188974100Y-102176348D01*
X189031202Y-102463421D01*
X189143212Y-102733838D01*
X189305826Y-102977206D01*
X189362389Y-103033769D01*
X189289000Y-103040997D01*
X189145739Y-103084454D01*
X189013710Y-103155026D01*
X188897985Y-103249999D01*
X188874187Y-103278997D01*
X187468998Y-104684187D01*
X187440000Y-104707985D01*
X187416202Y-104736983D01*
X187416201Y-104736984D01*
X187345026Y-104823710D01*
X187276200Y-104952474D01*
X187251681Y-104937566D01*
X187195720Y-104910634D01*
X187140181Y-104882942D01*
X187131223Y-104879592D01*
X187039584Y-104846055D01*
X186979470Y-104830508D01*
X186919587Y-104814125D01*
X186910149Y-104812579D01*
X186813742Y-104797481D01*
X186751759Y-104793906D01*
X186689836Y-104789467D01*
X186680277Y-104789783D01*
X186582771Y-104793699D01*
X186521312Y-104802226D01*
X186459667Y-104809904D01*
X186450352Y-104812071D01*
X186355465Y-104834850D01*
X186296778Y-104855171D01*
X186237854Y-104874658D01*
X186229137Y-104878593D01*
X186140482Y-104919368D01*
X186128237Y-104925000D01*
X184629868Y-104925000D01*
X184620736Y-104919579D01*
X184612046Y-104915584D01*
X184523104Y-104875437D01*
X184464281Y-104855533D01*
X184405771Y-104834821D01*
X184396471Y-104832589D01*
X184396468Y-104832588D01*
X184396465Y-104832588D01*
X184301426Y-104810482D01*
X184239863Y-104802384D01*
X184178436Y-104793429D01*
X184168879Y-104793046D01*
X184071349Y-104789821D01*
X184009396Y-104793834D01*
X183947389Y-104796982D01*
X183937940Y-104798463D01*
X183841642Y-104814243D01*
X183781666Y-104830209D01*
X183721435Y-104845344D01*
X183712453Y-104848632D01*
X183621054Y-104882816D01*
X183565316Y-104910129D01*
X183509174Y-104936675D01*
X183501002Y-104941644D01*
X183417983Y-104992930D01*
X183368590Y-105030567D01*
X183318697Y-105067494D01*
X183311646Y-105073956D01*
X183240170Y-105140390D01*
X183199053Y-105186874D01*
X183157258Y-105232816D01*
X183151597Y-105240525D01*
X183099922Y-105311927D01*
X182062000Y-105311927D01*
X181921521Y-105325763D01*
X181786440Y-105366739D01*
X181721039Y-105401696D01*
X181631899Y-105364773D01*
X181431940Y-105324999D01*
X181228062Y-105324999D01*
X181028103Y-105364773D01*
X180839745Y-105442794D01*
X180754131Y-105499999D01*
X173476222Y-105499999D01*
X172283016Y-104306794D01*
X172256082Y-104273975D01*
X172125130Y-104166505D01*
X171975728Y-104086648D01*
X171813617Y-104037473D01*
X171687274Y-104025029D01*
X171687267Y-104025029D01*
X171645028Y-104020869D01*
X171602789Y-104025029D01*
X168052797Y-104025029D01*
X168372000Y-103705826D01*
X168659701Y-103275251D01*
X168857873Y-102796822D01*
X168958900Y-102288924D01*
X168958900Y-101883652D01*
X169924100Y-101883652D01*
X169924100Y-102176348D01*
X169981202Y-102463421D01*
X170093212Y-102733838D01*
X170255826Y-102977206D01*
X170462794Y-103184174D01*
X170706162Y-103346788D01*
X170976579Y-103458798D01*
X171263652Y-103515900D01*
X171556348Y-103515900D01*
X171843421Y-103458798D01*
X172113838Y-103346788D01*
X172357206Y-103184174D01*
X172564174Y-102977206D01*
X172726788Y-102733838D01*
X172838798Y-102463421D01*
X172895900Y-102176348D01*
X172895900Y-101883652D01*
X172838798Y-101596579D01*
X172726788Y-101326162D01*
X172564174Y-101082794D01*
X172357206Y-100875826D01*
X172113838Y-100713212D01*
X171843421Y-100601202D01*
X171556348Y-100544100D01*
X171263652Y-100544100D01*
X170976579Y-100601202D01*
X170706162Y-100713212D01*
X170462794Y-100875826D01*
X170255826Y-101082794D01*
X170093212Y-101326162D01*
X169981202Y-101596579D01*
X169924100Y-101883652D01*
X168958900Y-101883652D01*
X168958900Y-101771076D01*
X168857873Y-101263178D01*
X168659701Y-100784749D01*
X168372000Y-100354174D01*
X168005826Y-99988000D01*
X167575251Y-99700299D01*
X167096822Y-99502127D01*
X166588924Y-99401100D01*
X166071076Y-99401100D01*
X165563178Y-99502127D01*
X165084749Y-99700299D01*
X164654174Y-99988000D01*
X164583763Y-100058411D01*
X164655000Y-99700279D01*
X164655000Y-99279721D01*
X164572953Y-98867244D01*
X164412012Y-98478698D01*
X164178363Y-98129017D01*
X163880983Y-97831637D01*
X163531302Y-97597988D01*
X163142756Y-97437047D01*
X162730279Y-97355000D01*
X162309721Y-97355000D01*
X161897244Y-97437047D01*
X161508698Y-97597988D01*
X161159017Y-97831637D01*
X160861637Y-98129017D01*
X160683072Y-98396259D01*
X160683072Y-98240000D01*
X160670812Y-98115518D01*
X160634502Y-97995820D01*
X160575537Y-97885506D01*
X160496185Y-97788815D01*
X160399494Y-97709463D01*
X160289180Y-97650498D01*
X160169482Y-97614188D01*
X160045000Y-97601928D01*
X157495000Y-97601928D01*
X157370518Y-97614188D01*
X157250820Y-97650498D01*
X157140506Y-97709463D01*
X157043815Y-97788815D01*
X156964463Y-97885506D01*
X156905498Y-97995820D01*
X156869188Y-98115518D01*
X156856928Y-98240000D01*
X156856928Y-100740000D01*
X156869188Y-100864482D01*
X156905498Y-100984180D01*
X156964463Y-101094494D01*
X157043815Y-101191185D01*
X157140506Y-101270537D01*
X157250820Y-101329502D01*
X157370518Y-101365812D01*
X157495000Y-101378072D01*
X159911710Y-101378072D01*
X159821202Y-101596579D01*
X159764100Y-101883652D01*
X159764100Y-102176348D01*
X159821202Y-102463421D01*
X159933212Y-102733838D01*
X160095826Y-102977206D01*
X160302794Y-103184174D01*
X160546162Y-103346788D01*
X160816579Y-103458798D01*
X161103652Y-103515900D01*
X161396348Y-103515900D01*
X161683421Y-103458798D01*
X161953838Y-103346788D01*
X162197206Y-103184174D01*
X162404174Y-102977206D01*
X162566788Y-102733838D01*
X162678798Y-102463421D01*
X162735900Y-102176348D01*
X162735900Y-101883652D01*
X162684451Y-101625000D01*
X162730279Y-101625000D01*
X163142756Y-101542953D01*
X163531302Y-101382012D01*
X163837708Y-101177279D01*
X163802127Y-101263178D01*
X163701100Y-101771076D01*
X163701100Y-102288924D01*
X163802127Y-102796822D01*
X164000299Y-103275251D01*
X164288000Y-103705826D01*
X164607203Y-104025029D01*
X164488681Y-104025029D01*
X164446442Y-104020869D01*
X164404203Y-104025029D01*
X164404196Y-104025029D01*
X164293417Y-104035940D01*
X164277852Y-104037473D01*
X164228677Y-104052390D01*
X164115742Y-104086648D01*
X163966340Y-104166505D01*
X163835388Y-104273975D01*
X163808458Y-104306789D01*
X163151764Y-104963483D01*
X163118946Y-104990417D01*
X163011476Y-105121370D01*
X162931619Y-105270772D01*
X162916275Y-105321355D01*
X162871521Y-105325763D01*
X162736440Y-105366739D01*
X162611949Y-105433281D01*
X162502832Y-105522831D01*
X162413282Y-105631948D01*
X162375596Y-105702453D01*
X162318946Y-105748945D01*
X162292017Y-105781759D01*
X160911760Y-107162016D01*
X160878947Y-107188945D01*
X160852018Y-107221758D01*
X160852016Y-107221760D01*
X160771477Y-107319897D01*
X160691620Y-107469299D01*
X160642444Y-107631410D01*
X160625840Y-107799999D01*
X160630001Y-107842248D01*
X160630000Y-112397761D01*
X160625840Y-112440000D01*
X160630000Y-112482239D01*
X160630000Y-112482245D01*
X160642444Y-112608588D01*
X160691619Y-112770699D01*
X160771476Y-112920101D01*
X160878946Y-113051054D01*
X160911765Y-113077988D01*
X163585002Y-115751225D01*
X163585002Y-116683869D01*
X163531302Y-116647988D01*
X163142756Y-116487047D01*
X162730279Y-116405000D01*
X162309721Y-116405000D01*
X161897244Y-116487047D01*
X161508698Y-116647988D01*
X161159017Y-116881637D01*
X160861637Y-117179017D01*
X160683072Y-117446259D01*
X160683072Y-117290000D01*
X160670812Y-117165518D01*
X160634502Y-117045820D01*
X160575537Y-116935506D01*
X160496185Y-116838815D01*
X160399494Y-116759463D01*
X160289180Y-116700498D01*
X160169482Y-116664188D01*
X160045000Y-116651928D01*
X157495000Y-116651928D01*
X157370518Y-116664188D01*
X157250820Y-116700498D01*
X157140506Y-116759463D01*
X157043815Y-116838815D01*
X156964463Y-116935506D01*
X156905498Y-117045820D01*
X156869188Y-117165518D01*
X156856928Y-117290000D01*
X156856928Y-119790000D01*
X156869188Y-119914482D01*
X156905498Y-120034180D01*
X156964463Y-120144494D01*
X157043815Y-120241185D01*
X157140506Y-120320537D01*
X157250820Y-120379502D01*
X157370518Y-120415812D01*
X157495000Y-120428072D01*
X159911710Y-120428072D01*
X159821202Y-120646579D01*
X159764100Y-120933652D01*
X159764100Y-121226348D01*
X159821202Y-121513421D01*
X159933212Y-121783838D01*
X160095826Y-122027206D01*
X160302794Y-122234174D01*
X160546162Y-122396788D01*
X160816579Y-122508798D01*
X161103652Y-122565900D01*
X161396348Y-122565900D01*
X161683421Y-122508798D01*
X161953838Y-122396788D01*
X162197206Y-122234174D01*
X162404174Y-122027206D01*
X162566788Y-121783838D01*
X162678798Y-121513421D01*
X162735900Y-121226348D01*
X162735900Y-120933652D01*
X162684451Y-120675000D01*
X162730279Y-120675000D01*
X162870001Y-120647208D01*
X162870000Y-124376224D01*
X162736440Y-124416739D01*
X162611949Y-124483281D01*
X162502832Y-124572831D01*
X162413282Y-124681948D01*
X162375596Y-124752453D01*
X162355031Y-124769331D01*
X162318946Y-124798945D01*
X162292016Y-124831759D01*
X161321765Y-125802011D01*
X161288946Y-125828945D01*
X161181476Y-125959898D01*
X161101619Y-126109300D01*
X161069795Y-126214213D01*
X161057174Y-126255819D01*
X161052444Y-126271411D01*
X161040000Y-126397754D01*
X161040000Y-126397760D01*
X161035840Y-126439999D01*
X161040000Y-126482238D01*
X161040001Y-128057752D01*
X161035840Y-128100000D01*
X161052444Y-128268589D01*
X161101620Y-128430700D01*
X161181477Y-128580102D01*
X161259914Y-128675677D01*
X161288947Y-128711054D01*
X161321760Y-128737983D01*
X162072016Y-129488240D01*
X162098946Y-129521054D01*
X162229898Y-129628524D01*
X162379300Y-129708381D01*
X162492235Y-129742639D01*
X162541410Y-129757556D01*
X162556975Y-129759089D01*
X162667754Y-129770000D01*
X162667761Y-129770000D01*
X162710000Y-129774160D01*
X162752239Y-129770000D01*
X170377761Y-129770000D01*
X170420000Y-129774160D01*
X170462239Y-129770000D01*
X170462246Y-129770000D01*
X170588589Y-129757556D01*
X170750700Y-129708381D01*
X170900102Y-129628524D01*
X171031054Y-129521054D01*
X171057988Y-129488235D01*
X173722309Y-126823914D01*
X173652821Y-126927911D01*
X173465497Y-127380152D01*
X173370000Y-127860249D01*
X173370000Y-128349751D01*
X173465497Y-128829848D01*
X173652821Y-129282089D01*
X173924774Y-129689095D01*
X174270905Y-130035226D01*
X174677911Y-130307179D01*
X175130152Y-130494503D01*
X175610249Y-130590000D01*
X176099751Y-130590000D01*
X176579848Y-130494503D01*
X177032089Y-130307179D01*
X177439095Y-130035226D01*
X177785226Y-129689095D01*
X178057179Y-129282089D01*
X178244503Y-128829848D01*
X178340000Y-128349751D01*
X178340000Y-127860249D01*
X178244503Y-127380152D01*
X178057179Y-126927911D01*
X177785226Y-126520905D01*
X177534320Y-126269999D01*
X180156825Y-126269999D01*
X180155840Y-126280000D01*
X180160000Y-126322239D01*
X180160001Y-127497752D01*
X180155840Y-127540000D01*
X180172444Y-127708589D01*
X180221620Y-127870700D01*
X180301477Y-128020102D01*
X180371182Y-128105037D01*
X180408947Y-128151054D01*
X180441760Y-128177983D01*
X182128017Y-129864241D01*
X182154946Y-129897054D01*
X182285898Y-130004524D01*
X182435300Y-130084381D01*
X182538629Y-130115725D01*
X182597410Y-130133556D01*
X182612975Y-130135089D01*
X182723754Y-130146000D01*
X182723761Y-130146000D01*
X182766000Y-130150160D01*
X182808239Y-130146000D01*
X216010130Y-130146000D01*
X216095744Y-130203205D01*
X216284102Y-130281226D01*
X216484061Y-130321000D01*
X216687939Y-130321000D01*
X216887898Y-130281226D01*
X217076256Y-130203205D01*
X217161870Y-130146000D01*
X219569594Y-130146000D01*
X219611833Y-130150160D01*
X219654072Y-130146000D01*
X219654079Y-130146000D01*
X219780422Y-130133556D01*
X219942533Y-130084381D01*
X220091935Y-130004524D01*
X220222887Y-129897054D01*
X220249821Y-129864235D01*
X222492787Y-127621269D01*
X223778336Y-127621269D01*
X223837797Y-127855037D01*
X224076242Y-127965934D01*
X224331740Y-128028183D01*
X224594473Y-128039390D01*
X224854344Y-127999125D01*
X225101366Y-127908935D01*
X225202203Y-127855037D01*
X225261664Y-127621269D01*
X224520000Y-126879605D01*
X223778336Y-127621269D01*
X222492787Y-127621269D01*
X223201937Y-126912119D01*
X223220875Y-127034344D01*
X223311065Y-127281366D01*
X223364963Y-127382203D01*
X223598731Y-127441664D01*
X224340395Y-126700000D01*
X224326253Y-126685858D01*
X224505858Y-126506253D01*
X224520000Y-126520395D01*
X224534143Y-126506253D01*
X224713748Y-126685858D01*
X224699605Y-126700000D01*
X225441269Y-127441664D01*
X225675037Y-127382203D01*
X225726285Y-127272012D01*
X225795905Y-127341632D01*
X226202911Y-127613585D01*
X226655152Y-127800909D01*
X227135249Y-127896406D01*
X227624751Y-127896406D01*
X228104848Y-127800909D01*
X228557089Y-127613585D01*
X228964095Y-127341632D01*
X229310226Y-126995501D01*
X229582179Y-126588495D01*
X229769503Y-126136254D01*
X229865000Y-125656157D01*
X229865000Y-125166655D01*
X229769503Y-124686558D01*
X229582179Y-124234317D01*
X229310226Y-123827311D01*
X228964095Y-123481180D01*
X228557089Y-123209227D01*
X228104848Y-123021903D01*
X227624751Y-122926406D01*
X227171572Y-122926406D01*
X227178523Y-122917936D01*
X227258380Y-122768534D01*
X227301389Y-122626750D01*
X227307555Y-122606424D01*
X227310792Y-122573561D01*
X227319999Y-122480080D01*
X227319999Y-122480074D01*
X227324159Y-122437835D01*
X227319999Y-122395596D01*
X227319999Y-101562245D01*
X227324160Y-101519999D01*
X227307555Y-101351409D01*
X227258380Y-101189298D01*
X227219868Y-101117249D01*
X227178523Y-101039897D01*
X227071053Y-100908945D01*
X227038240Y-100882016D01*
X223610067Y-97453843D01*
X224895000Y-97453843D01*
X224895000Y-97943345D01*
X224990497Y-98423442D01*
X225177821Y-98875683D01*
X225449774Y-99282689D01*
X225795905Y-99628820D01*
X226202911Y-99900773D01*
X226655152Y-100088097D01*
X227135249Y-100183594D01*
X227624751Y-100183594D01*
X228104848Y-100088097D01*
X228557089Y-99900773D01*
X228964095Y-99628820D01*
X229310226Y-99282689D01*
X229582179Y-98875683D01*
X229769503Y-98423442D01*
X229865000Y-97943345D01*
X229865000Y-97453843D01*
X229769503Y-96973746D01*
X229582179Y-96521505D01*
X229310226Y-96114499D01*
X228964095Y-95768368D01*
X228557089Y-95496415D01*
X228104848Y-95309091D01*
X227624751Y-95213594D01*
X227135249Y-95213594D01*
X226655152Y-95309091D01*
X226202911Y-95496415D01*
X225795905Y-95768368D01*
X225449774Y-96114499D01*
X225177821Y-96521505D01*
X224990497Y-96973746D01*
X224895000Y-97453843D01*
X223610067Y-97453843D01*
X223257988Y-97101765D01*
X223231054Y-97068946D01*
X223100102Y-96961476D01*
X222950700Y-96881619D01*
X222788589Y-96832444D01*
X222662246Y-96820000D01*
X222662239Y-96820000D01*
X222620000Y-96815840D01*
X222577761Y-96820000D01*
X217489475Y-96820000D01*
X217447236Y-96815840D01*
X217404997Y-96820000D01*
X217404991Y-96820000D01*
X217309775Y-96829378D01*
X217278646Y-96832444D01*
X217203187Y-96855335D01*
X217116537Y-96881619D01*
X216967135Y-96961476D01*
X216836183Y-97068946D01*
X216809249Y-97101765D01*
X216411318Y-97499696D01*
X216310329Y-97519784D01*
X216121971Y-97597805D01*
X215952453Y-97711073D01*
X215808290Y-97855236D01*
X215695022Y-98024754D01*
X215617001Y-98213112D01*
X215577227Y-98413071D01*
X215577227Y-98477811D01*
X215552832Y-98497831D01*
X215463282Y-98606948D01*
X215396740Y-98731439D01*
X215355764Y-98866520D01*
X215341928Y-99006999D01*
X215341928Y-99662999D01*
X215355764Y-99803478D01*
X215396740Y-99938559D01*
X215463282Y-100063050D01*
X215481295Y-100084999D01*
X215463282Y-100106948D01*
X215396740Y-100231439D01*
X215355764Y-100366520D01*
X215341928Y-100506999D01*
X215341928Y-101162999D01*
X215355764Y-101303478D01*
X215396740Y-101438559D01*
X215463282Y-101563050D01*
X215552832Y-101672167D01*
X215661949Y-101761717D01*
X215786440Y-101828259D01*
X215921521Y-101869235D01*
X216062000Y-101883071D01*
X217099542Y-101883071D01*
X217156806Y-101961029D01*
X217198256Y-102007226D01*
X217239081Y-102054026D01*
X217246087Y-102060537D01*
X217318032Y-102126464D01*
X217367663Y-102163729D01*
X217416800Y-102201707D01*
X217424937Y-102206733D01*
X217508316Y-102257430D01*
X217564274Y-102284362D01*
X217619825Y-102312059D01*
X217628784Y-102315409D01*
X217720423Y-102348945D01*
X217780583Y-102364504D01*
X217840407Y-102380871D01*
X217849846Y-102382417D01*
X217849853Y-102382419D01*
X217849861Y-102382419D01*
X217946253Y-102397516D01*
X218008231Y-102401091D01*
X218070166Y-102405531D01*
X218079725Y-102405214D01*
X218177230Y-102401299D01*
X218238698Y-102392770D01*
X218300333Y-102385094D01*
X218309648Y-102382927D01*
X218404535Y-102360148D01*
X218463223Y-102339826D01*
X218522152Y-102320338D01*
X218530869Y-102316402D01*
X218619202Y-102275774D01*
X218619519Y-102275631D01*
X218631764Y-102269999D01*
X220130132Y-102269999D01*
X220139264Y-102275420D01*
X220147954Y-102279415D01*
X220236896Y-102319562D01*
X220295712Y-102339463D01*
X220354230Y-102360178D01*
X220363527Y-102362409D01*
X220363532Y-102362411D01*
X220363537Y-102362412D01*
X220458576Y-102384517D01*
X220520125Y-102392613D01*
X220581565Y-102401570D01*
X220591122Y-102401953D01*
X220688651Y-102405178D01*
X220750616Y-102401164D01*
X220812619Y-102398016D01*
X220822068Y-102396535D01*
X220918366Y-102380754D01*
X220978362Y-102364783D01*
X221038566Y-102349654D01*
X221047547Y-102346366D01*
X221047556Y-102346363D01*
X221047559Y-102346361D01*
X221138947Y-102312182D01*
X221194686Y-102284868D01*
X221250827Y-102258323D01*
X221258999Y-102253354D01*
X221342018Y-102202068D01*
X221391429Y-102164418D01*
X221441308Y-102127501D01*
X221448359Y-102121039D01*
X221519835Y-102054604D01*
X221560960Y-102008110D01*
X221602740Y-101962184D01*
X221608402Y-101954475D01*
X221662164Y-101880191D01*
X221694250Y-101879999D01*
X221853000Y-101721249D01*
X221853000Y-101361460D01*
X221858234Y-101327230D01*
X221858683Y-101317677D01*
X221862588Y-101220172D01*
X221859008Y-101158208D01*
X221856292Y-101096166D01*
X221854878Y-101086707D01*
X221853000Y-101074724D01*
X221853000Y-100961999D01*
X221833000Y-100961999D01*
X221833000Y-100707999D01*
X221853000Y-100707999D01*
X221853000Y-100687999D01*
X222107000Y-100687999D01*
X222107000Y-100707999D01*
X222127000Y-100707999D01*
X222127000Y-100961999D01*
X222107000Y-100961999D01*
X222107000Y-101721249D01*
X222265750Y-101879999D01*
X222445001Y-101881070D01*
X222445002Y-103019320D01*
X222356912Y-102982832D01*
X222041033Y-102920000D01*
X221718967Y-102920000D01*
X221403088Y-102982832D01*
X221105537Y-103106082D01*
X220837748Y-103285013D01*
X220610013Y-103512748D01*
X220431082Y-103780537D01*
X220307832Y-104078088D01*
X220245000Y-104393967D01*
X220245000Y-104716033D01*
X220307832Y-105031912D01*
X220431082Y-105329463D01*
X220610013Y-105597252D01*
X220837748Y-105824987D01*
X221105537Y-106003918D01*
X221403088Y-106127168D01*
X221718967Y-106190000D01*
X222041033Y-106190000D01*
X222356912Y-106127168D01*
X222392963Y-106112235D01*
X215418072Y-113087127D01*
X215418072Y-109955000D01*
X215405812Y-109830518D01*
X215369502Y-109710820D01*
X215310537Y-109600506D01*
X215231185Y-109503815D01*
X215134494Y-109424463D01*
X215024180Y-109365498D01*
X214904482Y-109329188D01*
X214780000Y-109316928D01*
X213011300Y-109316928D01*
X213011300Y-109136150D01*
X212953222Y-108844170D01*
X212839297Y-108569131D01*
X212673904Y-108321602D01*
X212463398Y-108111096D01*
X212319580Y-108015000D01*
X212463398Y-107918904D01*
X212673904Y-107708398D01*
X212839297Y-107460869D01*
X212953222Y-107185830D01*
X213011300Y-106893850D01*
X213011300Y-106596150D01*
X212953222Y-106304170D01*
X212839297Y-106029131D01*
X212673904Y-105781602D01*
X212463398Y-105571096D01*
X212319580Y-105475000D01*
X212463398Y-105378904D01*
X212673904Y-105168398D01*
X212839297Y-104920869D01*
X212953222Y-104645830D01*
X213003320Y-104393967D01*
X215245000Y-104393967D01*
X215245000Y-104716033D01*
X215307832Y-105031912D01*
X215431082Y-105329463D01*
X215610013Y-105597252D01*
X215837748Y-105824987D01*
X216105537Y-106003918D01*
X216403088Y-106127168D01*
X216718967Y-106190000D01*
X217041033Y-106190000D01*
X217356912Y-106127168D01*
X217654463Y-106003918D01*
X217922252Y-105824987D01*
X218149987Y-105597252D01*
X218328918Y-105329463D01*
X218452168Y-105031912D01*
X218515000Y-104716033D01*
X218515000Y-104393967D01*
X218452168Y-104078088D01*
X218328918Y-103780537D01*
X218149987Y-103512748D01*
X217922252Y-103285013D01*
X217654463Y-103106082D01*
X217356912Y-102982832D01*
X217041033Y-102920000D01*
X216718967Y-102920000D01*
X216403088Y-102982832D01*
X216105537Y-103106082D01*
X215837748Y-103285013D01*
X215610013Y-103512748D01*
X215431082Y-103780537D01*
X215307832Y-104078088D01*
X215245000Y-104393967D01*
X213003320Y-104393967D01*
X213011300Y-104353850D01*
X213011300Y-104056150D01*
X212953222Y-103764170D01*
X212839297Y-103489131D01*
X212673904Y-103241602D01*
X212463398Y-103031096D01*
X212319580Y-102935000D01*
X212463398Y-102838904D01*
X212673904Y-102628398D01*
X212839297Y-102380869D01*
X212953222Y-102105830D01*
X213011300Y-101813850D01*
X213011300Y-101516150D01*
X212953222Y-101224170D01*
X212839297Y-100949131D01*
X212673904Y-100701602D01*
X212463398Y-100491096D01*
X212300191Y-100382045D01*
X212367563Y-100172169D01*
X211500000Y-99304605D01*
X210632437Y-100172169D01*
X210699809Y-100382045D01*
X210536602Y-100491096D01*
X210350000Y-100677698D01*
X210350000Y-99959553D01*
X210452831Y-99992563D01*
X211320395Y-99125000D01*
X211679605Y-99125000D01*
X212547169Y-99992563D01*
X212798929Y-99911746D01*
X212927457Y-99643221D01*
X213001129Y-99354781D01*
X213017113Y-99057509D01*
X212974796Y-98762833D01*
X212875802Y-98482073D01*
X212798929Y-98338254D01*
X212547169Y-98257437D01*
X211679605Y-99125000D01*
X211320395Y-99125000D01*
X210452831Y-98257437D01*
X210350000Y-98290447D01*
X210350000Y-97572302D01*
X210536602Y-97758904D01*
X210699809Y-97867955D01*
X210632437Y-98077831D01*
X211500000Y-98945395D01*
X212367563Y-98077831D01*
X212300191Y-97867955D01*
X212463398Y-97758904D01*
X212673904Y-97548398D01*
X212839297Y-97300869D01*
X212953222Y-97025830D01*
X213011300Y-96733850D01*
X213011300Y-96436150D01*
X212953222Y-96144170D01*
X212839297Y-95869131D01*
X212673904Y-95621602D01*
X212463398Y-95411096D01*
X212215869Y-95245703D01*
X211940830Y-95131778D01*
X211648850Y-95073700D01*
X211351150Y-95073700D01*
X211059170Y-95131778D01*
X210784131Y-95245703D01*
X210536602Y-95411096D01*
X210350000Y-95597698D01*
X210350000Y-94720000D01*
X213461928Y-94720000D01*
X213474188Y-94844482D01*
X213510498Y-94964180D01*
X213569463Y-95074494D01*
X213648815Y-95171185D01*
X213745506Y-95250537D01*
X213855820Y-95309502D01*
X213975518Y-95345812D01*
X214100000Y-95358072D01*
X214664250Y-95355000D01*
X214823000Y-95196250D01*
X214823000Y-93997000D01*
X213623750Y-93997000D01*
X213465000Y-94155750D01*
X213461928Y-94720000D01*
X210350000Y-94720000D01*
X210350000Y-93020000D01*
X213461928Y-93020000D01*
X213465000Y-93584250D01*
X213623750Y-93743000D01*
X214823000Y-93743000D01*
X214823000Y-92543750D01*
X215077000Y-92543750D01*
X215077000Y-93743000D01*
X215097000Y-93743000D01*
X215097000Y-93997000D01*
X215077000Y-93997000D01*
X215077000Y-95196250D01*
X215235750Y-95355000D01*
X215800000Y-95358072D01*
X215924482Y-95345812D01*
X216044180Y-95309502D01*
X216154494Y-95250537D01*
X216251185Y-95171185D01*
X216330537Y-95074494D01*
X216389502Y-94964180D01*
X216411513Y-94891620D01*
X216543368Y-95023475D01*
X216786589Y-95185990D01*
X217056842Y-95297932D01*
X217343740Y-95355000D01*
X217636260Y-95355000D01*
X217923158Y-95297932D01*
X218193411Y-95185990D01*
X218436632Y-95023475D01*
X218643475Y-94816632D01*
X218805990Y-94573411D01*
X218917932Y-94303158D01*
X218975000Y-94016260D01*
X218975000Y-93723740D01*
X218917932Y-93436842D01*
X218805990Y-93166589D01*
X218643475Y-92923368D01*
X218436632Y-92716525D01*
X218193411Y-92554010D01*
X217923158Y-92442068D01*
X217636260Y-92385000D01*
X217343740Y-92385000D01*
X217056842Y-92442068D01*
X216786589Y-92554010D01*
X216543368Y-92716525D01*
X216411513Y-92848380D01*
X216389502Y-92775820D01*
X216330537Y-92665506D01*
X216251185Y-92568815D01*
X216154494Y-92489463D01*
X216044180Y-92430498D01*
X215924482Y-92394188D01*
X215800000Y-92381928D01*
X215235750Y-92385000D01*
X215077000Y-92543750D01*
X214823000Y-92543750D01*
X214664250Y-92385000D01*
X214100000Y-92381928D01*
X213975518Y-92394188D01*
X213855820Y-92430498D01*
X213745506Y-92489463D01*
X213648815Y-92568815D01*
X213569463Y-92665506D01*
X213510498Y-92775820D01*
X213474188Y-92895518D01*
X213461928Y-93020000D01*
X210350000Y-93020000D01*
X210350000Y-92220000D01*
X219365321Y-92220000D01*
X221098706Y-92297197D01*
X222803819Y-92526222D01*
X224481811Y-92905913D01*
X226119415Y-93433267D01*
X227703645Y-94104102D01*
X229221976Y-94913112D01*
X230662394Y-95853901D01*
X232013458Y-96918994D01*
X233264504Y-98099984D01*
X234405606Y-99387499D01*
X235427747Y-100771366D01*
X236322816Y-102240608D01*
X237083738Y-103783603D01*
X237704480Y-105388128D01*
X238180136Y-107041486D01*
X238506933Y-108730582D01*
X238682287Y-110442044D01*
X238704806Y-112162299D01*
X238574313Y-113877773D01*
X238291845Y-115574833D01*
X237859634Y-117240073D01*
X237281099Y-118860310D01*
X236560832Y-120422692D01*
X235704526Y-121914864D01*
X234718970Y-123325002D01*
X233611950Y-124641960D01*
X232392253Y-125855287D01*
X231069527Y-126955386D01*
X229654243Y-127933549D01*
X228157614Y-128782025D01*
X226591472Y-129494108D01*
X224968237Y-130064147D01*
X223300765Y-130487631D01*
X221602234Y-130761212D01*
X219875748Y-130883454D01*
X219375715Y-130890000D01*
X156837279Y-130890000D01*
X156739576Y-130880420D01*
X156676643Y-130861420D01*
X156618594Y-130830554D01*
X156567657Y-130789011D01*
X156525752Y-130738356D01*
X156494485Y-130680529D01*
X156475044Y-130617728D01*
X156465000Y-130522165D01*
X156465000Y-92592279D01*
X156474580Y-92494576D01*
X156493580Y-92431644D01*
X156524445Y-92373595D01*
X156565989Y-92322657D01*
X156616644Y-92280752D01*
X156674471Y-92249485D01*
X156737272Y-92230044D01*
X156832835Y-92220000D01*
X197460001Y-92220000D01*
X197460001Y-95161703D01*
%TA.AperFunction,Conductor*%
D24*
G36*
X197460001Y-95161703D02*
G01*
X197380480Y-95119198D01*
X197260782Y-95082888D01*
X197136300Y-95070628D01*
X195485430Y-95070628D01*
X193848803Y-93434002D01*
X193825000Y-93404998D01*
X193709275Y-93310025D01*
X193577246Y-93239453D01*
X193433985Y-93195996D01*
X193322332Y-93184999D01*
X193322321Y-93184999D01*
X193284999Y-93181323D01*
X193247677Y-93184999D01*
X181792323Y-93184999D01*
X181755000Y-93181323D01*
X181717677Y-93184999D01*
X181717668Y-93184999D01*
X181606015Y-93195996D01*
X181489002Y-93231491D01*
X181462754Y-93239453D01*
X181330724Y-93310025D01*
X181273498Y-93356990D01*
X181215000Y-93404998D01*
X181191202Y-93433996D01*
X177805198Y-96820001D01*
X177554320Y-96820001D01*
X177785226Y-96589095D01*
X178057179Y-96182089D01*
X178244503Y-95729848D01*
X178340000Y-95249751D01*
X178340000Y-94760249D01*
X178244503Y-94280152D01*
X178057179Y-93827911D01*
X177785226Y-93420905D01*
X177439095Y-93074774D01*
X177032089Y-92802821D01*
X176579848Y-92615497D01*
X176099751Y-92520000D01*
X175610249Y-92520000D01*
X175130152Y-92615497D01*
X174677911Y-92802821D01*
X174270905Y-93074774D01*
X173924774Y-93420905D01*
X173652821Y-93827911D01*
X173465497Y-94280152D01*
X173370000Y-94760249D01*
X173370000Y-95061928D01*
X171345000Y-95061928D01*
X171220518Y-95074188D01*
X171100820Y-95110498D01*
X170990506Y-95169463D01*
X170893815Y-95248815D01*
X170814463Y-95345506D01*
X170755498Y-95455820D01*
X170719188Y-95575518D01*
X170706928Y-95700000D01*
X170706928Y-95856259D01*
X170528363Y-95589017D01*
X170230983Y-95291637D01*
X169881302Y-95057988D01*
X169492756Y-94897047D01*
X169080279Y-94815000D01*
X168659721Y-94815000D01*
X168247244Y-94897047D01*
X167858698Y-95057988D01*
X167509017Y-95291637D01*
X167211637Y-95589017D01*
X166977988Y-95938698D01*
X166817047Y-96327244D01*
X166735000Y-96739721D01*
X166735000Y-97160279D01*
X166817047Y-97572756D01*
X166977988Y-97961302D01*
X167211637Y-98310983D01*
X167509017Y-98608363D01*
X167858698Y-98842012D01*
X168247244Y-99002953D01*
X168659721Y-99085000D01*
X169080279Y-99085000D01*
X169492756Y-99002953D01*
X169881302Y-98842012D01*
X170230983Y-98608363D01*
X170528363Y-98310983D01*
X170706928Y-98043741D01*
X170706928Y-98200000D01*
X170719188Y-98324482D01*
X170755498Y-98444180D01*
X170814463Y-98554494D01*
X170893815Y-98651185D01*
X170990506Y-98730537D01*
X171100820Y-98789502D01*
X171220518Y-98825812D01*
X171345000Y-98838072D01*
X173895000Y-98838072D01*
X174019482Y-98825812D01*
X174139180Y-98789502D01*
X174249494Y-98730537D01*
X174346185Y-98651185D01*
X174425537Y-98554494D01*
X174484502Y-98444180D01*
X174516104Y-98340001D01*
X175906928Y-98340001D01*
X175906928Y-100740000D01*
X175919188Y-100864482D01*
X175955498Y-100984180D01*
X176014463Y-101094494D01*
X176093815Y-101191185D01*
X176190506Y-101270537D01*
X176300820Y-101329502D01*
X176420518Y-101365812D01*
X176545000Y-101378072D01*
X178961710Y-101378072D01*
X178871202Y-101596579D01*
X178814100Y-101883652D01*
X178814100Y-102176348D01*
X178871202Y-102463421D01*
X178983212Y-102733838D01*
X179145826Y-102977206D01*
X179352794Y-103184174D01*
X179596162Y-103346788D01*
X179866579Y-103458798D01*
X180153652Y-103515900D01*
X180446348Y-103515900D01*
X180733421Y-103458798D01*
X181003838Y-103346788D01*
X181247206Y-103184174D01*
X181454174Y-102977206D01*
X181616788Y-102733838D01*
X181728798Y-102463421D01*
X181785900Y-102176348D01*
X181785900Y-101883652D01*
X181734451Y-101625000D01*
X181780279Y-101625000D01*
X182192756Y-101542953D01*
X182581302Y-101382012D01*
X182887708Y-101177279D01*
X182852127Y-101263178D01*
X182751100Y-101771076D01*
X182751100Y-102288924D01*
X182852127Y-102796822D01*
X183050299Y-103275251D01*
X183338000Y-103705826D01*
X183704174Y-104072000D01*
X184134749Y-104359701D01*
X184613178Y-104557873D01*
X185121076Y-104658900D01*
X185638924Y-104658900D01*
X186146822Y-104557873D01*
X186625251Y-104359701D01*
X187055826Y-104072000D01*
X187422000Y-103705826D01*
X187709701Y-103275251D01*
X187907873Y-102796822D01*
X188008900Y-102288924D01*
X188008900Y-101771076D01*
X187907873Y-101263178D01*
X187709701Y-100784749D01*
X187422000Y-100354174D01*
X187055826Y-99988000D01*
X186625251Y-99700299D01*
X186146822Y-99502127D01*
X185638924Y-99401100D01*
X185121076Y-99401100D01*
X184613178Y-99502127D01*
X184134749Y-99700299D01*
X183704174Y-99988000D01*
X183633763Y-100058411D01*
X183705000Y-99700279D01*
X183705000Y-99279721D01*
X183622953Y-98867244D01*
X183462012Y-98478698D01*
X183228363Y-98129017D01*
X182930983Y-97831637D01*
X182581302Y-97597988D01*
X182192756Y-97437047D01*
X181780279Y-97355000D01*
X181359721Y-97355000D01*
X180947244Y-97437047D01*
X180558698Y-97597988D01*
X180209017Y-97831637D01*
X179911637Y-98129017D01*
X179733072Y-98396259D01*
X179733072Y-98240000D01*
X179720812Y-98115518D01*
X179684502Y-97995820D01*
X179625537Y-97885506D01*
X179546185Y-97788815D01*
X179449494Y-97709463D01*
X179339180Y-97650498D01*
X179219482Y-97614188D01*
X179165891Y-97608910D01*
X180035080Y-96739721D01*
X185785000Y-96739721D01*
X185785000Y-97160279D01*
X185867047Y-97572756D01*
X186027988Y-97961302D01*
X186261637Y-98310983D01*
X186559017Y-98608363D01*
X186908698Y-98842012D01*
X187297244Y-99002953D01*
X187709721Y-99085000D01*
X188130279Y-99085000D01*
X188542756Y-99002953D01*
X188931302Y-98842012D01*
X189280983Y-98608363D01*
X189578363Y-98310983D01*
X189756928Y-98043741D01*
X189756928Y-98200000D01*
X189769188Y-98324482D01*
X189805498Y-98444180D01*
X189864463Y-98554494D01*
X189943815Y-98651185D01*
X190040506Y-98730537D01*
X190150820Y-98789502D01*
X190270518Y-98825812D01*
X190395000Y-98838072D01*
X192620073Y-98838072D01*
X192616928Y-98870000D01*
X192620000Y-99434250D01*
X192778750Y-99593000D01*
X193978000Y-99593000D01*
X193978000Y-98393750D01*
X193819250Y-98235000D01*
X193579753Y-98233696D01*
X193583072Y-98200000D01*
X193583072Y-95700000D01*
X193570812Y-95575518D01*
X193534502Y-95455820D01*
X193475537Y-95345506D01*
X193396185Y-95248815D01*
X193299494Y-95169463D01*
X193189180Y-95110498D01*
X193069482Y-95074188D01*
X192945000Y-95061928D01*
X190395000Y-95061928D01*
X190270518Y-95074188D01*
X190150820Y-95110498D01*
X190040506Y-95169463D01*
X189943815Y-95248815D01*
X189864463Y-95345506D01*
X189805498Y-95455820D01*
X189769188Y-95575518D01*
X189756928Y-95700000D01*
X189756928Y-95856259D01*
X189578363Y-95589017D01*
X189280983Y-95291637D01*
X188931302Y-95057988D01*
X188542756Y-94897047D01*
X188130279Y-94815000D01*
X187709721Y-94815000D01*
X187297244Y-94897047D01*
X186908698Y-95057988D01*
X186559017Y-95291637D01*
X186261637Y-95589017D01*
X186027988Y-95938698D01*
X185867047Y-96327244D01*
X185785000Y-96739721D01*
X180035080Y-96739721D01*
X182069803Y-94704999D01*
X192970198Y-94704999D01*
X194745628Y-96480430D01*
X194745628Y-97461300D01*
X194757888Y-97585782D01*
X194794198Y-97705480D01*
X194853163Y-97815794D01*
X194932515Y-97912485D01*
X195029206Y-97991837D01*
X195139520Y-98050802D01*
X195183542Y-98064156D01*
X195086096Y-98161602D01*
X195033913Y-98239700D01*
X194955000Y-98231928D01*
X194390750Y-98235000D01*
X194232000Y-98393750D01*
X194232000Y-99593000D01*
X194252000Y-99593000D01*
X194252000Y-99847000D01*
X194232000Y-99847000D01*
X194232000Y-99867000D01*
X193978000Y-99867000D01*
X193978000Y-99847000D01*
X192778750Y-99847000D01*
X192620000Y-100005750D01*
X192616928Y-100570000D01*
X192628428Y-100686770D01*
X191838954Y-101476244D01*
X191776788Y-101326162D01*
X191614174Y-101082794D01*
X191407206Y-100875826D01*
X191163838Y-100713212D01*
X190893421Y-100601202D01*
X190606348Y-100544100D01*
X190313652Y-100544100D01*
X190026579Y-100601202D01*
X189756162Y-100713212D01*
X189512794Y-100875826D01*
X189305826Y-101082794D01*
X189143212Y-101326162D01*
X189031202Y-101596579D01*
X188974100Y-101883652D01*
X188974100Y-102176348D01*
X189031202Y-102463421D01*
X189143212Y-102733838D01*
X189305826Y-102977206D01*
X189362389Y-103033769D01*
X189289000Y-103040997D01*
X189145739Y-103084454D01*
X189013710Y-103155026D01*
X188897985Y-103249999D01*
X188874187Y-103278997D01*
X187468998Y-104684187D01*
X187440000Y-104707985D01*
X187416202Y-104736983D01*
X187416201Y-104736984D01*
X187345026Y-104823710D01*
X187276200Y-104952474D01*
X187251681Y-104937566D01*
X187195720Y-104910634D01*
X187140181Y-104882942D01*
X187131223Y-104879592D01*
X187039584Y-104846055D01*
X186979470Y-104830508D01*
X186919587Y-104814125D01*
X186910149Y-104812579D01*
X186813742Y-104797481D01*
X186751759Y-104793906D01*
X186689836Y-104789467D01*
X186680277Y-104789783D01*
X186582771Y-104793699D01*
X186521312Y-104802226D01*
X186459667Y-104809904D01*
X186450352Y-104812071D01*
X186355465Y-104834850D01*
X186296778Y-104855171D01*
X186237854Y-104874658D01*
X186229137Y-104878593D01*
X186140482Y-104919368D01*
X186128237Y-104925000D01*
X184629868Y-104925000D01*
X184620736Y-104919579D01*
X184612046Y-104915584D01*
X184523104Y-104875437D01*
X184464281Y-104855533D01*
X184405771Y-104834821D01*
X184396471Y-104832589D01*
X184396468Y-104832588D01*
X184396465Y-104832588D01*
X184301426Y-104810482D01*
X184239863Y-104802384D01*
X184178436Y-104793429D01*
X184168879Y-104793046D01*
X184071349Y-104789821D01*
X184009396Y-104793834D01*
X183947389Y-104796982D01*
X183937940Y-104798463D01*
X183841642Y-104814243D01*
X183781666Y-104830209D01*
X183721435Y-104845344D01*
X183712453Y-104848632D01*
X183621054Y-104882816D01*
X183565316Y-104910129D01*
X183509174Y-104936675D01*
X183501002Y-104941644D01*
X183417983Y-104992930D01*
X183368590Y-105030567D01*
X183318697Y-105067494D01*
X183311646Y-105073956D01*
X183240170Y-105140390D01*
X183199053Y-105186874D01*
X183157258Y-105232816D01*
X183151597Y-105240525D01*
X183099922Y-105311927D01*
X182062000Y-105311927D01*
X181921521Y-105325763D01*
X181786440Y-105366739D01*
X181721039Y-105401696D01*
X181631899Y-105364773D01*
X181431940Y-105324999D01*
X181228062Y-105324999D01*
X181028103Y-105364773D01*
X180839745Y-105442794D01*
X180754131Y-105499999D01*
X173476222Y-105499999D01*
X172283016Y-104306794D01*
X172256082Y-104273975D01*
X172125130Y-104166505D01*
X171975728Y-104086648D01*
X171813617Y-104037473D01*
X171687274Y-104025029D01*
X171687267Y-104025029D01*
X171645028Y-104020869D01*
X171602789Y-104025029D01*
X168052797Y-104025029D01*
X168372000Y-103705826D01*
X168659701Y-103275251D01*
X168857873Y-102796822D01*
X168958900Y-102288924D01*
X168958900Y-101883652D01*
X169924100Y-101883652D01*
X169924100Y-102176348D01*
X169981202Y-102463421D01*
X170093212Y-102733838D01*
X170255826Y-102977206D01*
X170462794Y-103184174D01*
X170706162Y-103346788D01*
X170976579Y-103458798D01*
X171263652Y-103515900D01*
X171556348Y-103515900D01*
X171843421Y-103458798D01*
X172113838Y-103346788D01*
X172357206Y-103184174D01*
X172564174Y-102977206D01*
X172726788Y-102733838D01*
X172838798Y-102463421D01*
X172895900Y-102176348D01*
X172895900Y-101883652D01*
X172838798Y-101596579D01*
X172726788Y-101326162D01*
X172564174Y-101082794D01*
X172357206Y-100875826D01*
X172113838Y-100713212D01*
X171843421Y-100601202D01*
X171556348Y-100544100D01*
X171263652Y-100544100D01*
X170976579Y-100601202D01*
X170706162Y-100713212D01*
X170462794Y-100875826D01*
X170255826Y-101082794D01*
X170093212Y-101326162D01*
X169981202Y-101596579D01*
X169924100Y-101883652D01*
X168958900Y-101883652D01*
X168958900Y-101771076D01*
X168857873Y-101263178D01*
X168659701Y-100784749D01*
X168372000Y-100354174D01*
X168005826Y-99988000D01*
X167575251Y-99700299D01*
X167096822Y-99502127D01*
X166588924Y-99401100D01*
X166071076Y-99401100D01*
X165563178Y-99502127D01*
X165084749Y-99700299D01*
X164654174Y-99988000D01*
X164583763Y-100058411D01*
X164655000Y-99700279D01*
X164655000Y-99279721D01*
X164572953Y-98867244D01*
X164412012Y-98478698D01*
X164178363Y-98129017D01*
X163880983Y-97831637D01*
X163531302Y-97597988D01*
X163142756Y-97437047D01*
X162730279Y-97355000D01*
X162309721Y-97355000D01*
X161897244Y-97437047D01*
X161508698Y-97597988D01*
X161159017Y-97831637D01*
X160861637Y-98129017D01*
X160683072Y-98396259D01*
X160683072Y-98240000D01*
X160670812Y-98115518D01*
X160634502Y-97995820D01*
X160575537Y-97885506D01*
X160496185Y-97788815D01*
X160399494Y-97709463D01*
X160289180Y-97650498D01*
X160169482Y-97614188D01*
X160045000Y-97601928D01*
X157495000Y-97601928D01*
X157370518Y-97614188D01*
X157250820Y-97650498D01*
X157140506Y-97709463D01*
X157043815Y-97788815D01*
X156964463Y-97885506D01*
X156905498Y-97995820D01*
X156869188Y-98115518D01*
X156856928Y-98240000D01*
X156856928Y-100740000D01*
X156869188Y-100864482D01*
X156905498Y-100984180D01*
X156964463Y-101094494D01*
X157043815Y-101191185D01*
X157140506Y-101270537D01*
X157250820Y-101329502D01*
X157370518Y-101365812D01*
X157495000Y-101378072D01*
X159911710Y-101378072D01*
X159821202Y-101596579D01*
X159764100Y-101883652D01*
X159764100Y-102176348D01*
X159821202Y-102463421D01*
X159933212Y-102733838D01*
X160095826Y-102977206D01*
X160302794Y-103184174D01*
X160546162Y-103346788D01*
X160816579Y-103458798D01*
X161103652Y-103515900D01*
X161396348Y-103515900D01*
X161683421Y-103458798D01*
X161953838Y-103346788D01*
X162197206Y-103184174D01*
X162404174Y-102977206D01*
X162566788Y-102733838D01*
X162678798Y-102463421D01*
X162735900Y-102176348D01*
X162735900Y-101883652D01*
X162684451Y-101625000D01*
X162730279Y-101625000D01*
X163142756Y-101542953D01*
X163531302Y-101382012D01*
X163837708Y-101177279D01*
X163802127Y-101263178D01*
X163701100Y-101771076D01*
X163701100Y-102288924D01*
X163802127Y-102796822D01*
X164000299Y-103275251D01*
X164288000Y-103705826D01*
X164607203Y-104025029D01*
X164488681Y-104025029D01*
X164446442Y-104020869D01*
X164404203Y-104025029D01*
X164404196Y-104025029D01*
X164293417Y-104035940D01*
X164277852Y-104037473D01*
X164228677Y-104052390D01*
X164115742Y-104086648D01*
X163966340Y-104166505D01*
X163835388Y-104273975D01*
X163808458Y-104306789D01*
X163151764Y-104963483D01*
X163118946Y-104990417D01*
X163011476Y-105121370D01*
X162931619Y-105270772D01*
X162916275Y-105321355D01*
X162871521Y-105325763D01*
X162736440Y-105366739D01*
X162611949Y-105433281D01*
X162502832Y-105522831D01*
X162413282Y-105631948D01*
X162375596Y-105702453D01*
X162318946Y-105748945D01*
X162292017Y-105781759D01*
X160911760Y-107162016D01*
X160878947Y-107188945D01*
X160852018Y-107221758D01*
X160852016Y-107221760D01*
X160771477Y-107319897D01*
X160691620Y-107469299D01*
X160642444Y-107631410D01*
X160625840Y-107799999D01*
X160630001Y-107842248D01*
X160630000Y-112397761D01*
X160625840Y-112440000D01*
X160630000Y-112482239D01*
X160630000Y-112482245D01*
X160642444Y-112608588D01*
X160691619Y-112770699D01*
X160771476Y-112920101D01*
X160878946Y-113051054D01*
X160911765Y-113077988D01*
X163585002Y-115751225D01*
X163585002Y-116683869D01*
X163531302Y-116647988D01*
X163142756Y-116487047D01*
X162730279Y-116405000D01*
X162309721Y-116405000D01*
X161897244Y-116487047D01*
X161508698Y-116647988D01*
X161159017Y-116881637D01*
X160861637Y-117179017D01*
X160683072Y-117446259D01*
X160683072Y-117290000D01*
X160670812Y-117165518D01*
X160634502Y-117045820D01*
X160575537Y-116935506D01*
X160496185Y-116838815D01*
X160399494Y-116759463D01*
X160289180Y-116700498D01*
X160169482Y-116664188D01*
X160045000Y-116651928D01*
X157495000Y-116651928D01*
X157370518Y-116664188D01*
X157250820Y-116700498D01*
X157140506Y-116759463D01*
X157043815Y-116838815D01*
X156964463Y-116935506D01*
X156905498Y-117045820D01*
X156869188Y-117165518D01*
X156856928Y-117290000D01*
X156856928Y-119790000D01*
X156869188Y-119914482D01*
X156905498Y-120034180D01*
X156964463Y-120144494D01*
X157043815Y-120241185D01*
X157140506Y-120320537D01*
X157250820Y-120379502D01*
X157370518Y-120415812D01*
X157495000Y-120428072D01*
X159911710Y-120428072D01*
X159821202Y-120646579D01*
X159764100Y-120933652D01*
X159764100Y-121226348D01*
X159821202Y-121513421D01*
X159933212Y-121783838D01*
X160095826Y-122027206D01*
X160302794Y-122234174D01*
X160546162Y-122396788D01*
X160816579Y-122508798D01*
X161103652Y-122565900D01*
X161396348Y-122565900D01*
X161683421Y-122508798D01*
X161953838Y-122396788D01*
X162197206Y-122234174D01*
X162404174Y-122027206D01*
X162566788Y-121783838D01*
X162678798Y-121513421D01*
X162735900Y-121226348D01*
X162735900Y-120933652D01*
X162684451Y-120675000D01*
X162730279Y-120675000D01*
X162870001Y-120647208D01*
X162870000Y-124376224D01*
X162736440Y-124416739D01*
X162611949Y-124483281D01*
X162502832Y-124572831D01*
X162413282Y-124681948D01*
X162375596Y-124752453D01*
X162355031Y-124769331D01*
X162318946Y-124798945D01*
X162292016Y-124831759D01*
X161321765Y-125802011D01*
X161288946Y-125828945D01*
X161181476Y-125959898D01*
X161101619Y-126109300D01*
X161069795Y-126214213D01*
X161057174Y-126255819D01*
X161052444Y-126271411D01*
X161040000Y-126397754D01*
X161040000Y-126397760D01*
X161035840Y-126439999D01*
X161040000Y-126482238D01*
X161040001Y-128057752D01*
X161035840Y-128100000D01*
X161052444Y-128268589D01*
X161101620Y-128430700D01*
X161181477Y-128580102D01*
X161259914Y-128675677D01*
X161288947Y-128711054D01*
X161321760Y-128737983D01*
X162072016Y-129488240D01*
X162098946Y-129521054D01*
X162229898Y-129628524D01*
X162379300Y-129708381D01*
X162492235Y-129742639D01*
X162541410Y-129757556D01*
X162556975Y-129759089D01*
X162667754Y-129770000D01*
X162667761Y-129770000D01*
X162710000Y-129774160D01*
X162752239Y-129770000D01*
X170377761Y-129770000D01*
X170420000Y-129774160D01*
X170462239Y-129770000D01*
X170462246Y-129770000D01*
X170588589Y-129757556D01*
X170750700Y-129708381D01*
X170900102Y-129628524D01*
X171031054Y-129521054D01*
X171057988Y-129488235D01*
X173722309Y-126823914D01*
X173652821Y-126927911D01*
X173465497Y-127380152D01*
X173370000Y-127860249D01*
X173370000Y-128349751D01*
X173465497Y-128829848D01*
X173652821Y-129282089D01*
X173924774Y-129689095D01*
X174270905Y-130035226D01*
X174677911Y-130307179D01*
X175130152Y-130494503D01*
X175610249Y-130590000D01*
X176099751Y-130590000D01*
X176579848Y-130494503D01*
X177032089Y-130307179D01*
X177439095Y-130035226D01*
X177785226Y-129689095D01*
X178057179Y-129282089D01*
X178244503Y-128829848D01*
X178340000Y-128349751D01*
X178340000Y-127860249D01*
X178244503Y-127380152D01*
X178057179Y-126927911D01*
X177785226Y-126520905D01*
X177534320Y-126269999D01*
X180156825Y-126269999D01*
X180155840Y-126280000D01*
X180160000Y-126322239D01*
X180160001Y-127497752D01*
X180155840Y-127540000D01*
X180172444Y-127708589D01*
X180221620Y-127870700D01*
X180301477Y-128020102D01*
X180371182Y-128105037D01*
X180408947Y-128151054D01*
X180441760Y-128177983D01*
X182128017Y-129864241D01*
X182154946Y-129897054D01*
X182285898Y-130004524D01*
X182435300Y-130084381D01*
X182538629Y-130115725D01*
X182597410Y-130133556D01*
X182612975Y-130135089D01*
X182723754Y-130146000D01*
X182723761Y-130146000D01*
X182766000Y-130150160D01*
X182808239Y-130146000D01*
X216010130Y-130146000D01*
X216095744Y-130203205D01*
X216284102Y-130281226D01*
X216484061Y-130321000D01*
X216687939Y-130321000D01*
X216887898Y-130281226D01*
X217076256Y-130203205D01*
X217161870Y-130146000D01*
X219569594Y-130146000D01*
X219611833Y-130150160D01*
X219654072Y-130146000D01*
X219654079Y-130146000D01*
X219780422Y-130133556D01*
X219942533Y-130084381D01*
X220091935Y-130004524D01*
X220222887Y-129897054D01*
X220249821Y-129864235D01*
X222492787Y-127621269D01*
X223778336Y-127621269D01*
X223837797Y-127855037D01*
X224076242Y-127965934D01*
X224331740Y-128028183D01*
X224594473Y-128039390D01*
X224854344Y-127999125D01*
X225101366Y-127908935D01*
X225202203Y-127855037D01*
X225261664Y-127621269D01*
X224520000Y-126879605D01*
X223778336Y-127621269D01*
X222492787Y-127621269D01*
X223201937Y-126912119D01*
X223220875Y-127034344D01*
X223311065Y-127281366D01*
X223364963Y-127382203D01*
X223598731Y-127441664D01*
X224340395Y-126700000D01*
X224326253Y-126685858D01*
X224505858Y-126506253D01*
X224520000Y-126520395D01*
X224534143Y-126506253D01*
X224713748Y-126685858D01*
X224699605Y-126700000D01*
X225441269Y-127441664D01*
X225675037Y-127382203D01*
X225726285Y-127272012D01*
X225795905Y-127341632D01*
X226202911Y-127613585D01*
X226655152Y-127800909D01*
X227135249Y-127896406D01*
X227624751Y-127896406D01*
X228104848Y-127800909D01*
X228557089Y-127613585D01*
X228964095Y-127341632D01*
X229310226Y-126995501D01*
X229582179Y-126588495D01*
X229769503Y-126136254D01*
X229865000Y-125656157D01*
X229865000Y-125166655D01*
X229769503Y-124686558D01*
X229582179Y-124234317D01*
X229310226Y-123827311D01*
X228964095Y-123481180D01*
X228557089Y-123209227D01*
X228104848Y-123021903D01*
X227624751Y-122926406D01*
X227171572Y-122926406D01*
X227178523Y-122917936D01*
X227258380Y-122768534D01*
X227301389Y-122626750D01*
X227307555Y-122606424D01*
X227310792Y-122573561D01*
X227319999Y-122480080D01*
X227319999Y-122480074D01*
X227324159Y-122437835D01*
X227319999Y-122395596D01*
X227319999Y-101562245D01*
X227324160Y-101519999D01*
X227307555Y-101351409D01*
X227258380Y-101189298D01*
X227219868Y-101117249D01*
X227178523Y-101039897D01*
X227071053Y-100908945D01*
X227038240Y-100882016D01*
X223610067Y-97453843D01*
X224895000Y-97453843D01*
X224895000Y-97943345D01*
X224990497Y-98423442D01*
X225177821Y-98875683D01*
X225449774Y-99282689D01*
X225795905Y-99628820D01*
X226202911Y-99900773D01*
X226655152Y-100088097D01*
X227135249Y-100183594D01*
X227624751Y-100183594D01*
X228104848Y-100088097D01*
X228557089Y-99900773D01*
X228964095Y-99628820D01*
X229310226Y-99282689D01*
X229582179Y-98875683D01*
X229769503Y-98423442D01*
X229865000Y-97943345D01*
X229865000Y-97453843D01*
X229769503Y-96973746D01*
X229582179Y-96521505D01*
X229310226Y-96114499D01*
X228964095Y-95768368D01*
X228557089Y-95496415D01*
X228104848Y-95309091D01*
X227624751Y-95213594D01*
X227135249Y-95213594D01*
X226655152Y-95309091D01*
X226202911Y-95496415D01*
X225795905Y-95768368D01*
X225449774Y-96114499D01*
X225177821Y-96521505D01*
X224990497Y-96973746D01*
X224895000Y-97453843D01*
X223610067Y-97453843D01*
X223257988Y-97101765D01*
X223231054Y-97068946D01*
X223100102Y-96961476D01*
X222950700Y-96881619D01*
X222788589Y-96832444D01*
X222662246Y-96820000D01*
X222662239Y-96820000D01*
X222620000Y-96815840D01*
X222577761Y-96820000D01*
X217489475Y-96820000D01*
X217447236Y-96815840D01*
X217404997Y-96820000D01*
X217404991Y-96820000D01*
X217309775Y-96829378D01*
X217278646Y-96832444D01*
X217203187Y-96855335D01*
X217116537Y-96881619D01*
X216967135Y-96961476D01*
X216836183Y-97068946D01*
X216809249Y-97101765D01*
X216411318Y-97499696D01*
X216310329Y-97519784D01*
X216121971Y-97597805D01*
X215952453Y-97711073D01*
X215808290Y-97855236D01*
X215695022Y-98024754D01*
X215617001Y-98213112D01*
X215577227Y-98413071D01*
X215577227Y-98477811D01*
X215552832Y-98497831D01*
X215463282Y-98606948D01*
X215396740Y-98731439D01*
X215355764Y-98866520D01*
X215341928Y-99006999D01*
X215341928Y-99662999D01*
X215355764Y-99803478D01*
X215396740Y-99938559D01*
X215463282Y-100063050D01*
X215481295Y-100084999D01*
X215463282Y-100106948D01*
X215396740Y-100231439D01*
X215355764Y-100366520D01*
X215341928Y-100506999D01*
X215341928Y-101162999D01*
X215355764Y-101303478D01*
X215396740Y-101438559D01*
X215463282Y-101563050D01*
X215552832Y-101672167D01*
X215661949Y-101761717D01*
X215786440Y-101828259D01*
X215921521Y-101869235D01*
X216062000Y-101883071D01*
X217099542Y-101883071D01*
X217156806Y-101961029D01*
X217198256Y-102007226D01*
X217239081Y-102054026D01*
X217246087Y-102060537D01*
X217318032Y-102126464D01*
X217367663Y-102163729D01*
X217416800Y-102201707D01*
X217424937Y-102206733D01*
X217508316Y-102257430D01*
X217564274Y-102284362D01*
X217619825Y-102312059D01*
X217628784Y-102315409D01*
X217720423Y-102348945D01*
X217780583Y-102364504D01*
X217840407Y-102380871D01*
X217849846Y-102382417D01*
X217849853Y-102382419D01*
X217849861Y-102382419D01*
X217946253Y-102397516D01*
X218008231Y-102401091D01*
X218070166Y-102405531D01*
X218079725Y-102405214D01*
X218177230Y-102401299D01*
X218238698Y-102392770D01*
X218300333Y-102385094D01*
X218309648Y-102382927D01*
X218404535Y-102360148D01*
X218463223Y-102339826D01*
X218522152Y-102320338D01*
X218530869Y-102316402D01*
X218619202Y-102275774D01*
X218619519Y-102275631D01*
X218631764Y-102269999D01*
X220130132Y-102269999D01*
X220139264Y-102275420D01*
X220147954Y-102279415D01*
X220236896Y-102319562D01*
X220295712Y-102339463D01*
X220354230Y-102360178D01*
X220363527Y-102362409D01*
X220363532Y-102362411D01*
X220363537Y-102362412D01*
X220458576Y-102384517D01*
X220520125Y-102392613D01*
X220581565Y-102401570D01*
X220591122Y-102401953D01*
X220688651Y-102405178D01*
X220750616Y-102401164D01*
X220812619Y-102398016D01*
X220822068Y-102396535D01*
X220918366Y-102380754D01*
X220978362Y-102364783D01*
X221038566Y-102349654D01*
X221047547Y-102346366D01*
X221047556Y-102346363D01*
X221047559Y-102346361D01*
X221138947Y-102312182D01*
X221194686Y-102284868D01*
X221250827Y-102258323D01*
X221258999Y-102253354D01*
X221342018Y-102202068D01*
X221391429Y-102164418D01*
X221441308Y-102127501D01*
X221448359Y-102121039D01*
X221519835Y-102054604D01*
X221560960Y-102008110D01*
X221602740Y-101962184D01*
X221608402Y-101954475D01*
X221662164Y-101880191D01*
X221694250Y-101879999D01*
X221853000Y-101721249D01*
X221853000Y-101361460D01*
X221858234Y-101327230D01*
X221858683Y-101317677D01*
X221862588Y-101220172D01*
X221859008Y-101158208D01*
X221856292Y-101096166D01*
X221854878Y-101086707D01*
X221853000Y-101074724D01*
X221853000Y-100961999D01*
X221833000Y-100961999D01*
X221833000Y-100707999D01*
X221853000Y-100707999D01*
X221853000Y-100687999D01*
X222107000Y-100687999D01*
X222107000Y-100707999D01*
X222127000Y-100707999D01*
X222127000Y-100961999D01*
X222107000Y-100961999D01*
X222107000Y-101721249D01*
X222265750Y-101879999D01*
X222445001Y-101881070D01*
X222445002Y-103019320D01*
X222356912Y-102982832D01*
X222041033Y-102920000D01*
X221718967Y-102920000D01*
X221403088Y-102982832D01*
X221105537Y-103106082D01*
X220837748Y-103285013D01*
X220610013Y-103512748D01*
X220431082Y-103780537D01*
X220307832Y-104078088D01*
X220245000Y-104393967D01*
X220245000Y-104716033D01*
X220307832Y-105031912D01*
X220431082Y-105329463D01*
X220610013Y-105597252D01*
X220837748Y-105824987D01*
X221105537Y-106003918D01*
X221403088Y-106127168D01*
X221718967Y-106190000D01*
X222041033Y-106190000D01*
X222356912Y-106127168D01*
X222392963Y-106112235D01*
X215418072Y-113087127D01*
X215418072Y-109955000D01*
X215405812Y-109830518D01*
X215369502Y-109710820D01*
X215310537Y-109600506D01*
X215231185Y-109503815D01*
X215134494Y-109424463D01*
X215024180Y-109365498D01*
X214904482Y-109329188D01*
X214780000Y-109316928D01*
X213011300Y-109316928D01*
X213011300Y-109136150D01*
X212953222Y-108844170D01*
X212839297Y-108569131D01*
X212673904Y-108321602D01*
X212463398Y-108111096D01*
X212319580Y-108015000D01*
X212463398Y-107918904D01*
X212673904Y-107708398D01*
X212839297Y-107460869D01*
X212953222Y-107185830D01*
X213011300Y-106893850D01*
X213011300Y-106596150D01*
X212953222Y-106304170D01*
X212839297Y-106029131D01*
X212673904Y-105781602D01*
X212463398Y-105571096D01*
X212319580Y-105475000D01*
X212463398Y-105378904D01*
X212673904Y-105168398D01*
X212839297Y-104920869D01*
X212953222Y-104645830D01*
X213003320Y-104393967D01*
X215245000Y-104393967D01*
X215245000Y-104716033D01*
X215307832Y-105031912D01*
X215431082Y-105329463D01*
X215610013Y-105597252D01*
X215837748Y-105824987D01*
X216105537Y-106003918D01*
X216403088Y-106127168D01*
X216718967Y-106190000D01*
X217041033Y-106190000D01*
X217356912Y-106127168D01*
X217654463Y-106003918D01*
X217922252Y-105824987D01*
X218149987Y-105597252D01*
X218328918Y-105329463D01*
X218452168Y-105031912D01*
X218515000Y-104716033D01*
X218515000Y-104393967D01*
X218452168Y-104078088D01*
X218328918Y-103780537D01*
X218149987Y-103512748D01*
X217922252Y-103285013D01*
X217654463Y-103106082D01*
X217356912Y-102982832D01*
X217041033Y-102920000D01*
X216718967Y-102920000D01*
X216403088Y-102982832D01*
X216105537Y-103106082D01*
X215837748Y-103285013D01*
X215610013Y-103512748D01*
X215431082Y-103780537D01*
X215307832Y-104078088D01*
X215245000Y-104393967D01*
X213003320Y-104393967D01*
X213011300Y-104353850D01*
X213011300Y-104056150D01*
X212953222Y-103764170D01*
X212839297Y-103489131D01*
X212673904Y-103241602D01*
X212463398Y-103031096D01*
X212319580Y-102935000D01*
X212463398Y-102838904D01*
X212673904Y-102628398D01*
X212839297Y-102380869D01*
X212953222Y-102105830D01*
X213011300Y-101813850D01*
X213011300Y-101516150D01*
X212953222Y-101224170D01*
X212839297Y-100949131D01*
X212673904Y-100701602D01*
X212463398Y-100491096D01*
X212300191Y-100382045D01*
X212367563Y-100172169D01*
X211500000Y-99304605D01*
X210632437Y-100172169D01*
X210699809Y-100382045D01*
X210536602Y-100491096D01*
X210350000Y-100677698D01*
X210350000Y-99959553D01*
X210452831Y-99992563D01*
X211320395Y-99125000D01*
X211679605Y-99125000D01*
X212547169Y-99992563D01*
X212798929Y-99911746D01*
X212927457Y-99643221D01*
X213001129Y-99354781D01*
X213017113Y-99057509D01*
X212974796Y-98762833D01*
X212875802Y-98482073D01*
X212798929Y-98338254D01*
X212547169Y-98257437D01*
X211679605Y-99125000D01*
X211320395Y-99125000D01*
X210452831Y-98257437D01*
X210350000Y-98290447D01*
X210350000Y-97572302D01*
X210536602Y-97758904D01*
X210699809Y-97867955D01*
X210632437Y-98077831D01*
X211500000Y-98945395D01*
X212367563Y-98077831D01*
X212300191Y-97867955D01*
X212463398Y-97758904D01*
X212673904Y-97548398D01*
X212839297Y-97300869D01*
X212953222Y-97025830D01*
X213011300Y-96733850D01*
X213011300Y-96436150D01*
X212953222Y-96144170D01*
X212839297Y-95869131D01*
X212673904Y-95621602D01*
X212463398Y-95411096D01*
X212215869Y-95245703D01*
X211940830Y-95131778D01*
X211648850Y-95073700D01*
X211351150Y-95073700D01*
X211059170Y-95131778D01*
X210784131Y-95245703D01*
X210536602Y-95411096D01*
X210350000Y-95597698D01*
X210350000Y-94720000D01*
X213461928Y-94720000D01*
X213474188Y-94844482D01*
X213510498Y-94964180D01*
X213569463Y-95074494D01*
X213648815Y-95171185D01*
X213745506Y-95250537D01*
X213855820Y-95309502D01*
X213975518Y-95345812D01*
X214100000Y-95358072D01*
X214664250Y-95355000D01*
X214823000Y-95196250D01*
X214823000Y-93997000D01*
X213623750Y-93997000D01*
X213465000Y-94155750D01*
X213461928Y-94720000D01*
X210350000Y-94720000D01*
X210350000Y-93020000D01*
X213461928Y-93020000D01*
X213465000Y-93584250D01*
X213623750Y-93743000D01*
X214823000Y-93743000D01*
X214823000Y-92543750D01*
X215077000Y-92543750D01*
X215077000Y-93743000D01*
X215097000Y-93743000D01*
X215097000Y-93997000D01*
X215077000Y-93997000D01*
X215077000Y-95196250D01*
X215235750Y-95355000D01*
X215800000Y-95358072D01*
X215924482Y-95345812D01*
X216044180Y-95309502D01*
X216154494Y-95250537D01*
X216251185Y-95171185D01*
X216330537Y-95074494D01*
X216389502Y-94964180D01*
X216411513Y-94891620D01*
X216543368Y-95023475D01*
X216786589Y-95185990D01*
X217056842Y-95297932D01*
X217343740Y-95355000D01*
X217636260Y-95355000D01*
X217923158Y-95297932D01*
X218193411Y-95185990D01*
X218436632Y-95023475D01*
X218643475Y-94816632D01*
X218805990Y-94573411D01*
X218917932Y-94303158D01*
X218975000Y-94016260D01*
X218975000Y-93723740D01*
X218917932Y-93436842D01*
X218805990Y-93166589D01*
X218643475Y-92923368D01*
X218436632Y-92716525D01*
X218193411Y-92554010D01*
X217923158Y-92442068D01*
X217636260Y-92385000D01*
X217343740Y-92385000D01*
X217056842Y-92442068D01*
X216786589Y-92554010D01*
X216543368Y-92716525D01*
X216411513Y-92848380D01*
X216389502Y-92775820D01*
X216330537Y-92665506D01*
X216251185Y-92568815D01*
X216154494Y-92489463D01*
X216044180Y-92430498D01*
X215924482Y-92394188D01*
X215800000Y-92381928D01*
X215235750Y-92385000D01*
X215077000Y-92543750D01*
X214823000Y-92543750D01*
X214664250Y-92385000D01*
X214100000Y-92381928D01*
X213975518Y-92394188D01*
X213855820Y-92430498D01*
X213745506Y-92489463D01*
X213648815Y-92568815D01*
X213569463Y-92665506D01*
X213510498Y-92775820D01*
X213474188Y-92895518D01*
X213461928Y-93020000D01*
X210350000Y-93020000D01*
X210350000Y-92220000D01*
X219365321Y-92220000D01*
X221098706Y-92297197D01*
X222803819Y-92526222D01*
X224481811Y-92905913D01*
X226119415Y-93433267D01*
X227703645Y-94104102D01*
X229221976Y-94913112D01*
X230662394Y-95853901D01*
X232013458Y-96918994D01*
X233264504Y-98099984D01*
X234405606Y-99387499D01*
X235427747Y-100771366D01*
X236322816Y-102240608D01*
X237083738Y-103783603D01*
X237704480Y-105388128D01*
X238180136Y-107041486D01*
X238506933Y-108730582D01*
X238682287Y-110442044D01*
X238704806Y-112162299D01*
X238574313Y-113877773D01*
X238291845Y-115574833D01*
X237859634Y-117240073D01*
X237281099Y-118860310D01*
X236560832Y-120422692D01*
X235704526Y-121914864D01*
X234718970Y-123325002D01*
X233611950Y-124641960D01*
X232392253Y-125855287D01*
X231069527Y-126955386D01*
X229654243Y-127933549D01*
X228157614Y-128782025D01*
X226591472Y-129494108D01*
X224968237Y-130064147D01*
X223300765Y-130487631D01*
X221602234Y-130761212D01*
X219875748Y-130883454D01*
X219375715Y-130890000D01*
X156837279Y-130890000D01*
X156739576Y-130880420D01*
X156676643Y-130861420D01*
X156618594Y-130830554D01*
X156567657Y-130789011D01*
X156525752Y-130738356D01*
X156494485Y-130680529D01*
X156475044Y-130617728D01*
X156465000Y-130522165D01*
X156465000Y-92592279D01*
X156474580Y-92494576D01*
X156493580Y-92431644D01*
X156524445Y-92373595D01*
X156565989Y-92322657D01*
X156616644Y-92280752D01*
X156674471Y-92249485D01*
X156737272Y-92230044D01*
X156832835Y-92220000D01*
X197460001Y-92220000D01*
X197460001Y-95161703D01*
G37*
%TD.AperFunction*%
D23*
X213066939Y-122202359D02*
X213213038Y-122421013D01*
X213398987Y-122606962D01*
X213617641Y-122753061D01*
X213860595Y-122853696D01*
X214118514Y-122905000D01*
X214381486Y-122905000D01*
X214639405Y-122853696D01*
X214794999Y-122789247D01*
X214794999Y-123447676D01*
X214791323Y-123484998D01*
X214794999Y-123522320D01*
X214794999Y-123522330D01*
X214805996Y-123633983D01*
X214844822Y-123761976D01*
X214849453Y-123777244D01*
X214920025Y-123909274D01*
X214952730Y-123949125D01*
X215014998Y-124024999D01*
X215044002Y-124048802D01*
X215353807Y-124358607D01*
X215355764Y-124378478D01*
X215396740Y-124513559D01*
X215463282Y-124638050D01*
X215552832Y-124747167D01*
X215661949Y-124836717D01*
X215786440Y-124903259D01*
X215921521Y-124944235D01*
X216062000Y-124958071D01*
X217099542Y-124958071D01*
X217156806Y-125036029D01*
X217198256Y-125082226D01*
X217239081Y-125129026D01*
X217246087Y-125135537D01*
X217318032Y-125201464D01*
X217367663Y-125238729D01*
X217416800Y-125276707D01*
X217424937Y-125281733D01*
X217508316Y-125332430D01*
X217564274Y-125359362D01*
X217619825Y-125387059D01*
X217628784Y-125390409D01*
X217720423Y-125423945D01*
X217780583Y-125439504D01*
X217840407Y-125455871D01*
X217849846Y-125457417D01*
X217849853Y-125457419D01*
X217849861Y-125457419D01*
X217946253Y-125472516D01*
X218008231Y-125476091D01*
X218070166Y-125480531D01*
X218079725Y-125480214D01*
X218177230Y-125476299D01*
X218238698Y-125467770D01*
X218300333Y-125460094D01*
X218309648Y-125457927D01*
X218404535Y-125435148D01*
X218463223Y-125414826D01*
X218522152Y-125395338D01*
X218530869Y-125391402D01*
X218619202Y-125350774D01*
X218619519Y-125350631D01*
X218631764Y-125344999D01*
X220130132Y-125344999D01*
X220139264Y-125350420D01*
X220147954Y-125354415D01*
X220236896Y-125394562D01*
X220295712Y-125414463D01*
X220354230Y-125435178D01*
X220363527Y-125437409D01*
X220363532Y-125437411D01*
X220363537Y-125437412D01*
X220458576Y-125459517D01*
X220520125Y-125467613D01*
X220581565Y-125476570D01*
X220591122Y-125476953D01*
X220688651Y-125480178D01*
X220750616Y-125476164D01*
X220812619Y-125473016D01*
X220822068Y-125471535D01*
X220918366Y-125455754D01*
X220978362Y-125439783D01*
X221038566Y-125424654D01*
X221047547Y-125421366D01*
X221047556Y-125421363D01*
X221047559Y-125421361D01*
X221138947Y-125387182D01*
X221194686Y-125359868D01*
X221250827Y-125333323D01*
X221258999Y-125328354D01*
X221342018Y-125277068D01*
X221391429Y-125239418D01*
X221441308Y-125202501D01*
X221448359Y-125196039D01*
X221519835Y-125129604D01*
X221560960Y-125083110D01*
X221602740Y-125037184D01*
X221608402Y-125029475D01*
X221662164Y-124955191D01*
X221694250Y-124954999D01*
X221853000Y-124796249D01*
X221853000Y-124436460D01*
X221858234Y-124402230D01*
X221858683Y-124392677D01*
X221862588Y-124295172D01*
X221859008Y-124233208D01*
X221856292Y-124171166D01*
X221854878Y-124161707D01*
X221853000Y-124149724D01*
X221853000Y-124036999D01*
X221833000Y-124036999D01*
X221833000Y-123782999D01*
X221853000Y-123782999D01*
X221853000Y-123762999D01*
X222107000Y-123762999D01*
X222107000Y-123782999D01*
X222127000Y-123782999D01*
X222127000Y-124036999D01*
X222107000Y-124036999D01*
X222107000Y-124796249D01*
X222177975Y-124867224D01*
X219244200Y-127800999D01*
X216275321Y-127800999D01*
X216237998Y-127797323D01*
X216200676Y-127800999D01*
X216200666Y-127800999D01*
X216109278Y-127810000D01*
X214906417Y-127810000D01*
X214928392Y-127799792D01*
X215139670Y-127645351D01*
X215316759Y-127452660D01*
X215452853Y-127229123D01*
X215542722Y-126983330D01*
X215420201Y-126777000D01*
X214377000Y-126777000D01*
X214377000Y-126797000D01*
X214123000Y-126797000D01*
X214123000Y-126777000D01*
X213079799Y-126777000D01*
X212957278Y-126983330D01*
X213047147Y-127229123D01*
X213183241Y-127452660D01*
X213360330Y-127645351D01*
X213571608Y-127799792D01*
X213593583Y-127810000D01*
X189183887Y-127810000D01*
X189231185Y-127771184D01*
X189310537Y-127674493D01*
X189369502Y-127564179D01*
X189405812Y-127444481D01*
X189418072Y-127319999D01*
X189415000Y-127195749D01*
X189256250Y-127036999D01*
X188107000Y-127036999D01*
X188107000Y-127056999D01*
X187853000Y-127056999D01*
X187853000Y-127036999D01*
X187833000Y-127036999D01*
X187833000Y-126782999D01*
X187853000Y-126782999D01*
X187853000Y-126762999D01*
X188107000Y-126762999D01*
X188107000Y-126782999D01*
X189256250Y-126782999D01*
X189415000Y-126624249D01*
X189418072Y-126499999D01*
X189405812Y-126375517D01*
X189369502Y-126255819D01*
X189310537Y-126145505D01*
X189299755Y-126132368D01*
X189363260Y-126013559D01*
X189404236Y-125878478D01*
X189418072Y-125737999D01*
X189418072Y-125081999D01*
X189404236Y-124941520D01*
X189363260Y-124806439D01*
X189296718Y-124681948D01*
X189207168Y-124572831D01*
X189098051Y-124483281D01*
X188973560Y-124416739D01*
X188838479Y-124375763D01*
X188698000Y-124361927D01*
X188416730Y-124361927D01*
X188213704Y-124158901D01*
X193819100Y-124158901D01*
X194696205Y-125036008D01*
X194719999Y-125065001D01*
X194748992Y-125088795D01*
X194748996Y-125088799D01*
X194807929Y-125137163D01*
X194835724Y-125159974D01*
X194901832Y-125195310D01*
X194920703Y-125240869D01*
X195086096Y-125488398D01*
X195296602Y-125698904D01*
X195544131Y-125864297D01*
X195819170Y-125978222D01*
X196111150Y-126036300D01*
X196408850Y-126036300D01*
X196700830Y-125978222D01*
X196975869Y-125864297D01*
X197223398Y-125698904D01*
X197433904Y-125488398D01*
X197460000Y-125449342D01*
X197460000Y-126037581D01*
X197456807Y-126070000D01*
X197469550Y-126199383D01*
X197507290Y-126323793D01*
X197568575Y-126438450D01*
X197640814Y-126526473D01*
X197651052Y-126538948D01*
X197751550Y-126621425D01*
X197866207Y-126682710D01*
X197990617Y-126720450D01*
X198120000Y-126733193D01*
X198152419Y-126730000D01*
X209657581Y-126730000D01*
X209690000Y-126733193D01*
X209722419Y-126730000D01*
X209819383Y-126720450D01*
X209943793Y-126682710D01*
X210058450Y-126621425D01*
X210158948Y-126538948D01*
X210241425Y-126438450D01*
X210302710Y-126323793D01*
X210304870Y-126316670D01*
X212957278Y-126316670D01*
X213079799Y-126523000D01*
X214123000Y-126523000D01*
X214123000Y-125480626D01*
X214377000Y-125480626D01*
X214377000Y-126523000D01*
X215420201Y-126523000D01*
X215542722Y-126316670D01*
X215452853Y-126070877D01*
X215316759Y-125847340D01*
X215139670Y-125654649D01*
X214928392Y-125500208D01*
X214691044Y-125389953D01*
X214583329Y-125357284D01*
X214377000Y-125480626D01*
X214123000Y-125480626D01*
X213916671Y-125357284D01*
X213808956Y-125389953D01*
X213571608Y-125500208D01*
X213360330Y-125654649D01*
X213183241Y-125847340D01*
X213047147Y-126070877D01*
X212957278Y-126316670D01*
X210304870Y-126316670D01*
X210340450Y-126199383D01*
X210353193Y-126070000D01*
X210350000Y-126037581D01*
X210350000Y-125512302D01*
X210536602Y-125698904D01*
X210784131Y-125864297D01*
X211059170Y-125978222D01*
X211351150Y-126036300D01*
X211648850Y-126036300D01*
X211940830Y-125978222D01*
X212215869Y-125864297D01*
X212463398Y-125698904D01*
X212673904Y-125488398D01*
X212839297Y-125240869D01*
X212953222Y-124965830D01*
X213011300Y-124673850D01*
X213011300Y-124376150D01*
X212953222Y-124084170D01*
X212839297Y-123809131D01*
X212673904Y-123561602D01*
X212463398Y-123351096D01*
X212319580Y-123255000D01*
X212463398Y-123158904D01*
X212673904Y-122948398D01*
X212839297Y-122700869D01*
X212953222Y-122425830D01*
X213011300Y-122133850D01*
X213011300Y-122068035D01*
X213066939Y-122202359D01*
%TA.AperFunction,Conductor*%
D24*
G36*
X213066939Y-122202359D02*
G01*
X213213038Y-122421013D01*
X213398987Y-122606962D01*
X213617641Y-122753061D01*
X213860595Y-122853696D01*
X214118514Y-122905000D01*
X214381486Y-122905000D01*
X214639405Y-122853696D01*
X214794999Y-122789247D01*
X214794999Y-123447676D01*
X214791323Y-123484998D01*
X214794999Y-123522320D01*
X214794999Y-123522330D01*
X214805996Y-123633983D01*
X214844822Y-123761976D01*
X214849453Y-123777244D01*
X214920025Y-123909274D01*
X214952730Y-123949125D01*
X215014998Y-124024999D01*
X215044002Y-124048802D01*
X215353807Y-124358607D01*
X215355764Y-124378478D01*
X215396740Y-124513559D01*
X215463282Y-124638050D01*
X215552832Y-124747167D01*
X215661949Y-124836717D01*
X215786440Y-124903259D01*
X215921521Y-124944235D01*
X216062000Y-124958071D01*
X217099542Y-124958071D01*
X217156806Y-125036029D01*
X217198256Y-125082226D01*
X217239081Y-125129026D01*
X217246087Y-125135537D01*
X217318032Y-125201464D01*
X217367663Y-125238729D01*
X217416800Y-125276707D01*
X217424937Y-125281733D01*
X217508316Y-125332430D01*
X217564274Y-125359362D01*
X217619825Y-125387059D01*
X217628784Y-125390409D01*
X217720423Y-125423945D01*
X217780583Y-125439504D01*
X217840407Y-125455871D01*
X217849846Y-125457417D01*
X217849853Y-125457419D01*
X217849861Y-125457419D01*
X217946253Y-125472516D01*
X218008231Y-125476091D01*
X218070166Y-125480531D01*
X218079725Y-125480214D01*
X218177230Y-125476299D01*
X218238698Y-125467770D01*
X218300333Y-125460094D01*
X218309648Y-125457927D01*
X218404535Y-125435148D01*
X218463223Y-125414826D01*
X218522152Y-125395338D01*
X218530869Y-125391402D01*
X218619202Y-125350774D01*
X218619519Y-125350631D01*
X218631764Y-125344999D01*
X220130132Y-125344999D01*
X220139264Y-125350420D01*
X220147954Y-125354415D01*
X220236896Y-125394562D01*
X220295712Y-125414463D01*
X220354230Y-125435178D01*
X220363527Y-125437409D01*
X220363532Y-125437411D01*
X220363537Y-125437412D01*
X220458576Y-125459517D01*
X220520125Y-125467613D01*
X220581565Y-125476570D01*
X220591122Y-125476953D01*
X220688651Y-125480178D01*
X220750616Y-125476164D01*
X220812619Y-125473016D01*
X220822068Y-125471535D01*
X220918366Y-125455754D01*
X220978362Y-125439783D01*
X221038566Y-125424654D01*
X221047547Y-125421366D01*
X221047556Y-125421363D01*
X221047559Y-125421361D01*
X221138947Y-125387182D01*
X221194686Y-125359868D01*
X221250827Y-125333323D01*
X221258999Y-125328354D01*
X221342018Y-125277068D01*
X221391429Y-125239418D01*
X221441308Y-125202501D01*
X221448359Y-125196039D01*
X221519835Y-125129604D01*
X221560960Y-125083110D01*
X221602740Y-125037184D01*
X221608402Y-125029475D01*
X221662164Y-124955191D01*
X221694250Y-124954999D01*
X221853000Y-124796249D01*
X221853000Y-124436460D01*
X221858234Y-124402230D01*
X221858683Y-124392677D01*
X221862588Y-124295172D01*
X221859008Y-124233208D01*
X221856292Y-124171166D01*
X221854878Y-124161707D01*
X221853000Y-124149724D01*
X221853000Y-124036999D01*
X221833000Y-124036999D01*
X221833000Y-123782999D01*
X221853000Y-123782999D01*
X221853000Y-123762999D01*
X222107000Y-123762999D01*
X222107000Y-123782999D01*
X222127000Y-123782999D01*
X222127000Y-124036999D01*
X222107000Y-124036999D01*
X222107000Y-124796249D01*
X222177975Y-124867224D01*
X219244200Y-127800999D01*
X216275321Y-127800999D01*
X216237998Y-127797323D01*
X216200676Y-127800999D01*
X216200666Y-127800999D01*
X216109278Y-127810000D01*
X214906417Y-127810000D01*
X214928392Y-127799792D01*
X215139670Y-127645351D01*
X215316759Y-127452660D01*
X215452853Y-127229123D01*
X215542722Y-126983330D01*
X215420201Y-126777000D01*
X214377000Y-126777000D01*
X214377000Y-126797000D01*
X214123000Y-126797000D01*
X214123000Y-126777000D01*
X213079799Y-126777000D01*
X212957278Y-126983330D01*
X213047147Y-127229123D01*
X213183241Y-127452660D01*
X213360330Y-127645351D01*
X213571608Y-127799792D01*
X213593583Y-127810000D01*
X189183887Y-127810000D01*
X189231185Y-127771184D01*
X189310537Y-127674493D01*
X189369502Y-127564179D01*
X189405812Y-127444481D01*
X189418072Y-127319999D01*
X189415000Y-127195749D01*
X189256250Y-127036999D01*
X188107000Y-127036999D01*
X188107000Y-127056999D01*
X187853000Y-127056999D01*
X187853000Y-127036999D01*
X187833000Y-127036999D01*
X187833000Y-126782999D01*
X187853000Y-126782999D01*
X187853000Y-126762999D01*
X188107000Y-126762999D01*
X188107000Y-126782999D01*
X189256250Y-126782999D01*
X189415000Y-126624249D01*
X189418072Y-126499999D01*
X189405812Y-126375517D01*
X189369502Y-126255819D01*
X189310537Y-126145505D01*
X189299755Y-126132368D01*
X189363260Y-126013559D01*
X189404236Y-125878478D01*
X189418072Y-125737999D01*
X189418072Y-125081999D01*
X189404236Y-124941520D01*
X189363260Y-124806439D01*
X189296718Y-124681948D01*
X189207168Y-124572831D01*
X189098051Y-124483281D01*
X188973560Y-124416739D01*
X188838479Y-124375763D01*
X188698000Y-124361927D01*
X188416730Y-124361927D01*
X188213704Y-124158901D01*
X193819100Y-124158901D01*
X194696205Y-125036008D01*
X194719999Y-125065001D01*
X194748992Y-125088795D01*
X194748996Y-125088799D01*
X194807929Y-125137163D01*
X194835724Y-125159974D01*
X194901832Y-125195310D01*
X194920703Y-125240869D01*
X195086096Y-125488398D01*
X195296602Y-125698904D01*
X195544131Y-125864297D01*
X195819170Y-125978222D01*
X196111150Y-126036300D01*
X196408850Y-126036300D01*
X196700830Y-125978222D01*
X196975869Y-125864297D01*
X197223398Y-125698904D01*
X197433904Y-125488398D01*
X197460000Y-125449342D01*
X197460000Y-126037581D01*
X197456807Y-126070000D01*
X197469550Y-126199383D01*
X197507290Y-126323793D01*
X197568575Y-126438450D01*
X197640814Y-126526473D01*
X197651052Y-126538948D01*
X197751550Y-126621425D01*
X197866207Y-126682710D01*
X197990617Y-126720450D01*
X198120000Y-126733193D01*
X198152419Y-126730000D01*
X209657581Y-126730000D01*
X209690000Y-126733193D01*
X209722419Y-126730000D01*
X209819383Y-126720450D01*
X209943793Y-126682710D01*
X210058450Y-126621425D01*
X210158948Y-126538948D01*
X210241425Y-126438450D01*
X210302710Y-126323793D01*
X210304870Y-126316670D01*
X212957278Y-126316670D01*
X213079799Y-126523000D01*
X214123000Y-126523000D01*
X214123000Y-125480626D01*
X214377000Y-125480626D01*
X214377000Y-126523000D01*
X215420201Y-126523000D01*
X215542722Y-126316670D01*
X215452853Y-126070877D01*
X215316759Y-125847340D01*
X215139670Y-125654649D01*
X214928392Y-125500208D01*
X214691044Y-125389953D01*
X214583329Y-125357284D01*
X214377000Y-125480626D01*
X214123000Y-125480626D01*
X213916671Y-125357284D01*
X213808956Y-125389953D01*
X213571608Y-125500208D01*
X213360330Y-125654649D01*
X213183241Y-125847340D01*
X213047147Y-126070877D01*
X212957278Y-126316670D01*
X210304870Y-126316670D01*
X210340450Y-126199383D01*
X210353193Y-126070000D01*
X210350000Y-126037581D01*
X210350000Y-125512302D01*
X210536602Y-125698904D01*
X210784131Y-125864297D01*
X211059170Y-125978222D01*
X211351150Y-126036300D01*
X211648850Y-126036300D01*
X211940830Y-125978222D01*
X212215869Y-125864297D01*
X212463398Y-125698904D01*
X212673904Y-125488398D01*
X212839297Y-125240869D01*
X212953222Y-124965830D01*
X213011300Y-124673850D01*
X213011300Y-124376150D01*
X212953222Y-124084170D01*
X212839297Y-123809131D01*
X212673904Y-123561602D01*
X212463398Y-123351096D01*
X212319580Y-123255000D01*
X212463398Y-123158904D01*
X212673904Y-122948398D01*
X212839297Y-122700869D01*
X212953222Y-122425830D01*
X213011300Y-122133850D01*
X213011300Y-122068035D01*
X213066939Y-122202359D01*
G37*
%TD.AperFunction*%
D23*
X170706928Y-117250000D02*
X170719188Y-117374482D01*
X170755498Y-117494180D01*
X170814463Y-117604494D01*
X170893815Y-117701185D01*
X170990506Y-117780537D01*
X171100820Y-117839502D01*
X171220518Y-117875812D01*
X171345000Y-117888072D01*
X171965674Y-117888072D01*
X171985026Y-117924276D01*
X172008308Y-117952645D01*
X172079999Y-118040001D01*
X172109003Y-118063804D01*
X177270138Y-123224940D01*
X174604553Y-123224940D01*
X174567228Y-123221264D01*
X174529903Y-123224940D01*
X174529895Y-123224940D01*
X174418242Y-123235937D01*
X174274981Y-123279394D01*
X174142952Y-123349966D01*
X174027227Y-123444939D01*
X174003429Y-123473937D01*
X170323309Y-127154058D01*
X170206250Y-127036999D01*
X169057000Y-127036999D01*
X169057000Y-127056999D01*
X168803000Y-127056999D01*
X168803000Y-127036999D01*
X168783000Y-127036999D01*
X168783000Y-126782999D01*
X168803000Y-126782999D01*
X168803000Y-126762999D01*
X169057000Y-126762999D01*
X169057000Y-126782999D01*
X170206250Y-126782999D01*
X170365000Y-126624249D01*
X170368072Y-126499999D01*
X170355812Y-126375517D01*
X170319502Y-126255819D01*
X170260537Y-126145505D01*
X170249755Y-126132368D01*
X170313260Y-126013559D01*
X170354236Y-125878478D01*
X170368072Y-125737999D01*
X170368072Y-125081999D01*
X170354236Y-124941520D01*
X170313260Y-124806439D01*
X170246718Y-124681948D01*
X170157168Y-124572831D01*
X170048051Y-124483281D01*
X169923560Y-124416739D01*
X169788479Y-124375763D01*
X169690000Y-124366064D01*
X169690000Y-120933652D01*
X169924100Y-120933652D01*
X169924100Y-121226348D01*
X169981202Y-121513421D01*
X170093212Y-121783838D01*
X170255826Y-122027206D01*
X170462794Y-122234174D01*
X170706162Y-122396788D01*
X170976579Y-122508798D01*
X171263652Y-122565900D01*
X171556348Y-122565900D01*
X171843421Y-122508798D01*
X172113838Y-122396788D01*
X172357206Y-122234174D01*
X172564174Y-122027206D01*
X172726788Y-121783838D01*
X172838798Y-121513421D01*
X172895900Y-121226348D01*
X172895900Y-120933652D01*
X172838798Y-120646579D01*
X172726788Y-120376162D01*
X172564174Y-120132794D01*
X172357206Y-119925826D01*
X172113838Y-119763212D01*
X171843421Y-119651202D01*
X171556348Y-119594100D01*
X171263652Y-119594100D01*
X170976579Y-119651202D01*
X170706162Y-119763212D01*
X170462794Y-119925826D01*
X170255826Y-120132794D01*
X170093212Y-120376162D01*
X169981202Y-120646579D01*
X169924100Y-120933652D01*
X169690000Y-120933652D01*
X169690000Y-118798335D01*
X169693677Y-118761002D01*
X169687275Y-118695997D01*
X169679003Y-118612016D01*
X169635546Y-118468755D01*
X169564974Y-118336726D01*
X169470001Y-118221001D01*
X169441004Y-118197204D01*
X169329272Y-118085472D01*
X169492756Y-118052953D01*
X169881302Y-117892012D01*
X170230983Y-117658363D01*
X170528363Y-117360983D01*
X170706928Y-117093741D01*
X170706928Y-117250000D01*
%TA.AperFunction,Conductor*%
D24*
G36*
X170706928Y-117250000D02*
G01*
X170719188Y-117374482D01*
X170755498Y-117494180D01*
X170814463Y-117604494D01*
X170893815Y-117701185D01*
X170990506Y-117780537D01*
X171100820Y-117839502D01*
X171220518Y-117875812D01*
X171345000Y-117888072D01*
X171965674Y-117888072D01*
X171985026Y-117924276D01*
X172008308Y-117952645D01*
X172079999Y-118040001D01*
X172109003Y-118063804D01*
X177270138Y-123224940D01*
X174604553Y-123224940D01*
X174567228Y-123221264D01*
X174529903Y-123224940D01*
X174529895Y-123224940D01*
X174418242Y-123235937D01*
X174274981Y-123279394D01*
X174142952Y-123349966D01*
X174027227Y-123444939D01*
X174003429Y-123473937D01*
X170323309Y-127154058D01*
X170206250Y-127036999D01*
X169057000Y-127036999D01*
X169057000Y-127056999D01*
X168803000Y-127056999D01*
X168803000Y-127036999D01*
X168783000Y-127036999D01*
X168783000Y-126782999D01*
X168803000Y-126782999D01*
X168803000Y-126762999D01*
X169057000Y-126762999D01*
X169057000Y-126782999D01*
X170206250Y-126782999D01*
X170365000Y-126624249D01*
X170368072Y-126499999D01*
X170355812Y-126375517D01*
X170319502Y-126255819D01*
X170260537Y-126145505D01*
X170249755Y-126132368D01*
X170313260Y-126013559D01*
X170354236Y-125878478D01*
X170368072Y-125737999D01*
X170368072Y-125081999D01*
X170354236Y-124941520D01*
X170313260Y-124806439D01*
X170246718Y-124681948D01*
X170157168Y-124572831D01*
X170048051Y-124483281D01*
X169923560Y-124416739D01*
X169788479Y-124375763D01*
X169690000Y-124366064D01*
X169690000Y-120933652D01*
X169924100Y-120933652D01*
X169924100Y-121226348D01*
X169981202Y-121513421D01*
X170093212Y-121783838D01*
X170255826Y-122027206D01*
X170462794Y-122234174D01*
X170706162Y-122396788D01*
X170976579Y-122508798D01*
X171263652Y-122565900D01*
X171556348Y-122565900D01*
X171843421Y-122508798D01*
X172113838Y-122396788D01*
X172357206Y-122234174D01*
X172564174Y-122027206D01*
X172726788Y-121783838D01*
X172838798Y-121513421D01*
X172895900Y-121226348D01*
X172895900Y-120933652D01*
X172838798Y-120646579D01*
X172726788Y-120376162D01*
X172564174Y-120132794D01*
X172357206Y-119925826D01*
X172113838Y-119763212D01*
X171843421Y-119651202D01*
X171556348Y-119594100D01*
X171263652Y-119594100D01*
X170976579Y-119651202D01*
X170706162Y-119763212D01*
X170462794Y-119925826D01*
X170255826Y-120132794D01*
X170093212Y-120376162D01*
X169981202Y-120646579D01*
X169924100Y-120933652D01*
X169690000Y-120933652D01*
X169690000Y-118798335D01*
X169693677Y-118761002D01*
X169687275Y-118695997D01*
X169679003Y-118612016D01*
X169635546Y-118468755D01*
X169564974Y-118336726D01*
X169470001Y-118221001D01*
X169441004Y-118197204D01*
X169329272Y-118085472D01*
X169492756Y-118052953D01*
X169881302Y-117892012D01*
X170230983Y-117658363D01*
X170528363Y-117360983D01*
X170706928Y-117093741D01*
X170706928Y-117250000D01*
G37*
%TD.AperFunction*%
D23*
X225600000Y-101876224D02*
X225600000Y-109316928D01*
X223980000Y-109316928D01*
X223855518Y-109329188D01*
X223735820Y-109365498D01*
X223625506Y-109424463D01*
X223528815Y-109503815D01*
X223449463Y-109600506D01*
X223390498Y-109710820D01*
X223354188Y-109830518D01*
X223341928Y-109955000D01*
X223341928Y-113155000D01*
X223354188Y-113279482D01*
X223390498Y-113399180D01*
X223449463Y-113509494D01*
X223528815Y-113606185D01*
X223625506Y-113685537D01*
X223735820Y-113744502D01*
X223855518Y-113780812D01*
X223980000Y-113793072D01*
X225599999Y-113793072D01*
X225599999Y-120833397D01*
X225556962Y-120768987D01*
X225371013Y-120583038D01*
X225152359Y-120436939D01*
X224909405Y-120336304D01*
X224651486Y-120285000D01*
X224388514Y-120285000D01*
X224130595Y-120336304D01*
X223887641Y-120436939D01*
X223668987Y-120583038D01*
X223483038Y-120768987D01*
X223336939Y-120987641D01*
X223236304Y-121230595D01*
X223185000Y-121488514D01*
X223185000Y-121554638D01*
X223098051Y-121483281D01*
X222973560Y-121416739D01*
X222838479Y-121375763D01*
X222698000Y-121361927D01*
X221660459Y-121361927D01*
X221603195Y-121283969D01*
X221561745Y-121237772D01*
X221520920Y-121190972D01*
X221513914Y-121184461D01*
X221441969Y-121118534D01*
X221392324Y-121081259D01*
X221343198Y-121043289D01*
X221335061Y-121038263D01*
X221251681Y-120987566D01*
X221195720Y-120960634D01*
X221140181Y-120932942D01*
X221131223Y-120929592D01*
X221039584Y-120896055D01*
X220979470Y-120880508D01*
X220919587Y-120864125D01*
X220910149Y-120862579D01*
X220813742Y-120847481D01*
X220751759Y-120843906D01*
X220689836Y-120839467D01*
X220680277Y-120839783D01*
X220582771Y-120843699D01*
X220521312Y-120852226D01*
X220459667Y-120859904D01*
X220450352Y-120862071D01*
X220355465Y-120884850D01*
X220296778Y-120905171D01*
X220237854Y-120924658D01*
X220229137Y-120928593D01*
X220140482Y-120969368D01*
X220128237Y-120975000D01*
X218629868Y-120975000D01*
X218620736Y-120969579D01*
X218612046Y-120965584D01*
X218523104Y-120925437D01*
X218464281Y-120905533D01*
X218405771Y-120884821D01*
X218396471Y-120882589D01*
X218396468Y-120882588D01*
X218396465Y-120882588D01*
X218301426Y-120860482D01*
X218239863Y-120852384D01*
X218178436Y-120843429D01*
X218168879Y-120843046D01*
X218071349Y-120839821D01*
X218009396Y-120843834D01*
X217947389Y-120846982D01*
X217937940Y-120848463D01*
X217841642Y-120864243D01*
X217781666Y-120880209D01*
X217721435Y-120895344D01*
X217712453Y-120898632D01*
X217621054Y-120932816D01*
X217612031Y-120937238D01*
X217573937Y-120880226D01*
X217429774Y-120736063D01*
X217365433Y-120693072D01*
X217880000Y-120693072D01*
X218004482Y-120680812D01*
X218124180Y-120644502D01*
X218234494Y-120585537D01*
X218331185Y-120506185D01*
X218410537Y-120409494D01*
X218465976Y-120305777D01*
X218519956Y-120454814D01*
X218809571Y-120595704D01*
X219121108Y-120677384D01*
X219442595Y-120696718D01*
X219761675Y-120652961D01*
X220066088Y-120547795D01*
X220240044Y-120454814D01*
X220335808Y-120190413D01*
X219380000Y-119234605D01*
X219365858Y-119248748D01*
X219186253Y-119069143D01*
X219200395Y-119055000D01*
X219559605Y-119055000D01*
X220515413Y-120010808D01*
X220545075Y-120000065D01*
X220610013Y-120097252D01*
X220837748Y-120324987D01*
X221105537Y-120503918D01*
X221403088Y-120627168D01*
X221718967Y-120690000D01*
X222041033Y-120690000D01*
X222356912Y-120627168D01*
X222654463Y-120503918D01*
X222922252Y-120324987D01*
X223149987Y-120097252D01*
X223328918Y-119829463D01*
X223452168Y-119531912D01*
X223515000Y-119216033D01*
X223515000Y-118893967D01*
X223452168Y-118578088D01*
X223328918Y-118280537D01*
X223149987Y-118012748D01*
X222922252Y-117785013D01*
X222654463Y-117606082D01*
X222356912Y-117482832D01*
X222041033Y-117420000D01*
X221718967Y-117420000D01*
X221403088Y-117482832D01*
X221105537Y-117606082D01*
X220837748Y-117785013D01*
X220610013Y-118012748D01*
X220545075Y-118109935D01*
X220515413Y-118099192D01*
X219559605Y-119055000D01*
X219200395Y-119055000D01*
X219186253Y-119040858D01*
X219365858Y-118861253D01*
X219380000Y-118875395D01*
X220335808Y-117919587D01*
X220240044Y-117655186D01*
X219950429Y-117514296D01*
X219638892Y-117432616D01*
X219317405Y-117413282D01*
X218998325Y-117457039D01*
X218693912Y-117562205D01*
X218519956Y-117655186D01*
X218465976Y-117804223D01*
X218410537Y-117700506D01*
X218331185Y-117603815D01*
X218234494Y-117524463D01*
X218124180Y-117465498D01*
X218004482Y-117429188D01*
X217880000Y-117416928D01*
X216314999Y-117416928D01*
X216314999Y-114339802D01*
X223716005Y-106938797D01*
X223745002Y-106915000D01*
X223839975Y-106799275D01*
X223910547Y-106667246D01*
X223954004Y-106523985D01*
X223965001Y-106412332D01*
X223965001Y-106412331D01*
X223968678Y-106374999D01*
X223965001Y-106337666D01*
X223965001Y-100241225D01*
X225600000Y-101876224D01*
%TA.AperFunction,Conductor*%
D24*
G36*
X225600000Y-101876224D02*
G01*
X225600000Y-109316928D01*
X223980000Y-109316928D01*
X223855518Y-109329188D01*
X223735820Y-109365498D01*
X223625506Y-109424463D01*
X223528815Y-109503815D01*
X223449463Y-109600506D01*
X223390498Y-109710820D01*
X223354188Y-109830518D01*
X223341928Y-109955000D01*
X223341928Y-113155000D01*
X223354188Y-113279482D01*
X223390498Y-113399180D01*
X223449463Y-113509494D01*
X223528815Y-113606185D01*
X223625506Y-113685537D01*
X223735820Y-113744502D01*
X223855518Y-113780812D01*
X223980000Y-113793072D01*
X225599999Y-113793072D01*
X225599999Y-120833397D01*
X225556962Y-120768987D01*
X225371013Y-120583038D01*
X225152359Y-120436939D01*
X224909405Y-120336304D01*
X224651486Y-120285000D01*
X224388514Y-120285000D01*
X224130595Y-120336304D01*
X223887641Y-120436939D01*
X223668987Y-120583038D01*
X223483038Y-120768987D01*
X223336939Y-120987641D01*
X223236304Y-121230595D01*
X223185000Y-121488514D01*
X223185000Y-121554638D01*
X223098051Y-121483281D01*
X222973560Y-121416739D01*
X222838479Y-121375763D01*
X222698000Y-121361927D01*
X221660459Y-121361927D01*
X221603195Y-121283969D01*
X221561745Y-121237772D01*
X221520920Y-121190972D01*
X221513914Y-121184461D01*
X221441969Y-121118534D01*
X221392324Y-121081259D01*
X221343198Y-121043289D01*
X221335061Y-121038263D01*
X221251681Y-120987566D01*
X221195720Y-120960634D01*
X221140181Y-120932942D01*
X221131223Y-120929592D01*
X221039584Y-120896055D01*
X220979470Y-120880508D01*
X220919587Y-120864125D01*
X220910149Y-120862579D01*
X220813742Y-120847481D01*
X220751759Y-120843906D01*
X220689836Y-120839467D01*
X220680277Y-120839783D01*
X220582771Y-120843699D01*
X220521312Y-120852226D01*
X220459667Y-120859904D01*
X220450352Y-120862071D01*
X220355465Y-120884850D01*
X220296778Y-120905171D01*
X220237854Y-120924658D01*
X220229137Y-120928593D01*
X220140482Y-120969368D01*
X220128237Y-120975000D01*
X218629868Y-120975000D01*
X218620736Y-120969579D01*
X218612046Y-120965584D01*
X218523104Y-120925437D01*
X218464281Y-120905533D01*
X218405771Y-120884821D01*
X218396471Y-120882589D01*
X218396468Y-120882588D01*
X218396465Y-120882588D01*
X218301426Y-120860482D01*
X218239863Y-120852384D01*
X218178436Y-120843429D01*
X218168879Y-120843046D01*
X218071349Y-120839821D01*
X218009396Y-120843834D01*
X217947389Y-120846982D01*
X217937940Y-120848463D01*
X217841642Y-120864243D01*
X217781666Y-120880209D01*
X217721435Y-120895344D01*
X217712453Y-120898632D01*
X217621054Y-120932816D01*
X217612031Y-120937238D01*
X217573937Y-120880226D01*
X217429774Y-120736063D01*
X217365433Y-120693072D01*
X217880000Y-120693072D01*
X218004482Y-120680812D01*
X218124180Y-120644502D01*
X218234494Y-120585537D01*
X218331185Y-120506185D01*
X218410537Y-120409494D01*
X218465976Y-120305777D01*
X218519956Y-120454814D01*
X218809571Y-120595704D01*
X219121108Y-120677384D01*
X219442595Y-120696718D01*
X219761675Y-120652961D01*
X220066088Y-120547795D01*
X220240044Y-120454814D01*
X220335808Y-120190413D01*
X219380000Y-119234605D01*
X219365858Y-119248748D01*
X219186253Y-119069143D01*
X219200395Y-119055000D01*
X219559605Y-119055000D01*
X220515413Y-120010808D01*
X220545075Y-120000065D01*
X220610013Y-120097252D01*
X220837748Y-120324987D01*
X221105537Y-120503918D01*
X221403088Y-120627168D01*
X221718967Y-120690000D01*
X222041033Y-120690000D01*
X222356912Y-120627168D01*
X222654463Y-120503918D01*
X222922252Y-120324987D01*
X223149987Y-120097252D01*
X223328918Y-119829463D01*
X223452168Y-119531912D01*
X223515000Y-119216033D01*
X223515000Y-118893967D01*
X223452168Y-118578088D01*
X223328918Y-118280537D01*
X223149987Y-118012748D01*
X222922252Y-117785013D01*
X222654463Y-117606082D01*
X222356912Y-117482832D01*
X222041033Y-117420000D01*
X221718967Y-117420000D01*
X221403088Y-117482832D01*
X221105537Y-117606082D01*
X220837748Y-117785013D01*
X220610013Y-118012748D01*
X220545075Y-118109935D01*
X220515413Y-118099192D01*
X219559605Y-119055000D01*
X219200395Y-119055000D01*
X219186253Y-119040858D01*
X219365858Y-118861253D01*
X219380000Y-118875395D01*
X220335808Y-117919587D01*
X220240044Y-117655186D01*
X219950429Y-117514296D01*
X219638892Y-117432616D01*
X219317405Y-117413282D01*
X218998325Y-117457039D01*
X218693912Y-117562205D01*
X218519956Y-117655186D01*
X218465976Y-117804223D01*
X218410537Y-117700506D01*
X218331185Y-117603815D01*
X218234494Y-117524463D01*
X218124180Y-117465498D01*
X218004482Y-117429188D01*
X217880000Y-117416928D01*
X216314999Y-117416928D01*
X216314999Y-114339802D01*
X223716005Y-106938797D01*
X223745002Y-106915000D01*
X223839975Y-106799275D01*
X223910547Y-106667246D01*
X223954004Y-106523985D01*
X223965001Y-106412332D01*
X223965001Y-106412331D01*
X223968678Y-106374999D01*
X223965001Y-106337666D01*
X223965001Y-100241225D01*
X225600000Y-101876224D01*
G37*
%TD.AperFunction*%
D23*
X164524774Y-111511898D02*
X164602795Y-111700256D01*
X164716063Y-111869774D01*
X164860226Y-112013937D01*
X165029744Y-112127205D01*
X165218102Y-112205226D01*
X165418061Y-112245000D01*
X165621939Y-112245000D01*
X165821898Y-112205226D01*
X166010256Y-112127205D01*
X166179774Y-112013937D01*
X166223711Y-111970000D01*
X176626201Y-111970000D01*
X179276701Y-114620501D01*
X179300500Y-114649500D01*
X179416225Y-114744473D01*
X179548254Y-114815045D01*
X179691515Y-114858502D01*
X179803168Y-114869499D01*
X179803178Y-114869499D01*
X179840501Y-114873175D01*
X179877824Y-114869499D01*
X186107634Y-114869499D01*
X186027988Y-114988698D01*
X185867047Y-115377244D01*
X185785000Y-115789721D01*
X185785000Y-116210279D01*
X185867047Y-116622756D01*
X186027988Y-117011302D01*
X186261637Y-117360983D01*
X186559017Y-117658363D01*
X186908698Y-117892012D01*
X187172057Y-118001099D01*
X184806903Y-118001099D01*
X183009805Y-116204002D01*
X182986002Y-116174998D01*
X182870277Y-116080025D01*
X182738248Y-116009453D01*
X182594987Y-115965996D01*
X182483334Y-115954999D01*
X182483323Y-115954999D01*
X182446001Y-115951323D01*
X182408679Y-115954999D01*
X179682323Y-115954999D01*
X179645000Y-115951323D01*
X179607677Y-115954999D01*
X179607668Y-115954999D01*
X179496015Y-115965996D01*
X179352754Y-116009453D01*
X179220725Y-116080025D01*
X179105000Y-116174998D01*
X179081202Y-116203996D01*
X178633270Y-116651928D01*
X176545000Y-116651928D01*
X176420518Y-116664188D01*
X176300820Y-116700498D01*
X176190506Y-116759463D01*
X176093815Y-116838815D01*
X176014463Y-116935506D01*
X175955498Y-117045820D01*
X175919188Y-117165518D01*
X175906928Y-117290000D01*
X175906928Y-119712127D01*
X174058713Y-117863912D01*
X174139180Y-117839502D01*
X174249494Y-117780537D01*
X174346185Y-117701185D01*
X174425537Y-117604494D01*
X174484502Y-117494180D01*
X174520812Y-117374482D01*
X174533072Y-117250000D01*
X174533072Y-114750000D01*
X174520812Y-114625518D01*
X174484502Y-114505820D01*
X174425537Y-114395506D01*
X174346185Y-114298815D01*
X174249494Y-114219463D01*
X174139180Y-114160498D01*
X174019482Y-114124188D01*
X173895000Y-114111928D01*
X171345000Y-114111928D01*
X171220518Y-114124188D01*
X171100820Y-114160498D01*
X170990506Y-114219463D01*
X170893815Y-114298815D01*
X170814463Y-114395506D01*
X170755498Y-114505820D01*
X170719188Y-114625518D01*
X170706928Y-114750000D01*
X170706928Y-114906259D01*
X170528363Y-114639017D01*
X170230983Y-114341637D01*
X169881302Y-114107988D01*
X169492756Y-113947047D01*
X169080279Y-113865000D01*
X168659721Y-113865000D01*
X168247244Y-113947047D01*
X167858698Y-114107988D01*
X167509017Y-114341637D01*
X167211637Y-114639017D01*
X166977988Y-114988698D01*
X166817047Y-115377244D01*
X166784528Y-115540728D01*
X164490000Y-113246201D01*
X164490000Y-111337076D01*
X164524774Y-111511898D01*
%TA.AperFunction,Conductor*%
D24*
G36*
X164524774Y-111511898D02*
G01*
X164602795Y-111700256D01*
X164716063Y-111869774D01*
X164860226Y-112013937D01*
X165029744Y-112127205D01*
X165218102Y-112205226D01*
X165418061Y-112245000D01*
X165621939Y-112245000D01*
X165821898Y-112205226D01*
X166010256Y-112127205D01*
X166179774Y-112013937D01*
X166223711Y-111970000D01*
X176626201Y-111970000D01*
X179276701Y-114620501D01*
X179300500Y-114649500D01*
X179416225Y-114744473D01*
X179548254Y-114815045D01*
X179691515Y-114858502D01*
X179803168Y-114869499D01*
X179803178Y-114869499D01*
X179840501Y-114873175D01*
X179877824Y-114869499D01*
X186107634Y-114869499D01*
X186027988Y-114988698D01*
X185867047Y-115377244D01*
X185785000Y-115789721D01*
X185785000Y-116210279D01*
X185867047Y-116622756D01*
X186027988Y-117011302D01*
X186261637Y-117360983D01*
X186559017Y-117658363D01*
X186908698Y-117892012D01*
X187172057Y-118001099D01*
X184806903Y-118001099D01*
X183009805Y-116204002D01*
X182986002Y-116174998D01*
X182870277Y-116080025D01*
X182738248Y-116009453D01*
X182594987Y-115965996D01*
X182483334Y-115954999D01*
X182483323Y-115954999D01*
X182446001Y-115951323D01*
X182408679Y-115954999D01*
X179682323Y-115954999D01*
X179645000Y-115951323D01*
X179607677Y-115954999D01*
X179607668Y-115954999D01*
X179496015Y-115965996D01*
X179352754Y-116009453D01*
X179220725Y-116080025D01*
X179105000Y-116174998D01*
X179081202Y-116203996D01*
X178633270Y-116651928D01*
X176545000Y-116651928D01*
X176420518Y-116664188D01*
X176300820Y-116700498D01*
X176190506Y-116759463D01*
X176093815Y-116838815D01*
X176014463Y-116935506D01*
X175955498Y-117045820D01*
X175919188Y-117165518D01*
X175906928Y-117290000D01*
X175906928Y-119712127D01*
X174058713Y-117863912D01*
X174139180Y-117839502D01*
X174249494Y-117780537D01*
X174346185Y-117701185D01*
X174425537Y-117604494D01*
X174484502Y-117494180D01*
X174520812Y-117374482D01*
X174533072Y-117250000D01*
X174533072Y-114750000D01*
X174520812Y-114625518D01*
X174484502Y-114505820D01*
X174425537Y-114395506D01*
X174346185Y-114298815D01*
X174249494Y-114219463D01*
X174139180Y-114160498D01*
X174019482Y-114124188D01*
X173895000Y-114111928D01*
X171345000Y-114111928D01*
X171220518Y-114124188D01*
X171100820Y-114160498D01*
X170990506Y-114219463D01*
X170893815Y-114298815D01*
X170814463Y-114395506D01*
X170755498Y-114505820D01*
X170719188Y-114625518D01*
X170706928Y-114750000D01*
X170706928Y-114906259D01*
X170528363Y-114639017D01*
X170230983Y-114341637D01*
X169881302Y-114107988D01*
X169492756Y-113947047D01*
X169080279Y-113865000D01*
X168659721Y-113865000D01*
X168247244Y-113947047D01*
X167858698Y-114107988D01*
X167509017Y-114341637D01*
X167211637Y-114639017D01*
X166977988Y-114988698D01*
X166817047Y-115377244D01*
X166784528Y-115540728D01*
X164490000Y-113246201D01*
X164490000Y-111337076D01*
X164524774Y-111511898D01*
G37*
%TD.AperFunction*%
D23*
X172436200Y-108371002D02*
X172459998Y-108400000D01*
X172575723Y-108494973D01*
X172707752Y-108565545D01*
X172851013Y-108609002D01*
X172962666Y-108619999D01*
X172962675Y-108619999D01*
X172999998Y-108623675D01*
X173037321Y-108619999D01*
X181489502Y-108619999D01*
X181552832Y-108697167D01*
X181661949Y-108786717D01*
X181786440Y-108853259D01*
X181921521Y-108894235D01*
X182062000Y-108908071D01*
X183099542Y-108908071D01*
X183156806Y-108986029D01*
X183198256Y-109032226D01*
X183239081Y-109079026D01*
X183246087Y-109085537D01*
X183318032Y-109151464D01*
X183367663Y-109188729D01*
X183416800Y-109226707D01*
X183424937Y-109231733D01*
X183508316Y-109282430D01*
X183564274Y-109309362D01*
X183619825Y-109337059D01*
X183628784Y-109340409D01*
X183720423Y-109373945D01*
X183780583Y-109389504D01*
X183840407Y-109405871D01*
X183849846Y-109407417D01*
X183849853Y-109407419D01*
X183849861Y-109407419D01*
X183946253Y-109422516D01*
X184008231Y-109426091D01*
X184070166Y-109430531D01*
X184079725Y-109430214D01*
X184177230Y-109426299D01*
X184238698Y-109417770D01*
X184300333Y-109410094D01*
X184309648Y-109407927D01*
X184404535Y-109385148D01*
X184463223Y-109364826D01*
X184522152Y-109345338D01*
X184530869Y-109341402D01*
X184619202Y-109300774D01*
X184619519Y-109300631D01*
X184631764Y-109294999D01*
X185909202Y-109294999D01*
X185829999Y-109359999D01*
X185806201Y-109388997D01*
X185008843Y-110186355D01*
X184901486Y-110165000D01*
X184638514Y-110165000D01*
X184380595Y-110216304D01*
X184137641Y-110316939D01*
X183918987Y-110463038D01*
X183733038Y-110648987D01*
X183586939Y-110867641D01*
X183486304Y-111110595D01*
X183435000Y-111368514D01*
X183435000Y-111631486D01*
X183486304Y-111889405D01*
X183586939Y-112132359D01*
X183733038Y-112351013D01*
X183918987Y-112536962D01*
X184137641Y-112683061D01*
X184380595Y-112783696D01*
X184638514Y-112835000D01*
X184901486Y-112835000D01*
X185159405Y-112783696D01*
X185402359Y-112683061D01*
X185621013Y-112536962D01*
X185806962Y-112351013D01*
X185953061Y-112132359D01*
X185983726Y-112058328D01*
X186030208Y-112158392D01*
X186184649Y-112369670D01*
X186377340Y-112546759D01*
X186600877Y-112682853D01*
X186846670Y-112772722D01*
X187053000Y-112650201D01*
X187053000Y-111607000D01*
X187307000Y-111607000D01*
X187307000Y-112650201D01*
X187513330Y-112772722D01*
X187759123Y-112682853D01*
X187982660Y-112546759D01*
X188175351Y-112369670D01*
X188329792Y-112158392D01*
X188440047Y-111921044D01*
X188472716Y-111813329D01*
X188349374Y-111607000D01*
X187307000Y-111607000D01*
X187053000Y-111607000D01*
X187033000Y-111607000D01*
X187033000Y-111353000D01*
X187053000Y-111353000D01*
X187053000Y-111333000D01*
X187307000Y-111333000D01*
X187307000Y-111353000D01*
X188349374Y-111353000D01*
X188472716Y-111146671D01*
X188440047Y-111038956D01*
X188329792Y-110801608D01*
X188226279Y-110660000D01*
X191202316Y-110660000D01*
X191076939Y-110847641D01*
X190976304Y-111090595D01*
X190925000Y-111348514D01*
X190925000Y-111611486D01*
X190976304Y-111869405D01*
X191076939Y-112112359D01*
X191223038Y-112331013D01*
X191408987Y-112516962D01*
X191627641Y-112663061D01*
X191870595Y-112763696D01*
X192128514Y-112815000D01*
X192391486Y-112815000D01*
X192649405Y-112763696D01*
X192892359Y-112663061D01*
X193111013Y-112516962D01*
X193296962Y-112331013D01*
X193443061Y-112112359D01*
X193543696Y-111869405D01*
X193595000Y-111611486D01*
X193595000Y-111348514D01*
X193573645Y-111241156D01*
X194769802Y-110045000D01*
X194950190Y-110045000D01*
X195086096Y-110248398D01*
X195296602Y-110458904D01*
X195440420Y-110555000D01*
X195296602Y-110651096D01*
X195086096Y-110861602D01*
X194920703Y-111109131D01*
X194806778Y-111384170D01*
X194748700Y-111676150D01*
X194748700Y-111973850D01*
X194806778Y-112265830D01*
X194920703Y-112540869D01*
X195086096Y-112788398D01*
X195296602Y-112998904D01*
X195440420Y-113095000D01*
X195296602Y-113191096D01*
X195086096Y-113401602D01*
X194920703Y-113649131D01*
X194806778Y-113924170D01*
X194748700Y-114216150D01*
X194748700Y-114513850D01*
X194806778Y-114805830D01*
X194910118Y-115055313D01*
X193453305Y-113598502D01*
X193429502Y-113569498D01*
X193313777Y-113474525D01*
X193181748Y-113403953D01*
X193038487Y-113360496D01*
X192926834Y-113349499D01*
X192926823Y-113349499D01*
X192889501Y-113345823D01*
X192852179Y-113349499D01*
X180155303Y-113349499D01*
X179508417Y-112702613D01*
X179563000Y-112670201D01*
X179563000Y-111627000D01*
X179817000Y-111627000D01*
X179817000Y-112670201D01*
X180023330Y-112792722D01*
X180269123Y-112702853D01*
X180492660Y-112566759D01*
X180685351Y-112389670D01*
X180839792Y-112178392D01*
X180950047Y-111941044D01*
X180982716Y-111833329D01*
X180859374Y-111627000D01*
X179817000Y-111627000D01*
X179563000Y-111627000D01*
X178520626Y-111627000D01*
X178487768Y-111681965D01*
X177972474Y-111166671D01*
X178397284Y-111166671D01*
X178520626Y-111373000D01*
X179563000Y-111373000D01*
X179563000Y-110329799D01*
X179817000Y-110329799D01*
X179817000Y-111373000D01*
X180859374Y-111373000D01*
X180982716Y-111166671D01*
X180950047Y-111058956D01*
X180839792Y-110821608D01*
X180685351Y-110610330D01*
X180492660Y-110433241D01*
X180269123Y-110297147D01*
X180023330Y-110207278D01*
X179817000Y-110329799D01*
X179563000Y-110329799D01*
X179356670Y-110207278D01*
X179110877Y-110297147D01*
X178887340Y-110433241D01*
X178694649Y-110610330D01*
X178540208Y-110821608D01*
X178429953Y-111058956D01*
X178397284Y-111166671D01*
X177972474Y-111166671D01*
X177504806Y-110699003D01*
X177481003Y-110669999D01*
X177365278Y-110575026D01*
X177233249Y-110504454D01*
X177089988Y-110460997D01*
X176978335Y-110450000D01*
X176978324Y-110450000D01*
X176941002Y-110446324D01*
X176903680Y-110450000D01*
X166223711Y-110450000D01*
X166179774Y-110406063D01*
X166010256Y-110292795D01*
X165821898Y-110214774D01*
X165621939Y-110175000D01*
X165418061Y-110175000D01*
X165218102Y-110214774D01*
X165029744Y-110292795D01*
X164860226Y-110406063D01*
X164716063Y-110550226D01*
X164602795Y-110719744D01*
X164524774Y-110908102D01*
X164490000Y-111082924D01*
X164490000Y-109297679D01*
X164514274Y-109309362D01*
X164569825Y-109337059D01*
X164578784Y-109340409D01*
X164670423Y-109373945D01*
X164730583Y-109389504D01*
X164790407Y-109405871D01*
X164799846Y-109407417D01*
X164799853Y-109407419D01*
X164799861Y-109407419D01*
X164896253Y-109422516D01*
X164958231Y-109426091D01*
X165020166Y-109430531D01*
X165029725Y-109430214D01*
X165127230Y-109426299D01*
X165188698Y-109417770D01*
X165250333Y-109410094D01*
X165259648Y-109407927D01*
X165354535Y-109385148D01*
X165413223Y-109364826D01*
X165472152Y-109345338D01*
X165480869Y-109341402D01*
X165569202Y-109300774D01*
X165569519Y-109300631D01*
X165581764Y-109294999D01*
X167080132Y-109294999D01*
X167089264Y-109300420D01*
X167097954Y-109304415D01*
X167186896Y-109344562D01*
X167245712Y-109364463D01*
X167304230Y-109385178D01*
X167313527Y-109387409D01*
X167313532Y-109387411D01*
X167313537Y-109387412D01*
X167408576Y-109409517D01*
X167470125Y-109417613D01*
X167531565Y-109426570D01*
X167541122Y-109426953D01*
X167638651Y-109430178D01*
X167700616Y-109426164D01*
X167762619Y-109423016D01*
X167772068Y-109421535D01*
X167868366Y-109405754D01*
X167928362Y-109389783D01*
X167988566Y-109374654D01*
X167997547Y-109371366D01*
X167997556Y-109371363D01*
X167997559Y-109371361D01*
X168088947Y-109337182D01*
X168144686Y-109309868D01*
X168200827Y-109283323D01*
X168208999Y-109278354D01*
X168292018Y-109227068D01*
X168341429Y-109189418D01*
X168391308Y-109152501D01*
X168398359Y-109146039D01*
X168469835Y-109079604D01*
X168510960Y-109033110D01*
X168552740Y-108987184D01*
X168558402Y-108979475D01*
X168612164Y-108905191D01*
X168644250Y-108904999D01*
X168803000Y-108746249D01*
X168803000Y-108386460D01*
X168808234Y-108352230D01*
X168808683Y-108342677D01*
X168812588Y-108245172D01*
X168809008Y-108183208D01*
X168806292Y-108121166D01*
X168804878Y-108111707D01*
X168803000Y-108099724D01*
X168803000Y-107986999D01*
X169057000Y-107986999D01*
X169057000Y-108746249D01*
X169215750Y-108904999D01*
X169730000Y-108908071D01*
X169854482Y-108895811D01*
X169974180Y-108859501D01*
X170084494Y-108800536D01*
X170181185Y-108721184D01*
X170260537Y-108624493D01*
X170319502Y-108514179D01*
X170355812Y-108394481D01*
X170368072Y-108269999D01*
X170365000Y-108145749D01*
X170206250Y-107986999D01*
X169057000Y-107986999D01*
X168803000Y-107986999D01*
X168783000Y-107986999D01*
X168783000Y-107732999D01*
X168803000Y-107732999D01*
X168803000Y-107712999D01*
X169057000Y-107712999D01*
X169057000Y-107732999D01*
X170206250Y-107732999D01*
X170365000Y-107574249D01*
X170368072Y-107449999D01*
X170355812Y-107325517D01*
X170319502Y-107205819D01*
X170273630Y-107119999D01*
X171185198Y-107119999D01*
X172436200Y-108371002D01*
%TA.AperFunction,Conductor*%
D24*
G36*
X172436200Y-108371002D02*
G01*
X172459998Y-108400000D01*
X172575723Y-108494973D01*
X172707752Y-108565545D01*
X172851013Y-108609002D01*
X172962666Y-108619999D01*
X172962675Y-108619999D01*
X172999998Y-108623675D01*
X173037321Y-108619999D01*
X181489502Y-108619999D01*
X181552832Y-108697167D01*
X181661949Y-108786717D01*
X181786440Y-108853259D01*
X181921521Y-108894235D01*
X182062000Y-108908071D01*
X183099542Y-108908071D01*
X183156806Y-108986029D01*
X183198256Y-109032226D01*
X183239081Y-109079026D01*
X183246087Y-109085537D01*
X183318032Y-109151464D01*
X183367663Y-109188729D01*
X183416800Y-109226707D01*
X183424937Y-109231733D01*
X183508316Y-109282430D01*
X183564274Y-109309362D01*
X183619825Y-109337059D01*
X183628784Y-109340409D01*
X183720423Y-109373945D01*
X183780583Y-109389504D01*
X183840407Y-109405871D01*
X183849846Y-109407417D01*
X183849853Y-109407419D01*
X183849861Y-109407419D01*
X183946253Y-109422516D01*
X184008231Y-109426091D01*
X184070166Y-109430531D01*
X184079725Y-109430214D01*
X184177230Y-109426299D01*
X184238698Y-109417770D01*
X184300333Y-109410094D01*
X184309648Y-109407927D01*
X184404535Y-109385148D01*
X184463223Y-109364826D01*
X184522152Y-109345338D01*
X184530869Y-109341402D01*
X184619202Y-109300774D01*
X184619519Y-109300631D01*
X184631764Y-109294999D01*
X185909202Y-109294999D01*
X185829999Y-109359999D01*
X185806201Y-109388997D01*
X185008843Y-110186355D01*
X184901486Y-110165000D01*
X184638514Y-110165000D01*
X184380595Y-110216304D01*
X184137641Y-110316939D01*
X183918987Y-110463038D01*
X183733038Y-110648987D01*
X183586939Y-110867641D01*
X183486304Y-111110595D01*
X183435000Y-111368514D01*
X183435000Y-111631486D01*
X183486304Y-111889405D01*
X183586939Y-112132359D01*
X183733038Y-112351013D01*
X183918987Y-112536962D01*
X184137641Y-112683061D01*
X184380595Y-112783696D01*
X184638514Y-112835000D01*
X184901486Y-112835000D01*
X185159405Y-112783696D01*
X185402359Y-112683061D01*
X185621013Y-112536962D01*
X185806962Y-112351013D01*
X185953061Y-112132359D01*
X185983726Y-112058328D01*
X186030208Y-112158392D01*
X186184649Y-112369670D01*
X186377340Y-112546759D01*
X186600877Y-112682853D01*
X186846670Y-112772722D01*
X187053000Y-112650201D01*
X187053000Y-111607000D01*
X187307000Y-111607000D01*
X187307000Y-112650201D01*
X187513330Y-112772722D01*
X187759123Y-112682853D01*
X187982660Y-112546759D01*
X188175351Y-112369670D01*
X188329792Y-112158392D01*
X188440047Y-111921044D01*
X188472716Y-111813329D01*
X188349374Y-111607000D01*
X187307000Y-111607000D01*
X187053000Y-111607000D01*
X187033000Y-111607000D01*
X187033000Y-111353000D01*
X187053000Y-111353000D01*
X187053000Y-111333000D01*
X187307000Y-111333000D01*
X187307000Y-111353000D01*
X188349374Y-111353000D01*
X188472716Y-111146671D01*
X188440047Y-111038956D01*
X188329792Y-110801608D01*
X188226279Y-110660000D01*
X191202316Y-110660000D01*
X191076939Y-110847641D01*
X190976304Y-111090595D01*
X190925000Y-111348514D01*
X190925000Y-111611486D01*
X190976304Y-111869405D01*
X191076939Y-112112359D01*
X191223038Y-112331013D01*
X191408987Y-112516962D01*
X191627641Y-112663061D01*
X191870595Y-112763696D01*
X192128514Y-112815000D01*
X192391486Y-112815000D01*
X192649405Y-112763696D01*
X192892359Y-112663061D01*
X193111013Y-112516962D01*
X193296962Y-112331013D01*
X193443061Y-112112359D01*
X193543696Y-111869405D01*
X193595000Y-111611486D01*
X193595000Y-111348514D01*
X193573645Y-111241156D01*
X194769802Y-110045000D01*
X194950190Y-110045000D01*
X195086096Y-110248398D01*
X195296602Y-110458904D01*
X195440420Y-110555000D01*
X195296602Y-110651096D01*
X195086096Y-110861602D01*
X194920703Y-111109131D01*
X194806778Y-111384170D01*
X194748700Y-111676150D01*
X194748700Y-111973850D01*
X194806778Y-112265830D01*
X194920703Y-112540869D01*
X195086096Y-112788398D01*
X195296602Y-112998904D01*
X195440420Y-113095000D01*
X195296602Y-113191096D01*
X195086096Y-113401602D01*
X194920703Y-113649131D01*
X194806778Y-113924170D01*
X194748700Y-114216150D01*
X194748700Y-114513850D01*
X194806778Y-114805830D01*
X194910118Y-115055313D01*
X193453305Y-113598502D01*
X193429502Y-113569498D01*
X193313777Y-113474525D01*
X193181748Y-113403953D01*
X193038487Y-113360496D01*
X192926834Y-113349499D01*
X192926823Y-113349499D01*
X192889501Y-113345823D01*
X192852179Y-113349499D01*
X180155303Y-113349499D01*
X179508417Y-112702613D01*
X179563000Y-112670201D01*
X179563000Y-111627000D01*
X179817000Y-111627000D01*
X179817000Y-112670201D01*
X180023330Y-112792722D01*
X180269123Y-112702853D01*
X180492660Y-112566759D01*
X180685351Y-112389670D01*
X180839792Y-112178392D01*
X180950047Y-111941044D01*
X180982716Y-111833329D01*
X180859374Y-111627000D01*
X179817000Y-111627000D01*
X179563000Y-111627000D01*
X178520626Y-111627000D01*
X178487768Y-111681965D01*
X177972474Y-111166671D01*
X178397284Y-111166671D01*
X178520626Y-111373000D01*
X179563000Y-111373000D01*
X179563000Y-110329799D01*
X179817000Y-110329799D01*
X179817000Y-111373000D01*
X180859374Y-111373000D01*
X180982716Y-111166671D01*
X180950047Y-111058956D01*
X180839792Y-110821608D01*
X180685351Y-110610330D01*
X180492660Y-110433241D01*
X180269123Y-110297147D01*
X180023330Y-110207278D01*
X179817000Y-110329799D01*
X179563000Y-110329799D01*
X179356670Y-110207278D01*
X179110877Y-110297147D01*
X178887340Y-110433241D01*
X178694649Y-110610330D01*
X178540208Y-110821608D01*
X178429953Y-111058956D01*
X178397284Y-111166671D01*
X177972474Y-111166671D01*
X177504806Y-110699003D01*
X177481003Y-110669999D01*
X177365278Y-110575026D01*
X177233249Y-110504454D01*
X177089988Y-110460997D01*
X176978335Y-110450000D01*
X176978324Y-110450000D01*
X176941002Y-110446324D01*
X176903680Y-110450000D01*
X166223711Y-110450000D01*
X166179774Y-110406063D01*
X166010256Y-110292795D01*
X165821898Y-110214774D01*
X165621939Y-110175000D01*
X165418061Y-110175000D01*
X165218102Y-110214774D01*
X165029744Y-110292795D01*
X164860226Y-110406063D01*
X164716063Y-110550226D01*
X164602795Y-110719744D01*
X164524774Y-110908102D01*
X164490000Y-111082924D01*
X164490000Y-109297679D01*
X164514274Y-109309362D01*
X164569825Y-109337059D01*
X164578784Y-109340409D01*
X164670423Y-109373945D01*
X164730583Y-109389504D01*
X164790407Y-109405871D01*
X164799846Y-109407417D01*
X164799853Y-109407419D01*
X164799861Y-109407419D01*
X164896253Y-109422516D01*
X164958231Y-109426091D01*
X165020166Y-109430531D01*
X165029725Y-109430214D01*
X165127230Y-109426299D01*
X165188698Y-109417770D01*
X165250333Y-109410094D01*
X165259648Y-109407927D01*
X165354535Y-109385148D01*
X165413223Y-109364826D01*
X165472152Y-109345338D01*
X165480869Y-109341402D01*
X165569202Y-109300774D01*
X165569519Y-109300631D01*
X165581764Y-109294999D01*
X167080132Y-109294999D01*
X167089264Y-109300420D01*
X167097954Y-109304415D01*
X167186896Y-109344562D01*
X167245712Y-109364463D01*
X167304230Y-109385178D01*
X167313527Y-109387409D01*
X167313532Y-109387411D01*
X167313537Y-109387412D01*
X167408576Y-109409517D01*
X167470125Y-109417613D01*
X167531565Y-109426570D01*
X167541122Y-109426953D01*
X167638651Y-109430178D01*
X167700616Y-109426164D01*
X167762619Y-109423016D01*
X167772068Y-109421535D01*
X167868366Y-109405754D01*
X167928362Y-109389783D01*
X167988566Y-109374654D01*
X167997547Y-109371366D01*
X167997556Y-109371363D01*
X167997559Y-109371361D01*
X168088947Y-109337182D01*
X168144686Y-109309868D01*
X168200827Y-109283323D01*
X168208999Y-109278354D01*
X168292018Y-109227068D01*
X168341429Y-109189418D01*
X168391308Y-109152501D01*
X168398359Y-109146039D01*
X168469835Y-109079604D01*
X168510960Y-109033110D01*
X168552740Y-108987184D01*
X168558402Y-108979475D01*
X168612164Y-108905191D01*
X168644250Y-108904999D01*
X168803000Y-108746249D01*
X168803000Y-108386460D01*
X168808234Y-108352230D01*
X168808683Y-108342677D01*
X168812588Y-108245172D01*
X168809008Y-108183208D01*
X168806292Y-108121166D01*
X168804878Y-108111707D01*
X168803000Y-108099724D01*
X168803000Y-107986999D01*
X169057000Y-107986999D01*
X169057000Y-108746249D01*
X169215750Y-108904999D01*
X169730000Y-108908071D01*
X169854482Y-108895811D01*
X169974180Y-108859501D01*
X170084494Y-108800536D01*
X170181185Y-108721184D01*
X170260537Y-108624493D01*
X170319502Y-108514179D01*
X170355812Y-108394481D01*
X170368072Y-108269999D01*
X170365000Y-108145749D01*
X170206250Y-107986999D01*
X169057000Y-107986999D01*
X168803000Y-107986999D01*
X168783000Y-107986999D01*
X168783000Y-107732999D01*
X168803000Y-107732999D01*
X168803000Y-107712999D01*
X169057000Y-107712999D01*
X169057000Y-107732999D01*
X170206250Y-107732999D01*
X170365000Y-107574249D01*
X170368072Y-107449999D01*
X170355812Y-107325517D01*
X170319502Y-107205819D01*
X170273630Y-107119999D01*
X171185198Y-107119999D01*
X172436200Y-108371002D01*
G37*
%TD.AperFunction*%
D23*
X192677068Y-105233158D02*
X192789010Y-105503411D01*
X192951525Y-105746632D01*
X193158368Y-105953475D01*
X193332760Y-106070000D01*
X193158368Y-106186525D01*
X192951525Y-106393368D01*
X192789010Y-106636589D01*
X192677068Y-106906842D01*
X192620000Y-107193740D01*
X192620000Y-107486260D01*
X192663790Y-107706408D01*
X191230199Y-109140000D01*
X187454856Y-109140000D01*
X187519835Y-109079604D01*
X187560960Y-109033110D01*
X187602740Y-108987184D01*
X187608402Y-108979475D01*
X187662164Y-108905191D01*
X187694250Y-108904999D01*
X187853000Y-108746249D01*
X187853000Y-108386460D01*
X187858234Y-108352230D01*
X187858683Y-108342677D01*
X187862588Y-108245172D01*
X187859008Y-108183208D01*
X187856292Y-108121166D01*
X187854878Y-108111707D01*
X187853000Y-108099724D01*
X187853000Y-107986999D01*
X188107000Y-107986999D01*
X188107000Y-108746249D01*
X188265750Y-108904999D01*
X188780000Y-108908071D01*
X188904482Y-108895811D01*
X189024180Y-108859501D01*
X189134494Y-108800536D01*
X189231185Y-108721184D01*
X189310537Y-108624493D01*
X189369502Y-108514179D01*
X189405812Y-108394481D01*
X189418072Y-108269999D01*
X189415000Y-108145749D01*
X189256250Y-107986999D01*
X188107000Y-107986999D01*
X187853000Y-107986999D01*
X187833000Y-107986999D01*
X187833000Y-107732999D01*
X187853000Y-107732999D01*
X187853000Y-107712999D01*
X188107000Y-107712999D01*
X188107000Y-107732999D01*
X189256250Y-107732999D01*
X189415000Y-107574249D01*
X189418072Y-107449999D01*
X189405812Y-107325517D01*
X189369502Y-107205819D01*
X189310537Y-107095505D01*
X189299755Y-107082368D01*
X189363260Y-106963559D01*
X189404236Y-106828478D01*
X189418072Y-106687999D01*
X189418072Y-106031999D01*
X189411312Y-105963360D01*
X189474570Y-105963360D01*
X189674529Y-105923586D01*
X189862887Y-105845565D01*
X189948501Y-105788360D01*
X191394401Y-105788360D01*
X191436640Y-105792520D01*
X191478879Y-105788360D01*
X191478886Y-105788360D01*
X191605229Y-105775916D01*
X191767340Y-105726741D01*
X191916742Y-105646884D01*
X192047694Y-105539414D01*
X192074628Y-105506595D01*
X192622483Y-104958741D01*
X192677068Y-105233158D01*
%TA.AperFunction,Conductor*%
D24*
G36*
X192677068Y-105233158D02*
G01*
X192789010Y-105503411D01*
X192951525Y-105746632D01*
X193158368Y-105953475D01*
X193332760Y-106070000D01*
X193158368Y-106186525D01*
X192951525Y-106393368D01*
X192789010Y-106636589D01*
X192677068Y-106906842D01*
X192620000Y-107193740D01*
X192620000Y-107486260D01*
X192663790Y-107706408D01*
X191230199Y-109140000D01*
X187454856Y-109140000D01*
X187519835Y-109079604D01*
X187560960Y-109033110D01*
X187602740Y-108987184D01*
X187608402Y-108979475D01*
X187662164Y-108905191D01*
X187694250Y-108904999D01*
X187853000Y-108746249D01*
X187853000Y-108386460D01*
X187858234Y-108352230D01*
X187858683Y-108342677D01*
X187862588Y-108245172D01*
X187859008Y-108183208D01*
X187856292Y-108121166D01*
X187854878Y-108111707D01*
X187853000Y-108099724D01*
X187853000Y-107986999D01*
X188107000Y-107986999D01*
X188107000Y-108746249D01*
X188265750Y-108904999D01*
X188780000Y-108908071D01*
X188904482Y-108895811D01*
X189024180Y-108859501D01*
X189134494Y-108800536D01*
X189231185Y-108721184D01*
X189310537Y-108624493D01*
X189369502Y-108514179D01*
X189405812Y-108394481D01*
X189418072Y-108269999D01*
X189415000Y-108145749D01*
X189256250Y-107986999D01*
X188107000Y-107986999D01*
X187853000Y-107986999D01*
X187833000Y-107986999D01*
X187833000Y-107732999D01*
X187853000Y-107732999D01*
X187853000Y-107712999D01*
X188107000Y-107712999D01*
X188107000Y-107732999D01*
X189256250Y-107732999D01*
X189415000Y-107574249D01*
X189418072Y-107449999D01*
X189405812Y-107325517D01*
X189369502Y-107205819D01*
X189310537Y-107095505D01*
X189299755Y-107082368D01*
X189363260Y-106963559D01*
X189404236Y-106828478D01*
X189418072Y-106687999D01*
X189418072Y-106031999D01*
X189411312Y-105963360D01*
X189474570Y-105963360D01*
X189674529Y-105923586D01*
X189862887Y-105845565D01*
X189948501Y-105788360D01*
X191394401Y-105788360D01*
X191436640Y-105792520D01*
X191478879Y-105788360D01*
X191478886Y-105788360D01*
X191605229Y-105775916D01*
X191767340Y-105726741D01*
X191916742Y-105646884D01*
X192047694Y-105539414D01*
X192074628Y-105506595D01*
X192622483Y-104958741D01*
X192677068Y-105233158D01*
G37*
%TD.AperFunction*%
D23*
X197460001Y-100846497D02*
X197307169Y-100797437D01*
X196439605Y-101665000D01*
X197307169Y-102532563D01*
X197460001Y-102483503D01*
X197460001Y-103386497D01*
X197307169Y-103337437D01*
X196439605Y-104205000D01*
X197307169Y-105072563D01*
X197460001Y-105023503D01*
X197460001Y-105820658D01*
X197433904Y-105781602D01*
X197223398Y-105571096D01*
X197060191Y-105462045D01*
X197127563Y-105252169D01*
X196260000Y-104384605D01*
X196245858Y-104398748D01*
X196066252Y-104219142D01*
X196080395Y-104205000D01*
X196066252Y-104190858D01*
X196245858Y-104011252D01*
X196260000Y-104025395D01*
X197127563Y-103157831D01*
X197056032Y-102935000D01*
X197127563Y-102712169D01*
X196260000Y-101844605D01*
X196245858Y-101858748D01*
X196066252Y-101679142D01*
X196080395Y-101665000D01*
X196066253Y-101650858D01*
X196245858Y-101471253D01*
X196260000Y-101485395D01*
X197127563Y-100617831D01*
X197060191Y-100407955D01*
X197223398Y-100298904D01*
X197433904Y-100088398D01*
X197460001Y-100049341D01*
X197460001Y-100846497D01*
%TA.AperFunction,Conductor*%
D24*
G36*
X197460001Y-100846497D02*
G01*
X197307169Y-100797437D01*
X196439605Y-101665000D01*
X197307169Y-102532563D01*
X197460001Y-102483503D01*
X197460001Y-103386497D01*
X197307169Y-103337437D01*
X196439605Y-104205000D01*
X197307169Y-105072563D01*
X197460001Y-105023503D01*
X197460001Y-105820658D01*
X197433904Y-105781602D01*
X197223398Y-105571096D01*
X197060191Y-105462045D01*
X197127563Y-105252169D01*
X196260000Y-104384605D01*
X196245858Y-104398748D01*
X196066252Y-104219142D01*
X196080395Y-104205000D01*
X196066252Y-104190858D01*
X196245858Y-104011252D01*
X196260000Y-104025395D01*
X197127563Y-103157831D01*
X197056032Y-102935000D01*
X197127563Y-102712169D01*
X196260000Y-101844605D01*
X196245858Y-101858748D01*
X196066252Y-101679142D01*
X196080395Y-101665000D01*
X196066253Y-101650858D01*
X196245858Y-101471253D01*
X196260000Y-101485395D01*
X197127563Y-100617831D01*
X197060191Y-100407955D01*
X197223398Y-100298904D01*
X197433904Y-100088398D01*
X197460001Y-100049341D01*
X197460001Y-100846497D01*
G37*
%TD.AperFunction*%
M02*
