%TF.GenerationSoftware,KiCad,Pcbnew,(5.1.9)-1*%
%TF.CreationDate,2021-11-30T13:31:35+01:00*%
%TF.ProjectId,Little_Big_Scroll,4c697474-6c65-45f4-9269-675f5363726f,v1.0*%
%TF.SameCoordinates,Original*%
%TF.FileFunction,Legend,Top*%
%TF.FilePolarity,Positive*%
%FSLAX46Y46*%
G04 Gerber Fmt 4.6, Leading zero omitted, Abs format (unit mm)*
G04 Created by KiCad (PCBNEW (5.1.9)-1) date 2021-11-30 13:31:35*
%MOMM*%
%LPD*%
G01*
G04 APERTURE LIST*
%ADD10C,0.150000*%
%ADD11C,0.120000*%
%ADD12C,0.040000*%
%ADD13C,2.000000*%
%ADD14R,2.000000X3.200000*%
%ADD15R,2.000000X2.000000*%
%ADD16C,1.752600*%
%ADD17R,1.752600X1.752600*%
%ADD18C,1.701800*%
%ADD19C,3.987800*%
%ADD20C,3.000000*%
%ADD21O,1.700000X1.700000*%
%ADD22R,1.700000X1.700000*%
%ADD23C,3.700000*%
%ADD24O,1.400000X1.400000*%
%ADD25C,1.400000*%
G04 APERTURE END LIST*
D10*
X230471904Y-117408571D02*
X230471904Y-117789523D01*
X229671904Y-117789523D01*
X230471904Y-117141904D02*
X229938571Y-117141904D01*
X229671904Y-117141904D02*
X229710000Y-117180000D01*
X229748095Y-117141904D01*
X229710000Y-117103809D01*
X229671904Y-117141904D01*
X229748095Y-117141904D01*
X229938571Y-116875238D02*
X229938571Y-116570476D01*
X229671904Y-116760952D02*
X230357619Y-116760952D01*
X230433809Y-116722857D01*
X230471904Y-116646666D01*
X230471904Y-116570476D01*
X229938571Y-116418095D02*
X229938571Y-116113333D01*
X229671904Y-116303809D02*
X230357619Y-116303809D01*
X230433809Y-116265714D01*
X230471904Y-116189523D01*
X230471904Y-116113333D01*
X230471904Y-115732380D02*
X230433809Y-115808571D01*
X230357619Y-115846666D01*
X229671904Y-115846666D01*
X230433809Y-115122857D02*
X230471904Y-115199047D01*
X230471904Y-115351428D01*
X230433809Y-115427619D01*
X230357619Y-115465714D01*
X230052857Y-115465714D01*
X229976666Y-115427619D01*
X229938571Y-115351428D01*
X229938571Y-115199047D01*
X229976666Y-115122857D01*
X230052857Y-115084761D01*
X230129047Y-115084761D01*
X230205238Y-115465714D01*
X230052857Y-113865714D02*
X230090952Y-113751428D01*
X230129047Y-113713333D01*
X230205238Y-113675238D01*
X230319523Y-113675238D01*
X230395714Y-113713333D01*
X230433809Y-113751428D01*
X230471904Y-113827619D01*
X230471904Y-114132380D01*
X229671904Y-114132380D01*
X229671904Y-113865714D01*
X229710000Y-113789523D01*
X229748095Y-113751428D01*
X229824285Y-113713333D01*
X229900476Y-113713333D01*
X229976666Y-113751428D01*
X230014761Y-113789523D01*
X230052857Y-113865714D01*
X230052857Y-114132380D01*
X230471904Y-113332380D02*
X229938571Y-113332380D01*
X229671904Y-113332380D02*
X229710000Y-113370476D01*
X229748095Y-113332380D01*
X229710000Y-113294285D01*
X229671904Y-113332380D01*
X229748095Y-113332380D01*
X229938571Y-112608571D02*
X230586190Y-112608571D01*
X230662380Y-112646666D01*
X230700476Y-112684761D01*
X230738571Y-112760952D01*
X230738571Y-112875238D01*
X230700476Y-112951428D01*
X230433809Y-112608571D02*
X230471904Y-112684761D01*
X230471904Y-112837142D01*
X230433809Y-112913333D01*
X230395714Y-112951428D01*
X230319523Y-112989523D01*
X230090952Y-112989523D01*
X230014761Y-112951428D01*
X229976666Y-112913333D01*
X229938571Y-112837142D01*
X229938571Y-112684761D01*
X229976666Y-112608571D01*
X230433809Y-111656190D02*
X230471904Y-111541904D01*
X230471904Y-111351428D01*
X230433809Y-111275238D01*
X230395714Y-111237142D01*
X230319523Y-111199047D01*
X230243333Y-111199047D01*
X230167142Y-111237142D01*
X230129047Y-111275238D01*
X230090952Y-111351428D01*
X230052857Y-111503809D01*
X230014761Y-111580000D01*
X229976666Y-111618095D01*
X229900476Y-111656190D01*
X229824285Y-111656190D01*
X229748095Y-111618095D01*
X229710000Y-111580000D01*
X229671904Y-111503809D01*
X229671904Y-111313333D01*
X229710000Y-111199047D01*
X230433809Y-110513333D02*
X230471904Y-110589523D01*
X230471904Y-110741904D01*
X230433809Y-110818095D01*
X230395714Y-110856190D01*
X230319523Y-110894285D01*
X230090952Y-110894285D01*
X230014761Y-110856190D01*
X229976666Y-110818095D01*
X229938571Y-110741904D01*
X229938571Y-110589523D01*
X229976666Y-110513333D01*
X230471904Y-110170476D02*
X229938571Y-110170476D01*
X230090952Y-110170476D02*
X230014761Y-110132380D01*
X229976666Y-110094285D01*
X229938571Y-110018095D01*
X229938571Y-109941904D01*
X230471904Y-109560952D02*
X230433809Y-109637142D01*
X230395714Y-109675238D01*
X230319523Y-109713333D01*
X230090952Y-109713333D01*
X230014761Y-109675238D01*
X229976666Y-109637142D01*
X229938571Y-109560952D01*
X229938571Y-109446666D01*
X229976666Y-109370476D01*
X230014761Y-109332380D01*
X230090952Y-109294285D01*
X230319523Y-109294285D01*
X230395714Y-109332380D01*
X230433809Y-109370476D01*
X230471904Y-109446666D01*
X230471904Y-109560952D01*
X230471904Y-108837142D02*
X230433809Y-108913333D01*
X230357619Y-108951428D01*
X229671904Y-108951428D01*
X230471904Y-108418095D02*
X230433809Y-108494285D01*
X230357619Y-108532380D01*
X229671904Y-108532380D01*
X229938571Y-107580000D02*
X230471904Y-107389523D01*
X229938571Y-107199047D01*
X230471904Y-106475238D02*
X230471904Y-106932380D01*
X230471904Y-106703809D02*
X229671904Y-106703809D01*
X229786190Y-106780000D01*
X229862380Y-106856190D01*
X229900476Y-106932380D01*
X230395714Y-106132380D02*
X230433809Y-106094285D01*
X230471904Y-106132380D01*
X230433809Y-106170476D01*
X230395714Y-106132380D01*
X230471904Y-106132380D01*
X229671904Y-105599047D02*
X229671904Y-105522857D01*
X229710000Y-105446666D01*
X229748095Y-105408571D01*
X229824285Y-105370476D01*
X229976666Y-105332380D01*
X230167142Y-105332380D01*
X230319523Y-105370476D01*
X230395714Y-105408571D01*
X230433809Y-105446666D01*
X230471904Y-105522857D01*
X230471904Y-105599047D01*
X230433809Y-105675238D01*
X230395714Y-105713333D01*
X230319523Y-105751428D01*
X230167142Y-105789523D01*
X229976666Y-105789523D01*
X229824285Y-105751428D01*
X229748095Y-105713333D01*
X229710000Y-105675238D01*
X229671904Y-105599047D01*
X231821904Y-118322857D02*
X231021904Y-118322857D01*
X231593333Y-118056190D01*
X231021904Y-117789523D01*
X231821904Y-117789523D01*
X231821904Y-117065714D02*
X231402857Y-117065714D01*
X231326666Y-117103809D01*
X231288571Y-117180000D01*
X231288571Y-117332380D01*
X231326666Y-117408571D01*
X231783809Y-117065714D02*
X231821904Y-117141904D01*
X231821904Y-117332380D01*
X231783809Y-117408571D01*
X231707619Y-117446666D01*
X231631428Y-117446666D01*
X231555238Y-117408571D01*
X231517142Y-117332380D01*
X231517142Y-117141904D01*
X231479047Y-117065714D01*
X231821904Y-116684761D02*
X231288571Y-116684761D01*
X231440952Y-116684761D02*
X231364761Y-116646666D01*
X231326666Y-116608571D01*
X231288571Y-116532380D01*
X231288571Y-116456190D01*
X231821904Y-116189523D02*
X231021904Y-116189523D01*
X231517142Y-116113333D02*
X231821904Y-115884761D01*
X231288571Y-115884761D02*
X231593333Y-116189523D01*
X231288571Y-115199047D02*
X231821904Y-115199047D01*
X231288571Y-115541904D02*
X231707619Y-115541904D01*
X231783809Y-115503809D01*
X231821904Y-115427619D01*
X231821904Y-115313333D01*
X231783809Y-115237142D01*
X231745714Y-115199047D01*
X231783809Y-114856190D02*
X231821904Y-114780000D01*
X231821904Y-114627619D01*
X231783809Y-114551428D01*
X231707619Y-114513333D01*
X231669523Y-114513333D01*
X231593333Y-114551428D01*
X231555238Y-114627619D01*
X231555238Y-114741904D01*
X231517142Y-114818095D01*
X231440952Y-114856190D01*
X231402857Y-114856190D01*
X231326666Y-114818095D01*
X231288571Y-114741904D01*
X231288571Y-114627619D01*
X231326666Y-114551428D01*
X231821904Y-113560952D02*
X231021904Y-113560952D01*
X231821904Y-113103809D02*
X231364761Y-113446666D01*
X231021904Y-113103809D02*
X231479047Y-113560952D01*
X231288571Y-112760952D02*
X231821904Y-112760952D01*
X231364761Y-112760952D02*
X231326666Y-112722857D01*
X231288571Y-112646666D01*
X231288571Y-112532380D01*
X231326666Y-112456190D01*
X231402857Y-112418095D01*
X231821904Y-112418095D01*
X231288571Y-111694285D02*
X231821904Y-111694285D01*
X231288571Y-112037142D02*
X231707619Y-112037142D01*
X231783809Y-111999047D01*
X231821904Y-111922857D01*
X231821904Y-111808571D01*
X231783809Y-111732380D01*
X231745714Y-111694285D01*
X231288571Y-111427619D02*
X231288571Y-111122857D01*
X231021904Y-111313333D02*
X231707619Y-111313333D01*
X231783809Y-111275238D01*
X231821904Y-111199047D01*
X231821904Y-111122857D01*
X231783809Y-110894285D02*
X231821904Y-110818095D01*
X231821904Y-110665714D01*
X231783809Y-110589523D01*
X231707619Y-110551428D01*
X231669523Y-110551428D01*
X231593333Y-110589523D01*
X231555238Y-110665714D01*
X231555238Y-110780000D01*
X231517142Y-110856190D01*
X231440952Y-110894285D01*
X231402857Y-110894285D01*
X231326666Y-110856190D01*
X231288571Y-110780000D01*
X231288571Y-110665714D01*
X231326666Y-110589523D01*
X231783809Y-110246666D02*
X231821904Y-110170476D01*
X231821904Y-110018095D01*
X231783809Y-109941904D01*
X231707619Y-109903809D01*
X231669523Y-109903809D01*
X231593333Y-109941904D01*
X231555238Y-110018095D01*
X231555238Y-110132380D01*
X231517142Y-110208571D01*
X231440952Y-110246666D01*
X231402857Y-110246666D01*
X231326666Y-110208571D01*
X231288571Y-110132380D01*
X231288571Y-110018095D01*
X231326666Y-109941904D01*
X231821904Y-109446666D02*
X231783809Y-109522857D01*
X231745714Y-109560952D01*
X231669523Y-109599047D01*
X231440952Y-109599047D01*
X231364761Y-109560952D01*
X231326666Y-109522857D01*
X231288571Y-109446666D01*
X231288571Y-109332380D01*
X231326666Y-109256190D01*
X231364761Y-109218095D01*
X231440952Y-109180000D01*
X231669523Y-109180000D01*
X231745714Y-109218095D01*
X231783809Y-109256190D01*
X231821904Y-109332380D01*
X231821904Y-109446666D01*
X231288571Y-108837142D02*
X231821904Y-108837142D01*
X231364761Y-108837142D02*
X231326666Y-108799047D01*
X231288571Y-108722857D01*
X231288571Y-108608571D01*
X231326666Y-108532380D01*
X231402857Y-108494285D01*
X231821904Y-108494285D01*
X231098095Y-107541904D02*
X231060000Y-107503809D01*
X231021904Y-107427619D01*
X231021904Y-107237142D01*
X231060000Y-107160952D01*
X231098095Y-107122857D01*
X231174285Y-107084761D01*
X231250476Y-107084761D01*
X231364761Y-107122857D01*
X231821904Y-107580000D01*
X231821904Y-107084761D01*
X231021904Y-106589523D02*
X231021904Y-106513333D01*
X231060000Y-106437142D01*
X231098095Y-106399047D01*
X231174285Y-106360952D01*
X231326666Y-106322857D01*
X231517142Y-106322857D01*
X231669523Y-106360952D01*
X231745714Y-106399047D01*
X231783809Y-106437142D01*
X231821904Y-106513333D01*
X231821904Y-106589523D01*
X231783809Y-106665714D01*
X231745714Y-106703809D01*
X231669523Y-106741904D01*
X231517142Y-106780000D01*
X231326666Y-106780000D01*
X231174285Y-106741904D01*
X231098095Y-106703809D01*
X231060000Y-106665714D01*
X231021904Y-106589523D01*
X231098095Y-106018095D02*
X231060000Y-105980000D01*
X231021904Y-105903809D01*
X231021904Y-105713333D01*
X231060000Y-105637142D01*
X231098095Y-105599047D01*
X231174285Y-105560952D01*
X231250476Y-105560952D01*
X231364761Y-105599047D01*
X231821904Y-106056190D01*
X231821904Y-105560952D01*
X231821904Y-104799047D02*
X231821904Y-105256190D01*
X231821904Y-105027619D02*
X231021904Y-105027619D01*
X231136190Y-105103809D01*
X231212380Y-105180000D01*
X231250476Y-105256190D01*
X233171904Y-121541904D02*
X232371904Y-121541904D01*
X233171904Y-121199047D02*
X232752857Y-121199047D01*
X232676666Y-121237142D01*
X232638571Y-121313333D01*
X232638571Y-121427619D01*
X232676666Y-121503809D01*
X232714761Y-121541904D01*
X232638571Y-120932380D02*
X232638571Y-120627619D01*
X232371904Y-120818095D02*
X233057619Y-120818095D01*
X233133809Y-120780000D01*
X233171904Y-120703809D01*
X233171904Y-120627619D01*
X232638571Y-120475238D02*
X232638571Y-120170476D01*
X232371904Y-120360952D02*
X233057619Y-120360952D01*
X233133809Y-120322857D01*
X233171904Y-120246666D01*
X233171904Y-120170476D01*
X232638571Y-119903809D02*
X233438571Y-119903809D01*
X232676666Y-119903809D02*
X232638571Y-119827619D01*
X232638571Y-119675238D01*
X232676666Y-119599047D01*
X232714761Y-119560952D01*
X232790952Y-119522857D01*
X233019523Y-119522857D01*
X233095714Y-119560952D01*
X233133809Y-119599047D01*
X233171904Y-119675238D01*
X233171904Y-119827619D01*
X233133809Y-119903809D01*
X233133809Y-119218095D02*
X233171904Y-119141904D01*
X233171904Y-118989523D01*
X233133809Y-118913333D01*
X233057619Y-118875238D01*
X233019523Y-118875238D01*
X232943333Y-118913333D01*
X232905238Y-118989523D01*
X232905238Y-119103809D01*
X232867142Y-119180000D01*
X232790952Y-119218095D01*
X232752857Y-119218095D01*
X232676666Y-119180000D01*
X232638571Y-119103809D01*
X232638571Y-118989523D01*
X232676666Y-118913333D01*
X233095714Y-118532380D02*
X233133809Y-118494285D01*
X233171904Y-118532380D01*
X233133809Y-118570476D01*
X233095714Y-118532380D01*
X233171904Y-118532380D01*
X232676666Y-118532380D02*
X232714761Y-118494285D01*
X232752857Y-118532380D01*
X232714761Y-118570476D01*
X232676666Y-118532380D01*
X232752857Y-118532380D01*
X232333809Y-117580000D02*
X233362380Y-118265714D01*
X232333809Y-116741904D02*
X233362380Y-117427619D01*
X232638571Y-116132380D02*
X233286190Y-116132380D01*
X233362380Y-116170476D01*
X233400476Y-116208571D01*
X233438571Y-116284761D01*
X233438571Y-116399047D01*
X233400476Y-116475238D01*
X233133809Y-116132380D02*
X233171904Y-116208571D01*
X233171904Y-116360952D01*
X233133809Y-116437142D01*
X233095714Y-116475238D01*
X233019523Y-116513333D01*
X232790952Y-116513333D01*
X232714761Y-116475238D01*
X232676666Y-116437142D01*
X232638571Y-116360952D01*
X232638571Y-116208571D01*
X232676666Y-116132380D01*
X233171904Y-115751428D02*
X232638571Y-115751428D01*
X232371904Y-115751428D02*
X232410000Y-115789523D01*
X232448095Y-115751428D01*
X232410000Y-115713333D01*
X232371904Y-115751428D01*
X232448095Y-115751428D01*
X232638571Y-115484761D02*
X232638571Y-115180000D01*
X232371904Y-115370476D02*
X233057619Y-115370476D01*
X233133809Y-115332380D01*
X233171904Y-115256190D01*
X233171904Y-115180000D01*
X233171904Y-114913333D02*
X232371904Y-114913333D01*
X233171904Y-114570476D02*
X232752857Y-114570476D01*
X232676666Y-114608571D01*
X232638571Y-114684761D01*
X232638571Y-114799047D01*
X232676666Y-114875238D01*
X232714761Y-114913333D01*
X232638571Y-113846666D02*
X233171904Y-113846666D01*
X232638571Y-114189523D02*
X233057619Y-114189523D01*
X233133809Y-114151428D01*
X233171904Y-114075238D01*
X233171904Y-113960952D01*
X233133809Y-113884761D01*
X233095714Y-113846666D01*
X233171904Y-113465714D02*
X232371904Y-113465714D01*
X232676666Y-113465714D02*
X232638571Y-113389523D01*
X232638571Y-113237142D01*
X232676666Y-113160952D01*
X232714761Y-113122857D01*
X232790952Y-113084761D01*
X233019523Y-113084761D01*
X233095714Y-113122857D01*
X233133809Y-113160952D01*
X233171904Y-113237142D01*
X233171904Y-113389523D01*
X233133809Y-113465714D01*
X233095714Y-112741904D02*
X233133809Y-112703809D01*
X233171904Y-112741904D01*
X233133809Y-112780000D01*
X233095714Y-112741904D01*
X233171904Y-112741904D01*
X233133809Y-112018095D02*
X233171904Y-112094285D01*
X233171904Y-112246666D01*
X233133809Y-112322857D01*
X233095714Y-112360952D01*
X233019523Y-112399047D01*
X232790952Y-112399047D01*
X232714761Y-112360952D01*
X232676666Y-112322857D01*
X232638571Y-112246666D01*
X232638571Y-112094285D01*
X232676666Y-112018095D01*
X233171904Y-111560952D02*
X233133809Y-111637142D01*
X233095714Y-111675238D01*
X233019523Y-111713333D01*
X232790952Y-111713333D01*
X232714761Y-111675238D01*
X232676666Y-111637142D01*
X232638571Y-111560952D01*
X232638571Y-111446666D01*
X232676666Y-111370476D01*
X232714761Y-111332380D01*
X232790952Y-111294285D01*
X233019523Y-111294285D01*
X233095714Y-111332380D01*
X233133809Y-111370476D01*
X233171904Y-111446666D01*
X233171904Y-111560952D01*
X233171904Y-110951428D02*
X232638571Y-110951428D01*
X232714761Y-110951428D02*
X232676666Y-110913333D01*
X232638571Y-110837142D01*
X232638571Y-110722857D01*
X232676666Y-110646666D01*
X232752857Y-110608571D01*
X233171904Y-110608571D01*
X232752857Y-110608571D02*
X232676666Y-110570476D01*
X232638571Y-110494285D01*
X232638571Y-110380000D01*
X232676666Y-110303809D01*
X232752857Y-110265714D01*
X233171904Y-110265714D01*
X232333809Y-109313333D02*
X233362380Y-109999047D01*
X232371904Y-109160952D02*
X232371904Y-108703809D01*
X233171904Y-108932380D02*
X232371904Y-108932380D01*
X232638571Y-108513333D02*
X233171904Y-108360952D01*
X232790952Y-108208571D01*
X233171904Y-108056190D01*
X232638571Y-107903809D01*
X233133809Y-107294285D02*
X233171904Y-107370476D01*
X233171904Y-107522857D01*
X233133809Y-107599047D01*
X233057619Y-107637142D01*
X232752857Y-107637142D01*
X232676666Y-107599047D01*
X232638571Y-107522857D01*
X232638571Y-107370476D01*
X232676666Y-107294285D01*
X232752857Y-107256190D01*
X232829047Y-107256190D01*
X232905238Y-107637142D01*
X233133809Y-106608571D02*
X233171904Y-106684761D01*
X233171904Y-106837142D01*
X233133809Y-106913333D01*
X233057619Y-106951428D01*
X232752857Y-106951428D01*
X232676666Y-106913333D01*
X232638571Y-106837142D01*
X232638571Y-106684761D01*
X232676666Y-106608571D01*
X232752857Y-106570476D01*
X232829047Y-106570476D01*
X232905238Y-106951428D01*
X232638571Y-106341904D02*
X232638571Y-106037142D01*
X232371904Y-106227619D02*
X233057619Y-106227619D01*
X233133809Y-106189523D01*
X233171904Y-106113333D01*
X233171904Y-106037142D01*
X232638571Y-105846666D02*
X233171904Y-105656190D01*
X232638571Y-105465714D02*
X233171904Y-105656190D01*
X233362380Y-105732380D01*
X233400476Y-105770476D01*
X233438571Y-105846666D01*
X233171904Y-105160952D02*
X232371904Y-105160952D01*
X232371904Y-104970476D01*
X232410000Y-104856190D01*
X232486190Y-104780000D01*
X232562380Y-104741904D01*
X232714761Y-104703809D01*
X232829047Y-104703809D01*
X232981428Y-104741904D01*
X233057619Y-104780000D01*
X233133809Y-104856190D01*
X233171904Y-104970476D01*
X233171904Y-105160952D01*
X233171904Y-104018095D02*
X232752857Y-104018095D01*
X232676666Y-104056190D01*
X232638571Y-104132380D01*
X232638571Y-104284761D01*
X232676666Y-104360952D01*
X233133809Y-104018095D02*
X233171904Y-104094285D01*
X233171904Y-104284761D01*
X233133809Y-104360952D01*
X233057619Y-104399047D01*
X232981428Y-104399047D01*
X232905238Y-104360952D01*
X232867142Y-104284761D01*
X232867142Y-104094285D01*
X232829047Y-104018095D01*
X232752857Y-103370476D02*
X232790952Y-103256190D01*
X232829047Y-103218095D01*
X232905238Y-103180000D01*
X233019523Y-103180000D01*
X233095714Y-103218095D01*
X233133809Y-103256190D01*
X233171904Y-103332380D01*
X233171904Y-103637142D01*
X232371904Y-103637142D01*
X232371904Y-103370476D01*
X232410000Y-103294285D01*
X232448095Y-103256190D01*
X232524285Y-103218095D01*
X232600476Y-103218095D01*
X232676666Y-103256190D01*
X232714761Y-103294285D01*
X232752857Y-103370476D01*
X232752857Y-103637142D01*
X233171904Y-102837142D02*
X232638571Y-102837142D01*
X232371904Y-102837142D02*
X232410000Y-102875238D01*
X232448095Y-102837142D01*
X232410000Y-102799047D01*
X232371904Y-102837142D01*
X232448095Y-102837142D01*
X233171904Y-102456190D02*
X232638571Y-102456190D01*
X232790952Y-102456190D02*
X232714761Y-102418095D01*
X232676666Y-102380000D01*
X232638571Y-102303809D01*
X232638571Y-102227619D01*
X233171904Y-101618095D02*
X232371904Y-101618095D01*
X233133809Y-101618095D02*
X233171904Y-101694285D01*
X233171904Y-101846666D01*
X233133809Y-101922857D01*
X233095714Y-101960952D01*
X233019523Y-101999047D01*
X232790952Y-101999047D01*
X232714761Y-101960952D01*
X232676666Y-101922857D01*
X232638571Y-101846666D01*
X232638571Y-101694285D01*
X232676666Y-101618095D01*
X234521904Y-121484761D02*
X234521904Y-121865714D01*
X233721904Y-121865714D01*
X234521904Y-121218095D02*
X233988571Y-121218095D01*
X233721904Y-121218095D02*
X233760000Y-121256190D01*
X233798095Y-121218095D01*
X233760000Y-121180000D01*
X233721904Y-121218095D01*
X233798095Y-121218095D01*
X234483809Y-120494285D02*
X234521904Y-120570476D01*
X234521904Y-120722857D01*
X234483809Y-120799047D01*
X234445714Y-120837142D01*
X234369523Y-120875238D01*
X234140952Y-120875238D01*
X234064761Y-120837142D01*
X234026666Y-120799047D01*
X233988571Y-120722857D01*
X233988571Y-120570476D01*
X234026666Y-120494285D01*
X234483809Y-119846666D02*
X234521904Y-119922857D01*
X234521904Y-120075238D01*
X234483809Y-120151428D01*
X234407619Y-120189523D01*
X234102857Y-120189523D01*
X234026666Y-120151428D01*
X233988571Y-120075238D01*
X233988571Y-119922857D01*
X234026666Y-119846666D01*
X234102857Y-119808571D01*
X234179047Y-119808571D01*
X234255238Y-120189523D01*
X233988571Y-119465714D02*
X234521904Y-119465714D01*
X234064761Y-119465714D02*
X234026666Y-119427619D01*
X233988571Y-119351428D01*
X233988571Y-119237142D01*
X234026666Y-119160952D01*
X234102857Y-119122857D01*
X234521904Y-119122857D01*
X234483809Y-118780000D02*
X234521904Y-118703809D01*
X234521904Y-118551428D01*
X234483809Y-118475238D01*
X234407619Y-118437142D01*
X234369523Y-118437142D01*
X234293333Y-118475238D01*
X234255238Y-118551428D01*
X234255238Y-118665714D01*
X234217142Y-118741904D01*
X234140952Y-118780000D01*
X234102857Y-118780000D01*
X234026666Y-118741904D01*
X233988571Y-118665714D01*
X233988571Y-118551428D01*
X234026666Y-118475238D01*
X234483809Y-117789523D02*
X234521904Y-117865714D01*
X234521904Y-118018095D01*
X234483809Y-118094285D01*
X234407619Y-118132380D01*
X234102857Y-118132380D01*
X234026666Y-118094285D01*
X233988571Y-118018095D01*
X233988571Y-117865714D01*
X234026666Y-117789523D01*
X234102857Y-117751428D01*
X234179047Y-117751428D01*
X234255238Y-118132380D01*
X234521904Y-117065714D02*
X233721904Y-117065714D01*
X234483809Y-117065714D02*
X234521904Y-117141904D01*
X234521904Y-117294285D01*
X234483809Y-117370476D01*
X234445714Y-117408571D01*
X234369523Y-117446666D01*
X234140952Y-117446666D01*
X234064761Y-117408571D01*
X234026666Y-117370476D01*
X233988571Y-117294285D01*
X233988571Y-117141904D01*
X234026666Y-117065714D01*
X233988571Y-115732380D02*
X234521904Y-115732380D01*
X233988571Y-116075238D02*
X234407619Y-116075238D01*
X234483809Y-116037142D01*
X234521904Y-115960952D01*
X234521904Y-115846666D01*
X234483809Y-115770476D01*
X234445714Y-115732380D01*
X233988571Y-115351428D02*
X234521904Y-115351428D01*
X234064761Y-115351428D02*
X234026666Y-115313333D01*
X233988571Y-115237142D01*
X233988571Y-115122857D01*
X234026666Y-115046666D01*
X234102857Y-115008571D01*
X234521904Y-115008571D01*
X234521904Y-114284761D02*
X233721904Y-114284761D01*
X234483809Y-114284761D02*
X234521904Y-114360952D01*
X234521904Y-114513333D01*
X234483809Y-114589523D01*
X234445714Y-114627619D01*
X234369523Y-114665714D01*
X234140952Y-114665714D01*
X234064761Y-114627619D01*
X234026666Y-114589523D01*
X233988571Y-114513333D01*
X233988571Y-114360952D01*
X234026666Y-114284761D01*
X234483809Y-113599047D02*
X234521904Y-113675238D01*
X234521904Y-113827619D01*
X234483809Y-113903809D01*
X234407619Y-113941904D01*
X234102857Y-113941904D01*
X234026666Y-113903809D01*
X233988571Y-113827619D01*
X233988571Y-113675238D01*
X234026666Y-113599047D01*
X234102857Y-113560952D01*
X234179047Y-113560952D01*
X234255238Y-113941904D01*
X234521904Y-113218095D02*
X233988571Y-113218095D01*
X234140952Y-113218095D02*
X234064761Y-113180000D01*
X234026666Y-113141904D01*
X233988571Y-113065714D01*
X233988571Y-112989523D01*
X234445714Y-111656190D02*
X234483809Y-111694285D01*
X234521904Y-111808571D01*
X234521904Y-111884761D01*
X234483809Y-111999047D01*
X234407619Y-112075238D01*
X234331428Y-112113333D01*
X234179047Y-112151428D01*
X234064761Y-112151428D01*
X233912380Y-112113333D01*
X233836190Y-112075238D01*
X233760000Y-111999047D01*
X233721904Y-111884761D01*
X233721904Y-111808571D01*
X233760000Y-111694285D01*
X233798095Y-111656190D01*
X234102857Y-111313333D02*
X234102857Y-111046666D01*
X234521904Y-110932380D02*
X234521904Y-111313333D01*
X233721904Y-111313333D01*
X233721904Y-110932380D01*
X234521904Y-110132380D02*
X234140952Y-110399047D01*
X234521904Y-110589523D02*
X233721904Y-110589523D01*
X233721904Y-110284761D01*
X233760000Y-110208571D01*
X233798095Y-110170476D01*
X233874285Y-110132380D01*
X233988571Y-110132380D01*
X234064761Y-110170476D01*
X234102857Y-110208571D01*
X234140952Y-110284761D01*
X234140952Y-110589523D01*
X234521904Y-109789523D02*
X233721904Y-109789523D01*
X234521904Y-109332380D01*
X233721904Y-109332380D01*
X234217142Y-108951428D02*
X234217142Y-108341904D01*
X233721904Y-107808571D02*
X233721904Y-107656190D01*
X233760000Y-107580000D01*
X233836190Y-107503809D01*
X233988571Y-107465714D01*
X234255238Y-107465714D01*
X234407619Y-107503809D01*
X234483809Y-107580000D01*
X234521904Y-107656190D01*
X234521904Y-107808571D01*
X234483809Y-107884761D01*
X234407619Y-107960952D01*
X234255238Y-107999047D01*
X233988571Y-107999047D01*
X233836190Y-107960952D01*
X233760000Y-107884761D01*
X233721904Y-107808571D01*
X234521904Y-107122857D02*
X233721904Y-107122857D01*
X234102857Y-107122857D02*
X234102857Y-106665714D01*
X234521904Y-106665714D02*
X233721904Y-106665714D01*
X234521904Y-105903809D02*
X234521904Y-106284761D01*
X233721904Y-106284761D01*
X234217142Y-105637142D02*
X234217142Y-105027619D01*
X234483809Y-104684761D02*
X234521904Y-104570476D01*
X234521904Y-104380000D01*
X234483809Y-104303809D01*
X234445714Y-104265714D01*
X234369523Y-104227619D01*
X234293333Y-104227619D01*
X234217142Y-104265714D01*
X234179047Y-104303809D01*
X234140952Y-104380000D01*
X234102857Y-104532380D01*
X234064761Y-104608571D01*
X234026666Y-104646666D01*
X233950476Y-104684761D01*
X233874285Y-104684761D01*
X233798095Y-104646666D01*
X233760000Y-104608571D01*
X233721904Y-104532380D01*
X233721904Y-104341904D01*
X233760000Y-104227619D01*
X233988571Y-103351428D02*
X234521904Y-103160952D01*
X233988571Y-102970476D01*
X233798095Y-102703809D02*
X233760000Y-102665714D01*
X233721904Y-102589523D01*
X233721904Y-102399047D01*
X233760000Y-102322857D01*
X233798095Y-102284761D01*
X233874285Y-102246666D01*
X233950476Y-102246666D01*
X234064761Y-102284761D01*
X234521904Y-102741904D01*
X234521904Y-102246666D01*
X234217142Y-101903809D02*
X234217142Y-101294285D01*
X234521904Y-101599047D02*
X233912380Y-101599047D01*
X235071904Y-115275238D02*
X235643333Y-115275238D01*
X235757619Y-115313333D01*
X235833809Y-115389523D01*
X235871904Y-115503809D01*
X235871904Y-115580000D01*
X235871904Y-114513333D02*
X235871904Y-114894285D01*
X235071904Y-114894285D01*
X235795714Y-113789523D02*
X235833809Y-113827619D01*
X235871904Y-113941904D01*
X235871904Y-114018095D01*
X235833809Y-114132380D01*
X235757619Y-114208571D01*
X235681428Y-114246666D01*
X235529047Y-114284761D01*
X235414761Y-114284761D01*
X235262380Y-114246666D01*
X235186190Y-114208571D01*
X235110000Y-114132380D01*
X235071904Y-114018095D01*
X235071904Y-113941904D01*
X235110000Y-113827619D01*
X235148095Y-113789523D01*
X235071904Y-113218095D02*
X235643333Y-113218095D01*
X235757619Y-113256190D01*
X235833809Y-113332380D01*
X235871904Y-113446666D01*
X235871904Y-113522857D01*
X235871904Y-112456190D02*
X235871904Y-112837142D01*
X235071904Y-112837142D01*
X235795714Y-111732380D02*
X235833809Y-111770476D01*
X235871904Y-111884761D01*
X235871904Y-111960952D01*
X235833809Y-112075238D01*
X235757619Y-112151428D01*
X235681428Y-112189523D01*
X235529047Y-112227619D01*
X235414761Y-112227619D01*
X235262380Y-112189523D01*
X235186190Y-112151428D01*
X235110000Y-112075238D01*
X235071904Y-111960952D01*
X235071904Y-111884761D01*
X235110000Y-111770476D01*
X235148095Y-111732380D01*
X235071904Y-111160952D02*
X235643333Y-111160952D01*
X235757619Y-111199047D01*
X235833809Y-111275238D01*
X235871904Y-111389523D01*
X235871904Y-111465714D01*
X235871904Y-110399047D02*
X235871904Y-110780000D01*
X235071904Y-110780000D01*
X235795714Y-109675238D02*
X235833809Y-109713333D01*
X235871904Y-109827619D01*
X235871904Y-109903809D01*
X235833809Y-110018095D01*
X235757619Y-110094285D01*
X235681428Y-110132380D01*
X235529047Y-110170476D01*
X235414761Y-110170476D01*
X235262380Y-110132380D01*
X235186190Y-110094285D01*
X235110000Y-110018095D01*
X235071904Y-109903809D01*
X235071904Y-109827619D01*
X235110000Y-109713333D01*
X235148095Y-109675238D01*
X235071904Y-109103809D02*
X235643333Y-109103809D01*
X235757619Y-109141904D01*
X235833809Y-109218095D01*
X235871904Y-109332380D01*
X235871904Y-109408571D01*
X235871904Y-108341904D02*
X235871904Y-108722857D01*
X235071904Y-108722857D01*
X235795714Y-107618095D02*
X235833809Y-107656190D01*
X235871904Y-107770476D01*
X235871904Y-107846666D01*
X235833809Y-107960952D01*
X235757619Y-108037142D01*
X235681428Y-108075238D01*
X235529047Y-108113333D01*
X235414761Y-108113333D01*
X235262380Y-108075238D01*
X235186190Y-108037142D01*
X235110000Y-107960952D01*
X235071904Y-107846666D01*
X235071904Y-107770476D01*
X235110000Y-107656190D01*
X235148095Y-107618095D01*
D11*
X222380000Y-111555000D02*
G75*
G03*
X222380000Y-111555000I-3000000J0D01*
G01*
X213480000Y-109555000D02*
X213480000Y-105455000D01*
X225280000Y-105455000D02*
X225280000Y-109555000D01*
X225280000Y-113555000D02*
X225280000Y-117655000D01*
X213480000Y-113555000D02*
X213480000Y-117655000D01*
X213480000Y-117655000D02*
X225280000Y-117655000D01*
X215580000Y-119055000D02*
X215280000Y-119355000D01*
X215280000Y-119355000D02*
X215280000Y-118755000D01*
X215280000Y-118755000D02*
X215580000Y-119055000D01*
X213480000Y-105455000D02*
X215880000Y-105455000D01*
X218080000Y-105455000D02*
X220680000Y-105455000D01*
X222880000Y-105455000D02*
X225280000Y-105455000D01*
X218880000Y-111555000D02*
X219880000Y-111555000D01*
X219380000Y-112055000D02*
X219380000Y-111055000D01*
D10*
X192380000Y-114080000D02*
X192380000Y-115080000D01*
X191380000Y-128080000D02*
X192380000Y-128080000D01*
X192380000Y-114080000D02*
X191380000Y-114080000D01*
X192380000Y-127080000D02*
X192380000Y-128080000D01*
X178380000Y-128080000D02*
X178380000Y-127080000D01*
X179380000Y-114080000D02*
X178380000Y-114080000D01*
X178380000Y-128080000D02*
X179380000Y-128080000D01*
X178380000Y-115080000D02*
X178380000Y-114080000D01*
X173330000Y-114080000D02*
X173330000Y-115080000D01*
X172330000Y-128080000D02*
X173330000Y-128080000D01*
X173330000Y-114080000D02*
X172330000Y-114080000D01*
X173330000Y-127080000D02*
X173330000Y-128080000D01*
X159330000Y-128080000D02*
X159330000Y-127080000D01*
X160330000Y-114080000D02*
X159330000Y-114080000D01*
X159330000Y-128080000D02*
X160330000Y-128080000D01*
X159330000Y-115080000D02*
X159330000Y-114080000D01*
X192380000Y-95030000D02*
X192380000Y-96030000D01*
X191380000Y-109030000D02*
X192380000Y-109030000D01*
X192380000Y-95030000D02*
X191380000Y-95030000D01*
X192380000Y-108030000D02*
X192380000Y-109030000D01*
X178380000Y-109030000D02*
X178380000Y-108030000D01*
X179380000Y-95030000D02*
X178380000Y-95030000D01*
X178380000Y-109030000D02*
X179380000Y-109030000D01*
X178380000Y-96030000D02*
X178380000Y-95030000D01*
X173330000Y-95030000D02*
X173330000Y-96030000D01*
X172330000Y-109030000D02*
X173330000Y-109030000D01*
X173330000Y-95030000D02*
X172330000Y-95030000D01*
X173330000Y-108030000D02*
X173330000Y-109030000D01*
X159330000Y-109030000D02*
X159330000Y-108030000D01*
X160330000Y-95030000D02*
X159330000Y-95030000D01*
X159330000Y-109030000D02*
X160330000Y-109030000D01*
X159330000Y-96030000D02*
X159330000Y-95030000D01*
D12*
X161105000Y-97530000D02*
X161105000Y-109530000D01*
X190605000Y-97530000D02*
X190605000Y-109530000D01*
X195605000Y-97530000D02*
X157605000Y-97530000D01*
X157605000Y-97530000D02*
X157605000Y-109530000D01*
X157605000Y-109530000D02*
X195605000Y-109530000D01*
X195605000Y-109530000D02*
X195605000Y-97530000D01*
D11*
X218820000Y-95200000D02*
X218820000Y-92540000D01*
X216220000Y-95200000D02*
X218820000Y-95200000D01*
X216220000Y-92540000D02*
X218820000Y-92540000D01*
X216220000Y-95200000D02*
X216220000Y-92540000D01*
X214950000Y-95200000D02*
X213620000Y-95200000D01*
X213620000Y-95200000D02*
X213620000Y-93870000D01*
X223600000Y-126080000D02*
X223600000Y-122240000D01*
X225440000Y-126080000D02*
X225440000Y-122240000D01*
X215170000Y-122190000D02*
X215170000Y-126030000D01*
X213330000Y-122190000D02*
X213330000Y-126030000D01*
X191640000Y-112400000D02*
X187800000Y-112400000D01*
X191640000Y-110560000D02*
X187800000Y-110560000D01*
X184150000Y-112420000D02*
X180310000Y-112420000D01*
X184150000Y-110580000D02*
X180310000Y-110580000D01*
D10*
X212584761Y-117588333D02*
X212632380Y-117445476D01*
X212632380Y-117207380D01*
X212584761Y-117112142D01*
X212537142Y-117064523D01*
X212441904Y-117016904D01*
X212346666Y-117016904D01*
X212251428Y-117064523D01*
X212203809Y-117112142D01*
X212156190Y-117207380D01*
X212108571Y-117397857D01*
X212060952Y-117493095D01*
X212013333Y-117540714D01*
X211918095Y-117588333D01*
X211822857Y-117588333D01*
X211727619Y-117540714D01*
X211680000Y-117493095D01*
X211632380Y-117397857D01*
X211632380Y-117159761D01*
X211680000Y-117016904D01*
X211632380Y-116683571D02*
X212632380Y-116445476D01*
X211918095Y-116255000D01*
X212632380Y-116064523D01*
X211632380Y-115826428D01*
X211632380Y-115540714D02*
X211632380Y-114874047D01*
X212632380Y-115302619D01*
X191801428Y-106429285D02*
X191765714Y-106536428D01*
X191765714Y-106715000D01*
X191801428Y-106786428D01*
X191837142Y-106822142D01*
X191908571Y-106857857D01*
X191980000Y-106857857D01*
X192051428Y-106822142D01*
X192087142Y-106786428D01*
X192122857Y-106715000D01*
X192158571Y-106572142D01*
X192194285Y-106500714D01*
X192230000Y-106465000D01*
X192301428Y-106429285D01*
X192372857Y-106429285D01*
X192444285Y-106465000D01*
X192480000Y-106500714D01*
X192515714Y-106572142D01*
X192515714Y-106750714D01*
X192480000Y-106857857D01*
X191765714Y-107179285D02*
X192515714Y-107179285D01*
X192515714Y-107357857D01*
X192480000Y-107465000D01*
X192408571Y-107536428D01*
X192337142Y-107572142D01*
X192194285Y-107607857D01*
X192087142Y-107607857D01*
X191944285Y-107572142D01*
X191872857Y-107536428D01*
X191801428Y-107465000D01*
X191765714Y-107357857D01*
X191765714Y-107179285D01*
X191980000Y-107893571D02*
X191980000Y-108250714D01*
X191765714Y-107822142D02*
X192515714Y-108072142D01*
X191765714Y-108322142D01*
X191801428Y-103907142D02*
X191765714Y-104014285D01*
X191765714Y-104192857D01*
X191801428Y-104264285D01*
X191837142Y-104300000D01*
X191908571Y-104335714D01*
X191980000Y-104335714D01*
X192051428Y-104300000D01*
X192087142Y-104264285D01*
X192122857Y-104192857D01*
X192158571Y-104050000D01*
X192194285Y-103978571D01*
X192230000Y-103942857D01*
X192301428Y-103907142D01*
X192372857Y-103907142D01*
X192444285Y-103942857D01*
X192480000Y-103978571D01*
X192515714Y-104050000D01*
X192515714Y-104228571D01*
X192480000Y-104335714D01*
X191837142Y-105085714D02*
X191801428Y-105050000D01*
X191765714Y-104942857D01*
X191765714Y-104871428D01*
X191801428Y-104764285D01*
X191872857Y-104692857D01*
X191944285Y-104657142D01*
X192087142Y-104621428D01*
X192194285Y-104621428D01*
X192337142Y-104657142D01*
X192408571Y-104692857D01*
X192480000Y-104764285D01*
X192515714Y-104871428D01*
X192515714Y-104942857D01*
X192480000Y-105050000D01*
X192444285Y-105085714D01*
X191765714Y-105764285D02*
X191765714Y-105407142D01*
X192515714Y-105407142D01*
X192515714Y-101260000D02*
X191765714Y-101510000D01*
X192515714Y-101760000D01*
X191837142Y-102438571D02*
X191801428Y-102402857D01*
X191765714Y-102295714D01*
X191765714Y-102224285D01*
X191801428Y-102117142D01*
X191872857Y-102045714D01*
X191944285Y-102010000D01*
X192087142Y-101974285D01*
X192194285Y-101974285D01*
X192337142Y-102010000D01*
X192408571Y-102045714D01*
X192480000Y-102117142D01*
X192515714Y-102224285D01*
X192515714Y-102295714D01*
X192480000Y-102402857D01*
X192444285Y-102438571D01*
X191837142Y-103188571D02*
X191801428Y-103152857D01*
X191765714Y-103045714D01*
X191765714Y-102974285D01*
X191801428Y-102867142D01*
X191872857Y-102795714D01*
X191944285Y-102760000D01*
X192087142Y-102724285D01*
X192194285Y-102724285D01*
X192337142Y-102760000D01*
X192408571Y-102795714D01*
X192480000Y-102867142D01*
X192515714Y-102974285D01*
X192515714Y-103045714D01*
X192480000Y-103152857D01*
X192444285Y-103188571D01*
X192480000Y-99148571D02*
X192515714Y-99077142D01*
X192515714Y-98970000D01*
X192480000Y-98862857D01*
X192408571Y-98791428D01*
X192337142Y-98755714D01*
X192194285Y-98720000D01*
X192087142Y-98720000D01*
X191944285Y-98755714D01*
X191872857Y-98791428D01*
X191801428Y-98862857D01*
X191765714Y-98970000D01*
X191765714Y-99041428D01*
X191801428Y-99148571D01*
X191837142Y-99184285D01*
X192087142Y-99184285D01*
X192087142Y-99041428D01*
X191765714Y-99505714D02*
X192515714Y-99505714D01*
X191765714Y-99934285D01*
X192515714Y-99934285D01*
X191765714Y-100291428D02*
X192515714Y-100291428D01*
X192515714Y-100470000D01*
X192480000Y-100577142D01*
X192408571Y-100648571D01*
X192337142Y-100684285D01*
X192194285Y-100720000D01*
X192087142Y-100720000D01*
X191944285Y-100684285D01*
X191872857Y-100648571D01*
X191801428Y-100577142D01*
X191765714Y-100470000D01*
X191765714Y-100291428D01*
X174732380Y-108148571D02*
X174732380Y-107958095D01*
X174780000Y-107862857D01*
X174875238Y-107767619D01*
X175065714Y-107720000D01*
X175399047Y-107720000D01*
X175589523Y-107767619D01*
X175684761Y-107862857D01*
X175732380Y-107958095D01*
X175732380Y-108148571D01*
X175684761Y-108243809D01*
X175589523Y-108339047D01*
X175399047Y-108386666D01*
X175065714Y-108386666D01*
X174875238Y-108339047D01*
X174780000Y-108243809D01*
X174732380Y-108148571D01*
X175732380Y-106815238D02*
X175732380Y-107291428D01*
X174732380Y-107291428D01*
X175208571Y-106481904D02*
X175208571Y-106148571D01*
X175732380Y-106005714D02*
X175732380Y-106481904D01*
X174732380Y-106481904D01*
X174732380Y-106005714D01*
X175732380Y-105577142D02*
X174732380Y-105577142D01*
X174732380Y-105339047D01*
X174780000Y-105196190D01*
X174875238Y-105100952D01*
X174970476Y-105053333D01*
X175160952Y-105005714D01*
X175303809Y-105005714D01*
X175494285Y-105053333D01*
X175589523Y-105100952D01*
X175684761Y-105196190D01*
X175732380Y-105339047D01*
X175732380Y-105577142D01*
X175732380Y-103815238D02*
X174732380Y-103815238D01*
X174732380Y-103434285D01*
X174780000Y-103339047D01*
X174827619Y-103291428D01*
X174922857Y-103243809D01*
X175065714Y-103243809D01*
X175160952Y-103291428D01*
X175208571Y-103339047D01*
X175256190Y-103434285D01*
X175256190Y-103815238D01*
X175732380Y-102386666D02*
X175208571Y-102386666D01*
X175113333Y-102434285D01*
X175065714Y-102529523D01*
X175065714Y-102720000D01*
X175113333Y-102815238D01*
X175684761Y-102386666D02*
X175732380Y-102481904D01*
X175732380Y-102720000D01*
X175684761Y-102815238D01*
X175589523Y-102862857D01*
X175494285Y-102862857D01*
X175399047Y-102815238D01*
X175351428Y-102720000D01*
X175351428Y-102481904D01*
X175303809Y-102386666D01*
X175065714Y-101910476D02*
X175732380Y-101910476D01*
X175160952Y-101910476D02*
X175113333Y-101862857D01*
X175065714Y-101767619D01*
X175065714Y-101624761D01*
X175113333Y-101529523D01*
X175208571Y-101481904D01*
X175732380Y-101481904D01*
X175684761Y-100624761D02*
X175732380Y-100720000D01*
X175732380Y-100910476D01*
X175684761Y-101005714D01*
X175589523Y-101053333D01*
X175208571Y-101053333D01*
X175113333Y-101005714D01*
X175065714Y-100910476D01*
X175065714Y-100720000D01*
X175113333Y-100624761D01*
X175208571Y-100577142D01*
X175303809Y-100577142D01*
X175399047Y-101053333D01*
X175732380Y-100005714D02*
X175684761Y-100100952D01*
X175589523Y-100148571D01*
X174732380Y-100148571D01*
X214817619Y-96852380D02*
X214484285Y-96376190D01*
X214246190Y-96852380D02*
X214246190Y-95852380D01*
X214627142Y-95852380D01*
X214722380Y-95900000D01*
X214770000Y-95947619D01*
X214817619Y-96042857D01*
X214817619Y-96185714D01*
X214770000Y-96280952D01*
X214722380Y-96328571D01*
X214627142Y-96376190D01*
X214246190Y-96376190D01*
X215246190Y-96328571D02*
X215579523Y-96328571D01*
X215722380Y-96852380D02*
X215246190Y-96852380D01*
X215246190Y-95852380D01*
X215722380Y-95852380D01*
X216103333Y-96804761D02*
X216246190Y-96852380D01*
X216484285Y-96852380D01*
X216579523Y-96804761D01*
X216627142Y-96757142D01*
X216674761Y-96661904D01*
X216674761Y-96566666D01*
X216627142Y-96471428D01*
X216579523Y-96423809D01*
X216484285Y-96376190D01*
X216293809Y-96328571D01*
X216198571Y-96280952D01*
X216150952Y-96233333D01*
X216103333Y-96138095D01*
X216103333Y-96042857D01*
X216150952Y-95947619D01*
X216198571Y-95900000D01*
X216293809Y-95852380D01*
X216531904Y-95852380D01*
X216674761Y-95900000D01*
X217103333Y-96328571D02*
X217436666Y-96328571D01*
X217579523Y-96852380D02*
X217103333Y-96852380D01*
X217103333Y-95852380D01*
X217579523Y-95852380D01*
X217865238Y-95852380D02*
X218436666Y-95852380D01*
X218150952Y-96852380D02*
X218150952Y-95852380D01*
X222957142Y-124326666D02*
X223004761Y-124374285D01*
X223052380Y-124517142D01*
X223052380Y-124612380D01*
X223004761Y-124755238D01*
X222909523Y-124850476D01*
X222814285Y-124898095D01*
X222623809Y-124945714D01*
X222480952Y-124945714D01*
X222290476Y-124898095D01*
X222195238Y-124850476D01*
X222100000Y-124755238D01*
X222052380Y-124612380D01*
X222052380Y-124517142D01*
X222100000Y-124374285D01*
X222147619Y-124326666D01*
X222147619Y-123945714D02*
X222100000Y-123898095D01*
X222052380Y-123802857D01*
X222052380Y-123564761D01*
X222100000Y-123469523D01*
X222147619Y-123421904D01*
X222242857Y-123374285D01*
X222338095Y-123374285D01*
X222480952Y-123421904D01*
X223052380Y-123993333D01*
X223052380Y-123374285D01*
X216527142Y-124276666D02*
X216574761Y-124324285D01*
X216622380Y-124467142D01*
X216622380Y-124562380D01*
X216574761Y-124705238D01*
X216479523Y-124800476D01*
X216384285Y-124848095D01*
X216193809Y-124895714D01*
X216050952Y-124895714D01*
X215860476Y-124848095D01*
X215765238Y-124800476D01*
X215670000Y-124705238D01*
X215622380Y-124562380D01*
X215622380Y-124467142D01*
X215670000Y-124324285D01*
X215717619Y-124276666D01*
X216622380Y-123324285D02*
X216622380Y-123895714D01*
X216622380Y-123610000D02*
X215622380Y-123610000D01*
X215765238Y-123705238D01*
X215860476Y-123800476D01*
X215908095Y-123895714D01*
X189553333Y-113852380D02*
X189220000Y-113376190D01*
X188981904Y-113852380D02*
X188981904Y-112852380D01*
X189362857Y-112852380D01*
X189458095Y-112900000D01*
X189505714Y-112947619D01*
X189553333Y-113042857D01*
X189553333Y-113185714D01*
X189505714Y-113280952D01*
X189458095Y-113328571D01*
X189362857Y-113376190D01*
X188981904Y-113376190D01*
X189934285Y-112947619D02*
X189981904Y-112900000D01*
X190077142Y-112852380D01*
X190315238Y-112852380D01*
X190410476Y-112900000D01*
X190458095Y-112947619D01*
X190505714Y-113042857D01*
X190505714Y-113138095D01*
X190458095Y-113280952D01*
X189886666Y-113852380D01*
X190505714Y-113852380D01*
X182063333Y-113872380D02*
X181730000Y-113396190D01*
X181491904Y-113872380D02*
X181491904Y-112872380D01*
X181872857Y-112872380D01*
X181968095Y-112920000D01*
X182015714Y-112967619D01*
X182063333Y-113062857D01*
X182063333Y-113205714D01*
X182015714Y-113300952D01*
X181968095Y-113348571D01*
X181872857Y-113396190D01*
X181491904Y-113396190D01*
X183015714Y-113872380D02*
X182444285Y-113872380D01*
X182730000Y-113872380D02*
X182730000Y-112872380D01*
X182634761Y-113015238D01*
X182539523Y-113110476D01*
X182444285Y-113158095D01*
%LPC*%
D13*
X221880000Y-104555000D03*
X216880000Y-104555000D03*
D14*
X224980000Y-111555000D03*
X213780000Y-111555000D03*
D13*
X221880000Y-119055000D03*
X219380000Y-119055000D03*
D15*
X216880000Y-119055000D03*
D16*
X211500000Y-96585000D03*
X196260000Y-124525000D03*
X211500000Y-99125000D03*
X211500000Y-101665000D03*
X211500000Y-104205000D03*
X211500000Y-106745000D03*
X211500000Y-109285000D03*
X211500000Y-111825000D03*
X211500000Y-114365000D03*
X211500000Y-116905000D03*
X211500000Y-119445000D03*
X211500000Y-121985000D03*
X211500000Y-124525000D03*
X196260000Y-121985000D03*
X196260000Y-119445000D03*
X196260000Y-116905000D03*
X196260000Y-114365000D03*
X196260000Y-111825000D03*
X196260000Y-109285000D03*
X196260000Y-106745000D03*
X196260000Y-104205000D03*
X196260000Y-101665000D03*
X196260000Y-99125000D03*
D17*
X196260000Y-96585000D03*
D18*
X180300000Y-121080000D03*
X190460000Y-121080000D03*
D19*
X185380000Y-121080000D03*
D20*
X181570000Y-118540000D03*
X187920000Y-116000000D03*
D18*
X161250000Y-121080000D03*
X171410000Y-121080000D03*
D19*
X166330000Y-121080000D03*
D20*
X162520000Y-118540000D03*
X168870000Y-116000000D03*
D18*
X180300000Y-102030000D03*
X190460000Y-102030000D03*
D19*
X185380000Y-102030000D03*
D20*
X181570000Y-99490000D03*
X187920000Y-96950000D03*
D18*
X161250000Y-102030000D03*
X171410000Y-102030000D03*
D19*
X166330000Y-102030000D03*
D20*
X162520000Y-99490000D03*
X168870000Y-96950000D03*
D21*
X194105000Y-107340000D03*
X194105000Y-104800000D03*
X194105000Y-102260000D03*
D22*
X194105000Y-99720000D03*
D23*
X175855000Y-128105000D03*
X227380000Y-125411406D03*
X227380000Y-97698594D03*
X175855000Y-95005000D03*
D21*
X217490000Y-93870000D03*
D22*
X214950000Y-93870000D03*
D24*
X224520000Y-121620000D03*
D25*
X224520000Y-126700000D03*
D24*
X214250000Y-126650000D03*
D25*
X214250000Y-121570000D03*
D24*
X187180000Y-111480000D03*
D25*
X192260000Y-111480000D03*
D24*
X179690000Y-111500000D03*
D25*
X184770000Y-111500000D03*
M02*
