%TF.GenerationSoftware,KiCad,Pcbnew,(6.0.4)*%
%TF.CreationDate,2022-08-26T14:00:32+02:00*%
%TF.ProjectId,Little Big Scroll 6 - Rear Plate,4c697474-6c65-4204-9269-67205363726f,v1.1*%
%TF.SameCoordinates,Original*%
%TF.FileFunction,Copper,L1,Top*%
%TF.FilePolarity,Positive*%
%FSLAX46Y46*%
G04 Gerber Fmt 4.6, Leading zero omitted, Abs format (unit mm)*
G04 Created by KiCad (PCBNEW (6.0.4)) date 2022-08-26 14:00:32*
%MOMM*%
%LPD*%
G01*
G04 APERTURE LIST*
G04 APERTURE END LIST*
%TA.AperFunction,NonConductor*%
G36*
X137860018Y-46290000D02*
G01*
X137874851Y-46292310D01*
X137874855Y-46292310D01*
X137883724Y-46293691D01*
X137898981Y-46291696D01*
X137924302Y-46290953D01*
X138073048Y-46301592D01*
X138093328Y-46303042D01*
X138111122Y-46305600D01*
X138301512Y-46347017D01*
X138318759Y-46352081D01*
X138501318Y-46420172D01*
X138517667Y-46427639D01*
X138688674Y-46521016D01*
X138703798Y-46530736D01*
X138859771Y-46647496D01*
X138873357Y-46659268D01*
X139011131Y-46797041D01*
X139022904Y-46810628D01*
X139139666Y-46966604D01*
X139149385Y-46981727D01*
X139242760Y-47152730D01*
X139250227Y-47169080D01*
X139306208Y-47319172D01*
X139318319Y-47351643D01*
X139323383Y-47368891D01*
X139364799Y-47559271D01*
X139367358Y-47577067D01*
X139378939Y-47738996D01*
X139378190Y-47757006D01*
X139378090Y-47765249D01*
X139376708Y-47774123D01*
X139379510Y-47795548D01*
X139380835Y-47805680D01*
X139381899Y-47822019D01*
X139381895Y-48551923D01*
X139381500Y-130740235D01*
X139380000Y-130759618D01*
X139376309Y-130783325D01*
X139378188Y-130797690D01*
X139378304Y-130798577D01*
X139379047Y-130823906D01*
X139366958Y-130992934D01*
X139364400Y-131010725D01*
X139333223Y-131154037D01*
X139322983Y-131201109D01*
X139317919Y-131218357D01*
X139305808Y-131250828D01*
X139253484Y-131391117D01*
X139249829Y-131400916D01*
X139242360Y-131417270D01*
X139148985Y-131588273D01*
X139139266Y-131603396D01*
X139022501Y-131759376D01*
X139010728Y-131772962D01*
X138872962Y-131910728D01*
X138859376Y-131922501D01*
X138703396Y-132039266D01*
X138688277Y-132048983D01*
X138517267Y-132142362D01*
X138500920Y-132149827D01*
X138350828Y-132205808D01*
X138318357Y-132217919D01*
X138301108Y-132222983D01*
X138110725Y-132264400D01*
X138092938Y-132266957D01*
X137930996Y-132278540D01*
X137913036Y-132277793D01*
X137904756Y-132277692D01*
X137895877Y-132276309D01*
X137871890Y-132279446D01*
X137864312Y-132280437D01*
X137847974Y-132281501D01*
X112651583Y-132281682D01*
X82699759Y-132281898D01*
X82680376Y-132280398D01*
X82674987Y-132279559D01*
X82665548Y-132278089D01*
X82665545Y-132278089D01*
X82656675Y-132276708D01*
X82641418Y-132278703D01*
X82616097Y-132279446D01*
X82447062Y-132267356D01*
X82429275Y-132264799D01*
X82238892Y-132223382D01*
X82221643Y-132218318D01*
X82189172Y-132206207D01*
X82039080Y-132150226D01*
X82022733Y-132142761D01*
X81851723Y-132049382D01*
X81836604Y-132039665D01*
X81680625Y-131922900D01*
X81667039Y-131911127D01*
X81529273Y-131773361D01*
X81517500Y-131759775D01*
X81400735Y-131603795D01*
X81391016Y-131588672D01*
X81297642Y-131417671D01*
X81290173Y-131401317D01*
X81222082Y-131218758D01*
X81217017Y-131201509D01*
X81175601Y-131011122D01*
X81173043Y-130993327D01*
X81161720Y-130835005D01*
X81162805Y-130812241D01*
X81162334Y-130812199D01*
X81162769Y-130807351D01*
X81163576Y-130802552D01*
X81163729Y-130790000D01*
X81159773Y-130762376D01*
X81158500Y-130744514D01*
X81158500Y-112685000D01*
X82236439Y-112685000D01*
X82256660Y-112993507D01*
X82316975Y-113296735D01*
X82416354Y-113589496D01*
X82418177Y-113593192D01*
X82418180Y-113593200D01*
X82528721Y-113817352D01*
X82553096Y-113866780D01*
X82555390Y-113870213D01*
X82555391Y-113870214D01*
X82724861Y-114123845D01*
X82727575Y-114126939D01*
X82727579Y-114126945D01*
X82926001Y-114353201D01*
X82928710Y-114356290D01*
X82931799Y-114358999D01*
X83158055Y-114557421D01*
X83158061Y-114557425D01*
X83161155Y-114560139D01*
X83164581Y-114562428D01*
X83164586Y-114562432D01*
X83414785Y-114729609D01*
X83418220Y-114731904D01*
X83421923Y-114733730D01*
X83691800Y-114866820D01*
X83691808Y-114866823D01*
X83695504Y-114868646D01*
X83699419Y-114869975D01*
X83984358Y-114966699D01*
X83984361Y-114966700D01*
X83988265Y-114968025D01*
X84214961Y-115013117D01*
X84287450Y-115027536D01*
X84287453Y-115027536D01*
X84291493Y-115028340D01*
X84295604Y-115028609D01*
X84295608Y-115028610D01*
X84520737Y-115043366D01*
X84520746Y-115043366D01*
X84522786Y-115043500D01*
X84677214Y-115043500D01*
X84679254Y-115043366D01*
X84679263Y-115043366D01*
X84904392Y-115028610D01*
X84904396Y-115028609D01*
X84908507Y-115028340D01*
X84912547Y-115027536D01*
X84912550Y-115027536D01*
X84985039Y-115013117D01*
X85211735Y-114968025D01*
X85215639Y-114966700D01*
X85215642Y-114966699D01*
X85500581Y-114869975D01*
X85504496Y-114868646D01*
X85508192Y-114866823D01*
X85508200Y-114866820D01*
X85778077Y-114733730D01*
X85781780Y-114731904D01*
X85785215Y-114729609D01*
X86035414Y-114562432D01*
X86035419Y-114562428D01*
X86038845Y-114560139D01*
X86041939Y-114557425D01*
X86041945Y-114557421D01*
X86268201Y-114358999D01*
X86271290Y-114356290D01*
X86273999Y-114353201D01*
X86472421Y-114126945D01*
X86472425Y-114126939D01*
X86475139Y-114123845D01*
X86646904Y-113866781D01*
X86783646Y-113589496D01*
X86883025Y-113296735D01*
X86943340Y-112993507D01*
X86963561Y-112685000D01*
X133576439Y-112685000D01*
X133596660Y-112993507D01*
X133656975Y-113296735D01*
X133756354Y-113589496D01*
X133758177Y-113593192D01*
X133758180Y-113593200D01*
X133868721Y-113817352D01*
X133893096Y-113866780D01*
X133895390Y-113870213D01*
X133895391Y-113870214D01*
X134064861Y-114123845D01*
X134067575Y-114126939D01*
X134067579Y-114126945D01*
X134266001Y-114353201D01*
X134268710Y-114356290D01*
X134271799Y-114358999D01*
X134498055Y-114557421D01*
X134498061Y-114557425D01*
X134501155Y-114560139D01*
X134504581Y-114562428D01*
X134504586Y-114562432D01*
X134754785Y-114729609D01*
X134758220Y-114731904D01*
X134761923Y-114733730D01*
X135031800Y-114866820D01*
X135031808Y-114866823D01*
X135035504Y-114868646D01*
X135039419Y-114869975D01*
X135324358Y-114966699D01*
X135324361Y-114966700D01*
X135328265Y-114968025D01*
X135554961Y-115013117D01*
X135627450Y-115027536D01*
X135627453Y-115027536D01*
X135631493Y-115028340D01*
X135635604Y-115028609D01*
X135635608Y-115028610D01*
X135860737Y-115043366D01*
X135860746Y-115043366D01*
X135862786Y-115043500D01*
X136017214Y-115043500D01*
X136019254Y-115043366D01*
X136019263Y-115043366D01*
X136244392Y-115028610D01*
X136244396Y-115028609D01*
X136248507Y-115028340D01*
X136252547Y-115027536D01*
X136252550Y-115027536D01*
X136325039Y-115013117D01*
X136551735Y-114968025D01*
X136555639Y-114966700D01*
X136555642Y-114966699D01*
X136840581Y-114869975D01*
X136844496Y-114868646D01*
X136848192Y-114866823D01*
X136848200Y-114866820D01*
X137118077Y-114733730D01*
X137121780Y-114731904D01*
X137125215Y-114729609D01*
X137375414Y-114562432D01*
X137375419Y-114562428D01*
X137378845Y-114560139D01*
X137381939Y-114557425D01*
X137381945Y-114557421D01*
X137608201Y-114358999D01*
X137611290Y-114356290D01*
X137613999Y-114353201D01*
X137812421Y-114126945D01*
X137812425Y-114126939D01*
X137815139Y-114123845D01*
X137986904Y-113866781D01*
X138123646Y-113589496D01*
X138223025Y-113296735D01*
X138283340Y-112993507D01*
X138303561Y-112685000D01*
X138283340Y-112376493D01*
X138223025Y-112073265D01*
X138123646Y-111780504D01*
X138121822Y-111776806D01*
X138121820Y-111776800D01*
X137988730Y-111506923D01*
X137986904Y-111503220D01*
X137984610Y-111499787D01*
X137984609Y-111499785D01*
X137817432Y-111249586D01*
X137817428Y-111249581D01*
X137815139Y-111246155D01*
X137812425Y-111243061D01*
X137812421Y-111243055D01*
X137613999Y-111016799D01*
X137611290Y-111013710D01*
X137608201Y-111011001D01*
X137381945Y-110812579D01*
X137381939Y-110812575D01*
X137378845Y-110809861D01*
X137375419Y-110807572D01*
X137375414Y-110807568D01*
X137125215Y-110640391D01*
X137125213Y-110640390D01*
X137121780Y-110638096D01*
X137072352Y-110613721D01*
X136848200Y-110503180D01*
X136848192Y-110503177D01*
X136844496Y-110501354D01*
X136840581Y-110500025D01*
X136555642Y-110403301D01*
X136555639Y-110403300D01*
X136551735Y-110401975D01*
X136325039Y-110356883D01*
X136252550Y-110342464D01*
X136252547Y-110342464D01*
X136248507Y-110341660D01*
X136244396Y-110341391D01*
X136244392Y-110341390D01*
X136019263Y-110326634D01*
X136019254Y-110326634D01*
X136017214Y-110326500D01*
X135862786Y-110326500D01*
X135860746Y-110326634D01*
X135860737Y-110326634D01*
X135635608Y-110341390D01*
X135635604Y-110341391D01*
X135631493Y-110341660D01*
X135627453Y-110342464D01*
X135627450Y-110342464D01*
X135554961Y-110356883D01*
X135328265Y-110401975D01*
X135324361Y-110403300D01*
X135324358Y-110403301D01*
X135039419Y-110500025D01*
X135035504Y-110501354D01*
X135031808Y-110503177D01*
X135031800Y-110503180D01*
X134807648Y-110613721D01*
X134758220Y-110638096D01*
X134754787Y-110640390D01*
X134754785Y-110640391D01*
X134504586Y-110807568D01*
X134504581Y-110807572D01*
X134501155Y-110809861D01*
X134498061Y-110812575D01*
X134498055Y-110812579D01*
X134271799Y-111011001D01*
X134268710Y-111013710D01*
X134266001Y-111016799D01*
X134067579Y-111243055D01*
X134067575Y-111243061D01*
X134064861Y-111246155D01*
X133893096Y-111503219D01*
X133756354Y-111780504D01*
X133656975Y-112073265D01*
X133596660Y-112376493D01*
X133576439Y-112685000D01*
X86963561Y-112685000D01*
X86943340Y-112376493D01*
X86883025Y-112073265D01*
X86783646Y-111780504D01*
X86781822Y-111776806D01*
X86781820Y-111776800D01*
X86648730Y-111506923D01*
X86646904Y-111503220D01*
X86644610Y-111499787D01*
X86644609Y-111499785D01*
X86477432Y-111249586D01*
X86477428Y-111249581D01*
X86475139Y-111246155D01*
X86472425Y-111243061D01*
X86472421Y-111243055D01*
X86273999Y-111016799D01*
X86271290Y-111013710D01*
X86268201Y-111011001D01*
X86041945Y-110812579D01*
X86041939Y-110812575D01*
X86038845Y-110809861D01*
X86035419Y-110807572D01*
X86035414Y-110807568D01*
X85785215Y-110640391D01*
X85785213Y-110640390D01*
X85781780Y-110638096D01*
X85732352Y-110613721D01*
X85508200Y-110503180D01*
X85508192Y-110503177D01*
X85504496Y-110501354D01*
X85500581Y-110500025D01*
X85215642Y-110403301D01*
X85215639Y-110403300D01*
X85211735Y-110401975D01*
X84985039Y-110356883D01*
X84912550Y-110342464D01*
X84912547Y-110342464D01*
X84908507Y-110341660D01*
X84904396Y-110341391D01*
X84904392Y-110341390D01*
X84679263Y-110326634D01*
X84679254Y-110326634D01*
X84677214Y-110326500D01*
X84522786Y-110326500D01*
X84520746Y-110326634D01*
X84520737Y-110326634D01*
X84295608Y-110341390D01*
X84295604Y-110341391D01*
X84291493Y-110341660D01*
X84287453Y-110342464D01*
X84287450Y-110342464D01*
X84214961Y-110356883D01*
X83988265Y-110401975D01*
X83984361Y-110403300D01*
X83984358Y-110403301D01*
X83699419Y-110500025D01*
X83695504Y-110501354D01*
X83691808Y-110503177D01*
X83691800Y-110503180D01*
X83467648Y-110613721D01*
X83418220Y-110638096D01*
X83414787Y-110640390D01*
X83414785Y-110640391D01*
X83164586Y-110807568D01*
X83164581Y-110807572D01*
X83161155Y-110809861D01*
X83158061Y-110812575D01*
X83158055Y-110812579D01*
X82931799Y-111011001D01*
X82928710Y-111013710D01*
X82926001Y-111016799D01*
X82727579Y-111243055D01*
X82727575Y-111243061D01*
X82724861Y-111246155D01*
X82553096Y-111503219D01*
X82416354Y-111780504D01*
X82316975Y-112073265D01*
X82256660Y-112376493D01*
X82236439Y-112685000D01*
X81158500Y-112685000D01*
X81158500Y-49730000D01*
X82236439Y-49730000D01*
X82256660Y-50038507D01*
X82316975Y-50341735D01*
X82416354Y-50634496D01*
X82418177Y-50638192D01*
X82418180Y-50638200D01*
X82528721Y-50862352D01*
X82553096Y-50911780D01*
X82555390Y-50915213D01*
X82555391Y-50915214D01*
X82724861Y-51168845D01*
X82727575Y-51171939D01*
X82727579Y-51171945D01*
X82926001Y-51398201D01*
X82928710Y-51401290D01*
X82931799Y-51403999D01*
X83158055Y-51602421D01*
X83158061Y-51602425D01*
X83161155Y-51605139D01*
X83164581Y-51607428D01*
X83164586Y-51607432D01*
X83414785Y-51774609D01*
X83418220Y-51776904D01*
X83421923Y-51778730D01*
X83691800Y-51911820D01*
X83691808Y-51911823D01*
X83695504Y-51913646D01*
X83699419Y-51914975D01*
X83984358Y-52011699D01*
X83984361Y-52011700D01*
X83988265Y-52013025D01*
X84214961Y-52058117D01*
X84287450Y-52072536D01*
X84287453Y-52072536D01*
X84291493Y-52073340D01*
X84295604Y-52073609D01*
X84295608Y-52073610D01*
X84520737Y-52088366D01*
X84520746Y-52088366D01*
X84522786Y-52088500D01*
X84677214Y-52088500D01*
X84679254Y-52088366D01*
X84679263Y-52088366D01*
X84904392Y-52073610D01*
X84904396Y-52073609D01*
X84908507Y-52073340D01*
X84912547Y-52072536D01*
X84912550Y-52072536D01*
X84985039Y-52058117D01*
X85211735Y-52013025D01*
X85215639Y-52011700D01*
X85215642Y-52011699D01*
X85500581Y-51914975D01*
X85504496Y-51913646D01*
X85508192Y-51911823D01*
X85508200Y-51911820D01*
X85778077Y-51778730D01*
X85781780Y-51776904D01*
X85785215Y-51774609D01*
X86035414Y-51607432D01*
X86035419Y-51607428D01*
X86038845Y-51605139D01*
X86041939Y-51602425D01*
X86041945Y-51602421D01*
X86268201Y-51403999D01*
X86271290Y-51401290D01*
X86273999Y-51398201D01*
X86472421Y-51171945D01*
X86472425Y-51171939D01*
X86475139Y-51168845D01*
X86646904Y-50911781D01*
X86783646Y-50634496D01*
X86883025Y-50341735D01*
X86943340Y-50038507D01*
X86963561Y-49730000D01*
X133576439Y-49730000D01*
X133596660Y-50038507D01*
X133656975Y-50341735D01*
X133756354Y-50634496D01*
X133758177Y-50638192D01*
X133758180Y-50638200D01*
X133868721Y-50862352D01*
X133893096Y-50911780D01*
X133895390Y-50915213D01*
X133895391Y-50915214D01*
X134064861Y-51168845D01*
X134067575Y-51171939D01*
X134067579Y-51171945D01*
X134266001Y-51398201D01*
X134268710Y-51401290D01*
X134271799Y-51403999D01*
X134498055Y-51602421D01*
X134498061Y-51602425D01*
X134501155Y-51605139D01*
X134504581Y-51607428D01*
X134504586Y-51607432D01*
X134754785Y-51774609D01*
X134758220Y-51776904D01*
X134761923Y-51778730D01*
X135031800Y-51911820D01*
X135031808Y-51911823D01*
X135035504Y-51913646D01*
X135039419Y-51914975D01*
X135324358Y-52011699D01*
X135324361Y-52011700D01*
X135328265Y-52013025D01*
X135554961Y-52058117D01*
X135627450Y-52072536D01*
X135627453Y-52072536D01*
X135631493Y-52073340D01*
X135635604Y-52073609D01*
X135635608Y-52073610D01*
X135860737Y-52088366D01*
X135860746Y-52088366D01*
X135862786Y-52088500D01*
X136017214Y-52088500D01*
X136019254Y-52088366D01*
X136019263Y-52088366D01*
X136244392Y-52073610D01*
X136244396Y-52073609D01*
X136248507Y-52073340D01*
X136252547Y-52072536D01*
X136252550Y-52072536D01*
X136325039Y-52058117D01*
X136551735Y-52013025D01*
X136555639Y-52011700D01*
X136555642Y-52011699D01*
X136840581Y-51914975D01*
X136844496Y-51913646D01*
X136848192Y-51911823D01*
X136848200Y-51911820D01*
X137118077Y-51778730D01*
X137121780Y-51776904D01*
X137125215Y-51774609D01*
X137375414Y-51607432D01*
X137375419Y-51607428D01*
X137378845Y-51605139D01*
X137381939Y-51602425D01*
X137381945Y-51602421D01*
X137608201Y-51403999D01*
X137611290Y-51401290D01*
X137613999Y-51398201D01*
X137812421Y-51171945D01*
X137812425Y-51171939D01*
X137815139Y-51168845D01*
X137986904Y-50911781D01*
X138123646Y-50634496D01*
X138223025Y-50341735D01*
X138283340Y-50038507D01*
X138303561Y-49730000D01*
X138283340Y-49421493D01*
X138223025Y-49118265D01*
X138123646Y-48825504D01*
X138121822Y-48821806D01*
X138121820Y-48821800D01*
X137988730Y-48551923D01*
X137986904Y-48548220D01*
X137984610Y-48544787D01*
X137984609Y-48544785D01*
X137817432Y-48294586D01*
X137817428Y-48294581D01*
X137815139Y-48291155D01*
X137812425Y-48288061D01*
X137812421Y-48288055D01*
X137613999Y-48061799D01*
X137611290Y-48058710D01*
X137608201Y-48056001D01*
X137381945Y-47857579D01*
X137381939Y-47857575D01*
X137378845Y-47854861D01*
X137375419Y-47852572D01*
X137375414Y-47852568D01*
X137125215Y-47685391D01*
X137125213Y-47685390D01*
X137121780Y-47683096D01*
X136906776Y-47577067D01*
X136848200Y-47548180D01*
X136848192Y-47548177D01*
X136844496Y-47546354D01*
X136840581Y-47545025D01*
X136555642Y-47448301D01*
X136555639Y-47448300D01*
X136551735Y-47446975D01*
X136325039Y-47401883D01*
X136252550Y-47387464D01*
X136252547Y-47387464D01*
X136248507Y-47386660D01*
X136244396Y-47386391D01*
X136244392Y-47386390D01*
X136019263Y-47371634D01*
X136019254Y-47371634D01*
X136017214Y-47371500D01*
X135862786Y-47371500D01*
X135860746Y-47371634D01*
X135860737Y-47371634D01*
X135635608Y-47386390D01*
X135635604Y-47386391D01*
X135631493Y-47386660D01*
X135627453Y-47387464D01*
X135627450Y-47387464D01*
X135554961Y-47401883D01*
X135328265Y-47446975D01*
X135324361Y-47448300D01*
X135324358Y-47448301D01*
X135039419Y-47545025D01*
X135035504Y-47546354D01*
X135031808Y-47548177D01*
X135031800Y-47548180D01*
X134973224Y-47577067D01*
X134758220Y-47683096D01*
X134754787Y-47685390D01*
X134754785Y-47685391D01*
X134504586Y-47852568D01*
X134504581Y-47852572D01*
X134501155Y-47854861D01*
X134498061Y-47857575D01*
X134498055Y-47857579D01*
X134271799Y-48056001D01*
X134268710Y-48058710D01*
X134266001Y-48061799D01*
X134067579Y-48288055D01*
X134067575Y-48288061D01*
X134064861Y-48291155D01*
X133893096Y-48548219D01*
X133756354Y-48825504D01*
X133656975Y-49118265D01*
X133596660Y-49421493D01*
X133576439Y-49730000D01*
X86963561Y-49730000D01*
X86943340Y-49421493D01*
X86883025Y-49118265D01*
X86783646Y-48825504D01*
X86781822Y-48821806D01*
X86781820Y-48821800D01*
X86648730Y-48551923D01*
X86646904Y-48548220D01*
X86644610Y-48544787D01*
X86644609Y-48544785D01*
X86477432Y-48294586D01*
X86477428Y-48294581D01*
X86475139Y-48291155D01*
X86472425Y-48288061D01*
X86472421Y-48288055D01*
X86273999Y-48061799D01*
X86271290Y-48058710D01*
X86268201Y-48056001D01*
X86041945Y-47857579D01*
X86041939Y-47857575D01*
X86038845Y-47854861D01*
X86035419Y-47852572D01*
X86035414Y-47852568D01*
X85785215Y-47685391D01*
X85785213Y-47685390D01*
X85781780Y-47683096D01*
X85566776Y-47577067D01*
X85508200Y-47548180D01*
X85508192Y-47548177D01*
X85504496Y-47546354D01*
X85500581Y-47545025D01*
X85215642Y-47448301D01*
X85215639Y-47448300D01*
X85211735Y-47446975D01*
X84985039Y-47401883D01*
X84912550Y-47387464D01*
X84912547Y-47387464D01*
X84908507Y-47386660D01*
X84904396Y-47386391D01*
X84904392Y-47386390D01*
X84679263Y-47371634D01*
X84679254Y-47371634D01*
X84677214Y-47371500D01*
X84522786Y-47371500D01*
X84520746Y-47371634D01*
X84520737Y-47371634D01*
X84295608Y-47386390D01*
X84295604Y-47386391D01*
X84291493Y-47386660D01*
X84287453Y-47387464D01*
X84287450Y-47387464D01*
X84214961Y-47401883D01*
X83988265Y-47446975D01*
X83984361Y-47448300D01*
X83984358Y-47448301D01*
X83699419Y-47545025D01*
X83695504Y-47546354D01*
X83691808Y-47548177D01*
X83691800Y-47548180D01*
X83633224Y-47577067D01*
X83418220Y-47683096D01*
X83414787Y-47685390D01*
X83414785Y-47685391D01*
X83164586Y-47852568D01*
X83164581Y-47852572D01*
X83161155Y-47854861D01*
X83158061Y-47857575D01*
X83158055Y-47857579D01*
X82931799Y-48056001D01*
X82928710Y-48058710D01*
X82926001Y-48061799D01*
X82727579Y-48288055D01*
X82727575Y-48288061D01*
X82724861Y-48291155D01*
X82553096Y-48548219D01*
X82416354Y-48825504D01*
X82316975Y-49118265D01*
X82256660Y-49421493D01*
X82236439Y-49730000D01*
X81158500Y-49730000D01*
X81158500Y-47829766D01*
X81160000Y-47810381D01*
X81162310Y-47795548D01*
X81162310Y-47795544D01*
X81163691Y-47786675D01*
X81161696Y-47771418D01*
X81160953Y-47746094D01*
X81165459Y-47683096D01*
X81173043Y-47577062D01*
X81175601Y-47559271D01*
X81217017Y-47368891D01*
X81222081Y-47351643D01*
X81234192Y-47319172D01*
X81290173Y-47169080D01*
X81297640Y-47152730D01*
X81391015Y-46981727D01*
X81400734Y-46966604D01*
X81517499Y-46810624D01*
X81529272Y-46797038D01*
X81667038Y-46659272D01*
X81680624Y-46647499D01*
X81727612Y-46612324D01*
X81836607Y-46530732D01*
X81851723Y-46521017D01*
X82022733Y-46427638D01*
X82039080Y-46420173D01*
X82221642Y-46352081D01*
X82238891Y-46347017D01*
X82285963Y-46336777D01*
X82429275Y-46305600D01*
X82447062Y-46303043D01*
X82609004Y-46291460D01*
X82626964Y-46292207D01*
X82635244Y-46292308D01*
X82644123Y-46293691D01*
X82675685Y-46289564D01*
X82692020Y-46288500D01*
X137840633Y-46288500D01*
X137860018Y-46290000D01*
G37*
%TD.AperFunction*%
M02*
