%TF.GenerationSoftware,KiCad,Pcbnew,(6.0.4)*%
%TF.CreationDate,2022-08-26T14:02:31+02:00*%
%TF.ProjectId,Little Big Scroll 6 - Front Plate,4c697474-6c65-4204-9269-67205363726f,v1.1*%
%TF.SameCoordinates,Original*%
%TF.FileFunction,Profile,NP*%
%FSLAX46Y46*%
G04 Gerber Fmt 4.6, Leading zero omitted, Abs format (unit mm)*
G04 Created by KiCad (PCBNEW (6.0.4)) date 2022-08-26 14:02:31*
%MOMM*%
%LPD*%
G01*
G04 APERTURE LIST*
%TA.AperFunction,Profile*%
%ADD10C,0.050000*%
%TD*%
%TA.AperFunction,Profile*%
%ADD11C,0.100000*%
%TD*%
%TA.AperFunction,Profile*%
%ADD12C,0.120000*%
%TD*%
G04 APERTURE END LIST*
D10*
X82650399Y-45780000D02*
G75*
G03*
X80650000Y-47780399I1J-2000400D01*
G01*
X80650001Y-130790000D02*
G75*
G03*
X82650399Y-132790399I2000399J0D01*
G01*
X139890400Y-47780399D02*
G75*
G03*
X137890000Y-45780000I-2000400J-1D01*
G01*
X139890399Y-47780399D02*
X139890000Y-130789601D01*
X82650399Y-45780000D02*
X137890000Y-45780000D01*
X80650000Y-130790000D02*
X80650000Y-47780399D01*
X137889601Y-132790000D02*
G75*
G03*
X139890000Y-130789601I-1J2000400D01*
G01*
X137889601Y-132790000D02*
X82650399Y-132790399D01*
D11*
X98120000Y-110060000D02*
X98120000Y-96260000D01*
X98120000Y-96260000D02*
X84320000Y-96260000D01*
X84320000Y-96260000D02*
X84320000Y-110060000D01*
X84320000Y-110060000D02*
X98120000Y-110060000D01*
X103370000Y-96260000D02*
X103370000Y-110060000D01*
X103370000Y-110060000D02*
X117170000Y-110060000D01*
X117170000Y-96260000D02*
X103370000Y-96260000D01*
X117170000Y-110060000D02*
X117170000Y-96260000D01*
X136220000Y-96260000D02*
X122420000Y-96260000D01*
X122420000Y-110060000D02*
X136220000Y-110060000D01*
X136220000Y-110060000D02*
X136220000Y-96260000D01*
X122420000Y-96260000D02*
X122420000Y-110060000D01*
X84320000Y-115310000D02*
X84320000Y-129110000D01*
X98120000Y-115310000D02*
X84320000Y-115310000D01*
X98120000Y-129110000D02*
X98120000Y-115310000D01*
X84320000Y-129110000D02*
X98120000Y-129110000D01*
X103370000Y-115310000D02*
X103370000Y-129110000D01*
X103370000Y-129110000D02*
X117170000Y-129110000D01*
X117170000Y-115310000D02*
X103370000Y-115310000D01*
X117170000Y-129110000D02*
X117170000Y-115310000D01*
X136220000Y-129110000D02*
X136220000Y-115310000D01*
X122420000Y-115310000D02*
X122420000Y-129110000D01*
X136220000Y-115310000D02*
X122420000Y-115310000D01*
X122420000Y-129110000D02*
X136220000Y-129110000D01*
D12*
X104020000Y-61910000D02*
X116520000Y-61910000D01*
X116520000Y-61910000D02*
X116520000Y-74410000D01*
X104020000Y-74410000D02*
X104020000Y-61910000D01*
X116520000Y-74410000D02*
X104020000Y-74410000D01*
D11*
X111064452Y-58620000D02*
X109475547Y-58620000D01*
X108570001Y-57822843D02*
X108570001Y-56417159D01*
X109475548Y-55620001D02*
X111064452Y-55620001D01*
X111969999Y-56417159D02*
X111969999Y-57822843D01*
X109223289Y-55551702D02*
G75*
G03*
X108520516Y-56200282I-252259J-431700D01*
G01*
X109223289Y-55551702D02*
G75*
G03*
X109475548Y-55620001I252261J431712D01*
G01*
X111316711Y-58688300D02*
G75*
G03*
X111064453Y-58620001I-252261J-431710D01*
G01*
X112019484Y-56200281D02*
G75*
G03*
X111969999Y-56417158I450505J-216876D01*
G01*
X108520518Y-58039722D02*
G75*
G03*
X108570001Y-57822844I-450548J216882D01*
G01*
X109475547Y-58620000D02*
G75*
G03*
X109223289Y-58688299I3J-500010D01*
G01*
X112019484Y-56200281D02*
G75*
G03*
X111316711Y-55551704I-450515J216877D01*
G01*
X108520516Y-58039721D02*
G75*
G03*
X109223289Y-58688299I450514J-216879D01*
G01*
X108570005Y-56417159D02*
G75*
G03*
X108520516Y-56200281I-499705J59D01*
G01*
X111969999Y-57822843D02*
G75*
G03*
X112019484Y-58039721I499990J-2D01*
G01*
X111064452Y-55620001D02*
G75*
G03*
X111316710Y-55551702I-3J500009D01*
G01*
X111316711Y-58688300D02*
G75*
G03*
X112019484Y-58039721I252258J431701D01*
G01*
X108570001Y-80817843D02*
X108570001Y-79412159D01*
X111969999Y-79412159D02*
X111969999Y-80817843D01*
X111064452Y-81615000D02*
X109475547Y-81615000D01*
X109475548Y-78615001D02*
X111064452Y-78615001D01*
X109475547Y-81615000D02*
G75*
G03*
X109223289Y-81683299I3J-500010D01*
G01*
X108520516Y-81034721D02*
G75*
G03*
X109223289Y-81683299I450514J-216879D01*
G01*
X111316711Y-81683300D02*
G75*
G03*
X112019484Y-81034721I252258J431701D01*
G01*
X112019484Y-79195281D02*
G75*
G03*
X111969999Y-79412158I450505J-216876D01*
G01*
X111969999Y-80817843D02*
G75*
G03*
X112019484Y-81034721I499990J-2D01*
G01*
X109223289Y-78546702D02*
G75*
G03*
X108520516Y-79195282I-252259J-431700D01*
G01*
X108570005Y-79412159D02*
G75*
G03*
X108520516Y-79195281I-499705J59D01*
G01*
X109223289Y-78546702D02*
G75*
G03*
X109475548Y-78615001I252261J431712D01*
G01*
X111316711Y-81683300D02*
G75*
G03*
X111064453Y-81615001I-252261J-431710D01*
G01*
X111064452Y-78615001D02*
G75*
G03*
X111316710Y-78546702I-3J500009D01*
G01*
X108520518Y-81034722D02*
G75*
G03*
X108570001Y-80817844I-450548J216882D01*
G01*
X112019484Y-79195281D02*
G75*
G03*
X111316711Y-78546704I-450515J216877D01*
G01*
M02*
