M48
; DRILL file {KiCad (6.0.4)} date Fri Aug 26 14:02:34 2022
; FORMAT={-:-/ absolute / metric / decimal}
; #@! TF.CreationDate,2022-08-26T14:02:34+02:00
; #@! TF.GenerationSoftware,Kicad,Pcbnew,(6.0.4)
; #@! TF.FileFunction,NonPlated,1,2,NPTH
FMAT,2
METRIC
; #@! TA.AperFunction,NonPlated,NPTH,ComponentDrill
T1C1.000
; #@! TA.AperFunction,NonPlated,NPTH,ComponentDrill
T2C3.700
%
G90
G05
T1
X84.641Y-96.581
X84.641Y-109.739
X84.641Y-115.631
X84.641Y-128.789
X97.799Y-96.581
X97.799Y-109.739
X97.799Y-115.631
X97.799Y-128.789
X103.691Y-96.581
X103.691Y-109.739
X103.691Y-115.631
X103.691Y-128.789
X104.32Y-62.21
X104.32Y-74.11
X116.22Y-62.21
X116.22Y-74.11
X116.849Y-96.581
X116.849Y-109.739
X116.849Y-115.631
X116.849Y-128.789
X122.741Y-96.581
X122.741Y-109.739
X122.741Y-115.631
X122.741Y-128.789
X135.899Y-96.581
X135.899Y-109.739
X135.899Y-115.631
X135.899Y-128.789
T2
X84.6Y-49.73
X84.6Y-112.685
X135.94Y-49.73
X135.94Y-112.685
T0
M30
