%TF.GenerationSoftware,KiCad,Pcbnew,(6.0.4)*%
%TF.CreationDate,2022-04-07T14:26:37+02:00*%
%TF.ProjectId,LBS6_Front_Plate,4c425336-5f46-4726-9f6e-745f506c6174,v1.01*%
%TF.SameCoordinates,Original*%
%TF.FileFunction,Copper,L2,Bot*%
%TF.FilePolarity,Positive*%
%FSLAX46Y46*%
G04 Gerber Fmt 4.6, Leading zero omitted, Abs format (unit mm)*
G04 Created by KiCad (PCBNEW (6.0.4)) date 2022-04-07 14:26:37*
%MOMM*%
%LPD*%
G01*
G04 APERTURE LIST*
G04 APERTURE END LIST*
%TA.AperFunction,NonConductor*%
G36*
X138860018Y-46290000D02*
G01*
X138874852Y-46292310D01*
X138874855Y-46292310D01*
X138883724Y-46293691D01*
X138892626Y-46292527D01*
X138892750Y-46292511D01*
X138923192Y-46292240D01*
X138930621Y-46293077D01*
X138985264Y-46299234D01*
X139012771Y-46305513D01*
X139089853Y-46332485D01*
X139115274Y-46344727D01*
X139184426Y-46388178D01*
X139206485Y-46405770D01*
X139264230Y-46463515D01*
X139281822Y-46485574D01*
X139325273Y-46554726D01*
X139337515Y-46580147D01*
X139364487Y-46657228D01*
X139370766Y-46684736D01*
X139377018Y-46740226D01*
X139376923Y-46755868D01*
X139377800Y-46755879D01*
X139377690Y-46764851D01*
X139376309Y-46773724D01*
X139377473Y-46782626D01*
X139377473Y-46782628D01*
X139380436Y-46805283D01*
X139381500Y-46821621D01*
X139381500Y-131740633D01*
X139380000Y-131760018D01*
X139376309Y-131783724D01*
X139377473Y-131792626D01*
X139377489Y-131792750D01*
X139377760Y-131823193D01*
X139370766Y-131885264D01*
X139364487Y-131912771D01*
X139337515Y-131989853D01*
X139325273Y-132015274D01*
X139281822Y-132084426D01*
X139264230Y-132106485D01*
X139206485Y-132164230D01*
X139184426Y-132181822D01*
X139115274Y-132225273D01*
X139089853Y-132237515D01*
X139012772Y-132264487D01*
X138985264Y-132270766D01*
X138929774Y-132277018D01*
X138914132Y-132276923D01*
X138914121Y-132277800D01*
X138905149Y-132277690D01*
X138896276Y-132276309D01*
X138887374Y-132277473D01*
X138887372Y-132277473D01*
X138876385Y-132278910D01*
X138864714Y-132280436D01*
X138848379Y-132281500D01*
X81696470Y-132281500D01*
X81677085Y-132280000D01*
X81662252Y-132277690D01*
X81662248Y-132277690D01*
X81653379Y-132276309D01*
X81644354Y-132277489D01*
X81613919Y-132277761D01*
X81559050Y-132271579D01*
X81551839Y-132270767D01*
X81524336Y-132264490D01*
X81447243Y-132237514D01*
X81421827Y-132225274D01*
X81421826Y-132225273D01*
X81352675Y-132181823D01*
X81330616Y-132164231D01*
X81272872Y-132106487D01*
X81255280Y-132084429D01*
X81211826Y-132015274D01*
X81199587Y-131989860D01*
X81172611Y-131912767D01*
X81166334Y-131885265D01*
X81160274Y-131831484D01*
X81159992Y-131806659D01*
X81160683Y-131802552D01*
X81160836Y-131790000D01*
X81160147Y-131785189D01*
X81160146Y-131785173D01*
X81156882Y-131762384D01*
X81155609Y-131744518D01*
X81155676Y-129797100D01*
X81156254Y-112792655D01*
X82839858Y-112792655D01*
X82875104Y-113051638D01*
X82876412Y-113056124D01*
X82876412Y-113056126D01*
X82896098Y-113123664D01*
X82948243Y-113302567D01*
X83057668Y-113539928D01*
X83060231Y-113543837D01*
X83198410Y-113754596D01*
X83198414Y-113754601D01*
X83200976Y-113758509D01*
X83375018Y-113953506D01*
X83575970Y-114120637D01*
X83579973Y-114123066D01*
X83795422Y-114253804D01*
X83795426Y-114253806D01*
X83799419Y-114256229D01*
X84040455Y-114357303D01*
X84293783Y-114421641D01*
X84298434Y-114422109D01*
X84298438Y-114422110D01*
X84313733Y-114423650D01*
X84379507Y-114450377D01*
X84420390Y-114508421D01*
X84423401Y-114579354D01*
X84387585Y-114640655D01*
X84337527Y-114669637D01*
X84255231Y-114694484D01*
X84080604Y-114787334D01*
X83994338Y-114857691D01*
X83932113Y-114908440D01*
X83932110Y-114908443D01*
X83927338Y-114912335D01*
X83923411Y-114917082D01*
X83923409Y-114917084D01*
X83805199Y-115059975D01*
X83805197Y-115059979D01*
X83801270Y-115064725D01*
X83707202Y-115238699D01*
X83648718Y-115427632D01*
X83628045Y-115624325D01*
X83645970Y-115821288D01*
X83701810Y-116011019D01*
X83704663Y-116016477D01*
X83704665Y-116016481D01*
X83790585Y-116180829D01*
X83793440Y-116186290D01*
X83792540Y-116186760D01*
X83811500Y-116250353D01*
X83811500Y-128171121D01*
X83796336Y-128231050D01*
X83707202Y-128395899D01*
X83648718Y-128584832D01*
X83628045Y-128781525D01*
X83645970Y-128978488D01*
X83701810Y-129168219D01*
X83704663Y-129173677D01*
X83704665Y-129173681D01*
X83752120Y-129264453D01*
X83793440Y-129343490D01*
X83917368Y-129497625D01*
X83922092Y-129501589D01*
X83929333Y-129507665D01*
X84068874Y-129624754D01*
X84074272Y-129627721D01*
X84074277Y-129627725D01*
X84217580Y-129706505D01*
X84242187Y-129720033D01*
X84248054Y-129721894D01*
X84248056Y-129721895D01*
X84424836Y-129777973D01*
X84430706Y-129779835D01*
X84584627Y-129797100D01*
X84691169Y-129797100D01*
X84694225Y-129796800D01*
X84694232Y-129796800D01*
X84752740Y-129791063D01*
X84838233Y-129782680D01*
X84844134Y-129780898D01*
X84844136Y-129780898D01*
X84917453Y-129758762D01*
X85027569Y-129725516D01*
X85201102Y-129633248D01*
X85260254Y-129618500D01*
X97182346Y-129618500D01*
X97243047Y-129634085D01*
X97399387Y-129720033D01*
X97405254Y-129721894D01*
X97405256Y-129721895D01*
X97582036Y-129777973D01*
X97587906Y-129779835D01*
X97741827Y-129797100D01*
X97848369Y-129797100D01*
X97851425Y-129796800D01*
X97851432Y-129796800D01*
X97909940Y-129791063D01*
X97995433Y-129782680D01*
X98001334Y-129780898D01*
X98001336Y-129780898D01*
X98074653Y-129758762D01*
X98184769Y-129725516D01*
X98359396Y-129632666D01*
X98445662Y-129562309D01*
X98507887Y-129511560D01*
X98507890Y-129511557D01*
X98512662Y-129507665D01*
X98524944Y-129492819D01*
X98634801Y-129360025D01*
X98634803Y-129360021D01*
X98638730Y-129355275D01*
X98732798Y-129181301D01*
X98791282Y-128992368D01*
X98811955Y-128795675D01*
X98810667Y-128781525D01*
X102678045Y-128781525D01*
X102695970Y-128978488D01*
X102751810Y-129168219D01*
X102754663Y-129173677D01*
X102754665Y-129173681D01*
X102802120Y-129264453D01*
X102843440Y-129343490D01*
X102967368Y-129497625D01*
X102972092Y-129501589D01*
X102979333Y-129507665D01*
X103118874Y-129624754D01*
X103124272Y-129627721D01*
X103124277Y-129627725D01*
X103267580Y-129706505D01*
X103292187Y-129720033D01*
X103298054Y-129721894D01*
X103298056Y-129721895D01*
X103474836Y-129777973D01*
X103480706Y-129779835D01*
X103634627Y-129797100D01*
X103741169Y-129797100D01*
X103744225Y-129796800D01*
X103744232Y-129796800D01*
X103802740Y-129791063D01*
X103888233Y-129782680D01*
X103894134Y-129780898D01*
X103894136Y-129780898D01*
X103967453Y-129758762D01*
X104077569Y-129725516D01*
X104251102Y-129633248D01*
X104310254Y-129618500D01*
X116232346Y-129618500D01*
X116293047Y-129634085D01*
X116449387Y-129720033D01*
X116455254Y-129721894D01*
X116455256Y-129721895D01*
X116632036Y-129777973D01*
X116637906Y-129779835D01*
X116791827Y-129797100D01*
X116898369Y-129797100D01*
X116901425Y-129796800D01*
X116901432Y-129796800D01*
X116959940Y-129791063D01*
X117045433Y-129782680D01*
X117051334Y-129780898D01*
X117051336Y-129780898D01*
X117124653Y-129758762D01*
X117234769Y-129725516D01*
X117409396Y-129632666D01*
X117495662Y-129562309D01*
X117557887Y-129511560D01*
X117557890Y-129511557D01*
X117562662Y-129507665D01*
X117574944Y-129492819D01*
X117684801Y-129360025D01*
X117684803Y-129360021D01*
X117688730Y-129355275D01*
X117782798Y-129181301D01*
X117841282Y-128992368D01*
X117861955Y-128795675D01*
X117860667Y-128781525D01*
X121728045Y-128781525D01*
X121745970Y-128978488D01*
X121801810Y-129168219D01*
X121804663Y-129173677D01*
X121804665Y-129173681D01*
X121852120Y-129264453D01*
X121893440Y-129343490D01*
X122017368Y-129497625D01*
X122022092Y-129501589D01*
X122029333Y-129507665D01*
X122168874Y-129624754D01*
X122174272Y-129627721D01*
X122174277Y-129627725D01*
X122317580Y-129706505D01*
X122342187Y-129720033D01*
X122348054Y-129721894D01*
X122348056Y-129721895D01*
X122524836Y-129777973D01*
X122530706Y-129779835D01*
X122684627Y-129797100D01*
X122791169Y-129797100D01*
X122794225Y-129796800D01*
X122794232Y-129796800D01*
X122852740Y-129791063D01*
X122938233Y-129782680D01*
X122944134Y-129780898D01*
X122944136Y-129780898D01*
X123017453Y-129758762D01*
X123127569Y-129725516D01*
X123301102Y-129633248D01*
X123360254Y-129618500D01*
X135282346Y-129618500D01*
X135343047Y-129634085D01*
X135499387Y-129720033D01*
X135505254Y-129721894D01*
X135505256Y-129721895D01*
X135682036Y-129777973D01*
X135687906Y-129779835D01*
X135841827Y-129797100D01*
X135948369Y-129797100D01*
X135951425Y-129796800D01*
X135951432Y-129796800D01*
X136009940Y-129791063D01*
X136095433Y-129782680D01*
X136101334Y-129780898D01*
X136101336Y-129780898D01*
X136174653Y-129758762D01*
X136284769Y-129725516D01*
X136459396Y-129632666D01*
X136545662Y-129562309D01*
X136607887Y-129511560D01*
X136607890Y-129511557D01*
X136612662Y-129507665D01*
X136624944Y-129492819D01*
X136734801Y-129360025D01*
X136734803Y-129360021D01*
X136738730Y-129355275D01*
X136832798Y-129181301D01*
X136891282Y-128992368D01*
X136911955Y-128795675D01*
X136894030Y-128598712D01*
X136838190Y-128408981D01*
X136828519Y-128390481D01*
X136749415Y-128239171D01*
X136746560Y-128233710D01*
X136747460Y-128233240D01*
X136728500Y-128169647D01*
X136728500Y-116248879D01*
X136743664Y-116188950D01*
X136829868Y-116029519D01*
X136832798Y-116024101D01*
X136891282Y-115835168D01*
X136911955Y-115638475D01*
X136894030Y-115441512D01*
X136838190Y-115251781D01*
X136828519Y-115233281D01*
X136749413Y-115081968D01*
X136746560Y-115076510D01*
X136622632Y-114922375D01*
X136616327Y-114917084D01*
X136478579Y-114801500D01*
X136471126Y-114795246D01*
X136465728Y-114792279D01*
X136465723Y-114792275D01*
X136303208Y-114702933D01*
X136303209Y-114702933D01*
X136297813Y-114699967D01*
X136291946Y-114698106D01*
X136291944Y-114698105D01*
X136201722Y-114669485D01*
X136142838Y-114629821D01*
X136114746Y-114564619D01*
X136126364Y-114494580D01*
X136174003Y-114441940D01*
X136212012Y-114426491D01*
X136455577Y-114371377D01*
X136491769Y-114357303D01*
X136694824Y-114278340D01*
X136694827Y-114278339D01*
X136699177Y-114276647D01*
X136926098Y-114146951D01*
X137131357Y-113985138D01*
X137310443Y-113794763D01*
X137459424Y-113580009D01*
X137575025Y-113345593D01*
X137654707Y-113096665D01*
X137696721Y-112838693D01*
X137700142Y-112577345D01*
X137664896Y-112318362D01*
X137650473Y-112268877D01*
X137593068Y-112071932D01*
X137591757Y-112067433D01*
X137482332Y-111830072D01*
X137449519Y-111780024D01*
X137341590Y-111615404D01*
X137341586Y-111615399D01*
X137339024Y-111611491D01*
X137164982Y-111416494D01*
X136964030Y-111249363D01*
X136916844Y-111220730D01*
X136744578Y-111116196D01*
X136744574Y-111116194D01*
X136740581Y-111113771D01*
X136499545Y-111012697D01*
X136246217Y-110948359D01*
X136241566Y-110947891D01*
X136241562Y-110947890D01*
X136226267Y-110946350D01*
X136160493Y-110919623D01*
X136119610Y-110861579D01*
X136116599Y-110790646D01*
X136152415Y-110729345D01*
X136202473Y-110700363D01*
X136284769Y-110675516D01*
X136459396Y-110582666D01*
X136545662Y-110512309D01*
X136607887Y-110461560D01*
X136607890Y-110461557D01*
X136612662Y-110457665D01*
X136624944Y-110442819D01*
X136734801Y-110310025D01*
X136734803Y-110310021D01*
X136738730Y-110305275D01*
X136832798Y-110131301D01*
X136891282Y-109942368D01*
X136911955Y-109745675D01*
X136894030Y-109548712D01*
X136838190Y-109358981D01*
X136828519Y-109340481D01*
X136749415Y-109189171D01*
X136746560Y-109183710D01*
X136747460Y-109183240D01*
X136728500Y-109119647D01*
X136728500Y-97198879D01*
X136743664Y-97138950D01*
X136829868Y-96979519D01*
X136832798Y-96974101D01*
X136891282Y-96785168D01*
X136911955Y-96588475D01*
X136894030Y-96391512D01*
X136838190Y-96201781D01*
X136828519Y-96183281D01*
X136749413Y-96031968D01*
X136746560Y-96026510D01*
X136622632Y-95872375D01*
X136616327Y-95867084D01*
X136478579Y-95751500D01*
X136471126Y-95745246D01*
X136465728Y-95742279D01*
X136465723Y-95742275D01*
X136303208Y-95652933D01*
X136303209Y-95652933D01*
X136297813Y-95649967D01*
X136291946Y-95648106D01*
X136291944Y-95648105D01*
X136115164Y-95592027D01*
X136115163Y-95592027D01*
X136109294Y-95590165D01*
X135955373Y-95572900D01*
X135848831Y-95572900D01*
X135845775Y-95573200D01*
X135845768Y-95573200D01*
X135787260Y-95578937D01*
X135701767Y-95587320D01*
X135695866Y-95589102D01*
X135695864Y-95589102D01*
X135622547Y-95611238D01*
X135512431Y-95644484D01*
X135506992Y-95647376D01*
X135338899Y-95736752D01*
X135279746Y-95751500D01*
X123357654Y-95751500D01*
X123296953Y-95735915D01*
X123146008Y-95652933D01*
X123146009Y-95652933D01*
X123140613Y-95649967D01*
X123134746Y-95648106D01*
X123134744Y-95648105D01*
X122957964Y-95592027D01*
X122957963Y-95592027D01*
X122952094Y-95590165D01*
X122798173Y-95572900D01*
X122691631Y-95572900D01*
X122688575Y-95573200D01*
X122688568Y-95573200D01*
X122630060Y-95578937D01*
X122544567Y-95587320D01*
X122538666Y-95589102D01*
X122538664Y-95589102D01*
X122465347Y-95611238D01*
X122355231Y-95644484D01*
X122180604Y-95737334D01*
X122094338Y-95807691D01*
X122032113Y-95858440D01*
X122032110Y-95858443D01*
X122027338Y-95862335D01*
X122023411Y-95867082D01*
X122023409Y-95867084D01*
X121905199Y-96009975D01*
X121905197Y-96009979D01*
X121901270Y-96014725D01*
X121807202Y-96188699D01*
X121748718Y-96377632D01*
X121728045Y-96574325D01*
X121745970Y-96771288D01*
X121801810Y-96961019D01*
X121804663Y-96966477D01*
X121804665Y-96966481D01*
X121890585Y-97130829D01*
X121893440Y-97136290D01*
X121892540Y-97136760D01*
X121911500Y-97200353D01*
X121911500Y-109121121D01*
X121896336Y-109181050D01*
X121807202Y-109345899D01*
X121748718Y-109534832D01*
X121728045Y-109731525D01*
X121745970Y-109928488D01*
X121801810Y-110118219D01*
X121804663Y-110123677D01*
X121804665Y-110123681D01*
X121852120Y-110214453D01*
X121893440Y-110293490D01*
X122017368Y-110447625D01*
X122022092Y-110451589D01*
X122029333Y-110457665D01*
X122168874Y-110574754D01*
X122174272Y-110577721D01*
X122174277Y-110577725D01*
X122317580Y-110656505D01*
X122342187Y-110670033D01*
X122348054Y-110671894D01*
X122348056Y-110671895D01*
X122472749Y-110711450D01*
X122530706Y-110729835D01*
X122684627Y-110747100D01*
X122791169Y-110747100D01*
X122794225Y-110746800D01*
X122794232Y-110746800D01*
X122852740Y-110741063D01*
X122938233Y-110732680D01*
X122944134Y-110730898D01*
X122944136Y-110730898D01*
X123045275Y-110700362D01*
X123127569Y-110675516D01*
X123301102Y-110583248D01*
X123360254Y-110568500D01*
X135282346Y-110568500D01*
X135343047Y-110584085D01*
X135499387Y-110670033D01*
X135505254Y-110671894D01*
X135505256Y-110671895D01*
X135573213Y-110693452D01*
X135629951Y-110711450D01*
X135688834Y-110751113D01*
X135716926Y-110816316D01*
X135705309Y-110886355D01*
X135657669Y-110938995D01*
X135619659Y-110954445D01*
X135489088Y-110983991D01*
X135424423Y-110998623D01*
X135420071Y-111000315D01*
X135420069Y-111000316D01*
X135185176Y-111091660D01*
X135185173Y-111091661D01*
X135180823Y-111093353D01*
X134953902Y-111223049D01*
X134748643Y-111384862D01*
X134569557Y-111575237D01*
X134420576Y-111789991D01*
X134304975Y-112024407D01*
X134225293Y-112273335D01*
X134183279Y-112531307D01*
X134179858Y-112792655D01*
X134215104Y-113051638D01*
X134216412Y-113056124D01*
X134216412Y-113056126D01*
X134236098Y-113123664D01*
X134288243Y-113302567D01*
X134397668Y-113539928D01*
X134400231Y-113543837D01*
X134538410Y-113754596D01*
X134538414Y-113754601D01*
X134540976Y-113758509D01*
X134715018Y-113953506D01*
X134915970Y-114120637D01*
X134919973Y-114123066D01*
X135135422Y-114253804D01*
X135135426Y-114253806D01*
X135139419Y-114256229D01*
X135380455Y-114357303D01*
X135471286Y-114380371D01*
X135619083Y-114417908D01*
X135680184Y-114454063D01*
X135712038Y-114517512D01*
X135704533Y-114588111D01*
X135660050Y-114643445D01*
X135624486Y-114660653D01*
X135512431Y-114694484D01*
X135506992Y-114697376D01*
X135338899Y-114786752D01*
X135279746Y-114801500D01*
X123357654Y-114801500D01*
X123296953Y-114785915D01*
X123146008Y-114702933D01*
X123146009Y-114702933D01*
X123140613Y-114699967D01*
X123134746Y-114698106D01*
X123134744Y-114698105D01*
X122957964Y-114642027D01*
X122957963Y-114642027D01*
X122952094Y-114640165D01*
X122798173Y-114622900D01*
X122691631Y-114622900D01*
X122688575Y-114623200D01*
X122688568Y-114623200D01*
X122630060Y-114628937D01*
X122544567Y-114637320D01*
X122538666Y-114639102D01*
X122538664Y-114639102D01*
X122474250Y-114658550D01*
X122355231Y-114694484D01*
X122180604Y-114787334D01*
X122094338Y-114857691D01*
X122032113Y-114908440D01*
X122032110Y-114908443D01*
X122027338Y-114912335D01*
X122023411Y-114917082D01*
X122023409Y-114917084D01*
X121905199Y-115059975D01*
X121905197Y-115059979D01*
X121901270Y-115064725D01*
X121807202Y-115238699D01*
X121748718Y-115427632D01*
X121728045Y-115624325D01*
X121745970Y-115821288D01*
X121801810Y-116011019D01*
X121804663Y-116016477D01*
X121804665Y-116016481D01*
X121890585Y-116180829D01*
X121893440Y-116186290D01*
X121892540Y-116186760D01*
X121911500Y-116250353D01*
X121911500Y-128171121D01*
X121896336Y-128231050D01*
X121807202Y-128395899D01*
X121748718Y-128584832D01*
X121728045Y-128781525D01*
X117860667Y-128781525D01*
X117844030Y-128598712D01*
X117788190Y-128408981D01*
X117778519Y-128390481D01*
X117699415Y-128239171D01*
X117696560Y-128233710D01*
X117697460Y-128233240D01*
X117678500Y-128169647D01*
X117678500Y-116248879D01*
X117693664Y-116188950D01*
X117779868Y-116029519D01*
X117782798Y-116024101D01*
X117841282Y-115835168D01*
X117861955Y-115638475D01*
X117844030Y-115441512D01*
X117788190Y-115251781D01*
X117778519Y-115233281D01*
X117699413Y-115081968D01*
X117696560Y-115076510D01*
X117572632Y-114922375D01*
X117566327Y-114917084D01*
X117428579Y-114801500D01*
X117421126Y-114795246D01*
X117415728Y-114792279D01*
X117415723Y-114792275D01*
X117253208Y-114702933D01*
X117253209Y-114702933D01*
X117247813Y-114699967D01*
X117241946Y-114698106D01*
X117241944Y-114698105D01*
X117065164Y-114642027D01*
X117065163Y-114642027D01*
X117059294Y-114640165D01*
X116905373Y-114622900D01*
X116798831Y-114622900D01*
X116795775Y-114623200D01*
X116795768Y-114623200D01*
X116737260Y-114628937D01*
X116651767Y-114637320D01*
X116645866Y-114639102D01*
X116645864Y-114639102D01*
X116581450Y-114658550D01*
X116462431Y-114694484D01*
X116456992Y-114697376D01*
X116288899Y-114786752D01*
X116229746Y-114801500D01*
X104307654Y-114801500D01*
X104246953Y-114785915D01*
X104096008Y-114702933D01*
X104096009Y-114702933D01*
X104090613Y-114699967D01*
X104084746Y-114698106D01*
X104084744Y-114698105D01*
X103907964Y-114642027D01*
X103907963Y-114642027D01*
X103902094Y-114640165D01*
X103748173Y-114622900D01*
X103641631Y-114622900D01*
X103638575Y-114623200D01*
X103638568Y-114623200D01*
X103580060Y-114628937D01*
X103494567Y-114637320D01*
X103488666Y-114639102D01*
X103488664Y-114639102D01*
X103424250Y-114658550D01*
X103305231Y-114694484D01*
X103130604Y-114787334D01*
X103044338Y-114857691D01*
X102982113Y-114908440D01*
X102982110Y-114908443D01*
X102977338Y-114912335D01*
X102973411Y-114917082D01*
X102973409Y-114917084D01*
X102855199Y-115059975D01*
X102855197Y-115059979D01*
X102851270Y-115064725D01*
X102757202Y-115238699D01*
X102698718Y-115427632D01*
X102678045Y-115624325D01*
X102695970Y-115821288D01*
X102751810Y-116011019D01*
X102754663Y-116016477D01*
X102754665Y-116016481D01*
X102840585Y-116180829D01*
X102843440Y-116186290D01*
X102842540Y-116186760D01*
X102861500Y-116250353D01*
X102861500Y-128171121D01*
X102846336Y-128231050D01*
X102757202Y-128395899D01*
X102698718Y-128584832D01*
X102678045Y-128781525D01*
X98810667Y-128781525D01*
X98794030Y-128598712D01*
X98738190Y-128408981D01*
X98728519Y-128390481D01*
X98649415Y-128239171D01*
X98646560Y-128233710D01*
X98647460Y-128233240D01*
X98628500Y-128169647D01*
X98628500Y-116248879D01*
X98643664Y-116188950D01*
X98729868Y-116029519D01*
X98732798Y-116024101D01*
X98791282Y-115835168D01*
X98811955Y-115638475D01*
X98794030Y-115441512D01*
X98738190Y-115251781D01*
X98728519Y-115233281D01*
X98649413Y-115081968D01*
X98646560Y-115076510D01*
X98522632Y-114922375D01*
X98516327Y-114917084D01*
X98378579Y-114801500D01*
X98371126Y-114795246D01*
X98365728Y-114792279D01*
X98365723Y-114792275D01*
X98203208Y-114702933D01*
X98203209Y-114702933D01*
X98197813Y-114699967D01*
X98191946Y-114698106D01*
X98191944Y-114698105D01*
X98015164Y-114642027D01*
X98015163Y-114642027D01*
X98009294Y-114640165D01*
X97855373Y-114622900D01*
X97748831Y-114622900D01*
X97745775Y-114623200D01*
X97745768Y-114623200D01*
X97687260Y-114628937D01*
X97601767Y-114637320D01*
X97595866Y-114639102D01*
X97595864Y-114639102D01*
X97531450Y-114658550D01*
X97412431Y-114694484D01*
X97406992Y-114697376D01*
X97238899Y-114786752D01*
X97179746Y-114801500D01*
X85257654Y-114801500D01*
X85196953Y-114785915D01*
X85046008Y-114702933D01*
X85046009Y-114702933D01*
X85040613Y-114699967D01*
X85034746Y-114698106D01*
X85034744Y-114698105D01*
X84916680Y-114660653D01*
X84910049Y-114658550D01*
X84851166Y-114618887D01*
X84823074Y-114553684D01*
X84834691Y-114483645D01*
X84882331Y-114431005D01*
X84920341Y-114415555D01*
X85050912Y-114386009D01*
X85115577Y-114371377D01*
X85151769Y-114357303D01*
X85354824Y-114278340D01*
X85354827Y-114278339D01*
X85359177Y-114276647D01*
X85586098Y-114146951D01*
X85791357Y-113985138D01*
X85970443Y-113794763D01*
X86119424Y-113580009D01*
X86235025Y-113345593D01*
X86314707Y-113096665D01*
X86356721Y-112838693D01*
X86360142Y-112577345D01*
X86324896Y-112318362D01*
X86310473Y-112268877D01*
X86253068Y-112071932D01*
X86251757Y-112067433D01*
X86142332Y-111830072D01*
X86109519Y-111780024D01*
X86001590Y-111615404D01*
X86001586Y-111615399D01*
X85999024Y-111611491D01*
X85824982Y-111416494D01*
X85624030Y-111249363D01*
X85576844Y-111220730D01*
X85404578Y-111116196D01*
X85404574Y-111116194D01*
X85400581Y-111113771D01*
X85159545Y-111012697D01*
X85068714Y-110989629D01*
X84920917Y-110952092D01*
X84859816Y-110915937D01*
X84827962Y-110852488D01*
X84835467Y-110781889D01*
X84879950Y-110726555D01*
X84915514Y-110709347D01*
X85027569Y-110675516D01*
X85201102Y-110583248D01*
X85260254Y-110568500D01*
X97182346Y-110568500D01*
X97243047Y-110584085D01*
X97399387Y-110670033D01*
X97405254Y-110671894D01*
X97405256Y-110671895D01*
X97529949Y-110711450D01*
X97587906Y-110729835D01*
X97741827Y-110747100D01*
X97848369Y-110747100D01*
X97851425Y-110746800D01*
X97851432Y-110746800D01*
X97909940Y-110741063D01*
X97995433Y-110732680D01*
X98001334Y-110730898D01*
X98001336Y-110730898D01*
X98102475Y-110700362D01*
X98184769Y-110675516D01*
X98359396Y-110582666D01*
X98445662Y-110512309D01*
X98507887Y-110461560D01*
X98507890Y-110461557D01*
X98512662Y-110457665D01*
X98524944Y-110442819D01*
X98634801Y-110310025D01*
X98634803Y-110310021D01*
X98638730Y-110305275D01*
X98732798Y-110131301D01*
X98791282Y-109942368D01*
X98811955Y-109745675D01*
X98810667Y-109731525D01*
X102678045Y-109731525D01*
X102695970Y-109928488D01*
X102751810Y-110118219D01*
X102754663Y-110123677D01*
X102754665Y-110123681D01*
X102802120Y-110214453D01*
X102843440Y-110293490D01*
X102967368Y-110447625D01*
X102972092Y-110451589D01*
X102979333Y-110457665D01*
X103118874Y-110574754D01*
X103124272Y-110577721D01*
X103124277Y-110577725D01*
X103267580Y-110656505D01*
X103292187Y-110670033D01*
X103298054Y-110671894D01*
X103298056Y-110671895D01*
X103422749Y-110711450D01*
X103480706Y-110729835D01*
X103634627Y-110747100D01*
X103741169Y-110747100D01*
X103744225Y-110746800D01*
X103744232Y-110746800D01*
X103802740Y-110741063D01*
X103888233Y-110732680D01*
X103894134Y-110730898D01*
X103894136Y-110730898D01*
X103995275Y-110700362D01*
X104077569Y-110675516D01*
X104251102Y-110583248D01*
X104310254Y-110568500D01*
X116232346Y-110568500D01*
X116293047Y-110584085D01*
X116449387Y-110670033D01*
X116455254Y-110671894D01*
X116455256Y-110671895D01*
X116579949Y-110711450D01*
X116637906Y-110729835D01*
X116791827Y-110747100D01*
X116898369Y-110747100D01*
X116901425Y-110746800D01*
X116901432Y-110746800D01*
X116959940Y-110741063D01*
X117045433Y-110732680D01*
X117051334Y-110730898D01*
X117051336Y-110730898D01*
X117152475Y-110700362D01*
X117234769Y-110675516D01*
X117409396Y-110582666D01*
X117495662Y-110512309D01*
X117557887Y-110461560D01*
X117557890Y-110461557D01*
X117562662Y-110457665D01*
X117574944Y-110442819D01*
X117684801Y-110310025D01*
X117684803Y-110310021D01*
X117688730Y-110305275D01*
X117782798Y-110131301D01*
X117841282Y-109942368D01*
X117861955Y-109745675D01*
X117844030Y-109548712D01*
X117788190Y-109358981D01*
X117778519Y-109340481D01*
X117699415Y-109189171D01*
X117696560Y-109183710D01*
X117697460Y-109183240D01*
X117678500Y-109119647D01*
X117678500Y-97198879D01*
X117693664Y-97138950D01*
X117779868Y-96979519D01*
X117782798Y-96974101D01*
X117841282Y-96785168D01*
X117861955Y-96588475D01*
X117844030Y-96391512D01*
X117788190Y-96201781D01*
X117778519Y-96183281D01*
X117699413Y-96031968D01*
X117696560Y-96026510D01*
X117572632Y-95872375D01*
X117566327Y-95867084D01*
X117428579Y-95751500D01*
X117421126Y-95745246D01*
X117415728Y-95742279D01*
X117415723Y-95742275D01*
X117253208Y-95652933D01*
X117253209Y-95652933D01*
X117247813Y-95649967D01*
X117241946Y-95648106D01*
X117241944Y-95648105D01*
X117065164Y-95592027D01*
X117065163Y-95592027D01*
X117059294Y-95590165D01*
X116905373Y-95572900D01*
X116798831Y-95572900D01*
X116795775Y-95573200D01*
X116795768Y-95573200D01*
X116737260Y-95578937D01*
X116651767Y-95587320D01*
X116645866Y-95589102D01*
X116645864Y-95589102D01*
X116572547Y-95611238D01*
X116462431Y-95644484D01*
X116456992Y-95647376D01*
X116288899Y-95736752D01*
X116229746Y-95751500D01*
X104307654Y-95751500D01*
X104246953Y-95735915D01*
X104096008Y-95652933D01*
X104096009Y-95652933D01*
X104090613Y-95649967D01*
X104084746Y-95648106D01*
X104084744Y-95648105D01*
X103907964Y-95592027D01*
X103907963Y-95592027D01*
X103902094Y-95590165D01*
X103748173Y-95572900D01*
X103641631Y-95572900D01*
X103638575Y-95573200D01*
X103638568Y-95573200D01*
X103580060Y-95578937D01*
X103494567Y-95587320D01*
X103488666Y-95589102D01*
X103488664Y-95589102D01*
X103415347Y-95611238D01*
X103305231Y-95644484D01*
X103130604Y-95737334D01*
X103044338Y-95807691D01*
X102982113Y-95858440D01*
X102982110Y-95858443D01*
X102977338Y-95862335D01*
X102973411Y-95867082D01*
X102973409Y-95867084D01*
X102855199Y-96009975D01*
X102855197Y-96009979D01*
X102851270Y-96014725D01*
X102757202Y-96188699D01*
X102698718Y-96377632D01*
X102678045Y-96574325D01*
X102695970Y-96771288D01*
X102751810Y-96961019D01*
X102754663Y-96966477D01*
X102754665Y-96966481D01*
X102840585Y-97130829D01*
X102843440Y-97136290D01*
X102842540Y-97136760D01*
X102861500Y-97200353D01*
X102861500Y-109121121D01*
X102846336Y-109181050D01*
X102757202Y-109345899D01*
X102698718Y-109534832D01*
X102678045Y-109731525D01*
X98810667Y-109731525D01*
X98794030Y-109548712D01*
X98738190Y-109358981D01*
X98728519Y-109340481D01*
X98649415Y-109189171D01*
X98646560Y-109183710D01*
X98647460Y-109183240D01*
X98628500Y-109119647D01*
X98628500Y-97198879D01*
X98643664Y-97138950D01*
X98729868Y-96979519D01*
X98732798Y-96974101D01*
X98791282Y-96785168D01*
X98811955Y-96588475D01*
X98794030Y-96391512D01*
X98738190Y-96201781D01*
X98728519Y-96183281D01*
X98649413Y-96031968D01*
X98646560Y-96026510D01*
X98522632Y-95872375D01*
X98516327Y-95867084D01*
X98378579Y-95751500D01*
X98371126Y-95745246D01*
X98365728Y-95742279D01*
X98365723Y-95742275D01*
X98203208Y-95652933D01*
X98203209Y-95652933D01*
X98197813Y-95649967D01*
X98191946Y-95648106D01*
X98191944Y-95648105D01*
X98015164Y-95592027D01*
X98015163Y-95592027D01*
X98009294Y-95590165D01*
X97855373Y-95572900D01*
X97748831Y-95572900D01*
X97745775Y-95573200D01*
X97745768Y-95573200D01*
X97687260Y-95578937D01*
X97601767Y-95587320D01*
X97595866Y-95589102D01*
X97595864Y-95589102D01*
X97522547Y-95611238D01*
X97412431Y-95644484D01*
X97406992Y-95647376D01*
X97238899Y-95736752D01*
X97179746Y-95751500D01*
X85257654Y-95751500D01*
X85196953Y-95735915D01*
X85046008Y-95652933D01*
X85046009Y-95652933D01*
X85040613Y-95649967D01*
X85034746Y-95648106D01*
X85034744Y-95648105D01*
X84857964Y-95592027D01*
X84857963Y-95592027D01*
X84852094Y-95590165D01*
X84698173Y-95572900D01*
X84591631Y-95572900D01*
X84588575Y-95573200D01*
X84588568Y-95573200D01*
X84530060Y-95578937D01*
X84444567Y-95587320D01*
X84438666Y-95589102D01*
X84438664Y-95589102D01*
X84365347Y-95611238D01*
X84255231Y-95644484D01*
X84080604Y-95737334D01*
X83994338Y-95807691D01*
X83932113Y-95858440D01*
X83932110Y-95858443D01*
X83927338Y-95862335D01*
X83923411Y-95867082D01*
X83923409Y-95867084D01*
X83805199Y-96009975D01*
X83805197Y-96009979D01*
X83801270Y-96014725D01*
X83707202Y-96188699D01*
X83648718Y-96377632D01*
X83628045Y-96574325D01*
X83645970Y-96771288D01*
X83701810Y-96961019D01*
X83704663Y-96966477D01*
X83704665Y-96966481D01*
X83790585Y-97130829D01*
X83793440Y-97136290D01*
X83792540Y-97136760D01*
X83811500Y-97200353D01*
X83811500Y-109121121D01*
X83796336Y-109181050D01*
X83707202Y-109345899D01*
X83648718Y-109534832D01*
X83628045Y-109731525D01*
X83645970Y-109928488D01*
X83701810Y-110118219D01*
X83704663Y-110123677D01*
X83704665Y-110123681D01*
X83752120Y-110214453D01*
X83793440Y-110293490D01*
X83917368Y-110447625D01*
X83922092Y-110451589D01*
X83929333Y-110457665D01*
X84068874Y-110574754D01*
X84074272Y-110577721D01*
X84074277Y-110577725D01*
X84217580Y-110656505D01*
X84242187Y-110670033D01*
X84248054Y-110671894D01*
X84248056Y-110671895D01*
X84338278Y-110700515D01*
X84397162Y-110740179D01*
X84425254Y-110805381D01*
X84413636Y-110875420D01*
X84365997Y-110928060D01*
X84327988Y-110943509D01*
X84084423Y-110998623D01*
X84080071Y-111000315D01*
X84080069Y-111000316D01*
X83845176Y-111091660D01*
X83845173Y-111091661D01*
X83840823Y-111093353D01*
X83613902Y-111223049D01*
X83408643Y-111384862D01*
X83229557Y-111575237D01*
X83080576Y-111789991D01*
X82964975Y-112024407D01*
X82885293Y-112273335D01*
X82843279Y-112531307D01*
X82839858Y-112792655D01*
X81156254Y-112792655D01*
X81157297Y-82117526D01*
X81157312Y-81688757D01*
X108122952Y-81688757D01*
X108125419Y-81697388D01*
X108131078Y-81717189D01*
X108134656Y-81733951D01*
X108138848Y-81763223D01*
X108142562Y-81771391D01*
X108142562Y-81771392D01*
X108149476Y-81786598D01*
X108155924Y-81804122D01*
X108162979Y-81828807D01*
X108167771Y-81836401D01*
X108167772Y-81836404D01*
X108178758Y-81853816D01*
X108186897Y-81868899D01*
X108199136Y-81895818D01*
X108204997Y-81902620D01*
X108215898Y-81915271D01*
X108227001Y-81930275D01*
X108240704Y-81951994D01*
X108247429Y-81957933D01*
X108247432Y-81957937D01*
X108262866Y-81971568D01*
X108274910Y-81983760D01*
X108288355Y-81999363D01*
X108288358Y-81999365D01*
X108294215Y-82006163D01*
X108301744Y-82011043D01*
X108301745Y-82011044D01*
X108315763Y-82020130D01*
X108330637Y-82031421D01*
X108343145Y-82042467D01*
X108349879Y-82048414D01*
X108376639Y-82060978D01*
X108391619Y-82069299D01*
X108408911Y-82080507D01*
X108408916Y-82080509D01*
X108416443Y-82085388D01*
X108425036Y-82087958D01*
X108425041Y-82087960D01*
X108441048Y-82092747D01*
X108458492Y-82099408D01*
X108473604Y-82106503D01*
X108473606Y-82106504D01*
X108481728Y-82110317D01*
X108490595Y-82111698D01*
X108490596Y-82111698D01*
X108493281Y-82112116D01*
X108510945Y-82114866D01*
X108527660Y-82118649D01*
X108547394Y-82124551D01*
X108547400Y-82124552D01*
X108555994Y-82127122D01*
X108564965Y-82127177D01*
X108564966Y-82127177D01*
X108575025Y-82127238D01*
X108590434Y-82127332D01*
X108591217Y-82127365D01*
X108592314Y-82127536D01*
X108623305Y-82127536D01*
X108624075Y-82127538D01*
X108697713Y-82127988D01*
X108697714Y-82127988D01*
X108701649Y-82128012D01*
X108702993Y-82127628D01*
X108704338Y-82127536D01*
X111899448Y-82127536D01*
X111900219Y-82127538D01*
X111977792Y-82128012D01*
X112006223Y-82119886D01*
X112022986Y-82116308D01*
X112023824Y-82116188D01*
X112052258Y-82112116D01*
X112075635Y-82101487D01*
X112093158Y-82095040D01*
X112117842Y-82087985D01*
X112125436Y-82083193D01*
X112125439Y-82083192D01*
X112142851Y-82072206D01*
X112157936Y-82064066D01*
X112184853Y-82051828D01*
X112204306Y-82035066D01*
X112219310Y-82023963D01*
X112241029Y-82010260D01*
X112246968Y-82003535D01*
X112246972Y-82003532D01*
X112260603Y-81988098D01*
X112272795Y-81976054D01*
X112288398Y-81962609D01*
X112288400Y-81962606D01*
X112295198Y-81956749D01*
X112309165Y-81935201D01*
X112320456Y-81920327D01*
X112331502Y-81907819D01*
X112331503Y-81907818D01*
X112337449Y-81901085D01*
X112350014Y-81874323D01*
X112358334Y-81859345D01*
X112369542Y-81842053D01*
X112369544Y-81842048D01*
X112374423Y-81834521D01*
X112376993Y-81825928D01*
X112376995Y-81825923D01*
X112381782Y-81809916D01*
X112388443Y-81792472D01*
X112395538Y-81777360D01*
X112395539Y-81777358D01*
X112399352Y-81769236D01*
X112403901Y-81740019D01*
X112407684Y-81723304D01*
X112413586Y-81703570D01*
X112413587Y-81703564D01*
X112416157Y-81694970D01*
X112416367Y-81660530D01*
X112416400Y-81659747D01*
X112416571Y-81658650D01*
X112416571Y-81627659D01*
X112416573Y-81626889D01*
X112417023Y-81553251D01*
X112417023Y-81553250D01*
X112417047Y-81549315D01*
X112416663Y-81547971D01*
X112416571Y-81546626D01*
X112416571Y-78619589D01*
X112416573Y-78618819D01*
X112416871Y-78570068D01*
X112417047Y-78541245D01*
X112408921Y-78512813D01*
X112405343Y-78496051D01*
X112402423Y-78475664D01*
X112401151Y-78466779D01*
X112390522Y-78443402D01*
X112384075Y-78425879D01*
X112379487Y-78409828D01*
X112377020Y-78401195D01*
X112372227Y-78393598D01*
X112361241Y-78376186D01*
X112353101Y-78361101D01*
X112350635Y-78355677D01*
X112340863Y-78334184D01*
X112324101Y-78314731D01*
X112312998Y-78299727D01*
X112299295Y-78278008D01*
X112292570Y-78272069D01*
X112292567Y-78272065D01*
X112277133Y-78258434D01*
X112265089Y-78246242D01*
X112251644Y-78230639D01*
X112251641Y-78230637D01*
X112245784Y-78223839D01*
X112232080Y-78214956D01*
X112224236Y-78209872D01*
X112209362Y-78198581D01*
X112196854Y-78187535D01*
X112196853Y-78187534D01*
X112190120Y-78181588D01*
X112163358Y-78169023D01*
X112148380Y-78160703D01*
X112131088Y-78149495D01*
X112131083Y-78149493D01*
X112123556Y-78144614D01*
X112114963Y-78142044D01*
X112114958Y-78142042D01*
X112098951Y-78137255D01*
X112081507Y-78130594D01*
X112066395Y-78123499D01*
X112066393Y-78123498D01*
X112058271Y-78119685D01*
X112049404Y-78118304D01*
X112049403Y-78118304D01*
X112038549Y-78116614D01*
X112029054Y-78115136D01*
X112012339Y-78111353D01*
X111992605Y-78105451D01*
X111992599Y-78105450D01*
X111984005Y-78102880D01*
X111975034Y-78102825D01*
X111975033Y-78102825D01*
X111964974Y-78102764D01*
X111949565Y-78102670D01*
X111948782Y-78102637D01*
X111947685Y-78102466D01*
X111916694Y-78102466D01*
X111915924Y-78102464D01*
X111842286Y-78102014D01*
X111842285Y-78102014D01*
X111838350Y-78101990D01*
X111837006Y-78102374D01*
X111835661Y-78102466D01*
X108640551Y-78102466D01*
X108639781Y-78102464D01*
X108638965Y-78102459D01*
X108562207Y-78101990D01*
X108539846Y-78108381D01*
X108533775Y-78110116D01*
X108517013Y-78113694D01*
X108487741Y-78117886D01*
X108479573Y-78121600D01*
X108479572Y-78121600D01*
X108464366Y-78128514D01*
X108446842Y-78134962D01*
X108422157Y-78142017D01*
X108414563Y-78146809D01*
X108414560Y-78146810D01*
X108397148Y-78157796D01*
X108382065Y-78165935D01*
X108355146Y-78178174D01*
X108348344Y-78184035D01*
X108335693Y-78194936D01*
X108320689Y-78206039D01*
X108298970Y-78219742D01*
X108293031Y-78226467D01*
X108293027Y-78226470D01*
X108279396Y-78241904D01*
X108267204Y-78253948D01*
X108251601Y-78267393D01*
X108251599Y-78267396D01*
X108244801Y-78273253D01*
X108239921Y-78280782D01*
X108239920Y-78280783D01*
X108230834Y-78294801D01*
X108219543Y-78309675D01*
X108208497Y-78322183D01*
X108202550Y-78328917D01*
X108196240Y-78342357D01*
X108189986Y-78355677D01*
X108181665Y-78370657D01*
X108170457Y-78387949D01*
X108170455Y-78387954D01*
X108165576Y-78395481D01*
X108163006Y-78404074D01*
X108163004Y-78404079D01*
X108158217Y-78420086D01*
X108151556Y-78437530D01*
X108144461Y-78452642D01*
X108140647Y-78460766D01*
X108139266Y-78469633D01*
X108139266Y-78469634D01*
X108136098Y-78489981D01*
X108132315Y-78506698D01*
X108126413Y-78526432D01*
X108126412Y-78526438D01*
X108123842Y-78535032D01*
X108123787Y-78544003D01*
X108123787Y-78544004D01*
X108123632Y-78569463D01*
X108123599Y-78570255D01*
X108123428Y-78571352D01*
X108123428Y-78602343D01*
X108123426Y-78603113D01*
X108122952Y-78680687D01*
X108123336Y-78682031D01*
X108123428Y-78683376D01*
X108123428Y-81610413D01*
X108123426Y-81611183D01*
X108122952Y-81688757D01*
X81157312Y-81688757D01*
X81157570Y-74102925D01*
X103306645Y-74102925D01*
X103324570Y-74299888D01*
X103380410Y-74489619D01*
X103383263Y-74495077D01*
X103383265Y-74495081D01*
X103430720Y-74585853D01*
X103472040Y-74664890D01*
X103595968Y-74819025D01*
X103600692Y-74822989D01*
X103607933Y-74829065D01*
X103747474Y-74946154D01*
X103752872Y-74949121D01*
X103752877Y-74949125D01*
X103896180Y-75027905D01*
X103920787Y-75041433D01*
X103926654Y-75043294D01*
X103926656Y-75043295D01*
X104103436Y-75099373D01*
X104109306Y-75101235D01*
X104263227Y-75118500D01*
X104369769Y-75118500D01*
X104372825Y-75118200D01*
X104372832Y-75118200D01*
X104431340Y-75112463D01*
X104516833Y-75104080D01*
X104522734Y-75102298D01*
X104522736Y-75102298D01*
X104596053Y-75080162D01*
X104706169Y-75046916D01*
X104880796Y-74954066D01*
X104889635Y-74946857D01*
X104955066Y-74919303D01*
X104969271Y-74918500D01*
X115569147Y-74918500D01*
X115640334Y-74940536D01*
X115642751Y-74942191D01*
X115647474Y-74946154D01*
X115820787Y-75041433D01*
X115826654Y-75043294D01*
X115826656Y-75043295D01*
X116003436Y-75099373D01*
X116009306Y-75101235D01*
X116163227Y-75118500D01*
X116269769Y-75118500D01*
X116272825Y-75118200D01*
X116272832Y-75118200D01*
X116331340Y-75112463D01*
X116416833Y-75104080D01*
X116422734Y-75102298D01*
X116422736Y-75102298D01*
X116496053Y-75080162D01*
X116606169Y-75046916D01*
X116780796Y-74954066D01*
X116867062Y-74883709D01*
X116929287Y-74832960D01*
X116929290Y-74832957D01*
X116934062Y-74829065D01*
X116946344Y-74814219D01*
X117056201Y-74681425D01*
X117056203Y-74681421D01*
X117060130Y-74676675D01*
X117154198Y-74502701D01*
X117212682Y-74313768D01*
X117233355Y-74117075D01*
X117215430Y-73920112D01*
X117209953Y-73901500D01*
X117161330Y-73736294D01*
X117159590Y-73730381D01*
X117149919Y-73711881D01*
X117070813Y-73560568D01*
X117067960Y-73555110D01*
X117056303Y-73540612D01*
X117029207Y-73474991D01*
X117028500Y-73461661D01*
X117028500Y-62860273D01*
X117048502Y-62792152D01*
X117054514Y-62783927D01*
X117056206Y-62781418D01*
X117060130Y-62776675D01*
X117154198Y-62602701D01*
X117212682Y-62413768D01*
X117233355Y-62217075D01*
X117215430Y-62020112D01*
X117159590Y-61830381D01*
X117149919Y-61811881D01*
X117070813Y-61660568D01*
X117067960Y-61655110D01*
X116944032Y-61500975D01*
X116937727Y-61495684D01*
X116921334Y-61481929D01*
X116792526Y-61373846D01*
X116787128Y-61370879D01*
X116787123Y-61370875D01*
X116624608Y-61281533D01*
X116624609Y-61281533D01*
X116619213Y-61278567D01*
X116613346Y-61276706D01*
X116613344Y-61276705D01*
X116436564Y-61220627D01*
X116436563Y-61220627D01*
X116430694Y-61218765D01*
X116276773Y-61201500D01*
X116170231Y-61201500D01*
X116167175Y-61201800D01*
X116167168Y-61201800D01*
X116108660Y-61207537D01*
X116023167Y-61215920D01*
X116017266Y-61217702D01*
X116017264Y-61217702D01*
X115943947Y-61239838D01*
X115833831Y-61273084D01*
X115659204Y-61365934D01*
X115654430Y-61369828D01*
X115654428Y-61369829D01*
X115650365Y-61373143D01*
X115584934Y-61400697D01*
X115570729Y-61401500D01*
X104970853Y-61401500D01*
X104899666Y-61379464D01*
X104897249Y-61377809D01*
X104892526Y-61373846D01*
X104719213Y-61278567D01*
X104713346Y-61276706D01*
X104713344Y-61276705D01*
X104536564Y-61220627D01*
X104536563Y-61220627D01*
X104530694Y-61218765D01*
X104376773Y-61201500D01*
X104270231Y-61201500D01*
X104267175Y-61201800D01*
X104267168Y-61201800D01*
X104208660Y-61207537D01*
X104123167Y-61215920D01*
X104117266Y-61217702D01*
X104117264Y-61217702D01*
X104043947Y-61239838D01*
X103933831Y-61273084D01*
X103759204Y-61365934D01*
X103715596Y-61401500D01*
X103610713Y-61487040D01*
X103610710Y-61487043D01*
X103605938Y-61490935D01*
X103602011Y-61495682D01*
X103602009Y-61495684D01*
X103483799Y-61638575D01*
X103483797Y-61638579D01*
X103479870Y-61643325D01*
X103385802Y-61817299D01*
X103327318Y-62006232D01*
X103306645Y-62202925D01*
X103324570Y-62399888D01*
X103326308Y-62405794D01*
X103326309Y-62405798D01*
X103330387Y-62419653D01*
X103380410Y-62589619D01*
X103383263Y-62595077D01*
X103383265Y-62595081D01*
X103430720Y-62685853D01*
X103472040Y-62764890D01*
X103483697Y-62779388D01*
X103510793Y-62845009D01*
X103511500Y-62858339D01*
X103511500Y-73459727D01*
X103491498Y-73527848D01*
X103485486Y-73536073D01*
X103483794Y-73538582D01*
X103479870Y-73543325D01*
X103385802Y-73717299D01*
X103327318Y-73906232D01*
X103306645Y-74102925D01*
X81157570Y-74102925D01*
X81158095Y-58693757D01*
X108122952Y-58693757D01*
X108125419Y-58702388D01*
X108131078Y-58722189D01*
X108134656Y-58738951D01*
X108138848Y-58768223D01*
X108142562Y-58776391D01*
X108142562Y-58776392D01*
X108149476Y-58791598D01*
X108155924Y-58809122D01*
X108162979Y-58833807D01*
X108167771Y-58841401D01*
X108167772Y-58841404D01*
X108178758Y-58858816D01*
X108186897Y-58873899D01*
X108199136Y-58900818D01*
X108204997Y-58907620D01*
X108215898Y-58920271D01*
X108227001Y-58935275D01*
X108240704Y-58956994D01*
X108247429Y-58962933D01*
X108247432Y-58962937D01*
X108262866Y-58976568D01*
X108274910Y-58988760D01*
X108288355Y-59004363D01*
X108288358Y-59004365D01*
X108294215Y-59011163D01*
X108301744Y-59016043D01*
X108301745Y-59016044D01*
X108315763Y-59025130D01*
X108330637Y-59036421D01*
X108343145Y-59047467D01*
X108349879Y-59053414D01*
X108376639Y-59065978D01*
X108391619Y-59074299D01*
X108408911Y-59085507D01*
X108408916Y-59085509D01*
X108416443Y-59090388D01*
X108425036Y-59092958D01*
X108425041Y-59092960D01*
X108441048Y-59097747D01*
X108458492Y-59104408D01*
X108473604Y-59111503D01*
X108473606Y-59111504D01*
X108481728Y-59115317D01*
X108490595Y-59116698D01*
X108490596Y-59116698D01*
X108493281Y-59117116D01*
X108510945Y-59119866D01*
X108527660Y-59123649D01*
X108547394Y-59129551D01*
X108547400Y-59129552D01*
X108555994Y-59132122D01*
X108564965Y-59132177D01*
X108564966Y-59132177D01*
X108575025Y-59132238D01*
X108590434Y-59132332D01*
X108591217Y-59132365D01*
X108592314Y-59132536D01*
X108623305Y-59132536D01*
X108624075Y-59132538D01*
X108697713Y-59132988D01*
X108697714Y-59132988D01*
X108701649Y-59133012D01*
X108702993Y-59132628D01*
X108704338Y-59132536D01*
X111899448Y-59132536D01*
X111900219Y-59132538D01*
X111977792Y-59133012D01*
X112006223Y-59124886D01*
X112022986Y-59121308D01*
X112023824Y-59121188D01*
X112052258Y-59117116D01*
X112075635Y-59106487D01*
X112093158Y-59100040D01*
X112117842Y-59092985D01*
X112125436Y-59088193D01*
X112125439Y-59088192D01*
X112142851Y-59077206D01*
X112157936Y-59069066D01*
X112184853Y-59056828D01*
X112204306Y-59040066D01*
X112219310Y-59028963D01*
X112241029Y-59015260D01*
X112246968Y-59008535D01*
X112246972Y-59008532D01*
X112260603Y-58993098D01*
X112272795Y-58981054D01*
X112288398Y-58967609D01*
X112288400Y-58967606D01*
X112295198Y-58961749D01*
X112309165Y-58940201D01*
X112320456Y-58925327D01*
X112331502Y-58912819D01*
X112331503Y-58912818D01*
X112337449Y-58906085D01*
X112350014Y-58879323D01*
X112358334Y-58864345D01*
X112369542Y-58847053D01*
X112369544Y-58847048D01*
X112374423Y-58839521D01*
X112376993Y-58830928D01*
X112376995Y-58830923D01*
X112381782Y-58814916D01*
X112388443Y-58797472D01*
X112395538Y-58782360D01*
X112395539Y-58782358D01*
X112399352Y-58774236D01*
X112403901Y-58745019D01*
X112407684Y-58728304D01*
X112413586Y-58708570D01*
X112413587Y-58708564D01*
X112416157Y-58699970D01*
X112416367Y-58665530D01*
X112416400Y-58664747D01*
X112416571Y-58663650D01*
X112416571Y-58632659D01*
X112416573Y-58631889D01*
X112417023Y-58558251D01*
X112417023Y-58558250D01*
X112417047Y-58554315D01*
X112416663Y-58552971D01*
X112416571Y-58551626D01*
X112416571Y-55624589D01*
X112416573Y-55623819D01*
X112416871Y-55575068D01*
X112417047Y-55546245D01*
X112408921Y-55517813D01*
X112405343Y-55501051D01*
X112402423Y-55480664D01*
X112401151Y-55471779D01*
X112390522Y-55448402D01*
X112384075Y-55430879D01*
X112379487Y-55414828D01*
X112377020Y-55406195D01*
X112372227Y-55398598D01*
X112361241Y-55381186D01*
X112353101Y-55366101D01*
X112350635Y-55360677D01*
X112340863Y-55339184D01*
X112324101Y-55319731D01*
X112312998Y-55304727D01*
X112299295Y-55283008D01*
X112292570Y-55277069D01*
X112292567Y-55277065D01*
X112277133Y-55263434D01*
X112265089Y-55251242D01*
X112251644Y-55235639D01*
X112251641Y-55235637D01*
X112245784Y-55228839D01*
X112232080Y-55219956D01*
X112224236Y-55214872D01*
X112209362Y-55203581D01*
X112196854Y-55192535D01*
X112196853Y-55192534D01*
X112190120Y-55186588D01*
X112163358Y-55174023D01*
X112148380Y-55165703D01*
X112131088Y-55154495D01*
X112131083Y-55154493D01*
X112123556Y-55149614D01*
X112114963Y-55147044D01*
X112114958Y-55147042D01*
X112098951Y-55142255D01*
X112081507Y-55135594D01*
X112066395Y-55128499D01*
X112066393Y-55128498D01*
X112058271Y-55124685D01*
X112049404Y-55123304D01*
X112049403Y-55123304D01*
X112038549Y-55121614D01*
X112029054Y-55120136D01*
X112012339Y-55116353D01*
X111992605Y-55110451D01*
X111992599Y-55110450D01*
X111984005Y-55107880D01*
X111975034Y-55107825D01*
X111975033Y-55107825D01*
X111964974Y-55107764D01*
X111949565Y-55107670D01*
X111948782Y-55107637D01*
X111947685Y-55107466D01*
X111916694Y-55107466D01*
X111915924Y-55107464D01*
X111842286Y-55107014D01*
X111842285Y-55107014D01*
X111838350Y-55106990D01*
X111837006Y-55107374D01*
X111835661Y-55107466D01*
X108640551Y-55107466D01*
X108639781Y-55107464D01*
X108638965Y-55107459D01*
X108562207Y-55106990D01*
X108539846Y-55113381D01*
X108533775Y-55115116D01*
X108517013Y-55118694D01*
X108487741Y-55122886D01*
X108479573Y-55126600D01*
X108479572Y-55126600D01*
X108464366Y-55133514D01*
X108446842Y-55139962D01*
X108422157Y-55147017D01*
X108414563Y-55151809D01*
X108414560Y-55151810D01*
X108397148Y-55162796D01*
X108382065Y-55170935D01*
X108355146Y-55183174D01*
X108348344Y-55189035D01*
X108335693Y-55199936D01*
X108320689Y-55211039D01*
X108298970Y-55224742D01*
X108293031Y-55231467D01*
X108293027Y-55231470D01*
X108279396Y-55246904D01*
X108267204Y-55258948D01*
X108251601Y-55272393D01*
X108251599Y-55272396D01*
X108244801Y-55278253D01*
X108239921Y-55285782D01*
X108239920Y-55285783D01*
X108230834Y-55299801D01*
X108219543Y-55314675D01*
X108208497Y-55327183D01*
X108202550Y-55333917D01*
X108196240Y-55347357D01*
X108189986Y-55360677D01*
X108181665Y-55375657D01*
X108170457Y-55392949D01*
X108170455Y-55392954D01*
X108165576Y-55400481D01*
X108163006Y-55409074D01*
X108163004Y-55409079D01*
X108158217Y-55425086D01*
X108151556Y-55442530D01*
X108144461Y-55457642D01*
X108140647Y-55465766D01*
X108139266Y-55474633D01*
X108139266Y-55474634D01*
X108136098Y-55494981D01*
X108132315Y-55511698D01*
X108126413Y-55531432D01*
X108126412Y-55531438D01*
X108123842Y-55540032D01*
X108123787Y-55549003D01*
X108123787Y-55549004D01*
X108123632Y-55574463D01*
X108123599Y-55575255D01*
X108123428Y-55576352D01*
X108123428Y-55607343D01*
X108123426Y-55608113D01*
X108122952Y-55685687D01*
X108123336Y-55687031D01*
X108123428Y-55688376D01*
X108123428Y-58615413D01*
X108123426Y-58616183D01*
X108122952Y-58693757D01*
X81158095Y-58693757D01*
X81158396Y-49837655D01*
X82839858Y-49837655D01*
X82875104Y-50096638D01*
X82876412Y-50101124D01*
X82876412Y-50101126D01*
X82896098Y-50168664D01*
X82948243Y-50347567D01*
X83057668Y-50584928D01*
X83060231Y-50588837D01*
X83198410Y-50799596D01*
X83198414Y-50799601D01*
X83200976Y-50803509D01*
X83375018Y-50998506D01*
X83575970Y-51165637D01*
X83579973Y-51168066D01*
X83795422Y-51298804D01*
X83795426Y-51298806D01*
X83799419Y-51301229D01*
X84040455Y-51402303D01*
X84293783Y-51466641D01*
X84298434Y-51467109D01*
X84298438Y-51467110D01*
X84491308Y-51486531D01*
X84510867Y-51488500D01*
X84666354Y-51488500D01*
X84668679Y-51488327D01*
X84668685Y-51488327D01*
X84856000Y-51474407D01*
X84856004Y-51474406D01*
X84860652Y-51474061D01*
X84865200Y-51473032D01*
X84865206Y-51473031D01*
X85051601Y-51430853D01*
X85115577Y-51416377D01*
X85151769Y-51402303D01*
X85354824Y-51323340D01*
X85354827Y-51323339D01*
X85359177Y-51321647D01*
X85586098Y-51191951D01*
X85791357Y-51030138D01*
X85970443Y-50839763D01*
X86119424Y-50625009D01*
X86235025Y-50390593D01*
X86314707Y-50141665D01*
X86356721Y-49883693D01*
X86357324Y-49837655D01*
X134179858Y-49837655D01*
X134215104Y-50096638D01*
X134216412Y-50101124D01*
X134216412Y-50101126D01*
X134236098Y-50168664D01*
X134288243Y-50347567D01*
X134397668Y-50584928D01*
X134400231Y-50588837D01*
X134538410Y-50799596D01*
X134538414Y-50799601D01*
X134540976Y-50803509D01*
X134715018Y-50998506D01*
X134915970Y-51165637D01*
X134919973Y-51168066D01*
X135135422Y-51298804D01*
X135135426Y-51298806D01*
X135139419Y-51301229D01*
X135380455Y-51402303D01*
X135633783Y-51466641D01*
X135638434Y-51467109D01*
X135638438Y-51467110D01*
X135831308Y-51486531D01*
X135850867Y-51488500D01*
X136006354Y-51488500D01*
X136008679Y-51488327D01*
X136008685Y-51488327D01*
X136196000Y-51474407D01*
X136196004Y-51474406D01*
X136200652Y-51474061D01*
X136205200Y-51473032D01*
X136205206Y-51473031D01*
X136391601Y-51430853D01*
X136455577Y-51416377D01*
X136491769Y-51402303D01*
X136694824Y-51323340D01*
X136694827Y-51323339D01*
X136699177Y-51321647D01*
X136926098Y-51191951D01*
X137131357Y-51030138D01*
X137310443Y-50839763D01*
X137459424Y-50625009D01*
X137575025Y-50390593D01*
X137654707Y-50141665D01*
X137696721Y-49883693D01*
X137700142Y-49622345D01*
X137664896Y-49363362D01*
X137650473Y-49313877D01*
X137593068Y-49116932D01*
X137591757Y-49112433D01*
X137482332Y-48875072D01*
X137449519Y-48825024D01*
X137341590Y-48660404D01*
X137341586Y-48660399D01*
X137339024Y-48656491D01*
X137164982Y-48461494D01*
X136964030Y-48294363D01*
X136916844Y-48265730D01*
X136744578Y-48161196D01*
X136744574Y-48161194D01*
X136740581Y-48158771D01*
X136499545Y-48057697D01*
X136246217Y-47993359D01*
X136241566Y-47992891D01*
X136241562Y-47992890D01*
X136032271Y-47971816D01*
X136029133Y-47971500D01*
X135873646Y-47971500D01*
X135871321Y-47971673D01*
X135871315Y-47971673D01*
X135684000Y-47985593D01*
X135683996Y-47985594D01*
X135679348Y-47985939D01*
X135674800Y-47986968D01*
X135674794Y-47986969D01*
X135488399Y-48029147D01*
X135424423Y-48043623D01*
X135420071Y-48045315D01*
X135420069Y-48045316D01*
X135185176Y-48136660D01*
X135185173Y-48136661D01*
X135180823Y-48138353D01*
X134953902Y-48268049D01*
X134748643Y-48429862D01*
X134569557Y-48620237D01*
X134420576Y-48834991D01*
X134304975Y-49069407D01*
X134225293Y-49318335D01*
X134183279Y-49576307D01*
X134179858Y-49837655D01*
X86357324Y-49837655D01*
X86360142Y-49622345D01*
X86324896Y-49363362D01*
X86310473Y-49313877D01*
X86253068Y-49116932D01*
X86251757Y-49112433D01*
X86142332Y-48875072D01*
X86109519Y-48825024D01*
X86001590Y-48660404D01*
X86001586Y-48660399D01*
X85999024Y-48656491D01*
X85824982Y-48461494D01*
X85624030Y-48294363D01*
X85576844Y-48265730D01*
X85404578Y-48161196D01*
X85404574Y-48161194D01*
X85400581Y-48158771D01*
X85159545Y-48057697D01*
X84906217Y-47993359D01*
X84901566Y-47992891D01*
X84901562Y-47992890D01*
X84692271Y-47971816D01*
X84689133Y-47971500D01*
X84533646Y-47971500D01*
X84531321Y-47971673D01*
X84531315Y-47971673D01*
X84344000Y-47985593D01*
X84343996Y-47985594D01*
X84339348Y-47985939D01*
X84334800Y-47986968D01*
X84334794Y-47986969D01*
X84148399Y-48029147D01*
X84084423Y-48043623D01*
X84080071Y-48045315D01*
X84080069Y-48045316D01*
X83845176Y-48136660D01*
X83845173Y-48136661D01*
X83840823Y-48138353D01*
X83613902Y-48268049D01*
X83408643Y-48429862D01*
X83229557Y-48620237D01*
X83080576Y-48834991D01*
X82964975Y-49069407D01*
X82885293Y-49318335D01*
X82843279Y-49576307D01*
X82839858Y-49837655D01*
X81158396Y-49837655D01*
X81158498Y-46833260D01*
X81160244Y-46812361D01*
X81162769Y-46797351D01*
X81162770Y-46797345D01*
X81163576Y-46792552D01*
X81163729Y-46780000D01*
X81163040Y-46775188D01*
X81162723Y-46770327D01*
X81163008Y-46770308D01*
X81162607Y-46743549D01*
X81169234Y-46684736D01*
X81175513Y-46657229D01*
X81202485Y-46580147D01*
X81214727Y-46554726D01*
X81258178Y-46485574D01*
X81275770Y-46463515D01*
X81333515Y-46405770D01*
X81355574Y-46388178D01*
X81424726Y-46344727D01*
X81450147Y-46332485D01*
X81527228Y-46305513D01*
X81554736Y-46299234D01*
X81610226Y-46292982D01*
X81625868Y-46293077D01*
X81625879Y-46292200D01*
X81634851Y-46292310D01*
X81643724Y-46293691D01*
X81652626Y-46292527D01*
X81652628Y-46292527D01*
X81667951Y-46290523D01*
X81675286Y-46289564D01*
X81691621Y-46288500D01*
X138840633Y-46288500D01*
X138860018Y-46290000D01*
G37*
%TD.AperFunction*%
M02*
